<?xml version="1.0" encoding="utf-8"?>
<!-- Generator: Adobe Illustrator 16.0.3, SVG Export Plug-In . SVG Version: 6.00 Build 0)  -->
<!DOCTYPE svg PUBLIC "-//W3C//DTD SVG 1.1//EN" "http://www.w3.org/Graphics/SVG/1.1/DTD/svg11.dtd">
<svg version="1.1" id="圖層_1" xmlns="http://www.w3.org/2000/svg" xmlns:xlink="http://www.w3.org/1999/xlink" x="0px" y="0px"
	 width="185px" height="212px" viewBox="0 0 185 212" enable-background="new 0 0 185 212" xml:space="preserve">
<g>
	<polygon fill="#FAB9B9" points="92.211,210.514 0.412,157.514 0.413,52.175 92.211,105.175 	"/>
	<polygon fill="#FAAEAF" points="92.211,210.514 184.01,157.514 184.01,52.175 92.211,105.175 	"/>
	<polygon fill="#FA7A7B" points="91.924,180.02 26.71,142.367 26.71,94.825 91.924,131.908 	"/>
	<polygon fill="#FA6B6B" points="91.925,180.02 157.139,142.367 157.137,94.392 91.925,131.908 	"/>
	<polygon fill="#FA7F7F" points="91.72,56.976 91.72,131.809 91.924,131.926 156.73,94.509 	"/>
	<polygon fill="#FA9898" points="91.822,56.976 91.822,131.809 91.618,131.926 26.812,94.509 	"/>
	<polygon fill="#FACBCB" points="92.211,105.01 0.412,52.01 91.638,-0.659 183.438,52.341 	"/>
</g>
<g transform="translate(103.000000, 76.000000)" display="none">
	<path display="inline" fill="#4C4C4C" d="M-66.904,34.713c8.276,0,14.158,1.217,18.377,2.839v-6.815
		c-3.57-1.134-9.209-2.353-18.215-2.353c-11.48,0-16.957,2.312-19.675,5.03c-2.515,2.516-3.813,5.883-3.813,10.223
		c0,4.342,1.298,7.709,3.813,10.223c2.758,2.802,8.113,5.031,19.31,5.031c8.966,0,14.482-1.258,17.891-4.666
		c1.866-1.865,2.839-4.502,2.839-9.045v-3.772h-24.99v5.68h17.526c0.04,0.647,0.04,2.149-0.974,3.164
		c-1.826,1.825-6.328,2.435-12.292,2.435c-7.302,0-11.116-1.338-12.901-3.123c-1.298-1.34-1.988-3.246-1.988-5.924
		c0-2.597,0.73-4.625,2.15-6.046C-78.263,36.01-74.409,34.713-66.904,34.713C-66.904,34.713-74.409,34.713-66.904,34.713
		L-66.904,34.713L-66.904,34.713z"/>
	<path display="inline" fill="#4C4C4C" d="M72.654,29.473h-9.301L48.457,51.771L33.602,29.473h-9.703l19.445,28.328h9.864l0,0
		L72.654,29.473L72.654,29.473z"/>
	<path display="inline" fill="#4C4C4C" d="M21.445,9.862h-8.068l-52.672,67.279h8.19L21.445,9.862z"/>
	<path display="inline" fill="#4C4C4C" d="M9.5,33.495c-2.648-2.677-7.748-5.111-18.949-5.111c-10.8,0-16.3,2.394-18.99,5.111
		c-2.449,2.476-3.774,5.558-3.774,10.142c0,4.586,1.325,7.627,3.774,10.103c2.65,2.678,7.989,5.151,18.99,5.151
		c11,0,16.301-2.434,18.949-5.11c2.449-2.476,3.773-5.558,3.773-10.144C13.273,39.012,11.949,35.971,9.5,33.495z M-9.449,52.354
		c-7.177,0-10.884-1.483-12.479-3.09c-1.236-1.244-2.114-2.85-2.114-5.897c0-3.05,0.758-4.695,2.074-6.021
		c1.635-1.646,5.342-2.97,12.519-2.97c7.178,0,10.764,1.364,12.439,3.05c1.316,1.324,2.113,2.891,2.113,5.939
		s-0.758,4.693-2.074,6.019C1.355,51.068-2.271,52.354-9.449,52.354z"/>
</g>
<g transform="translate(103.000000, 76.000000)" display="none">
	<path display="inline" fill="#FFFFFF" d="M-68.904,32.713c8.276,0,14.158,1.217,18.377,2.839v-6.815
		c-3.57-1.136-9.209-2.353-18.215-2.353c-11.48,0-16.957,2.312-19.675,5.03c-2.515,2.516-3.813,5.883-3.813,10.223
		c0,4.342,1.298,7.709,3.813,10.223c2.758,2.802,8.113,5.031,19.31,5.031c8.966,0,14.482-1.258,17.891-4.666
		c1.866-1.865,2.839-4.502,2.839-9.045v-3.772h-24.99v5.68h17.526c0.04,0.647,0.04,2.149-0.974,3.164
		c-1.826,1.825-6.328,2.435-12.292,2.435c-7.302,0-11.116-1.338-12.901-3.123c-1.298-1.34-1.988-3.246-1.988-5.924
		c0-2.597,0.73-4.625,2.15-6.046C-80.263,34.01-76.409,32.713-68.904,32.713C-68.904,32.713-76.409,32.713-68.904,32.713
		L-68.904,32.713L-68.904,32.713z"/>
	<path display="inline" fill="#FFFFFF" d="M70.654,27.473h-9.301L46.457,49.771L31.602,27.473h-9.703l19.445,28.328h9.864l0,0
		L70.654,27.473L70.654,27.473z"/>
	<path display="inline" fill="#C31F25" d="M19.445,7.862h-8.068l-52.672,67.279h8.19L19.445,7.862z"/>
	<path display="inline" fill="#FFFFFF" d="M7.5,31.495c-2.648-2.677-7.748-5.111-18.949-5.111c-10.8,0-16.3,2.394-18.99,5.111
		c-2.449,2.476-3.774,5.558-3.774,10.142c0,4.586,1.325,7.627,3.774,10.103c2.65,2.678,7.989,5.151,18.99,5.151
		c11.002,0,16.301-2.434,18.949-5.111c2.449-2.475,3.773-5.559,3.773-10.144C11.273,37.012,9.949,33.971,7.5,31.495z M-11.45,50.354
		c-7.176,0-10.884-1.483-12.479-3.09c-1.236-1.244-2.114-2.85-2.114-5.897c0-3.05,0.758-4.695,2.074-6.021
		c1.635-1.646,5.342-2.97,12.519-2.97s10.765,1.364,12.44,3.05c1.316,1.324,2.113,2.891,2.113,5.939s-0.758,4.693-2.074,6.019
		C-0.645,49.068-4.271,50.354-11.45,50.354z"/>
</g>
<g>
	<path d="M60.87,131.366"/>
	<path d="M71.397,122.221"/>
	<path d="M90.656,106.686"/>
	<path d="M97.918,102.666"/>
	<path d="M89.577,115.559"/>
</g>
<g>
	<path fill="#F9F9F9" d="M62.29,113.588"/>
	<path fill="#F9F9F9" d="M82.923,95.57"/>
	<path fill="#F9F9F9" d="M87.294,110.188"/>
</g>
<g>
	<g>
		<polygon fill="#CE0000" points="132.67,99.789 116.043,99.789 116.043,116.857 96.918,116.857 96.918,131.698 116.043,131.698 
			116.043,148.767 132.67,148.767 132.67,130.819 151.793,130.819 151.793,116.857 132.67,116.857 		"/>
		<path fill="#CE0000" d="M88.605,108.558h19.122V92.368h33.258v17.068h9.645c3.455-4.947,5.459-10.557,5.459-16.705
			c0-17.138-15.561-31.033-34.758-31.033c-11.666,0-21.986,13.787-28.291,21.657c-6.305-7.87-16.626-21.66-28.291-21.66
			c-19.197,0-34.76,13.894-34.76,31.031c0,7.45,2.941,14.285,7.843,19.635l55.208,59.658l14.688-15.873v-17.027H88.605V108.558z"/>
	</g>
	<g>
		<polygon fill="#F9EAEA" points="130.033,97.153 113.404,97.153 113.404,114.221 94.281,114.221 94.281,129.062 113.404,129.062 
			113.404,146.131 130.033,146.131 130.033,129.062 149.156,129.062 149.156,114.221 130.033,114.221 		"/>
		<path fill="#F9EAEA" d="M85.967,106.8h19.123V89.73h33.258V106.8h9.645c3.455-4.948,5.459-10.557,5.459-16.705
			c0-17.138-15.563-31.033-34.76-31.033c-11.664,0-21.984,13.787-28.291,21.657c-6.304-7.87-16.626-21.66-28.289-21.66
			c-19.198,0-34.76,13.893-34.76,31.031c0,7.451,2.941,14.286,7.843,19.634l55.206,59.659l14.689-15.873v-17.026H85.967V106.8z"/>
	</g>
</g>
</svg>
