<?xml version="1.0" encoding="utf-8"?>
<!-- Generator: Adobe Illustrator 16.0.0, SVG Export Plug-In . SVG Version: 6.00 Build 0)  -->
<!DOCTYPE svg PUBLIC "-//W3C//DTD SVG 1.1//EN" "http://www.w3.org/Graphics/SVG/1.1/DTD/svg11.dtd">
<svg version="1.1" id="圖層_1" xmlns="http://www.w3.org/2000/svg" xmlns:xlink="http://www.w3.org/1999/xlink" x="0px" y="0px"
	 width="185px" height="212px" viewBox="0 0 185 212" enable-background="new 0 0 185 212" xml:space="preserve">
<g>
	<polygon fill="#EDB85C" points="92.859,211.25 1.166,158.312 1.167,53.098 92.859,106.036 	"/>
	<polygon fill="#DDAE59" points="91.584,211.575 183.275,158.639 183.275,53.423 91.584,106.36 	"/>
	<polygon fill="#E69545" points="92.146,181.215 27.008,143.607 27.009,96.122 92.146,133.16 	"/>
	<polygon fill="#E58244" points="92.147,181.215 157.285,143.607 157.283,95.69 92.147,133.16 	"/>
	<polygon fill="#DD9F43" points="91.943,58.317 91.943,133.061 92.146,133.178 156.879,95.807 	"/>
	<polygon fill="#E7A446" points="92.043,58.317 92.043,133.061 91.842,133.178 27.11,95.807 	"/>
	<polygon fill="#E5B855" points="92.435,106.295 0.741,53.357 91.861,0.75 183.555,53.688 	"/>
</g>
<g>
	<path fill="#C67C39" d="M145.697,129.812c0.043-0.408,0.071-0.818,0.096-1.232c0.029-0.49-29.455-28.453-29.455-28.453h-0.707
		C115.629,100.126,145.517,131.639,145.697,129.812L145.697,129.812L145.697,129.812z"/>
	<path fill="#C67C39" d="M82.789,120.104c-0.039,0.088-0.079,0.174-0.119,0.263c-0.041,0.088-0.084,0.176-0.127,0.268
		c-0.94,1.959,13.161,15.74,14.292,14.066c0.056-0.074,0.105-0.152,0.156-0.228c0.058-0.088,0.117-0.17,0.172-0.26
		C98.07,132.837,83.19,119.212,82.789,120.104L82.789,120.104L82.789,120.104z"/>
	<path fill="#C67C39" d="M145.812,128.329c-0.646,14.313-12.485,25.758-26.955,25.758h-1.952l-14.449-14.231
		c1.188-1.676,2.295-3.412,3.276-5.226h13.125c4.154,0,7.533-3.375,7.533-7.528c0-4.15-3.379-7.529-7.533-7.529h-7.766
		c0.592-3.129,0.913-6.354,0.913-9.648c0-3.349-0.327-6.618-0.942-9.797h4.826l29.838,29.389
		C145.763,129.12,145.789,128.729,145.812,128.329L145.812,128.329L145.812,128.329z M60.117,65.611h-7.849v19.456h7.849
		c13.709,0,24.864,11.151,24.864,24.856c0,3.726-0.832,7.267-2.311,10.443l14.323,14.106c4.703-7.033,7.45-15.479,7.45-24.551
		C104.442,85.491,84.557,65.611,60.117,65.611L60.117,65.611L60.117,65.611z"/>
	<path fill="#C67C39" d="M118.856,65.611H87.071c7.767,4.739,14.196,11.46,18.575,19.456h13.211c4.154,0,7.533,3.377,7.533,7.531
		c0,4.152-3.379,7.529-7.533,7.529h-2.967l29.84,29.391c0.068-0.8,0.113-1.599,0.113-2.416c0-6.56-2.354-12.574-6.263-17.25
		c3.908-4.678,6.263-10.695,6.263-17.253C145.843,77.717,133.738,65.611,118.856,65.611L118.856,65.611L118.856,65.611z"/>
	<path fill="#C67C39" d="M116.904,154.087H87.299c5.959-3.678,11.109-8.537,15.154-14.231L116.904,154.087L116.904,154.087z
		 M96.992,134.475l-14.321-14.107c-3.957,8.5-12.576,14.412-22.555,14.412h-7.849v19.453h7.849
		C75.477,154.23,89.035,146.374,96.992,134.475L96.992,134.475L96.992,134.475z"/>
</g>
<g>
	<g>
		<path fill="#FFF8EE" d="M142.504,127.273c0.043-0.408,0.072-0.82,0.096-1.234c0.027-0.49-29.455-28.45-29.455-28.45h-0.705
			C112.439,97.589,142.324,129.098,142.504,127.273L142.504,127.273L142.504,127.273z"/>
		<path fill="#FFF8EE" d="M79.596,117.568c-0.039,0.086-0.079,0.172-0.119,0.258c-0.041,0.092-0.084,0.178-0.127,0.268
			c-0.94,1.961,13.16,15.742,14.292,14.068c0.053-0.074,0.104-0.152,0.155-0.229c0.06-0.086,0.115-0.17,0.173-0.259
			C94.877,130.299,79.999,116.676,79.596,117.568L79.596,117.568L79.596,117.568z"/>
		<path fill="#FFF8EE" d="M99.52,136.947c-0.039,0.088-0.324,0.57-0.584,0.822c-0.043,0.088,13.765,13.78,13.765,13.78h1.241
			C113.943,151.551,100.982,137.527,99.52,136.947L99.52,136.947L99.52,136.947z"/>
		<path fill="#FFF8EE" d="M142.619,125.793c-0.645,14.312-12.488,25.758-26.955,25.758h-1.955l-14.447-14.236
			c1.188-1.674,2.293-3.409,3.277-5.223h13.125c4.152,0,7.531-3.377,7.531-7.531c0-4.147-3.379-7.524-7.531-7.524h-7.766
			c0.59-3.127,0.914-6.351,0.914-9.646c0-3.351-0.33-6.622-0.943-9.801h4.826l29.838,29.387
			C142.57,126.582,142.598,126.191,142.619,125.793L142.619,125.793L142.619,125.793z M56.925,63.075h-7.849v19.456h7.849
			c13.708,0,24.863,11.151,24.863,24.859c0,3.726-0.832,7.262-2.311,10.437l14.321,14.106c4.701-7.033,7.449-15.477,7.449-24.543
			C101.248,82.955,81.364,63.075,56.925,63.075L56.925,63.075L56.925,63.075z"/>
		<path fill="#FFF8EE" d="M115.664,63.075H83.879c7.762,4.739,14.193,11.46,18.574,19.456h13.211c4.152,0,7.531,3.377,7.531,7.531
			c0,4.152-3.379,7.528-7.531,7.528h-2.967l29.84,29.389c0.068-0.797,0.113-1.6,0.113-2.418c0-6.557-2.355-12.565-6.265-17.244
			c3.908-4.678,6.265-10.696,6.265-17.254C142.65,75.181,130.545,63.075,115.664,63.075L115.664,63.075L115.664,63.075z"/>
		<path fill="#FFF8EE" d="M113.709,151.551H84.107c5.958-3.68,11.112-8.539,15.155-14.236L113.709,151.551L113.709,151.551z
			 M93.799,131.934l-14.32-14.106c-3.956,8.5-12.576,14.414-22.554,14.414h-7.849v19.452h7.849
			C72.286,151.693,85.843,143.836,93.799,131.934L93.799,131.934L93.799,131.934z"/>
	</g>
</g>
</svg>
