<?xml version="1.0" encoding="utf-8"?>
<!-- Generator: Adobe Illustrator 16.0.0, SVG Export Plug-In . SVG Version: 6.00 Build 0)  -->
<!DOCTYPE svg PUBLIC "-//W3C//DTD SVG 1.1//EN" "http://www.w3.org/Graphics/SVG/1.1/DTD/svg11.dtd">
<svg version="1.1" id="圖層_1" xmlns="http://www.w3.org/2000/svg" xmlns:xlink="http://www.w3.org/1999/xlink" x="0px" y="0px"
	 width="185px" height="212px" viewBox="0 0 185 212" enable-background="new 0 0 185 212" xml:space="preserve">
<g>
	<polygon fill="#BAC55E" points="92.859,211.25 1.166,158.312 1.167,53.098 92.859,106.036 	"/>
	<polygon fill="#ADBE4B" points="91.584,211.575 183.275,158.639 183.275,53.423 91.584,106.36 	"/>
	<polygon fill="#88A750" points="92.146,181.215 27.008,143.607 27.009,96.122 92.146,133.16 	"/>
	<polygon fill="#6E9C30" points="92.147,181.215 157.285,143.607 157.283,95.69 92.147,133.16 	"/>
	<polygon fill="#95B053" points="91.943,58.317 91.943,133.061 92.146,133.178 156.879,95.807 	"/>
	<polygon fill="#A4BA63" points="92.043,58.317 92.043,133.061 91.842,133.178 27.11,95.807 	"/>
	<polygon fill="#BBCD5E" points="92.435,106.295 0.741,53.357 91.861,0.75 183.555,53.688 	"/>
</g>
<g>
	<path fill="#646852" d="M136.192,57.822c-7.466-8.337-17.331-16.073-41.716-16.244c-9.528-0.076-24.072,2.177-35.388,14.144
		C52.241,62.948,47.204,72.077,48.636,87c0.312,3.239,4.934,6.985,1.686,13.233c0,0-6.979,12.281-6.733,14.325
		c0,0-0.123,3.735,5.657,3.853c0,0,1.443,0.187,1.027,3.37l-0.069,4.643c0,0,0.184,1.381,2.713,2.22c0,0,0.481,0.481-0.237,1.39
		c0,0-1.33,1.485,0.961,4.692c0.848,1.169,2.227,2.642,1.384,5.665c0,0-1.083,5.828,1.204,7.224c0,0,2.601,3.087,13.066,1.795
		c3.66-0.45,10.414-2.219,14.439,2.836c0,0,9.627,18.292,10.359,22.618c0,0,16.428-29.246,36.478-33.76
		c0,0-4.886-11.017,5.054-25.281c0,0,12.455-16.432,12.825-25.458C148.441,90.362,151.727,75.151,136.192,57.822z M76.66,75.912
		c-0.712,0.259-1.186,0.937-1.193,1.691l-0.077,8.5c-14.306-0.841-14.177-7.141-12.94-15.15c0.983-6.361,5.931-11.582,13.219-14.91
		l-0.083,9.521c-0.007,0.754,0.456,1.435,1.16,1.709c0.703,0.275,1.497,0.079,2.009-0.486c1.419-1.597,3.411-2.507,5.491-2.507
		c0.023,0,0.041,0,0.062,0c4.061,0.037,7.338,3.376,7.306,7.444c-0.04,4.045-3.346,7.32-7.379,7.32c-0.025,0-0.046,0-0.065,0
		c-2.098-0.018-4.104-0.965-5.5-2.597C78.161,75.863,77.359,75.656,76.66,75.912z M120.568,98.503
		c-3.081-0.31-6.221-1.151-9.098-2.387c-7.499-3.217-9.572-11.767-21.357-10.559c-4.339,0.446-7.965,0.629-11.109,0.638l0.048-4.844
		c1.551,0.834,3.28,1.294,5.064,1.313c0.032,0,0.06,0,0.087,0c6.017,0,10.952-4.874,11.006-10.912
		c0.054-6.068-4.84-11.046-10.902-11.102c-1.722,0.007-3.525,0.418-5.083,1.225l0.069-7.283c5.896-1.99,12.921-2.889,20.486-2.346
		c7.777,0.547,15.058,2.851,21.147,6.334l-0.038,3.646c-1.552-0.836-3.28-1.298-5.067-1.312
		c-5.962,0.079-11.033,4.844-11.104,10.909c-0.026,2.944,1.102,5.714,3.156,7.814c2.061,2.094,4.811,3.263,7.756,3.284
		c1.848-0.049,3.523-0.413,5.079-1.225L120.568,98.503z M124.193,98.599l0.185-20.583c0.009-0.754-0.459-1.435-1.159-1.707
		c-0.7-0.272-1.496-0.081-2.01,0.485c-1.436,1.61-3.38,2.43-5.542,2.501c-1.968-0.014-3.816-0.801-5.194-2.2
		c-1.387-1.408-2.138-3.263-2.12-5.232c0.045-4.05,3.345-7.324,7.378-7.324c0.021,0,0.047,0,0.067,0
		c2.133,0.017,4.087,0.941,5.507,2.598c0.486,0.578,1.287,0.779,1.995,0.529c0.713-0.256,1.188-0.931,1.194-1.685l0.051-5.091
		c7.18,5.134,12.076,12.11,12.998,19.855C139.033,93.342,132.337,98.203,124.193,98.599z"/>
</g>
<g>
	<path fill="#EDEFE6" d="M133.992,55.897c-7.467-8.337-17.33-16.073-41.716-16.244c-9.527-0.076-24.071,2.177-35.387,14.144
		c-6.848,7.226-11.884,16.355-10.452,31.277c0.312,3.239,4.934,6.985,1.685,13.233c0,0-6.978,12.281-6.733,14.325
		c0,0-0.124,3.735,5.657,3.853c0,0,1.443,0.187,1.027,3.37l-0.069,4.643c0,0,0.184,1.381,2.713,2.22c0,0,0.481,0.481-0.237,1.39
		c0,0-1.33,1.485,0.961,4.692c0.848,1.169,2.227,2.642,1.384,5.665c0,0-1.083,5.828,1.204,7.224c0,0,2.601,3.087,13.067,1.795
		c3.66-0.45,10.413-2.219,14.438,2.836c0,0,9.626,18.292,10.358,22.618c0,0,16.428-29.246,36.479-33.76
		c0,0-4.886-11.017,5.054-25.281c0,0,12.454-16.432,12.823-25.459C146.241,88.438,149.526,73.227,133.992,55.897z M74.46,73.988
		c-0.712,0.259-1.186,0.937-1.193,1.691l-0.077,8.5c-14.306-0.841-14.177-7.141-12.94-15.15c0.983-6.361,5.931-11.582,13.219-14.911
		l-0.083,9.522c-0.007,0.753,0.456,1.434,1.16,1.708c0.703,0.275,1.497,0.079,2.009-0.486c1.42-1.597,3.412-2.507,5.492-2.507
		c0.023,0,0.04,0,0.062,0c4.061,0.037,7.338,3.376,7.306,7.444c-0.041,4.045-3.345,7.32-7.378,7.32c-0.025,0-0.046,0-0.065,0
		c-2.098-0.018-4.104-0.965-5.5-2.597C75.961,73.938,75.159,73.731,74.46,73.988z M118.368,96.579
		c-3.081-0.31-6.222-1.151-9.097-2.387c-7.499-3.217-9.573-11.767-21.358-10.559c-4.339,0.446-7.965,0.629-11.109,0.638l0.048-4.844
		c1.551,0.834,3.28,1.294,5.064,1.313c0.032,0,0.061,0,0.087,0c6.017,0,10.953-4.874,11.007-10.912
		c0.053-6.068-4.841-11.046-10.902-11.102c-1.723,0.007-3.525,0.418-5.083,1.225l0.069-7.283c5.895-1.99,12.921-2.889,20.484-2.346
		c7.778,0.547,15.059,2.851,21.149,6.334l-0.039,3.646c-1.551-0.836-3.28-1.297-5.066-1.312
		c-5.963,0.079-11.034,4.844-11.104,10.909c-0.027,2.944,1.102,5.714,3.156,7.814c2.059,2.094,4.811,3.263,7.756,3.284
		c1.847-0.049,3.522-0.413,5.078-1.225L118.368,96.579z M121.992,96.675l0.186-20.583c0.009-0.754-0.458-1.435-1.158-1.707
		c-0.701-0.272-1.496-0.081-2.011,0.485c-1.435,1.61-3.381,2.43-5.541,2.501c-1.969-0.014-3.816-0.801-5.195-2.2
		c-1.387-1.408-2.137-3.263-2.12-5.231c0.046-4.051,3.345-7.324,7.378-7.324c0.022,0,0.047,0,0.068,0
		c2.133,0.017,4.086,0.941,5.505,2.598c0.487,0.578,1.289,0.779,1.997,0.529c0.713-0.256,1.188-0.931,1.194-1.685l0.05-5.091
		c7.179,5.134,12.076,12.111,12.998,19.855C136.833,91.417,130.137,96.279,121.992,96.675z"/>
</g>
<g display="none">
	<path display="inline" fill="#646852" d="M152.222,95.213c0-8.163-4.112-15.656-10.765-20.091
		c-1.927-10.689-11.296-18.82-22.526-18.82c-0.327,0-0.663,0.009-0.993,0.022c-4.292-5.168-10.636-8.226-17.502-8.226
		c-4.899,0-9.638,1.605-13.55,4.511c-2.154-0.59-4.354-0.886-6.571-0.886c-8.982,0-17.252,4.784-21.857,12.298
		c-13.339,1.256-23.81,12.513-23.81,26.167c0,7.771,3.474,15.133,9.397,20.108c3.478,8.319,11.512,13.764,20.658,13.764
		c1.176,0,2.365-0.092,3.55-0.302c3,2.073,6.567,3.21,10.247,3.21c0.867,0,1.729-0.062,2.58-0.181
		c2.981,5.894,8.337,11.231,13.575,16.447c4.859,4.839,9.876,9.841,11.642,14.079l4.972,11.963l7.108-10.837
		c5.4-8.227,4.514-16.997,1.688-24.015c0.229-0.095,0.448-0.206,0.668-0.315c1.618,0.454,3.281,0.681,4.966,0.681
		c10.474,0,19.001-8.521,19.001-18.999c0-0.988-0.082-1.968-0.242-2.941C149.344,108.348,152.222,101.969,152.222,95.213z
		 M136.433,110.257c0.858,1.658,1.396,3.527,1.396,5.539c0,6.706-5.437,12.134-12.135,12.134c-2.087,0-4.023-0.573-5.734-1.502
		c-2.11,1.779-4.798,2.893-7.762,2.893c-1.242,0-2.406-0.247-3.531-0.581c0,0,12.044,13.634,3.97,25.941
		c-4.257-10.236-19.424-20.194-24.999-30.202c2.356-1.503,4.385-3.506,6.458-5.623c6.631-6.792,13.484-13.815,35.242-6.396
		l2.213-6.5c-25.844-8.806-35.393,0.953-42.366,8.097c-1.422,1.454-2.737,2.764-4.05,3.804c-1.864,1.377-4.132,2.245-6.63,2.245
		c-3.398,0-6.402-1.529-8.476-3.902c-1.668,0.61-3.447,0.997-5.325,0.997c-6.804,0-12.495-4.4-14.631-10.48l0.049-0.009
		c-1.01-4.98,0.332-9.105,3.88-11.914c5.339-4.247,14.145-4.523,22.415-0.733l2.862-6.246c-10.613-4.841-22.21-4.225-29.551,1.601
		c-3.12,2.478-5.177,5.731-6.142,9.429c-1.31-2.606-2.07-5.534-2.07-8.66c0-10.725,8.695-19.415,19.425-19.415
		c0.604,0,1.166,0.12,1.756,0.179c2.647-7.198,9.505-12.362,17.624-12.362c2.914,0,5.638,0.72,8.105,1.9
		c2.938-3.362,7.201-5.526,12.012-5.526c3.791,0,7.242,1.346,9.973,3.554c-3.267,1.909-5.739,4.435-7.233,7.645
		c-0.111,0.246-0.169,0.496-0.271,0.736l-0.01-0.004c-1.787,3.375-5.458,6.134-9.149,6.868c-1.802,0.356-4.43,0.388-6.702-1.485
		l-4.38,5.279c2.583,2.146,5.767,3.265,9.186,3.265c1.06,0,2.142-0.103,3.231-0.322c2.348-0.469,4.596-1.417,6.652-2.709
		c0.476,3.438,1.529,6.513,2.419,8.623l6.326-2.677c-1.137-2.669-3.511-9.451-1.073-14.682c1.073-2.311,3.071-4.104,5.884-5.392
		c1.17-0.29,2.382-0.504,3.647-0.504c8.856,0,16.021,7.17,16.021,16.022c0,0.059-0.018,0.112-0.018,0.175
		c6.126,2.659,10.417,8.749,10.417,15.848C145.355,101.714,141.725,107.301,136.433,110.257z"/>
</g>
<g display="none">
	<path display="inline" fill="#EDEFE6" d="M149.496,93.376c0-8.163-4.112-15.656-10.765-20.091
		c-1.927-10.689-11.296-18.82-22.526-18.82c-0.327,0-0.663,0.009-0.993,0.022c-4.292-5.168-10.636-8.226-17.502-8.226
		c-4.897,0-9.636,1.605-13.549,4.511c-2.154-0.59-4.354-0.886-6.571-0.886c-8.982,0-17.252,4.784-21.857,12.298
		c-13.339,1.256-23.81,12.513-23.81,26.167c0,7.771,3.474,15.133,9.397,20.107c3.478,8.319,11.512,13.764,20.658,13.764
		c1.176,0,2.365-0.092,3.55-0.302c3,2.073,6.567,3.21,10.247,3.21c0.867,0,1.729-0.062,2.58-0.181
		c2.981,5.894,8.337,11.231,13.576,16.447c4.857,4.839,9.874,9.841,11.639,14.079l4.972,11.963l7.108-10.837
		c5.4-8.227,4.514-16.997,1.688-24.015c0.229-0.095,0.448-0.206,0.668-0.315c1.618,0.454,3.281,0.681,4.966,0.681
		c10.474,0,19.001-8.521,19.001-18.999c0-0.988-0.082-1.968-0.242-2.941C146.618,106.511,149.496,100.132,149.496,93.376z
		 M133.707,108.419c0.858,1.658,1.396,3.527,1.396,5.539c0,6.706-5.437,12.134-12.135,12.134c-2.087,0-4.023-0.573-5.734-1.502
		c-2.11,1.779-4.798,2.893-7.762,2.893c-1.242,0-2.406-0.247-3.531-0.581c0,0,12.044,13.634,3.97,25.941
		c-4.257-10.236-19.422-20.194-24.997-30.202c2.356-1.503,4.385-3.506,6.458-5.623c6.628-6.792,13.482-13.814,35.24-6.396
		l2.213-6.499c-25.844-8.806-35.391,0.953-42.364,8.096c-1.422,1.454-2.737,2.764-4.05,3.804c-1.864,1.377-4.132,2.245-6.63,2.245
		c-3.398,0-6.402-1.529-8.476-3.902c-1.668,0.61-3.447,0.997-5.325,0.997c-6.804,0-12.495-4.4-14.631-10.479l0.049-0.009
		c-1.01-4.98,0.332-9.105,3.88-11.914c5.339-4.247,14.145-4.523,22.415-0.733l2.862-6.246c-10.613-4.841-22.21-4.225-29.551,1.601
		c-3.12,2.478-5.177,5.731-6.142,9.429c-1.31-2.606-2.07-5.534-2.07-8.66c0-10.725,8.695-19.415,19.425-19.415
		c0.604,0,1.166,0.12,1.756,0.179c2.647-7.198,9.505-12.362,17.624-12.362c2.914,0,5.638,0.72,8.105,1.9
		c2.938-3.362,7.202-5.526,12.01-5.526c3.791,0,7.242,1.346,9.973,3.554c-3.267,1.909-5.739,4.435-7.233,7.645
		c-0.111,0.246-0.169,0.496-0.271,0.736l-0.01-0.004c-1.787,3.375-5.458,6.134-9.147,6.868c-1.803,0.356-4.431,0.388-6.703-1.485
		l-4.38,5.279c2.583,2.146,5.767,3.265,9.186,3.265c1.06,0,2.143-0.103,3.232-0.322c2.345-0.469,4.593-1.417,6.65-2.709
		c0.476,3.438,1.529,6.513,2.419,8.623l6.326-2.677c-1.137-2.669-3.511-9.451-1.073-14.682c1.073-2.311,3.071-4.104,5.884-5.392
		c1.17-0.29,2.382-0.504,3.647-0.504c8.856,0,16.021,7.17,16.021,16.022c0,0.059-0.018,0.112-0.018,0.175
		c6.126,2.659,10.417,8.749,10.417,15.848C142.63,99.877,138.999,105.464,133.707,108.419z"/>
</g>
<g display="none">
	<g display="inline">
		<path fill="#646852" d="M58.472,82.23l-10.482-6.302l15.441-0.207V62.026L40.849,70.8l-4.605,7.936l15.243,6.667
			c0,0-18.419,0-19.37,0c-0.955,0-1.907,15.877-1.907,15.877h18.415L58.472,82.23z"/>
		<polygon fill="#646852" points="44.118,105.246 30.624,105.246 50.472,121.692 61.585,117.246 		"/>
		<polygon fill="#646852" points="134.039,118.74 141.346,122.236 130.868,120.965 134.679,111.123 157.537,109.537 148.01,93.343 
			130.226,106.359 113.401,101.281 96.573,111.123 77.522,110.487 76.567,119.062 89.268,123.983 88,128.907 78.158,125.729 
			62.28,119.062 55.929,122.555 55.929,133.351 65.772,140.019 96.257,140.019 101.969,127.318 95.463,119.184 113.72,120.016 
			105.585,127.754 114.992,128.111 127.058,123.508 135.586,130.85 154.445,130.737 156.055,112.984 135.632,113.662 		"/>
		<path fill="#646852" d="M87.015,145.732l17.192,17.94l9.527-4.442l-14.651-16.355C99.083,142.875,89.237,145.732,87.015,145.732z"
			/>
		<polygon fill="#646852" points="101.495,139.899 111.021,148.471 132.49,143.668 132.49,131.325 104.867,131.325 		"/>
		<polygon fill="#646852" points="108.72,81.656 108.006,95.881 113.411,97.895 121.664,85.51 122.611,61.908 106.734,59.344 
			94.825,77.307 		"/>
		<polygon fill="#646852" points="122.611,91.118 122.611,99.69 131.503,99.69 147.374,86.353 131.503,69.529 127.058,73.737 
			127.69,84.611 		"/>
		<polygon fill="#646852" points="63.907,84.611 61.01,90.167 65.214,93.343 63.867,98.103 55.929,95.408 50.373,105.246 
			63.43,114.616 73.075,110.827 76.679,99.69 80.379,101.281 80.379,104.772 100.066,103.502 103.241,94.613 103.241,84.776 
			88,80.003 93.082,72.785 99.274,63.018 89.624,58.731 69.147,58.561 68.906,78.179 85.3,87.944 80.379,90.167 		"/>
	</g>
</g>
<g display="none">
	<g display="inline">
		<path fill="#EDEFE6" d="M57.173,79.877L46.69,73.576l15.441-0.207V59.674L39.55,68.447l-4.605,7.936l15.243,6.667
			c0,0-18.419,0-19.37,0c-0.955,0-1.907,15.877-1.907,15.877h18.415L57.173,79.877z"/>
		<polygon fill="#EDEFE6" points="42.819,102.893 29.325,102.893 49.173,119.34 60.287,114.894 		"/>
		<polygon fill="#EDEFE6" points="132.738,116.388 140.045,119.884 129.567,118.612 133.378,108.771 156.236,107.185 
			146.709,90.991 128.925,104.006 112.101,98.928 95.272,108.771 76.223,108.135 75.268,116.709 87.969,121.631 86.701,126.555 
			76.859,123.377 60.981,116.709 54.63,120.202 54.63,130.998 64.474,137.666 94.956,137.666 100.668,124.966 94.162,116.831 
			112.419,117.663 104.284,125.401 113.691,125.759 125.757,121.155 134.285,128.497 153.145,128.385 154.754,110.632 
			134.331,111.31 		"/>
		<path fill="#EDEFE6" d="M85.716,143.38l17.19,17.94l9.527-4.442l-14.651-16.355C97.782,140.522,87.938,143.38,85.716,143.38z"/>
		<polygon fill="#EDEFE6" points="100.194,137.547 109.72,146.118 131.189,141.315 131.189,128.973 103.566,128.973 		"/>
		<polygon fill="#EDEFE6" points="107.419,79.304 106.705,93.528 112.11,95.542 120.363,83.158 121.311,59.555 105.434,56.992 
			93.524,74.955 		"/>
		<polygon fill="#EDEFE6" points="121.311,88.765 121.311,97.337 130.202,97.337 146.073,84 130.202,67.176 125.757,71.385 
			126.39,82.258 		"/>
		<polygon fill="#EDEFE6" points="62.608,82.258 59.711,87.814 63.915,90.991 62.568,95.75 54.63,93.056 49.074,102.893 
			62.131,112.264 71.776,108.475 75.38,97.337 79.081,98.928 79.081,102.419 98.766,101.15 101.94,92.26 101.94,82.424 
			86.701,77.651 91.782,70.432 97.974,60.665 88.325,56.379 67.849,56.208 67.607,75.826 84.001,85.591 79.081,87.814 		"/>
	</g>
</g>
</svg>
