<?xml version="1.0" encoding="utf-8"?>
<!-- Generator: Adobe Illustrator 16.0.0, SVG Export Plug-In . SVG Version: 6.00 Build 0)  -->
<!DOCTYPE svg PUBLIC "-//W3C//DTD SVG 1.1//EN" "http://www.w3.org/Graphics/SVG/1.1/DTD/svg11.dtd">
<svg version="1.1" id="圖層_1" xmlns="http://www.w3.org/2000/svg" xmlns:xlink="http://www.w3.org/1999/xlink" x="0px" y="0px"
	 width="185px" height="212px" viewBox="0 0 185 212" enable-background="new 0 0 185 212" xml:space="preserve">
<g>
	<path fill="#8CD1C7" d="M92.913,211.01L1.402,158.175V53.166L92.913,106V211.01z"/>
	<path fill="#7ACBC3" d="M92.913,211.01l91.514-52.835V53.166L92.913,106V211.01z"/>
	<path fill="#61B1A5" d="M92.627,180.609l-65.009-37.533V95.682l65.009,36.966V180.609z"/>
	<path fill="#4FA99E" d="M92.627,180.609l65.014-37.533l-0.002-47.826l-65.012,37.398V180.609z"/>
	<path fill="#62B4A8" d="M92.424,57.952v74.599l0.203,0.116l64.605-37.299L92.424,57.952z"/>
	<path fill="#75B9AE" d="M92.525,57.952v74.599l-0.203,0.116L27.719,95.368L92.525,57.952z"/>
	<path fill="#9BD6D1" d="M92.913,105.835L1.402,53.001L92.341,0.497l91.515,52.834L92.913,105.835z"/>
</g>
<g>
	<path fill="#36685F" d="M149.114,88.851c-0.084-0.538-0.664-1.05-1.166-1.38c-0.416-0.273-0.776-0.529-1.3-0.529
		c-0.746,0-1.311,0.436-1.763,0.944c0,0-8.768,9.917-11.836,13.316c-0.343,0.379-0.918,0.23-0.918,0.23l-13.948-6.379
		c-0.525-0.24-1.123-0.368-1.726-0.368c-1.248,0-2.404,0.518-3.096,1.385l-9.596,12.056c-0.004,0.002-0.18,0.357-0.655,0.357H93.37
		c-1.308,0-1.648,0.913-1.648,2.033c0,1.122,0.34,2.034,1.648,2.034h10.612c1.426,0,2.572-0.733,3.378-1.742
		c0.069-0.089,6.902-8.619,9.198-11.538c0.239-0.306,0.561-0.091,0.561-0.091l14.009,6.405c0.525,0.242,1.477,0.525,2.094,0.525
		c1.206,0,1.729-0.363,2.435-1.157l12.996-14.594C149.034,89.927,149.198,89.391,149.114,88.851z"/>
	<g>
		<path fill="#36685F" d="M57.218,92.613c6.765,0,12.246-5.487,12.246-12.254c0-6.759-5.481-12.247-12.246-12.247
			c-6.767,0-12.254,5.488-12.254,12.247C44.964,87.126,50.451,92.613,57.218,92.613z"/>
		<path fill="#36685F" d="M111.055,121.024c-0.148-0.884-0.989-1.479-1.869-1.332l-20.52,1.66c-0.658-0.115-0.91-0.631-1.181-0.935
			c-0.133-0.15-0.279-0.295-0.436-0.431c-2.891-2.481-7.23-0.588-8.559-4.814c-2.937-9.35-6.918-19.579-13.126-19.579
			c-0.244,0-14.335,0-16.348,0c-6.447,0-10.093,13.047-13.33,22.293c-1.245,3.523-2.518,7.169-4.047,10.662
			c-1.053,2.41-0.837,5.213,1.573,6.267c0.619,0.268,1.261,0.398,1.898,0.398c1.833,0,3.156-1.408,3.936-3.193
			c1.194-2.739,3.138-8.685,4.413-12.331c0.296-0.848,0.665-1.398,0.592,0.074v12.351c0,0.569,0.131,1.108,0.365,1.59
			c0.146,0.3,0.575,0.772,0.548,1.399v32.541c0,3.266,2.246,5.912,5.381,5.912c3.135,0,5.085-2.646,5.085-5.912v-30.954
			c0,0-0.005-0.894,1.125-0.894c0.102,0,0.304,0,0.406,0c1.144,0,1.138,0.894,1.138,0.894v30.954c0,3.266,1.952,5.912,5.086,5.912
			s5.381-2.646,5.381-5.912v-31.323c0-0.923,0.679-1.58,0.943-1.908c0.509-0.631,0.815-1.43,0.815-2.299v-12.83
			c0-2.835,1.303,3.651,4.848,5.343c2.594,1.236,9.909,2.83,11.802,1.625c0.467-0.298,0.83-0.674,1.092-1.098
			c0.104-0.168,0.31-0.527,0.882-0.581l20.773-1.683C110.606,122.743,111.203,121.907,111.055,121.024z M62.307,117.45l-4.353,3.997
			c-0.407,0.375-1.073,0.375-1.48,0l-4.353-3.997c-0.408-0.374-0.647-1.122-0.534-1.662l2.27-10.834
			c0.034-0.161,0.137-0.653,0.128-0.763c-0.045-0.573-0.179-2.287-0.179-2.287c-0.043-0.552,0.375-1.002,0.927-1.002h4.963
			c0.553,0,0.97,0.451,0.926,1.002c0,0-0.134,1.714-0.178,2.287c-0.009,0.11,0.094,0.602,0.128,0.763l2.269,10.834
			C62.955,116.328,62.714,117.077,62.307,117.45z"/>
	</g>
	<path fill="#36685F" d="M158.489,81.59c1.081-0.39,1.86-1.428,1.86-2.64v-1.883c0-1.545-1.264-2.809-2.808-2.809H82.583
		c-1.546,0-2.81,1.264-2.81,2.809v1.883c0,1.108,0.652,2.069,1.592,2.525c0.313,0.152,1.021,0.271,1.021,0.864
		c0,0,0,24.208,0,32.264c0,0.754,0.643,0.688,0.643,0.688l3.379-0.322c0,0,0.757-0.049,0.757-0.686c0-11.325,0-23.834,0-31.778
		c0-0.504,0.696-0.592,0.696-0.592h64.254c0,0,0.853-0.04,0.853,0.701c0,11.831,0,35.208,0,46.939c0,0.407-0.454,0.361-0.454,0.361
		s-41.814,0-56.002,0c-3.971,0-15.785,1.843-15.785,1.843c-0.954,0.078-0.954,0.772-0.954,1.151v1.884
		c0,1.544,1.264,2.808,2.81,2.808h74.959c1.544,0,2.808-1.264,2.808-2.808v-1.884c0-1.352-0.968-2.485-2.245-2.747
		c-0.119-0.024-0.365-0.013-0.365-0.411V82.448C157.739,81.839,158.252,81.676,158.489,81.59z"/>
	<path fill="#36685F" d="M129.29,66.325c-1.059,0-2.592-0.557-3.405-1.236l-4.334-3.622c-0.814-0.68-2.111-0.642-2.883,0.083
		l-3.637,3.407c-0.772,0.726-2.271,1.325-3.331,1.334l-3.533,0.027c-1.059,0.008-1.294-0.578-0.521-1.302l11.015-10.327
		c0.773-0.725,2.055-0.743,2.849-0.041l11.754,10.406c0.792,0.702,0.576,1.276-0.485,1.275L129.29,66.325z"/>
</g>
<g>
	<path fill="#EFF8F8" d="M146.141,85.288c-0.084-0.538-0.664-1.05-1.166-1.38c-0.416-0.273-0.776-0.529-1.3-0.529
		c-0.746,0-1.311,0.436-1.763,0.944c0,0-8.768,9.917-11.836,13.316c-0.343,0.379-0.918,0.23-0.918,0.23l-13.948-6.379
		c-0.525-0.24-1.123-0.368-1.726-0.368c-1.248,0-2.404,0.518-3.096,1.385l-9.596,12.057c-0.004,0.002-0.18,0.358-0.655,0.358h-9.745
		c-1.308,0-1.648,0.914-1.648,2.036c0,1.123,0.34,2.036,1.648,2.036h10.616c1.426,0,2.572-0.734,3.378-1.744
		c0.069-0.089,6.902-8.624,9.198-11.543c0.239-0.306,0.561-0.091,0.561-0.091l14.009,6.406c0.525,0.241,1.477,0.525,2.094,0.525
		c1.206,0,1.729-0.362,2.435-1.157l12.996-14.594C146.061,86.363,146.225,85.828,146.141,85.288z"/>
	<g>
		<path fill="#EFF8F8" d="M54.241,89.05c6.765,0,12.246-5.487,12.246-12.254c0-6.759-5.481-12.247-12.246-12.247
			c-6.767,0-12.254,5.488-12.254,12.247C41.987,83.562,47.474,89.05,54.241,89.05z"/>
		<path fill="#EFF8F8" d="M108.081,117.478c-0.148-0.885-0.989-1.481-1.869-1.333l-20.523,1.661
			c-0.658-0.115-0.91-0.631-1.181-0.936c-0.133-0.15-0.279-0.295-0.436-0.431c-2.891-2.484-7.23-0.589-8.559-4.82
			c-2.937-9.359-6.918-19.588-13.126-19.588c-0.244,0-14.335,0-16.348,0c-6.447,0-10.093,13.05-13.33,22.306
			c-1.245,3.528-2.518,7.178-4.047,10.672c-1.053,2.41-0.837,5.213,1.573,6.267c0.619,0.268,1.261,0.398,1.898,0.398
			c1.833,0,3.156-1.408,3.936-3.193c1.194-2.739,3.138-8.688,4.413-12.338c0.296-0.849,0.665-1.4,0.592,0.074v12.357
			c0,0.569,0.131,1.108,0.365,1.59c0.146,0.3,0.575,0.772,0.548,1.399v32.541c0,3.266,2.246,5.912,5.381,5.912
			c3.135,0,5.085-2.646,5.085-5.912V133.15c0,0-0.005-0.894,1.125-0.894c0.102,0,0.304,0,0.406,0c1.144,0,1.138,0.894,1.138,0.894
			v30.954c0,3.266,1.952,5.912,5.086,5.912s5.381-2.646,5.381-5.912v-31.323c0-0.923,0.679-1.58,0.943-1.908
			c0.509-0.631,0.815-1.43,0.815-2.299v-12.838c0-2.838,1.303,3.655,4.848,5.349c2.594,1.238,9.909,2.832,11.802,1.627
			c0.467-0.298,0.83-0.675,1.092-1.099c0.104-0.168,0.31-0.528,0.882-0.582l20.777-1.685
			C107.633,119.198,108.229,118.361,108.081,117.478z M59.33,113.899l-4.353,4.002c-0.407,0.375-1.073,0.375-1.48,0l-4.353-4.002
			c-0.408-0.375-0.647-1.123-0.534-1.664l2.27-10.845c0.034-0.161,0.137-0.653,0.128-0.763c-0.045-0.573-0.179-2.287-0.179-2.287
			c-0.043-0.552,0.375-1.002,0.927-1.002h4.963c0.553,0,0.97,0.451,0.926,1.002c0,0-0.134,1.714-0.178,2.287
			c-0.009,0.11,0.094,0.602,0.128,0.763l2.269,10.845C59.978,112.776,59.737,113.525,59.33,113.899z"/>
	</g>
	<path fill="#EFF8F8" d="M155.516,78.026c1.081-0.39,1.86-1.428,1.86-2.64v-1.883c0-1.545-1.264-2.809-2.808-2.809H79.605
		c-1.546,0-2.81,1.264-2.81,2.809v1.883c0,1.108,0.652,2.069,1.592,2.525c0.313,0.152,1.021,0.271,1.021,0.864
		c0,0,0,24.208,0,32.274c0,0.754,0.643,0.688,0.643,0.688l3.379-0.322c0,0,0.757-0.049,0.757-0.687c0-11.334,0-23.843,0-31.787
		c0-0.504,0.696-0.592,0.696-0.592h64.257c0,0,0.853-0.04,0.853,0.701c0,11.831,0,35.22,0,46.961c0,0.407-0.454,0.361-0.454,0.361
		s-41.814,0-56.002,0c-3.974,0-15.788,1.843-15.788,1.843c-0.954,0.078-0.954,0.772-0.954,1.151v1.884
		c0,1.544,1.264,2.808,2.81,2.808h74.963c1.544,0,2.808-1.264,2.808-2.808v-1.884c0-1.352-0.968-2.485-2.245-2.747
		c-0.119-0.024-0.365-0.013-0.365-0.411V78.884C154.766,78.276,155.278,78.112,155.516,78.026z"/>
	<path fill="#EFF8F8" d="M126.316,62.762c-1.059,0-2.592-0.557-3.405-1.236l-4.334-3.622c-0.814-0.68-2.111-0.642-2.883,0.083
		l-3.637,3.407c-0.772,0.726-2.271,1.325-3.331,1.334l-3.533,0.027c-1.059,0.008-1.294-0.578-0.521-1.302l11.015-10.327
		c0.773-0.725,2.055-0.743,2.849-0.041L130.29,61.49c0.792,0.702,0.576,1.276-0.485,1.275L126.316,62.762z"/>
</g>
</svg>
