<?xml version="1.0" encoding="utf-8"?>
<!-- Generator: Adobe Illustrator 16.0.0, SVG Export Plug-In . SVG Version: 6.00 Build 0)  -->
<!DOCTYPE svg PUBLIC "-//W3C//DTD SVG 1.1//EN" "http://www.w3.org/Graphics/SVG/1.1/DTD/svg11.dtd">
<svg version="1.1" id="圖層_1" xmlns="http://www.w3.org/2000/svg" xmlns:xlink="http://www.w3.org/1999/xlink" x="0px" y="0px"
	 width="185px" height="212px" viewBox="0 0 185 212" enable-background="new 0 0 185 212" xml:space="preserve">
<g>
	<polygon fill="#B9C569" points="91.799,211.174 0,158.174 0,52.834 91.799,105.835 	"/>
	<polygon fill="#ACC058" points="91.799,211.174 183.598,158.174 183.597,52.834 91.799,105.835 	"/>
	<polygon fill="#87A95B" points="91.512,180.68 26.297,143.027 26.298,95.483 91.512,132.566 	"/>
	<polygon fill="#729F40" points="91.512,180.68 156.727,143.027 156.725,95.051 91.512,132.566 	"/>
	<polygon fill="#93B35F" points="91.308,57.635 91.308,132.469 91.512,132.586 156.318,95.168 	"/>
	<polygon fill="#A1BB6F" points="91.409,57.635 91.409,132.469 91.205,132.586 26.398,95.168 	"/>
	<polygon fill="#BAD06A" points="91.799,105.67 0,52.669 91.225,0 183.024,53 	"/>
</g>
<g>
	<path fill="#637F26" d="M143.438,57.108c-1.135-1.086-2.725-1.637-4.727-1.637c-7.275,0-19.063,7.41-25.443,11.827l-0.573,0.396
		l-1.139,10.849l-3.787-7.282l-1.438,1.101c-8.043,6.166-16.148,13.395-22.819,20.353c-1.292,1.349-2.558,2.768-3.761,4.217
		l-0.283,0.34l-2.714,21.411l-5.031-10.2l-1.378,2.683c-4.28,8.334-6.283,15.869-7.22,20.98l-2.397-11.959l-2.037,2.791
		c-0.889,1.217-1.727,2.434-2.492,3.617l-0.188,0.289l-1.689,13.334l-2.754-5.586l-1.074,3.809
		c-1.071,3.799-0.946,6.584-0.304,8.611l-10.834,10.836c-1.483,1.482-1.483,3.887,0,5.369c0.742,0.74,1.713,1.111,2.685,1.111
		c0.972,0,1.943-0.371,2.685-1.111l10.83-10.83c1.028,0.326,2.171,0.49,3.422,0.49c1.576,0,3.326-0.268,5.198-0.795l3.809-1.074
		l-5.585-2.756l13.333-1.689l0.291-0.188c1.184-0.766,2.401-1.604,3.617-2.492l2.79-2.035l-11.344-2.275
		c2.364-0.432,5.203-1.08,8.365-2.059c8.249-2.551,20.324-7.93,30.986-19.061c0.521-0.543,1.04-1.094,1.559-1.65l1.396-1.494
		l-9.104-4.49l14.628-1.852l0.383-0.46c6.228-7.48,11.905-15.345,16.423-22.742l0.885-1.449l-6.46-3.016l8.919-1.325l0.36-0.677
		C145.519,67.875,146.869,60.395,143.438,57.108z"/>
	<g>
	</g>
	<g>
	</g>
	<g>
	</g>
	<g>
	</g>
	<g>
	</g>
	<g>
	</g>
	<g>
	</g>
	<g>
	</g>
	<g>
	</g>
	<g>
	</g>
	<g>
	</g>
	<g>
	</g>
	<g>
	</g>
	<g>
	</g>
	<g>
	</g>
</g>
<g>
	<path fill="#F2FFE1" d="M140.428,53.801c-1.135-1.086-2.725-1.637-4.727-1.637c-7.275,0-19.063,7.41-25.443,11.827l-0.573,0.396
		l-1.139,10.849l-3.787-7.282l-1.438,1.101c-8.043,6.166-16.147,13.395-22.813,20.353c-1.293,1.349-2.559,2.768-3.761,4.217
		l-0.282,0.34l-2.715,21.409l-5.031-10.196l-1.378,2.683c-4.28,8.329-6.283,15.864-7.22,20.976l-2.397-11.959l-2.037,2.791
		c-0.889,1.217-1.727,2.434-2.492,3.617l-0.188,0.289l-1.689,13.334l-2.754-5.586l-1.074,3.809
		c-1.071,3.799-0.946,6.584-0.304,8.611l-10.834,10.836c-1.483,1.482-1.483,3.887,0,5.369c0.742,0.74,1.713,1.111,2.685,1.111
		c0.972,0,1.943-0.371,2.685-1.111l10.83-10.83c1.028,0.326,2.171,0.49,3.422,0.49c1.576,0,3.326-0.268,5.198-0.795l3.809-1.074
		l-5.585-2.756l13.333-1.689l0.291-0.188c1.184-0.766,2.4-1.604,3.617-2.492l2.789-2.035l-11.343-2.275
		c2.364-0.432,5.203-1.08,8.365-2.059c8.247-2.551,20.318-7.93,30.98-19.061c0.521-0.543,1.04-1.094,1.559-1.65l1.396-1.494
		l-9.104-4.485l14.628-1.852l0.383-0.46c6.228-7.482,11.905-15.348,16.423-22.744l0.885-1.449l-6.46-3.016l8.919-1.325l0.36-0.677
		C142.508,64.567,143.858,57.087,140.428,53.801z"/>
	<g>
	</g>
	<g>
	</g>
	<g>
	</g>
	<g>
	</g>
	<g>
	</g>
	<g>
	</g>
	<g>
	</g>
	<g>
	</g>
	<g>
	</g>
	<g>
	</g>
	<g>
	</g>
	<g>
	</g>
	<g>
	</g>
	<g>
	</g>
	<g>
	</g>
</g>
</svg>
