<?xml version="1.0" encoding="utf-8"?>
<!-- Generator: Adobe Illustrator 16.0.3, SVG Export Plug-In . SVG Version: 6.00 Build 0)  -->
<!DOCTYPE svg PUBLIC "-//W3C//DTD SVG 1.1//EN" "http://www.w3.org/Graphics/SVG/1.1/DTD/svg11.dtd">
<svg version="1.1" id="圖層_1" xmlns="http://www.w3.org/2000/svg" xmlns:xlink="http://www.w3.org/1999/xlink" x="0px" y="0px"
	 width="185px" height="212px" viewBox="0 0 185 212" enable-background="new 0 0 185 212" xml:space="preserve">
<g>
	<polygon fill="#C9ADD8" points="92.49,211.089 0.691,158.089 0.691,52.75 92.49,105.75 	"/>
	<polygon fill="#BE9BD1" points="92.065,211.514 183.863,158.514 183.863,53.176 92.065,106.176 	"/>
	<polygon fill="#A973C6" points="92.203,181.02 26.989,143.367 26.989,95.825 92.203,132.908 	"/>
	<polygon fill="#9C5ABF" points="92.204,181.02 157.418,143.367 157.416,95.392 92.204,132.908 	"/>
	<polygon fill="#B385CC" points="91.999,57.976 91.999,132.809 92.203,132.926 157.01,95.51 	"/>
	<polygon fill="#BE97D3" points="92.101,57.976 92.101,132.809 91.897,132.926 27.09,95.51 	"/>
	<polygon fill="#D2B5E2" points="92.49,106.01 0.691,53.01 91.917,0.341 183.716,53.341 	"/>
</g>
<g>
	<g>
		<path fill="#6A2091" d="M117.822,148.106L117.822,148.106l-45.655-0.013c-1.109,0-2.048-0.773-2.18-1.807
			c-0.53-4.188-2.096-10.1-6.572-14.447c-0.004-0.008-0.009-0.012-0.018-0.021c-11.066-8.734-17.41-21.473-17.41-34.989
			c0.004-25.255,21.992-45.802,49.014-45.802s49.01,20.547,49.01,45.802c0,13.607-6.423,26.422-17.621,35.157
			c-4.297,4.205-5.862,10.121-6.393,14.313C119.874,147.332,118.936,148.106,117.822,148.106z M74.069,143.996l41.85,0.014
			c0.82-4.619,2.807-10.456,7.489-15.014c10.373-8.107,16.223-19.78,16.223-32.17c-0.005-22.994-20.02-41.701-44.63-41.701
			S50.376,73.833,50.376,96.83c0,12.378,5.845,24.047,16.043,32.008c0.131,0.102,0.25,0.221,0.351,0.348
			C71.316,133.709,73.259,139.445,74.069,143.996z"/>
		<path fill="#6A2091" d="M117.822,156.219H72.167c-1.21,0-2.192-0.982-2.192-2.192s0.982-2.192,2.192-2.192h45.655
			c1.21,0,2.192,0.982,2.192,2.192S119.037,156.219,117.822,156.219z"/>
		<path fill="#6A2091" d="M111.501,171.372H78.487c-0.874,0-1.585-0.981-1.585-2.191c0-1.211,0.711-2.192,1.585-2.192h33.014
			c0.875,0,1.585,0.981,1.585,2.192C113.086,170.391,112.38,171.372,111.501,171.372z"/>
		<path fill="#6A2091" d="M117.822,163.873H72.167c-1.21,0-2.192-0.982-2.192-2.192s0.982-2.192,2.192-2.192h45.655
			c1.21,0,2.192,0.982,2.192,2.192S119.037,163.873,117.822,163.873z"/>
		<path fill="#6A2091" d="M104.555,179.109H85.438c-1.21,0-2.192-0.982-2.192-2.192s0.982-2.192,2.192-2.192h19.116
			c1.21,0,2.192,0.982,2.192,2.192S105.765,179.109,104.555,179.109z"/>
	</g>
	<g>
		<path fill="#6A2091" d="M104,117.834h-6.922l-3.914-12.765H79.888l-3.744,12.765h-6.751l13.275-43.4h8.056L104,117.834z
			 M92.086,100.02l-3.404-11.346c-0.794-2.837-1.531-5.9-2.156-8.567h-0.113c-0.624,2.667-1.305,5.844-2.042,8.51l-3.46,11.403
			H92.086z"/>
		<path fill="#6A2091" d="M110.015,74.434h6.58v43.4h-6.58V74.434z"/>
	</g>
</g>
<g>
	<g>
		<path fill="#F7F0FF" d="M114.822,146.106L114.822,146.106l-45.655-0.013c-1.109,0-2.048-0.784-2.18-1.83
			c-0.53-4.243-2.096-10.233-6.572-14.638c-0.004-0.008-0.009-0.013-0.018-0.021c-11.066-8.851-17.41-21.756-17.41-35.45
			C42.991,68.568,64.979,47.75,92.001,47.75s49.01,20.818,49.01,46.405c0,13.786-6.423,26.771-17.621,35.62
			c-4.297,4.26-5.862,10.254-6.393,14.5C116.874,145.321,115.936,146.106,114.822,146.106z M71.069,141.942l41.85,0.013
			c0.82-4.679,2.807-10.594,7.489-15.21c10.373-8.215,16.223-20.042,16.223-32.594c-0.005-23.296-20.02-42.25-44.63-42.25
			S47.376,70.855,47.376,94.155c0,12.54,5.845,24.363,16.043,32.428c0.131,0.104,0.25,0.225,0.351,0.354
			C68.316,131.52,70.259,137.331,71.069,141.942z"/>
		<path fill="#F7F0FF" d="M114.822,154.219H69.167c-1.21,0-2.192-0.982-2.192-2.192s0.982-2.192,2.192-2.192h45.655
			c1.21,0,2.192,0.982,2.192,2.192S116.037,154.219,114.822,154.219z"/>
		<path fill="#F7F0FF" d="M108.501,169.372H75.487c-0.874,0-1.585-0.981-1.585-2.191c0-1.211,0.711-2.192,1.585-2.192h33.014
			c0.875,0,1.585,0.981,1.585,2.192C110.086,168.391,109.38,169.372,108.501,169.372z"/>
		<path fill="#F7F0FF" d="M114.822,161.873H69.167c-1.21,0-2.192-0.982-2.192-2.192s0.982-2.192,2.192-2.192h45.655
			c1.21,0,2.192,0.982,2.192,2.192S116.037,161.873,114.822,161.873z"/>
		<path fill="#F7F0FF" d="M101.555,177.109H82.438c-1.21,0-2.192-0.982-2.192-2.192s0.982-2.192,2.192-2.192h19.116
			c1.21,0,2.192,0.982,2.192,2.192S102.765,177.109,101.555,177.109z"/>
	</g>
	<g>
		<path fill="#F7F0FF" d="M101,115.834h-6.922l-3.914-12.765H76.888l-3.744,12.765h-6.751l13.275-43.4h8.056L101,115.834z
			 M89.086,98.02l-3.404-11.346c-0.794-2.837-1.531-5.9-2.156-8.567h-0.113c-0.624,2.667-1.305,5.844-2.042,8.51L77.91,98.02H89.086
			z"/>
		<path fill="#F7F0FF" d="M107.015,72.434h6.58v43.4h-6.58V72.434z"/>
	</g>
</g>
</svg>
