<?xml version="1.0" encoding="utf-8"?>
<!-- Generator: Adobe Illustrator 16.0.0, SVG Export Plug-In . SVG Version: 6.00 Build 0)  -->
<!DOCTYPE svg PUBLIC "-//W3C//DTD SVG 1.1//EN" "http://www.w3.org/Graphics/SVG/1.1/DTD/svg11.dtd">
<svg version="1.1" id="圖層_1" xmlns="http://www.w3.org/2000/svg" xmlns:xlink="http://www.w3.org/1999/xlink" x="0px" y="0px"
	 width="185px" height="212px" viewBox="0 0 185 212" enable-background="new 0 0 185 212" xml:space="preserve">
<g>
	<polygon fill="#B9B9B9" points="92.211,210.514 0.412,157.514 0.413,52.175 92.211,105.175 	"/>
	<polygon fill="#AEAEAF" points="92.211,210.514 184.01,157.514 184.01,52.175 92.211,105.175 	"/>
	<polygon fill="#7A7A7B" points="91.924,180.02 26.71,142.367 26.71,94.825 91.924,131.908 	"/>
	<polygon fill="#6B6B6B" points="91.925,180.02 157.139,142.367 157.137,94.392 91.925,131.908 	"/>
	<polygon fill="#807F7F" points="91.72,56.976 91.72,131.809 91.924,131.926 156.73,94.509 	"/>
	<polygon fill="#989898" points="91.822,56.976 91.822,131.809 91.618,131.926 26.812,94.509 	"/>
	<polygon fill="#CCCBCB" points="92.211,105.01 0.412,52.01 91.638,-0.659 183.438,52.341 	"/>
</g>
<g transform="translate(103.000000, 76.000000)" display="none">
	<path display="inline" fill="#4C4C4C" d="M-66.904,34.713c8.276,0,14.158,1.217,18.377,2.839v-6.815
		c-3.57-1.135-9.209-2.353-18.215-2.353c-11.48,0-16.957,2.312-19.675,5.03c-2.515,2.516-3.813,5.883-3.813,10.223
		c0,4.341,1.298,7.709,3.813,10.223c2.758,2.801,8.113,5.031,19.31,5.031c8.966,0,14.482-1.258,17.891-4.666
		c1.866-1.865,2.839-4.503,2.839-9.045v-3.773h-24.99v5.68h17.526c0.04,0.648,0.04,2.15-0.974,3.164
		c-1.826,1.825-6.328,2.434-12.292,2.434c-7.302,0-11.116-1.338-12.901-3.123c-1.298-1.339-1.988-3.246-1.988-5.924
		c0-2.596,0.73-4.625,2.15-6.045C-78.263,36.01-74.409,34.713-66.904,34.713C-66.904,34.713-74.409,34.713-66.904,34.713
		L-66.904,34.713L-66.904,34.713z"/>
	<path display="inline" fill="#4C4C4C" d="M72.654,29.473h-9.301L48.457,51.771L33.601,29.473h-9.703l19.446,28.328h9.864l0,0
		L72.654,29.473L72.654,29.473z"/>
	<path display="inline" fill="#4C4C4C" d="M21.445,9.862h-8.068l-52.672,67.279h8.19L21.445,9.862z"/>
	<path display="inline" fill="#4C4C4C" d="M9.5,33.495c-2.648-2.677-7.748-5.111-18.949-5.111c-10.8,0-16.3,2.394-18.99,5.111
		c-2.449,2.476-3.774,5.558-3.774,10.142c0,4.585,1.325,7.627,3.774,10.102c2.65,2.678,7.989,5.152,18.99,5.152
		c11,0,16.301-2.434,18.949-5.111c2.449-2.475,3.774-5.558,3.774-10.143C13.274,39.012,11.949,35.971,9.5,33.495z M-9.449,52.354
		c-7.177,0-10.884-1.484-12.479-3.09c-1.236-1.244-2.114-2.85-2.114-5.898c0-3.05,0.758-4.695,2.074-6.02
		c1.635-1.646,5.342-2.97,12.519-2.97S1.315,35.74,2.99,37.426c1.316,1.324,2.113,2.89,2.113,5.939c0,3.049-0.758,4.694-2.073,6.019
		C1.355,51.068-2.272,52.354-9.449,52.354z"/>
</g>
<g transform="translate(103.000000, 76.000000)" display="none">
	<path display="inline" fill="#FFFFFF" d="M-68.904,32.713c8.276,0,14.158,1.217,18.377,2.839v-6.815
		c-3.57-1.136-9.209-2.353-18.215-2.353c-11.48,0-16.957,2.312-19.675,5.03c-2.515,2.516-3.813,5.883-3.813,10.223
		c0,4.341,1.298,7.709,3.813,10.223c2.758,2.801,8.113,5.031,19.31,5.031c8.966,0,14.482-1.258,17.891-4.666
		c1.866-1.865,2.839-4.503,2.839-9.045v-3.773h-24.99v5.68h17.526c0.04,0.648,0.04,2.15-0.974,3.164
		c-1.826,1.825-6.328,2.434-12.292,2.434c-7.302,0-11.116-1.338-12.901-3.123c-1.298-1.339-1.988-3.246-1.988-5.924
		c0-2.596,0.73-4.625,2.15-6.045C-80.263,34.01-76.409,32.713-68.904,32.713C-68.904,32.713-76.409,32.713-68.904,32.713
		L-68.904,32.713L-68.904,32.713z"/>
	<path display="inline" fill="#FFFFFF" d="M70.654,27.473h-9.301L46.457,49.771L31.601,27.473h-9.703l19.446,28.328h9.864l0,0
		L70.654,27.473L70.654,27.473z"/>
	<path display="inline" fill="#C31F25" d="M19.445,7.862h-8.068l-52.672,67.279h8.19L19.445,7.862z"/>
	<path display="inline" fill="#FFFFFF" d="M7.5,31.495c-2.648-2.677-7.748-5.111-18.949-5.111c-10.8,0-16.3,2.394-18.99,5.111
		c-2.449,2.476-3.774,5.558-3.774,10.142c0,4.585,1.325,7.627,3.774,10.102c2.65,2.678,7.989,5.152,18.99,5.152
		S4.852,54.457,7.5,51.779c2.449-2.475,3.774-5.558,3.774-10.143C11.274,37.012,9.949,33.971,7.5,31.495z M-11.45,50.354
		c-7.176,0-10.884-1.484-12.479-3.09c-1.236-1.244-2.114-2.85-2.114-5.898c0-3.05,0.758-4.695,2.074-6.02
		c1.635-1.646,5.342-2.97,12.519-2.97c7.177,0,10.765,1.364,12.44,3.05c1.316,1.324,2.113,2.89,2.113,5.939
		c0,3.049-0.758,4.694-2.073,6.019C-0.645,49.068-4.272,50.354-11.45,50.354z"/>
</g>
<g>
	<path d="M71.702,82.453c2.762,3.359,5.188,6.843,7.415,10.652c0.104,0.179,0.279,0.304,0.48,0.352
		c0.125,0.028,0.256,0.021,0.378-0.016c0.073-0.023,0.143-0.056,0.207-0.102l9.804-6.689c0.171-0.118,0.285-0.303,0.314-0.509
		c0.029-0.208-0.03-0.417-0.163-0.578l-1.125-1.357c-5.501-6.636-12.552-12.723-21.552-18.607
		c-4.268-2.803-8.967-5.475-13.968-7.942c-4.369-2.156-8.333-3.881-12.121-5.273c-0.366-0.136-0.773,0.038-0.933,0.394
		c-0.346,0.772-1.062,2.4-1.062,2.4c-0.155,0.355-0.016,0.767,0.323,0.952c0.001,0,0.402,0.22,0.522,0.288
		c0.418,0.24,0.834,0.485,1.251,0.732c0.811,0.482,1.63,0.986,2.507,1.544c2.008,1.272,4.092,2.678,6.194,4.175
		c4.306,3.073,8.343,6.331,12.001,9.679c0.271,0.247,0.532,0.49,0.795,0.737l-30.497,36.619c-1.574,1.889-1.317,4.695,0.573,6.269
		c1.201,0.998,2.769,1.261,4.158,0.834c0.8-0.244,1.54-0.716,2.113-1.406l29.948-35.961C70.12,80.579,70.933,81.516,71.702,82.453z"
		/>
	<polygon points="115.257,112.738 96.145,124.122 71.709,147.676 149.794,147.676 149.794,70.336 132.546,80.305 	"/>
	<polygon points="75.301,108.026 64.372,104.403 63.4,109.716 66.033,117.958 74.272,115.324 	"/>
	<polygon points="60.87,131.366 68.589,135.273 72.937,132.285 71.397,122.221 61.805,123.82 	"/>
	<polygon points="92.309,99.008 86.667,99.949 86.117,104.388 90.656,106.686 93.216,104.93 	"/>
	<polygon points="99.32,96.518 97.918,102.666 100.799,105.214 107.644,102.354 104.822,95.853 	"/>
	<polygon points="87.302,111.715 86.986,114.249 89.577,115.559 91.037,114.555 90.52,111.18 	"/>
	<polygon points="78.217,116.45 80.28,118.98 82.636,117.999 82.488,115.1 80.896,114.328 	"/>
</g>
<g>
	<path fill="#F9F9F9" d="M70.115,78.189c2.763,3.36,5.188,6.843,7.414,10.653c0.105,0.179,0.28,0.304,0.481,0.351
		c0.126,0.027,0.256,0.021,0.377-0.015c0.073-0.022,0.143-0.056,0.207-0.103l9.808-6.689c0.172-0.118,0.286-0.302,0.314-0.509
		c0.03-0.207-0.028-0.416-0.161-0.578l-1.126-1.357c-5.505-6.638-12.557-12.724-21.558-18.608
		c-4.265-2.802-8.966-5.475-13.967-7.942c-4.368-2.157-8.332-3.882-12.12-5.273c-0.367-0.136-0.773,0.037-0.935,0.395
		c-0.345,0.772-1.061,2.4-1.061,2.4c-0.156,0.354-0.016,0.766,0.323,0.95c0,0,0.402,0.221,0.521,0.29
		c0.419,0.239,0.835,0.484,1.251,0.733c0.811,0.481,1.632,0.986,2.508,1.543c2.009,1.272,4.093,2.676,6.194,4.175
		c4.305,3.074,8.343,6.329,12,9.678c0.271,0.248,0.531,0.492,0.794,0.737l-30.498,36.627c-1.573,1.89-1.317,4.697,0.574,6.268
		c1.199,0.998,2.768,1.263,4.158,0.834c0.798-0.242,1.538-0.713,2.112-1.407l29.95-35.967
		C68.532,76.315,69.346,77.252,70.115,78.189z"/>
	<polygon fill="#F9F9F9" points="111.303,108.26 92.188,119.644 67.75,143.197 145.842,143.197 145.842,65.85 128.593,75.818 	"/>
	<polygon fill="#F9F9F9" points="71.557,103.65 60.628,100.024 59.657,105.343 62.29,113.588 70.529,110.954 	"/>
	<polygon fill="#F9F9F9" points="57.126,126.996 64.846,130.903 69.193,127.915 67.654,117.852 58.062,119.45 	"/>
	<polygon fill="#F9F9F9" points="88.566,94.63 82.923,95.57 82.373,100.009 86.912,102.308 89.475,100.55 	"/>
	<polygon fill="#F9F9F9" points="95.582,92.139 94.181,98.287 97.061,100.836 103.904,97.975 101.084,91.474 	"/>
	<polygon fill="#F9F9F9" points="83.559,107.343 83.243,109.881 85.834,111.189 87.294,110.187 86.775,106.809 	"/>
	<polygon fill="#F9F9F9" points="74.473,112.08 76.536,114.611 78.893,113.629 78.745,110.729 77.152,109.958 	"/>
</g>
</svg>
