<?xml version="1.0" encoding="utf-8"?>
<!-- Generator: Adobe Illustrator 16.0.3, SVG Export Plug-In . SVG Version: 6.00 Build 0)  -->
<!DOCTYPE svg PUBLIC "-//W3C//DTD SVG 1.1//EN" "http://www.w3.org/Graphics/SVG/1.1/DTD/svg11.dtd">
<svg version="1.1" id="圖層_1" xmlns="http://www.w3.org/2000/svg" xmlns:xlink="http://www.w3.org/1999/xlink" x="0px" y="0px"
	 width="185px" height="212px" viewBox="0 0 185 212" enable-background="new 0 0 185 212" xml:space="preserve">
<path fill="#ADADDB" d="M92.49,211.089l-91.799-53V52.75l91.799,53V211.089z"/>
<path fill="#9B9BD3" d="M92.065,211.514l91.798-53V53.176l-91.798,53V211.514z"/>
<path fill="#7373C9" d="M92.203,181.02l-65.214-37.652V95.825l65.214,37.083V181.02z"/>
<path fill="#5858C4" d="M92.204,181.02l65.214-37.652l-0.002-47.975l-65.212,37.516V181.02z"/>
<path fill="#8484CE" d="M91.999,57.976v74.833l0.204,0.117L157.01,95.51L91.999,57.976z"/>
<path fill="#9696D6" d="M92.101,57.976v74.833l-0.204,0.117L27.09,95.51L92.101,57.976z"/>
<path fill="#B8B8E8" d="M92.49,106.01l-91.799-53L91.917,0.341l91.799,53L92.49,106.01z"/>
<g>
	<path fill="#43439E" d="M136.043,153.498h-19.462L91.292,124.49H75.549v29.008H59.187V66.6c13.76,0,27.52,0.124,41.279,0.124
		c20.454,0.124,31.239,13.76,31.239,28.76c0,11.9-5.455,23.925-21.941,27.271l26.279,29.627V153.498z M75.549,81.971v27.767h24.917
		c10.413,0,14.876-6.941,14.876-13.883s-4.587-13.884-14.876-13.884H75.549z"/>
</g>
<g>
	<path fill="#F2F2FC" d="M132.043,151.498h-19.462L87.292,122.49H71.549v29.008H55.187V64.6c13.76,0,27.52,0.124,41.279,0.124
		c20.454,0.124,31.239,13.76,31.239,28.76c0,11.9-5.455,23.925-21.941,27.271l26.279,29.627V151.498z M71.549,79.971v27.767h24.917
		c10.413,0,14.876-6.941,14.876-13.883s-4.587-13.884-14.876-13.884H71.549z"/>
</g>
</svg>
