<?xml version="1.0" encoding="utf-8"?>
<!-- Generator: Adobe Illustrator 16.0.0, SVG Export Plug-In . SVG Version: 6.00 Build 0)  -->
<!DOCTYPE svg PUBLIC "-//W3C//DTD SVG 1.1//EN" "http://www.w3.org/Graphics/SVG/1.1/DTD/svg11.dtd">
<svg version="1.1" id="圖層_1" xmlns="http://www.w3.org/2000/svg" xmlns:xlink="http://www.w3.org/1999/xlink" x="0px" y="0px"
	 width="185px" height="212px" viewBox="0 0 185 212" enable-background="new 0 0 185 212" xml:space="preserve">
<g display="none">
	<polygon display="inline" fill="#DDADCF" points="92.49,211.089 0.691,158.089 0.691,52.75 92.49,105.75 	"/>
	<polygon display="inline" fill="#D49AC2" points="92.065,211.514 183.863,158.514 183.863,53.176 92.065,106.176 	"/>
	<polygon display="inline" fill="#CA72AB" points="92.203,181.02 26.989,143.367 26.989,95.825 92.203,132.908 	"/>
	<polygon display="inline" fill="#C5589C" points="92.204,181.02 157.418,143.367 157.416,95.392 92.204,132.908 	"/>
	<polygon display="inline" fill="#D084B5" points="91.999,57.976 91.999,132.809 92.203,132.926 157.01,95.51 	"/>
	<polygon display="inline" fill="#D896C0" points="92.101,57.976 92.101,132.809 91.897,132.926 27.09,95.51 	"/>
	<polygon display="inline" fill="#E9B5D2" points="92.49,106.01 0.691,53.01 91.917,0.341 183.716,53.341 	"/>
</g>
<g display="none">
	<path display="inline" fill="#A04384" d="M136.043,153.498h-19.462L91.292,124.49H75.549v29.008H59.187V66.6
		c13.76,0,27.52,0.124,41.279,0.124c20.454,0.124,31.239,13.76,31.239,28.76c0,11.9-5.455,23.925-21.941,27.271l26.279,29.627
		V153.498z M75.549,81.971v27.767h24.917c10.413,0,14.876-6.941,14.876-13.883s-4.587-13.884-14.876-13.884H75.549z"/>
</g>
<g>
	<path fill="#FDF1F6" d="M132.043,151.498h-19.462L87.292,122.49H71.549v29.008H55.187V64.6c13.76,0,27.52,0.124,41.279,0.124
		c20.454,0.124,31.239,13.76,31.239,28.76c0,11.9-5.455,23.925-21.941,27.271l26.279,29.627V151.498z M71.549,79.971v27.767h24.917
		c10.413,0,14.876-6.941,14.876-13.883s-4.587-13.884-14.876-13.884H71.549z"/>
</g>
<g>
	<polygon fill="#E9B86B" points="92.926,211.597 1.127,158.596 1.127,53.258 92.926,106.258 	"/>
	<polygon fill="#E7B255" points="92.926,211.597 184.725,158.596 184.725,53.258 92.926,106.258 	"/>
	<polygon fill="#F1A72E" points="92.639,181.102 27.425,143.449 27.425,95.907 92.639,132.99 	"/>
	<polygon fill="#DB8E26" points="92.64,181.102 157.854,143.449 157.852,95.475 92.64,132.99 	"/>
	<polygon fill="#EAA046" points="92.435,58.059 92.435,132.891 92.639,133.008 157.445,95.592 	"/>
	<polygon fill="#F1AD63" points="92.537,58.059 92.537,132.891 92.333,133.008 27.526,95.592 	"/>
	<polygon fill="#F5C371" points="92.926,106.093 1.127,53.093 92.353,0.424 184.152,53.424 	"/>
</g>
<g>
	<path fill="#AE6E28" d="M86.511,148.205c-28.812,0-52.252-23.439-52.252-52.251c0-28.812,23.44-52.251,52.252-52.251
		c28.812,0,52.251,23.44,52.251,52.251C138.762,124.766,115.322,148.205,86.511,148.205z M86.511,55.702
		c-22.195,0-40.252,18.057-40.252,40.251s18.057,40.251,40.252,40.251c22.194,0,40.251-18.057,40.251-40.251
		S108.705,55.702,86.511,55.702z"/>
</g>
<g>
	<path fill="#AE6E28" d="M144.078,170.66c-2.049,0-4.096-0.781-5.657-2.344l-28.618-28.617c-3.124-3.125-3.124-8.189,0-11.314
		c3.125-3.123,8.191-3.123,11.314,0l28.617,28.619c3.125,3.123,3.125,8.189,0,11.312C148.172,169.879,146.125,170.66,144.078,170.66
		z"/>
</g>
<g>
	<path fill="#FFF1DD" d="M86.511,144.205c-28.812,0-52.252-23.439-52.252-52.251c0-28.812,23.44-52.251,52.252-52.251
		c28.812,0,52.251,23.44,52.251,52.251C138.762,120.766,115.322,144.205,86.511,144.205z M86.511,51.702
		c-22.195,0-40.252,18.057-40.252,40.251s18.057,40.251,40.252,40.251c22.194,0,40.251-18.057,40.251-40.251
		S108.705,51.702,86.511,51.702z"/>
</g>
<g>
	<path fill="#FFF1DD" d="M144.078,166.66c-2.049,0-4.096-0.781-5.657-2.344l-28.618-28.617c-3.124-3.125-3.124-8.189,0-11.314
		c3.125-3.123,8.191-3.123,11.314,0l28.617,28.619c3.125,3.123,3.125,8.189,0,11.312C148.172,165.879,146.125,166.66,144.078,166.66
		z"/>
</g>
<g>
	<path fill="#FFFFFF" d="M47.747,78.329c0-10.033,14.737-10.009,14.737,0v2.424c0,10.009-14.737,10.033-14.737,0V78.329z
		 M50.891,80.753c0,6.097,8.449,6.097,8.449,0v-2.424c0-6-8.449-6.072-8.449,0V80.753z"/>
	<path fill="#FFFFFF" d="M63.946,85.266h2.521V74.033h-2.616v-2.88h5.76v14.113h2.328v2.688h-7.993V85.266z"/>
	<path fill="#FFFFFF" d="M73.306,78.329c0-10.033,14.737-10.009,14.737,0v2.424c0,10.009-14.737,10.033-14.737,0V78.329z
		 M76.45,80.753c0,6.097,8.449,6.097,8.449,0v-2.424c0-6-8.449-6.072-8.449,0V80.753z"/>
	<path fill="#FFFFFF" d="M89.506,85.266h2.521V74.033H89.41v-2.88h5.76v14.113h2.328v2.688h-7.992V85.266z"/>
	<path fill="#FFFFFF" d="M98.866,78.329c0-10.033,14.737-10.009,14.737,0v2.424c0,10.009-14.737,10.033-14.737,0V78.329z
		 M102.01,80.753c0,6.097,8.449,6.097,8.449,0v-2.424c0-6-8.449-6.072-8.449,0V80.753z"/>
	<path fill="#FFFFFF" d="M115.065,85.266h2.521V74.033h-2.616v-2.88h5.761v14.113h2.328v2.688h-7.993V85.266z"/>
</g>
<g>
	<path fill="#FFFFFF" d="M47.242,111.6h2.521v-11.234h-2.616v-2.88h5.76V111.6h2.328v2.688h-7.993V111.6z"/>
	<path fill="#FFFFFF" d="M56.603,104.662c0-10.033,14.737-10.009,14.737,0v2.424c0,10.01-14.737,10.033-14.737,0V104.662z
		 M59.747,107.086c0,6.098,8.449,6.098,8.449,0v-2.424c0-6-8.449-6.072-8.449,0V107.086z"/>
	<path fill="#FFFFFF" d="M72.802,111.6h2.521v-11.234h-2.616v-2.88h5.76V111.6h2.328v2.688h-7.993V111.6z"/>
	<path fill="#FFFFFF" d="M82.162,104.662c0-10.033,14.737-10.009,14.737,0v2.424c0,10.01-14.737,10.033-14.737,0V104.662z
		 M85.306,107.086c0,6.098,8.449,6.098,8.449,0v-2.424c0-6-8.449-6.072-8.449,0V107.086z"/>
	<path fill="#FFFFFF" d="M98.361,111.6h2.521v-11.234h-2.617v-2.88h5.761V111.6h2.328v2.688h-7.993V111.6z"/>
	<path fill="#FFFFFF" d="M107.722,104.662c0-10.033,14.737-10.009,14.737,0v2.424c0,10.01-14.737,10.033-14.737,0V104.662z
		 M110.865,107.086c0,6.098,8.449,6.098,8.449,0v-2.424c0-6-8.449-6.072-8.449,0V107.086z"/>
</g>
</svg>
