<?xml version="1.0" encoding="utf-8"?>
<!-- Generator: Adobe Illustrator 16.0.2, SVG Export Plug-In . SVG Version: 6.00 Build 0)  -->
<!DOCTYPE svg PUBLIC "-//W3C//DTD SVG 1.1//EN" "http://www.w3.org/Graphics/SVG/1.1/DTD/svg11.dtd">
<svg version="1.1" id="圖層_1" xmlns="http://www.w3.org/2000/svg" xmlns:xlink="http://www.w3.org/1999/xlink" x="0px" y="0px"
	 width="185px" height="212px" viewBox="0 0 185 212" enable-background="new 0 0 185 212" xml:space="preserve">
<g>
	<polygon fill="#D8C2AD" points="92.211,210.514 0.412,157.514 0.413,52.175 92.211,105.175 	"/>
	<polygon fill="#D1B69B" points="92.211,210.514 184.01,157.514 184.01,52.175 92.211,105.175 	"/>
	<polygon fill="#C69C73" points="91.924,180.02 26.71,142.367 26.71,94.825 91.924,131.908 	"/>
	<polygon fill="#B7895C" points="91.925,180.02 157.139,142.367 157.137,94.392 91.925,131.908 	"/>
	<polygon fill="#CCA885" points="91.72,56.976 91.72,131.809 91.924,131.926 156.73,94.509 	"/>
	<polygon fill="#D3B497" points="91.822,56.976 91.822,131.809 91.618,131.926 26.812,94.509 	"/>
	<polygon fill="#E5CEB7" points="92.211,105.01 0.412,52.01 91.638,-0.659 183.438,52.341 	"/>
</g>
<g transform="translate(103.000000, 76.000000)" display="none">
	<path display="inline" fill="#4C4C4C" d="M-66.904,34.713c8.276,0,14.158,1.217,18.377,2.84v-6.816
		c-3.57-1.134-9.209-2.353-18.215-2.353c-11.48,0-16.957,2.312-19.675,5.03c-2.515,2.516-3.813,5.883-3.813,10.223
		c0,4.342,1.298,7.709,3.813,10.223c2.758,2.802,8.113,5.031,19.31,5.031c8.966,0,14.482-1.258,17.891-4.666
		c1.866-1.865,2.839-4.502,2.839-9.045v-3.773h-24.99v5.681h17.526c0.04,0.647,0.04,2.149-0.974,3.164
		c-1.826,1.825-6.328,2.435-12.292,2.435c-7.302,0-11.116-1.338-12.901-3.123c-1.298-1.34-1.988-3.246-1.988-5.924
		c0-2.597,0.73-4.625,2.15-6.045C-78.263,36.01-74.409,34.713-66.904,34.713C-66.904,34.713-74.409,34.713-66.904,34.713
		L-66.904,34.713L-66.904,34.713z"/>
	<path display="inline" fill="#4C4C4C" d="M72.654,29.473h-9.301L48.457,51.771L33.602,29.473h-9.703l19.445,28.328h9.864l0,0
		L72.654,29.473L72.654,29.473z"/>
	<path display="inline" fill="#4C4C4C" d="M21.445,9.862h-8.068l-52.672,67.279h8.19L21.445,9.862z"/>
	<path display="inline" fill="#4C4C4C" d="M9.5,33.495c-2.648-2.677-7.748-5.111-18.949-5.111c-10.8,0-16.3,2.394-18.99,5.111
		c-2.449,2.476-3.774,5.558-3.774,10.142c0,4.586,1.325,7.627,3.774,10.102c2.65,2.679,7.989,5.152,18.99,5.152
		c11,0,16.301-2.434,18.949-5.111c2.449-2.475,3.773-5.557,3.773-10.143C13.273,39.012,11.949,35.971,9.5,33.495z M-9.449,52.354
		c-7.177,0-10.884-1.483-12.479-3.09c-1.236-1.244-2.114-2.85-2.114-5.897c0-3.05,0.758-4.695,2.074-6.021
		c1.635-1.646,5.342-2.97,12.519-2.97c7.178,0,10.764,1.364,12.439,3.05c1.316,1.324,2.113,2.891,2.113,5.939
		s-0.758,4.693-2.074,6.019C1.355,51.068-2.271,52.354-9.449,52.354z"/>
</g>
<g transform="translate(103.000000, 76.000000)" display="none">
	<path display="inline" fill="#FFFFFF" d="M-68.904,32.713c8.276,0,14.158,1.217,18.377,2.84v-6.816
		c-3.57-1.136-9.209-2.353-18.215-2.353c-11.48,0-16.957,2.312-19.675,5.03c-2.515,2.516-3.813,5.883-3.813,10.223
		c0,4.342,1.298,7.709,3.813,10.223c2.758,2.802,8.113,5.031,19.31,5.031c8.966,0,14.482-1.258,17.891-4.666
		c1.866-1.865,2.839-4.502,2.839-9.045v-3.773h-24.99v5.681h17.526c0.04,0.647,0.04,2.149-0.974,3.164
		c-1.826,1.825-6.328,2.435-12.292,2.435c-7.302,0-11.116-1.338-12.901-3.123c-1.298-1.34-1.988-3.246-1.988-5.924
		c0-2.597,0.73-4.625,2.15-6.045C-80.263,34.01-76.409,32.713-68.904,32.713C-68.904,32.713-76.409,32.713-68.904,32.713
		L-68.904,32.713L-68.904,32.713z"/>
	<path display="inline" fill="#FFFFFF" d="M70.654,27.473h-9.301L46.457,49.771L31.602,27.473h-9.703l19.445,28.328h9.864l0,0
		L70.654,27.473L70.654,27.473z"/>
	<path display="inline" fill="#C31F25" d="M19.445,7.862h-8.068l-52.672,67.279h8.19L19.445,7.862z"/>
	<path display="inline" fill="#FFFFFF" d="M7.5,31.495c-2.648-2.677-7.748-5.111-18.949-5.111c-10.8,0-16.3,2.394-18.99,5.111
		c-2.449,2.476-3.774,5.558-3.774,10.142c0,4.586,1.325,7.627,3.774,10.102c2.65,2.679,7.989,5.152,18.99,5.152
		c11.002,0,16.301-2.434,18.949-5.111c2.449-2.475,3.773-5.559,3.773-10.143C11.273,37.012,9.949,33.971,7.5,31.495z M-11.45,50.354
		c-7.176,0-10.884-1.483-12.479-3.09c-1.236-1.244-2.114-2.85-2.114-5.897c0-3.05,0.758-4.695,2.074-6.021
		c1.635-1.646,5.342-2.97,12.519-2.97s10.765,1.364,12.44,3.05c1.316,1.324,2.113,2.891,2.113,5.939s-0.758,4.693-2.074,6.019
		C-0.645,49.068-4.271,50.354-11.45,50.354z"/>
</g>
<g>
	<g>
		<path fill="#9B6F43" d="M77.772,82.715l-23.705,51.734c-0.46,0.992-0.652,2.089-0.606,3.155c0.071,1.858,0.859,3.633,2.212,4.64
			c2.131,1.59,4.87,0.672,6.115-2.045L85.93,87.517c0.322,0.209,0.642,0.416,0.969,0.634c4.416,2.938,8.873,6.376,13.25,10.215
			c2.136,1.873,4.175,3.768,6.063,5.63c0.826,0.811,1.586,1.578,2.317,2.346c0.377,0.392,0.751,0.783,1.12,1.184
			c0.104,0.113,0.452,0.5,0.452,0.5c0.289,0.327,0.726,0.317,1.008-0.024c0,0,1.292-1.573,1.901-2.325
			c0.283-0.352,0.309-0.914,0.054-1.297c-2.611-3.951-5.598-7.968-9.13-12.282c-4.044-4.941-8.177-9.431-12.286-13.34
			c-8.639-8.262-16.803-14.091-24.957-17.818l-1.667-0.762c-0.199-0.09-0.416-0.068-0.601,0.058
			c-0.186,0.124-0.32,0.341-0.374,0.601l-2.957,14.72c-0.022,0.098-0.03,0.197-0.027,0.294c0.008,0.161,0.046,0.32,0.116,0.46
			c0.113,0.221,0.291,0.377,0.496,0.426c4.361,1.015,8.48,2.413,12.6,4.271C75.428,81.523,76.592,82.093,77.772,82.715z"/>
		<polygon fill="#9B6F43" points="140.843,98.684 128.444,94.29 127.342,100.736 130.329,110.729 139.679,107.537 		"/>
		<polygon fill="#9B6F43" points="94.615,133.174 103.373,137.908 108.306,134.287 106.561,122.09 95.678,124.029 		"/>
		<polygon fill="#9B6F43" points="123.441,125.346 117.039,126.484 116.415,131.865 121.565,134.65 124.473,132.521 		"/>
		<polygon fill="#9B6F43" points="135.681,125.131 134.092,132.582 137.359,135.672 145.125,132.205 141.925,124.326 		"/>
		<polygon fill="#9B6F43" points="117.761,140.754 117.402,143.828 120.342,145.414 121.997,144.201 121.41,140.105 		"/>
		<polygon fill="#9B6F43" points="107.45,146.494 109.793,149.563 112.466,148.371 112.299,144.855 110.491,143.924 		"/>
	</g>
</g>
<g>
	<g>
		<path fill="#FDF1F6" d="M76.341,78.715l-24.259,51.734c-0.47,0.992-0.667,2.089-0.62,3.155c0.073,1.858,0.879,3.633,2.264,4.64
			c2.181,1.59,4.983,0.672,6.258-2.045L84.69,83.517c0.33,0.209,0.657,0.416,0.991,0.634c4.519,2.938,9.081,6.376,13.56,10.215
			c2.186,1.873,4.273,3.768,6.206,5.63c0.846,0.811,1.622,1.579,2.371,2.346c0.386,0.392,0.769,0.784,1.146,1.184
			c0.107,0.113,0.463,0.5,0.463,0.5c0.296,0.327,0.742,0.317,1.031-0.024c0,0,1.322-1.573,1.946-2.326
			c0.289-0.351,0.315-0.914,0.055-1.297c-2.672-3.951-5.729-7.968-9.344-12.281c-4.139-4.941-8.368-9.431-12.573-13.34
			c-8.841-8.262-17.196-14.091-25.541-17.818l-1.706-0.762c-0.204-0.09-0.425-0.068-0.615,0.058
			c-0.191,0.124-0.328,0.341-0.383,0.601l-3.026,14.72c-0.023,0.098-0.031,0.197-0.027,0.294c0.008,0.161,0.047,0.32,0.118,0.46
			c0.116,0.221,0.298,0.377,0.507,0.426c4.463,1.015,8.678,2.413,12.895,4.271C73.942,77.523,75.133,78.093,76.341,78.715z"/>
		<polygon fill="#FDF1F6" points="138.843,94.684 126.444,90.29 125.342,96.736 128.329,106.729 137.679,103.538 		"/>
		<polygon fill="#FDF1F6" points="92.615,129.174 101.373,133.908 106.306,130.287 104.561,118.09 93.678,120.029 		"/>
		<polygon fill="#FDF1F6" points="121.441,121.346 115.039,122.484 114.415,127.865 119.565,130.65 122.473,128.521 		"/>
		<polygon fill="#FDF1F6" points="133.681,121.131 132.092,128.582 135.359,131.672 143.125,128.205 139.925,120.326 		"/>
		<polygon fill="#FDF1F6" points="115.761,136.754 115.402,139.828 118.342,141.414 119.997,140.201 119.41,136.105 		"/>
		<polygon fill="#FDF1F6" points="105.45,142.494 107.793,145.563 110.466,144.371 110.299,140.855 108.491,139.924 		"/>
	</g>
</g>
</svg>
