<?xml version="1.0" encoding="utf-8"?>
<!-- Generator: Adobe Illustrator 16.0.3, SVG Export Plug-In . SVG Version: 6.00 Build 0)  -->
<!DOCTYPE svg PUBLIC "-//W3C//DTD SVG 1.1//EN" "http://www.w3.org/Graphics/SVG/1.1/DTD/svg11.dtd">
<svg version="1.1" id="圖層_1" xmlns="http://www.w3.org/2000/svg" xmlns:xlink="http://www.w3.org/1999/xlink" x="0px" y="0px"
	 width="185px" height="212px" viewBox="0 0 185 212" enable-background="new 0 0 185 212" xml:space="preserve">
<g>
	<polygon fill="#F4E6BD" points="92.211,210.514 0.412,157.514 0.413,52.175 92.211,105.175 	"/>
	<polygon fill="#F4E2B0" points="92.211,210.514 184.01,157.514 184.01,52.175 92.211,105.175 	"/>
	<polygon fill="#F4D57F" points="91.924,180.02 26.71,142.367 26.71,94.825 91.924,131.908 	"/>
	<polygon fill="#F4D271" points="91.925,180.02 157.139,142.367 157.137,94.392 91.925,131.908 	"/>
	<polygon fill="#F4D682" points="91.72,56.976 91.72,131.809 91.924,131.926 156.73,94.509 	"/>
	<polygon fill="#F4DD9D" points="91.822,56.976 91.822,131.809 91.618,131.926 26.812,94.509 	"/>
	<polygon fill="#F4E9CE" points="92.211,105.01 0.412,52.01 91.638,-0.659 183.438,52.341 	"/>
</g>
<g transform="translate(103.000000, 76.000000)" display="none">
	<path display="inline" fill="#4C4C4C" d="M-66.904,34.713c8.276,0,14.158,1.217,18.377,2.839v-6.815
		c-3.57-1.134-9.209-2.353-18.215-2.353c-11.48,0-16.957,2.312-19.675,5.03c-2.515,2.516-3.813,5.883-3.813,10.223
		c0,4.342,1.298,7.709,3.813,10.223c2.758,2.802,8.113,5.031,19.31,5.031c8.966,0,14.482-1.258,17.891-4.666
		c1.866-1.865,2.839-4.502,2.839-9.045v-3.772h-24.99v5.68h17.526c0.04,0.647,0.04,2.149-0.974,3.164
		c-1.826,1.825-6.328,2.435-12.292,2.435c-7.302,0-11.116-1.338-12.901-3.123c-1.298-1.34-1.988-3.246-1.988-5.924
		c0-2.597,0.73-4.625,2.15-6.046C-78.263,36.01-74.409,34.713-66.904,34.713C-66.904,34.713-74.409,34.713-66.904,34.713
		L-66.904,34.713L-66.904,34.713z"/>
	<path display="inline" fill="#4C4C4C" d="M72.654,29.473h-9.301L48.457,51.771L33.602,29.473h-9.703l19.445,28.328h9.864l0,0
		L72.654,29.473L72.654,29.473z"/>
	<path display="inline" fill="#4C4C4C" d="M21.445,9.862h-8.068l-52.672,67.279h8.19L21.445,9.862z"/>
	<path display="inline" fill="#4C4C4C" d="M9.5,33.495c-2.648-2.677-7.748-5.111-18.949-5.111c-10.8,0-16.3,2.394-18.99,5.111
		c-2.449,2.476-3.774,5.558-3.774,10.142c0,4.586,1.325,7.627,3.774,10.103c2.65,2.678,7.989,5.151,18.99,5.151
		c11,0,16.301-2.434,18.949-5.11c2.449-2.476,3.773-5.558,3.773-10.144C13.273,39.012,11.949,35.971,9.5,33.495z M-9.449,52.354
		c-7.177,0-10.884-1.483-12.479-3.09c-1.236-1.244-2.114-2.85-2.114-5.897c0-3.05,0.758-4.695,2.074-6.021
		c1.635-1.646,5.342-2.97,12.519-2.97c7.178,0,10.764,1.364,12.439,3.05c1.316,1.324,2.113,2.891,2.113,5.939
		s-0.758,4.693-2.074,6.019C1.355,51.068-2.271,52.354-9.449,52.354z"/>
</g>
<g transform="translate(103.000000, 76.000000)" display="none">
	<path display="inline" fill="#FFFFFF" d="M-68.904,32.713c8.276,0,14.158,1.217,18.377,2.839v-6.815
		c-3.57-1.136-9.209-2.353-18.215-2.353c-11.48,0-16.957,2.312-19.675,5.03c-2.515,2.516-3.813,5.883-3.813,10.223
		c0,4.342,1.298,7.709,3.813,10.223c2.758,2.802,8.113,5.031,19.31,5.031c8.966,0,14.482-1.258,17.891-4.666
		c1.866-1.865,2.839-4.502,2.839-9.045v-3.772h-24.99v5.68h17.526c0.04,0.647,0.04,2.149-0.974,3.164
		c-1.826,1.825-6.328,2.435-12.292,2.435c-7.302,0-11.116-1.338-12.901-3.123c-1.298-1.34-1.988-3.246-1.988-5.924
		c0-2.597,0.73-4.625,2.15-6.046C-80.263,34.01-76.409,32.713-68.904,32.713C-68.904,32.713-76.409,32.713-68.904,32.713
		L-68.904,32.713L-68.904,32.713z"/>
	<path display="inline" fill="#FFFFFF" d="M70.654,27.473h-9.301L46.457,49.771L31.602,27.473h-9.703l19.445,28.328h9.864l0,0
		L70.654,27.473L70.654,27.473z"/>
	<path display="inline" fill="#C31F25" d="M19.445,7.862h-8.068l-52.672,67.279h8.19L19.445,7.862z"/>
	<path display="inline" fill="#FFFFFF" d="M7.5,31.495c-2.648-2.677-7.748-5.111-18.949-5.111c-10.8,0-16.3,2.394-18.99,5.111
		c-2.449,2.476-3.774,5.558-3.774,10.142c0,4.586,1.325,7.627,3.774,10.103c2.65,2.678,7.989,5.151,18.99,5.151
		c11.002,0,16.301-2.434,18.949-5.111c2.449-2.475,3.773-5.559,3.773-10.144C11.273,37.012,9.949,33.971,7.5,31.495z M-11.45,50.354
		c-7.176,0-10.884-1.483-12.479-3.09c-1.236-1.244-2.114-2.85-2.114-5.897c0-3.05,0.758-4.695,2.074-6.021
		c1.635-1.646,5.342-2.97,12.519-2.97s10.765,1.364,12.44,3.05c1.316,1.324,2.113,2.891,2.113,5.939s-0.758,4.693-2.074,6.019
		C-0.645,49.068-4.271,50.354-11.45,50.354z"/>
</g>
<g>
	<path d="M60.87,131.366"/>
	<path d="M71.397,122.221"/>
	<path d="M90.656,106.686"/>
	<path d="M97.918,102.666"/>
	<path d="M89.577,115.559"/>
</g>
<g>
	<path fill="#F9F9F9" d="M62.29,113.588"/>
	<path fill="#F9F9F9" d="M82.923,95.57"/>
	<path fill="#F9F9F9" d="M87.294,110.188"/>
</g>
<path fill="#DBB205" d="M44.06,96.245c-1.012,2.724-0.22,5.934,1.993,7.642c1.89,1.464,18.498,13.872,23.756,17.8l-8.134,27.395
	c-1.328,3.857-0.292,5.996,0.81,7.108c2.333,2.354,6.327,1.674,9.065-0.213c2.666-1.837,17.523-12.712,22.405-16.286
	c5.476,3.438,23.257,14.616,25.938,16.504c2.399,1.688,5.964,2.597,8.523,0.825c1.209-0.836,3.066-2.926,1.882-7.514
	c-1.339-5.18-5.42-22.044-6.75-27.554l20.093-15.454c1.566-1.205,2.546-3.056,2.682-5.086c0.132-1.93-0.529-3.779-1.813-5.075
	c-1.096-1.106-2.561-1.749-4.184-1.86c-3.049-0.272-20.972-1.663-26.631-2.099c-2.562-6.235-11.846-28.83-13.04-31.847
	c-0.478-1.211-1.13-2.24-1.938-3.054c-1.607-1.624-3.781-2.29-5.817-1.782c-2.259,0.559-4.021,2.417-4.767,4.917
	c-1.154,3.069-8.568,23.285-10.767,29.287L49.66,92.111C47.036,92.322,44.941,93.867,44.06,96.245z M50.103,97.667l29.485-2.352
	c1.086-0.087,2.023-0.798,2.395-1.819c0.001-0.002,10.011-27.317,11.425-31.098c0.259-0.856,0.65-1.248,0.837-1.293
	c0.088-0.023,0.289,0.071,0.511,0.294c0.188,0.19,0.468,0.552,0.717,1.181c1.396,3.521,13.219,32.281,13.721,33.503
	c0.404,0.968,1.312,1.635,2.363,1.717c0,0,24.657,1.906,28.336,2.233c0.424,0.029,0.913,0.35,0.869,1.001
	c-0.026,0.426-0.221,0.815-0.518,1.042l-21.532,16.558c-0.867,0.673-1.266,1.792-1.009,2.864c0.056,0.23,5.589,23.16,7.198,29.396
	c0.204,0.785,0.221,1.258,0.203,1.509c-0.41-0.014-1.193-0.2-2.002-0.771c-3.283-2.308-26.788-17.048-27.789-17.674
	c-0.967-0.604-2.206-0.562-3.126,0.114c-0.21,0.152-20.731,15.197-23.799,17.31c-0.601,0.416-1.284,0.633-1.743,0.699
	c0.041-0.279,0.133-0.701,0.338-1.304l8.722-29.368c0.333-1.124-0.058-2.333-1.004-3.027c-0.23-0.173-23.074-17.231-25.254-18.922
	c-0.189-0.19-0.347-0.785-0.163-1.281C49.371,97.947,49.507,97.718,50.103,97.667z"/>
<path fill="#FCFBF7" d="M40.082,94.653c-1.013,2.724-0.22,5.934,1.992,7.642c1.89,1.464,18.498,13.872,23.756,17.801l-8.134,27.395
	c-1.328,3.857-0.292,5.995,0.811,7.108c2.333,2.354,6.326,1.674,9.064-0.213c2.666-1.837,17.523-12.712,22.405-16.287
	c5.477,3.438,23.257,14.616,25.939,16.505c2.399,1.688,5.964,2.597,8.523,0.825c1.209-0.837,3.066-2.927,1.882-7.515
	c-1.338-5.18-5.42-22.044-6.75-27.553l20.093-15.455c1.566-1.204,2.546-3.056,2.682-5.086c0.132-1.93-0.529-3.779-1.813-5.075
	c-1.097-1.105-2.562-1.749-4.185-1.86c-3.049-0.272-20.972-1.664-26.631-2.099c-2.562-6.235-11.846-28.83-13.04-31.847
	c-0.478-1.211-1.13-2.24-1.938-3.054c-1.607-1.624-3.781-2.29-5.817-1.782c-2.259,0.559-4.021,2.417-4.767,4.917
	C83,62.089,75.586,82.305,73.388,88.308L45.681,90.52C43.057,90.731,40.963,92.275,40.082,94.653z"/>
</svg>
