<?xml version="1.0" encoding="utf-8"?>
<!-- Generator: Adobe Illustrator 16.0.3, SVG Export Plug-In . SVG Version: 6.00 Build 0)  -->
<!DOCTYPE svg PUBLIC "-//W3C//DTD SVG 1.1//EN" "http://www.w3.org/Graphics/SVG/1.1/DTD/svg11.dtd">
<svg version="1.1" id="圖層_1" xmlns="http://www.w3.org/2000/svg" xmlns:xlink="http://www.w3.org/1999/xlink" x="0px" y="0px"
	 width="185px" height="212px" viewBox="0 0 185 212" enable-background="new 0 0 185 212" xml:space="preserve">
<g>
	<polygon fill="#BDD8F2" points="92.211,212 0.412,159 0.413,53.661 92.211,106.661 	"/>
	<polygon fill="#B1D4F2" points="92.211,212 184.01,159 184.01,53.661 92.211,106.661 	"/>
	<polygon fill="#85B9E8" points="91.924,181.506 26.71,143.854 26.71,96.312 91.924,133.395 	"/>
	<polygon fill="#72B5F2" points="91.925,181.506 157.139,143.854 157.137,95.878 91.925,133.395 	"/>
	<polygon fill="#83BDF2" points="91.72,58.462 91.72,133.295 91.924,133.412 156.73,95.995 	"/>
	<polygon fill="#9ECAF2" points="91.822,58.462 91.822,133.295 91.618,133.412 26.812,95.995 	"/>
	<polygon fill="#CEE1F2" points="92.211,106.497 0.412,53.497 91.638,0.827 183.438,53.827 	"/>
</g>
<g>
	<g>
		<path fill="#0775D8" d="M141.601,93.423c-0.167-2.008-1.766-22.952-21.157-36.552c-6.379-4.471-13.767-7.215-21.35-8.253
			c-20.901-2.862-41.56,6.351-49.445,27.962c-6.779,18.578,1.16,41.955,13.297,56.022c4.382,5.073,8.123,16.838,7.128,22.332
			l-3.528,7.429c0,2.001,0.321,3.465,2.222,3.465h44.821c1.814,0,1.042-1.036,1.166-2.942c0.164-2.564-0.25-2.877-0.25-2.877
			c0.939-4.229-1.294-11.77,5.996-10.537c7.644,1.291,17.114,0.598,19.102-4.634c1.988-2.354,2.237-18.047,2.237-18.047
			c0.364-0.22,3.163,0.387,6.656-0.448c2.718-0.65,3.673-4.2,1.692-6.262c-8.846-7.153-8.612-10.468-8.809-11.298
			C140.396,104.662,141.957,97.755,141.601,93.423z M127.925,90.5c-1.103,1.428-3.489,1.146-4.154,1.182
			c-0.218,0.012-0.37,0.226-0.311,0.441c0.341,1.229-1.784,6.767-7.71,8.084c-5.563,1.235-7,1.819-9.196,4.062
			c-1.687,1.724-3.425,4.207-5.701,4.73c-2.327,0.535-5.633,2.454-7.467,4.144c-1.932,1.779-3.657,10.122-4.12,11.824
			c-0.041,0.149-0.175,0.253-0.327,0.253h-2.854c-0.161,0-0.299-0.114-0.332-0.274l-1.384-6.686
			c-0.057-0.281-7.406-0.532-14.496-5.27c-0.037-0.215-0.249-0.349-0.449-0.274c-1.29,0.478-5.425,1.646-7.658-1.889
			c-1.583-2.506-1.163-4.848-0.942-5.654c0.046-0.168-0.192-0.412-0.192-0.412c-1.138-0.499-3.377-3.225-4.69-10.602
			c0.449-6.246,4.583-9.013,4.005-9.974c-1.666-2.77-0.217-7.362,3.198-8.388c0.138-0.041,0.236-0.165,0.249-0.312l0.144-1.627
			c0.476-5.741,7.856-9.379,12.874-6.993c0.194,0.092,0.424-0.005,0.488-0.213c0.627-2.035,2.289-4.087,2.627-4.283
			c3.671-1.015,3.183,0.71,4.791,1.384c0.129,0.055,0.278,0.021,0.375-0.083c0.457-0.5,2.36-3.84,5.463-3.84
			c3.183,0,4.773,3.333,5.336,3.775c0.105,0.081,0.244,0.097,0.36,0.035c0.716-0.373,3.489-2.953,6.106-2.032
			c1.978,0.697,2.942,3.919,3.295,4.588c0.075,0.144,0.235,0.217,0.389,0.179c0.938-0.228,4.15-2.723,6.879-1.465
			c2.881,1.331,3.813,5.114,4.042,5.759c0.047,0.131,0.167,0.219,0.305,0.225c0.626,0.025,2.467-1.744,3.53-0.829
			c1.885,1.617,1.583,4.816,1.365,5.362c-0.066,0.167,0.007,0.357,0.165,0.435c0.858,0.432,4.502,1.518,5.998,4.539
			C129.982,84.564,129.053,89.039,127.925,90.5z"/>
	</g>
</g>
<g transform="translate(103.000000, 76.000000)" display="none">
	<path display="inline" fill="#4C4C4C" d="M-66.904,34.713c8.276,0,14.158,1.217,18.377,2.84v-6.816
		c-3.57-1.133-9.209-2.353-18.215-2.353c-11.48,0-16.957,2.312-19.675,5.03c-2.515,2.516-3.813,5.883-3.813,10.223
		c0,4.342,1.298,7.709,3.813,10.223c2.758,2.803,8.113,5.031,19.31,5.031c8.966,0,14.482-1.258,17.891-4.666
		c1.866-1.865,2.839-4.502,2.839-9.045v-3.771h-24.99v5.68h17.526c0.04,0.646,0.04,2.148-0.974,3.164
		c-1.826,1.825-6.328,2.436-12.292,2.436c-7.302,0-11.116-1.338-12.901-3.123c-1.298-1.34-1.988-3.246-1.988-5.924
		c0-2.598,0.73-4.625,2.15-6.047C-78.263,36.01-74.409,34.713-66.904,34.713C-66.904,34.713-74.409,34.713-66.904,34.713
		L-66.904,34.713L-66.904,34.713z"/>
	<path display="inline" fill="#4C4C4C" d="M72.654,29.473h-9.301L48.457,51.771L33.602,29.473h-9.703l19.445,28.328h9.864l0,0
		L72.654,29.473L72.654,29.473z"/>
	<path display="inline" fill="#4C4C4C" d="M21.445,9.862h-8.068l-52.672,67.279h8.19L21.445,9.862z"/>
	<path display="inline" fill="#4C4C4C" d="M9.5,33.495c-2.648-2.677-7.748-5.111-18.949-5.111c-10.8,0-16.3,2.394-18.99,5.111
		c-2.449,2.476-3.774,5.558-3.774,10.142c0,4.586,1.325,7.627,3.774,10.104c2.65,2.678,7.989,5.15,18.99,5.15
		c11,0,16.301-2.434,18.949-5.109c2.449-2.477,3.773-5.559,3.773-10.145C13.273,39.012,11.949,35.971,9.5,33.495z M-9.449,52.354
		c-7.177,0-10.884-1.482-12.479-3.09c-1.236-1.244-2.114-2.85-2.114-5.896c0-3.051,0.758-4.695,2.074-6.021
		c1.635-1.646,5.342-2.97,12.519-2.97c7.178,0,10.764,1.364,12.439,3.05c1.316,1.324,2.113,2.891,2.113,5.939
		c0,3.048-0.758,4.693-2.074,6.019C1.355,51.068-2.271,52.354-9.449,52.354z"/>
</g>
<g transform="translate(103.000000, 76.000000)" display="none">
	<path display="inline" fill="#FFFFFF" d="M-68.904,32.713c8.276,0,14.158,1.217,18.377,2.84v-6.816
		c-3.57-1.136-9.209-2.353-18.215-2.353c-11.48,0-16.957,2.312-19.675,5.03c-2.515,2.516-3.813,5.883-3.813,10.223
		c0,4.342,1.298,7.709,3.813,10.223c2.758,2.803,8.113,5.031,19.31,5.031c8.966,0,14.482-1.258,17.891-4.666
		c1.866-1.865,2.839-4.502,2.839-9.045v-3.771h-24.99v5.68h17.526c0.04,0.646,0.04,2.148-0.974,3.164
		c-1.826,1.825-6.328,2.436-12.292,2.436c-7.302,0-11.116-1.338-12.901-3.123c-1.298-1.34-1.988-3.246-1.988-5.924
		c0-2.598,0.73-4.625,2.15-6.047C-80.263,34.01-76.409,32.713-68.904,32.713C-68.904,32.713-76.409,32.713-68.904,32.713
		L-68.904,32.713L-68.904,32.713z"/>
	<path display="inline" fill="#FFFFFF" d="M70.654,27.473h-9.301L46.457,49.771L31.602,27.473h-9.703l19.445,28.328h9.864l0,0
		L70.654,27.473L70.654,27.473z"/>
	<path display="inline" fill="#C31F25" d="M19.445,7.862h-8.068l-52.672,67.279h8.19L19.445,7.862z"/>
	<path display="inline" fill="#FFFFFF" d="M7.5,31.495c-2.648-2.677-7.748-5.111-18.949-5.111c-10.8,0-16.3,2.394-18.99,5.111
		c-2.449,2.476-3.774,5.558-3.774,10.142c0,4.586,1.325,7.627,3.774,10.104c2.65,2.678,7.989,5.15,18.99,5.15
		c11.002,0,16.301-2.434,18.949-5.111c2.449-2.475,3.773-5.559,3.773-10.143C11.273,37.012,9.949,33.971,7.5,31.495z M-11.45,50.354
		c-7.176,0-10.884-1.482-12.479-3.09c-1.236-1.244-2.114-2.85-2.114-5.896c0-3.051,0.758-4.695,2.074-6.021
		c1.635-1.646,5.342-2.97,12.519-2.97s10.765,1.364,12.44,3.05c1.316,1.324,2.113,2.891,2.113,5.939
		c0,3.048-0.758,4.693-2.074,6.019C-0.645,49.068-4.271,50.354-11.45,50.354z"/>
</g>
<g>
	<path d="M60.87,132.853"/>
	<path d="M71.397,123.707"/>
	<path d="M90.656,108.172"/>
	<path d="M97.918,104.152"/>
	<path d="M89.577,117.045"/>
</g>
<g>
	<path fill="#F9F9F9" d="M62.29,115.074"/>
	<path fill="#F9F9F9" d="M82.923,97.056"/>
	<path fill="#F9F9F9" d="M87.294,111.674"/>
</g>
<g>
	<g>
		<path fill="#F8FDFF" d="M138.611,90.095c-0.168-2.008-1.767-22.952-21.158-36.552c-6.378-4.471-13.765-7.216-21.349-8.254
			c-20.902-2.861-41.561,6.352-49.446,27.962c-6.779,18.578,1.16,41.955,13.298,56.021c4.38,5.074,8.123,16.84,7.128,22.333
			l-3.529,7.429c0,2.002,0.32,3.465,2.222,3.465H110.6c1.813,0,1.042-1.037,1.165-2.941c0.164-2.565-0.248-2.878-0.248-2.878
			c0.938-4.23-1.294-11.771,5.994-10.538c7.646,1.293,17.114,0.601,19.102-4.632c1.988-2.354,2.238-18.048,2.238-18.048
			c0.364-0.219,3.163,0.388,6.657-0.449c2.716-0.648,3.672-4.2,1.692-6.262c-8.846-7.152-8.612-10.467-8.811-11.296
			C137.406,101.333,138.967,94.428,138.611,90.095z M124.934,87.172c-1.103,1.429-3.486,1.146-4.152,1.183
			c-0.219,0.012-0.37,0.226-0.312,0.441c0.341,1.229-1.783,6.767-7.711,8.084c-5.562,1.236-6.999,1.818-9.195,4.063
			c-1.686,1.723-3.425,4.206-5.701,4.729c-2.324,0.535-5.631,2.455-7.466,4.145c-1.933,1.779-3.658,10.121-4.121,11.824
			c-0.041,0.149-0.174,0.252-0.326,0.252h-2.854c-0.161,0-0.299-0.114-0.332-0.275l-1.383-6.684
			c-0.058-0.283-7.407-0.531-14.497-5.271c-0.037-0.214-0.249-0.347-0.451-0.273c-1.289,0.477-5.424,1.646-7.656-1.889
			c-1.583-2.506-1.163-4.848-0.942-5.655c0.045-0.166-0.192-0.41-0.192-0.41c-1.139-0.5-3.377-3.225-4.691-10.602
			c0.449-6.247,4.583-9.014,4.005-9.975c-1.667-2.77-0.218-7.363,3.198-8.388c0.138-0.041,0.236-0.166,0.248-0.312l0.145-1.627
			c0.474-5.741,7.855-9.379,12.873-6.993c0.194,0.093,0.423-0.005,0.487-0.213c0.629-2.036,2.29-4.088,2.628-4.283
			c3.67-1.016,3.182,0.709,4.791,1.384c0.13,0.054,0.278,0.021,0.374-0.084c0.457-0.5,2.359-3.839,5.463-3.839
			c3.184,0,4.772,3.332,5.337,3.774c0.105,0.081,0.244,0.096,0.36,0.036c0.715-0.375,3.487-2.954,6.107-2.032
			c1.976,0.696,2.941,3.918,3.294,4.587c0.074,0.143,0.234,0.216,0.389,0.178c0.937-0.227,4.15-2.723,6.879-1.464
			c2.881,1.332,3.813,5.114,4.043,5.758c0.048,0.132,0.167,0.22,0.303,0.225c0.626,0.026,2.468-1.744,3.532-0.829
			c1.882,1.617,1.583,4.817,1.364,5.362c-0.064,0.166,0.008,0.356,0.165,0.435c0.859,0.431,4.503,1.517,5.997,4.539
			C126.991,81.236,126.063,85.71,124.934,87.172z"/>
	</g>
	<g>
		<path fill="#FFFFFF" d="M57.454,74.676c0-8.279,11.553-8.26,11.553,0v2c0,8.259-11.553,8.279-11.553,0V74.676z M59.918,76.676
			c0,5.03,6.624,5.03,6.624,0v-2c0-4.952-6.624-5.011-6.624,0V76.676z M70.153,80.399h1.976V71.13h-2.05v-2.376h4.516v11.646h1.825
			v2.218h-6.266V80.399z M77.49,74.676c0-8.279,11.554-8.26,11.554,0v2c0,8.259-11.554,8.279-11.554,0V74.676z M79.956,76.676
			c0,5.03,6.624,5.03,6.624,0v-2c0-4.952-6.624-5.011-6.624,0V76.676z M90.191,80.399h1.977V71.13h-2.053v-2.376h4.515v11.646h1.827
			v2.218h-6.266V80.399L90.191,80.399z M97.527,74.676c0-8.279,11.555-8.26,11.555,0v2c0,8.259-11.555,8.279-11.555,0V74.676z
			 M99.993,76.676c0,5.03,6.623,5.03,6.623,0v-2c0-4.952-6.623-5.011-6.623,0V76.676z M110.226,80.399h1.979V71.13h-2.05v-2.376
			h4.515v11.646h1.825v2.218h-6.267v-2.218H110.226z"/>
	</g>
	<g>
		<path fill="#FFFFFF" d="M57.059,98.366h1.977v-9.27h-2.052v-2.376h4.516v11.646h1.824v2.218h-6.265V98.366z M64.397,92.642
			c0-8.279,11.552-8.26,11.552,0v2c0,8.26-11.552,8.279-11.552,0V92.642z M66.861,94.642c0,5.033,6.624,5.033,6.624,0v-2
			c0-4.951-6.624-5.011-6.624,0V94.642L66.861,94.642z M77.096,98.366h1.977v-9.27h-2.051v-2.376h4.515v11.646h1.826v2.218h-6.266
			V98.366z M84.434,92.642c0-8.279,11.554-8.26,11.554,0v2c0,8.26-11.554,8.279-11.554,0V92.642z M86.898,94.642
			c0,5.033,6.625,5.033,6.625,0v-2c0-4.951-6.625-5.011-6.625,0V94.642z M97.134,98.366h1.975v-9.27h-2.051v-2.376h4.516v11.646
			h1.824v2.218h-6.264V98.366L97.134,98.366z M104.472,92.642c0-8.279,11.553-8.26,11.553,0v2c0,8.26-11.553,8.279-11.553,0V92.642z
			 M106.936,94.642c0,5.033,6.623,5.033,6.623,0v-2c0-4.951-6.623-5.011-6.623,0V94.642z"/>
	</g>
</g>
</svg>
