<?xml version="1.0" encoding="utf-8"?>
<!-- Generator: Adobe Illustrator 16.0.0, SVG Export Plug-In . SVG Version: 6.00 Build 0)  -->
<!DOCTYPE svg PUBLIC "-//W3C//DTD SVG 1.1//EN" "http://www.w3.org/Graphics/SVG/1.1/DTD/svg11.dtd">
<svg version="1.1" id="圖層_1" xmlns="http://www.w3.org/2000/svg" xmlns:xlink="http://www.w3.org/1999/xlink" x="0px" y="0px"
	 width="185px" height="212px" viewBox="0 0 185 212" enable-background="new 0 0 185 212" xml:space="preserve">
<g>
	<polygon fill="#5FA5C3" points="92.453,211.162 0.654,158.16 0.655,52.822 92.453,105.822 	"/>
	<polygon fill="#5D9DBC" points="92.028,211.162 183.827,158.16 183.827,52.822 92.028,105.822 	"/>
	<polygon fill="#2684B9" points="92.166,181.091 26.952,143.438 26.953,95.896 92.166,132.979 	"/>
	<polygon fill="#1C75A8" points="92.167,181.091 157.381,143.438 157.379,95.464 92.167,132.979 	"/>
	<polygon fill="#3CA5C1" points="91.962,58.048 91.962,132.88 92.166,132.997 156.973,95.581 	"/>
	<polygon fill="#3BAAD2" points="92.063,58.473 92.063,133.305 91.86,133.422 27.054,96.006 	"/>
	<polygon fill="#64ABC4" points="92.453,106.082 0.654,53.082 91.88,0.413 183.68,53.413 	"/>
</g>
<path fill="#144784" d="M40.375,116.588c-0.54,1.316,0.089,2.823,1.408,3.362c1.316,0.54,2.823-0.089,3.364-1.406
	c0.378-0.92,1.09-1.638,2.006-2.019c0.915-0.383,1.927-0.383,2.846-0.004c0.659,0.272,1.365,0.252,1.976-0.002
	c0.608-0.255,1.12-0.74,1.392-1.395c0.545-1.318-0.082-2.824-1.397-3.369c-2.195-0.907-4.61-0.903-6.8,0.009
	C42.98,112.676,41.277,114.389,40.375,116.588z"/>
<path fill="#144784" d="M38.512,115.354c1.08-2.634,3.12-4.688,5.744-5.781c2.625-1.095,5.519-1.099,8.151-0.008
	c0.659,0.273,1.367,0.252,1.976-0.004c0.609-0.252,1.12-0.738,1.392-1.396c0.545-1.316-0.081-2.825-1.396-3.369
	c-3.908-1.617-8.207-1.61-12.105,0.015c-3.898,1.625-6.929,4.676-8.532,8.589c-0.539,1.317,0.091,2.824,1.409,3.364
	C36.467,117.305,37.97,116.674,38.512,115.354z"/>
<g>
	<g>
		<path fill="#E1F6FF" d="M39.15,114.554c-0.54,1.316,0.089,2.824,1.408,3.363c1.316,0.54,2.822-0.09,3.364-1.406
			c0.377-0.921,1.09-1.637,2.005-2.019c0.916-0.381,1.927-0.384,2.847-0.004c0.66,0.273,1.365,0.251,1.976-0.003
			c0.608-0.255,1.12-0.738,1.392-1.396c0.545-1.315-0.082-2.822-1.396-3.367c-2.195-0.906-4.61-0.904-6.8,0.01
			C41.753,110.644,40.052,112.355,39.15,114.554z"/>
		<path fill="#E1F6FF" d="M37.286,113.322c1.08-2.635,3.12-4.689,5.743-5.785c2.625-1.093,5.519-1.097,8.151-0.007
			c0.66,0.272,1.367,0.253,1.977-0.003c0.609-0.253,1.12-0.738,1.392-1.396c0.545-1.315-0.082-2.824-1.396-3.368
			c-3.908-1.617-8.207-1.611-12.106,0.015c-3.897,1.625-6.928,4.674-8.531,8.589c-0.539,1.317,0.092,2.824,1.409,3.364
			C35.24,115.271,36.745,114.641,37.286,113.322z"/>
	</g>
</g>
<g>
	<g>
		<g>
			<path fill="#144784" d="M153.134,118.691c-6.67-6.601-7.561-9.675-7.726-10.34c-0.819-3.286,0.816-7.467,0.521-10.92
				c-1.021-11.775-8.001-22.637-17.769-29.153c-5.343-3.561-11.55-5.745-17.913-6.575c-17.544-2.28-36.026,5.424-42.637,22.659
				c-5.697,14.815-0.083,29.521,10.101,40.739c3.68,4.047,4.191,11.656,4.191,16.785v10.397c0,1.591,1.293,2.885,2.884,2.885h37.628
				c1.521,0,2.776-1.175,2.886-2.705c0.131-2.044,0.367-3.837,0.367-3.837c0.783-3.37,3.656-6.076,9.781-5.103
				c6.408,1.032,10.456-0.878,10.813-5.153c-0.519,5.587,0.111,1.83,0.203-13.447c0.308-0.179,2.312-0.569,5.245-1.248
				C153.988,123.164,154.795,120.329,153.134,118.691z M133.498,93.49c-0.926,1.174-1.98,1.399-2.537,1.435
				c-0.192,0.013-0.309,0.19-0.262,0.367c0.285,1.01,0.581,3.788-4.402,4.867c-4.666,1.01-7.492,4.645-9.331,6.495
				c-1.413,1.413-3.335,2.066-5.245,2.49c-1.947,0.441-3.883,0.833-5.425,2.221c-1.628,1.462-3.906,9.497-4.3,10.897
				c-0.032,0.128-0.14,0.214-0.272,0.214h-2.398c-0.128,0-0.248-0.097-0.272-0.227l-1.161-5.496
				c-0.048-0.226-11.301,0.7-12.167-4.318c-0.035-0.179-0.213-0.297-0.38-0.229c-1.079,0.382-4.557,1.343-6.434-1.553
				c-1.331-2.065-0.974-3.989-0.783-4.641c0.035-0.144-0.036-0.284-0.167-0.345c-0.949-0.402-4.404-2.34-3.941-8.714
				c0.38-5.128,3.857-7.396,3.37-8.19c-1.399-2.267-0.189-6.042,2.684-6.885c0.119-0.036,0.19-0.142,0.202-0.26l0.131-1.33
				c0.391-4.712,6.586-7.704,10.798-5.745c0.167,0.071,0.358-0.011,0.403-0.178c0.535-1.673,1.593-2.137,1.879-2.29
				c1.305-0.736,3.003-0.641,4.355-0.095c0.106,0.046,0.237,0.023,0.307-0.06c0.395-0.416,1.959-1.722,4.573-1.722
				c2.669,0,4.022,1.306,4.497,1.662c0.082,0.071,0.203,0.083,0.31,0.035c0.593-0.308,2.787-1.294,4.984-0.532
				c1.662,0.569,2.601,2.077,2.896,2.623c0.071,0.118,0.202,0.177,0.333,0.154c0.783-0.19,3.513-0.713,5.805,0.32
				c2.408,1.092,3.168,2.67,3.359,3.205c0.033,0.106,0.142,0.178,0.258,0.19c0.524,0.011,1.973,0.143,2.863,0.891
				c1.577,1.329,1.423,2.374,1.247,2.825c-0.061,0.142,0,0.296,0.13,0.355c0.724,0.357,2.754,1.531,4.001,4.012
				C135.14,89.358,134.449,92.291,133.498,93.49z"/>
		</g>
	</g>
	<g>
		<path fill="#E1F6FF" d="M149.35,116.454c-6.67-6.601-7.561-9.676-7.727-10.342c-0.819-3.287,0.817-7.468,0.522-10.921
			c-1.021-11.775-8-22.637-17.77-29.153c-5.342-3.561-11.55-5.745-17.911-6.576c-17.548-2.279-36.029,5.424-42.64,22.659
			c-5.697,14.815-0.083,29.524,10.101,40.743c3.68,4.045,4.191,11.656,4.191,16.784v10.398c0,1.59,1.294,2.883,2.884,2.883h37.628
			c1.521,0,2.777-1.174,2.887-2.705c0.131-2.043,0.367-3.835,0.367-3.835c0.783-3.37,3.655-6.076,9.78-5.103
			c6.408,1.031,10.456-0.878,10.813-5.152c0.131-1.413,0.204-13.448,0.204-13.448c0.307-0.179,2.312-0.57,5.245-1.249
			C150.206,120.928,151.011,118.093,149.35,116.454z M129.716,91.25c-0.927,1.176-1.982,1.401-2.539,1.436
			c-0.189,0.012-0.309,0.19-0.261,0.367c0.284,1.009,0.581,3.788-4.401,4.868c-4.668,1.008-7.492,4.644-9.332,6.493
			c-1.412,1.415-3.335,2.065-5.245,2.491c-1.947,0.441-3.882,0.834-5.426,2.224c-1.627,1.462-3.905,9.497-4.299,10.896
			c-0.032,0.13-0.141,0.214-0.273,0.214h-2.396c-0.129,0-0.249-0.096-0.273-0.226l-1.162-5.496
			c-0.046-0.225-11.302,0.702-12.168-4.318c-0.035-0.179-0.213-0.297-0.379-0.228c-1.079,0.381-4.557,1.343-6.434-1.552
			c-1.331-2.069-0.973-3.993-0.783-4.645c0.035-0.144-0.036-0.285-0.167-0.346c-0.949-0.403-4.403-2.339-3.941-8.714
			c0.381-5.128,3.857-7.396,3.371-8.191c-1.399-2.266-0.189-6.041,2.684-6.884c0.119-0.036,0.19-0.142,0.202-0.26l0.131-1.331
			c0.392-4.711,6.588-7.703,10.799-5.744c0.169,0.071,0.358-0.011,0.403-0.179c0.534-1.673,1.592-2.136,1.875-2.29
			c1.306-0.736,3.006-0.641,4.36-0.095c0.107,0.047,0.237,0.024,0.308-0.059c0.392-0.416,1.959-1.721,4.571-1.721
			c2.67,0,4.024,1.305,4.498,1.661c0.084,0.072,0.203,0.083,0.309,0.036c0.594-0.309,2.789-1.294,4.986-0.532
			c1.661,0.569,2.6,2.076,2.896,2.622c0.07,0.118,0.2,0.178,0.331,0.154c0.784-0.19,3.514-0.713,5.805,0.32
			c2.41,1.092,3.17,2.67,3.36,3.205c0.034,0.106,0.141,0.178,0.258,0.19c0.523,0.011,1.973,0.142,2.86,0.89
			c1.582,1.33,1.427,2.375,1.249,2.825c-0.06,0.142,0,0.296,0.13,0.354c0.724,0.357,2.754,1.532,4.002,4.013
			C131.354,87.119,130.664,90.052,129.716,91.25z"/>
	</g>
</g>
<g>
	<g>
		<g>
			<path fill="#144784" d="M94.491,133.675c-0.324-0.633-8.223-15.737-26.599-15.737c-18.389,0-26.285,15.104-26.61,15.737
				c-0.497,0.976-0.497,2.147,0,3.123c0.325,0.635,8.199,15.737,26.61,15.737s26.274-15.103,26.61-15.737
				C94.989,135.822,94.989,134.65,94.491,133.675z M67.893,146.326c-5.801,0-10.525-4.979-10.525-11.089
				c0-6.112,4.724-11.089,10.525-11.089c5.8,0,10.514,4.977,10.514,11.089C78.406,141.348,73.693,146.326,67.893,146.326z"/>
		</g>
	</g>
	<g>
		<g>
			<path fill="#E1F6FF" d="M92.033,132.894c-0.325-0.603-8.245-14.975-26.666-14.975c-18.434,0-26.351,14.372-26.675,14.975
				c-0.499,0.93-0.499,2.042,0,2.972c0.325,0.605,8.219,14.977,26.675,14.977s26.34-14.373,26.678-14.977
				C92.533,134.936,92.533,133.823,92.033,132.894z M65.367,144.933c-5.816,0-10.552-4.736-10.552-10.554
				c0-5.815,4.735-10.552,10.552-10.552c5.815,0,10.54,4.735,10.54,10.552C75.907,140.196,71.183,144.933,65.367,144.933z"/>
		</g>
	</g>
</g>
<g>
	<g>
		<g>
			<path fill="#144784" d="M75.767,132.154c0,2.527-2.155,4.593-4.793,4.593c-2.651,0-4.806-2.065-4.806-4.593
				c0-2.542,2.155-4.606,4.806-4.606C73.613,127.545,75.767,129.612,75.767,132.154z"/>
		</g>
	</g>
	<g>
		<g>
			<path fill="#E1F6FF" d="M73.702,129.831c0,2.527-2.156,4.593-4.793,4.593c-2.651,0-4.806-2.065-4.806-4.593
				c0-2.542,2.155-4.606,4.806-4.606C71.547,125.222,73.702,127.289,73.702,129.831z"/>
		</g>
	</g>
</g>
</svg>
