<svg xmlns="http://www.w3.org/2000/svg" width="185" height="212" viewBox="0 0 185 212"><path fill="#8CD1C7" d="M92.913 211.01L1.402 158.175V53.166L92.913 106z"/><path fill="#7ACBC3" d="M92.913 211.01l91.514-52.835V53.166L92.913 106z"/><path fill="#61B1A5" d="M92.627 180.61l-65.009-37.534V95.682l65.009 36.967z"/><path fill="#4FA99E" d="M92.627 180.61l65.013-37.534-.002-47.826-65.011 37.399z"/><path fill="#62B4A8" d="M92.424 57.952v74.599l.203.116 64.605-37.299z"/><path fill="#75B9AE" d="M92.525 57.952v74.599l-.203.116-64.603-37.299z"/><path fill="#9BD6D1" d="M92.913 105.835L1.402 53.001 92.341.497l91.515 52.834z"/><g fill="#36685F"><path d="M128.87 95.938a3.987 3.987 0 0 0-7.799 1.658c.023.118 2.42 11.842-4.063 19.848-4.152 5.129-11.252 7.728-21.102 7.728-9.824 0-16.913-2.587-21.071-7.688-6.438-7.901-4.135-19.68-4.091-19.896a3.987 3.987 0 0 0-7.802-1.649c-.134.632-3.185 15.597 5.665 26.525 4.713 5.817 11.75 9.277 20.96 10.333a7.337 7.337 0 0 0-.376 2.316v21.234c0 .156.014.308.023.462h-15.24a3.988 3.988 0 1 0 0 7.974h42.535a3.987 3.987 0 1 0 0-7.974h-12.584c.01-.154.023-.306.023-.462v-21.234c0-.874-.159-1.707-.438-2.484 8.59-1.221 15.202-4.618 19.695-10.165 8.851-10.93 5.8-25.895 5.665-26.526z"/><path d="M96.558 119.191c9.692 0 17.553-5.973 17.553-13.346V67.439c0-7.372-7.86-13.348-17.553-13.348-9.693 0-17.553 5.976-17.553 13.348v38.407c0 7.373 7.859 13.345 17.553 13.345z"/></g><g fill="#EFF8F8"><path d="M125.88 92.947a3.987 3.987 0 0 0-7.799 1.658c.023.118 2.42 11.842-4.063 19.849-4.153 5.128-11.252 7.728-21.104 7.728-9.822 0-16.911-2.588-21.069-7.689-6.438-7.9-4.135-19.68-4.091-19.896a3.987 3.987 0 0 0-7.802-1.649c-.135.632-3.186 15.597 5.665 26.525 4.713 5.818 11.75 9.278 20.96 10.333a7.376 7.376 0 0 0-.376 2.317v21.234c0 .155.014.308.023.461H70.983a3.989 3.989 0 0 0 0 7.975h42.534a3.988 3.988 0 1 0 0-7.975h-12.583c.01-.153.023-.306.023-.461v-21.234c0-.874-.16-1.708-.438-2.484 8.591-1.221 15.202-4.618 19.696-10.166 8.85-10.929 5.799-25.894 5.665-26.526z"/><path d="M93.564 116.202c9.694 0 17.555-5.975 17.555-13.347V64.448c0-7.372-7.86-13.348-17.555-13.348-9.691 0-17.55 5.976-17.55 13.348v38.407c0 7.373 7.86 13.347 17.55 13.347z"/></g></svg>