<?xml version="1.0" encoding="utf-8"?>
<!-- Generator: Adobe Illustrator 16.0.0, SVG Export Plug-In . SVG Version: 6.00 Build 0)  -->
<!DOCTYPE svg PUBLIC "-//W3C//DTD SVG 1.1//EN" "http://www.w3.org/Graphics/SVG/1.1/DTD/svg11.dtd">
<svg version="1.1" id="圖層_1" xmlns="http://www.w3.org/2000/svg" xmlns:xlink="http://www.w3.org/1999/xlink" x="0px" y="0px"
	 width="185px" height="212px" viewBox="0 0 185 212" enable-background="new 0 0 185 212" xml:space="preserve">
<g display="none">
	<polygon display="inline" fill="#DDADCF" points="92.49,211.089 0.691,158.089 0.691,52.75 92.49,105.75 	"/>
	<polygon display="inline" fill="#D49AC2" points="92.065,211.514 183.863,158.514 183.863,53.176 92.065,106.176 	"/>
	<polygon display="inline" fill="#CA72AB" points="92.203,181.02 26.989,143.367 26.989,95.825 92.203,132.908 	"/>
	<polygon display="inline" fill="#C5589C" points="92.204,181.02 157.418,143.367 157.416,95.392 92.204,132.908 	"/>
	<polygon display="inline" fill="#D084B5" points="91.999,57.976 91.999,132.809 92.203,132.926 157.01,95.51 	"/>
	<polygon display="inline" fill="#D896C0" points="92.101,57.976 92.101,132.809 91.897,132.926 27.09,95.51 	"/>
	<polygon display="inline" fill="#E9B5D2" points="92.49,106.01 0.691,53.01 91.917,0.341 183.716,53.341 	"/>
</g>
<g display="none">
	<path display="inline" fill="#A04384" d="M136.043,153.498h-19.462L91.292,124.49H75.549v29.008H59.187V66.6
		c13.76,0,27.52,0.124,41.279,0.124c20.454,0.124,31.239,13.76,31.239,28.76c0,11.9-5.455,23.925-21.941,27.271l26.279,29.627
		V153.498z M75.549,81.971v27.767h24.917c10.413,0,14.876-6.941,14.876-13.883s-4.587-13.884-14.876-13.884H75.549z"/>
</g>
<circle display="none" fill="#FCFBEE" cx="92.548" cy="108.049" r="54.056"/>
<polygon display="none" fill="#F9BF15" points="122.732,115.165 118.109,109.463 118.109,95.082 103.158,95.082 103.158,109.549 
	91.473,124.111 80.899,124.111 64.801,99.419 65.439,99.419 65.439,84.468 50.488,84.468 50.488,99.419 63.854,99.419 
	63.189,99.853 79.004,124.111 78.098,124.111 78.098,139.062 93.048,139.062 93.048,124.686 104.807,110.033 116.529,110.033 
	120.689,115.165 119.656,115.165 119.656,130.116 134.605,130.116 134.605,115.165 "/>
<g>
	<polygon fill="#EEAAB5" points="92.357,211.854 0.559,158.854 0.559,53.516 92.357,106.516 	"/>
	<polygon fill="#EC97A2" points="92.358,211.854 184.156,158.854 184.156,53.516 92.358,106.516 	"/>
	<polygon fill="#F27979" points="92.07,181.359 26.856,143.707 26.857,96.165 92.07,133.247 	"/>
	<polygon fill="#E55A61" points="92.071,181.359 157.285,143.707 157.283,95.732 92.071,133.247 	"/>
	<polygon fill="#E6777F" points="91.867,58.316 91.867,133.148 92.07,133.266 156.877,95.85 	"/>
	<polygon fill="#F4979C" points="91.968,58.316 91.968,133.148 91.765,133.266 26.958,95.85 	"/>
	<polygon fill="#F8BDC6" points="92.357,106.35 0.559,53.35 91.784,0.681 183.584,53.681 	"/>
</g>
<g display="none">
	<g display="inline">
		<polygon fill="#BA2D3B" points="69.576,100.925 111.232,100.925 111.232,53.281 60.125,53.281 		"/>
		<polygon fill="#BA2D3B" points="82.532,64.808 69.576,100.925 61.315,63.854 78.677,61.092 		"/>
		<polygon fill="#BA2D3B" points="82.532,64.808 92.136,100.925 69.576,100.925 		"/>
		<polyline fill="#BA2D3B" points="113.231,68.583 119.678,84.556 110.867,84.556 110.423,68.28 113.048,68.28 		"/>
		
			<rect x="103.413" y="89.329" transform="matrix(-0.9812 -0.1932 0.1932 -0.9812 195.6796 200.0192)" fill="#BA2D3B" width="8.364" height="2.274"/>
		<rect x="101.041" y="67.113" fill="#BA2D3B" width="5.277" height="9.991"/>
		<polygon fill="#BA2D3B" points="115.655,63.854 127.199,70.369 74.881,63.854 		"/>
		<polygon fill="#BA2D3B" points="61.315,63.854 60.125,109.795 69.576,112.602 78.862,75.045 		"/>
		<polygon fill="#BA2D3B" points="75.289,74.471 85.047,74.471 82.699,64.808 73.885,64.808 		"/>
		<polygon fill="#BA2D3B" points="83.367,67.559 76.857,67.559 77.402,72.135 84.479,72.135 		"/>
		<polygon fill="#BA2D3B" points="69.576,112.602 49.128,101.659 68.17,120.029 		"/>
	</g>
	<g display="inline">
		<polygon fill="#BA2D3B" points="59.54,57.996 115.655,57.996 110.372,29.266 62.199,33.45 		"/>
		<polygon fill="#BA2D3B" points="59.54,57.996 115.655,57.996 114.057,49.377 60.447,48.567 		"/>
		<polygon fill="#BA2D3B" points="52.122,63.854 127.561,63.854 115.655,56.546 59.54,56.546 		"/>
	</g>
	<polygon display="inline" fill="#BA2D3B" points="100.566,100.925 76.857,100.925 71.921,109.646 106.318,109.646 	"/>
	<g display="inline">
		<polygon fill="#BA2D3B" points="89.615,114.127 131.87,102.349 131.151,114.748 95.055,123.416 		"/>
		<polygon fill="#BA2D3B" points="131.75,104.473 141.528,101.791 141.698,110.889 131.259,112.953 		"/>
	</g>
	<g display="inline">
		<polygon fill="#BA2D3B" points="108.606,109.646 69.73,109.646 59.666,176.652 116.068,176.652 		"/>
		<polygon fill="#BA2D3B" points="92.136,151.318 135.627,154.906 135.627,184.893 115.049,184.893 115.119,168.105 92.136,168.105 
					"/>
		<rect x="115.049" y="184.893" fill="#BA2D3B" width="27.703" height="7.334"/>
		<polyline fill="#BA2D3B" points="103.68,177.029 103.68,189.943 82.532,189.832 81,177.029 103.68,175.443 		"/>
		<rect x="75.801" y="164.777" fill="#BA2D3B" width="7.332" height="27.701"/>
	</g>
	<polygon display="inline" fill="#BA2D3B" points="87.865,176.652 59.666,176.652 69.73,109.646 87.865,109.646 	"/>
	<g display="inline">
		<polygon fill="#BA2D3B" points="87.118,114.451 129.534,125.646 122.646,135.982 87.118,125.217 		"/>
		<polygon fill="#BA2D3B" points="128.354,127.416 138.151,130.045 133.701,137.982 123.646,134.486 		"/>
		<polyline fill="#BA2D3B" points="133.701,137.982 139.706,135.982 142.752,130.426 138.151,130.045 133.701,137.15 		"/>
	</g>
	<rect x="138.151" y="84.556" display="inline" fill="#BA2D3B" width="11.071" height="31.467"/>
	<rect x="138.151" y="84.556" display="inline" fill="#BA2D3B" width="5.54" height="31.467"/>
	<polygon display="inline" fill="#BA2D3B" points="138.151,116.023 143.691,116.023 143.691,120.775 	"/>
	<polyline display="inline" fill="#BA2D3B" points="143.684,120.775 149.223,116.023 143.684,116.023 	"/>
	<polygon display="inline" fill="#BA2D3B" points="140.919,118.396 143.691,118.396 143.691,120.775 	"/>
	<polyline display="inline" fill="#BA2D3B" points="143.691,120.775 146.459,118.396 143.691,118.396 	"/>
	<rect x="138.151" y="87.184" display="inline" fill="#BA2D3B" width="5.54" height="2.088"/>
	<rect x="143.684" y="87.184" display="inline" fill="#BA2D3B" width="5.539" height="2.088"/>
	<rect x="138.151" y="84.556" display="inline" fill="#BA2D3B" width="5.54" height="2.628"/>
	<rect x="143.684" y="84.556" display="inline" fill="#BA2D3B" width="5.539" height="2.628"/>
	<g display="inline">
		<polygon fill="#BA2D3B" points="171.72,142.396 129.156,141.072 142.099,125.217 184.664,126.539 		"/>
		<polygon fill="#BA2D3B" points="168.955,140.791 134.339,139.715 144.86,126.82 179.481,127.896 		"/>
		<polygon fill="#BA2D3B" points="177.467,135.145 170.841,134.936 172.854,132.469 179.481,132.676 		"/>
	</g>
</g>
<g>
	<g>
		<polygon fill="#EDD8A3" points="66.086,98.424 107.745,98.424 107.745,50.78 56.636,50.78 		"/>
		<polygon fill="#E56824" points="79.042,62.306 66.086,98.424 57.826,61.352 75.188,58.59 		"/>
		<polygon fill="#E4CB92" points="79.042,62.306 88.647,98.424 66.086,98.424 		"/>
		<polyline fill="#EDD8A3" points="109.744,66.081 116.19,82.055 107.38,82.055 106.936,65.779 109.561,65.779 		"/>
		
			<rect x="99.926" y="86.828" transform="matrix(-0.9812 -0.1932 0.1932 -0.9812 189.2541 194.3895)" fill="#E1605A" width="8.364" height="2.274"/>
		<rect x="97.554" y="64.611" fill="#767676" width="5.277" height="9.991"/>
		<polygon fill="#E56824" points="112.168,61.352 123.712,67.868 71.392,61.352 		"/>
		<polygon fill="#E56824" points="57.826,61.352 56.636,107.296 66.086,110.101 75.373,72.543 		"/>
		<polygon fill="#EDD8A3" points="71.799,71.97 81.558,71.97 79.209,62.306 70.396,62.306 		"/>
		<polygon fill="#E4CB92" points="79.878,65.057 73.368,65.057 73.913,69.634 80.99,69.634 		"/>
		<polygon fill="#CB5126" points="66.086,110.101 45.639,99.157 64.681,117.528 		"/>
	</g>
	<g>
		<polygon fill="#374249" points="56.051,55.494 112.168,55.494 106.885,26.765 58.71,30.948 		"/>
		<polygon fill="#6B808E" points="56.051,55.494 112.168,55.494 110.569,46.876 56.958,46.066 		"/>
		<polygon fill="#374249" points="48.633,61.352 124.073,61.352 112.168,54.045 56.051,54.045 		"/>
	</g>
	<polygon fill="#FFFFFF" points="97.079,98.424 73.368,98.424 68.432,107.147 102.831,107.147 	"/>
	<g>
		<polygon fill="#FFFFFF" points="86.125,111.626 128.383,99.848 127.664,112.247 91.567,120.915 		"/>
		<polygon fill="#EDD8A3" points="128.263,101.972 138.041,99.289 138.211,108.388 127.771,110.454 		"/>
	</g>
	<g>
		<polygon fill="#374249" points="105.119,107.147 66.241,107.147 56.177,174.153 112.581,174.153 		"/>
		<polygon fill="#374249" points="88.647,148.819 132.14,152.407 132.14,182.394 111.562,182.394 111.632,165.606 88.647,165.606 		
			"/>
		<rect x="111.562" y="182.394" fill="#374249" width="27.703" height="7.332"/>
		<polyline fill="#374249" points="100.192,174.528 100.192,187.442 79.042,187.333 77.51,174.528 100.192,172.944 		"/>
		<rect x="72.312" y="162.276" fill="#374249" width="7.332" height="27.701"/>
	</g>
	<polygon fill="#CD2E3B" points="84.375,174.153 56.177,174.153 66.241,107.147 84.375,107.147 	"/>
	<g>
		<polygon fill="#FFFFFF" points="83.629,111.952 126.047,123.147 119.159,133.481 83.629,122.718 		"/>
		<polygon fill="#EDD8A3" points="124.867,124.917 134.664,127.544 130.214,135.481 120.159,131.985 		"/>
		<polyline fill="#E1BE73" points="130.214,135.481 136.219,133.481 139.265,127.925 134.664,127.544 130.214,134.649 		"/>
	</g>
	<rect x="134.664" y="82.055" fill="#A75B25" width="11.071" height="31.468"/>
	<rect x="134.664" y="82.055" fill="#B76F31" width="5.54" height="31.468"/>
	<polygon fill="#E4CB92" points="134.664,113.522 140.204,113.522 140.204,118.274 	"/>
	<polyline fill="#D3B476" points="140.196,118.274 145.735,113.522 140.196,113.522 	"/>
	<polygon fill="#636363" points="137.432,115.897 140.204,115.897 140.204,118.274 	"/>
	<polyline fill="#1C1C1B" points="140.204,118.274 142.972,115.897 140.204,115.897 	"/>
	<rect x="134.664" y="84.683" fill="#A8A8A7" width="5.54" height="2.088"/>
	<rect x="140.196" y="84.683" fill="#818182" width="5.539" height="2.088"/>
	<rect x="134.664" y="82.055" fill="#E8D12B" width="5.54" height="2.628"/>
	<rect x="140.196" y="82.055" fill="#E9A62B" width="5.539" height="2.628"/>
	<g>
		<polygon fill="#B69D71" points="168.232,139.896 125.669,138.573 138.611,122.718 181.177,124.038 		"/>
		<polygon fill="#FFFFFF" points="165.468,138.292 130.852,137.216 141.373,124.321 175.994,125.396 		"/>
		<polygon fill="#565656" points="173.979,132.644 167.354,132.437 169.367,129.968 175.994,130.175 		"/>
	</g>
</g>
</svg>
