<?xml version="1.0" encoding="utf-8"?>
<!-- Generator: Adobe Illustrator 16.0.0, SVG Export Plug-In . SVG Version: 6.00 Build 0)  -->
<!DOCTYPE svg PUBLIC "-//W3C//DTD SVG 1.1//EN" "http://www.w3.org/Graphics/SVG/1.1/DTD/svg11.dtd">
<svg version="1.1" id="圖層_1" xmlns="http://www.w3.org/2000/svg" xmlns:xlink="http://www.w3.org/1999/xlink" x="0px" y="0px"
	 width="185px" height="212px" viewBox="0 0 185 212" enable-background="new 0 0 185 212" xml:space="preserve">
<g>
	<polygon fill="#BAC55E" points="92.859,211.25 1.166,158.312 1.167,53.098 92.859,106.036 	"/>
	<polygon fill="#ADBE4B" points="91.584,211.575 183.275,158.639 183.275,53.423 91.584,106.36 	"/>
	<polygon fill="#88A750" points="92.146,181.215 27.008,143.607 27.009,96.122 92.146,133.16 	"/>
	<polygon fill="#6E9C30" points="92.147,181.215 157.285,143.607 157.283,95.69 92.147,133.16 	"/>
	<polygon fill="#95B053" points="91.943,58.317 91.943,133.061 92.146,133.178 156.879,95.807 	"/>
	<polygon fill="#A4BA63" points="92.043,58.317 92.043,133.061 91.842,133.178 27.11,95.807 	"/>
	<polygon fill="#BBCD5E" points="92.435,106.295 0.741,53.357 91.861,0.75 183.555,53.688 	"/>
</g>
<g>
	<path fill="#637F26" d="M137.466,58.672c-7.465-8.337-17.33-16.073-41.715-16.244c-9.527-0.076-24.071,2.177-35.387,14.144
		c-6.847,7.226-11.884,16.355-10.452,31.278c0.312,3.239,4.934,6.985,1.686,13.233c0,0-6.979,12.28-6.733,14.325
		c0,0-0.123,3.734,5.657,3.853c0,0,1.443,0.187,1.027,3.37l-0.069,4.643c0,0,0.184,1.381,2.713,2.221c0,0,0.481,0.48-0.237,1.39
		c0,0-1.33,1.485,0.961,4.692c0.848,1.168,2.227,2.642,1.384,5.664c0,0-1.083,5.828,1.204,7.225c0,0,2.601,3.087,13.066,1.795
		c3.66-0.45,10.414-2.219,14.439,2.836c0,0,9.626,18.292,10.357,22.617c0,0,16.429-29.245,36.478-33.76
		c0,0-4.885-11.017,5.055-25.28c0,0,12.455-16.431,12.825-25.457C149.716,91.212,153.001,76.001,137.466,58.672z M77.936,76.763
		c-0.712,0.259-1.186,0.937-1.193,1.691l-0.077,8.5c-14.306-0.841-14.177-7.141-12.94-15.15c0.983-6.361,5.931-11.582,13.219-14.91
		l-0.083,9.521c-0.007,0.754,0.456,1.435,1.16,1.709c0.703,0.275,1.497,0.079,2.009-0.486c1.419-1.597,3.411-2.507,5.491-2.507
		c0.023,0,0.041,0,0.062,0c4.061,0.037,7.338,3.376,7.306,7.444c-0.04,4.045-3.346,7.32-7.379,7.32c-0.025,0-0.046,0-0.065,0
		c-2.098-0.018-4.104-0.965-5.5-2.597C79.437,76.713,78.635,76.507,77.936,76.763z M121.843,99.354
		c-3.082-0.31-6.221-1.151-9.098-2.387c-7.5-3.217-9.572-11.767-21.356-10.559c-4.339,0.446-7.965,0.629-11.109,0.638l0.048-4.844
		c1.551,0.834,3.28,1.294,5.064,1.313c0.032,0,0.06,0,0.087,0c6.017,0,10.95-4.874,11.004-10.912
		c0.055-6.068-4.838-11.046-10.9-11.102c-1.722,0.007-3.525,0.418-5.083,1.225l0.069-7.283c5.896-1.99,12.92-2.889,20.485-2.346
		c7.777,0.547,15.058,2.851,21.146,6.334l-0.037,3.646c-1.553-0.836-3.281-1.298-5.068-1.312
		c-5.961,0.079-11.032,4.844-11.104,10.909c-0.025,2.944,1.102,5.714,3.156,7.814c2.061,2.094,4.811,3.263,7.756,3.284
		c1.848-0.049,3.523-0.413,5.079-1.225L121.843,99.354z M125.468,99.45l0.185-20.583c0.009-0.754-0.459-1.435-1.159-1.707
		c-0.699-0.272-1.496-0.081-2.01,0.485c-1.436,1.61-3.38,2.43-5.542,2.501c-1.968-0.014-3.815-0.801-5.194-2.2
		c-1.387-1.408-2.138-3.263-2.119-5.232c0.045-4.05,3.345-7.324,7.377-7.324c0.021,0,0.047,0,0.067,0
		c2.134,0.017,4.087,0.941,5.507,2.598c0.486,0.578,1.287,0.779,1.995,0.529c0.714-0.256,1.188-0.931,1.194-1.685l0.051-5.091
		c7.18,5.134,12.076,12.11,12.998,19.855C140.308,94.192,133.611,99.054,125.468,99.45z"/>
</g>
<g>
	<path fill="#FAFFF3" d="M133.992,55.897c-7.467-8.337-17.33-16.073-41.716-16.244c-9.527-0.076-24.071,2.177-35.387,14.144
		c-6.848,7.226-11.884,16.355-10.452,31.277c0.312,3.239,4.934,6.985,1.685,13.233c0,0-6.978,12.281-6.733,14.325
		c0,0-0.124,3.735,5.657,3.853c0,0,1.443,0.188,1.027,3.371l-0.069,4.643c0,0,0.184,1.381,2.713,2.22c0,0,0.481,0.481-0.237,1.39
		c0,0-1.33,1.485,0.961,4.692c0.848,1.169,2.227,2.642,1.384,5.665c0,0-1.083,5.828,1.204,7.225c0,0,2.601,3.086,13.067,1.795
		c3.66-0.45,10.413-2.219,14.438,2.836c0,0,9.626,18.291,10.358,22.617c0,0,16.428-29.246,36.479-33.76
		c0,0-4.887-11.017,5.054-25.281c0,0,12.454-16.432,12.823-25.458C146.241,88.438,149.525,73.227,133.992,55.897z M74.46,73.988
		c-0.712,0.259-1.186,0.937-1.193,1.691l-0.077,8.5c-14.306-0.841-14.177-7.141-12.94-15.15c0.983-6.361,5.931-11.582,13.219-14.911
		l-0.083,9.522c-0.007,0.753,0.456,1.434,1.16,1.708c0.703,0.275,1.497,0.079,2.009-0.486c1.42-1.597,3.412-2.507,5.492-2.507
		c0.023,0,0.04,0,0.062,0c4.061,0.037,7.338,3.376,7.306,7.444c-0.041,4.045-3.345,7.32-7.378,7.32c-0.025,0-0.046,0-0.065,0
		c-2.098-0.018-4.104-0.965-5.5-2.597C75.961,73.938,75.159,73.731,74.46,73.988z M118.368,96.579
		c-3.081-0.31-6.222-1.151-9.097-2.387c-7.5-3.217-9.573-11.767-21.358-10.559c-4.339,0.446-7.965,0.629-11.109,0.638l0.048-4.844
		c1.551,0.834,3.28,1.294,5.064,1.313c0.032,0,0.061,0,0.087,0c6.017,0,10.953-4.874,11.007-10.912
		c0.053-6.068-4.841-11.046-10.902-11.102c-1.723,0.007-3.525,0.418-5.083,1.225l0.069-7.283c5.895-1.99,12.921-2.889,20.484-2.346
		c7.777,0.547,15.059,2.851,21.148,6.334l-0.039,3.646c-1.551-0.836-3.279-1.297-5.065-1.312
		c-5.963,0.079-11.034,4.844-11.104,10.909c-0.026,2.944,1.103,5.714,3.156,7.814c2.059,2.094,4.811,3.263,7.756,3.284
		c1.848-0.049,3.522-0.413,5.078-1.225L118.368,96.579z M121.992,96.675l0.186-20.583c0.01-0.754-0.457-1.435-1.158-1.707
		c-0.701-0.272-1.496-0.081-2.011,0.485c-1.435,1.61-3.381,2.43-5.541,2.501c-1.969-0.014-3.815-0.801-5.194-2.2
		c-1.387-1.408-2.137-3.263-2.121-5.231c0.047-4.051,3.346-7.324,7.379-7.324c0.021,0,0.047,0,0.068,0
		c2.133,0.017,4.086,0.941,5.504,2.598c0.487,0.578,1.289,0.779,1.998,0.529c0.713-0.256,1.188-0.931,1.193-1.685l0.051-5.091
		c7.178,5.134,12.075,12.111,12.997,19.855C136.833,91.417,130.137,96.279,121.992,96.675z"/>
</g>
</svg>
