<?xml version="1.0" encoding="utf-8"?>
<!-- Generator: Adobe Illustrator 16.0.0, SVG Export Plug-In . SVG Version: 6.00 Build 0)  -->
<!DOCTYPE svg PUBLIC "-//W3C//DTD SVG 1.1//EN" "http://www.w3.org/Graphics/SVG/1.1/DTD/svg11.dtd">
<svg version="1.1" id="圖層_1" xmlns="http://www.w3.org/2000/svg" xmlns:xlink="http://www.w3.org/1999/xlink" x="0px" y="0px"
	 width="185px" height="212px" viewBox="0 0 185 212" enable-background="new 0 0 185 212" xml:space="preserve">
<g>
	<polygon fill="#EEAAB5" points="93.201,212 1.402,159 1.402,53.662 93.201,106.662 	"/>
	<polygon fill="#EC97A2" points="93.201,212 185,159 184.999,53.662 93.201,106.662 	"/>
	<polygon fill="#F27979" points="92.914,181.506 27.699,143.854 27.7,96.311 92.914,133.395 	"/>
	<polygon fill="#E55A61" points="92.914,181.506 158.129,143.854 158.127,95.878 92.914,133.395 	"/>
	<polygon fill="#E6777F" points="92.71,58.462 92.71,133.295 92.914,133.412 157.721,95.996 	"/>
	<polygon fill="#F4979C" points="92.812,58.462 92.812,133.295 92.607,133.412 27.801,95.996 	"/>
	<polygon fill="#F8BDC6" points="93.201,106.497 1.402,53.497 92.627,0.828 184.427,53.828 	"/>
</g>
<g>
	<path fill="#C43345" d="M145.102,60.004c-1.135-1.086-2.725-1.637-4.727-1.637c-7.275,0-19.062,7.41-25.443,11.827l-0.572,0.396
		l-1.139,10.849l-3.787-7.282l-1.438,1.101c-8.043,6.166-16.15,13.395-22.82,20.353c-1.292,1.349-2.558,2.768-3.761,4.217
		l-0.283,0.34l-2.714,21.416l-5.031-10.201l-1.378,2.684c-4.28,8.334-6.283,15.869-7.22,20.98l-2.397-11.959l-2.037,2.791
		c-0.889,1.217-1.727,2.434-2.492,3.617l-0.188,0.287l-1.689,13.334l-2.754-5.586l-1.074,3.811
		c-1.071,3.799-0.946,6.584-0.304,8.611L41.02,160.789c-1.483,1.48-1.483,3.887,0,5.367c0.742,0.74,1.713,1.111,2.685,1.111
		c0.972,0,1.943-0.371,2.685-1.111l10.83-10.828c1.028,0.324,2.171,0.488,3.422,0.488c1.576,0,3.326-0.269,5.198-0.795l3.809-1.074
		l-5.585-2.756l13.333-1.688l0.291-0.188c1.184-0.767,2.401-1.604,3.617-2.492l2.79-2.033l-11.344-2.275
		c2.364-0.432,5.203-1.08,8.365-2.059c8.249-2.553,20.325-7.932,30.987-19.062c0.521-0.543,1.041-1.094,1.56-1.649l1.396-1.492
		l-9.104-4.489l14.628-1.854l0.383-0.459c6.228-7.483,11.905-15.349,16.423-22.746l0.885-1.449l-6.459-3.016l8.918-1.325l0.36-0.677
		C147.184,70.771,148.533,63.291,145.102,60.004z"/>
</g>
<g>
	<path fill="#FDEDF0" d="M142.092,56.697c-1.135-1.086-2.725-1.637-4.727-1.637c-7.275,0-19.062,7.41-25.443,11.827l-0.572,0.396
		l-1.14,10.849l-3.787-7.282l-1.438,1.101c-8.043,6.166-16.147,13.395-22.813,20.353c-1.293,1.349-2.559,2.768-3.761,4.217
		l-0.282,0.34l-2.715,21.413l-5.031-10.194l-1.378,2.685c-4.28,8.327-6.283,15.862-7.22,20.975l-2.397-11.959l-2.037,2.791
		c-0.889,1.219-1.727,2.436-2.492,3.617l-0.188,0.289l-1.689,13.334l-2.754-5.586l-1.074,3.809
		c-1.071,3.801-0.946,6.584-0.304,8.611L38.015,157.48c-1.483,1.481-1.483,3.887,0,5.369c0.742,0.739,1.713,1.11,2.685,1.11
		c0.972,0,1.943-0.371,2.685-1.11l10.83-10.83c1.028,0.326,2.171,0.489,3.422,0.489c1.576,0,3.326-0.268,5.198-0.795l3.809-1.073
		l-5.585-2.757l13.333-1.688l0.291-0.188c1.184-0.766,2.4-1.604,3.617-2.491l2.789-2.035l-11.343-2.273
		c2.364-0.434,5.203-1.08,8.365-2.061c8.247-2.551,20.319-7.931,30.981-19.062c0.521-0.543,1.04-1.094,1.559-1.649l1.396-1.494
		l-9.104-4.484l14.627-1.852l0.384-0.461c6.228-7.486,11.905-15.353,16.423-22.749l0.885-1.449l-6.459-3.016l8.918-1.325l0.36-0.677
		C144.172,67.463,145.521,59.983,142.092,56.697z"/>
</g>
</svg>
