<?xml version="1.0" encoding="utf-8"?>
<!-- Generator: Adobe Illustrator 16.0.0, SVG Export Plug-In . SVG Version: 6.00 Build 0)  -->
<!DOCTYPE svg PUBLIC "-//W3C//DTD SVG 1.1//EN" "http://www.w3.org/Graphics/SVG/1.1/DTD/svg11.dtd">
<svg version="1.1" id="圖層_1" xmlns="http://www.w3.org/2000/svg" xmlns:xlink="http://www.w3.org/1999/xlink" x="0px" y="0px"
	 width="185px" height="212px" viewBox="0 0 185 212" enable-background="new 0 0 185 212" xml:space="preserve">
<g>
	<polygon fill="#EEAAB5" points="93.201,212 1.402,159 1.402,53.662 93.201,106.662 	"/>
	<polygon fill="#EC97A2" points="93.201,212 185,159 184.999,53.662 93.201,106.662 	"/>
	<polygon fill="#F27979" points="92.914,181.506 27.699,143.854 27.7,96.311 92.914,133.395 	"/>
	<polygon fill="#E55A61" points="92.914,181.506 158.129,143.854 158.127,95.878 92.914,133.395 	"/>
	<polygon fill="#E6777F" points="92.71,58.462 92.71,133.295 92.914,133.412 157.721,95.996 	"/>
	<polygon fill="#F4979C" points="92.812,58.462 92.812,133.295 92.607,133.412 27.801,95.996 	"/>
	<polygon fill="#F8BDC6" points="93.201,106.497 1.402,53.497 92.627,0.828 184.427,53.828 	"/>
</g>
<g>
	<path fill="#C43345" d="M89.806,136.201l2.752-1.59c1.122-0.648,1.506-2.082,0.858-3.204l-5.215-9.034
		c-0.434-0.753-1.223-1.174-2.034-1.174c-0.398,0-0.801,0.103-1.171,0.316l-2.752,1.589c-0.378,0.218-0.779,0.317-1.169,0.317
		c-1.226,0-2.349-0.979-2.349-2.349v-3.179c0-1.296-1.051-2.345-2.346-2.345H65.948c-1.295,0-2.346,1.05-2.346,2.345v3.179
		c0,1.369-1.124,2.349-2.349,2.349c-0.391,0-0.791-0.1-1.169-0.317l-2.753-1.589c-0.369-0.214-0.772-0.314-1.17-0.316
		c-0.811,0-1.599,0.421-2.034,1.174l-5.215,9.034c-0.647,1.122-0.263,2.556,0.858,3.204l2.752,1.59c1.564,0.902,1.564,3.16,0,4.062
		l-2.752,1.589c-1.123,0.647-1.506,2.083-0.858,3.204l5.215,9.034c0.435,0.753,1.223,1.174,2.034,1.174
		c0.398,0,0.801-0.102,1.17-0.314l2.753-1.59c0.378-0.219,0.778-0.318,1.169-0.318c1.225,0,2.349,0.98,2.349,2.35v3.178
		c0,1.295,1.05,2.347,2.346,2.347h10.431c1.295,0,2.346-1.052,2.346-2.347v-3.178c0-1.369,1.124-2.35,2.35-2.35
		c0.39,0,0.791,0.1,1.168,0.318l2.753,1.59c0.369,0.213,0.773,0.314,1.171,0.314c0.811,0,1.599-0.421,2.033-1.174l5.215-9.034
		c0.648-1.121,0.264-2.557-0.858-3.204l-2.752-1.589C88.242,139.361,88.242,137.103,89.806,136.201z M71.165,145.191
		c-3.844,0-6.96-3.116-6.96-6.96c0-3.845,3.116-6.96,6.96-6.96c3.843,0,6.959,3.117,6.959,6.96
		C78.124,142.075,75.007,145.191,71.165,145.191L71.165,145.191z"/>
	<path fill="#C43345" d="M84.561,63.837c-1.259-1.258-3.298-1.258-4.557,0c-1.258,1.259-1.258,3.298,0,4.557l5.756,5.756
		c-21.159,1.048-38.287,17.668-40.141,38.61l0.476-0.824c1.363-2.361,3.903-3.827,6.629-3.827c0.057,0,0.115,0.006,0.172,0.008
		c3.63-15.092,16.79-26.505,32.731-27.498l-5.625,5.627c-1.258,1.258-1.258,3.298,0,4.557c0.629,0.628,1.453,0.943,2.278,0.943
		c0.824,0,1.649-0.315,2.278-0.943l11.203-11.204c0.604-0.604,0.943-1.424,0.943-2.278s-0.339-1.673-0.943-2.277L84.561,63.837z"/>
	<path fill="#C43345" d="M121.736,80.319c7.153,0,12.973-5.819,12.973-12.973c0-7.153-5.819-12.974-12.973-12.974
		c-7.154,0-12.975,5.82-12.975,12.974C108.762,74.5,114.582,80.319,121.736,80.319L121.736,80.319z"/>
	<path fill="#C43345" d="M147.009,115.294V97.458c0-4.937-3.173-9.314-7.864-10.851l-0.021-0.008l-6.86-1.135
		c-0.586-0.18-1.21,0.129-1.42,0.706l-7.786,21.363c-0.45,1.232-2.192,1.232-2.642,0l-7.786-21.363
		c-0.17-0.465-0.608-0.757-1.08-0.757c-0.11,0-7.201,1.185-7.201,1.185c-4.729,1.577-7.89,5.962-7.89,10.92v17.776
		c0,2.663,2.16,4.822,4.822,4.822h40.904C144.85,120.117,147.009,117.957,147.009,115.294z"/>
	<path fill="#C43345" d="M147.364,123.595c-0.27,3.687-3.293,5.943-6.981,6.212c-2.826,16.172-16.485,28.66-33.197,29.699
		l5.626-5.625c1.258-1.259,1.258-3.299,0-4.558c-1.26-1.258-3.298-1.258-4.558,0l-11.203,11.204c-1.259,1.259-1.259,3.298,0,4.557
		l11.203,11.203c0.629,0.628,1.453,0.943,2.277,0.943c0.825,0,1.649-0.315,2.277-0.943c1.259-1.259,1.259-3.298,0-4.557
		l-5.756-5.757C129.469,164.866,147.364,146.28,147.364,123.595L147.364,123.595z"/>
	<path fill="#C43345" d="M124.562,85.22c-0.298-0.327-0.736-0.489-1.178-0.489h-3.298c-0.442,0-0.881,0.163-1.179,0.489
		c-0.464,0.504-0.531,1.233-0.202,1.802l1.762,2.658l-0.824,6.964l1.627,4.323c0.157,0.435,0.773,0.435,0.932,0l1.626-4.323
		l-0.825-6.964l1.764-2.658C125.093,86.453,125.026,85.724,124.562,85.22z"/>
</g>
<g>
	<path fill="#FFFFFF" d="M86.88,135.486l2.752-1.589c1.122-0.649,1.506-2.083,0.858-3.205l-5.215-9.034
		c-0.435-0.752-1.224-1.174-2.033-1.174c-0.398,0-0.801,0.103-1.171,0.316l-2.752,1.589c-0.378,0.218-0.779,0.317-1.169,0.317
		c-1.226,0-2.349-0.979-2.349-2.349v-3.179c0-1.296-1.051-2.345-2.346-2.345H63.023c-1.295,0-2.346,1.051-2.346,2.345v3.179
		c0,1.369-1.124,2.349-2.349,2.349c-0.391,0-0.792-0.1-1.169-0.317l-2.753-1.589c-0.369-0.214-0.773-0.314-1.17-0.316
		c-0.811,0-1.599,0.422-2.034,1.174l-5.215,9.034c-0.648,1.122-0.264,2.556,0.858,3.205l2.752,1.589c1.564,0.903,1.564,3.16,0,4.062
		l-2.752,1.589c-1.123,0.648-1.506,2.083-0.858,3.205l5.215,9.034c0.435,0.753,1.223,1.173,2.034,1.173
		c0.398,0,0.801-0.101,1.17-0.314l2.753-1.59c0.377-0.22,0.778-0.318,1.169-0.318c1.225,0,2.349,0.98,2.349,2.35v3.179
		c0,1.295,1.05,2.345,2.346,2.345h10.431c1.295,0,2.346-1.05,2.346-2.345v-3.179c0-1.369,1.124-2.35,2.35-2.35
		c0.39,0,0.791,0.099,1.168,0.318l2.753,1.59c0.369,0.214,0.773,0.314,1.171,0.314c0.811,0,1.599-0.421,2.034-1.173l5.215-9.034
		c0.647-1.122,0.263-2.557-0.859-3.205l-2.753-1.589C85.315,138.646,85.315,136.389,86.88,135.486z M68.239,144.479
		c-3.844,0-6.959-3.117-6.959-6.961s3.117-6.96,6.959-6.96c3.843,0,6.96,3.116,6.96,6.96
		C75.199,141.36,72.082,144.479,68.239,144.479L68.239,144.479z"/>
	<path fill="#FFFFFF" d="M81.636,63.127c-1.259-1.258-3.298-1.258-4.556,0c-1.258,1.259-1.258,3.298,0,4.557l5.756,5.756
		c-21.159,1.048-38.288,17.668-40.141,38.61l0.476-0.824c1.363-2.36,3.903-3.826,6.629-3.826c0.058,0,0.115,0.005,0.172,0.007
		c3.629-15.092,16.789-26.505,32.731-27.498l-5.625,5.626c-1.258,1.258-1.258,3.298,0,4.557c0.629,0.628,1.453,0.943,2.278,0.943
		c0.825,0,1.649-0.314,2.278-0.943l11.204-11.205c0.604-0.604,0.944-1.423,0.944-2.278s-0.34-1.673-0.944-2.277L81.636,63.127z"/>
	<path fill="#FFFFFF" d="M118.811,79.608c7.152,0,12.973-5.819,12.973-12.973s-5.82-12.974-12.973-12.974
		c-7.154,0-12.975,5.82-12.975,12.974S111.656,79.608,118.811,79.608L118.811,79.608z"/>
	<path fill="#FFFFFF" d="M144.084,114.58V96.747c0-4.937-3.174-9.314-7.864-10.851l-0.022-0.008l-6.861-1.135
		c-0.585-0.18-1.21,0.129-1.419,0.706l-7.786,21.364c-0.449,1.231-2.192,1.231-2.642,0l-7.785-21.364
		c-0.171-0.465-0.609-0.757-1.081-0.757c-0.11,0-7.2,1.185-7.2,1.185c-4.729,1.577-7.89,5.962-7.89,10.919v17.773
		c0,2.663,2.16,4.822,4.822,4.822h40.903C141.925,119.402,144.084,117.242,144.084,114.58z"/>
	<path fill="#FFFFFF" d="M144.44,122.881c-0.27,3.685-3.294,5.943-6.982,6.21c-2.826,16.173-16.485,28.662-33.198,29.7l5.627-5.625
		c1.257-1.26,1.257-3.3,0-4.558c-1.26-1.258-3.299-1.258-4.558,0l-11.203,11.203c-1.259,1.26-1.259,3.299,0,4.558l11.203,11.203
		c0.628,0.628,1.452,0.943,2.276,0.943c0.825,0,1.65-0.315,2.278-0.943c1.259-1.258,1.259-3.298,0-4.557l-5.756-5.757
		C126.544,164.15,144.44,145.565,144.44,122.881L144.44,122.881z"/>
	<path fill="#FFFFFF" d="M121.638,84.509c-0.299-0.326-0.737-0.489-1.179-0.489h-3.298c-0.441,0-0.88,0.163-1.179,0.489
		c-0.463,0.504-0.531,1.233-0.201,1.802l1.762,2.658l-0.825,6.963l1.627,4.323c0.157,0.435,0.772,0.435,0.932,0l1.625-4.323
		l-0.824-6.963l1.764-2.658C122.167,85.743,122.102,85.013,121.638,84.509z"/>
</g>
</svg>
