<?xml version="1.0" encoding="utf-8"?>
<!-- Generator: Adobe Illustrator 16.0.0, SVG Export Plug-In . SVG Version: 6.00 Build 0)  -->
<!DOCTYPE svg PUBLIC "-//W3C//DTD SVG 1.1//EN" "http://www.w3.org/Graphics/SVG/1.1/DTD/svg11.dtd">
<svg version="1.1" id="圖層_1" xmlns="http://www.w3.org/2000/svg" xmlns:xlink="http://www.w3.org/1999/xlink" x="0px" y="0px"
	 width="185px" height="212px" viewBox="0 0 185 212" enable-background="new 0 0 185 212" xml:space="preserve">
<g>
	<polygon fill="#5FA5C3" points="92.713,211.375 0.914,158.373 0.914,53.034 92.713,106.035 	"/>
	<polygon fill="#5D9DBC" points="92.287,211.375 184.087,158.373 184.087,53.034 92.287,106.035 	"/>
	<polygon fill="#2684B9" points="92.426,181.303 27.212,143.65 27.213,96.108 92.426,133.191 	"/>
	<polygon fill="#1C75A8" points="92.427,181.303 157.641,143.65 157.639,95.676 92.427,133.191 	"/>
	<polygon fill="#3CA5C1" points="92.222,58.26 92.222,133.092 92.426,133.209 157.232,95.793 	"/>
	<polygon fill="#3BAAD2" points="92.322,58.686 92.322,133.518 92.119,133.635 27.314,96.218 	"/>
	<polygon fill="#64ABC4" points="92.713,106.294 0.914,53.294 92.14,0.625 183.939,53.625 	"/>
</g>
<g>
	<path fill="#144784" d="M76.477,88.75c2.762,3.359,5.188,6.843,7.415,10.652c0.104,0.179,0.279,0.304,0.48,0.352
		c0.125,0.028,0.256,0.021,0.378-0.016c0.073-0.023,0.143-0.056,0.207-0.102l9.803-6.689c0.171-0.118,0.284-0.303,0.313-0.509
		c0.029-0.208-0.03-0.417-0.163-0.578l-1.123-1.357c-5.501-6.636-12.553-12.723-21.553-18.607
		c-4.268-2.803-8.967-5.475-13.968-7.942c-4.369-2.156-8.333-3.881-12.121-5.273c-0.366-0.136-0.773,0.038-0.933,0.394
		c-0.346,0.772-1.062,2.4-1.062,2.4c-0.155,0.355-0.016,0.767,0.323,0.952c0.001,0,0.402,0.22,0.522,0.288
		c0.418,0.24,0.834,0.485,1.251,0.732c0.811,0.482,1.63,0.986,2.507,1.544c2.008,1.272,4.092,2.678,6.194,4.175
		c4.306,3.073,8.343,6.331,12.001,9.679c0.271,0.247,0.532,0.49,0.795,0.737l-30.497,36.613c-1.574,1.889-1.317,4.695,0.573,6.268
		c1.201,0.998,2.769,1.262,4.158,0.834c0.8-0.242,1.54-0.715,2.113-1.404l29.948-35.955C74.895,86.876,75.708,87.813,76.477,88.75z"
		/>
	<polygon fill="#144784" points="116.263,123.281 97.15,134.665 72.715,158.219 150.8,158.219 150.8,80.888 133.552,90.857 	"/>
	<polygon fill="#144784" points="76.307,118.568 65.378,114.948 64.406,120.259 67.039,128.501 75.278,125.867 	"/>
	<polygon fill="#144784" points="61.876,141.909 69.595,145.816 73.943,142.828 72.403,132.764 62.811,134.363 	"/>
	<polygon fill="#144784" points="93.314,109.56 87.673,110.5 87.123,114.934 91.662,117.229 94.222,115.475 	"/>
	<polygon fill="#144784" points="100.326,107.07 98.924,113.214 101.805,115.759 108.65,112.901 105.828,106.405 	"/>
	<polygon fill="#144784" points="88.308,122.258 87.992,124.792 90.583,126.102 92.043,125.098 91.526,121.723 	"/>
	<polygon fill="#144784" points="79.223,126.993 81.286,129.523 83.642,128.542 83.494,125.643 81.902,124.871 	"/>
</g>
<g>
	<path fill="#EEFBFF" d="M76.166,85.762c2.763,3.36,5.188,6.843,7.414,10.653c0.105,0.179,0.28,0.304,0.481,0.351
		c0.126,0.027,0.256,0.021,0.377-0.015c0.073-0.022,0.143-0.056,0.207-0.103l9.806-6.689c0.173-0.118,0.287-0.302,0.314-0.509
		c0.03-0.207-0.027-0.416-0.16-0.578l-1.126-1.357c-5.504-6.638-12.556-12.724-21.557-18.608c-4.265-2.802-8.966-5.475-13.967-7.942
		c-4.368-2.157-8.332-3.882-12.12-5.273c-0.367-0.136-0.773,0.037-0.935,0.395c-0.345,0.772-1.061,2.4-1.061,2.4
		c-0.156,0.354-0.016,0.766,0.323,0.95c0,0,0.402,0.221,0.521,0.29c0.419,0.239,0.835,0.484,1.251,0.733
		c0.811,0.481,1.632,0.986,2.508,1.543c2.009,1.272,4.093,2.676,6.194,4.175c4.305,3.074,8.343,6.329,12,9.678
		c0.271,0.248,0.531,0.492,0.794,0.737l-30.498,36.621c-1.573,1.889-1.317,4.695,0.574,6.266c1.199,0.998,2.768,1.264,4.158,0.834
		c0.798-0.242,1.538-0.713,2.112-1.406l29.95-35.959C74.583,83.888,75.396,84.825,76.166,85.762z"/>
	<polygon fill="#EEFBFF" points="113.583,120.077 94.468,131.462 70.032,155.015 148.122,155.015 148.122,77.678 130.873,87.646 	
		"/>
	<polygon fill="#EEFBFF" points="73.839,115.471 62.91,111.849 61.939,117.161 64.572,125.405 72.811,122.771 	"/>
	<polygon fill="#EEFBFF" points="59.408,138.813 67.128,142.72 71.475,139.732 69.936,129.669 60.344,131.268 	"/>
	<polygon fill="#EEFBFF" points="90.848,106.458 85.205,107.396 84.655,111.834 89.194,114.13 91.757,112.374 	"/>
	<polygon fill="#EEFBFF" points="97.862,103.967 96.462,110.114 99.341,112.66 106.185,109.802 103.364,103.302 	"/>
	<polygon fill="#EEFBFF" points="85.841,119.16 85.525,121.698 88.116,123.007 89.576,122.005 89.057,118.626 	"/>
	<polygon fill="#EEFBFF" points="76.755,123.897 78.818,126.429 81.175,125.446 81.027,122.546 79.434,121.775 	"/>
</g>
</svg>
