<?xml version="1.0" encoding="utf-8"?>
<!-- Generator: Adobe Illustrator 16.0.0, SVG Export Plug-In . SVG Version: 6.00 Build 0)  -->
<!DOCTYPE svg PUBLIC "-//W3C//DTD SVG 1.1//EN" "http://www.w3.org/Graphics/SVG/1.1/DTD/svg11.dtd">
<svg version="1.1" id="圖層_1" xmlns="http://www.w3.org/2000/svg" xmlns:xlink="http://www.w3.org/1999/xlink" x="0px" y="0px"
	 width="185px" height="212px" viewBox="0 0 185 212" enable-background="new 0 0 185 212" xml:space="preserve">
<g>
	<polygon fill="#E9B86B" points="92.229,210.731 0.43,157.743 0.43,52.409 92.229,105.406 	"/>
	<polygon fill="#E7B255" points="92.229,210.731 184.027,157.743 184.027,52.409 92.229,105.406 	"/>
	<polygon fill="#F1A72E" points="91.941,180.235 26.728,142.597 26.729,95.058 91.941,132.138 	"/>
	<polygon fill="#DB8E26" points="91.942,180.235 157.156,142.597 157.154,94.625 91.942,132.138 	"/>
	<polygon fill="#EAA046" points="91.738,57.209 91.738,132.038 91.941,132.155 156.748,94.743 	"/>
	<polygon fill="#F1AD63" points="91.84,57.209 91.84,132.038 91.636,132.155 26.829,94.743 	"/>
	<polygon fill="#F5C371" points="92.229,105.241 0.43,52.244 91.655,-0.425 183.455,52.575 	"/>
</g>
<g>
	<path fill="#FFFFFF" d="M22.948,118.449c-0.027,0.627-0.046,1.255-0.046,1.89c0,17.265,10.156,31.26,22.684,31.26
		c12.526,0,22.681-13.995,22.681-31.26c0-0.635-0.017-1.263-0.044-1.89H22.948z"/>
	<rect x="43.023" y="145.414" fill="#FFFFFF" width="5.122" height="32.43"/>
	<ellipse fill="#FFFFFF" cx="45.768" cy="178.332" rx="12.988" ry="3.902"/>
</g>
<g>
	<g>
		<polygon fill="#EDD8A3" points="132.44,116.934 79.905,116.934 79.905,56.857 144.358,56.857 		"/>
		<polygon fill="#876727" points="116.102,71.391 132.44,116.934 142.863,70.189 120.964,66.709 		"/>
		<polygon fill="#E4CB92" points="116.102,71.391 103.993,116.934 132.44,116.934 		"/>
		<polygon fill="#EDD8A3" points="125.235,83.581 112.929,83.581 115.891,71.391 127.006,71.391 		"/>
		<polygon fill="#E4CB92" points="115.047,74.862 123.258,74.862 122.574,80.632 113.645,80.632 		"/>
		<polyline fill="#EDD8A3" points="77.387,76.153 69.256,96.296 80.371,96.296 80.928,75.772 77.613,75.772 		"/>
		
			<rect x="79.22" y="102.316" transform="matrix(0.9811 -0.1933 0.1933 0.9811 -18.4574 18.2857)" fill="#E1605A" width="10.553" height="2.865"/>
		<rect x="86.103" y="74.298" fill="#767676" width="6.656" height="12.601"/>
		<polygon fill="#876727" points="74.329,70.189 59.772,78.406 125.746,70.189 		"/>
	</g>
	<g>
		<polygon fill="#374249" points="145.103,62.803 74.329,62.803 80.995,26.57 141.743,31.845 		"/>
		<polygon fill="#6B808E" points="145.103,62.803 74.329,62.803 76.341,51.933 143.953,50.911 		"/>
		<polygon fill="#374249" points="154.452,70.189 59.314,70.189 74.329,60.974 145.103,60.974 		"/>
	</g>
	<polygon fill="#FFFFFF" points="93.363,116.934 123.258,116.934 129.482,127.935 86.103,127.935 	"/>
	<g>
		<polygon fill="#374249" points="83.218,127.935 132.246,127.935 144.943,212.425 73.812,212.425 		"/>
	</g>
	<polygon fill="#9A6A27" points="109.375,212.425 144.943,212.425 132.246,127.935 109.375,127.935 	"/>
	<g>
		<polygon fill="#FFFFFF" points="110.317,133.994 56.823,148.111 65.512,161.135 110.317,147.569 		"/>
		<polygon fill="#EDD8A3" points="58.313,150.342 45.961,153.648 51.571,163.657 64.256,159.247 		"/>
		<polyline fill="#E1BE73" points="51.571,163.657 44.002,161.135 40.156,148.363 45.961,153.648 51.571,162.607 		"/>
	</g>
</g>
</svg>
