<?xml version="1.0" encoding="utf-8"?>
<!-- Generator: Adobe Illustrator 16.0.0, SVG Export Plug-In . SVG Version: 6.00 Build 0)  -->
<!DOCTYPE svg PUBLIC "-//W3C//DTD SVG 1.1//EN" "http://www.w3.org/Graphics/SVG/1.1/DTD/svg11.dtd">
<svg version="1.1" id="圖層_1" xmlns="http://www.w3.org/2000/svg" xmlns:xlink="http://www.w3.org/1999/xlink" x="0px" y="0px"
	 width="185px" height="212px" viewBox="0 0 185 212" enable-background="new 0 0 185 212" xml:space="preserve">
<g>
	<polygon fill="#DDADCF" points="92.49,211.089 0.691,158.089 0.691,52.75 92.49,105.75 	"/>
	<polygon fill="#D49AC2" points="92.065,211.514 183.864,158.514 183.863,53.176 92.065,106.176 	"/>
	<polygon fill="#CA72AB" points="92.203,181.02 26.989,143.367 26.989,95.825 92.203,132.908 	"/>
	<polygon fill="#C5589C" points="92.204,181.02 157.418,143.367 157.416,95.392 92.204,132.908 	"/>
	<polygon fill="#D084B5" points="91.999,57.976 91.999,132.809 92.203,132.926 157.01,95.51 	"/>
	<polygon fill="#D896C0" points="92.101,57.976 92.101,132.809 91.897,132.926 27.09,95.51 	"/>
	<polygon fill="#E9B5D2" points="92.49,106.01 0.691,53.01 91.917,0.341 183.716,53.341 	"/>
</g>
<g>
	<path fill="#A04384" d="M136.043,153.498h-19.462L91.292,124.49H75.549v29.008H59.187V66.6c13.76,0,27.52,0.124,41.279,0.124
		c20.454,0.124,31.239,13.76,31.239,28.76c0,11.9-5.455,23.925-21.941,27.271l26.279,29.627V153.498z M75.549,81.971v27.767h24.917
		c10.413,0,14.876-6.941,14.876-13.883s-4.587-13.884-14.876-13.884H75.549z"/>
</g>
<g>
	<path fill="#FDF1F6" d="M132.043,151.498h-19.462L87.292,122.49H71.549v29.008H55.187V64.6c13.76,0,27.52,0.124,41.279,0.124
		c20.454,0.124,31.239,13.76,31.239,28.76c0,11.9-5.455,23.925-21.941,27.271l26.279,29.627V151.498z M71.549,79.971v27.767h24.917
		c10.413,0,14.876-6.941,14.876-13.883s-4.587-13.884-14.876-13.884H71.549z"/>
</g>
</svg>
