<?xml version="1.0" encoding="utf-8"?>
<!-- Generator: Adobe Illustrator 14.0.0, SVG Export Plug-In . SVG Version: 6.00 Build 43363)  -->
<!DOCTYPE svg PUBLIC "-//W3C//DTD SVG 1.1//EN" "http://www.w3.org/Graphics/SVG/1.1/DTD/svg11.dtd">
<svg version="1.1" xmlns="http://www.w3.org/2000/svg" xmlns:xlink="http://www.w3.org/1999/xlink" x="0px" y="0px" width="185px"
	 height="212px" viewBox="0 0 185 212" enable-background="new 0 0 185 212" xml:space="preserve">
<g id="圖層_1">
	<g>
		<path fill="#A18DCE" d="M92.913,211.01L1.402,158.175V53.166L92.913,106V211.01z"/>
		<path fill="#937BC9" d="M92.913,211.01l91.514-52.835V53.166L92.913,106V211.01z"/>
		<path fill="#7961AF" d="M92.627,180.609l-65.009-37.533V95.682l65.009,36.966V180.609z"/>
		<path fill="#6C51A8" d="M92.627,180.609l65.014-37.533l-0.002-47.826l-65.012,37.398V180.609z"/>
		<path fill="#7C62B2" d="M92.424,57.952v74.599l0.203,0.116l64.605-37.299L92.424,57.952z"/>
		<path fill="#8B76B7" d="M92.525,57.952v74.599l-0.203,0.116L27.719,95.368L92.525,57.952z"/>
		<path fill="#AC9BD1" d="M92.913,105.835L1.402,53.001L92.341,0.497l91.515,52.834L92.913,105.835z"/>
	</g>
</g>
<g id="圖層_2">
	<g>
		<g>
			<g>
				<path fill="#301130" d="M158.478,123.693c-0.889-2.437-2.784-4.322-5.195-5.175c-2.412-0.852-5.049-0.586-7.234,0.73
					l-21.172,12.703l-2.912,1.247h-15.276c-0.188,0-0.293-0.104-0.348-0.191c-0.055-0.089-0.103-0.229-0.02-0.396
					c0.049-0.097,0.129-0.168,0.229-0.204l11.593-4.143c4.485-1.509,7.057-6.097,5.854-10.459c-0.631-2.289-2.13-4.163-4.218-5.274
					c-2.059-1.096-4.504-1.3-6.709-0.562l-11.961,3.985l-31.412,2.096c-2.063,0.138-4.002,1.018-5.463,2.479l-17.086,17.086
					c-3.278,3.277-3.582,8.478-0.692,11.836c0.764,0.89,4.056,4.043,8.991,8.754c2.875,2.746,5.592,5.34,6.881,6.63
					c0.395,0.395,0.915,0.594,1.437,0.594c0.46,0,0.922-0.155,1.3-0.471l9.385-7.821c1.967-1.639,4.461-2.542,7.022-2.542h32.128
					c1.165,0,2.297-0.231,3.365-0.69l15.165-6.499c0.042-0.017,0.084-0.036,0.124-0.058l0.77-0.393
					c0.041-0.021,0.081-0.045,0.12-0.068l21.475-12.885C158.243,131.83,159.865,127.494,158.478,123.693L158.478,123.693z
					 M152.528,130.52l-21.416,12.85l-0.646,0.331l-15.1,6.473c-0.562,0.239-1.154,0.361-1.766,0.361H81.473
					c-3.51,0-6.927,1.237-9.623,3.484l-7.973,6.644c-1.457-1.415-3.497-3.363-5.624-5.392c-3.576-3.416-8.026-7.664-8.716-8.467
					c-1.487-1.728-1.27-4.561,0.484-6.314l17.086-17.087c0.765-0.764,1.78-1.226,2.861-1.298l31.67-2.111
					c0.174-0.012,0.344-0.045,0.507-0.1l12.212-4.071c0.468-0.154,0.945-0.232,1.421-0.232c0.721,0,1.434,0.178,2.092,0.527
					c1.092,0.583,1.878,1.565,2.209,2.77c0.62,2.247-0.835,4.728-3.244,5.531c-0.014,0.003-0.026,0.01-0.04,0.014l-11.612,4.15
					c-1.102,0.394-1.991,1.188-2.508,2.236c-0.687,1.396-0.605,3.016,0.217,4.336c0.821,1.319,2.24,2.107,3.796,2.107h15.692
					c0.276,0,0.549-0.056,0.802-0.162l3.421-1.468c0.085-0.036,0.167-0.078,0.245-0.125l21.292-12.774
					c1.145-0.69,2.524-0.829,3.788-0.381c1.283,0.453,2.254,1.425,2.732,2.736C155.37,127.03,154.454,129.365,152.528,130.52
					L152.528,130.52z"/>
				<path fill="#301130" d="M118.011,104.761c17.849,0,32.367-14.52,32.367-32.367c0-17.848-14.519-32.367-32.367-32.367
					c-17.847,0-32.366,14.519-32.366,32.367C85.645,90.241,100.164,104.761,118.011,104.761z M118.011,44.09
					c15.608,0,28.304,12.697,28.304,28.304s-12.695,28.304-28.304,28.304c-15.606,0-28.302-12.697-28.302-28.304
					S102.404,44.09,118.011,44.09z"/>
				<path fill="#301130" d="M107.043,79.978c0-1.122-0.91-2.031-2.032-2.031s-2.032,0.909-2.032,2.031
					c0,3.928,3.508,7.233,8.668,8.74v1.011c0,1.122,0.91,2.031,2.031,2.031c1.123,0,2.032-0.909,2.032-2.031v-0.243
					c0.748,0.07,1.517,0.107,2.301,0.107s1.553-0.037,2.303-0.107v0.243c0,1.122,0.91,2.031,2.032,2.031
					c1.121,0,2.03-0.909,2.03-2.031v-1.011c5.162-1.507,8.668-4.812,8.668-8.74c0-3.928-3.506-7.233-8.668-8.74V60.343
					c2.865,1.09,4.604,2.835,4.604,4.467c0,1.122,0.91,2.032,2.031,2.032c1.123,0,2.032-0.91,2.032-2.032
					c0-3.927-3.506-7.233-8.668-8.74v-1.011c0-1.121-0.909-2.031-2.03-2.031c-1.122,0-2.032,0.91-2.032,2.031v0.244
					c-0.75-0.071-1.519-0.108-2.303-0.108s-1.553,0.037-2.301,0.108v-0.244c0-1.121-0.909-2.031-2.032-2.031
					c-1.121,0-2.031,0.91-2.031,2.031v1.011c-5.16,1.507-8.668,4.813-8.668,8.74c0,3.927,3.508,7.233,8.668,8.74v10.895
					C108.78,83.355,107.043,81.608,107.043,79.978z M124.376,75.511c2.865,1.089,4.604,2.835,4.604,4.467s-1.739,3.377-4.604,4.467
					V75.511z M115.71,59.386c0.734-0.083,1.502-0.129,2.301-0.129s1.569,0.045,2.303,0.129V70.47
					c-0.75-0.071-1.519-0.107-2.303-0.107c-0.799,0-1.566-0.045-2.301-0.128V59.386z M115.71,74.318
					c0.748,0.07,1.517,0.107,2.301,0.107c0.799,0,1.569,0.046,2.303,0.129v10.848c-0.733,0.084-1.504,0.129-2.303,0.129
					s-1.566-0.045-2.301-0.129V74.318z M107.043,64.81c0-1.631,1.737-3.377,4.604-4.467v8.934
					C108.78,68.188,107.043,66.441,107.043,64.81z"/>
			</g>
		</g>
	</g>
</g>
<g id="圖層_2_拷貝">
	<g>
		<g>
			<g>
				<path fill="#E8E8EA" d="M155.685,121.328c-0.905-2.478-2.833-4.396-5.286-5.264c-2.453-0.866-5.136-0.596-7.359,0.742
					l-21.54,12.924l-2.963,1.27h-15.543c-0.189,0-0.296-0.106-0.353-0.196c-0.056-0.089-0.104-0.231-0.02-0.402
					c0.048-0.097,0.131-0.171,0.233-0.207l11.795-4.215c4.563-1.534,7.179-6.203,5.955-10.64c-0.642-2.33-2.167-4.235-4.291-5.367
					c-2.093-1.114-4.582-1.321-6.824-0.571l-12.171,4.057l-31.957,2.131c-2.098,0.141-4.072,1.035-5.559,2.522L42.42,135.494
					c-3.334,3.334-3.643,8.625-0.703,12.041c0.777,0.905,4.126,4.113,9.147,8.907c2.926,2.793,5.689,5.432,7.001,6.743
					c0.402,0.402,0.931,0.605,1.462,0.605c0.468,0,0.938-0.158,1.323-0.479l9.548-7.957c2.001-1.668,4.539-2.587,7.144-2.587h32.687
					c1.185,0,2.336-0.235,3.423-0.702l15.428-6.611c0.043-0.019,0.086-0.038,0.127-0.06l0.782-0.4
					c0.042-0.021,0.084-0.044,0.123-0.068l21.848-13.108C155.445,129.606,157.096,125.195,155.685,121.328L155.685,121.328z
					 M149.632,128.273l-21.787,13.072l-0.658,0.337l-15.363,6.584c-0.57,0.245-1.174,0.369-1.795,0.369H77.342
					c-3.571,0-7.048,1.259-9.791,3.545l-8.111,6.759c-1.483-1.439-3.558-3.421-5.722-5.486c-3.638-3.474-8.165-7.796-8.868-8.613
					c-1.512-1.757-1.292-4.64,0.493-6.423l17.383-17.384c0.778-0.778,1.812-1.247,2.911-1.321l32.22-2.148
					c0.177-0.011,0.35-0.045,0.516-0.102l12.425-4.141c0.476-0.158,0.962-0.237,1.446-0.237c0.732,0,1.457,0.181,2.126,0.536
					c1.112,0.593,1.911,1.594,2.249,2.817c0.631,2.287-0.85,4.812-3.301,5.628c-0.014,0.005-0.028,0.011-0.042,0.015l-11.813,4.222
					c-1.12,0.4-2.025,1.208-2.552,2.275c-0.698,1.42-0.616,3.068,0.221,4.411c0.836,1.344,2.278,2.145,3.86,2.145h15.967
					c0.28,0,0.558-0.057,0.814-0.166l3.481-1.492c0.086-0.037,0.17-0.079,0.249-0.128l21.662-12.997
					c1.164-0.701,2.567-0.841,3.854-0.387c1.306,0.461,2.293,1.449,2.781,2.784C152.522,124.723,151.591,127.099,149.632,128.273
					L149.632,128.273z"/>
				<path fill="#E8E8EA" d="M114.515,102.066c18.158,0,32.93-14.771,32.93-32.929s-14.771-32.929-32.93-32.929
					c-18.157,0-32.929,14.771-32.929,32.929S96.357,102.066,114.515,102.066z M114.515,40.342c15.879,0,28.796,12.918,28.796,28.796
					s-12.917,28.795-28.796,28.795c-15.878,0-28.795-12.917-28.795-28.795S98.637,40.342,114.515,40.342z"/>
				<path fill="#E8E8EA" d="M103.355,76.853c0-1.142-0.926-2.066-2.066-2.066c-1.143,0-2.067,0.925-2.067,2.066
					c0,3.996,3.566,7.359,8.817,8.892v1.028c0,1.141,0.926,2.066,2.067,2.066s2.067-0.925,2.067-2.066v-0.248
					c0.762,0.072,1.543,0.109,2.341,0.109c0.799,0,1.58-0.038,2.343-0.109v0.248c0,1.141,0.926,2.066,2.066,2.066
					c1.142,0,2.066-0.925,2.066-2.066v-1.028c5.251-1.533,8.818-4.896,8.818-8.892c0-3.996-3.567-7.359-8.818-8.892V56.877
					c2.916,1.108,4.685,2.886,4.685,4.545c0,1.141,0.925,2.066,2.067,2.066c1.142,0,2.066-0.925,2.066-2.066
					c0-3.996-3.567-7.359-8.818-8.892v-1.028c0-1.141-0.925-2.066-2.066-2.066c-1.141,0-2.066,0.925-2.066,2.066v0.248
					c-0.763-0.072-1.544-0.11-2.343-0.11c-0.798,0-1.579,0.038-2.341,0.11v-0.248c0-1.141-0.926-2.066-2.067-2.066
					s-2.067,0.925-2.067,2.066v1.028c-5.251,1.533-8.817,4.896-8.817,8.892c0,3.996,3.566,7.359,8.817,8.892v11.084
					C105.124,80.29,103.355,78.513,103.355,76.853z M120.99,72.309c2.916,1.108,4.685,2.885,4.685,4.544s-1.769,3.437-4.685,4.545
					V72.309z M112.174,55.903c0.746-0.084,1.528-0.13,2.341-0.13s1.596,0.046,2.343,0.13V67.18
					c-0.763-0.072-1.544-0.109-2.343-0.109c-0.813,0-1.595-0.046-2.341-0.131V55.903z M112.174,71.095
					c0.762,0.072,1.543,0.109,2.341,0.109c0.813,0,1.596,0.046,2.343,0.131v11.037c-0.747,0.084-1.53,0.13-2.343,0.13
					s-1.595-0.046-2.341-0.13V71.095z M103.355,61.422c0-1.66,1.769-3.437,4.684-4.545v9.089
					C105.124,64.858,103.355,63.082,103.355,61.422z"/>
			</g>
		</g>
	</g>
</g>
</svg>
