<?xml version="1.0" encoding="utf-8"?>
<!-- Generator: Adobe Illustrator 16.0.0, SVG Export Plug-In . SVG Version: 6.00 Build 0)  -->
<!DOCTYPE svg PUBLIC "-//W3C//DTD SVG 1.1//EN" "http://www.w3.org/Graphics/SVG/1.1/DTD/svg11.dtd">
<svg version="1.1" id="圖層_1" xmlns="http://www.w3.org/2000/svg" xmlns:xlink="http://www.w3.org/1999/xlink" x="0px" y="0px"
	 width="185px" height="212px" viewBox="0 0 185 212" enable-background="new 0 0 185 212" xml:space="preserve">
<g display="none">
	<polygon display="inline" fill="#DDADCF" points="92.49,211.089 0.691,158.089 0.691,52.75 92.49,105.75 	"/>
	<polygon display="inline" fill="#D49AC2" points="92.065,211.514 183.863,158.514 183.863,53.176 92.065,106.176 	"/>
	<polygon display="inline" fill="#CA72AB" points="92.203,181.02 26.989,143.367 26.989,95.825 92.203,132.908 	"/>
	<polygon display="inline" fill="#C5589C" points="92.204,181.02 157.418,143.367 157.416,95.392 92.204,132.908 	"/>
	<polygon display="inline" fill="#D084B5" points="91.999,57.976 91.999,132.809 92.203,132.926 157.01,95.51 	"/>
	<polygon display="inline" fill="#D896C0" points="92.101,57.976 92.101,132.809 91.897,132.926 27.09,95.51 	"/>
	<polygon display="inline" fill="#E9B5D2" points="92.49,106.01 0.691,53.01 91.917,0.341 183.716,53.341 	"/>
</g>
<g display="none">
	<path display="inline" fill="#A04384" d="M136.043,153.498h-19.462L91.292,124.49H75.549v29.008H59.187V66.6
		c13.76,0,27.52,0.124,41.279,0.124c20.454,0.124,31.239,13.76,31.239,28.76c0,11.9-5.455,23.925-21.941,27.271l26.279,29.627
		V153.498z M75.549,81.971v27.767h24.917c10.413,0,14.876-6.941,14.876-13.883s-4.587-13.884-14.876-13.884H75.549z"/>
</g>
<g>
	<path fill="#FDF1F6" d="M132.043,151.498h-19.462L87.292,122.49H71.549v29.008H55.187V64.6c13.76,0,27.52,0.124,41.279,0.124
		c20.454,0.124,31.239,13.76,31.239,28.76c0,11.9-5.455,23.925-21.941,27.271l26.279,29.627V151.498z M71.549,79.971v27.767h24.917
		c10.413,0,14.876-6.941,14.876-13.883s-4.587-13.884-14.876-13.884H71.549z"/>
</g>
<g>
	<polygon fill="#ECC86D" points="92.547,211.597 0.748,158.596 0.748,53.258 92.547,106.258 	"/>
	<polygon fill="#E8CD5B" points="92.547,211.597 184.346,158.596 184.346,53.258 92.547,106.258 	"/>
	<polygon fill="#ECBA1C" points="92.26,181.102 27.046,143.449 27.047,95.907 92.26,132.99 	"/>
	<polygon fill="#E9B02B" points="92.261,181.102 157.475,143.449 157.473,95.475 92.261,132.99 	"/>
	<polygon fill="#E7BA48" points="92.057,58.059 92.057,132.891 92.26,133.008 157.066,95.592 	"/>
	<polygon fill="#EEBD46" points="92.158,58.059 92.158,132.891 91.954,133.008 27.147,95.592 	"/>
	<polygon fill="#F4D34B" points="92.547,106.093 0.748,53.093 91.974,0.424 183.773,53.424 	"/>
</g>
<circle display="none" fill="#FCFBEE" cx="92.548" cy="108.049" r="54.056"/>
<polygon display="none" fill="#F9BF15" points="122.732,115.165 118.11,109.463 118.11,95.082 103.158,95.082 103.158,109.549 
	91.473,124.111 80.899,124.111 64.801,99.419 65.439,99.419 65.439,84.468 50.488,84.468 50.488,99.419 63.854,99.419 
	63.189,99.853 79.004,124.111 78.098,124.111 78.098,139.062 93.048,139.062 93.048,124.686 104.806,110.033 116.529,110.033 
	120.689,115.165 119.656,115.165 119.656,130.116 134.605,130.116 134.605,115.165 "/>
<g>
	<g>
		<path fill="#B77D09" d="M134.535,144.686L134.535,144.686L134.535,144.686c-0.048-0.379-0.143-0.757-0.262-1.089
			c-0.899-3.434-2.936-9.685-3.858-12.479c-0.095-0.497-0.261-0.946-0.475-1.396v-0.024l0,0c-0.567-1.208-1.491-2.225-2.628-2.911
			l0,0c-0.071-0.048-0.213-0.119-0.402-0.214c-0.07-0.047-0.166-0.071-0.237-0.119c-2.249-1.064-9.139-3.812-9.139-3.812l0,0
			c-3.457-1.492-7.01-2.771-10.655-4.049l0,0l0,0l0,0l0,0c-0.64,2.698-6.82,20.671-7.814,23.157l-0.781-16.694
			c0.26-0.401,0.449-0.852,0.639-1.278l2.581-5.09c-1.823,1.515-4.521,2.462-7.575,2.462c-2.96,0-5.636-0.923-7.435-2.367
			l2.511,4.995c0.213,0.427,0.378,0.877,0.638,1.278L88.86,141.75c-0.971-2.486-7.15-20.459-7.813-23.157l0,0l0,0l0,0l0,0
			c-3.646,1.303-7.222,2.58-10.655,4.049l0,0c0,0-6.89,2.747-9.141,3.812c-0.071,0.048-0.165,0.072-0.236,0.119
			c-0.189,0.095-0.332,0.166-0.403,0.214l0,0c-1.136,0.687-2.06,1.703-2.628,2.911l0,0c0,0,0,0,0,0.024
			c-0.213,0.45-0.354,0.923-0.473,1.396c-0.924,2.794-2.96,9.045-3.86,12.479c-0.119,0.355-0.212,0.71-0.26,1.089l0,0l0,0
			c-0.046,0.333-0.071,0.664-0.071,1.019c0,3.671,2.983,6.654,6.653,6.654h67.956c3.669,0,6.653-2.983,6.653-6.654
			C134.63,145.35,134.583,145.019,134.535,144.686z"/>
		<path fill="#B77D09" d="M111.354,87.67c0-1.183,0.237-5.445,0.237-6.416c0-9.52-7.72-17.214-17.215-17.214l0,0l0,0h-0.022h-0.024
			l0,0l0,0c-0.117,0-0.212,0-0.331,0c-0.118,0-0.212,0-0.331,0l0,0l0,0h-0.024h-0.023l0,0l0,0c-9.518,0-17.213,7.719-17.213,17.214
			c0,0.971,0.237,5.233,0.237,6.416c-0.426,0.024-4.262-0.899-3.86,3.719c0.876,9.802,4.618,7.884,4.712,7.884
			c1.847,5.896,4.689,9.659,7.483,12.074c4.356,3.741,8.594,4.144,8.664,4.144c0.119,0,0.237,0,0.355,0l0,0l0,0
			c0.119,0,0.237,0,0.355,0c0.07,0,4.285-0.402,8.618-4.097c2.817-2.391,5.683-6.178,7.53-12.097c0.118,0,3.835,1.894,4.712-7.885
			C115.616,86.771,111.78,87.694,111.354,87.67z"/>
		<path fill="#B77D09" d="M65.069,131.36c0.024-0.261,0.119-0.758,0.167-1.019c0.071-0.427,0.212-0.828,0.331-1.255
			c1.018-3.409,2.747-9.116,3.836-12.407c0.166-0.663,0.379-1.326,0.664-1.966l0.733-2.106c-2.368-0.947-4.783-1.824-7.245-2.7l0,0
			c-0.568,2.368-5.944,18.02-6.796,20.197l-0.687-14.562c0.237-0.355,0.379-0.733,0.568-1.112l2.249-4.452
			c-1.585,1.327-3.953,2.155-6.605,2.155c-2.582,0-4.902-0.806-6.488-2.061l2.203,4.357c0.189,0.379,0.332,0.757,0.568,1.112
			l-0.687,14.562c-0.852-2.178-6.251-17.829-6.796-20.197l0,0c-3.172,1.137-6.298,2.25-9.282,3.528l0,0c0,0-6.014,2.416-7.956,3.315
			c-0.071,0.023-0.142,0.07-0.213,0.094c-0.166,0.096-0.285,0.144-0.355,0.189l0,0c-0.994,0.592-1.799,1.492-2.297,2.534l0,0
			c0,0,0,0,0,0.023c-0.189,0.379-0.308,0.806-0.402,1.23c-0.806,2.439-2.582,7.886-3.363,10.869
			c-0.094,0.309-0.189,0.64-0.237,0.947l0,0l0,0c-0.046,0.284-0.071,0.592-0.071,0.875c0,3.197,2.605,5.802,5.801,5.802h5.541
			c7.933,0,15.865,0,23.773,0c0.094,0,0.212,0,0.308,0c0.094,0,0.212,0,0.307,0c4.784,0,9.59,0,14.374,0
			c-1.255-1.918-2.013-4.19-2.013-6.653C64.999,132.283,64.999,131.811,65.069,131.36z"/>
		<path fill="#B77D09" d="M37.911,93.12c1.61,5.139,4.096,8.429,6.535,10.514c3.812,3.269,7.506,3.623,7.554,3.623
			c0.094,0,0.213,0,0.307,0c0.095,0,0.214,0,0.308,0c0.071,0,3.717-0.354,7.506-3.574c2.462-2.085,4.948-5.376,6.583-10.562
			c0.095,0,3.363,1.658,4.121-6.89c0.354-4.025-3.008-3.22-3.363-3.244c0-1.019,0.189-4.735,0.189-5.587
			c0-8.288-6.725-15.013-15.013-15.013l0,0h-0.023h-0.023l0,0l0,0c-0.095,0-0.189,0-0.285,0c-0.094,0-0.19,0-0.284,0l0,0l0,0H52
			h-0.024l0,0l0,0c-8.288,0-15.012,6.726-15.012,15.013c0,0.852,0.213,4.569,0.213,5.587c-0.354,0.024-3.717-0.781-3.363,3.244
			C34.549,94.754,37.816,93.12,37.911,93.12z"/>
		<path fill="#B77D09" d="M171.006,127.345c-0.047-0.546-0.119-1.09-0.189-1.61c0,0-0.309-1.753-0.379-2.013
			c-0.688-3.055-2.605-5.304-5.186-7.057c-0.475-0.332-0.971-0.615-1.492-0.876c-0.663-0.355-10.75-3.67-11.01-3.741
			c0.07,0.355,0.094,0.733,0.118,1.137c1.397,0.994,5.54,4.546,3.67,11.199c0,0-2.96-3.527-5.991-4.001
			c-2.889,5.02-7.79,11.389-10.442,13.071c-2.651-1.683-7.553-8.027-10.441-13.071c-3.031,0.45-5.99,4.001-5.99,4.001
			c-1.872-6.653,2.249-10.205,3.669-11.199c0.023-0.403,0.048-0.806,0.119-1.137c-0.189,0.071-6.133,2.014-9.211,3.078
			c0.142,0.379,0.261,0.782,0.354,1.161c1.091,3.29,2.937,8.974,3.836,12.406c0.048,0.143,0.403,1.706,0.497,2.274
			c0.072,0.448,0.072,0.923,0.072,1.372c0,2.463-0.734,4.737-2.013,6.654c6.368,0,12.739,0,19.132,0c7.767,0,15.532,0,23.299,0
			c2.321,0,4.286-0.711,5.92-2.439c1.279-1.35,1.634-2.982,1.729-4.735c0.023-0.308,0.048-1.634,0.048-1.634
			S171.006,127.367,171.006,127.345z"/>
		<path fill="#B77D09" d="M121.825,95.664c0.237,0.876,0.402,1.682,0.379,2.463c0,0.26-0.024,0.521-0.07,0.758
			c-0.214,0.733-1.776,3.221-2.014,3.647c2.747,2.96,6.347,3.622,9.922,4.38c1.064,0.213,2.131,0.354,3.268,0.496
			c0.379,0.072,0.733,0.143,1.112,0.213l-1.822,5.305c0,0-0.048,7.742,7.434,12.454h0.048c7.482-4.712,7.436-12.454,7.436-12.454
			l-1.823-5.305c0.379-0.07,0.758-0.142,1.113-0.213c1.136-0.142,2.225-0.283,3.268-0.496c3.575-0.758,7.197-1.443,9.92-4.38
			c-0.236-0.426-1.799-2.89-2.012-3.647c-0.048-0.262-0.072-0.498-0.072-0.758c0-0.781,0.144-1.61,0.381-2.463
			c0.235-0.829,0.496-1.658,0.733-2.486c1.207-2.699,1.895-5.683,1.895-8.832c0-11.721-9.306-21.24-20.886-21.454l0,0h-0.022h-0.023
			l0,0c-11.579,0.214-20.885,9.732-20.885,21.454c0,3.149,0.662,6.132,1.895,8.832C121.353,94.03,121.613,94.834,121.825,95.664z"/>
	</g>
</g>
<g>
	<g>
		<path fill="#FCFCED" d="M132.254,141.274L132.254,141.274L132.254,141.274c-0.048-0.379-0.143-0.756-0.262-1.088
			c-0.899-3.434-2.936-9.686-3.858-12.479c-0.095-0.498-0.261-0.947-0.475-1.396v-0.025l0,0c-0.567-1.207-1.491-2.225-2.628-2.91
			l0,0c-0.071-0.049-0.213-0.119-0.402-0.215c-0.07-0.047-0.166-0.07-0.237-0.119c-2.249-1.064-9.139-3.811-9.139-3.811l0,0
			c-3.457-1.492-7.01-2.771-10.655-4.049l0,0l0,0l0,0l0,0c-0.64,2.697-6.82,20.67-7.814,23.156l-0.781-16.693
			c0.26-0.402,0.449-0.852,0.639-1.279l2.581-5.09c-1.823,1.516-4.521,2.463-7.577,2.463c-2.961,0-5.637-0.924-7.436-2.367
			l2.511,4.994c0.213,0.428,0.378,0.877,0.638,1.279l-0.781,16.693c-0.971-2.486-7.15-20.459-7.813-23.156l0,0l0,0l0,0l0,0
			c-3.646,1.303-7.221,2.58-10.655,4.049l0,0c0,0-6.89,2.746-9.141,3.811c-0.071,0.049-0.165,0.072-0.236,0.119
			c-0.189,0.096-0.332,0.166-0.403,0.215l0,0c-1.136,0.686-2.06,1.703-2.628,2.91l0,0c0,0,0,0,0,0.025
			c-0.213,0.449-0.354,0.922-0.473,1.396c-0.924,2.793-2.96,9.045-3.86,12.479c-0.119,0.355-0.212,0.709-0.26,1.088l0,0l0,0
			c-0.046,0.334-0.071,0.664-0.071,1.02c0,3.67,2.983,6.654,6.653,6.654h67.958c3.669,0,6.653-2.984,6.653-6.654
			C132.349,141.938,132.302,141.608,132.254,141.274z"/>
		<path fill="#FCFCED" d="M109.072,84.259c0-1.183,0.237-5.445,0.237-6.416c0-9.52-7.72-17.214-17.215-17.214l0,0l0,0h-0.022h-0.024
			l0,0l0,0c-0.118,0-0.213,0-0.332,0c-0.118,0-0.212,0-0.331,0l0,0l0,0H91.36h-0.023l0,0l0,0c-9.519,0-17.214,7.719-17.214,17.214
			c0,0.971,0.237,5.233,0.237,6.416c-0.426,0.024-4.262-0.899-3.86,3.719c0.876,9.802,4.618,7.884,4.712,7.884
			c1.847,5.896,4.688,9.661,7.483,12.075c4.356,3.74,8.595,4.143,8.665,4.143c0.119,0,0.237,0,0.355,0l0,0l0,0
			c0.119,0,0.237,0,0.356,0c0.07,0,4.286-0.402,8.619-4.096c2.817-2.39,5.683-6.179,7.53-12.098c0.118,0,3.835,1.894,4.712-7.885
			C113.335,83.359,109.499,84.283,109.072,84.259z"/>
		<path fill="#FCFCED" d="M62.786,127.95c0.024-0.262,0.119-0.758,0.167-1.02c0.071-0.426,0.212-0.828,0.331-1.254
			c1.018-3.41,2.747-9.117,3.836-12.408c0.166-0.662,0.379-1.326,0.664-1.965l0.733-2.107c-2.368-0.947-4.783-1.823-7.245-2.698l0,0
			c-0.568,2.366-5.944,18.019-6.796,20.196l-0.687-14.562c0.237-0.355,0.379-0.732,0.568-1.111l2.249-4.451
			c-1.585,1.326-3.953,2.154-6.605,2.154c-2.582,0-4.902-0.807-6.488-2.06l2.203,4.356c0.189,0.379,0.332,0.756,0.568,1.111
			l-0.687,14.562c-0.852-2.178-6.251-17.83-6.796-20.196l0,0c-3.172,1.136-6.298,2.249-9.282,3.526l0,0c0,0-6.014,2.416-7.956,3.316
			c-0.071,0.023-0.142,0.07-0.213,0.094c-0.166,0.096-0.285,0.143-0.355,0.189l0,0c-0.994,0.592-1.799,1.492-2.297,2.533l0,0
			c0,0,0,0,0,0.023c-0.189,0.379-0.308,0.807-0.402,1.23c-0.806,2.439-2.582,7.887-3.363,10.869
			c-0.094,0.309-0.189,0.641-0.237,0.947l0,0l0,0c-0.046,0.285-0.071,0.592-0.071,0.875c0,3.197,2.605,5.803,5.801,5.803h5.541
			c7.933,0,15.865,0,23.773,0c0.094,0,0.212,0,0.308,0c0.094,0,0.212,0,0.307,0c4.784,0,9.59,0,14.374,0
			c-1.255-1.918-2.013-4.191-2.013-6.654C62.715,128.872,62.715,128.399,62.786,127.95z"/>
		<path fill="#FCFCED" d="M35.627,89.709c1.61,5.139,4.096,8.429,6.535,10.514c3.812,3.269,7.506,3.624,7.554,3.624
			c0.094,0,0.213,0,0.307,0c0.095,0,0.214,0,0.308,0c0.071,0,3.717-0.355,7.506-3.575c2.462-2.085,4.948-5.376,6.583-10.562
			c0.095,0,3.363,1.657,4.121-6.89c0.354-4.025-3.008-3.22-3.363-3.244c0-1.019,0.189-4.735,0.189-5.587
			c0-8.288-6.725-15.013-15.013-15.013l0,0h-0.023h-0.023l0,0l0,0c-0.095,0-0.189,0-0.285,0c-0.094,0-0.19,0-0.284,0l0,0l0,0h-0.023
			h-0.024l0,0l0,0c-8.288,0-15.012,6.726-15.012,15.013c0,0.852,0.213,4.569,0.213,5.587c-0.354,0.024-3.717-0.781-3.363,3.244
			C32.265,91.343,35.532,89.709,35.627,89.709z"/>
		<path fill="#FCFCED" d="M168.725,123.935c-0.047-0.547-0.119-1.09-0.189-1.611c0,0-0.309-1.752-0.379-2.012
			c-0.688-3.055-2.605-5.305-5.186-7.057c-0.475-0.332-0.971-0.615-1.492-0.877c-0.663-0.355-10.75-3.67-11.01-3.74
			c0.07,0.355,0.094,0.732,0.118,1.137c1.397,0.994,5.54,4.545,3.67,11.199c0,0-2.96-3.527-5.991-4.002
			c-2.889,5.02-7.79,11.389-10.442,13.072c-2.651-1.684-7.553-8.027-10.441-13.072c-3.031,0.451-5.99,4.002-5.99,4.002
			c-1.872-6.654,2.249-10.205,3.669-11.199c0.023-0.404,0.048-0.807,0.119-1.137c-0.189,0.07-6.133,2.014-9.211,3.078
			c0.142,0.379,0.261,0.781,0.354,1.16c1.091,3.291,2.937,8.975,3.836,12.406c0.048,0.143,0.403,1.707,0.497,2.275
			c0.072,0.447,0.072,0.922,0.072,1.371c0,2.463-0.734,4.738-2.013,6.654c6.368,0,12.739,0,19.132,0c7.767,0,15.532,0,23.299,0
			c2.321,0,4.286-0.711,5.92-2.439c1.279-1.35,1.634-2.982,1.729-4.734c0.023-0.309,0.048-1.635,0.048-1.635
			S168.725,123.956,168.725,123.935z"/>
		<path fill="#FCFCED" d="M119.544,92.253c0.237,0.875,0.402,1.682,0.379,2.463c0,0.26-0.024,0.52-0.07,0.758
			c-0.214,0.732-1.776,3.221-2.014,3.646c2.747,2.96,6.347,3.622,9.922,4.38c1.064,0.214,2.131,0.355,3.268,0.497
			c0.379,0.072,0.733,0.143,1.112,0.213l-1.822,5.305c0,0-0.048,7.742,7.434,12.453h0.048c7.482-4.711,7.436-12.453,7.436-12.453
			l-1.823-5.305c0.379-0.07,0.758-0.142,1.113-0.213c1.136-0.142,2.225-0.283,3.268-0.497c3.575-0.758,7.197-1.443,9.92-4.38
			c-0.236-0.426-1.799-2.891-2.012-3.646c-0.048-0.262-0.072-0.498-0.072-0.758c0-0.781,0.144-1.61,0.381-2.463
			c0.235-0.83,0.496-1.658,0.733-2.487c1.207-2.699,1.895-5.683,1.895-8.832c0-11.721-9.306-21.24-20.886-21.454l0,0h-0.022h-0.023
			l0,0c-11.579,0.214-20.885,9.732-20.885,21.454c0,3.149,0.662,6.132,1.895,8.832C119.071,90.619,119.332,91.423,119.544,92.253z"
			/>
	</g>
</g>
</svg>
