<?xml version="1.0" encoding="utf-8"?>
<!-- Generator: Adobe Illustrator 16.0.0, SVG Export Plug-In . SVG Version: 6.00 Build 0)  -->
<!DOCTYPE svg PUBLIC "-//W3C//DTD SVG 1.1//EN" "http://www.w3.org/Graphics/SVG/1.1/DTD/svg11.dtd">
<svg version="1.1" id="圖層_1" xmlns="http://www.w3.org/2000/svg" xmlns:xlink="http://www.w3.org/1999/xlink" x="0px" y="0px"
	 width="185px" height="212px" viewBox="0 0 185 212" enable-background="new 0 0 185 212" xml:space="preserve">
<g>
	<polygon fill="#8CD1C7" points="92.913,211.01 1.402,158.175 1.402,53.166 92.913,106 	"/>
	<polygon fill="#7ACBC3" points="92.913,211.01 184.427,158.175 184.427,53.166 92.913,106 	"/>
	<polygon fill="#61B1A5" points="92.627,180.61 27.618,143.076 27.618,95.682 92.627,132.649 	"/>
	<polygon fill="#4FA99E" points="92.627,180.61 157.64,143.076 157.638,95.25 92.627,132.649 	"/>
	<polygon fill="#62B4A8" points="92.424,57.952 92.424,132.551 92.627,132.667 157.232,95.368 	"/>
	<polygon fill="#75B9AE" points="92.525,57.952 92.525,132.551 92.322,132.667 27.719,95.368 	"/>
	<polygon fill="#9BD6D1" points="92.913,105.835 1.402,53.001 92.341,0.497 183.856,53.331 	"/>
</g>
<g>
	<path fill="#36685F" d="M128.87,95.938c-0.457-2.154-2.575-3.528-4.729-3.071c-2.153,0.458-3.527,2.575-3.07,4.729
		c0.023,0.118,2.42,11.842-4.063,19.848c-4.152,5.129-11.252,7.728-21.102,7.728c-9.824,0-16.913-2.587-21.071-7.688
		c-6.438-7.901-4.135-19.68-4.091-19.896c0.452-2.151-0.922-4.263-3.073-4.72c-2.153-0.457-4.272,0.917-4.729,3.071
		c-0.134,0.632-3.185,15.597,5.665,26.525c4.713,5.817,11.75,9.277,20.96,10.333c-0.242,0.729-0.376,1.507-0.376,2.316v21.234
		c0,0.156,0.014,0.308,0.023,0.462H73.974c-2.202,0-3.988,1.785-3.988,3.987s1.786,3.987,3.988,3.987h42.535
		c2.202,0,3.987-1.785,3.987-3.987s-1.785-3.987-3.987-3.987h-12.584c0.01-0.154,0.023-0.306,0.023-0.462v-21.234
		c0-0.874-0.159-1.707-0.438-2.484c8.59-1.221,15.202-4.618,19.695-10.165C132.056,111.534,129.005,96.569,128.87,95.938z"/>
	<path fill="#36685F" d="M96.558,119.191c9.692,0,17.553-5.973,17.553-13.346V67.439c0-7.372-7.86-13.348-17.553-13.348
		c-9.693,0-17.553,5.976-17.553,13.348v38.407C79.005,113.219,86.864,119.191,96.558,119.191z"/>
</g>
<g>
	<path fill="#EFF8F8" d="M125.88,92.947c-0.458-2.154-2.576-3.528-4.729-3.071c-2.153,0.458-3.528,2.575-3.07,4.729
		c0.023,0.118,2.42,11.842-4.063,19.849c-4.153,5.128-11.252,7.728-21.104,7.728c-9.822,0-16.911-2.588-21.069-7.689
		c-6.438-7.9-4.135-19.68-4.091-19.896c0.452-2.151-0.922-4.263-3.073-4.72c-2.153-0.457-4.271,0.917-4.729,3.071
		c-0.135,0.632-3.186,15.597,5.665,26.525c4.713,5.818,11.75,9.278,20.96,10.333c-0.241,0.73-0.376,1.508-0.376,2.317v21.234
		c0,0.155,0.014,0.308,0.023,0.461H70.983c-2.202,0-3.988,1.786-3.988,3.988s1.786,3.987,3.988,3.987h42.534
		c2.202,0,3.988-1.785,3.988-3.987s-1.786-3.988-3.988-3.988h-12.583c0.01-0.153,0.023-0.306,0.023-0.461v-21.234
		c0-0.874-0.16-1.708-0.438-2.484c8.591-1.221,15.202-4.618,19.696-10.166C129.065,108.544,126.014,93.579,125.88,92.947z"/>
	<path fill="#EFF8F8" d="M93.564,116.202c9.694,0,17.555-5.975,17.555-13.347V64.448c0-7.372-7.86-13.348-17.555-13.348
		c-9.691,0-17.55,5.976-17.55,13.348v38.407C76.014,110.228,83.874,116.202,93.564,116.202z"/>
</g>
</svg>
