<?xml version="1.0" encoding="utf-8"?>
<!-- Generator: Adobe Illustrator 16.0.0, SVG Export Plug-In . SVG Version: 6.00 Build 0)  -->
<!DOCTYPE svg PUBLIC "-//W3C//DTD SVG 1.1//EN" "http://www.w3.org/Graphics/SVG/1.1/DTD/svg11.dtd">
<svg version="1.1" id="圖層_1" xmlns="http://www.w3.org/2000/svg" xmlns:xlink="http://www.w3.org/1999/xlink" x="0px" y="0px"
	 width="344px" height="365px" viewBox="0 0 344 365" enable-background="new 0 0 344 365" xml:space="preserve">
<g>
	<polygon fill="#E4B46A" points="174.037,363.079 16.669,272.22 16.669,91.644 174.037,182.502 	"/>
	<polygon fill="#E1AF56" points="172.763,363.079 330.131,272.22 330.131,91.644 172.763,182.502 	"/>
	<polygon fill="#EBA534" points="173.119,311.225 61.326,246.68 61.326,165.181 173.119,228.75 	"/>
	<polygon fill="#D48C2A" points="173.12,311.225 284.914,246.68 284.912,164.439 173.12,228.75 	"/>
	<polygon fill="#E39D49" points="172.771,100.298 172.771,228.58 173.119,228.781 284.217,164.641 	"/>
	<polygon fill="#EBA962" points="172.944,100.298 172.944,228.58 172.595,228.781 61.5,164.641 	"/>
	<polygon fill="#F1C071" points="173.612,182.642 16.244,91.786 172.63,1.497 330,92.353 	"/>
</g>
<g>
	<g>
		<polygon fill="#F1E1A7" points="63.441,150.64 126.671,150.64 126.671,78.327 49.096,78.327 		"/>
		<polygon fill="#936C17" points="83.106,95.82 63.441,150.64 50.895,94.374 77.255,90.185 		"/>
		<polygon fill="#EAD493" points="83.106,95.82 97.681,150.64 63.441,150.64 		"/>
		<polygon fill="#F1E1A7" points="72.112,110.493 86.924,110.493 83.36,95.82 69.982,95.82 		"/>
		<polygon fill="#EAD493" points="84.375,99.999 74.494,99.999 75.317,106.944 86.063,106.944 		"/>
		<polyline fill="#F1E1A7" points="129.705,101.552 139.49,125.796 126.112,125.796 125.441,101.094 129.431,101.094 		"/>
		
			<rect x="114.797" y="133.044" transform="matrix(-0.9812 -0.1932 0.1932 -0.9812 213.9728 290.4042)" fill="#E05B4F" width="12.7" height="3.45"/>
		<rect x="111.203" y="99.318" fill="#7A7976" width="8.01" height="15.166"/>
		<polygon fill="#936C17" points="133.384,94.374 150.904,104.265 71.498,94.374 		"/>
	</g>
	<g>
		<polygon fill="#37424A" points="48.202,85.482 133.384,85.482 125.361,41.875 52.244,48.223 		"/>
		<polygon fill="#6C8391" points="48.202,85.482 133.384,85.482 130.962,72.399 49.584,71.171 		"/>
		<polygon fill="#37424A" points="36.948,94.374 151.456,94.374 133.384,83.282 48.202,83.282 		"/>
	</g>
	<polygon fill="#FFFFFF" points="110.474,150.64 74.494,150.64 67,163.882 119.213,163.882 	"/>
	<g>
		<polygon fill="#37424A" points="122.685,163.882 63.675,163.882 48.392,265.588 134.007,265.588 		"/>
		<polygon fill="#37424A" points="97.681,227.133 163.7,232.586 163.7,278.098 132.465,278.098 132.565,252.617 97.681,252.617 		
			"/>
		<rect x="132.465" y="278.098" fill="#37424A" width="42.05" height="11.137"/>
		<polyline fill="#37424A" points="115.208,266.16 115.208,285.764 83.106,285.594 80.781,266.16 115.208,263.758 		"/>
		<rect x="72.886" y="247.564" fill="#37424A" width="11.133" height="42.051"/>
	</g>
	<polygon fill="#A46F15" points="91.202,265.588 48.392,265.588 63.675,163.882 91.202,163.882 	"/>
	<g>
		<polygon fill="#FFFFFF" points="99.564,164.708 100.603,231.291 82.672,225.463 83.832,169.125 		"/>
		<polygon fill="#F1E1A7" points="97.53,230.291 97.711,245.684 84.285,242.439 85.27,226.305 		"/>
		<polyline fill="#E6C76B" points="84.285,242.439 89.669,250.389 105.731,250.689 97.711,245.684 85.501,242.098 		"/>
	</g>
	<g>
		<g>
			<polygon fill="#F1E1A7" points="181.359,202.152 244.487,202.152 244.487,129.951 167.038,129.951 			"/>
			<polygon fill="#E46505" points="200.991,147.417 181.359,202.152 168.841,145.972 195.152,141.789 			"/>
			<polygon fill="#EAD493" points="200.991,147.417 215.55,202.152 181.359,202.152 			"/>
			<polyline fill="#F1E1A7" points="247.517,153.138 257.282,177.346 243.932,177.346 243.263,152.68 247.237,152.68 			"/>
			
				<rect x="232.639" y="184.578" transform="matrix(-0.9811 -0.1934 0.1934 -0.9811 437.4043 415.3077)" fill="#E05B4F" width="12.673" height="3.448"/>
			<rect x="229.043" y="150.911" fill="#7A7976" width="7.997" height="15.143"/>
			<polygon fill="#E46505" points="251.189,145.972 268.688,155.847 189.396,145.972 			"/>
			<polygon fill="#E46505" points="168.841,145.972 167.038,215.594 181.359,219.848 195.431,162.932 			"/>
			<polygon fill="#F1E1A7" points="190.016,162.062 204.809,162.062 201.246,147.417 187.89,147.418 			"/>
			<polygon fill="#EAD493" points="202.261,151.587 192.395,151.587 193.219,158.521 203.945,158.521 			"/>
			<polygon fill="#D04D14" points="181.359,219.848 150.372,203.264 179.229,231.102 			"/>
		</g>
		<g>
			<polygon fill="#37424A" points="166.152,137.094 251.189,137.094 243.183,93.558 170.181,99.897 			"/>
			<polygon fill="#6C8391" points="166.152,137.094 251.189,137.094 248.768,124.035 167.524,122.807 			"/>
			<polygon fill="#37424A" points="154.911,145.972 269.231,145.972 251.189,134.899 166.152,134.899 			"/>
		</g>
		<polygon fill="#FFFFFF" points="228.323,202.152 192.395,202.152 184.914,215.369 237.04,215.369 		"/>
		<g>
			<polygon fill="#37424A" points="240.509,215.369 181.592,215.369 166.341,316.914 251.816,316.914 			"/>
			<polygon fill="#37424A" points="215.55,278.523 281.452,283.959 281.452,329.402 250.271,329.402 250.378,303.957 
				215.55,303.957 			"/>
			<rect x="250.271" y="329.402" fill="#37424A" width="41.981" height="11.111"/>
			<polyline fill="#37424A" points="233.041,317.482 233.041,337.053 200.991,336.883 198.674,317.482 233.041,315.084 			"/>
			<rect x="190.793" y="298.914" fill="#37424A" width="11.113" height="41.977"/>
		</g>
		<polygon fill="#D12530" points="209.072,316.914 166.341,316.914 181.592,215.369 209.072,215.369 		"/>
		<g>
			<polygon fill="#FFFFFF" points="213.531,222.93 212.69,289.406 194.964,283.088 197.703,226.898 			"/>
			<polygon fill="#F1E1A7" points="209.656,288.322 209.403,303.695 196.094,300.074 197.529,284.006 			"/>
			<polyline fill="#E6C76B" points="196.094,300.074 201.246,308.164 210.536,310.596 209.403,303.695 197.315,299.773 			"/>
		</g>
	</g>
</g>
<line fill="none" x1="83.832" y1="169.125" x2="97.995" y2="169.125"/>
</svg>
