<?xml version="1.0" encoding="utf-8"?>
<!-- Generator: Adobe Illustrator 16.0.0, SVG Export Plug-In . SVG Version: 6.00 Build 0)  -->
<!DOCTYPE svg PUBLIC "-//W3C//DTD SVG 1.1//EN" "http://www.w3.org/Graphics/SVG/1.1/DTD/svg11.dtd">
<svg version="1.1" id="圖層_1" xmlns="http://www.w3.org/2000/svg" xmlns:xlink="http://www.w3.org/1999/xlink" x="0px" y="0px"
	 width="260px" height="298px" viewBox="0 0 260 298" enable-background="new 0 0 260 298" xml:space="preserve">
<g>
	<polygon fill="#C0CB5D" points="129.976,216.755 68.904,181.493 68.904,111.415 129.976,146.675 	"/>
	<polygon fill="#B3C548" points="129.978,216.755 191.049,181.493 191.047,111.415 129.978,146.675 	"/>
	<polygon fill="#8BAD50" points="129.787,196.466 86.4,171.417 86.4,139.789 129.787,164.46 	"/>
	<polygon fill="#70A22D" points="129.787,196.466 173.17,171.417 173.169,139.501 129.787,164.46 	"/>
	<polygon fill="#98B653" points="129.649,114.609 129.649,164.394 129.787,164.472 172.897,139.58 	"/>
	<polygon fill="#A9C063" points="129.719,114.609 129.719,164.394 129.58,164.472 86.467,139.58 	"/>
	<polygon fill="#C2D55C" points="129.976,146.566 68.904,111.306 129.595,76.266 190.666,111.525 	"/>
</g>
<g>
	<polygon fill="#C0CB5D" points="129.976,143.309 68.904,108.048 68.904,37.969 129.976,73.229 	"/>
	<polygon fill="#B3C548" points="129.978,143.309 191.049,108.048 191.047,37.969 129.978,73.229 	"/>
	<polygon fill="#8BAD50" points="129.787,123.021 86.4,97.972 86.4,66.343 129.787,91.013 	"/>
	<polygon fill="#70A22D" points="129.787,123.021 173.17,97.972 173.169,66.056 129.787,91.013 	"/>
	<polygon fill="#98B653" points="129.649,41.163 129.649,90.947 129.787,91.025 172.897,66.134 	"/>
	<polygon fill="#A9C063" points="129.719,41.163 129.719,90.947 129.58,91.025 86.467,66.134 	"/>
	<polygon fill="#C2D55C" points="129.976,73.12 68.904,37.86 129.595,2.82 190.666,38.079 	"/>
</g>
<g>
	<polygon fill="#C0CB5D" points="63.213,254.694 2.141,219.435 2.141,149.356 63.213,184.616 	"/>
	<polygon fill="#B3C548" points="63.215,254.694 124.286,219.435 124.284,149.356 63.215,184.616 	"/>
	<polygon fill="#8BAD50" points="63.023,234.407 19.637,209.358 19.637,177.729 63.023,202.399 	"/>
	<polygon fill="#70A22D" points="63.023,234.407 106.408,209.358 106.406,177.442 63.023,202.399 	"/>
	<polygon fill="#98B653" points="62.887,152.55 62.887,202.335 63.023,202.413 106.136,177.521 	"/>
	<polygon fill="#A9C063" points="62.955,152.55 62.955,202.335 62.817,202.413 19.704,177.521 	"/>
	<polygon fill="#C2D55C" points="63.213,184.507 2.141,149.247 62.831,114.207 123.903,149.466 	"/>
</g>
<g>
	<polygon fill="#C3C2BF" points="196.111,256.407 135.038,221.146 135.038,151.067 196.111,186.327 	"/>
	<polygon fill="#B8B7B3" points="196.111,256.407 257.184,221.146 257.182,151.067 196.111,186.327 	"/>
	<polygon fill="#807F7B" points="195.918,236.118 152.534,211.069 152.534,179.438 195.918,204.11 	"/>
	<polygon fill="#706E6B" points="195.918,236.118 239.305,211.069 239.305,179.153 195.918,204.11 	"/>
	<polygon fill="#858480" points="195.784,154.261 195.784,204.044 195.918,204.124 239.033,179.229 	"/>
	<polygon fill="#A19F9B" points="195.854,154.261 195.854,204.044 195.715,204.124 152.601,179.229 	"/>
	<polygon fill="#D5D4D2" points="196.111,186.218 135.038,150.956 195.729,115.917 256.802,151.179 	"/>
</g>
<g>
	<polygon fill="#C3C2BF" points="128.65,294.335 67.577,259.073 67.577,188.993 128.65,224.255 	"/>
	<polygon fill="#B8B7B3" points="128.65,294.335 189.721,259.073 189.718,188.993 128.65,224.255 	"/>
	<polygon fill="#807F7B" points="128.459,274.048 85.072,248.997 85.072,217.368 128.459,242.038 	"/>
	<polygon fill="#706E6B" points="128.459,274.048 171.844,248.997 171.844,217.081 128.459,242.038 	"/>
	<polygon fill="#858480" points="128.323,192.188 128.323,241.972 128.459,242.05 171.571,217.157 	"/>
	<polygon fill="#A19F9B" points="128.391,192.188 128.391,241.972 128.253,242.05 85.139,217.157 	"/>
	<polygon fill="#E6E5E4" points="128.65,224.144 67.577,188.884 128.269,153.845 189.339,189.104 	"/>
</g>
<g>
	<polygon fill="#C3C2BF" points="148.552,194.167 136.005,186.925 136.007,172.528 148.552,179.772 	"/>
	<polygon fill="#B8B7B3" points="148.552,194.167 161.099,186.925 161.099,172.528 148.552,179.772 	"/>
	<polygon fill="#D5D4D2" points="148.552,179.749 136.005,172.507 148.474,165.308 161.019,172.552 	"/>
</g>
<g>
	<polygon fill="#C3C2BF" points="135.468,201.712 122.923,194.468 122.923,180.073 135.468,187.317 	"/>
	<polygon fill="#B8B7B3" points="135.468,201.712 148.013,194.468 148.013,180.073 135.468,187.317 	"/>
	<polygon fill="#D5D4D2" points="135.468,187.294 122.923,180.05 135.389,172.851 147.936,180.095 	"/>
</g>
<g>
	<polygon fill="#C3C2BF" points="135.468,187.583 122.923,180.339 122.923,165.942 135.468,173.187 	"/>
	<polygon fill="#B8B7B3" points="135.468,187.583 148.013,180.339 148.013,165.942 135.468,173.187 	"/>
	<polygon fill="#D5D4D2" points="135.468,173.163 122.923,165.921 135.389,158.722 147.936,165.966 	"/>
</g>
<g>
	<polygon fill="#C3C2BF" points="135.468,173.163 122.923,165.921 122.923,151.524 135.468,158.767 	"/>
	<polygon fill="#B8B7B3" points="135.468,173.163 148.013,165.921 148.013,151.524 135.468,158.767 	"/>
	<polygon fill="#D5D4D2" points="135.468,158.745 122.923,151.501 135.389,144.304 147.936,151.546 	"/>
</g>
<g>
	<g>
		<polygon fill="#C3C2BF" points="120.462,210.335 107.915,203.093 107.917,188.696 120.462,195.938 		"/>
		<polygon fill="#B8B7B3" points="120.462,210.335 133.007,203.093 133.007,188.696 120.462,195.938 		"/>
		<polygon fill="#D5D4D2" points="120.462,195.917 107.915,188.673 120.384,181.476 132.929,188.718 		"/>
	</g>
	<g>
		<polygon fill="#C3C2BF" points="120.462,196.206 107.915,188.962 107.917,174.567 120.462,181.81 		"/>
		<polygon fill="#B8B7B3" points="120.462,196.206 133.007,188.962 133.007,174.567 120.462,181.81 		"/>
		<polygon fill="#D5D4D2" points="120.462,181.786 107.915,174.544 120.384,167.347 132.929,174.589 		"/>
	</g>
	<g>
		<polygon fill="#C3C2BF" points="120.462,181.786 107.915,174.544 107.917,160.147 120.462,167.392 		"/>
		<polygon fill="#B8B7B3" points="120.462,181.786 133.007,174.544 133.007,160.147 120.462,167.392 		"/>
		<polygon fill="#D5D4D2" points="120.462,167.368 107.915,160.124 120.384,152.927 132.929,160.171 		"/>
	</g>
	<g>
		<polygon fill="#FFFFFF" points="126.627,173.823 122.736,176.12 122.736,171.64 126.627,169.343 		"/>
		<polygon fill="#FFFFFF" points="131.766,170.788 127.876,173.085 127.876,168.603 131.766,166.306 		"/>
		<polygon fill="#F7D232" points="126.627,180.179 122.736,182.476 122.736,177.997 126.627,175.698 		"/>
		<polygon fill="#FFFFFF" points="131.766,177.144 127.876,179.44 127.876,174.96 131.766,172.663 		"/>
		<polygon fill="#F7D232" points="126.627,186.341 122.736,188.638 122.736,184.157 126.627,181.86 		"/>
		<polygon fill="#FFFFFF" points="131.766,183.306 127.876,185.601 127.876,181.122 131.766,178.825 		"/>
		<polygon fill="#FFFFFF" points="126.627,191.987 122.736,194.284 122.736,189.804 126.627,187.507 		"/>
		<polygon fill="#FFFFFF" points="131.766,188.95 127.876,191.249 127.876,186.769 131.766,184.47 		"/>
		<polygon fill="#FFFFFF" points="126.627,197.769 122.736,200.065 122.736,195.585 126.627,193.288 		"/>
		<polygon fill="#F7D232" points="131.766,194.733 127.876,197.03 127.876,192.55 131.766,190.253 		"/>
	</g>
</g>
<g>
	<polygon fill="#FFFFFF" points="141.115,165.376 137.226,167.673 137.226,163.192 141.115,160.896 	"/>
	<polygon fill="#F7D232" points="146.255,162.339 142.364,164.638 142.364,160.155 146.255,157.86 	"/>
	<polygon fill="#F7D232" points="141.115,171.731 137.226,174.028 137.226,169.548 141.115,167.251 	"/>
	<polygon fill="#FFFFFF" points="146.255,168.694 142.364,170.993 142.364,166.511 146.255,164.216 	"/>
	<polygon fill="#FFFFFF" points="141.115,177.894 137.226,180.19 137.226,175.71 141.115,173.413 	"/>
	<polygon fill="#F7D232" points="146.255,174.856 142.364,177.153 142.364,172.675 146.255,170.378 	"/>
	<polygon fill="#FFFFFF" points="141.115,183.538 137.226,185.835 137.226,181.356 141.115,179.06 	"/>
	<polygon fill="#FFFFFF" points="146.255,180.503 142.364,182.802 142.364,178.319 146.255,176.022 	"/>
	<polygon fill="#F7D232" points="141.115,189.321 137.226,191.618 137.226,187.138 141.115,184.841 	"/>
	<polygon fill="#F7D232" points="146.255,186.284 142.364,188.583 142.364,184.103 146.255,181.804 	"/>
</g>
<g>
	<polygon fill="#C0CB5D" points="195.917,182.548 134.846,147.287 134.846,77.208 195.917,112.468 	"/>
	<polygon fill="#B3C548" points="195.918,182.548 256.991,147.287 256.989,77.208 195.918,112.468 	"/>
	<polygon fill="#8BAD50" points="195.729,162.259 152.341,137.21 152.341,105.582 195.729,130.252 	"/>
	<polygon fill="#70A22D" points="195.729,162.259 239.112,137.211 239.111,105.294 195.729,130.252 	"/>
	<polygon fill="#98B653" points="195.591,80.402 195.591,130.186 195.729,130.264 238.84,105.373 	"/>
	<polygon fill="#A9C063" points="195.66,80.402 195.66,130.186 195.521,130.264 152.408,105.373 	"/>
	<polygon fill="#C2D55C" points="195.917,112.359 134.846,77.099 195.535,42.059 256.607,77.318 	"/>
</g>
<g>
	<polygon fill="#C0CB5D" points="64.725,180.772 3.653,145.51 3.653,75.432 64.725,110.692 	"/>
	<polygon fill="#B3C548" points="64.727,180.772 125.799,145.51 125.797,75.432 64.727,110.692 	"/>
	<polygon fill="#8BAD50" points="64.536,160.483 21.149,135.435 21.149,103.806 64.536,128.476 	"/>
	<polygon fill="#70A22D" points="64.536,160.483 107.921,135.435 107.919,103.519 64.536,128.476 	"/>
	<polygon fill="#98B653" points="64.399,78.626 64.399,128.41 64.536,128.488 107.648,103.597 	"/>
	<polygon fill="#A9C063" points="64.468,78.626 64.468,128.41 64.33,128.488 21.216,103.597 	"/>
	<polygon fill="#C2D55C" points="64.725,110.583 3.653,75.322 64.344,40.283 125.415,75.542 	"/>
</g>
<g>
	<polygon fill="#8ABB4E" points="108.352,33.486 101.531,29.105 101.531,2.488 108.352,6.87 	"/>
	<polygon fill="#73A633" points="108.353,33.486 115.174,29.105 115.174,2.488 108.353,6.87 	"/>
	<polygon fill="#73A633" points="108.477,6.967 108.477,6.957 101.656,2.576 101.656,6.967 	"/>
	<polygon fill="#A6C06C" points="94.837,2.488 94.837,2.499 101.656,6.88 101.656,2.488 	"/>
	<polygon fill="#73A633" points="94.837,6.967 94.837,6.957 101.656,2.576 101.656,6.967 	"/>
	<polygon fill="#67982F" points="108.331,6.945 108.331,6.936 115.151,2.555 115.151,6.945 	"/>
	<polygon fill="#A6C06C" points="121.972,2.467 121.972,2.478 115.151,6.858 115.151,2.467 	"/>
	<polygon fill="#67982F" points="121.972,6.945 121.972,6.936 115.151,2.555 115.151,6.945 	"/>
</g>
<g>
	<polygon fill="#8ABB4E" points="127.584,43.371 120.765,38.99 120.765,17.971 127.584,22.352 	"/>
	<polygon fill="#73A633" points="127.585,43.371 134.404,38.99 134.404,17.971 127.585,22.352 	"/>
	<polygon fill="#73A633" points="127.709,22.449 127.709,22.438 120.889,18.058 120.889,22.449 	"/>
	<polygon fill="#A6C06C" points="114.069,17.971 114.069,17.98 120.889,22.361 120.889,17.971 	"/>
	<polygon fill="#73A633" points="114.069,22.449 114.069,22.438 120.889,18.058 120.889,22.449 	"/>
	<polygon fill="#67982F" points="127.563,22.427 127.563,22.417 134.382,18.037 134.382,22.427 	"/>
	<polygon fill="#A6C06C" points="141.202,17.949 141.202,17.959 134.382,22.34 134.382,17.949 	"/>
	<polygon fill="#67982F" points="141.202,22.427 141.202,22.417 134.382,18.037 134.382,22.427 	"/>
</g>
<g>
	<polygon fill="#8ABB4E" points="152.643,53.707 145.822,49.326 145.822,35.257 152.643,39.637 	"/>
	<polygon fill="#73A633" points="152.644,53.707 159.463,49.326 159.463,35.257 152.644,39.637 	"/>
	<polygon fill="#73A633" points="152.768,39.735 152.768,39.725 145.946,35.345 145.946,39.735 	"/>
	<polygon fill="#A6C06C" points="139.127,35.257 139.127,35.267 145.946,39.647 145.946,35.257 	"/>
	<polygon fill="#73A633" points="139.127,39.735 139.127,39.725 145.946,35.345 145.946,39.735 	"/>
	<polygon fill="#67982F" points="152.622,39.713 152.622,39.704 159.441,35.323 159.441,39.713 	"/>
	<polygon fill="#A6C06C" points="166.261,35.235 166.261,35.245 159.441,39.626 159.441,35.235 	"/>
	<polygon fill="#67982F" points="166.261,39.713 166.261,39.704 159.441,35.323 159.441,39.713 	"/>
</g>
<g>
	<polygon fill="#8ABB4E" points="46.775,75.701 40.575,71.718 40.575,47.52 46.775,51.503 	"/>
	<polygon fill="#73A633" points="46.776,75.701 52.976,71.718 52.976,47.52 46.776,51.503 	"/>
	<polygon fill="#73A633" points="46.889,51.591 46.889,51.583 40.688,47.599 40.688,51.591 	"/>
	<polygon fill="#A6C06C" points="34.488,47.52 34.488,47.529 40.688,51.512 40.688,47.52 	"/>
	<polygon fill="#73A633" points="34.488,51.591 34.488,51.583 40.688,47.599 40.688,51.591 	"/>
	<polygon fill="#67982F" points="46.756,51.572 46.756,51.563 52.956,47.58 52.956,51.572 	"/>
	<polygon fill="#A6C06C" points="59.157,47.5 59.157,47.51 52.956,51.492 52.956,47.5 	"/>
	<polygon fill="#67982F" points="59.157,51.572 59.157,51.563 52.956,47.58 52.956,51.572 	"/>
</g>
<g>
	<polygon fill="#8ABB4E" points="64.26,84.688 58.06,80.704 58.06,61.595 64.26,65.578 	"/>
	<polygon fill="#73A633" points="64.26,84.688 70.46,80.704 70.46,61.595 64.26,65.578 	"/>
	<polygon fill="#73A633" points="64.373,65.667 64.373,65.657 58.172,61.675 58.172,65.667 	"/>
	<polygon fill="#A6C06C" points="51.973,61.595 51.973,61.604 58.172,65.587 58.172,61.595 	"/>
	<polygon fill="#73A633" points="51.973,65.667 51.973,65.657 58.172,61.675 58.172,65.667 	"/>
	<polygon fill="#67982F" points="64.24,65.647 64.24,65.638 70.44,61.655 70.44,65.647 	"/>
	<polygon fill="#A6C06C" points="76.641,61.576 76.641,61.584 70.44,65.567 70.44,61.576 	"/>
	<polygon fill="#67982F" points="76.641,65.647 76.641,65.638 70.44,61.655 70.44,65.647 	"/>
</g>
<g>
	<polygon fill="#8ABB4E" points="87.041,94.083 80.842,90.101 80.842,77.311 87.041,81.293 	"/>
	<polygon fill="#73A633" points="87.042,94.083 93.242,90.101 93.242,77.311 87.042,81.293 	"/>
	<polygon fill="#73A633" points="87.155,81.381 87.155,81.372 80.955,77.39 80.955,81.381 	"/>
	<polygon fill="#A6C06C" points="74.755,77.311 74.755,77.319 80.955,81.302 80.955,77.311 	"/>
	<polygon fill="#73A633" points="74.755,81.381 74.755,81.372 80.955,77.39 80.955,81.381 	"/>
	<polygon fill="#67982F" points="87.022,81.361 87.022,81.353 93.223,77.37 93.223,81.361 	"/>
	<polygon fill="#A6C06C" points="99.423,77.291 99.423,77.299 93.223,81.282 93.223,77.291 	"/>
	<polygon fill="#67982F" points="99.423,81.361 99.423,81.353 93.223,77.37 93.223,81.361 	"/>
</g>
<g>
	<g>
		<polygon fill="#8ABB4E" points="177.333,73.917 171.133,69.934 171.133,45.736 177.333,49.719 		"/>
		<polygon fill="#73A633" points="177.334,73.917 183.533,69.934 183.533,45.736 177.334,49.719 		"/>
		<polygon fill="#73A633" points="177.446,49.807 177.446,49.798 171.245,45.815 171.245,49.807 		"/>
		<polygon fill="#A6C06C" points="165.046,45.736 165.046,45.745 171.245,49.728 171.245,45.736 		"/>
		<polygon fill="#73A633" points="165.046,49.807 165.046,49.798 171.245,45.815 171.245,49.807 		"/>
		<polygon fill="#67982F" points="177.313,49.788 177.313,49.779 183.514,45.796 183.514,49.788 		"/>
		<polygon fill="#A6C06C" points="189.715,45.716 189.715,45.726 183.514,49.708 183.514,45.716 		"/>
		<polygon fill="#67982F" points="189.715,49.788 189.715,49.779 183.514,45.796 183.514,49.788 		"/>
	</g>
	<g>
		<polygon fill="#8ABB4E" points="194.817,82.903 188.617,78.92 188.617,59.811 194.817,63.794 		"/>
		<polygon fill="#73A633" points="194.817,82.903 201.018,78.92 201.018,59.811 194.817,63.794 		"/>
		<polygon fill="#73A633" points="194.931,63.882 194.931,63.873 188.729,59.891 188.729,63.882 		"/>
		<polygon fill="#A6C06C" points="182.53,59.811 182.53,59.819 188.729,63.803 188.729,59.811 		"/>
		<polygon fill="#73A633" points="182.53,63.882 182.53,63.873 188.729,59.891 188.729,63.882 		"/>
		<polygon fill="#67982F" points="194.798,63.862 194.798,63.854 200.998,59.871 200.998,63.862 		"/>
		<polygon fill="#A6C06C" points="207.199,59.792 207.199,59.8 200.998,63.783 200.998,59.792 		"/>
		<polygon fill="#67982F" points="207.199,63.862 207.199,63.854 200.998,59.871 200.998,63.862 		"/>
	</g>
	<g>
		<polygon fill="#8ABB4E" points="217.599,92.299 211.399,88.317 211.399,75.526 217.599,79.509 		"/>
		<polygon fill="#73A633" points="217.6,92.299 223.8,88.317 223.8,75.526 217.6,79.509 		"/>
		<polygon fill="#73A633" points="217.713,79.597 217.713,79.588 211.513,75.606 211.513,79.597 		"/>
		<polygon fill="#A6C06C" points="205.312,75.526 205.312,75.535 211.513,79.518 211.513,75.526 		"/>
		<polygon fill="#73A633" points="205.312,79.597 205.312,79.588 211.513,75.606 211.513,79.597 		"/>
		<polygon fill="#67982F" points="217.58,79.578 217.58,79.569 223.78,75.586 223.78,79.578 		"/>
		<polygon fill="#A6C06C" points="229.98,75.507 229.98,75.516 223.78,79.498 223.78,75.507 		"/>
		<polygon fill="#67982F" points="229.98,79.578 229.98,79.569 223.78,75.586 223.78,79.578 		"/>
	</g>
</g>
</svg>
