<?xml version="1.0" encoding="utf-8"?>
<!-- Generator: Adobe Illustrator 16.0.0, SVG Export Plug-In . SVG Version: 6.00 Build 0)  -->
<!DOCTYPE svg PUBLIC "-//W3C//DTD SVG 1.1//EN" "http://www.w3.org/Graphics/SVG/1.1/DTD/svg11.dtd">
<svg version="1.1" id="圖層_1" xmlns="http://www.w3.org/2000/svg" xmlns:xlink="http://www.w3.org/1999/xlink" x="0px" y="0px"
	 width="148.971px" height="150.867px" viewBox="0 0 148.971 150.867" enable-background="new 0 0 148.971 150.867"
	 xml:space="preserve">
<g>
	<defs>
		<rect id="SVGID_1_" width="148.971" height="150.867"/>
	</defs>
	<clipPath id="SVGID_2_">
		<use xlink:href="#SVGID_1_"  overflow="visible"/>
	</clipPath>
	<g clip-path="url(#SVGID_2_)">
		<defs>
			<rect id="SVGID_3_" width="148.972" height="150.867"/>
		</defs>
		<clipPath id="SVGID_4_">
			<use xlink:href="#SVGID_3_"  overflow="visible"/>
		</clipPath>
		<g clip-path="url(#SVGID_4_)">
			<g>
				<defs>
					<rect id="SVGID_5_" x="-2.625" y="-74.014" width="264.831" height="230.997"/>
				</defs>
				<clipPath id="SVGID_6_">
					<use xlink:href="#SVGID_5_"  overflow="visible"/>
				</clipPath>
				<g clip-path="url(#SVGID_6_)">
					<defs>
						<polygon id="SVGID_7_" points="164.827,32.205 155.484,58.01 124.341,70.232 140.95,117.77 175.207,88.339 						"/>
					</defs>
					<clipPath id="SVGID_8_">
						<use xlink:href="#SVGID_7_"  overflow="visible"/>
					</clipPath>
					
						<linearGradient id="SVGID_9_" gradientUnits="userSpaceOnUse" x1="4.882812e-04" y1="150.8672" x2="1.0005" y2="150.8672" gradientTransform="matrix(0 85.5636 85.5636 0 -12758.9863 32.1797)">
						<stop  offset="0" style="stop-color:#D7D6D8"/>
						<stop  offset="1" style="stop-color:#FFFFFF"/>
					</linearGradient>
					<rect x="124.341" y="32.205" clip-path="url(#SVGID_8_)" fill="url(#SVGID_9_)" width="50.866" height="85.564"/>
				</g>
				<g clip-path="url(#SVGID_6_)">
					<defs>
						<polygon id="SVGID_10_" points="140.95,117.77 195.449,130.442 219.845,88.339 						"/>
					</defs>
					<clipPath id="SVGID_11_">
						<use xlink:href="#SVGID_10_"  overflow="visible"/>
					</clipPath>
					
						<linearGradient id="SVGID_12_" gradientUnits="userSpaceOnUse" x1="4.882812e-04" y1="150.8672" x2="1.0005" y2="150.8672" gradientTransform="matrix(0 42.1028 42.1028 0 -6171.5264 88.3359)">
						<stop  offset="0" style="stop-color:#D7D6D8"/>
						<stop  offset="1" style="stop-color:#FFFFFF"/>
					</linearGradient>
					<rect x="140.95" y="88.339" clip-path="url(#SVGID_11_)" fill="url(#SVGID_12_)" width="78.895" height="42.104"/>
				</g>
				<g clip-path="url(#SVGID_6_)">
					<defs>
						<polygon id="SVGID_13_" points="111.13,93.961 140.95,117.77 124.341,70.232 						"/>
					</defs>
					<clipPath id="SVGID_14_">
						<use xlink:href="#SVGID_13_"  overflow="visible"/>
					</clipPath>
					
						<linearGradient id="SVGID_15_" gradientUnits="userSpaceOnUse" x1="-4.882812e-04" y1="150.8672" x2="0.9995" y2="150.8672" gradientTransform="matrix(0 47.5367 47.5367 0 -7045.6904 70.2422)">
						<stop  offset="0" style="stop-color:#D7D6D8"/>
						<stop  offset="1" style="stop-color:#FFFFFF"/>
					</linearGradient>
					<rect x="111.13" y="70.232" clip-path="url(#SVGID_14_)" fill="url(#SVGID_15_)" width="29.82" height="47.537"/>
				</g>
				<g clip-path="url(#SVGID_6_)">
					<defs>
						<polygon id="SVGID_16_" points="175.207,88.339 140.95,117.77 219.845,88.339 						"/>
					</defs>
					<clipPath id="SVGID_17_">
						<use xlink:href="#SVGID_16_"  overflow="visible"/>
					</clipPath>
					
						<linearGradient id="SVGID_18_" gradientUnits="userSpaceOnUse" x1="0" y1="150.8672" x2="1" y2="150.8672" gradientTransform="matrix(0 29.4295 29.4295 0 -4259.5566 88.3359)">
						<stop  offset="0" style="stop-color:#D7D6D8"/>
						<stop  offset="1" style="stop-color:#FFFFFF"/>
					</linearGradient>
					<rect x="140.95" y="88.339" clip-path="url(#SVGID_17_)" fill="url(#SVGID_18_)" width="78.895" height="29.431"/>
				</g>
				<g clip-path="url(#SVGID_6_)">
					<defs>
						<polygon id="SVGID_19_" points="113.961,10.021 73.477,-26.197 86.97,32.205 						"/>
					</defs>
					<clipPath id="SVGID_20_">
						<use xlink:href="#SVGID_19_"  overflow="visible"/>
					</clipPath>
					
						<linearGradient id="SVGID_21_" gradientUnits="userSpaceOnUse" x1="0" y1="150.8672" x2="1" y2="150.8672" gradientTransform="matrix(0 58.4018 58.4018 0 -8717.1895 -26.1953)">
						<stop  offset="0" style="stop-color:#D7D6D8"/>
						<stop  offset="1" style="stop-color:#FFFFFF"/>
					</linearGradient>
					<rect x="73.477" y="-26.197" clip-path="url(#SVGID_20_)" fill="url(#SVGID_21_)" width="40.484" height="58.402"/>
				</g>
				<g clip-path="url(#SVGID_6_)">
					<defs>
						<polygon id="SVGID_22_" points="92.504,79.092 111.13,93.961 124.341,70.232 						"/>
					</defs>
					<clipPath id="SVGID_23_">
						<use xlink:href="#SVGID_22_"  overflow="visible"/>
					</clipPath>
					
						<linearGradient id="SVGID_24_" gradientUnits="userSpaceOnUse" x1="4.882812e-04" y1="150.8672" x2="1.0005" y2="150.8672" gradientTransform="matrix(0 23.7286 23.7286 0 -3471.4507 70.2266)">
						<stop  offset="0" style="stop-color:#D7D6D8"/>
						<stop  offset="1" style="stop-color:#FFFFFF"/>
					</linearGradient>
					<rect x="92.504" y="70.232" clip-path="url(#SVGID_23_)" fill="url(#SVGID_24_)" width="31.837" height="23.729"/>
				</g>
				<g clip-path="url(#SVGID_6_)">
					<defs>
						<polygon id="SVGID_25_" points="141.123,16.628 142.583,-20.247 105.742,-52.845 73.477,-26.197 113.961,10.021 						"/>
					</defs>
					<clipPath id="SVGID_26_">
						<use xlink:href="#SVGID_25_"  overflow="visible"/>
					</clipPath>
					
						<linearGradient id="SVGID_27_" gradientUnits="userSpaceOnUse" x1="-4.882812e-04" y1="150.8672" x2="0.9995" y2="150.8672" gradientTransform="matrix(0 69.4737 69.4737 0 -10373.2949 -52.8203)">
						<stop  offset="0" style="stop-color:#D7D6D8"/>
						<stop  offset="1" style="stop-color:#FFFFFF"/>
					</linearGradient>
					<rect x="73.477" y="-52.845" clip-path="url(#SVGID_26_)" fill="url(#SVGID_27_)" width="69.106" height="69.473"/>
				</g>
				<g clip-path="url(#SVGID_6_)">
					<defs>
						<polygon id="SVGID_28_" points="73.477,-26.197 25.727,-24.388 86.97,32.205 						"/>
					</defs>
					<clipPath id="SVGID_29_">
						<use xlink:href="#SVGID_28_"  overflow="visible"/>
					</clipPath>
					
						<linearGradient id="SVGID_30_" gradientUnits="userSpaceOnUse" x1="0" y1="150.8672" x2="1" y2="150.8672" gradientTransform="matrix(0 58.4018 58.4018 0 -8754.5645 -26.1953)">
						<stop  offset="0" style="stop-color:#D7D6D8"/>
						<stop  offset="1" style="stop-color:#FFFFFF"/>
					</linearGradient>
					<rect x="25.727" y="-26.197" clip-path="url(#SVGID_29_)" fill="url(#SVGID_30_)" width="61.243" height="58.402"/>
				</g>
				<g clip-path="url(#SVGID_6_)">
					<defs>
						<polygon id="SVGID_31_" points="34.102,127.402 34.029,127.91 34.673,127.489 34.605,127.42 						"/>
					</defs>
					<clipPath id="SVGID_32_">
						<use xlink:href="#SVGID_31_"  overflow="visible"/>
					</clipPath>
					
						<linearGradient id="SVGID_33_" gradientUnits="userSpaceOnUse" x1="-9.765625e-04" y1="150.8662" x2="1" y2="150.8662" gradientTransform="matrix(0 0.5073 0.5073 0 -42.187 127.4023)">
						<stop  offset="0" style="stop-color:#D7D6D8"/>
						<stop  offset="1" style="stop-color:#FFFFFF"/>
					</linearGradient>
					<rect x="34.029" y="127.402" clip-path="url(#SVGID_32_)" fill="url(#SVGID_33_)" width="0.644" height="0.508"/>
				</g>
				<g clip-path="url(#SVGID_6_)">
					<defs>
						<polygon id="SVGID_34_" points="142.583,-20.247 164.827,32.205 201.16,21.34 159.634,-28.462 						"/>
					</defs>
					<clipPath id="SVGID_35_">
						<use xlink:href="#SVGID_34_"  overflow="visible"/>
					</clipPath>
					
						<linearGradient id="SVGID_36_" gradientUnits="userSpaceOnUse" x1="0" y1="150.8672" x2="1" y2="150.8672" gradientTransform="matrix(0 60.667 60.667 0 -8980.7871 -28.4766)">
						<stop  offset="0" style="stop-color:#D7D6D8"/>
						<stop  offset="1" style="stop-color:#FFFFFF"/>
					</linearGradient>
					<rect x="142.583" y="-28.462" clip-path="url(#SVGID_35_)" fill="url(#SVGID_36_)" width="58.577" height="60.667"/>
				</g>
				<g clip-path="url(#SVGID_6_)">
					<defs>
						<polygon id="SVGID_37_" points="89.048,133.612 140.95,117.77 111.13,93.961 						"/>
					</defs>
					<clipPath id="SVGID_38_">
						<use xlink:href="#SVGID_37_"  overflow="visible"/>
					</clipPath>
					
						<linearGradient id="SVGID_39_" gradientUnits="userSpaceOnUse" x1="-4.882812e-04" y1="150.8672" x2="0.9995" y2="150.8672" gradientTransform="matrix(0 39.6519 39.6519 0 -5867.1685 93.9609)">
						<stop  offset="0" style="stop-color:#D7D6D8"/>
						<stop  offset="1" style="stop-color:#FFFFFF"/>
					</linearGradient>
					<rect x="89.048" y="93.961" clip-path="url(#SVGID_38_)" fill="url(#SVGID_39_)" width="51.902" height="39.651"/>
				</g>
				<g clip-path="url(#SVGID_6_)">
					<defs>
						<polygon id="SVGID_40_" points="142.583,-20.247 141.123,16.628 164.827,32.205 						"/>
					</defs>
					<clipPath id="SVGID_41_">
						<use xlink:href="#SVGID_40_"  overflow="visible"/>
					</clipPath>
					
						<linearGradient id="SVGID_42_" gradientUnits="userSpaceOnUse" x1="0" y1="150.8672" x2="1" y2="150.8672" gradientTransform="matrix(0 52.4522 52.4522 0 -7760.3452 -20.2578)">
						<stop  offset="0" style="stop-color:#D7D6D8"/>
						<stop  offset="1" style="stop-color:#FFFFFF"/>
					</linearGradient>
					<rect x="141.123" y="-20.247" clip-path="url(#SVGID_41_)" fill="url(#SVGID_42_)" width="23.704" height="52.452"/>
				</g>
				<g clip-path="url(#SVGID_6_)">
					<defs>
						<polygon id="SVGID_43_" points="34.605,127.42 34.673,127.489 34.769,127.425 						"/>
					</defs>
					<clipPath id="SVGID_44_">
						<use xlink:href="#SVGID_43_"  overflow="visible"/>
					</clipPath>
					
						<linearGradient id="SVGID_45_" gradientUnits="userSpaceOnUse" x1="0" y1="150.8633" x2="1" y2="150.8633" gradientTransform="matrix(0 0.0686 0.0686 0 24.3426 127.4198)">
						<stop  offset="0" style="stop-color:#D7D6D8"/>
						<stop  offset="1" style="stop-color:#FFFFFF"/>
					</linearGradient>
					<rect x="34.605" y="127.42" clip-path="url(#SVGID_44_)" fill="url(#SVGID_45_)" width="0.164" height="0.069"/>
				</g>
				<g clip-path="url(#SVGID_6_)">
					<defs>
						<polygon id="SVGID_46_" points="113.872,42.337 86.97,32.205 71.918,36.73 79.705,68.874 92.426,79.031 						"/>
					</defs>
					<clipPath id="SVGID_47_">
						<use xlink:href="#SVGID_46_"  overflow="visible"/>
					</clipPath>
					
						<linearGradient id="SVGID_48_" gradientUnits="userSpaceOnUse" x1="0" y1="150.8672" x2="1" y2="150.8672" gradientTransform="matrix(0 46.826 46.826 0 -6971.6074 32.2109)">
						<stop  offset="0" style="stop-color:#D7D6D8"/>
						<stop  offset="1" style="stop-color:#FFFFFF"/>
					</linearGradient>
					<rect x="71.918" y="32.205" clip-path="url(#SVGID_47_)" fill="url(#SVGID_48_)" width="41.954" height="46.826"/>
				</g>
				<g clip-path="url(#SVGID_6_)">
					<defs>
						<polygon id="SVGID_49_" points="155.484,58.01 113.872,42.337 92.426,79.031 92.504,79.092 124.341,70.232 						"/>
					</defs>
					<clipPath id="SVGID_50_">
						<use xlink:href="#SVGID_49_"  overflow="visible"/>
					</clipPath>
					
						<linearGradient id="SVGID_51_" gradientUnits="userSpaceOnUse" x1="-9.765625e-04" y1="150.8672" x2="0.999" y2="150.8672" gradientTransform="matrix(0 36.7549 36.7549 0 -5421.1455 42.3359)">
						<stop  offset="0" style="stop-color:#D7D6D8"/>
						<stop  offset="1" style="stop-color:#FFFFFF"/>
					</linearGradient>
					<rect x="92.426" y="42.337" clip-path="url(#SVGID_50_)" fill="url(#SVGID_51_)" width="63.059" height="36.754"/>
				</g>
				<g clip-path="url(#SVGID_6_)">
					<defs>
						<polygon id="SVGID_52_" points="79.705,68.874 40.181,83.889 92.369,79.129 92.426,79.031 						"/>
					</defs>
					<clipPath id="SVGID_53_">
						<use xlink:href="#SVGID_52_"  overflow="visible"/>
					</clipPath>
					
						<linearGradient id="SVGID_54_" gradientUnits="userSpaceOnUse" x1="0" y1="150.8672" x2="1.0005" y2="150.8672" gradientTransform="matrix(0 15.0137 15.0137 0 -2198.7742 68.875)">
						<stop  offset="0" style="stop-color:#D7D6D8"/>
						<stop  offset="1" style="stop-color:#FFFFFF"/>
					</linearGradient>
					<rect x="40.181" y="68.874" clip-path="url(#SVGID_53_)" fill="url(#SVGID_54_)" width="52.245" height="15.015"/>
				</g>
				<g clip-path="url(#SVGID_6_)">
					<defs>
						<polygon id="SVGID_55_" points="92.369,79.129 92.504,79.092 92.426,79.031 						"/>
					</defs>
					<clipPath id="SVGID_56_">
						<use xlink:href="#SVGID_55_"  overflow="visible"/>
					</clipPath>
					
						<linearGradient id="SVGID_57_" gradientUnits="userSpaceOnUse" x1="0" y1="150.8711" x2="1" y2="150.8711" gradientTransform="matrix(0 0.0977 0.0977 0 77.7012 79.0311)">
						<stop  offset="0" style="stop-color:#D7D6D8"/>
						<stop  offset="1" style="stop-color:#FFFFFF"/>
					</linearGradient>
					<rect x="92.369" y="79.031" clip-path="url(#SVGID_56_)" fill="url(#SVGID_57_)" width="0.135" height="0.098"/>
				</g>
				<g clip-path="url(#SVGID_6_)">
					<defs>
						<polygon id="SVGID_58_" points="113.872,42.337 155.484,58.01 138.949,19.981 						"/>
					</defs>
					<clipPath id="SVGID_59_">
						<use xlink:href="#SVGID_58_"  overflow="visible"/>
					</clipPath>
					
						<linearGradient id="SVGID_60_" gradientUnits="userSpaceOnUse" x1="4.882812e-04" y1="150.8672" x2="1.0005" y2="150.8672" gradientTransform="matrix(0 38.0293 38.0293 0 -5602.6919 19.9922)">
						<stop  offset="0" style="stop-color:#D7D6D8"/>
						<stop  offset="1" style="stop-color:#FFFFFF"/>
					</linearGradient>
					<rect x="113.872" y="19.981" clip-path="url(#SVGID_59_)" fill="url(#SVGID_60_)" width="41.612" height="38.029"/>
				</g>
				<g clip-path="url(#SVGID_6_)">
					<defs>
						<polygon id="SVGID_61_" points="86.97,32.205 25.727,-24.388 71.918,36.73 						"/>
					</defs>
					<clipPath id="SVGID_62_">
						<use xlink:href="#SVGID_61_"  overflow="visible"/>
					</clipPath>
					
						<linearGradient id="SVGID_63_" gradientUnits="userSpaceOnUse" x1="0" y1="150.8594" x2="1" y2="150.8594" gradientTransform="matrix(111.2353 165.7767 165.7767 -111.2353 -24997.5117 16720.6836)">
						<stop  offset="0" style="stop-color:#D7D6D8"/>
						<stop  offset="1" style="stop-color:#FFFFFF"/>
					</linearGradient>
					<polygon clip-path="url(#SVGID_62_)" fill="url(#SVGID_63_)" points="67.957,-52.724 115.248,17.756 44.74,65.066 
						-2.551,-5.414 					"/>
				</g>
				<g clip-path="url(#SVGID_6_)">
					<defs>
						<polygon id="SVGID_64_" points="138.949,19.981 141.123,16.628 113.961,10.021 86.97,32.205 113.872,42.337 						"/>
					</defs>
					<clipPath id="SVGID_65_">
						<use xlink:href="#SVGID_64_"  overflow="visible"/>
					</clipPath>
					
						<linearGradient id="SVGID_66_" gradientUnits="userSpaceOnUse" x1="0" y1="150.8672" x2="1" y2="150.8672" gradientTransform="matrix(0 32.3168 32.3168 0 -4761.5088 10.0234)">
						<stop  offset="0" style="stop-color:#D7D6D8"/>
						<stop  offset="1" style="stop-color:#FFFFFF"/>
					</linearGradient>
					<rect x="86.97" y="10.021" clip-path="url(#SVGID_65_)" fill="url(#SVGID_66_)" width="54.153" height="32.316"/>
				</g>
				<g clip-path="url(#SVGID_6_)">
					<defs>
						<polygon id="SVGID_67_" points="155.484,58.01 164.827,32.205 141.123,16.628 138.949,19.981 						"/>
					</defs>
					<clipPath id="SVGID_68_">
						<use xlink:href="#SVGID_67_"  overflow="visible"/>
					</clipPath>
					
						<linearGradient id="SVGID_69_" gradientUnits="userSpaceOnUse" x1="4.882812e-04" y1="150.8682" x2="1.0005" y2="150.8682" gradientTransform="matrix(0 41.382 41.382 0 -6091.3169 16.6172)">
						<stop  offset="0" style="stop-color:#D7D6D8"/>
						<stop  offset="1" style="stop-color:#FFFFFF"/>
					</linearGradient>
					<rect x="138.949" y="16.628" clip-path="url(#SVGID_68_)" fill="url(#SVGID_69_)" width="25.878" height="41.382"/>
				</g>
				<g clip-path="url(#SVGID_6_)">
					<defs>
						<polygon id="SVGID_70_" points="140.95,117.77 89.048,133.612 134.109,156.983 156.272,156.983 195.449,130.442 						"/>
					</defs>
					<clipPath id="SVGID_71_">
						<use xlink:href="#SVGID_70_"  overflow="visible"/>
					</clipPath>
					
						<linearGradient id="SVGID_72_" gradientUnits="userSpaceOnUse" x1="4.882812e-04" y1="150.8672" x2="1.0005" y2="150.8672" gradientTransform="matrix(0 54.3185 54.3185 0 -8052.6309 117.7734)">
						<stop  offset="0" style="stop-color:#D7D6D8"/>
						<stop  offset="1" style="stop-color:#FFFFFF"/>
					</linearGradient>
					<rect x="89.048" y="117.77" clip-path="url(#SVGID_71_)" fill="url(#SVGID_72_)" width="106.401" height="39.214"/>
				</g>
				<g clip-path="url(#SVGID_6_)">
					<defs>
						<polygon id="SVGID_73_" points="34.102,127.402 34.605,127.42 -2.625,114.145 -2.625,141.406 34.029,127.91 						"/>
					</defs>
					<clipPath id="SVGID_74_">
						<use xlink:href="#SVGID_73_"  overflow="visible"/>
					</clipPath>
					
						<linearGradient id="SVGID_75_" gradientUnits="userSpaceOnUse" x1="0" y1="150.8672" x2="0.9995" y2="150.8672" gradientTransform="matrix(0 27.2622 27.2622 0 -4096.9814 114.1484)">
						<stop  offset="0" style="stop-color:#D7D6D8"/>
						<stop  offset="1" style="stop-color:#FFFFFF"/>
					</linearGradient>
					<rect x="-2.625" y="114.145" clip-path="url(#SVGID_74_)" fill="url(#SVGID_75_)" width="37.23" height="27.262"/>
				</g>
				<g clip-path="url(#SVGID_6_)">
					<defs>
						<polygon id="SVGID_76_" points="25.727,-24.388 -2.625,-22.207 -2.625,40.306 19.499,43.521 						"/>
					</defs>
					<clipPath id="SVGID_77_">
						<use xlink:href="#SVGID_76_"  overflow="visible"/>
					</clipPath>
					
						<linearGradient id="SVGID_78_" gradientUnits="userSpaceOnUse" x1="0" y1="150.9023" x2="1" y2="150.9023" gradientTransform="matrix(-43.9323 -6.7016 -6.7016 43.9323 1036.9196 -6617.79)">
						<stop  offset="0" style="stop-color:#D7D6D8"/>
						<stop  offset="1" style="stop-color:#FFFFFF"/>
					</linearGradient>
					<polygon clip-path="url(#SVGID_77_)" fill="url(#SVGID_78_)" points="25.082,47.748 -12.749,41.977 -1.98,-28.614 
						35.851,-22.844 					"/>
				</g>
				<g clip-path="url(#SVGID_6_)">
					<defs>
						<polygon id="SVGID_79_" points="34.673,127.489 34.029,127.91 8.957,156.983 37.934,156.983 						"/>
					</defs>
					<clipPath id="SVGID_80_">
						<use xlink:href="#SVGID_79_"  overflow="visible"/>
					</clipPath>
					
						<linearGradient id="SVGID_81_" gradientUnits="userSpaceOnUse" x1="0" y1="150.8672" x2="1" y2="150.8672" gradientTransform="matrix(0 29.4948 29.4948 0 -4426.3418 127.4922)">
						<stop  offset="0" style="stop-color:#D7D6D8"/>
						<stop  offset="1" style="stop-color:#FFFFFF"/>
					</linearGradient>
					<rect x="8.957" y="127.489" clip-path="url(#SVGID_80_)" fill="url(#SVGID_81_)" width="28.977" height="29.494"/>
				</g>
				<g clip-path="url(#SVGID_6_)">
					<defs>
						<polygon id="SVGID_82_" points="-2.625,141.406 -2.625,156.983 8.957,156.983 34.029,127.91 						"/>
					</defs>
					<clipPath id="SVGID_83_">
						<use xlink:href="#SVGID_82_"  overflow="visible"/>
					</clipPath>
					
						<linearGradient id="SVGID_84_" gradientUnits="userSpaceOnUse" x1="0" y1="150.8672" x2="1" y2="150.8672" gradientTransform="matrix(0 42.3921 42.3921 0 -6379.8823 127.8984)">
						<stop  offset="0" style="stop-color:#D7D6D8"/>
						<stop  offset="1" style="stop-color:#FFFFFF"/>
					</linearGradient>
					<rect x="-2.625" y="127.91" clip-path="url(#SVGID_83_)" fill="url(#SVGID_84_)" width="36.654" height="29.073"/>
				</g>
				<g clip-path="url(#SVGID_6_)">
					<defs>
						<polygon id="SVGID_85_" points="34.769,127.425 62.287,98.951 39.443,84.092 -2.625,105.565 -2.625,114.145 34.605,127.42 
													"/>
					</defs>
					<clipPath id="SVGID_86_">
						<use xlink:href="#SVGID_85_"  overflow="visible"/>
					</clipPath>
					
						<linearGradient id="SVGID_87_" gradientUnits="userSpaceOnUse" x1="4.882812e-04" y1="150.8672" x2="1.0005" y2="150.8672" gradientTransform="matrix(0 43.3329 43.3329 0 -6507.6709 84.0859)">
						<stop  offset="0" style="stop-color:#D7D6D8"/>
						<stop  offset="1" style="stop-color:#FFFFFF"/>
					</linearGradient>
					<rect x="-2.625" y="84.092" clip-path="url(#SVGID_86_)" fill="url(#SVGID_87_)" width="64.912" height="43.333"/>
				</g>
				<g clip-path="url(#SVGID_6_)">
					<defs>
						<polygon id="SVGID_88_" points="37.644,58.879 19.499,43.521 -2.625,40.306 -2.625,101.739 37.131,58.858 						"/>
					</defs>
					<clipPath id="SVGID_89_">
						<use xlink:href="#SVGID_88_"  overflow="visible"/>
					</clipPath>
					
						<linearGradient id="SVGID_90_" gradientUnits="userSpaceOnUse" x1="0" y1="150.8672" x2="1" y2="150.8672" gradientTransform="matrix(0 61.433 61.433 0 -9250.7227 40.3047)">
						<stop  offset="0" style="stop-color:#D7D6D8"/>
						<stop  offset="1" style="stop-color:#FFFFFF"/>
					</linearGradient>
					<rect x="-2.625" y="40.306" clip-path="url(#SVGID_89_)" fill="url(#SVGID_90_)" width="40.269" height="61.433"/>
				</g>
				<g clip-path="url(#SVGID_6_)">
					<defs>
						<polygon id="SVGID_91_" points="39.443,84.092 37.644,58.879 37.131,58.858 -2.625,101.739 -2.625,105.565 						"/>
					</defs>
					<clipPath id="SVGID_92_">
						<use xlink:href="#SVGID_91_"  overflow="visible"/>
					</clipPath>
					
						<linearGradient id="SVGID_93_" gradientUnits="userSpaceOnUse" x1="4.882812e-04" y1="150.8672" x2="1.0005" y2="150.8672" gradientTransform="matrix(0 46.707 46.707 0 -7028.1431 58.8672)">
						<stop  offset="0" style="stop-color:#D7D6D8"/>
						<stop  offset="1" style="stop-color:#FFFFFF"/>
					</linearGradient>
					<rect x="-2.625" y="58.858" clip-path="url(#SVGID_92_)" fill="url(#SVGID_93_)" width="42.068" height="46.707"/>
				</g>
				<g clip-path="url(#SVGID_6_)">
					<defs>
						<polygon id="SVGID_94_" points="71.918,36.73 19.499,43.521 37.644,58.879 79.705,68.874 						"/>
					</defs>
					<clipPath id="SVGID_95_">
						<use xlink:href="#SVGID_94_"  overflow="visible"/>
					</clipPath>
					
						<linearGradient id="SVGID_96_" gradientUnits="userSpaceOnUse" x1="-4.882812e-04" y1="150.8662" x2="0.9995" y2="150.8662" gradientTransform="matrix(0 32.1439 32.1439 0 -4799.8682 36.7266)">
						<stop  offset="0" style="stop-color:#D7D6D8"/>
						<stop  offset="1" style="stop-color:#FFFFFF"/>
					</linearGradient>
					<rect x="19.499" y="36.73" clip-path="url(#SVGID_95_)" fill="url(#SVGID_96_)" width="60.206" height="32.144"/>
				</g>
				<g clip-path="url(#SVGID_6_)">
					<defs>
						<polygon id="SVGID_97_" points="74.653,156.983 134.109,156.983 89.048,133.612 						"/>
					</defs>
					<clipPath id="SVGID_98_">
						<use xlink:href="#SVGID_97_"  overflow="visible"/>
					</clipPath>
					
						<linearGradient id="SVGID_99_" gradientUnits="userSpaceOnUse" x1="0" y1="150.8672" x2="1" y2="150.8672" gradientTransform="matrix(0 35.8163 35.8163 0 -5299.1348 133.6172)">
						<stop  offset="0" style="stop-color:#D7D6D8"/>
						<stop  offset="1" style="stop-color:#FFFFFF"/>
					</linearGradient>
					<rect x="74.653" y="133.612" clip-path="url(#SVGID_98_)" fill="url(#SVGID_99_)" width="59.456" height="23.371"/>
				</g>
				<g clip-path="url(#SVGID_6_)">
					<defs>
						<polygon id="SVGID_100_" points="111.13,93.961 92.504,79.092 92.369,79.129 92.231,79.363 62.287,98.951 89.048,133.612 
													"/>
					</defs>
					<clipPath id="SVGID_101_">
						<use xlink:href="#SVGID_100_"  overflow="visible"/>
					</clipPath>
					
						<linearGradient id="SVGID_102_" gradientUnits="userSpaceOnUse" x1="0" y1="150.8672" x2="1" y2="150.8672" gradientTransform="matrix(0 54.5201 54.5201 0 -8138.5752 79.0859)">
						<stop  offset="0" style="stop-color:#D7D6D8"/>
						<stop  offset="1" style="stop-color:#FFFFFF"/>
					</linearGradient>
					<rect x="62.287" y="79.092" clip-path="url(#SVGID_101_)" fill="url(#SVGID_102_)" width="48.843" height="54.521"/>
				</g>
				<g clip-path="url(#SVGID_6_)">
					<defs>
						<polygon id="SVGID_103_" points="34.769,127.425 34.673,127.489 37.934,156.983 74.653,156.983 89.048,133.612 						"/>
					</defs>
					<clipPath id="SVGID_104_">
						<use xlink:href="#SVGID_103_"  overflow="visible"/>
					</clipPath>
					
						<linearGradient id="SVGID_105_" gradientUnits="userSpaceOnUse" x1="0" y1="150.873" x2="1" y2="150.873" gradientTransform="matrix(-0.5108 30.8759 30.8759 0.5108 -4596.2417 50.1825)">
						<stop  offset="0" style="stop-color:#D7D6D8"/>
						<stop  offset="1" style="stop-color:#FFFFFF"/>
					</linearGradient>
					<polygon clip-path="url(#SVGID_104_)" fill="url(#SVGID_105_)" points="89.537,127.434 89.033,157.883 34.184,156.976 
						34.688,126.526 					"/>
				</g>
				<g clip-path="url(#SVGID_6_)">
					<defs>
						<polygon id="SVGID_106_" points="62.287,98.951 34.769,127.425 89.048,133.612 						"/>
					</defs>
					<clipPath id="SVGID_107_">
						<use xlink:href="#SVGID_106_"  overflow="visible"/>
					</clipPath>
					
						<linearGradient id="SVGID_108_" gradientUnits="userSpaceOnUse" x1="0" y1="150.8672" x2="1" y2="150.8672" gradientTransform="matrix(0 34.6614 34.6614 0 -5167.3647 98.9609)">
						<stop  offset="0" style="stop-color:#D7D6D8"/>
						<stop  offset="1" style="stop-color:#FFFFFF"/>
					</linearGradient>
					<rect x="34.769" y="98.951" clip-path="url(#SVGID_107_)" fill="url(#SVGID_108_)" width="54.279" height="34.661"/>
				</g>
				<g clip-path="url(#SVGID_6_)">
					<defs>
						<polygon id="SVGID_109_" points="92.369,79.129 40.181,83.889 39.741,84.266 40.181,83.889 39.443,84.092 62.287,98.951 
							92.231,79.363 						"/>
					</defs>
					<clipPath id="SVGID_110_">
						<use xlink:href="#SVGID_109_"  overflow="visible"/>
					</clipPath>
					
						<linearGradient id="SVGID_111_" gradientUnits="userSpaceOnUse" x1="4.882812e-04" y1="150.8672" x2="1.0005" y2="150.8672" gradientTransform="matrix(0 19.8223 19.8223 0 -2924.6296 79.1328)">
						<stop  offset="0" style="stop-color:#D7D6D8"/>
						<stop  offset="1" style="stop-color:#FFFFFF"/>
					</linearGradient>
					<rect x="39.443" y="79.129" clip-path="url(#SVGID_110_)" fill="url(#SVGID_111_)" width="52.926" height="19.822"/>
				</g>
				<g clip-path="url(#SVGID_6_)">
					<defs>
						<polygon id="SVGID_112_" points="79.705,68.874 37.644,58.879 39.443,84.092 40.181,83.889 						"/>
					</defs>
					<clipPath id="SVGID_113_">
						<use xlink:href="#SVGID_112_"  overflow="visible"/>
					</clipPath>
					
						<linearGradient id="SVGID_114_" gradientUnits="userSpaceOnUse" x1="0" y1="150.8672" x2="1" y2="150.8672" gradientTransform="matrix(0 25.2132 25.2132 0 -3745.1675 58.8828)">
						<stop  offset="0" style="stop-color:#D7D6D8"/>
						<stop  offset="1" style="stop-color:#FFFFFF"/>
					</linearGradient>
					<rect x="37.644" y="58.879" clip-path="url(#SVGID_113_)" fill="url(#SVGID_114_)" width="42.061" height="25.212"/>
				</g>
				<g clip-path="url(#SVGID_6_)">
					<defs>
						<polygon id="SVGID_115_" points="25.727,-24.388 19.499,43.521 71.918,36.73 						"/>
					</defs>
					<clipPath id="SVGID_116_">
						<use xlink:href="#SVGID_115_"  overflow="visible"/>
					</clipPath>
					
						<linearGradient id="SVGID_117_" gradientUnits="userSpaceOnUse" x1="9.765625e-04" y1="150.8682" x2="1.001" y2="150.8682" gradientTransform="matrix(0 67.9091 67.9091 0 -10199.5654 -24.3828)">
						<stop  offset="0" style="stop-color:#D7D6D8"/>
						<stop  offset="1" style="stop-color:#FFFFFF"/>
					</linearGradient>
					<rect x="19.499" y="-24.388" clip-path="url(#SVGID_116_)" fill="url(#SVGID_117_)" width="52.419" height="67.909"/>
				</g>
			</g>
		</g>
	</g>
	<g clip-path="url(#SVGID_2_)">
		<defs>
			<path id="SVGID_118_" d="M76.265,110.428c-1.391,4.874-7.053,8.524-13.835,8.524c-5.078,0-9.52-2.052-12.021-5.125
				c-1.864,4.325-7.176,7.45-13.45,7.45c-5.607,0-10.439-2.5-12.736-6.117c-2.298,3.617-7.13,6.117-12.736,6.117
				c-4.726,0-8.911-1.772-11.486-4.494v34.084h148.972v-34.565c-2.838-0.833-5.234-2.346-6.857-4.276
				c-2.681,4.111-8.077,6.927-14.313,6.927c-6.615,0-12.293-3.165-14.774-7.69c-2.568,5.82-9.741,10.016-18.208,10.016
				c-8.866,0-16.31-4.601-18.533-10.85H76.265z"/>
		</defs>
		<clipPath id="SVGID_119_">
			<use xlink:href="#SVGID_118_"  overflow="visible"/>
		</clipPath>
		
			<linearGradient id="SVGID_120_" gradientUnits="userSpaceOnUse" x1="0" y1="150.1152" x2="1" y2="150.1152" gradientTransform="matrix(0 70.2282 70.2282 0 -10467.7578 87.1172)">
			<stop  offset="0" style="stop-color:#F1C16D"/>
			<stop  offset="0.1561" style="stop-color:#F1BE66"/>
			<stop  offset="0.386" style="stop-color:#F1B652"/>
			<stop  offset="0.6613" style="stop-color:#F2AA32"/>
			<stop  offset="0.9696" style="stop-color:#F29805"/>
			<stop  offset="1" style="stop-color:#F29600"/>
		</linearGradient>
		<rect y="110.428" clip-path="url(#SVGID_119_)" fill="url(#SVGID_120_)" width="148.972" height="40.439"/>
	</g>
	<g clip-path="url(#SVGID_2_)">
		<defs>
			<rect id="SVGID_121_" width="148.972" height="150.867"/>
		</defs>
		<clipPath id="SVGID_122_">
			<use xlink:href="#SVGID_121_"  overflow="visible"/>
		</clipPath>
		<path clip-path="url(#SVGID_122_)" fill="#595757" d="M55.748,94.706l-14.473,43.641c-1.452,4.379,0.943,9.151,5.322,10.604
			c4.38,1.452,9.152-0.943,10.605-5.323l14.472-43.64c-2.39-1.349-4.964-2.504-7.707-3.413
			C61.225,95.665,58.47,95.054,55.748,94.706"/>
		<path clip-path="url(#SVGID_122_)" fill="#EEB457" d="M53.879,93.707l-14.473,43.642c-1.452,4.379,0.943,9.15,5.322,10.604
			c4.38,1.452,9.152-0.942,10.605-5.323l14.472-43.64c-2.39-1.348-4.964-2.504-7.707-3.413
			C59.355,94.666,56.601,94.056,53.879,93.707"/>
		<path clip-path="url(#SVGID_122_)" fill="#EEB457" d="M113.009,62.663c6.753-20.361-4.278-42.341-24.641-49.094
			c-20.361-6.752-42.341,4.28-49.094,24.641c-5.959,17.969,1.939,37.193,17.871,46.104c-0.239,0.437-0.448,0.896-0.61,1.384
			l-0.333,1.006c2.714,0.454,5.446,1.117,8.169,2.021c2.722,0.903,5.309,2.003,7.757,3.26l0.334-1.005
			c0.202-0.609,0.322-1.228,0.38-1.843C90.343,90.642,107.238,80.064,113.009,62.663 M66.305,80.098
			C49.923,74.665,41.048,56.981,46.48,40.6c5.433-16.382,23.117-25.258,39.5-19.825c16.381,5.433,25.257,23.117,19.823,39.498
			C100.37,76.655,82.687,85.531,66.305,80.098"/>
		
			<line clip-path="url(#SVGID_122_)" fill="none" stroke="#FFFFFF" stroke-linecap="round" stroke-miterlimit="10" x1="55.081" y1="102.88" x2="43.437" y2="137.99"/>
		<g opacity="0.7" clip-path="url(#SVGID_122_)">
			<g>
				<defs>
					<rect id="SVGID_123_" x="40.85" y="15.144" width="70.583" height="70.584"/>
				</defs>
				<clipPath id="SVGID_124_">
					<use xlink:href="#SVGID_123_"  overflow="visible"/>
				</clipPath>
				<path clip-path="url(#SVGID_124_)" fill="#FFFFFF" d="M111.435,50.437c0,19.491-15.801,35.292-35.292,35.292
					S40.851,69.927,40.851,50.437c0-19.491,15.801-35.292,35.292-35.292S111.435,30.945,111.435,50.437"/>
			</g>
		</g>
		<polygon clip-path="url(#SVGID_122_)" fill="#444344" points="50.538,40.619 50.538,46.023 56.096,46.023 56.096,47.234 
			50.538,47.234 50.538,53.748 49.128,53.748 49.128,39.398 56.542,39.398 56.542,40.619 		"/>
		<rect x="59.168" y="41.664" clip-path="url(#SVGID_122_)" fill="#444344" width="1.188" height="12.084"/>
		<path clip-path="url(#SVGID_122_)" fill="#444344" d="M72.46,53.748l-7.11-9.699c-0.089-0.123-0.178-0.25-0.264-0.379
			c-0.087-0.13-0.156-0.256-0.21-0.379h-0.044c0.011,0.101,0.022,0.241,0.03,0.421c0.01,0.18,0.014,0.404,0.014,0.674v9.362h-1.188
			V41.664h1.313l6.994,9.581c0.107,0.152,0.204,0.294,0.29,0.426c0.087,0.132,0.166,0.254,0.237,0.366h0.044
			c-0.023-0.185-0.041-0.392-0.052-0.623c-0.013-0.231-0.018-0.486-0.018-0.767v-8.983h1.196v12.084H72.46z"/>
		<path clip-path="url(#SVGID_122_)" fill="#444344" d="M77.326,53.748v-14.35h3.998c2.604,0,4.568,0.589,5.898,1.767
			c1.329,1.177,1.994,2.916,1.994,5.218c0,1.107-0.187,2.115-0.558,3.022c-0.37,0.907-0.906,1.683-1.606,2.327
			c-0.699,0.643-1.548,1.14-2.546,1.49c-0.996,0.351-2.121,0.526-3.373,0.526H77.326z M78.736,40.619v11.917h2.334
			c1.046,0,1.981-0.132,2.806-0.4c0.823-0.266,1.521-0.658,2.095-1.175c0.573-0.517,1.009-1.156,1.311-1.916
			c0.301-0.761,0.45-1.635,0.45-2.622c0-3.869-2.167-5.804-6.502-5.804H78.736z"/>
		<rect x="91.95" y="41.664" clip-path="url(#SVGID_122_)" fill="#444344" width="1.188" height="12.084"/>
		<polygon clip-path="url(#SVGID_122_)" fill="#444344" points="100.132,42.692 100.132,53.748 98.943,53.748 98.943,42.692 
			95.255,42.692 95.255,41.664 103.83,41.664 103.83,42.692 		"/>
		<path clip-path="url(#SVGID_122_)" fill="#3E3A39" d="M49.64,57.147h1.422c0.255,0,0.382,0.13,0.382,0.389
			c0,0.039-0.024,0.105-0.072,0.197c-0.103,0.159-0.247,0.318-0.43,0.478c-0.191,0.159-0.41,0.304-0.657,0.436
			c-0.127,0.067-0.275,0.135-0.442,0.203h0.789c0.286,0,0.43,0.143,0.43,0.43v0.311c0,0.286-0.144,0.43-0.43,0.43h-0.765
			c-0.127,0-0.191,0.061-0.191,0.185v0.34c0,0.128,0.064,0.191,0.191,0.191h0.765c0.286,0,0.43,0.144,0.43,0.431
			c-0.02,0.489-0.074,0.844-0.162,1.063c-0.043,0.135-0.135,0.221-0.274,0.257c-0.112,0.043-0.265,0.065-0.46,0.065
			c-0.271,0-0.613-0.071-1.028-0.215c-0.056-0.036-0.087-0.083-0.095-0.143c0.004-0.108,0.062-0.164,0.173-0.167h0.042
			c0.39,0.143,0.691,0.215,0.902,0.215c0.111,0,0.199-0.01,0.263-0.03c0.071-0.024,0.121-0.06,0.149-0.108
			c0.048-0.068,0.084-0.177,0.107-0.328c0.048-0.203,0.072-0.391,0.072-0.562c0-0.127-0.063-0.191-0.191-0.191h-0.765
			c-0.286,0-0.43-0.143-0.43-0.43v-0.43c0-0.287,0.144-0.43,0.43-0.43h0.765c0.128,0,0.191-0.064,0.191-0.191v-0.215
			c0-0.128-0.063-0.191-0.191-0.191h-0.842c-0.108,0-0.162-0.048-0.162-0.144c0-0.012,0.003-0.022,0.006-0.03
			c-0.159,0.056-0.33,0.114-0.513,0.174c-0.032,0.007-0.068,0.012-0.108,0.012c-0.119-0.005-0.181-0.057-0.185-0.156
			c0.012-0.064,0.046-0.11,0.102-0.137c0.557-0.16,0.937-0.285,1.141-0.376c-0.12-0.124-0.233-0.232-0.341-0.323
			c-0.107-0.088-0.249-0.191-0.424-0.311c-0.048-0.051-0.072-0.095-0.072-0.131c0.016-0.072,0.064-0.116,0.144-0.131
			c0.044,0,0.087,0.02,0.131,0.059c0.175,0.12,0.32,0.223,0.436,0.311c0.116,0.099,0.239,0.217,0.37,0.352
			c0.012,0.016,0.02,0.032,0.024,0.048c0.176-0.088,0.317-0.176,0.424-0.263c0.164-0.128,0.293-0.253,0.389-0.376
			c0.036-0.056,0.053-0.1,0.053-0.131c0-0.096-0.047-0.144-0.143-0.144h-1.35c-0.092-0.004-0.139-0.051-0.143-0.143
			C49.501,57.209,49.548,57.159,49.64,57.147 M52.388,58.73h0.43c0.287,0,0.43,0.144,0.43,0.431v0.477
			c0,0.144,0.072,0.215,0.215,0.215h0.269c0.048,0,0.086-0.012,0.113-0.035c0.032-0.021,0.048-0.054,0.048-0.102l0.036-0.287
			c0.008-0.111,0.06-0.169,0.155-0.173c0.104,0.004,0.158,0.062,0.162,0.173l-0.06,0.424c-0.004,0.088-0.04,0.158-0.108,0.209
			c-0.087,0.052-0.181,0.078-0.28,0.078h-0.437c-0.282,0-0.424-0.143-0.424-0.43v-0.454c0-0.159-0.079-0.239-0.239-0.239h-0.454
			c-0.163,0-0.244,0.08-0.244,0.239c0,0.199-0.016,0.356-0.048,0.472c-0.052,0.143-0.126,0.263-0.221,0.358
			c-0.092,0.092-0.217,0.175-0.377,0.251c-0.011,0-0.021,0.002-0.029,0.006c-0.116-0.012-0.176-0.064-0.18-0.155
			c0.004-0.072,0.038-0.12,0.102-0.143c0.099-0.052,0.185-0.112,0.257-0.18c0.068-0.059,0.121-0.143,0.161-0.251
			c0.036-0.095,0.054-0.247,0.054-0.453c0-0.287,0.143-0.431,0.43-0.431H52.388z M51.743,60.403h1.613
			c0.206,0,0.31,0.103,0.31,0.311c0,0.059-0.036,0.194-0.107,0.406c-0.12,0.275-0.265,0.496-0.436,0.663
			c-0.044,0.043-0.092,0.083-0.144,0.119c0.036,0.016,0.068,0.03,0.096,0.042c0.243,0.103,0.637,0.221,1.183,0.353
			c0.067,0.023,0.105,0.069,0.113,0.137c-0.012,0.087-0.062,0.137-0.149,0.149c-0.024,0-0.07-0.008-0.138-0.024
			c-0.478-0.111-0.896-0.251-1.254-0.418c-0.044-0.016-0.084-0.034-0.12-0.054c-0.075,0.048-0.159,0.092-0.25,0.132
			c-0.255,0.127-0.6,0.247-1.034,0.358c-0.024,0.004-0.048,0.006-0.072,0.006c-0.115-0.004-0.177-0.062-0.185-0.173
			c0.004-0.044,0.034-0.086,0.09-0.125c0.414-0.084,0.737-0.176,0.968-0.275c0.071-0.032,0.135-0.062,0.191-0.09
			c-0.1-0.06-0.194-0.125-0.281-0.197c-0.183-0.155-0.335-0.328-0.454-0.52c-0.024-0.04-0.036-0.08-0.036-0.119
			c0.008-0.08,0.056-0.124,0.144-0.131c0.051,0,0.097,0.027,0.137,0.083c0.123,0.191,0.275,0.359,0.454,0.502
			c0.095,0.075,0.203,0.149,0.322,0.221c0.056-0.04,0.104-0.078,0.144-0.114c0.175-0.143,0.312-0.316,0.412-0.519
			c0.064-0.148,0.096-0.255,0.096-0.323c0-0.076-0.044-0.113-0.132-0.113h-1.481c-0.092-0.004-0.14-0.052-0.144-0.144
			C51.604,60.459,51.651,60.411,51.743,60.403 M53.249,57.034c0.08,0.012,0.128,0.056,0.143,0.131c0,0.056-0.021,0.104-0.065,0.144
			c-0.227,0.239-0.49,0.452-0.789,0.639c0.132,0.119,0.287,0.235,0.466,0.346c0.012-0.012,0.022-0.02,0.03-0.024
			c0.311-0.179,0.589-0.392,0.836-0.639c0.04-0.047,0.088-0.071,0.144-0.071c0.079,0.012,0.127,0.055,0.143,0.131
			c0,0.056-0.022,0.104-0.066,0.143c-0.235,0.231-0.502,0.436-0.8,0.616c0.251,0.115,0.597,0.242,1.039,0.382
			c0.068,0.024,0.106,0.069,0.114,0.137c-0.012,0.088-0.062,0.138-0.15,0.15c-0.027,0-0.075-0.01-0.143-0.03
			c-0.486-0.148-0.91-0.329-1.272-0.544c-0.267-0.155-0.502-0.337-0.705-0.543c-0.191-0.203-0.347-0.427-0.466-0.669
			c-0.024-0.04-0.036-0.08-0.036-0.12c0.008-0.08,0.056-0.123,0.143-0.131c0.052,0,0.098,0.028,0.138,0.083
			c0.103,0.212,0.231,0.401,0.382,0.568c0.287-0.179,0.544-0.388,0.771-0.627C53.145,57.058,53.192,57.034,53.249,57.034"/>
		<path clip-path="url(#SVGID_122_)" fill="#3E3A39" d="M56.713,57.393c0.087,0.004,0.135,0.052,0.143,0.143
			c-0.008,0.092-0.056,0.14-0.143,0.144h-0.634v1.696h0.562c0.092,0.004,0.139,0.052,0.143,0.144
			c-0.004,0.091-0.051,0.139-0.143,0.143h-0.562v1.989c0.02-0.004,0.036-0.008,0.048-0.012c0.207-0.072,0.386-0.147,0.538-0.227
			c0.051-0.032,0.091-0.05,0.119-0.054c0.104,0.016,0.159,0.064,0.167,0.144c0,0.051-0.014,0.091-0.041,0.119
			c-0.144,0.084-0.307,0.161-0.49,0.233c-0.147,0.06-0.321,0.121-0.52,0.185c-0.223,0.072-0.49,0.139-0.8,0.203l-0.042,0.012
			c-0.1-0.016-0.153-0.076-0.161-0.179c0-0.068,0.044-0.118,0.131-0.149c0.291-0.056,0.518-0.108,0.681-0.156
			c0.024-0.004,0.044-0.01,0.06-0.017v-2.091h-0.61c-0.091-0.004-0.139-0.052-0.143-0.143c0.004-0.092,0.052-0.14,0.143-0.144h0.61
			V57.68h-0.711c-0.088-0.004-0.134-0.052-0.137-0.144c0.003-0.091,0.049-0.139,0.137-0.143H56.713z M57.656,57.147h1.936
			c0.318,0,0.478,0.161,0.478,0.484v2.485c0,0.318-0.16,0.478-0.478,0.478h-0.383v1.433c0,0.159,0.08,0.239,0.239,0.239h0.586
			c0.059,0,0.107-0.05,0.143-0.149c0.028-0.06,0.044-0.325,0.048-0.795c0-0.099,0.056-0.151,0.167-0.155
			c0.096,0.008,0.147,0.078,0.155,0.209c0,0.175-0.008,0.366-0.023,0.574c-0.012,0.218-0.06,0.376-0.144,0.472
			c-0.087,0.103-0.203,0.155-0.346,0.155h-0.705c-0.287,0-0.43-0.143-0.43-0.43v-1.553h-0.687v0.018c0,0.286-0.032,0.543-0.096,0.77
			c-0.044,0.163-0.119,0.32-0.227,0.472c-0.119,0.163-0.272,0.299-0.46,0.406c-0.199,0.12-0.428,0.225-0.687,0.317
			c-0.039,0.015-0.091,0.024-0.155,0.024c-0.087-0.021-0.141-0.074-0.161-0.162c0.004-0.095,0.05-0.157,0.137-0.185
			c0.235-0.08,0.438-0.163,0.609-0.251c0.16-0.087,0.281-0.177,0.365-0.268c0.115-0.116,0.203-0.255,0.263-0.419
			c0.067-0.195,0.101-0.43,0.101-0.704c0-0.012,0.002-0.018,0.006-0.018h-0.251c-0.318,0-0.478-0.16-0.478-0.478v-2.485
			C57.178,57.309,57.338,57.147,57.656,57.147 M57.489,58.205h2.27V57.68c0-0.159-0.08-0.239-0.239-0.239h-1.792
			c-0.159,0-0.239,0.08-0.239,0.239V58.205z M57.489,59.232h2.27v-0.741h-2.27V59.232z M59.521,60.308
			c0.159,0,0.239-0.08,0.239-0.239V59.52h-2.27v0.549c0,0.159,0.08,0.239,0.239,0.239H59.521z"/>
		<path clip-path="url(#SVGID_122_)" fill="#3E3A39" d="M63.092,57.87c0.092,0.004,0.139,0.052,0.143,0.144
			c-0.004,0.091-0.051,0.139-0.143,0.143h-0.741v0.884h0.98c0.091,0.004,0.141,0.051,0.149,0.143
			c-0.008,0.092-0.058,0.14-0.149,0.144h-0.98v0.812h0.741c0.092,0.004,0.139,0.052,0.143,0.143
			c-0.004,0.092-0.051,0.14-0.143,0.144h-0.741v1.583c0.132,0.063,0.285,0.111,0.46,0.143c0.331,0.075,0.699,0.114,1.105,0.114
			h2.628c0.1,0.003,0.152,0.051,0.156,0.143c-0.012,0.087-0.064,0.135-0.156,0.143h-2.526c-0.446,0-0.843-0.034-1.189-0.101
			c-0.386-0.076-0.679-0.194-0.878-0.353c-0.143-0.104-0.285-0.286-0.424-0.549c-0.056,0.294-0.132,0.589-0.227,0.884
			c-0.036,0.063-0.092,0.095-0.167,0.095c-0.076-0.02-0.124-0.069-0.144-0.149c0-0.032,0.008-0.072,0.024-0.119
			c0.12-0.327,0.213-0.696,0.281-1.105c0.048-0.311,0.074-0.714,0.078-1.207c0.008-0.092,0.055-0.14,0.143-0.143
			c0.087,0.003,0.135,0.055,0.143,0.155c0,0.39-0.018,0.744-0.054,1.063c0.012,0.016,0.02,0.034,0.024,0.054
			c0.156,0.366,0.301,0.613,0.436,0.741v-2.491h-0.908c-0.091-0.004-0.139-0.052-0.143-0.144c0.004-0.092,0.052-0.139,0.143-0.143
			h0.908v-0.884h-0.645c-0.091-0.004-0.139-0.052-0.143-0.143c0.004-0.092,0.052-0.14,0.143-0.144h0.645v-0.723
			c0.004-0.087,0.052-0.133,0.144-0.137c0.091,0.004,0.139,0.05,0.143,0.137v0.723H63.092z M63.953,57.034
			c0.084,0.008,0.131,0.054,0.143,0.137c-0.024,0.132-0.051,0.249-0.083,0.353h1.995c0.287,0,0.43,0.143,0.43,0.43
			c-0.016,0.561-0.054,0.968-0.114,1.218c-0.027,0.156-0.095,0.255-0.203,0.299c-0.075,0.048-0.185,0.072-0.328,0.072
			c-0.152,0-0.343-0.024-0.574-0.072c-0.051-0.032-0.081-0.076-0.089-0.131c0.004-0.096,0.057-0.148,0.161-0.156h0.024
			c0.203,0.048,0.36,0.072,0.472,0.072c0.068,0,0.121-0.014,0.161-0.042c0.044-0.024,0.074-0.064,0.09-0.119
			c0.032-0.084,0.053-0.215,0.065-0.394c0.032-0.244,0.048-0.469,0.048-0.675c0-0.16-0.08-0.239-0.239-0.239h-0.902v0.561
			c0,0.12-0.01,0.227-0.03,0.323h0.407c0.095,0,0.143-0.048,0.143-0.144v-0.251c0-0.103,0.048-0.155,0.143-0.155
			c0.096,0,0.144,0.052,0.144,0.155v0.299c0,0.239-0.12,0.359-0.359,0.359h-0.561c-0.068,0.146-0.165,0.27-0.293,0.37
			c-0.111,0.087-0.241,0.165-0.388,0.233c-0.04,0.036-0.084,0.054-0.132,0.054c-0.055-0.012-0.095-0.036-0.119-0.072
			c-0.024,0.131-0.052,0.247-0.084,0.346h2.151c0.286,0,0.43,0.144,0.43,0.43c-0.016,0.582-0.054,1-0.114,1.255
			c-0.032,0.163-0.099,0.264-0.203,0.304c-0.075,0.052-0.185,0.078-0.328,0.078c-0.14,0-0.315-0.04-0.526-0.119
			c-0.052-0.033-0.082-0.076-0.09-0.132c0.004-0.099,0.058-0.151,0.162-0.155h0.018c0.187,0.079,0.33,0.119,0.43,0.119
			c0.068,0,0.121-0.014,0.161-0.041c0.044-0.024,0.074-0.066,0.09-0.126c0.032-0.088,0.053-0.225,0.065-0.412
			c0.032-0.251,0.048-0.484,0.048-0.699c0-0.159-0.08-0.239-0.239-0.239h-0.956v0.633c0,0.088-0.008,0.171-0.023,0.251h0.477
			c0.096,0,0.144-0.048,0.144-0.143V60.57c0-0.104,0.048-0.155,0.143-0.155c0.096,0,0.143,0.051,0.143,0.155v0.347
			c0,0.239-0.119,0.358-0.358,0.358h-0.633c-0.108,0.175-0.279,0.323-0.514,0.442c-0.171,0.087-0.37,0.165-0.597,0.233
			c-0.04,0.036-0.084,0.054-0.132,0.054c-0.087-0.016-0.137-0.068-0.149-0.155c0-0.048,0.018-0.09,0.054-0.126
			c0.223-0.06,0.398-0.118,0.526-0.173c0.187-0.08,0.334-0.172,0.442-0.275h-0.359c-0.239,0-0.358-0.119-0.358-0.358V60.57
			c0-0.104,0.048-0.155,0.143-0.155c0.096,0,0.143,0.051,0.143,0.155v0.299c0,0.095,0.048,0.143,0.144,0.143h0.436
			c0.028-0.088,0.042-0.171,0.042-0.251v-0.633h-0.896l-0.012-0.006l-0.006,0.012c-0.088,0.227-0.237,0.46-0.448,0.699
			c-0.036,0.048-0.084,0.072-0.144,0.072c-0.079-0.021-0.127-0.068-0.143-0.144c0-0.032,0.018-0.074,0.054-0.125
			c0.163-0.152,0.293-0.329,0.388-0.532c0.084-0.151,0.152-0.378,0.203-0.681c0.008-0.071,0.056-0.111,0.144-0.119
			c0.051,0.003,0.089,0.024,0.113,0.06c0.012-0.024,0.026-0.042,0.042-0.054c0.139-0.06,0.249-0.118,0.328-0.173
			c0.092-0.06,0.168-0.128,0.227-0.203h-0.376c-0.239,0-0.358-0.12-0.358-0.359v-0.299c0-0.103,0.047-0.155,0.143-0.155
			c0.096,0,0.143,0.052,0.143,0.155v0.251c0,0.096,0.046,0.144,0.138,0.144h0.442c0.028-0.104,0.042-0.212,0.042-0.323v-0.561
			h-0.807c0,0.008-0.002,0.014-0.006,0.018c-0.083,0.206-0.225,0.419-0.424,0.639c-0.04,0.047-0.089,0.071-0.149,0.071
			c-0.08-0.02-0.128-0.068-0.144-0.143c0-0.032,0.018-0.074,0.054-0.125c0.159-0.136,0.283-0.295,0.371-0.478
			c0.075-0.136,0.141-0.343,0.197-0.622C63.817,57.08,63.864,57.042,63.953,57.034"/>
		<path clip-path="url(#SVGID_122_)" fill="#3E3A39" d="M69.615,57.368c0.092,0.004,0.14,0.052,0.143,0.144
			c-0.003,0.091-0.051,0.139-0.143,0.143h-0.872v0.406h1.039c0.092,0.004,0.14,0.052,0.144,0.144
			c-0.004,0.091-0.052,0.139-0.144,0.143h-0.525v0.227c0,0.127,0.063,0.191,0.191,0.191h0.287c0.119,0,0.179,0.044,0.179,0.132
			c0,0.087-0.06,0.131-0.179,0.131H69.4c-0.287,0-0.43-0.143-0.43-0.43v-0.251h-0.812v0.012c-0.012,0.123-0.034,0.221-0.066,0.293
			c-0.04,0.099-0.098,0.182-0.173,0.251c-0.068,0.063-0.15,0.117-0.245,0.161c-0.092,0.043-0.207,0.081-0.347,0.113h-0.024
			c-0.103-0.012-0.161-0.065-0.173-0.161c0.004-0.064,0.042-0.106,0.114-0.125c0.127-0.024,0.225-0.052,0.292-0.084
			c0.068-0.032,0.126-0.068,0.174-0.108c0.047-0.04,0.085-0.092,0.113-0.155c0.024-0.056,0.04-0.118,0.048-0.185v-0.012h-0.502
			c-0.092-0.004-0.139-0.052-0.143-0.143c0.004-0.092,0.051-0.14,0.143-0.144h1.063v-0.406h-0.824
			c-0.092-0.004-0.139-0.052-0.143-0.143c0.004-0.092,0.051-0.14,0.143-0.144h0.824v-0.25c0.004-0.1,0.056-0.152,0.156-0.156
			c0.099,0.004,0.151,0.056,0.155,0.156v0.25H69.615z M69.615,59.304c0.092,0.003,0.14,0.053,0.143,0.149
			c-0.003,0.087-0.051,0.133-0.143,0.137h-0.872v0.419c0.319-0.033,0.633-0.076,0.944-0.132c0.099,0.004,0.155,0.06,0.167,0.167
			c-0.012,0.076-0.064,0.118-0.155,0.126c-0.705,0.123-1.498,0.207-2.378,0.251c-0.095-0.012-0.151-0.066-0.167-0.162
			c0.012-0.08,0.064-0.127,0.155-0.143c0.379-0.012,0.753-0.036,1.123-0.072V59.59h-0.848c-0.092-0.004-0.139-0.05-0.143-0.137
			c0.004-0.096,0.051-0.146,0.143-0.149h0.848v-0.395c0.004-0.099,0.056-0.151,0.156-0.155c0.099,0.004,0.151,0.056,0.155,0.155
			v0.395H69.615z M67.584,60.833h2.103c0.036-0.116,0.063-0.235,0.083-0.358c0.008-0.108,0.06-0.164,0.156-0.168
			c0.091,0.012,0.143,0.068,0.155,0.168c-0.02,0.135-0.042,0.254-0.066,0.358h1.977c0.319,0,0.478,0.159,0.478,0.478
			c0,0.263-0.024,0.49-0.071,0.681c-0.056,0.242-0.15,0.402-0.281,0.478c-0.147,0.087-0.337,0.131-0.568,0.131
			c-0.31,0-0.692-0.048-1.146-0.143c-0.088-0.028-0.136-0.076-0.144-0.144c0.008-0.119,0.072-0.181,0.191-0.185
			c0.044,0,0.096,0.006,0.156,0.018c0.454,0.084,0.768,0.125,0.943,0.125c0.128,0,0.231-0.022,0.311-0.065
			c0.076-0.032,0.143-0.122,0.203-0.269c0.064-0.148,0.096-0.34,0.096-0.579c0-0.16-0.08-0.239-0.239-0.239h-1.995
			c-0.016,0.043-0.034,0.083-0.054,0.119c-0.128,0.259-0.313,0.476-0.556,0.651c-0.211,0.167-0.466,0.307-0.764,0.418
			c-0.295,0.12-0.663,0.217-1.105,0.293c-0.028,0.004-0.056,0.006-0.084,0.006c-0.111-0.012-0.173-0.07-0.185-0.173
			c0.004-0.068,0.046-0.114,0.125-0.138c0.502-0.087,0.888-0.183,1.159-0.286c0.267-0.104,0.492-0.227,0.675-0.371
			c0.191-0.139,0.337-0.313,0.436-0.519h-1.989c-0.092-0.009-0.139-0.054-0.143-0.138C67.445,60.89,67.492,60.841,67.584,60.833
			 M70.308,57.679h0.717v-0.532c0.008-0.087,0.056-0.133,0.143-0.137c0.092,0.004,0.14,0.05,0.144,0.137v0.532h0.501
			c0.287,0,0.43,0.143,0.43,0.43c0,0.737,0.01,1.208,0.03,1.416c0.012,0.143,0.028,0.248,0.048,0.316
			c0.004,0.012,0.01,0.024,0.018,0.036c0.056-0.008,0.086-0.03,0.09-0.066c0.056-0.163,0.098-0.412,0.125-0.746
			c0.008-0.088,0.056-0.136,0.143-0.144c0.092,0.004,0.14,0.056,0.144,0.156c-0.02,0.457-0.088,0.798-0.203,1.021
			c-0.08,0.123-0.18,0.185-0.299,0.185c-0.052-0.004-0.098-0.032-0.137-0.083c-0.068-0.088-0.12-0.218-0.156-0.389
			c-0.059-0.215-0.089-0.75-0.089-1.606c0-0.16-0.08-0.239-0.239-0.239h-0.406v0.143c0,0.318-0.026,0.597-0.078,0.836
			c-0.016,0.064-0.034,0.122-0.054,0.174c0.155,0.167,0.319,0.352,0.49,0.555c0.016,0.044,0.024,0.08,0.024,0.108
			c-0.012,0.071-0.064,0.111-0.155,0.119c-0.044,0-0.08-0.026-0.108-0.078c-0.128-0.159-0.251-0.304-0.37-0.436
			c-0.06,0.116-0.132,0.219-0.215,0.311c-0.124,0.143-0.271,0.272-0.442,0.388c-0.04,0.036-0.084,0.054-0.132,0.054
			c-0.087-0.016-0.139-0.068-0.155-0.155c0-0.048,0.02-0.09,0.06-0.126c0.163-0.107,0.29-0.211,0.382-0.31
			c0.115-0.116,0.207-0.249,0.275-0.401c-0.18-0.171-0.355-0.316-0.526-0.436c-0.028-0.044-0.044-0.075-0.048-0.095
			c0.008-0.088,0.054-0.138,0.138-0.15c0.043,0,0.085,0.024,0.125,0.072c0.131,0.087,0.271,0.201,0.418,0.341
			c0.056-0.255,0.084-0.512,0.084-0.771v-0.143h-0.717c-0.092-0.009-0.139-0.056-0.143-0.144
			C70.169,57.735,70.216,57.688,70.308,57.679"/>
		<path clip-path="url(#SVGID_122_)" fill="#3E3A39" d="M83.512,57.159c0.088,0.004,0.138,0.05,0.149,0.138
			c0,0.071-0.039,0.121-0.119,0.149c-0.772,0.08-1.457,0.134-2.056,0.161c-0.051,0.004-0.103,0.006-0.154,0.006
			c0.008,0.02,0.012,0.038,0.012,0.054l-0.019,0.042c-0.043,0.143-0.091,0.284-0.143,0.424h2.622
			c0.092,0.004,0.14,0.051,0.143,0.143c-0.003,0.092-0.051,0.14-0.143,0.144h-2.742c-0.067,0.163-0.143,0.322-0.227,0.478h3.159
			c0.093,0.003,0.141,0.051,0.145,0.143c-0.004,0.091-0.052,0.139-0.145,0.143h-3.32c-0.115,0.18-0.241,0.349-0.376,0.508
			c0.016-0.004,0.034-0.006,0.053-0.006h2.868c0.319,0,0.478,0.159,0.478,0.478v1.816c0,0.318-0.158,0.478-0.478,0.478h-2.868
			c-0.318,0-0.477-0.16-0.477-0.478v-1.828c-0.251,0.247-0.513,0.456-0.783,0.627c-0.021,0.02-0.055,0.03-0.102,0.03
			c-0.092-0.012-0.144-0.056-0.155-0.131c0.009-0.052,0.026-0.096,0.054-0.132c0.291-0.195,0.546-0.39,0.765-0.585
			c0.279-0.271,0.501-0.53,0.669-0.777h-1.319c-0.093-0.004-0.141-0.052-0.145-0.143c0.004-0.092,0.052-0.14,0.145-0.143h1.499
			c0.092-0.152,0.175-0.311,0.251-0.478h-1.56c-0.092-0.004-0.14-0.052-0.144-0.144c0.004-0.092,0.052-0.139,0.144-0.143h1.685
			c0.063-0.159,0.124-0.325,0.179-0.496c0-0.004,0.003-0.008,0.006-0.012c-0.449,0.02-0.993,0.034-1.63,0.042
			c-0.092-0.008-0.14-0.06-0.144-0.155c0.009-0.08,0.058-0.126,0.149-0.138c0.828-0.008,1.529-0.029,2.103-0.065
			c0.55-0.024,1.185-0.072,1.905-0.144C83.471,57.161,83.492,57.159,83.512,57.159 M80.185,60.546h3.202v-0.34
			c0-0.156-0.079-0.233-0.239-0.233h-2.724c-0.159,0-0.239,0.077-0.239,0.233V60.546z M80.185,61.335h3.202v-0.502h-3.202V61.335z
			 M83.147,62.171c0.16,0,0.239-0.08,0.239-0.239v-0.311h-3.202v0.311c0,0.159,0.08,0.239,0.239,0.239H83.147z"/>
		<path clip-path="url(#SVGID_122_)" fill="#3E3A39" d="M86.11,57.178h3.011c0.35,0,0.525,0.175,0.525,0.525v2.485
			c0,0.35-0.176,0.526-0.525,0.526H88.38v1.194c0,0.192,0.097,0.287,0.287,0.287h1.063c0.092,0,0.164-0.04,0.215-0.119
			c0.044-0.048,0.067-0.26,0.072-0.634c0-0.099,0.056-0.151,0.167-0.155c0.096,0.008,0.147,0.078,0.154,0.209
			c0,0.144-0.009,0.301-0.029,0.472c-0.016,0.179-0.071,0.307-0.167,0.382c-0.104,0.088-0.241,0.132-0.412,0.132h-1.136
			c-0.35,0-0.525-0.176-0.525-0.526v-1.242H87.09c-0.023,0.306-0.071,0.565-0.144,0.776c-0.095,0.239-0.23,0.43-0.406,0.574
			c-0.167,0.135-0.38,0.245-0.639,0.328c-0.228,0.08-0.516,0.133-0.866,0.162c-0.108-0.012-0.167-0.076-0.179-0.192
			c0.008-0.083,0.063-0.141,0.167-0.173c0.318-0.02,0.569-0.06,0.753-0.119c0.223-0.068,0.405-0.158,0.549-0.269
			c0.147-0.12,0.263-0.279,0.347-0.478c0.052-0.167,0.088-0.37,0.107-0.609H86.11c-0.351,0-0.525-0.176-0.525-0.526v-2.485
			C85.585,57.353,85.76,57.178,86.11,57.178 M85.896,58.229h3.44v-0.502c0-0.175-0.087-0.263-0.263-0.263h-2.915
			c-0.175,0-0.263,0.088-0.263,0.263V58.229z M85.896,59.256h3.44v-0.741h-3.44V59.256z M89.073,60.427
			c0.176,0,0.263-0.088,0.263-0.263v-0.621h-3.44v0.621c0,0.175,0.088,0.263,0.263,0.263H89.073z"/>
		<path clip-path="url(#SVGID_122_)" fill="#3E3A39" d="M95.823,58.181c0.092,0.004,0.14,0.051,0.143,0.143
			c-0.003,0.092-0.051,0.14-0.143,0.144h-1.947v0.985h2.425c0.092,0,0.141,0.046,0.144,0.138c-0.003,0.091-0.052,0.139-0.144,0.143
			h-2.324c0.38,0.482,0.764,0.868,1.153,1.159c0.343,0.278,0.787,0.545,1.332,0.8c0.052,0.028,0.078,0.074,0.078,0.138
			c0,0.099-0.052,0.149-0.156,0.149c-0.066,0-0.137-0.016-0.209-0.048c-0.497-0.255-0.923-0.536-1.277-0.842
			c-0.318-0.263-0.659-0.631-1.021-1.105v2.527c-0.004,0.095-0.056,0.145-0.156,0.149c-0.099-0.004-0.15-0.054-0.154-0.149v-2.431
			c-0.271,0.298-0.565,0.565-0.885,0.8c-0.422,0.334-0.923,0.653-1.505,0.956c-0.056,0.015-0.102,0.024-0.138,0.024
			c-0.083-0.021-0.129-0.069-0.137-0.144c0-0.048,0.029-0.095,0.09-0.143c0.608-0.319,1.101-0.621,1.475-0.908
			c0.339-0.243,0.675-0.554,1.009-0.932h-2.286c-0.093-0.004-0.142-0.052-0.15-0.143c0.009-0.092,0.058-0.138,0.15-0.138h2.377
			v-0.985h-1.924c-0.092-0.004-0.14-0.052-0.144-0.144c0.004-0.092,0.052-0.139,0.144-0.143h1.924V57.13
			c0.004-0.1,0.056-0.152,0.154-0.156c0.101,0.004,0.152,0.056,0.156,0.156v1.051H95.823z"/>
		<path clip-path="url(#SVGID_122_)" fill="#3E3A39" d="M102.322,57.68c0.092,0.004,0.14,0.051,0.143,0.143
			c-0.003,0.091-0.051,0.139-0.143,0.143h-2.33v1.888l0.012,0.006c0.363,0.478,0.743,0.902,1.142,1.272
			c0.311,0.275,0.727,0.562,1.249,0.86c0.123,0.036,0.187,0.096,0.19,0.18c-0.004,0.103-0.058,0.157-0.162,0.161
			c-0.023,0-0.059-0.012-0.106-0.036c-0.45-0.227-0.866-0.508-1.249-0.842c-0.351-0.307-0.708-0.693-1.075-1.159v2.186
			c-0.003,0.099-0.055,0.151-0.155,0.156c-0.099-0.005-0.15-0.057-0.154-0.156v-2.078c-0.235,0.314-0.511,0.606-0.825,0.878
			c-0.391,0.342-0.894,0.676-1.512,1.003c-0.038,0.024-0.072,0.036-0.102,0.036c-0.067-0.004-0.119-0.046-0.155-0.125
			c0-0.1,0.044-0.162,0.132-0.186c0.63-0.366,1.117-0.701,1.464-1.003c0.362-0.307,0.694-0.672,0.998-1.093v-1.948h-2.33
			c-0.092-0.004-0.14-0.052-0.144-0.143c0.004-0.092,0.052-0.139,0.144-0.143h2.33v-0.532c0.004-0.096,0.056-0.145,0.154-0.149
			c0.101,0.004,0.152,0.053,0.155,0.149v0.532H102.322z M98.523,58.276c0.083,0.012,0.131,0.063,0.143,0.155
			c0,0.02-0.006,0.048-0.018,0.084c-0.087,0.231-0.178,0.434-0.27,0.609c0.013,0.008,0.024,0.016,0.036,0.024
			c0.16,0.139,0.291,0.261,0.396,0.364c0.106,0.12,0.221,0.259,0.34,0.419c0.027,0.039,0.042,0.079,0.042,0.119
			c-0.008,0.084-0.059,0.129-0.15,0.137c-0.051,0-0.093-0.023-0.125-0.071c-0.11-0.152-0.219-0.283-0.323-0.394
			c-0.087-0.1-0.203-0.214-0.352-0.341c-0.027,0.051-0.056,0.096-0.084,0.131c-0.167,0.271-0.376,0.532-0.627,0.783
			c-0.043,0.024-0.087,0.036-0.131,0.036c-0.068-0.024-0.115-0.066-0.145-0.126c0-0.064,0.027-0.115,0.078-0.155
			c0.136-0.14,0.255-0.275,0.358-0.406c0.16-0.2,0.278-0.376,0.358-0.532c0.101-0.175,0.209-0.418,0.328-0.728
			C98.403,58.315,98.451,58.281,98.523,58.276 M101.391,58.276c0.084,0.012,0.131,0.063,0.143,0.155c0,0.02-0.006,0.048-0.018,0.084
			c-0.079,0.215-0.158,0.402-0.238,0.561c0.016,0.012,0.025,0.02,0.029,0.024c0.224,0.168,0.406,0.317,0.55,0.448
			c0.151,0.144,0.309,0.311,0.472,0.502c0.028,0.04,0.042,0.08,0.042,0.12c-0.008,0.083-0.058,0.129-0.15,0.137
			c-0.051,0-0.093-0.024-0.125-0.072c-0.154-0.183-0.305-0.343-0.447-0.478c-0.136-0.127-0.308-0.271-0.515-0.43
			c-0.012,0.02-0.023,0.038-0.035,0.054c-0.144,0.235-0.32,0.46-0.531,0.675c-0.044,0.024-0.088,0.036-0.132,0.036
			c-0.067-0.024-0.115-0.066-0.144-0.126c0-0.063,0.026-0.115,0.078-0.155c0.115-0.119,0.217-0.235,0.304-0.346
			c0.133-0.172,0.231-0.323,0.3-0.454c0.083-0.152,0.175-0.361,0.274-0.627C101.271,58.315,101.318,58.281,101.391,58.276"/>
		<path clip-path="url(#SVGID_122_)" fill="#3E3A39" d="M76.808,60.308c0,0.582-0.472,1.053-1.054,1.053s-1.053-0.471-1.053-1.053
			s0.471-1.053,1.053-1.053S76.808,59.726,76.808,60.308"/>
	</g>
</g>
</svg>
