<?xml version="1.0" encoding="utf-8"?>
<!-- Generator: Adobe Illustrator 16.0.0, SVG Export Plug-In . SVG Version: 6.00 Build 0)  -->
<!DOCTYPE svg PUBLIC "-//W3C//DTD SVG 1.1//EN" "http://www.w3.org/Graphics/SVG/1.1/DTD/svg11.dtd">
<svg version="1.1" id="圖層_1" xmlns="http://www.w3.org/2000/svg" xmlns:xlink="http://www.w3.org/1999/xlink" x="0px" y="0px"
	 width="113.131px" height="79.978px" viewBox="0 0 113.131 79.978" enable-background="new 0 0 113.131 79.978"
	 xml:space="preserve">
<g>
	<g>
		<g>
			<g>
				<g>
					<g>
						<g>
							<path fill="#B99868" d="M220.28,12.032c0.81,0.353,2.476,0.956,3.845,0.956c0.858,0,1.2-0.256,1.2-0.582
								c0-0.396-0.416-0.696-1.516-1.095c-1.472-0.558-3.109-1.467-3.109-3.185c0-2.655,2.519-4.168,5.999-4.168
								c1.667,0,2.941,0.304,3.649,0.653l-1.028,2.861c-0.61-0.234-1.591-0.535-2.914-0.535c-0.781,0-1.272,0.186-1.272,0.581
								c0,0.281,0.511,0.628,1.564,1.023c1.226,0.444,3.235,1.211,3.235,3.235c0,2.775-2.645,4.238-6.273,4.192
								c-1.762-0.046-3.525-0.444-4.41-1.07L220.28,12.032z"/>
							<path fill="#B99868" d="M200.645,3.958c-3.109,0.016-5.354,0.811-6.272,1.201l0.22,2.587c1.258-0.6,3.105-0.988,4.492-0.988
								c1.756,0,2.04,0.503,1.931,0.959l-0.085,0.385c-1.802-0.127-3.399-0.064-4.771,0.406c-1.99,0.685-3.384,1.889-3.799,3.684
								c-0.361,1.551,0.516,2.956,2.278,3.448c1.913,0.531,3.939,0.347,5.907-0.029c1.731-0.331,3.694-0.116,3.694-0.116
								c0-0.574,0.165-1.63,0.429-2.753l0.885-3.807C206.215,6.115,205.143,3.931,200.645,3.958z M197.005,11.164
								c0.659-0.646,1.86-0.895,3.564-0.829c0,0-0.333,1.417-0.595,2.548c-1.199,0.328-2.751,0.589-3.234,0.04
								C196.352,12.476,196.357,11.805,197.005,11.164z"/>
							<path fill="#B99868" d="M215.566,4.248c-1.263,0-2.436,0.368-3.287,0.916L213.303,0h-4.88L206.3,10.726
								c-0.15,0.703-0.239,1.344-0.239,2.018c-0.027,2.072,1.444,3.516,4.923,3.516c6.098,0,8.576-4.33,8.576-7.845
								C219.561,6.043,218.088,4.248,215.566,4.248z M211.864,13.116c-0.662,0-1.172-0.372-1.222-1.097
								c-0.052-0.461,0.05-0.88,0.121-1.231l0.047-0.304c0.392-1.956,1.544-2.933,2.696-2.933c0.887,0,1.446,0.653,1.446,1.676
								C214.953,11.092,213.536,13.116,211.864,13.116z"/>
							<path fill="#B99868" d="M187.922,11.897L190.282,0h-5.494c0,0-2.414,12.216-2.627,13.261c-0.22,1.043,0.28,2.426,2.002,2.426
								c1.724,0,3.057,0,3.057,0h3.618l0.742-3.79H187.922z"/>
						</g>
						<g>
							<path fill="#CA1F22" d="M180.256,3.752C179.958,0.658,177.191,0,174.092,0s-3.976,0-3.976,0h-2.493l-3.119,15.719h0.227
								h4.342h0.32l2.58-12.973c1.204,0,1.97-0.044,2.731,0.183c0.752,0.229,1.178,0.857,1.018,1.916
								c-0.227,1.422-1.644,2.485-3.895,2.825c0.729,0.604,1.372,2.263,1.64,4.178c0.273,1.911,0.516,3.403,0.689,3.872h4.665
								c-0.403-0.931-0.692-3.084-0.961-4.671c-0.219-1.234-0.471-2.05-1.465-2.605l0.022-0.095
								C178.671,8.012,180.482,6.129,180.256,3.752z"/>
							<path fill="#CA1F22" d="M158.948,15.719h4.929L162.697,0h-7.437l-7.848,15.719h4.518l1.965-3.935h4.755L158.948,15.719z
								 M155.528,8.511l2.5-5.008l0.377,5.008H155.528z"/>
							<polygon fill="#CA1F22" points="144.534,0 142.706,9.216 139.64,0 138.883,0 135.431,0 133.511,0 130.393,15.719 
								135.764,15.719 137.592,6.498 140.658,15.719 141.416,15.719 144.87,15.719 146.788,15.719 149.904,0 							"/>
						</g>
					</g>
				</g>
			</g>
		</g>
		<g>
			<g>
				<path fill="#221E1F" d="M266.992,0.312h-12.9l0.006,13.52c0,0.803,0.223,1.872,2.092,1.872h10.786
					c1.414,0,2.074-0.596,2.074-1.872l0.012-11.645C269.062,1.379,268.847,0.312,266.992,0.312z M267.022,13.95
					c0,0.639-0.252,0.751-0.778,0.751h-9.338c-0.65,0-0.762-0.232-0.762-0.751V2.072c0-0.402,0-0.633-0.002-0.755h10.102
					c0.656,0,0.778,0.252,0.778,0.755V13.95z"/>
				<path fill="#221E1F" d="M264.741,8.199c0.922-0.139,1.025-0.782,1.025-1.254V5.496c0-0.891-0.459-1.288-1.504-1.288h-1.753
					V3.643h3.481c0.529,0,0.584-0.326,0.584-0.467c0-0.299-0.225-0.485-0.584-0.485h-3.481V1.76h-1.884v0.124
					c0,0.025,0,0.562,0,0.807h-3.856v0.952h3.856v0.565h-3.188l-0.008,0.118c0,0,0,0.315,0,1.17v1.449
					c0,0.895,0.47,1.293,1.509,1.293h1.688V8.96h-3.849v0.946h7.832c0.123,0.215,0.25,0.435,0.4,0.635l0.042,0.054l1.548,0.001
					l-0.322-0.47C265.828,9.452,265.276,8.636,264.741,8.199z M260.625,7.337h-1.037c-0.459,0-0.506-0.05-0.506-0.508V6.671h1.543
					V7.337z M260.625,5.771h-1.543c0-0.325,0-0.51,0-0.615h1.543V5.771z M262.508,8.96V8.239h1.224
					c-0.011,0.057-0.011,0.125,0.005,0.201c0.028,0.181,0.165,0.381,0.281,0.521H262.508z M264.084,6.829
					c0,0.458-0.045,0.508-0.504,0.508h-1.072V6.671h1.576V6.829z M262.508,5.771V5.156h1.072c0.474,0,0.504,0,0.504,0.615H262.508z"
					/>
				<path fill="#221E1F" d="M266,10.955h-1.457v-0.664l-1.889-0.013l0,0.12c0,0.028,0,0.375,0,0.556h-5.869v0.95h1.209
					c0.5,0.993,1.177,1.77,1.906,2.161c0.103,0.041,0.214,0.068,0.307,0.068c0.14,0,0.255-0.043,0.327-0.134
					c0.083-0.088,0.105-0.213,0.083-0.371c-0.047-0.234-0.275-0.503-0.373-0.628c-0.236-0.283-0.458-0.669-0.633-1.097h3.042v0.923
					c0,0.437-0.047,0.484-0.505,0.484h-0.667c-0.545,0-0.604,0.346-0.604,0.498c0,0.148,0.059,0.487,0.604,0.487h1.555
					c1.038,0,1.506-0.396,1.506-1.276v-1.116H266c0.354,0,0.572-0.177,0.572-0.463C266.572,11.135,266.364,10.955,266,10.955z"/>
			</g>
			<path fill="#221E1F" d="M302.757,14.656l-0.05-0.023c-2.804-1.274-4.245-3.308-4.733-4.129c-1.017-1.718-1.483-4.274-1.483-5.918
				V0.046h-2.127v3.935c0,3.784-0.895,5.457-1.195,6.019c-1.324,2.483-3.449,3.893-4.988,4.634l-0.028,0.009
				c-0.287,0.13-0.512,0.231-0.512,0.551c0,0.299,0.261,0.51,0.504,0.51c0.326,0,5.375-1.753,7.314-6.271
				c1.85,4.792,7.192,6.253,7.249,6.253c0.24,0,0.505-0.209,0.505-0.508C303.212,14.869,302.987,14.762,302.757,14.656z"/>
			<g>
				<path fill="#221E1F" d="M247.633,5.197c-0.464,0-1.334,0-2.184,0c0,1.158-0.175,2.655-0.454,3.977
					c-0.332,1.585-0.891,2.739-1.397,3.483c-0.277,0.346-0.356,0.619-0.205,0.843c0.077,0.118,0.209,0.185,0.383,0.195
					c0.155,0.011,0.264-0.047,0.361-0.124c0.702-0.565,1.544-1.729,2.229-3.315C246.977,8.838,247.417,7.119,247.633,5.197z"/>
				<path fill="#221E1F" d="M251.457,3.269h-0.767V0.057h-1.986v3.211h-5.394v0.995h5.394v9.749c0,0.542-0.106,0.639-0.66,0.639
					h-1.338c-0.513,0-0.59,0.322-0.59,0.508c0,0.375,0.32,0.51,0.59,0.51h2.106c0.924,0,1.878-0.206,1.878-1.707V4.264h0.767
					c0.364,0,0.584-0.183,0.584-0.489C252.041,3.455,251.821,3.269,251.457,3.269z"/>
				<path fill="#221E1F" d="M242.546,14.592l-0.044-0.046c-0.416-0.524-0.8-1.233-0.833-2.549c0.646-0.062,1.032-0.304,1.032-1.167
					V1.766c0-1.011-0.492-1.442-1.643-1.442h-4.466l0.005,0.124c0,0,0.001,0.322,0.001,1.318v9.064c0,0.805,0.327,1.079,1.022,1.161
					c-0.03,1.32-0.412,2.031-0.831,2.555l-0.043,0.046c-0.111,0.127-0.282,0.293-0.356,0.535c-0.054,0.173,0.008,0.372,0.118,0.471
					c0.114,0.096,0.328,0.166,0.64,0.023c0.402-0.191,0.78-0.547,1.159-1.077c0.374-0.524,0.755-1.279,0.948-2.537h0.779
					c0.196,1.258,0.574,2.013,0.949,2.537c0.377,0.53,0.755,0.886,1.159,1.077c0.312,0.143,0.524,0.073,0.637-0.023
					c0.112-0.099,0.172-0.297,0.12-0.471C242.826,14.885,242.66,14.719,242.546,14.592z M238.516,10.697c0,0,0-0.875,0-2.084h2.266
					v2.084c0,0.465-0.043,0.56-0.556,0.56h-1.153C238.562,11.257,238.516,11.162,238.516,10.697z M240.782,7.618h-2.266
					c0-0.846,0-1.77,0-2.645h2.266V7.618z M240.227,1.334c0.513,0,0.556,0.09,0.556,0.564v2.081h-2.266c0-1.469,0-2.608,0-2.645
					H240.227z"/>
			</g>
			<g>
				<path fill="#221E1F" d="M272.673,2.107c0.358,0.449,0.696,1.12,0.933,1.836l0.032,0.08l1.95,0.006l-0.075-0.174
					c-0.626-1.433-1.499-2.514-2.458-3.063c-0.312-0.122-0.606-0.093-0.757,0.083c-0.084,0.104-0.116,0.254-0.084,0.442
					C272.266,1.608,272.54,1.945,272.673,2.107z"/>
				<path fill="#221E1F" d="M271.989,6.14c0.358,0.447,0.705,1.12,0.938,1.834l0.026,0.082l1.959,0.005l-0.074-0.171
					c-0.634-1.433-1.505-2.521-2.463-3.063c-0.318-0.12-0.611-0.095-0.751,0.079c-0.093,0.105-0.123,0.256-0.086,0.442
					C271.584,5.639,271.86,5.978,271.989,6.14z"/>
				<path fill="#221E1F" d="M275.009,8.969c-0.18,0.12-0.215,0.238-0.274,0.445c-0.017,0.048-0.03,0.097-0.052,0.167
					c-0.351,1.521-2,4.289-3.531,5.913l-0.197,0.208l2.569,0.002l0.039-0.052c1.89-2.935,2.555-5.981,2.197-6.523
					C275.588,8.871,275.273,8.804,275.009,8.969z"/>
				<path fill="#221E1F" d="M286.312,14.145l-1.404-2.102c-0.033-0.046-0.076-0.111-0.127-0.183c-0.27-0.377-0.719-1.02-1.202-1.02
					c-0.066,0-0.132,0.011-0.183,0.03c-0.121,0.041-0.2,0.124-0.243,0.238c-0.132,0.363,0.216,0.964,0.256,1.025l1.036,1.995
					c0.078,0.132,0.098,0.236,0.057,0.31c-0.073,0.122-0.301,0.19-0.633,0.19h-2.711h-1.701c-0.326,0-0.555-0.068-0.623-0.19
					c-0.043-0.073-0.028-0.177,0.039-0.31l3.35-6.067h3.675c0.533,0,0.593-0.345,0.593-0.494c0-0.15-0.06-0.506-0.593-0.506h-3.488
					V4.029h3.101c0.514,0,0.592-0.308,0.592-0.494c0-0.148-0.061-0.504-0.592-0.504h-3.101V0.048h-2.094v2.982h-3.692v0.999h3.692
					v3.032h-4.083v1h3.833l-3.106,5.781c-0.177,0.412-0.15,0.872,0.079,1.208c0.177,0.272,0.555,0.594,1.374,0.594h2.604h3.902
					h0.139l-0.004-0.003c0.709-0.02,1.146-0.183,1.342-0.487C286.544,14.901,286.527,14.563,286.312,14.145z"/>
			</g>
			<g>
				<g>
					<g>
						<path fill="#221E1F" d="M367.752,1.592h1.292c0.275,0,0.397,0.057,0.519,0.542c0.617,2.464,2.698,2.793,2.729,2.802
							c0.005,0,0.066,0.014,0.144,0.014c0.123,0,0.229-0.028,0.312-0.082c0.086-0.054,0.187-0.167,0.187-0.383
							c0-0.351-0.477-0.592-0.531-0.619c-1.119-0.512-1.396-1.872-1.396-1.88c-0.053-0.873-0.539-1.353-1.369-1.353
							c0,0-2.965,0.005-3.374,0.005c0,2.193-0.816,2.961-1.66,3.406c0,0.326,0,0.585,0,0.85C366.704,4.43,367.5,3.111,367.752,1.592
							z"/>
						<path fill="#221E1F" d="M371.059,5.17c0-0.31-0.206-0.51-0.533-0.51h-4.128v1.023h4.128
							C370.773,5.684,371.059,5.55,371.059,5.17z"/>
						<path fill="#221E1F" d="M368.268,14.333c0.108-0.15,0.076-0.404-0.07-0.594c-0.374-0.469-0.671-0.457-0.671-1.185
							c0-0.637,0-1.281,0-1.281h-1.639c0,0,0.004,0.473,0.004,0.898c0,0.431-0.086,0.453-0.315,0.896
							c-0.227,0.44-0.826,1.117-1.243,1.494c-0.091,0.081-0.188,0.227-0.188,0.387c0,0.195,0.075,0.427,0.437,0.427
							c0.299,0,1.27-0.682,2.125-1.694c0.374,0.467,0.821,0.707,1.094,0.77C367.985,14.495,368.146,14.479,368.268,14.333z"/>
						<path fill="#221E1F" d="M358.524,10.482c-0.132-0.148-0.332-0.188-0.479-0.075c-0.11,0.079-0.114,0.17-0.118,0.293
							l-0.003,0.087c0.007,0.691-0.374,1.877-0.893,2.759l-0.113,0.185l0.208,0.003c0,0,0.493,0.009,0.815,0.009
							c0.329,0,0.363,0,0.387-0.09C358.833,12.178,358.784,10.767,358.524,10.482z"/>
						<path fill="#221E1F" d="M359.902,13.644c0.258-1.533-0.028-2.999-0.347-3.242c-0.158-0.124-0.365-0.116-0.483,0.018
							c-0.095,0.098-0.084,0.195-0.068,0.308l0.011,0.089c0.126,0.646-0.018,1.809-0.351,2.761l-0.05,0.168h1.273L359.902,13.644z"
							/>
						<path fill="#221E1F" d="M360.206,13.746l1.236-0.001l0.006-0.122c0.058-1.594-0.44-3.04-0.802-3.236
							c-0.172-0.091-0.376-0.052-0.481,0.097c-0.076,0.114-0.052,0.204-0.02,0.316l0.023,0.086c0.211,0.606,0.236,1.72,0.062,2.712
							L360.206,13.746z"/>
						<path fill="#221E1F" d="M373.023,14.562c-0.386-0.347-0.862-0.846-1.129-1.326s-0.338-0.483-0.338-0.938c0-0.451,0-0.9,0-0.9
							v-0.125h-1.651c0,0,0,0.675,0,0.979c0,0.302,0.016,0.245-0.224,0.751c-0.234,0.508-0.868,1.154-1.32,1.558
							c-0.09,0.081-0.183,0.227-0.183,0.387c0,0.195,0.075,0.427,0.433,0.427c0.262,0,0.967-0.359,1.657-1.125
							c0.152-0.154,0.318-0.336,0.463-0.506c0.146,0.17,0.238,0.352,0.387,0.502c0.692,0.77,1.401,1.129,1.657,1.129
							c0.362,0,0.435-0.232,0.435-0.427C373.209,14.789,373.117,14.642,373.023,14.562z"/>
						<path fill="#221E1F" d="M364.226,9.915c-0.002-0.093-0.002-0.155-0.002-0.198c0-0.78-0.555-1.251-1.476-1.251h-0.154V6.87
							h0.939c0.357,0,0.569-0.189,0.569-0.508c0-0.315-0.222-0.514-0.569-0.514h-0.939V4.256h0.939c0.357,0,0.569-0.191,0.569-0.512
							c0-0.315-0.222-0.512-0.569-0.512h-0.939V1.635h1.176c0.349,0,0.565-0.195,0.565-0.51c0-0.145-0.058-0.492-0.565-0.492h-5.643
							c0,0,0,0.261,0,1.084v6.237c0,0.794,0.186,1.537,1.57,1.537h2.38c0.215,0,0.366,0.021,0.392,0.324
							c0.045,0.504,0.056,1.299,0.061,1.793c-0.316-0.743-0.697-1.26-0.939-1.331c-0.188-0.054-0.297-0.007-0.364,0.163
							c-0.058,0.13-0.015,0.211,0.041,0.315l0.041,0.077c0.336,0.573,0.591,1.732,0.594,2.761l0.004,0.122l0.54,0.032
							c-0.121,0.794-0.409,0.835-0.932,0.835h-1.094c-0.261,0-0.563,0.133-0.563,0.51c0,0.381,0.303,0.515,0.563,0.515h1.575
							c0.932,0,1.671-0.159,2.069-2.093C364.264,12.586,364.237,10.591,364.226,9.915z M360.972,8.466h-0.587
							c-0.512,0-0.555-0.093-0.555-0.578c0,0,0-0.467,0-1.018h1.142V8.466z M360.972,3.233h-1.146v1.023h1.146v1.592h-1.146
							c0-1.729-0.004-4.19-0.004-4.213h1.149V3.233z"/>
						<path fill="#221E1F" d="M370.286,10.769h0.862c0.936,0,1.35-0.408,1.35-1.32V7.62c0-0.901-0.414-1.302-1.35-1.302h-2.204
							l-0.003,3.131C368.941,10.361,369.352,10.769,370.286,10.769z M370.389,7.321h0.453c0.155,0,0.202,0,0.202,0.215V9.55
							c0,0.193,0,0.193-0.456,0.193c-0.159,0-0.199-0.005-0.199-0.193V7.321z"/>
						<path fill="#221E1F" d="M364.968,6.317h-0.009v3.131c0,0.913,0.417,1.32,1.348,1.32h0.798c0.934,0,1.349-0.408,1.349-1.32
							V7.62c0-0.901-0.415-1.302-1.349-1.302H364.968z M367.021,9.55c0,0.193,0,0.193-0.424,0.193c-0.161,0-0.208-0.005-0.208-0.193
							V7.321h0.428c0.145,0,0.204,0.009,0.204,0.215V9.55z"/>
					</g>
					<g>
						<path fill="#221E1F" d="M336.958,13.844c-0.111-0.089-0.217-0.19-0.346-0.276c-0.936-0.633-2.304-1.846-3.122-4.415
							c1.847-0.637,2.679-1.907,2.827-2.82l0.025-0.15h-2.154l-0.023,0.1c-0.138,0.571-0.361,1.394-1,1.721
							c-0.14-0.778-0.288-2.231-0.329-3.201h1.254c0.37,0,0.596-0.206,0.596-0.535c0-0.334-0.222-0.531-0.596-0.531h-9.026v1.066
							h2.369c-0.447,0.621-1.389,1.974-4.017,3.084c-0.138,0.066-0.428,0.199-0.428,0.541c0,0.331,0.26,0.535,0.498,0.535
							c0.268,0,1.037-0.315,1.738-0.61c0.827-0.344,2.058-1.19,3.092-1.949c0.093,0.117,0.179,0.236,0.308,0.438
							c-1.977,2.279-4.53,3.492-5.464,3.833c-0.29,0.1-0.419,0.261-0.419,0.526c0,0.29,0.229,0.535,0.509,0.535
							c0.304,0,3.703-1.098,6.144-3.19c0.058,0.168,0.101,0.328,0.165,0.571v0.005c-1.795,2-4.051,3.512-6.734,4.414
							c-0.168,0.058-0.505,0.174-0.505,0.562c0,0.308,0.245,0.515,0.476,0.515c0.233,0,3.963-0.998,7.003-3.424
							c0.111,1.365-0.165,2.655-0.56,3.081c-0.258,0.265-0.567,0.265-0.904,0.265h-1.224c-0.372,0-0.596,0.204-0.596,0.537
							c0,0.392,0.32,0.535,0.596,0.535h2.401c1.503,0,2.297-1.218,2.297-3.519c0-2.771-0.876-4.926-2.598-6.407
							c0.404-0.347,0.602-0.589,0.862-0.877h0.791c0.508,4.201,1.701,6.475,2.909,7.881c0.944,1.101,2.222,1.972,2.936,2.162
							c0.264,0.071,0.492-0.234,0.492-0.528C337.202,14.062,337.041,13.917,336.958,13.844z"/>
					</g>
					<g>
						<path fill="#221E1F" d="M308.612,10.559h1.836c0.644,0,1.306-0.127,1.306-1.068V6.788c0-0.945-0.662-1.076-1.306-1.076h-3.173
							l0.002,0.127c0,0,0.009,0.188,0.009,0.948v2.703C307.286,10.432,307.957,10.559,308.612,10.559z M308.859,7.103l0.003-0.404
							h0.913c0.39,0,0.424,0.032,0.424,0.399v2.079c0,0.344-0.032,0.404-0.424,0.404h-0.494c-0.39,0-0.422-0.061-0.422-0.404V7.103z
							"/>
						<path fill="#221E1F" d="M317.436,0.283H304.64v13.461c0,0.866,0.232,1.862,2.075,1.862h10.721
							c1.417,0,2.078-0.592,2.078-1.862V2.144C319.514,1.342,319.3,0.283,317.436,0.283z M317.482,13.876
							c0,0.619-0.245,0.73-0.762,0.73h-9.284c-0.656,0-0.764-0.228-0.764-0.73V2.637l-0.004-1.377l10.052,0.005
							c0.583,0,0.762,0.17,0.762,0.746V13.876z"/>
						<path fill="#221E1F" d="M311.7,11.799c0-0.303-0.213-0.481-0.57-0.481h-3.853v0.948h3.853
							C311.478,12.266,311.7,12.087,311.7,11.799z"/>
						<path fill="#221E1F" d="M315.243,5.978c-0.096,0.866-0.416,2.193-0.988,3.265c-0.129-0.778-0.322-2.854-0.329-4.638h2.512
							c0.382,0,0.606-0.184,0.606-0.497c0-0.369-0.327-0.498-0.606-0.498h-0.077c-0.261-0.664-0.656-1.174-1.141-1.463
							c-0.088-0.036-0.183-0.054-0.271-0.054c-0.261,0-0.43,0.161-0.44,0.417c-0.007,0.17,0.097,0.345,0.165,0.465
							c0.018,0.029,0.032,0.054,0.041,0.074c0.093,0.204,0.155,0.374,0.217,0.562h-1.021l-0.008-1.549l-1.888,0.003V3.61h-4.845
							v0.995h4.881c0.079,2.947,0.394,4.412,1.027,6.327c-0.569,0.995-1.539,1.798-2.258,2.297l-0.058,0.038
							c-0.157,0.107-0.354,0.238-0.354,0.444c0,0.336,0.24,0.406,0.44,0.406c0.365,0,1.852-0.9,2.819-1.977
							c0.215,0.424,0.44,0.733,0.72,1.084c0.504,0.537,0.916,0.918,1.669,0.918h0.292c0.54,0,0.601-0.34,0.601-0.481
							c0-0.152-0.061-0.499-0.601-0.499h-0.236c-0.305,0-0.658-0.313-0.895-0.812c-0.004-0.007-0.376-0.548-0.526-1.235
							c1.156-1.363,2.036-3.265,2.354-5.084l0.029-0.138l-1.816-0.018L315.243,5.978z"/>
					</g>
					<g>
						<path fill="#221E1F" d="M422.424,5.489c0-0.314-0.213-0.499-0.563-0.499h-4.253v0.999h4.253
							C422.211,5.988,422.424,5.798,422.424,5.489z"/>
						<path fill="#221E1F" d="M413.314,6.364c0.064-0.2,1.236-3.535,1.316-3.782c0.079-0.243,0.221-0.707,0.231-0.938
							c0.014-0.343-0.199-0.909-1.101-0.909h-4.054L409.7,14.402c0,0.297-0.134,1.204,0.791,1.204c0.895,0,0.895-0.907,0.895-1.204
							V2.299c0-0.292,0.006-0.472,0.009-0.574h1.505c0.093,0-0.009,0.009,0.039,0.077c0.025,0.036,0.041,0.082,0.019,0.198
							c-0.021,0.118-1.156,3.43-1.192,3.571c-0.032,0.146-0.108,0.453-0.108,0.587c0,0.208,0.001,0.381,0.141,0.596
							c0.219,0.349,0.877,0.848,1.214,1.506c0.597,1.175,0.572,2.331-0.834,2.719c-0.256,0.074-0.529,0.288-0.533,0.626
							c-0.004,0.32,0.239,0.621,0.598,0.651c0.415,0.038,1.002-0.185,1.27-0.347c0.612-0.367,1.399-1.097,1.399-2.238
							C414.91,7.659,413.333,6.385,413.314,6.364z"/>
						<path fill="#221E1F" d="M423.999,8.77c0.516,0,0.569-0.341,0.569-0.49c0-0.316-0.212-0.504-0.739-0.504h-8.532V8.77h1.737
							c0,1.555-0.052,2.507-0.617,3.838c-0.544,1.281-1.907,2.052-2.015,2.109c-0.252,0.14-0.315,0.267-0.318,0.442
							c-0.013,0.288,0.218,0.437,0.439,0.437c0.387,0,1.532-0.302,2.734-1.598c1.249-1.346,1.635-3.076,1.635-5.228h1.378v5.121
							c0,1.503,0.92,1.705,1.814,1.705h1.914c0.263,0,0.569-0.132,0.569-0.504c0-0.193-0.07-0.506-0.569-0.506h-1.168
							c-0.541,0-0.639-0.102-0.639-0.646l0.003-5.169H423.999z"/>
						<path fill="#221E1F" d="M422.85,2.043h-1.95V0h-1.968v2.043h-3.636v2.979h1.83V3.65c0-0.299,0-0.485,0-0.592h4.65
							c0.522,0,0.908,0.113,0.908,0.592v0.354c0,0.333,0,1.226,0.941,1.226s0.941-0.839,0.941-1.243V3.65
							C424.568,2.526,424.054,2.043,422.85,2.043z"/>
					</g>
					<g>
						<path fill="#221E1F" d="M394.568,2.451h2.529c-0.11,0.735-0.422,1.508-0.865,2.158c-0.374,0.544-0.841,0.955-1.385,1.265
							c-0.526,0.297-0.757,0.344-0.724,0.598c0.036,0.274,0.389,0.227,0.416,0.227c0.723-0.039,1.579-0.345,2.512-1.084
							c1.131-0.891,1.66-2.295,1.858-3.163h2.103v2.882c0,0.678,0.196,1.365,1.653,1.365h2.762c0.55,0,0.608-0.325,0.612-0.334
							c0.035-0.168,0.009-0.308-0.09-0.413c-0.116-0.127-0.332-0.199-0.633-0.199h-1.926c-0.534,0-0.583-0.095-0.583-0.544V2.451
							h1.851c0.563,0,0.65,0.086,0.65,0.621v0.825c-0.005,0.036-0.067,0.961,0.673,1.133c0.104,0.046,0.271,0.055,0.358,0.055
							c0.472,0,1.03-0.193,1.03-1.12V3.103c0-1.406-0.955-1.602-1.89-1.602h-4.512V0.014h-2.077v1.487h-6.395v3.557h2.062
							C394.559,5.058,394.562,2.557,394.568,2.451z"/>
						<path fill="#221E1F" d="M406.537,14.526h-1.267c-0.557,0-0.665-0.107-0.665-0.66c0,0,0-3.968,0-4.178
							c0-0.206-0.083-0.556-0.354-0.811c-0.265-0.257-0.66-0.358-1.21-0.358h-3.409c0.146-0.774,0.214-1.506,0.237-2.118
							c0,0-1.295,0-2.146,0c-0.005,0.753-0.061,1.457-0.157,2.118h-4.165v1.022h3.971c-0.231,0.938-0.591,1.768-1.103,2.479
							c-0.789,1.095-1.793,1.932-3.104,2.542c-0.155,0.071-0.604,0.197-0.604,0.596c0,0.216,0.172,0.458,0.516,0.447
							c0.357-0.016,2.501-0.53,4.466-2.641c0.951-1.021,1.514-2.24,1.85-3.424h2.854c0.181,0,0.301,0.095,0.324,0.234v4.04
							c0,1.535,0.955,1.745,1.886,1.745h2.082c0.275,0,0.593-0.138,0.593-0.519C407.129,14.844,407.052,14.526,406.537,14.526z"/>
					</g>
					<g>
						<path fill="#221E1F" d="M390.074,6.38h-0.924V1.653h0.645c0.365,0,0.583-0.191,0.583-0.508s-0.218-0.512-0.583-0.512h-7.409
							v1.02h1.062V6.38h-1.458v1.021h1.458c-0.006,1.847-0.103,3.337-0.466,4.453c-0.293,0.898-0.64,1.666-1.27,2.356
							c-0.419,0.461-0.58,0.571-0.612,0.814c-0.032,0.247,0.157,0.571,0.483,0.571c0.279,0,0.563-0.183,0.97-0.463
							c0.461-0.32,1.185-1.104,1.708-1.975c0.593-0.988,1.075-2.351,1.187-5.756h1.699v7.004c0,0.991,0.541,1.201,1.001,1.201
							c0.459,0,1.003-0.209,1.003-1.201V7.401h0.924c0.366,0,0.583-0.195,0.583-0.508C390.657,6.512,390.345,6.38,390.074,6.38z
							 M387.146,6.38h-1.697V1.653h1.697V6.38z"/>
						<path fill="#221E1F" d="M381.522,12.692v-5.6c0-1.012-0.492-1.453-1.64-1.453h-1.563c0.326-1.009,0.814-2.671,0.948-4
							l1.896,0.016c0.368,0,0.591-0.189,0.591-0.51c0-0.313-0.228-0.512-0.591-0.512h-5.713v1.021h1.509
							c-0.079,4.079-1.159,6.147-2.097,8.078c-0.14,0.292-0.351,0.515-0.231,0.75c0.073,0.143,0.245,0.211,0.41,0.204
							c0.168-0.007,0.676-0.138,1.533-1.244v3.249c0,1.015,0.488,1.451,1.637,1.451h1.671
							C381.03,14.143,381.522,13.707,381.522,12.692z M379.761,12.608c0,0.461-0.501,0.513-0.956,0.513h0.619
							c-0.461,0-0.973-0.061-0.973-0.513V7.174c0-0.265,0-0.429,0.003-0.53h0.351c0.447,0,0.956,0.066,0.956,0.53V12.608z"/>
					</g>
					<path fill="#221E1F" d="M324.07,2.156h10.677c0.524,0,0.565,0.492,0.565,0.991v0.414c0,0.306,0,1.229,1.034,1.229
						c0.694,0,1.045-0.414,1.045-1.229V2.614c0-1.041-0.49-1.487-1.653-1.487h-5.021V0.014h-2.051v1.113h-6.61v3.686h2.015V2.156z"
						/>
					<g>
						<path fill="#221E1F" d="M353.275,14.64c-0.058-0.009-0.109-0.016-0.161-0.027c-0.805-0.163-1.6-0.544-2.047-0.944h1.042
							c1.155,0,1.647-0.444,1.647-1.487V9.418c0-1.027-0.506-1.483-1.647-1.483h-10.994v0.129c0,0,0.005,0.376,0.005,1.354v2.764
							c0,1.043,0.494,1.487,1.657,1.487h0.776c-0.455,0.4-1.006,0.782-1.806,0.944c-0.054,0.011-0.105,0.018-0.162,0.027
							c-0.372,0.066-0.795,0.145-0.78,0.501c0.018,0.292,0.207,0.465,0.519,0.465h0.032c0.013,0,0.025,0,0.037,0
							c1.193,0,2.292-0.326,3.004-0.594c1.027-0.388,1.586-0.959,1.822-1.343h2.422c0.24,0.384,0.795,0.955,1.823,1.343
							c0.718,0.269,1.812,0.594,3.006,0.594c0.013,0,0.023,0,0.034,0h0.033c0.313,0,0.503-0.174,0.518-0.465
							C354.071,14.785,353.647,14.707,353.275,14.64z M351.713,11.146h-8.53v-0.672h8.53V11.146z M343.181,8.908h8.017
							c0.337,0,0.419,0.055,0.458,0.112c0.049,0.075,0.058,0.306,0.058,0.528h-8.532V8.908z M343.919,12.676
							c-0.478,0-0.735-0.068-0.736-0.623h8.53c0,0.555-0.038,0.623-0.516,0.623H343.919z"/>
						<path fill="#221E1F" d="M355.021,4.659h-1.527V4.442c0-0.301-0.043-0.549-0.131-0.753c0.15,0.159,0.381,0.274,0.74,0.274
							c0.468,0,1.019-0.208,1.019-1.208v-0.24c0-0.907-0.562-1.403-1.584-1.403h-5.118V0h-2.029v1.113h-6.641v2.827h1.628v0.719
							h-2.129V5.62h2.133v0.288c0,1.038,0.497,1.483,1.652,1.483h8.807c1.161,0,1.653-0.445,1.653-1.483V5.62h1.527
							c0.372,0,0.602-0.163,0.602-0.488C355.623,4.823,355.393,4.659,355.021,4.659z M351.015,3.9c0.531,0,0.565,0.125,0.565,0.758
							h-3.219V3.9H351.015z M352.645,2.142c0.361,0,0.444,0.087,0.444,0.438v0.175c0,0.136,0,0.397,0.097,0.642
							c-0.266-0.301-0.702-0.437-1.346-0.437h-10.084V2.142H352.645z M343.345,3.9h3.106v0.758h-3.106V3.9z M343.345,5.786V5.62
							h3.106v0.827h-2.524C343.388,6.446,343.345,6.282,343.345,5.786z M351.581,5.786c0,0.512-0.037,0.66-0.565,0.66h-2.653V5.62
							h3.219V5.786z"/>
					</g>
				</g>
			</g>
		</g>
	</g>
	<g>
		<path fill="#C63529" d="M103.452,18.6c2.357,0,4.379-2.007,4.379-4.55c0-2.508-2.022-4.628-4.379-4.628
			c-2.35,0-4.288,2.12-4.288,4.628C99.165,16.592,101.102,18.6,103.452,18.6z"/>
		<path fill="#221E1F" d="M76.917,36.968l-1.267-3.705H65.458l-4.467,18.107h13.322l-1.359-4.047l-6.646,0.089l2.521-10.445H76.917z
			 M56.53,51.371l4.389-18.025H56.12l-1.86,7.919l-5.225-0.088l1.933-7.913H46.26l-4.643,18.107h4.803l1.523-6.646h5.382
			l-1.26,6.646H56.53z M98.651,10.602l1.946-1.358C79.438-4.566,35.56,10.255,22.163,30.061h6.991
			C45.754,11.964,76.241-2.206,98.651,10.602z M107.161,19.961l-2.187,0.334c3.7,37.146-66.304,65.516-85.004,37.974l54.757-0.512
			v-3.523l-63.775,0.173C11.544,98.298,111.533,70.234,107.161,19.961z M16.524,51.371l3.2-0.084l5.312-18.023h-4.466l-2.447,8.164
			l-2.439-8.164h-4.381l-5.31,18.107l4.542-0.084l2.611-9.098L16.524,51.371z M40.196,36.968l-1.265-3.705H28.81l-4.542,18.107
			h13.305l-1.336-4.047l-6.659,0.089l2.528-10.445H40.196z"/>
	</g>
	<g>
		<path fill="#221E1F" d="M379.088,71.56c0-0.869-0.015-1.601-0.071-2.252h1.939l0.089,1.118h0.054
			c0.44-0.592,1.245-1.294,2.745-1.294c1.17,0,2.086,0.562,2.469,1.403h0.035c0.312-0.419,0.677-0.731,1.099-0.948
			c0.49-0.295,1.056-0.455,1.789-0.455c1.485,0,2.984,0.855,2.984,3.283v4.461h-2.197v-4.182c0-1.26-0.512-2.004-1.589-2.004
			c-0.769,0-1.338,0.465-1.574,1.008c-0.054,0.188-0.11,0.42-0.11,0.637v4.541h-2.193v-4.382c0-1.06-0.49-1.804-1.535-1.804
			c-0.845,0-1.406,0.559-1.61,1.09c-0.09,0.183-0.125,0.402-0.125,0.621v4.475h-2.197V71.56z"/>
		<path fill="#221E1F" d="M442.559,76.584c-0.53,0.234-1.7,0.471-3.178,0.471c-3.915,0-6.291-2.083-6.291-5.271
			c0-3.449,2.816-5.535,6.577-5.535c1.481,0,2.544,0.266,3.006,0.465l-0.497,1.523c-0.587-0.216-1.389-0.406-2.412-0.406
			c-2.509,0-4.319,1.342-4.319,3.857c0,2.301,1.593,3.783,4.302,3.783c0.916,0,1.86-0.16,2.451-0.396L442.559,76.584z"/>
		<g>
			<path fill="#221E1F" d="M210.156,76.449c-0.53,0.238-1.703,0.469-3.185,0.469c-3.909,0-6.291-2.081-6.291-5.27
				c0-3.447,2.818-5.535,6.584-5.535c1.479,0,2.541,0.267,2.999,0.469l-0.492,1.524c-0.585-0.22-1.392-0.404-2.414-0.404
				c-2.506,0-4.315,1.335-4.315,3.854c0,2.3,1.591,3.776,4.296,3.776c0.914,0,1.864-0.154,2.451-0.391L210.156,76.449z"/>
			<path fill="#221E1F" d="M213.103,73.515c0.054,1.366,1.316,1.959,2.743,1.959c1.043,0,1.794-0.126,2.471-0.346l0.327,1.32
				c-0.767,0.27-1.827,0.469-3.107,0.469c-2.89,0-4.591-1.51-4.591-3.823c0-2.097,1.501-4.072,4.353-4.072
				c2.887,0,3.839,2.019,3.839,3.684c0,0.358-0.038,0.638-0.072,0.81H213.103z M217.018,72.174c0.018-0.696-0.349-1.849-1.848-1.849
				c-1.389,0-1.977,1.074-2.066,1.849H217.018z"/>
			<path fill="#221E1F" d="M220.598,71.45c0-0.874-0.02-1.604-0.075-2.256h1.977l0.109,1.132h0.056
				c0.384-0.59,1.353-1.304,2.833-1.304c1.555,0,3.164,0.854,3.164,3.249v4.49h-2.251v-4.273c0-1.088-0.474-1.912-1.7-1.912
				c-0.896,0-1.515,0.545-1.755,1.119c-0.072,0.17-0.091,0.408-0.091,0.623v4.443h-2.267V71.45z"/>
			<path fill="#221E1F" d="M233.173,67.031v2.163h2.14v1.428h-2.14v3.339c0,0.921,0.292,1.404,1.152,1.404
				c0.385,0,0.676-0.051,0.878-0.096l0.036,1.463c-0.328,0.107-0.915,0.186-1.626,0.186c-0.825,0-1.519-0.23-1.938-0.617
				c-0.476-0.438-0.694-1.123-0.694-2.115v-3.563h-1.281v-1.428h1.281v-1.71L233.173,67.031z"/>
			<path fill="#221E1F" d="M238.218,73.515c0.056,1.366,1.317,1.959,2.743,1.959c1.045,0,1.794-0.126,2.469-0.346l0.329,1.32
				c-0.768,0.27-1.827,0.469-3.108,0.469c-2.889,0-4.589-1.51-4.589-3.823c0-2.097,1.501-4.072,4.353-4.072
				c2.886,0,3.836,2.019,3.836,3.684c0,0.358-0.036,0.638-0.072,0.81H238.218z M242.133,72.174c0.018-0.696-0.347-1.849-1.844-1.849
				c-1.392,0-1.977,1.074-2.07,1.849H242.133z"/>
			<path fill="#221E1F" d="M245.747,71.632c0-1.025-0.018-1.757-0.072-2.438h1.956l0.072,1.445h0.075
				c0.438-1.073,1.481-1.617,2.431-1.617c0.22,0,0.347,0.015,0.53,0.045v1.804c-0.183-0.031-0.383-0.061-0.657-0.061
				c-1.081,0-1.812,0.59-2.011,1.445c-0.037,0.168-0.075,0.373-0.075,0.588v3.918h-2.249V71.632z"/>
		</g>
		<g>
			<path fill="#221E1F" d="M273.248,71.613c0-1.027-0.021-1.756-0.074-2.439h1.953l0.075,1.446h0.075
				c0.437-1.075,1.479-1.619,2.43-1.619c0.219,0,0.348,0.015,0.533,0.046v1.805c-0.186-0.027-0.383-0.062-0.658-0.062
				c-1.08,0-1.814,0.593-2.015,1.44c-0.036,0.178-0.071,0.375-0.071,0.594v3.918h-2.248V71.613z"/>
			<path fill="#221E1F" d="M271.924,72.791c0,2.854-2.358,4.127-4.681,4.127c-2.586,0-4.572-1.514-4.572-4
				c0-2.551,1.968-4.111,4.718-4.111C270.11,68.806,271.924,70.433,271.924,72.791z M265.053,72.869
				c0,1.503,0.858,2.635,2.266,2.635c1.31,0,2.229-1.104,2.229-2.665c0-1.21-0.637-2.6-2.211-2.6
				C265.708,70.239,265.053,71.581,265.053,72.869z"/>
			<path fill="#221E1F" d="M257.555,76.742v-6.027h-1.336v-1.791h1.336v-0.301c0-0.945,0.277-1.982,0.938-2.623
				c0.599-0.577,1.397-0.783,2.086-0.783c0.508,0,0.909,0.08,1.231,0.16l-0.095,1.869c-0.197-0.061-0.444-0.111-0.751-0.111
				c-0.768,0-1.09,0.621-1.09,1.389v0.4h1.843v1.791h-1.827v6.027H257.555z"/>
		</g>
		<path fill="#221E1F" d="M372.769,71.749c0-1.03-0.018-1.761-0.071-2.44h1.957l0.071,1.443h0.075
			c0.437-1.071,1.479-1.619,2.43-1.619c0.219,0,0.348,0.021,0.533,0.049v1.804c-0.186-0.032-0.383-0.063-0.658-0.063
			c-1.081,0-1.814,0.593-2.011,1.446c-0.04,0.173-0.075,0.372-0.075,0.593v3.916h-2.251V71.749z"/>
		<path fill="#221E1F" d="M371.449,72.925c0,2.854-2.358,4.13-4.681,4.13c-2.583,0-4.569-1.516-4.569-4.004
			c0-2.546,1.969-4.108,4.717-4.108C369.631,68.943,371.449,70.566,371.449,72.925z M364.579,73.003
			c0,1.502,0.858,2.631,2.265,2.631c1.31,0,2.226-1.1,2.226-2.664c0-1.211-0.633-2.596-2.207-2.596
			C365.234,70.375,364.579,71.714,364.579,73.003z"/>
		<path fill="#221E1F" d="M454.424,71.56c0-0.869-0.019-1.601-0.072-2.252h1.937l0.093,1.118h0.054
			c0.44-0.592,1.245-1.294,2.744-1.294c1.171,0,2.083,0.562,2.47,1.403h0.035c0.312-0.419,0.677-0.731,1.099-0.948
			c0.49-0.295,1.062-0.455,1.793-0.455c1.478,0,2.977,0.855,2.977,3.283v4.461h-2.193v-4.182c0-1.26-0.512-2.004-1.592-2.004
			c-0.766,0-1.331,0.465-1.571,1.008c-0.057,0.188-0.11,0.42-0.11,0.637v4.541h-2.194v-4.382c0-1.06-0.49-1.804-1.534-1.804
			c-0.845,0-1.406,0.559-1.607,1.09c-0.1,0.183-0.132,0.402-0.132,0.621v4.475h-2.193V71.56z"/>
		<path fill="#221E1F" d="M452.857,72.925c0,2.854-2.361,4.13-4.684,4.13c-2.588,0-4.569-1.516-4.569-4.004
			c0-2.546,1.968-4.108,4.716-4.108C451.036,68.943,452.857,70.566,452.857,72.925z M445.979,73.003c0,1.502,0.863,2.631,2.27,2.631
			c1.312,0,2.229-1.1,2.229-2.664c0-1.211-0.637-2.596-2.211-2.596C446.638,70.375,445.979,71.714,445.979,73.003z"/>
		<path fill="#221E1F" d="M357.079,76.876v-6.025h-1.338v-1.788h1.338v-0.306c0-0.943,0.279-1.984,0.938-2.623
			c0.602-0.576,1.396-0.783,2.09-0.783c0.505,0,0.905,0.082,1.228,0.158l-0.094,1.872c-0.196-0.062-0.443-0.11-0.751-0.11
			c-0.766,0-1.092,0.624-1.092,1.39v0.402h1.843v1.788h-1.828v6.025H357.079z"/>
		<g>
			<path fill="#221E1F" d="M419.615,76.649c-0.472,0.187-1.402,0.388-2.519,0.388c-2.773,0-4.58-1.502-4.58-3.848
				c0-2.264,1.825-4.031,4.945-4.031c0.826,0,1.66,0.156,2.172,0.354l-0.401,1.431c-0.364-0.141-0.895-0.297-1.699-0.297
				c-1.71,0-2.733,1.074-2.716,2.451c0,1.552,1.188,2.438,2.716,2.438c0.783,0,1.335-0.14,1.774-0.297L419.615,76.649z"/>
			<path fill="#221E1F" d="M422.459,73.638c0.058,1.367,1.317,1.955,2.737,1.955c1.042,0,1.793-0.121,2.466-0.338l0.329,1.316
				c-0.766,0.264-1.825,0.465-3.105,0.465c-2.881,0-4.577-1.502-4.577-3.815c0-2.09,1.496-4.063,4.341-4.063
				c2.888,0,3.832,2.017,3.832,3.677c0,0.354-0.036,0.636-0.071,0.804H422.459z M426.368,72.306
				c0.018-0.699-0.348-1.846-1.843-1.846c-1.389,0-1.972,1.07-2.065,1.846H426.368z"/>
		</g>
		<path fill="#221E1F" d="M518.95,69.041c-0.032,0.467-0.071,1.031-0.071,1.986v3.914c0,1.447-0.347,2.484-1.195,3.138
			c-0.854,0.637-2.025,0.833-3.142,0.833c-1.034,0-2.136-0.182-2.837-0.551l0.454-1.322c0.516,0.26,1.385,0.526,2.369,0.526
			c1.334,0,2.333-0.594,2.333-2.085v-0.592h-0.032c-0.466,0.61-1.299,1.018-2.365,1.018c-2.022,0-3.457-1.416-3.457-3.379
			c0-2.267,1.732-3.646,3.686-3.646c1.238,0,1.972,0.514,2.358,1.084h0.028l0.086-0.924H518.95z M516.829,71.806
			c0-0.158-0.015-0.326-0.064-0.471c-0.219-0.637-0.802-1.117-1.668-1.117c-1.155,0-2.004,0.854-2.004,2.255
			c0,1.179,0.701,2.126,1.982,2.126c0.77,0,1.438-0.424,1.671-1.049c0.054-0.183,0.083-0.424,0.083-0.623V71.806z"/>
		<path fill="#221E1F" d="M308.633,69.041c-0.032,0.467-0.068,1.031-0.068,1.986v3.914c0,1.447-0.347,2.484-1.202,3.138
			c-0.852,0.637-2.018,0.833-3.135,0.833c-1.034,0-2.136-0.182-2.837-0.551l0.45-1.322c0.52,0.26,1.385,0.526,2.369,0.526
			c1.335,0,2.337-0.594,2.337-2.085v-0.592h-0.036c-0.465,0.61-1.299,1.018-2.369,1.018c-2.018,0-3.452-1.416-3.452-3.379
			c0-2.267,1.738-3.646,3.688-3.646c1.234,0,1.969,0.514,2.354,1.084h0.029l0.082-0.924H308.633z M306.511,71.806
			c0-0.158-0.015-0.326-0.061-0.471c-0.222-0.637-0.806-1.117-1.675-1.117c-1.148,0-2,0.854-2,2.255
			c0,1.179,0.701,2.126,1.985,2.126c0.766,0,1.438-0.424,1.671-1.049c0.051-0.183,0.079-0.424,0.079-0.623V71.806z"/>
		<g>
			<rect x="283.539" y="66.136" fill="#221E1F" width="2.115" height="10.74"/>
			<polygon fill="#221E1F" points="291.404,66.136 291.397,76.876 293.541,76.876 293.541,66.136 			"/>
		</g>
		<path fill="#221E1F" d="M328.564,71.64c0-1.019-0.039-1.846-0.075-2.577h2.021l0.111,1.19h0.039
			c0.673-0.875,1.739-1.373,3.127-1.373c2.098,0,3.84,1.531,3.84,3.954c0,2.81-2.079,4.163-4.154,4.163
			c-1.145,0-2.101-0.414-2.569-1.039h-0.035v4.02h-2.305V71.64z M330.869,73.568c0,0.193,0.014,0.367,0.071,0.548
			c0.226,0.792,1.048,1.364,2.025,1.364c1.46,0,2.322-1.033,2.322-2.562c0-1.371-0.787-2.487-2.269-2.487
			c-0.956,0-1.836,0.591-2.062,1.447c-0.054,0.165-0.089,0.342-0.089,0.497V73.568z"/>
		<path fill="#221E1F" d="M469.313,71.64c0-1.019-0.036-1.846-0.075-2.577h2.021l0.115,1.19h0.035
			c0.677-0.875,1.743-1.373,3.128-1.373c2.097,0,3.843,1.531,3.843,3.954c0,2.81-2.083,4.163-4.161,4.163
			c-1.142,0-2.098-0.414-2.566-1.039h-0.039v4.02h-2.301V71.64z M471.614,73.568c0,0.193,0.018,0.367,0.079,0.548
			c0.222,0.792,1.048,1.364,2.018,1.364c1.464,0,2.326-1.033,2.326-2.562c0-1.371-0.791-2.487-2.269-2.487
			c-0.952,0-1.836,0.591-2.062,1.447c-0.054,0.165-0.093,0.342-0.093,0.497V73.568z"/>
		<path fill="#221E1F" d="M311.042,65.562h2.322v4.621h0.035c0.283-0.365,0.659-0.671,1.142-0.891
			c0.455-0.223,0.995-0.35,1.575-0.35c1.556,0,3.181,0.875,3.181,3.363v4.57h-2.301v-4.35c0-1.133-0.486-1.975-1.761-1.975
			c-0.898,0-1.535,0.51-1.782,1.096c-0.071,0.162-0.089,0.369-0.089,0.593v4.636h-2.322V65.562z"/>
		<path fill="#221E1F" d="M298.839,66.953c0,0.588-0.504,1.046-1.312,1.046c-0.767,0-1.274-0.458-1.274-1.046
			c0-0.607,0.529-1.07,1.296-1.07C298.335,65.882,298.822,66.345,298.839,66.953z M296.385,76.876v-7.762h2.322v7.762H296.385z"/>
		<path fill="#221E1F" d="M298.839,66.953c0,0.588-0.504,1.046-1.312,1.046c-0.767,0-1.274-0.458-1.274-1.046
			c0-0.607,0.529-1.07,1.296-1.07C298.335,65.882,298.822,66.345,298.839,66.953z M296.385,76.876v-7.762h2.322v7.762H296.385z"/>
		<path fill="#221E1F" d="M499.298,66.953c0,0.588-0.505,1.046-1.313,1.046c-0.766,0-1.273-0.458-1.273-1.046
			c0-0.607,0.526-1.07,1.292-1.07C498.793,65.882,499.277,66.345,499.298,66.953z M496.844,76.876v-7.762h2.322v7.762H496.844z"/>
		<g>
			<path fill="#221E1F" d="M130.393,76.55V65.812h2.619l3.261,4.605c0.843,1.195,1.575,2.438,2.154,3.602h0.04
				c-0.152-1.434-0.208-2.82-0.208-4.462v-3.745h2.134V76.55h-2.379l-3.296-4.716c-0.803-1.175-1.647-2.501-2.265-3.712
				l-0.058,0.014c0.095,1.389,0.111,2.807,0.111,4.576v3.838H130.393z"/>
			<path fill="#221E1F" d="M154.467,66.576v2.219h2.188v1.466h-2.188v3.425c0,0.94,0.295,1.434,1.179,1.434
				c0.39,0,0.694-0.046,0.898-0.096l0.036,1.499c-0.334,0.11-0.934,0.188-1.666,0.188c-0.845,0-1.555-0.236-1.982-0.634
				c-0.488-0.449-0.712-1.149-0.712-2.169V70.26h-1.315v-1.466h1.315v-1.758L154.467,66.576z"/>
			<path fill="#221E1F" d="M160.442,66.625c0,0.589-0.506,1.053-1.312,1.053c-0.768,0-1.274-0.464-1.274-1.053
				c0-0.608,0.522-1.07,1.293-1.07C159.936,65.554,160.421,66.016,160.442,66.625z M157.988,76.55v-7.756h2.322v7.756H157.988z"/>
			<path fill="#221E1F" d="M171.122,72.602c0,2.853-2.362,4.126-4.682,4.126c-2.585,0-4.571-1.516-4.571-3.997
				c0-2.552,1.968-4.113,4.72-4.113C169.302,68.618,171.122,70.242,171.122,72.602z M164.248,72.681
				c0,1.497,0.861,2.631,2.265,2.631c1.312,0,2.229-1.104,2.229-2.664c0-1.213-0.635-2.594-2.211-2.594
				C164.902,70.054,164.248,71.39,164.248,72.681z"/>
			<path fill="#221E1F" d="M172.705,71.103c0-0.893-0.018-1.643-0.073-2.309h2.022l0.114,1.16h0.054
				c0.394-0.604,1.387-1.337,2.904-1.337c1.592,0,3.24,0.873,3.24,3.331v4.602h-2.303v-4.379c0-1.117-0.487-1.961-1.743-1.961
				c-0.919,0-1.557,0.562-1.798,1.148c-0.077,0.175-0.095,0.413-0.095,0.637v4.555h-2.322V71.103z"/>
			<path fill="#221E1F" d="M192.236,65.238h2.321V76.55h-2.321V65.238z"/>
			<path fill="#221E1F" d="M189.371,76.082c-0.667,0.455-1.906,0.789-2.839,0.795c-0.422,0.007-0.868-0.023-1.335-0.094
				c-1.93-0.287-2.759-1.252-2.759-2.361c0-1.961,2.09-2.955,5.541-2.938v-0.125c0-0.508-0.25-1.354-1.9-1.354
				c-0.92,0-1.879,0.237-2.51,0.574l-0.46-1.276c0.687-0.354,1.895-0.685,3.373-0.685c2.99,0,3.854,1.579,3.854,3.267
				c0,0,0,1.193,0,2.033C190.334,74.755,190.075,75.599,189.371,76.082z M188.034,72.763c-1.667-0.032-3.301,0.267-3.301,1.445
				c0,0.766,0.621,1.122,1.385,1.122c0.939,0,1.34-0.341,1.56-0.567c0.222-0.23,0.356-0.647,0.356-1.027
				C188.034,73.355,188.034,72.763,188.034,72.763z"/>
			<path fill="#221E1F" d="M149.031,76.082c-0.667,0.455-1.907,0.789-2.839,0.795c-0.422,0.007-0.866-0.023-1.334-0.094
				c-1.932-0.287-2.761-1.252-2.761-2.361c0-1.961,2.09-2.955,5.542-2.938v-0.125c0-0.508-0.25-1.354-1.898-1.354
				c-0.921,0-1.88,0.237-2.514,0.574l-0.458-1.276c0.689-0.354,1.898-0.685,3.373-0.685c2.991,0,3.855,1.579,3.855,3.267
				c0,0,0,1.193,0,2.033C149.998,74.755,149.738,75.599,149.031,76.082z M147.695,72.763c-1.667-0.032-3.301,0.267-3.301,1.445
				c0,0.766,0.619,1.122,1.383,1.122c0.939,0,1.342-0.341,1.562-0.567c0.224-0.23,0.356-0.647,0.356-1.027
				C147.695,73.355,147.695,72.763,147.695,72.763z"/>
		</g>
		<rect x="284.609" y="70.765" fill="#221E1F" width="7.858" height="1.482"/>
		<path fill="#221E1F" d="M238.218,73.515c0.056,1.366,1.317,1.959,2.743,1.959c1.045,0,1.794-0.126,2.469-0.346l0.329,1.32
			c-0.768,0.27-1.827,0.469-3.108,0.469c-2.889,0-4.589-1.51-4.589-3.823c0-2.097,1.501-4.072,4.353-4.072
			c2.886,0,3.836,2.019,3.836,3.684c0,0.358-0.036,0.638-0.072,0.81H238.218z M242.133,72.174c0.018-0.696-0.347-1.849-1.844-1.849
			c-1.392,0-1.977,1.074-2.07,1.849H242.133z"/>
		<g>
			<path fill="#221E1F" d="M341.288,73.65c0.054,1.365,1.313,1.959,2.737,1.959c1.045,0,1.797-0.129,2.473-0.345l0.329,1.32
				c-0.769,0.269-1.828,0.471-3.109,0.471c-2.891,0-4.587-1.509-4.587-3.825c0-2.097,1.496-4.074,4.351-4.074
				c2.888,0,3.84,2.023,3.84,3.686c0,0.356-0.036,0.636-0.075,0.809H341.288z M345.196,72.314c0.021-0.701-0.344-1.85-1.843-1.85
				c-1.393,0-1.976,1.071-2.065,1.85H345.196z"/>
			<path fill="#221E1F" d="M348.813,71.767c0-1.025-0.018-1.756-0.071-2.438h1.957l0.071,1.443h0.072
				c0.439-1.072,1.484-1.617,2.433-1.617c0.222,0,0.348,0.018,0.529,0.051v1.8c-0.182-0.03-0.383-0.063-0.654-0.063
				c-1.081,0-1.814,0.593-2.015,1.446c-0.036,0.172-0.075,0.376-0.075,0.594v3.915h-2.247V71.767z"/>
		</g>
		<path fill="#221E1F" d="M400.382,76.082c-0.673,0.455-1.907,0.789-2.841,0.795c-0.423,0.007-0.866-0.023-1.335-0.094
			c-1.933-0.287-2.763-1.252-2.763-2.361c0-1.961,2.09-2.955,5.543-2.938v-0.125c0-0.508-0.251-1.354-1.896-1.354
			c-0.923,0-1.882,0.237-2.512,0.574l-0.462-1.276c0.69-0.354,1.896-0.685,3.374-0.685c2.992,0,3.854,1.579,3.854,3.267
			c0,0,0,1.193,0,2.033C401.345,74.755,401.087,75.599,400.382,76.082z M399.044,72.763c-1.668-0.032-3.303,0.267-3.303,1.445
			c0,0.766,0.622,1.122,1.385,1.122c0.938,0,1.342-0.341,1.56-0.567c0.222-0.23,0.358-0.647,0.358-1.027
			C399.044,73.355,399.044,72.763,399.044,72.763z"/>
		<path fill="#221E1F" d="M402.93,71.103c0-0.893-0.019-1.643-0.075-2.309h2.021l0.111,1.16h0.057
			c0.397-0.604,1.389-1.337,2.905-1.337c1.593,0,3.238,0.873,3.238,3.331v4.602h-2.304v-4.379c0-1.117-0.487-1.961-1.739-1.961
			c-0.92,0-1.557,0.562-1.8,1.148c-0.075,0.175-0.093,0.413-0.093,0.637v4.555h-2.322V71.103z"/>
		<path fill="#221E1F" d="M501.474,71.103c0-0.893-0.021-1.643-0.079-2.309h2.025l0.107,1.16h0.061
			c0.394-0.604,1.385-1.337,2.906-1.337c1.585,0,3.234,0.873,3.234,3.331v4.602h-2.301v-4.379c0-1.117-0.486-1.961-1.742-1.961
			c-0.916,0-1.554,0.562-1.797,1.148c-0.078,0.175-0.093,0.413-0.093,0.637v4.555h-2.322V71.103z"/>
		<path fill="#221E1F" d="M488.027,74.068c0,0.891,0.019,1.641,0.075,2.309h-2.025l-0.11-1.164h-0.058
			c-0.394,0.608-1.389,1.338-2.901,1.338c-1.593,0-3.242-0.873-3.242-3.329v-4.604h2.305V73c0,1.116,0.486,1.959,1.742,1.959
			c0.916,0,1.553-0.555,1.796-1.145c0.075-0.178,0.094-0.416,0.094-0.641v-4.556h2.325V74.068z"/>
		<path fill="#221E1F" d="M492.955,67.031v2.163h2.144v1.428h-2.144v3.339c0,0.921,0.293,1.404,1.155,1.404
			c0.387,0,0.677-0.051,0.877-0.096l0.036,1.463c-0.329,0.107-0.913,0.186-1.625,0.186c-0.823,0-1.521-0.23-1.939-0.617
			c-0.479-0.438-0.697-1.123-0.697-2.115v-3.563h-1.277v-1.428h1.277v-1.71L492.955,67.031z"/>
		<path fill="#221E1F" d="M325.705,71.875v1.615h-4.021v-1.615H325.705z"/>
	</g>
	<g>
		<g>
			<path fill="#221E1F" d="M234.324,29.077h-1.743h-11.29v-2.709h-4.197v2.709h-10.403h-3.62v2.048h31.252
				c0.281,0,0.984-0.25,0.984-1.034C235.308,29.312,234.604,29.077,234.324,29.077z"/>
			<path fill="#221E1F" d="M230.538,43.858h-26.525v15.252h4.097V45.907h20.41c1.403,0,1.644,0.447,1.644,1.759v7.595
				c0,1.356-0.241,1.77-1.644,1.77h-1.458c-0.308,0-1.083,0.194-1.083,1.06c0,0.861,0.807,1.021,1.083,1.021h3.476
				c2.165,0,3.712-0.666,3.712-3.444v-8.262C234.25,44.83,233.13,43.858,230.538,43.858z"/>
			<path fill="#221E1F" d="M226.126,41.125c1.683,0,2.979-0.483,2.979-2.739v-1.563c0-2.172-1.188-2.693-2.979-2.693h-16.82v4.256
				c0,2.177,1.188,2.739,3.013,2.739H226.126z M213.403,36.174h10.86c0.646,0,0.748,0.132,0.748,0.878v1.15
				c0,0.751-0.059,0.873-0.748,0.873h-10.06c-0.758,0-0.8-0.089-0.8-0.873V36.174z"/>
			<path fill="#221E1F" d="M226.146,50.975c0-1.792-0.596-2.993-3.194-2.993h-7.532c-2.342,0-3.188,0-3.188,0v5.164
				c0,1.902,0.705,2.961,3.188,2.961h7.532c2.253,0,3.194-0.787,3.194-2.961V50.975z M222.496,52.616c0,1.161-0.2,1.427-1.324,1.427
				h-3.956c-1.125,0-1.337-0.266-1.337-1.427v-2.591h5.292c1.124,0,1.324,0.272,1.324,1.432V52.616z"/>
		</g>
		<g>
			<path fill="#221E1F" d="M270.3,57.064h-15.083c-3.807,0-8.946-0.971-8.935-4.666v-8.726c0-1.871-0.699-2.956-3.188-2.956h-3.992
				v2.045h2.133c1.265,0,1.471,0.338,1.471,1.571c0,0,0,6.044,0,8.026c0,1.983-2.113,3.069-3.103,3.533
				c-1.77,0.835-0.876,3.907,1.045,3.084c1.324-0.574,2.512-1.609,3.745-3.288c2.453,3.433,4.968,3.423,9.461,3.423H270.3
				c0.314,0,1.244,0,1.244-1.021C271.544,57.111,270.632,57.064,270.3,57.064z"/>
			<path fill="#221E1F" d="M242.149,34.984c0.988,0,2.992,0,4.319,0c-0.433-3.391-4.373-7.605-6.366-8.116
				c-0.431-0.12-0.796,0.414-0.796,0.823c0,0.218,0.068,0.406,0.249,0.671C240.603,30.079,241.616,31.594,242.149,34.984z"/>
			<path fill="#221E1F" d="M257.394,35.158h-4.455h-3.179v6.067c0,1.905,0.725,2.997,3.179,2.997h2.979
				c-1.939,4.548-5.358,7.007-7.323,8.543c-0.279,0.22-0.562,0.406-0.562,0.862c0,0.486,0.349,0.861,0.772,0.861
				c0.417,0,4.775-1.396,8.588-6.373v6.189c0,1.121,0.626,2.233,2.095,2.233c1.542,0,2.113-1.263,2.113-2.233V47.63
				c3.33,4.936,7.563,6.79,8.265,6.79c0.348,0,0.766-0.344,0.766-0.862c0-0.417-0.279-0.649-0.522-0.832
				c-3.223-2.731-5.819-5.7-6.832-8.504h2.836c2.206,0,3.193-0.832,3.193-2.997v-3.106c0-1.907-0.705-2.961-3.193-2.961h-4.513
				v-2.862h8.876c0.283,0,0.98-0.245,0.98-1.023c0-0.782-0.697-1.022-0.98-1.022h-1.62h-7.256v-3.399h-4.208v3.399h-6.99h-2.782
				v2.045h9.772V35.158z M257.394,42.171h-2.705c-1.256,0-1.467-0.306-1.467-1.574v-3.396c0,0,0.245,0,1.467,0h2.705V42.171z
				 M261.602,37.201h2.725c1.195,0,1.44,0.298,1.44,1.567v1.829c0,1.269-0.145,1.574-1.44,1.574h-2.725V37.201z"/>
		</g>
		<g>
			<path fill="#221E1F" d="M339.799,46.028h-11.143v9.978c0,2.247,0.912,3.14,3.436,3.14h7.707c2.215,0,3.438-0.631,3.438-3.14
				v-6.792C343.238,46.964,342.322,46.028,339.799,46.028z M339.044,55.38c0,1.387-0.247,1.723-1.578,1.723h-2.998
				c-1.328,0-1.614-0.301-1.614-1.691v-7.336h4.612c1.299,0,1.578,0.223,1.578,1.685V55.38z"/>
			<path fill="#221E1F" d="M325.541,52.992c-0.318,0.095-1.514,0.467-3.253,0.881v-7.026h2.798c0.276,0,0.98-0.25,0.98-1.027
				c0-0.783-0.704-1.02-0.98-1.02h-1.42c-0.029,0-0.051-0.005-0.079-0.005h-1.299v-5.067c2.479,0,3.253-0.979,3.253-2.958V30.49
				c0-1.802-0.595-2.963-3.185-2.963h-8.059v9.242c0,1.906,0.694,2.958,3.185,2.958h1.475v13.118v1.714
				c-0.58,0.102-1.195,0.198-1.825,0.282v-1.996V42.098h-2.834v13.06c-0.482,0.035-0.955,0.064-1.435,0.083v3.819
				c0,0,10.055-2.674,13.297-4.505c0.779-0.399,0.644-0.653,0.54-1.165C326.599,52.871,326.309,52.771,325.541,52.992z
				 M320.877,37.675h-1.817c-1.224,0-1.481-0.257-1.481-1.571V29.57h3.299c1.235,0,1.479,0.301,1.479,1.569v4.964
				C322.356,37.417,322.113,37.675,320.877,37.675z"/>
			<path fill="#221E1F" d="M343.431,43.318c-0.708-0.324-2.998-1.25-5.768-3.446c2.451-2.147,4.741-4.951,5.957-8.443l0.047-0.37
				c0-0.156,0-1.949-2.308-1.949h-7.271c0.312-0.637,0.69-1.583,0.69-1.583h-4.497c0,0-0.462,3.761-2.602,7.274
				c-0.254,0.406-1.542,2.288-1.542,2.659c0,0.486,0.343,0.857,0.801,0.857c0.537,0,1.872-1.293,3.117-2.85
				c0.598,0.803,1.85,2.335,3.922,4.09c-1.618,1.457-3.747,2.999-6.534,4.53c-0.548,0.211-0.772,0.864-0.619,1.156
				c0.154,0.279,0.519,0.728,1.31,0.397c0.437-0.186,4.137-1.608,7.919-4.451c1.42,1.095,3.789,2.514,4.437,2.843
				c0.648,0.338,2.562,1.165,3.103,1.324c0.551,0.158,1.224,0.462,1.518-0.384C345.45,44.007,344.151,43.635,343.431,43.318z
				 M335.716,37.829c-1.234-1.523-2.673-3.015-3.424-5.407c0.347-0.501,0.934-1.261,0.934-1.261h5.139c0.15,0,0.744,0,0.744,0.601
				C339.07,32.045,338.679,34.549,335.716,37.829z"/>
		</g>
		<path fill="#221E1F" d="M450.477,51.015h-7.872v-2.412h1.671c2.169,0,3.472-0.783,3.472-3.326v-8.482
			c0-1.559-0.469-2.518-1.479-2.982c-0.501-1.331-1.656-2.833-2.236-3.526h6.087c0.275,0,0.973-0.238,0.973-1.025
			s-0.697-1.021-0.973-1.021h-3.821h-5.511c0.196-0.31,0.58-0.614,0.92-1.312h-4.237c-0.383,1.483-1.277,3.31-3.013,5.16
			c-0.279,0.288-0.454,0.551-0.454,0.815c0,0.202,0.064,0.399,0.183,0.56h-2.098c-0.551-1.236-1.549-2.553-2.075-3.177h3.657
			c0.286,0,0.984-0.238,0.984-1.025s-0.698-1.021-0.984-1.021h-1.392h-5.496c0.192-0.31,0.572-0.614,0.908-1.312h-4.387
			c-0.662,1.915-1.768,4.019-3.739,6.101c-0.279,0.3-0.458,0.567-0.458,0.83c0,0.444,0.315,0.852,0.766,0.852
			c0.516,0,2.938-1.562,5.75-4.424h1.557c0.533,0.807,1.066,2.383,1.317,3.177h-5.475v11.813c0,2.319,0.98,3.326,3.475,3.326h1.628
			c0,0,0,1.803,0,2.412h-8.828v2.053h8.635c-0.394,1.141-1.51,2.504-3.982,3.496c-0.787,0.309-1.965,0.639-2.784,0.806
			c-0.794,0.165-1.138,0.313-1.199,0.827c-0.061,0.484,0.319,0.906,0.978,0.932c0.727,0.043,9.317-0.08,11.117-6.061h6.355v0.851
			v2.763c0,1.114,0.472,2.454,2.114,2.454c1.89,0,2.075-1.938,2.075-2.454v-3.613h7.872c0.275,0,0.978-0.252,0.978-1.031
			C451.455,51.251,450.752,51.015,450.477,51.015z M439.628,30.286h1.563c0.537,0.807,1.08,2.383,1.338,3.177h-6.852
			C436.515,33.046,437.829,32.125,439.628,30.286z M427.219,35.512h14.853c1.228,0,1.475,0.531,1.475,1.766v0.614h-16.327V35.512z
			 M427.219,39.879h16.327v2.336h-16.327V39.879z M438.416,51.015h-6.098v-0.023c0-0.615,0-1.67,0-2.389h6.098V51.015z
			 M442.072,46.563h-13.386c-1.228,0-1.467-0.376-1.467-1.287v-1.116h16.327v0.875C443.546,46.266,443.299,46.563,442.072,46.563z"
			/>
		<g>
			<path fill="#221E1F" d="M276.036,55.222c-0.144,0.555-0.472,1.271-0.472,1.568c0,0.412,0,0.824,0.611,0.824
				c0.311,0,0.525-0.256,0.701-0.527c1.503-2.403,2.694-6.838,2.694-9.717c-1.062,0-1.807,0-2.659,0
				C277.041,50.001,276.737,52.642,276.036,55.222z"/>
			<path fill="#221E1F" d="M297.548,36.879c-0.086-1.451-2.523-4.967-3.571-5.346c-0.526-0.206-0.948,0.521-0.533,1.173
				c0.647,1.05,1.155,2.913,1.46,4.172C295.362,36.879,297.158,36.879,297.548,36.879z"/>
			<path fill="#221E1F" d="M299.026,36.444c-0.243,0.725,0.347,0.971,0.823,0.799c0.819-0.293,3.521-3.056,3.338-5.71
				c-0.536,0-2.766,0-2.766,0s0.207,0.588-0.361,2.655C299.838,34.995,299.112,36.163,299.026,36.444z"/>
			<path fill="#221E1F" d="M302.793,54.363c0-0.738-0.694-1.01-0.974-1.01h-2.525c-1.224,0-1.438-0.336-1.438-1.565v-5.174h3.964
				c0.279,0,0.974-0.254,0.974-1.038c0-0.787-0.694-1.016-0.974-1.016h-2.25v-4.693h2.25c0.279,0,0.974-0.249,0.974-1.042
				c0-0.782-0.694-1.007-0.974-1.007h-0.873h-7.21h-0.15v2.048h2.928v4.693h-2.928v2.054h1.342v5.82c0,2.262,1.01,2.971,3.117,2.971
				h3.675C302.042,55.404,302.793,55.193,302.793,54.363z"/>
			<path fill="#221E1F" d="M285.361,47.261c-0.387,0-0.58,0.372-0.58,0.791c0,0.332,1.131,3.688,0.623,9.562
				c1.119,0.028,1.116-0.034,2.662,0c0-3.922-1.17-8.729-2.008-9.871C285.854,47.469,285.671,47.261,285.361,47.261z"/>
			<path fill="#221E1F" d="M303.917,27.527h-15.011v28.742v2.842h3.718V29.599h9.683c1.331,0,1.61,0.617,1.61,1.721v24.022
				c0,1.349-0.279,1.722-1.61,1.722h-1.363c-0.551,0-0.984,0.277-0.984,1.025c0,0.74,0.419,1.021,0.984,1.021h2.974
				c2.601,0,3.721-0.973,3.721-3.556V31.081C307.638,28.121,306.089,27.527,303.917,27.527z"/>
			<path fill="#221E1F" d="M284.806,39.151c-0.395,0-0.744,0.336-0.744,0.818c0,0.234,0.314,0.682,0.562,2.048
				c-2.741,0.124-3.095,0.158-3.754,0.19c3.321-3.661,7.265-10.396,7.265-10.396h-3.704c0,0-1.313,2.952-1.603,3.435
				c-0.318-0.521-1.428-1.336-2.137-1.902c1.228-1.422,2.934-4.383,3.421-6.414c-0.873,0-2.608,0-3.575,0
				c-0.307,1.354-0.301,3.002-1.527,5.219c-0.451-0.259-1.535-0.987-1.926-1.021c-0.418-0.034-0.88,0.302-0.88,0.794
				c0,0.413,0.172,0.592,0.419,0.817c1.441,1.347,3.957,4.757,4.348,5.579c-0.348,0.594-0.98,1.539-2.759,3.966
				c-1.31,0.179-2.216,0.143-2.216,0.143v3.036c0,0,3.711-0.483,4.384-0.594l0.2-0.04v12.132c0,0.535,0.019,2.135,1.528,2.135
				c1.517,0,1.517-1.526,1.517-2.126V44.214l0.201-0.052c0.504-0.138,0.869-0.273,1.252-0.388c0.133,0.419,0.161,0.684,0.161,0.684
				s1.06,0.005,1.907,0h1.185C287.396,40.607,285.378,39.151,284.806,39.151z"/>
		</g>
		<g>
			<path fill="#221E1F" d="M380.509,48.203h-1.3V30.197c0.025-1.677-1.23-2.766-2.737-2.766h-5.914v1.719h3.421
				c0.701,0,1.08,0.449,1.059,1.156v3.61h-3.986v2.056h3.986v4.877h-3.986v2.048h3.986v5.305h-5.868v-9.397
				c0-1.753-1.049-2.583-2.666-2.583h-1.084c-0.977,0-0.977-0.68-0.977-1.05v-2.003h3.922c0.282,0,0.987-0.242,0.987-1.029
				c0-0.784-0.705-1.021-0.987-1.021h-3.922v-3.688h-3.436v8.155c0,0.934,0.562,2.361,2.627,2.361h1.155
				c0.701,0,0.98,0.299,0.98,1.05v9.206h-1.921v-8.797h-2.842v8.797h-6.555v-5.305h3.492c0.271,0,0.973-0.249,0.973-1.032
				c0-0.787-0.701-1.016-0.973-1.016h-3.492v-4.877h3.492c0.271,0,0.973-0.245,0.973-1.034c0-0.782-0.701-1.021-0.973-1.021h-3.492
				v-3.61c-0.032-0.707,0.347-1.156,1.056-1.156h3.409v-1.719h-5.903c-1.511,0-2.773,1.089-2.734,2.766v18.006h-1.961v2.037h32.212
				c0.286,0,0.987-0.245,0.987-1.018C381.518,48.433,380.817,48.203,380.509,48.203z"/>
			<path fill="#221E1F" d="M350.309,57.359c-0.365,0.15-0.705,0.441-0.705,0.924c0,0.494,0.547,0.835,1.174,0.749
				c6.215-0.835,10.931-5.825,11.25-7.44c-1.103,0-4.115,0-4.863,0C355.88,54.732,353.135,56.179,350.309,57.359z"/>
			<path fill="#221E1F" d="M379.2,57.386c-3.124-1.752-5.84-3.568-6.828-5.762c-1.456,0-3.793,0-4.974,0
				c1.436,3.954,9.106,7.414,11.59,7.486c0.522,0.014,0.806-0.442,0.806-0.857C379.793,57.875,379.546,57.581,379.2,57.386z"/>
		</g>
		<g>
			<path fill="#221E1F" d="M415.758,37.82h-5.046V26.948h-3.903V37.82h-6.638v1.907h6.638v16.978c0,0.73,0.189,2.431,1.979,2.431
				c1.764,0,1.925-1.746,1.925-2.431V39.727h5.046c0.265,0,0.908-0.225,0.908-0.959C416.667,38.035,416.023,37.82,415.758,37.82z"/>
			<path fill="#221E1F" d="M397.756,29.007c0-0.728-0.651-0.943-0.906-0.943h-10.391v1.904h10.391
				C397.105,29.968,397.756,29.737,397.756,29.007z"/>
			<path fill="#221E1F" d="M398.118,32.827h-13.025v1.898h13.025c0.261,0,0.919-0.232,0.919-0.952
				C399.037,33.046,398.378,32.827,398.118,32.827z"/>
			<path fill="#221E1F" d="M397.756,38.675c0-0.727-0.651-0.941-0.906-0.941h-10.391v1.906h10.391
				C397.105,39.64,397.756,39.405,397.756,38.675z"/>
			<path fill="#221E1F" d="M386.459,44.551h10.391c0.255,0,0.906-0.229,0.906-0.959c0-0.727-0.651-0.943-0.906-0.943h-10.391V44.551
				z"/>
			<path fill="#221E1F" d="M395.63,47.488h-9.296V55.4c0,1.63,0.522,2.75,2.931,2.75h6.365c2.021,0,2.974-0.764,2.974-2.75v-5.16
				C398.604,48.397,397.849,47.488,395.63,47.488z M394.786,55.078c0,1.163-0.161,1.477-1.334,1.477h-1.937
				c-1.177,0-1.366-0.313-1.366-1.477v-5.982h3.303c1.138,0,1.334,0.271,1.334,1.426V55.078z"/>
		</g>
		<g>
			<path fill="#221E1F" d="M198.345,55.449c-0.229-0.19-0.458-0.403-0.721-0.58c-1.972-1.332-4.85-3.879-6.566-9.291
				c3.882-1.331,5.628-4.004,5.943-5.922l0.052-0.319h-4.528l-0.048,0.209c-0.293,1.197-0.762,2.931-2.102,3.621
				c-0.297-1.642-0.608-4.693-0.69-6.734h2.633c0.773,0,1.249-0.431,1.249-1.12c0-0.703-0.463-1.118-1.249-1.118h-18.979v2.238
				h4.982c-0.943,1.306-2.916,4.152-8.446,6.491c-0.293,0.14-0.898,0.415-0.898,1.129c0,0.7,0.541,1.127,1.04,1.127
				c0.569,0,2.192-0.656,3.666-1.275c1.732-0.73,4.323-2.5,6.495-4.104c0.197,0.249,0.385,0.503,0.642,0.923
				c-4.149,4.8-9.52,7.342-11.482,8.057c-0.61,0.213-0.88,0.553-0.88,1.104c0,0.613,0.487,1.127,1.066,1.127
				c0.639,0,7.786-2.307,12.917-6.702c0.122,0.349,0.214,0.689,0.351,1.193l0.003,0.014c-3.773,4.206-8.52,7.393-14.163,9.286
				c-0.351,0.114-1.064,0.365-1.064,1.178c0,0.644,0.521,1.084,1.007,1.084c0.479,0,8.328-2.096,14.721-7.194
				c0.229,2.864-0.351,5.577-1.177,6.466c-0.54,0.565-1.2,0.565-1.896,0.565h-2.58c-0.782,0-1.247,0.423-1.247,1.126
				c0,0.822,0.671,1.119,1.247,1.119h5.054c3.154,0,4.825-2.559,4.825-7.395c0-5.827-1.843-10.352-5.468-13.472
				c0.854-0.728,1.267-1.238,1.821-1.846h1.664c1.057,8.838,3.575,13.623,6.113,16.574c1.988,2.317,4.673,4.146,6.176,4.549
				c0.551,0.148,1.041-0.5,1.041-1.113C198.869,55.906,198.516,55.598,198.345,55.449z"/>
		</g>
		<g>
			<path fill="#221E1F" d="M138.746,48.541h3.854c1.36,0,2.753-0.269,2.753-2.254v-5.677c0-1.984-1.394-2.258-2.753-2.258h-6.663
				l0.005,0.266c0,0,0.018,0.389,0.018,1.992v5.677C135.96,48.272,137.368,48.541,138.746,48.541z M139.259,41.273l0.005-0.852
				h1.927c0.811,0,0.889,0.068,0.889,0.843v4.367c0,0.721-0.068,0.846-0.889,0.846h-1.04c-0.825,0-0.893-0.125-0.893-0.846V41.273z"
				/>
			<path fill="#221E1F" d="M157.299,26.928h-26.906v28.308c0,1.818,0.496,3.91,4.363,3.91h22.543c2.982,0,4.371-1.24,4.371-3.91
				V30.839C161.669,29.157,161.215,26.928,157.299,26.928z M157.397,55.511c0,1.306-0.519,1.535-1.604,1.535h-19.518
				c-1.379,0-1.61-0.477-1.61-1.535V31.885l-0.005-2.902l21.133,0.009c1.226,0,1.604,0.365,1.604,1.569V55.511z"/>
			<path fill="#221E1F" d="M145.237,51.145c0-0.637-0.449-1.015-1.201-1.015h-8.094v1.994h8.094
				C144.773,52.125,145.237,51.751,145.237,51.145z"/>
			<path fill="#221E1F" d="M152.688,38.906c-0.202,1.818-0.875,4.614-2.077,6.867c-0.275-1.639-0.682-5.999-0.694-9.752h5.287
				c0.798,0,1.272-0.392,1.272-1.046c0-0.775-0.689-1.047-1.272-1.047h-0.161c-0.554-1.397-1.381-2.463-2.406-3.079
				c-0.186-0.071-0.385-0.109-0.567-0.109c-0.551,0-0.909,0.338-0.929,0.876c-0.014,0.354,0.208,0.73,0.351,0.977
				c0.036,0.062,0.07,0.114,0.088,0.156c0.191,0.424,0.322,0.782,0.453,1.179h-2.147l-0.011-3.252l-3.979,0.003v3.249h-10.189v2.093
				h10.27c0.165,6.194,0.828,9.273,2.154,13.302c-1.186,2.094-3.233,3.779-4.745,4.829l-0.12,0.083
				c-0.336,0.223-0.744,0.5-0.744,0.934c0,0.701,0.504,0.848,0.925,0.848c0.774,0,3.893-1.891,5.929-4.156
				c0.449,0.9,0.932,1.539,1.51,2.279c1.063,1.131,1.934,1.931,3.51,1.931h0.614c1.143,0,1.269-0.714,1.269-1.013
				c0-0.32-0.125-1.051-1.269-1.051h-0.492c-0.647,0-1.381-0.656-1.887-1.708c-0.007-0.009-0.778-1.147-1.103-2.593
				c2.432-2.869,4.276-6.861,4.954-10.691l0.056-0.293l-3.818-0.039L152.688,38.906z"/>
		</g>
		<path fill="#221E1F" d="M171.245,30.866h22.454c1.097,0,1.186,1.036,1.186,2.084v0.875c0,0.643,0,2.582,2.172,2.582
			c1.465,0,2.205-0.868,2.205-2.582V31.83c0-2.188-1.036-3.125-3.478-3.125H185.22v-2.337h-4.308v2.337h-13.9v7.745h4.233V30.866z"
			/>
		<g>
			<g>
				<path fill="#221E1F" d="M512.578,57.196h-9.798c-1.327,0-1.643-0.372-1.643-1.768V34.463h-3.871v21.302
					c0,2.583,1.08,3.522,3.664,3.522h11.647c1.549,0,2.479,0,2.479-1.118C515.057,57.08,513.905,57.196,512.578,57.196z"/>
				<path fill="#221E1F" d="M493.126,38.348c-0.559,0.016-1.013,0.533-1.103,1.503c-0.154,1.814-0.587,3.913-1.518,6.638
					c-0.876,2.551-2.39,5.39-3.456,7.123c1.686,0,3.442,0,4.802,0c0.29-0.697,1.324-3.883,1.843-6.505
					c0.49-2.539,0.862-6.062,0.72-7.364C494.278,38.487,493.681,38.332,493.126,38.348z"/>
				<path fill="#221E1F" d="M517.655,41.2c-1.668-2.303-2.952-3.716-3.943-3.87c-0.604-0.104-1.08,0.226-1.037,0.902
					c0.035,0.571,0.533,1.22,0.869,1.823c1.57,2.75,2.963,6.285,3.178,10.451c2.365,0,2.43,0,4.723,0
					C521.276,47.367,519.612,43.901,517.655,41.2z"/>
				<path fill="#221E1F" d="M498.49,28.617c3.797,1.39,5.933,4.516,6.945,6.225c1.103,0,4.266,0,5.053,0
					c-0.766-2.119-5.225-7.38-11.865-7.949c-0.376-0.034-0.795,0.336-0.795,0.859C497.828,28.279,498.157,28.495,498.49,28.617z"/>
			</g>
			<path fill="#221E1F" d="M480.724,32.252h-8.838v-5.36h-4.219v5.36h-8.828c-2.519,0-4.133,0-4.133,0v12.566
				c0,3.06,1.26,3.952,4.133,3.952h8.828v7.956c0,1.023,0.207,2.561,2.097,2.561c1.925,0,2.122-1.583,2.122-2.561v-7.956h8.838
				c2.483,0,4.133-0.604,4.133-3.952v-8.607C484.857,33.122,483.522,32.252,480.724,32.252z M467.667,47.041h-6.921
				c-1.159,0-1.817-0.34-1.817-1.952V33.995h8.738V47.041z M480.634,45.089c0,1.725-0.802,1.952-1.821,1.952h-6.927V33.995h6.927
				c1.442,0,1.821,0.633,1.821,1.954V45.089z"/>
		</g>
	</g>
</g>
</svg>
