<?xml version="1.0" encoding="utf-8"?>
<!-- Generator: Adobe Illustrator 16.0.0, SVG Export Plug-In . SVG Version: 6.00 Build 0)  -->
<!DOCTYPE svg PUBLIC "-//W3C//DTD SVG 1.1//EN" "http://www.w3.org/Graphics/SVG/1.1/DTD/svg11.dtd">
<svg version="1.1" id="圖層_1" xmlns="http://www.w3.org/2000/svg" xmlns:xlink="http://www.w3.org/1999/xlink" x="0px" y="0px"
	 width="251.471px" height="126.47px" viewBox="0 0 251.471 126.47" enable-background="new 0 0 251.471 126.47"
	 xml:space="preserve">
<path fill="#187CC1" d="M91.581,99.556c18.627-18.63,18.627-48.833,0-67.46L57.849,65.824L91.581,99.556z"/>
<path fill="#C9CAC9" d="M91.61,32.127c-18.628-18.629-48.831-18.629-67.461,0l33.731,33.729L91.61,32.127z"/>
<linearGradient id="SVGID_1_" gradientUnits="userSpaceOnUse" x1="41.0161" y1="15.2622" x2="74.7473" y2="48.9934">
	<stop  offset="0" style="stop-color:#FFFFFF"/>
	<stop  offset="0.3108" style="stop-color:#FDFDFD"/>
	<stop  offset="0.4481" style="stop-color:#F6F6F6"/>
	<stop  offset="0.5512" style="stop-color:#E9E9E9"/>
	<stop  offset="0.6373" style="stop-color:#D7D7D7"/>
	<stop  offset="0.7128" style="stop-color:#C0C0C0"/>
	<stop  offset="0.7808" style="stop-color:#A3A3A3"/>
	<stop  offset="0.8433" style="stop-color:#818181"/>
	<stop  offset="0.9013" style="stop-color:#595959"/>
	<stop  offset="0.9538" style="stop-color:#2D2D2D"/>
	<stop  offset="1" style="stop-color:#000000"/>
</linearGradient>
<path opacity="0.2" fill="url(#SVGID_1_)" d="M91.611,32.127c-18.628-18.629-48.831-18.629-67.46,0l33.731,33.729L91.611,32.127z"/>
<path fill="#DCDDDD" d="M91.581,99.556c-18.63,18.627-48.833,18.627-67.461,0l33.729-33.732L91.581,99.556z"/>
<path fill="#F0EFEF" d="M24.149,99.585c-18.627-18.627-18.627-48.831,0-67.458l33.731,33.729L24.149,99.585z"/>
<linearGradient id="SVGID_2_" gradientUnits="userSpaceOnUse" x1="-362.3203" y1="3812.8511" x2="-328.5891" y2="3846.5823" gradientTransform="matrix(-1 0 0 -1 -287.6064 3929.2686)">
	<stop  offset="0" style="stop-color:#FFFFFF"/>
	<stop  offset="0.3108" style="stop-color:#FDFDFD"/>
	<stop  offset="0.4481" style="stop-color:#F6F6F6"/>
	<stop  offset="0.5512" style="stop-color:#E9E9E9"/>
	<stop  offset="0.6373" style="stop-color:#D7D7D7"/>
	<stop  offset="0.7128" style="stop-color:#C0C0C0"/>
	<stop  offset="0.7808" style="stop-color:#A3A3A3"/>
	<stop  offset="0.8433" style="stop-color:#818181"/>
	<stop  offset="0.9013" style="stop-color:#595959"/>
	<stop  offset="0.9538" style="stop-color:#2D2D2D"/>
	<stop  offset="1" style="stop-color:#000000"/>
</linearGradient>
<path opacity="0.1" fill="url(#SVGID_2_)" d="M24.118,99.553c18.627,18.63,48.831,18.63,67.461,0L57.848,65.824L24.118,99.553z"/>
<g>
	<g>
		<path fill="#000101" d="M134.974,16.606h6.714l9.533,15.583h0.063V16.606h4.941V39.03h-6.461l-9.786-15.962h-0.063V39.03h-4.941
			V16.606z"/>
		<path fill="#000101" d="M166.708,20.977h-6.397v-4.371h17.736v4.371h-6.398V39.03h-4.941V20.977z"/>
		<path fill="#000101" d="M201.041,30.384c0,1.331-0.201,2.555-0.602,3.673c-0.401,1.12-0.998,2.091-1.79,2.915
			c-0.792,0.823-1.779,1.468-2.961,1.932c-1.183,0.464-2.545,0.697-4.086,0.697c-1.562,0-2.935-0.233-4.117-0.697
			c-1.183-0.464-2.169-1.109-2.961-1.932c-0.792-0.824-1.388-1.794-1.789-2.915c-0.401-1.118-0.602-2.343-0.602-3.673V16.606h4.941
			v13.587c0,0.696,0.111,1.341,0.333,1.932c0.222,0.591,0.533,1.104,0.934,1.536c0.401,0.432,0.881,0.771,1.441,1.013
			c0.559,0.243,1.167,0.364,1.821,0.364s1.256-0.121,1.806-0.364c0.549-0.242,1.024-0.581,1.425-1.013
			c0.401-0.433,0.713-0.945,0.935-1.536c0.222-0.591,0.333-1.236,0.333-1.932V16.606h4.941V30.384z"/>
		<path fill="#000101" d="M134.911,54.613h4.941v22.423h-4.941V54.613z"/>
		<path fill="#000101" d="M144.76,69.34c0-1.225,0.222-2.333,0.665-3.326c0.443-0.992,1.05-1.842,1.821-2.549
			c0.771-0.708,1.679-1.251,2.724-1.631c1.045-0.38,2.159-0.57,3.341-0.57s2.296,0.19,3.341,0.57
			c1.045,0.38,1.953,0.923,2.724,1.631c0.771,0.708,1.377,1.557,1.821,2.549c0.443,0.993,0.666,2.101,0.666,3.326
			s-0.222,2.333-0.666,3.325c-0.443,0.993-1.05,1.842-1.821,2.55c-0.771,0.708-1.679,1.25-2.724,1.631
			c-1.045,0.38-2.159,0.569-3.341,0.569s-2.296-0.189-3.341-0.569c-1.045-0.381-1.953-0.923-2.724-1.631
			c-0.771-0.708-1.378-1.557-1.821-2.55C144.982,71.673,144.76,70.564,144.76,69.34z M149.511,69.34
			c0,1.162,0.333,2.101,0.998,2.819s1.6,1.077,2.803,1.077c1.204,0,2.138-0.358,2.803-1.077s0.998-1.657,0.998-2.819
			c0-1.161-0.333-2.101-0.998-2.819c-0.665-0.718-1.6-1.077-2.803-1.077c-1.203,0-2.138,0.359-2.803,1.077
			C149.844,67.239,149.511,68.179,149.511,69.34z"/>
		<path fill="#000101" d="M172.409,65.317l-7.411-10.705h6.208l4.783,7.854l4.592-7.854h5.986l-7.253,10.61l8.108,11.813h-6.208
			l-5.479-9.026l-5.321,9.026h-5.859L172.409,65.317z"/>
		<path fill="#000101" d="M149.638,98.446c-0.486-0.591-1.083-1.045-1.79-1.362c-0.708-0.316-1.525-0.475-2.455-0.475
			s-1.79,0.18-2.581,0.539c-0.792,0.359-1.478,0.861-2.059,1.504c-0.581,0.645-1.035,1.409-1.362,2.296
			c-0.328,0.887-0.491,1.848-0.491,2.882c0,1.056,0.164,2.022,0.491,2.897c0.327,0.877,0.776,1.637,1.346,2.281
			c0.57,0.644,1.24,1.146,2.011,1.504c0.771,0.359,1.6,0.538,2.486,0.538c1.014,0,1.911-0.211,2.692-0.633
			c0.781-0.422,1.425-1.014,1.932-1.774l4.117,3.072c-0.95,1.331-2.153,2.312-3.61,2.945s-2.957,0.951-4.498,0.951
			c-1.753,0-3.368-0.275-4.846-0.824c-1.478-0.549-2.755-1.335-3.832-2.359c-1.077-1.024-1.917-2.265-2.518-3.722
			c-0.602-1.457-0.903-3.083-0.903-4.877c0-1.794,0.301-3.42,0.903-4.878c0.602-1.456,1.441-2.696,2.518-3.721
			c1.077-1.024,2.354-1.81,3.832-2.359c1.478-0.549,3.093-0.824,4.846-0.824c0.633,0,1.293,0.059,1.979,0.175
			c0.686,0.116,1.362,0.3,2.027,0.554c0.666,0.253,1.304,0.591,1.917,1.013c0.612,0.423,1.161,0.94,1.647,1.552L149.638,98.446z"/>
		<path fill="#000101" d="M172.22,112.381c-0.76,0.971-1.721,1.721-2.882,2.249c-1.161,0.527-2.365,0.792-3.61,0.792
			c-1.183,0-2.296-0.19-3.341-0.57c-1.045-0.38-1.953-0.924-2.724-1.631c-0.771-0.707-1.378-1.557-1.821-2.549
			c-0.443-0.992-0.665-2.101-0.665-3.326c0-1.224,0.222-2.333,0.665-3.326c0.443-0.993,1.05-1.842,1.821-2.549
			c0.771-0.707,1.678-1.251,2.724-1.631c1.045-0.38,2.159-0.571,3.341-0.571c1.098,0,2.095,0.19,2.993,0.571
			c0.897,0.379,1.657,0.924,2.28,1.631c0.623,0.708,1.103,1.557,1.441,2.549c0.337,0.993,0.507,2.102,0.507,3.326v1.489h-11.022
			c0.19,0.908,0.602,1.63,1.235,2.169c0.633,0.539,1.415,0.808,2.344,0.808c0.781,0,1.441-0.174,1.979-0.522
			c0.539-0.349,1.008-0.797,1.409-1.346L172.22,112.381z M168.198,105.604c0.021-0.802-0.243-1.489-0.792-2.059
			c-0.549-0.57-1.257-0.856-2.122-0.856c-0.528,0-0.993,0.085-1.394,0.254c-0.401,0.169-0.744,0.386-1.029,0.649
			s-0.507,0.57-0.665,0.918c-0.159,0.348-0.249,0.712-0.27,1.093H168.198z"/>
		<path fill="#000101" d="M177.414,99.649h4.561v2.091h0.063c0.147-0.296,0.359-0.591,0.633-0.887
			c0.274-0.295,0.602-0.559,0.982-0.792c0.38-0.232,0.812-0.422,1.298-0.57c0.486-0.147,1.014-0.222,1.583-0.222
			c1.204,0,2.175,0.186,2.914,0.554c0.739,0.37,1.314,0.882,1.726,1.537c0.412,0.655,0.691,1.425,0.839,2.312
			c0.147,0.887,0.222,1.847,0.222,2.882v8.488h-4.751v-7.539c0-0.443-0.016-0.902-0.047-1.377s-0.126-0.913-0.285-1.314
			c-0.158-0.401-0.401-0.729-0.729-0.982s-0.797-0.38-1.409-0.38c-0.613,0-1.108,0.11-1.489,0.333
			c-0.38,0.222-0.67,0.518-0.871,0.886c-0.201,0.37-0.333,0.787-0.396,1.251c-0.063,0.465-0.095,0.95-0.095,1.457v7.665h-4.75
			V99.649z"/>
		<path fill="#000101" d="M207.66,103.45h-4.181v5.131c0,0.422,0.021,0.808,0.063,1.156c0.042,0.349,0.137,0.649,0.285,0.903
			c0.147,0.253,0.375,0.449,0.681,0.586c0.306,0.138,0.712,0.206,1.219,0.206c0.253,0,0.586-0.026,0.998-0.079
			c0.412-0.052,0.723-0.174,0.935-0.364v3.959c-0.528,0.19-1.077,0.317-1.647,0.38c-0.57,0.062-1.13,0.095-1.679,0.095
			c-0.803,0-1.542-0.084-2.217-0.253c-0.676-0.168-1.267-0.438-1.773-0.808c-0.507-0.369-0.902-0.849-1.188-1.441
			c-0.285-0.59-0.428-1.309-0.428-2.153v-7.316h-3.041v-3.801h3.041v-4.56h4.751v4.56h4.181V103.45z"/>
		<path fill="#000101" d="M226.219,112.381c-0.76,0.971-1.721,1.721-2.882,2.249c-1.161,0.527-2.365,0.792-3.61,0.792
			c-1.183,0-2.296-0.19-3.341-0.57c-1.045-0.38-1.953-0.924-2.724-1.631c-0.771-0.707-1.378-1.557-1.821-2.549
			c-0.443-0.992-0.665-2.101-0.665-3.326c0-1.224,0.222-2.333,0.665-3.326c0.443-0.993,1.05-1.842,1.821-2.549
			c0.771-0.707,1.678-1.251,2.724-1.631c1.045-0.38,2.159-0.571,3.341-0.571c1.098,0,2.095,0.19,2.993,0.571
			c0.897,0.379,1.657,0.924,2.28,1.631c0.623,0.708,1.103,1.557,1.441,2.549c0.337,0.993,0.507,2.102,0.507,3.326v1.489h-11.022
			c0.19,0.908,0.602,1.63,1.235,2.169c0.633,0.539,1.415,0.808,2.344,0.808c0.781,0,1.441-0.174,1.979-0.522
			c0.539-0.349,1.008-0.797,1.409-1.346L226.219,112.381z M222.197,105.604c0.021-0.802-0.243-1.489-0.792-2.059
			c-0.549-0.57-1.257-0.856-2.122-0.856c-0.528,0-0.993,0.085-1.394,0.254c-0.401,0.169-0.744,0.386-1.029,0.649
			s-0.507,0.57-0.665,0.918c-0.159,0.348-0.249,0.712-0.27,1.093H222.197z"/>
		<path fill="#000101" d="M231.414,99.649h4.75v2.471h0.063c0.507-0.95,1.108-1.663,1.806-2.138
			c0.696-0.475,1.572-0.712,2.629-0.712c0.273,0,0.549,0.011,0.823,0.032s0.527,0.063,0.761,0.126v4.34
			c-0.338-0.106-0.671-0.185-0.998-0.238c-0.328-0.052-0.671-0.079-1.029-0.079c-0.908,0-1.627,0.126-2.154,0.38
			s-0.934,0.607-1.219,1.061c-0.285,0.455-0.471,0.998-0.555,1.631c-0.085,0.633-0.127,1.33-0.127,2.09v6.429h-4.75V99.649z"/>
	</g>
</g>
</svg>
