<?xml version="1.0" encoding="utf-8"?>
<!-- Generator: Adobe Illustrator 16.0.0, SVG Export Plug-In . SVG Version: 6.00 Build 0)  -->
<!DOCTYPE svg PUBLIC "-//W3C//DTD SVG 1.1//EN" "http://www.w3.org/Graphics/SVG/1.1/DTD/svg11.dtd">
<svg version="1.1" id="圖層_1" xmlns="http://www.w3.org/2000/svg" xmlns:xlink="http://www.w3.org/1999/xlink" x="0px" y="0px"
	 width="293.431px" height="292.93px" viewBox="0 0 293.431 292.93" enable-background="new 0 0 293.431 292.93"
	 xml:space="preserve">
<rect x="-0.499" y="-0.5" fill="#121B3D" width="293.93" height="293.93"/>
<rect x="248.456" y="186.592" fill="#6FC092" width="33.59" height="8.574"/>
<path fill="#FFFFFF" d="M57.901,172.995c2.819,0,4.874-0.338,6.168-1.013c1.29-0.675,1.938-1.836,1.938-3.48
	c0-1.527-0.691-2.789-2.07-3.789c-1.381-0.997-3.655-2.083-6.828-3.259c-1.938-0.705-3.715-1.454-5.33-2.247
	s-3.01-1.718-4.185-2.775c-1.175-1.057-2.1-2.334-2.774-3.832c-0.676-1.498-1.014-3.333-1.014-5.506c0-4.229,1.557-7.561,4.67-10
	c3.112-2.436,7.341-3.656,12.686-3.656c2.701,0,5.287,0.251,7.753,0.75c2.467,0.499,4.316,0.983,5.551,1.453l-1.939,8.633
	c-1.175-0.529-2.673-1.013-4.492-1.453c-1.821-0.44-3.936-0.661-6.344-0.661c-2.173,0-3.935,0.367-5.286,1.101
	c-1.351,0.735-2.025,1.866-2.025,3.392c0,0.764,0.132,1.44,0.396,2.026c0.266,0.588,0.72,1.132,1.366,1.631s1.498,0.998,2.555,1.496
	c1.058,0.501,2.349,1.014,3.877,1.543c2.524,0.94,4.67,1.865,6.431,2.775c1.763,0.911,3.216,1.937,4.36,3.083
	c1.146,1.145,1.983,2.453,2.512,3.921c0.529,1.468,0.793,3.23,0.793,5.285c0,4.406-1.63,7.739-4.891,10
	c-3.259,2.261-7.914,3.392-13.963,3.392c-4.053,0-7.312-0.338-9.778-1.014c-2.468-0.674-4.2-1.218-5.198-1.63l1.85-8.898
	c1.586,0.647,3.48,1.264,5.684,1.851C52.572,172.702,55.083,172.995,57.901,172.995"/>
<path fill="#FFFFFF" d="M129.701,179.25c-2.058,0.528-4.729,1.072-8.018,1.631c-3.29,0.557-6.901,0.836-10.836,0.836
	c-3.7,0-6.799-0.528-9.295-1.586c-2.497-1.057-4.493-2.524-5.99-4.404c-1.498-1.879-2.57-4.125-3.216-6.74
	c-0.646-2.612-0.969-5.476-0.969-8.59v-25.813h10.66v24.139c0,4.934,0.719,8.458,2.158,10.572c1.438,2.115,3.949,3.172,7.532,3.172
	c1.291,0,2.656-0.058,4.098-0.176c1.438-0.117,2.51-0.264,3.215-0.44v-37.267h10.66V179.25z"/>
<path fill="#FFFFFF" d="M183.969,179.25c-2.113,0.647-4.771,1.233-7.973,1.762c-3.202,0.529-6.563,0.793-10.087,0.793
	c-3.643,0-6.902-0.559-9.779-1.674c-2.878-1.115-5.33-2.717-7.355-4.802c-2.026-2.083-3.583-4.609-4.669-7.576
	c-1.089-2.965-1.631-6.298-1.631-9.999c0-3.641,0.454-6.944,1.365-9.911c0.91-2.965,2.247-5.506,4.009-7.62
	c1.763-2.115,3.905-3.744,6.432-4.89c2.523-1.145,5.432-1.718,8.722-1.718c2.231,0,4.198,0.264,5.902,0.793
	c1.703,0.529,3.172,1.116,4.404,1.762v-23.875h10.66V179.25z M153.399,157.49c0,4.699,1.114,8.384,3.348,11.057
	c2.23,2.672,5.314,4.007,9.25,4.007c1.703,0,3.156-0.072,4.361-0.219c1.203-0.147,2.187-0.308,2.95-0.485v-26.43
	c-0.939-0.645-2.188-1.247-3.743-1.806c-1.558-0.557-3.217-0.837-4.978-0.837c-3.877,0-6.711,1.322-8.502,3.965
	C154.294,149.385,153.399,152.968,153.399,157.49"/>
<path fill="#FFFFFF" d="M240.969,157.577c0,3.643-0.529,6.96-1.586,9.956c-1.058,2.995-2.556,5.55-4.493,7.664
	c-1.938,2.114-4.272,3.76-7.004,4.934s-5.741,1.762-9.03,1.762c-3.29,0-6.285-0.588-8.986-1.762s-5.021-2.819-6.959-4.934
	c-1.938-2.114-3.45-4.669-4.538-7.664c-1.087-2.996-1.629-6.313-1.629-9.956c0-3.641,0.542-6.944,1.629-9.91
	c1.088-2.965,2.613-5.507,4.581-7.621c1.968-2.115,4.303-3.744,7.005-4.89c2.7-1.145,5.668-1.718,8.897-1.718
	s6.211,0.573,8.942,1.718c2.73,1.146,5.065,2.775,7.004,4.89c1.938,2.114,3.45,4.656,4.537,7.621
	C240.425,150.633,240.969,153.937,240.969,157.577 M230.045,157.577c0-4.581-0.984-8.207-2.952-10.879
	c-1.969-2.673-4.713-4.009-8.237-4.009s-6.27,1.336-8.237,4.009c-1.968,2.672-2.95,6.298-2.95,10.879
	c0,4.641,0.982,8.312,2.95,11.012c1.968,2.702,4.713,4.053,8.237,4.053s6.269-1.351,8.237-4.053
	C229.061,165.889,230.045,162.218,230.045,157.577"/>
</svg>
