<?xml version="1.0" encoding="utf-8"?>
<!-- Generator: Adobe Illustrator 16.0.0, SVG Export Plug-In . SVG Version: 6.00 Build 0)  -->
<!DOCTYPE svg PUBLIC "-//W3C//DTD SVG 1.1//EN" "http://www.w3.org/Graphics/SVG/1.1/DTD/svg11.dtd">
<svg version="1.1" id="芞脯_1" xmlns="http://www.w3.org/2000/svg" xmlns:xlink="http://www.w3.org/1999/xlink" x="0px" y="0px"
	 width="263.152px" height="199.5px" viewBox="0 0 263.152 199.5" enable-background="new 0 0 263.152 199.5" xml:space="preserve">
<g>
	<g>
		<path fill="#0068B7" d="M254.16,176.698v-10.842h3.109v10.842H254.16L254.16,176.698z M254.16,164.763v-2.857h1.345v-3.026h-1.345
			v-3.025h0.756c-0.252-0.084-0.504-0.252-0.756-0.42v-4.37c2.689,1.596,5.631,2.773,8.993,3.53
			c-0.924,1.177-1.513,2.521-1.933,4.034c-0.42-0.084-0.84-0.252-1.429-0.504c-0.252-0.084-0.336-0.168-0.42-0.168v6.808H254.16
			L254.16,164.763z M254.16,160.225c0.167-0.252,0.42-0.503,0.504-0.672c-0.084-0.084-0.168-0.168-0.337-0.252
			c-0.083-0.084-0.083-0.084-0.167-0.084V160.225z M254.16,151.064v4.37c-0.756-0.42-1.513-0.925-2.353-1.513v0.925h-1.681v-6.724
			C251.386,149.215,252.731,150.223,254.16,151.064L254.16,151.064z M254.16,155.854v3.025h-0.756
			c0.252,0.084,0.504,0.168,0.756,0.336v1.008c-0.252,0.336-0.588,0.756-0.925,1.093c-0.167,0.252-0.251,0.421-0.336,0.588h1.261
			v2.857h-4.034v-2.857h1.597l-1.597-0.756v-0.757c0.588-0.588,1.008-1.092,1.177-1.513h-1.177v-3.025H254.16L254.16,155.854z
			 M254.16,165.856v10.842h-1.428v-0.756h-2.606v-2.858h2.606v-0.925h-2.606v-2.269h2.606v-1.177h-2.606v-2.857H254.16z
			 M250.125,148.122v6.724h-3.53v-2.857h2.521c-0.924-0.757-1.765-1.597-2.521-2.606v-3.95l1.765,0.167
			c0.252,0.084,0.168,0.337-0.168,0.673C248.78,146.945,249.453,147.534,250.125,148.122L250.125,148.122z M250.125,155.854v3.025
			h-1.513v3.026h1.513v2.857h-3.53v-8.909H250.125L250.125,155.854z M250.125,160.393L250.125,160.393
			c-0.168,0.336-0.252,0.505-0.336,0.588l0.336,0.168V160.393L250.125,160.393z M250.125,165.856v2.857h-3.53v-2.857H250.125
			L250.125,165.856z M250.125,169.891v2.269h-3.53v-2.269H250.125L250.125,169.891z M250.125,173.084v2.858h-3.53v-2.858H250.125z
			 M246.596,145.433v3.95c-0.168-0.084-0.252-0.252-0.336-0.421c-0.421,0.588-1.177,1.513-2.438,2.69v-6.388L246.596,145.433
			L246.596,145.433z M246.596,151.989v2.857h-2.774v-2.857H246.596L246.596,151.989z M246.596,155.854v8.909h-2.774v-2.857h1.514
			v-3.026h-1.514v-3.025H246.596L246.596,155.854z M246.596,165.856v2.857h-2.774v-2.857H246.596L246.596,165.856z M246.596,169.891
			v2.269h-2.774v-2.269H246.596L246.596,169.891z M246.596,173.084v2.858h-2.774v-2.858H246.596L246.596,173.084z M243.821,160.981
			c0.168-0.083,0.253-0.083,0.336-0.167c-0.083-0.084-0.168-0.252-0.336-0.421V160.981z M243.821,145.265v6.388
			c-0.083,0.083-0.167,0.251-0.335,0.336h0.335v2.857h-2.857v-0.756c-0.42,0.336-0.841,0.673-1.345,1.008v-4.623
			c1.765-1.597,3.109-3.278,4.034-5.295L243.821,145.265L243.821,145.265z M243.821,155.854v3.025h-1.428
			c0.252,0.168,0.504,0.504,0.84,0.925c0.252,0.251,0.42,0.42,0.588,0.588v0.588c-0.42,0.252-0.756,0.504-1.176,0.925h1.176v2.857
			h-4.202v-2.857h1.345c-0.42-0.504-0.841-0.925-1.345-1.345v-1.093c0.252-0.252,0.504-0.42,0.756-0.588h-0.756v-3.025H243.821
			L243.821,155.854z M243.821,165.856v2.857h-3.277v1.177h3.277v2.269h-3.277v0.925h3.277v2.858h-3.277v0.756h-0.925v-10.842
			H243.821z M239.62,150.475v4.623c-0.42,0.252-0.924,0.504-1.429,0.757h1.429v3.025h-1.261v3.026h1.261v2.857h-5.211v-6.556
			c-0.083,0.084-0.251,0.168-0.504,0.252c-0.168,0.084-0.42,0.252-0.757,0.42c-0.588-1.261-1.429-2.269-2.438-3.278
			C234.408,154.173,237.35,152.492,239.62,150.475L239.62,150.475z M239.62,159.468c-0.252,0.168-0.42,0.336-0.672,0.588
			c0.252,0.168,0.504,0.336,0.672,0.505V159.468L239.62,159.468z M239.62,165.856v10.842h-3.194v-10.842H239.62L239.62,165.856z
			 M218.187,174.681v-2.102c1.345-1.177,2.186-3.446,2.354-6.808h-2.354v-3.109h2.773c0-0.084,0-0.336,0-0.756
			c0.085-0.925,0.085-1.513,0.085-1.85c-0.505,0.085-1.093,0.085-1.681,0c-0.168-0.672-0.421-1.596-0.925-2.605
			c-0.084-0.42-0.252-0.757-0.252-0.924v-0.336c3.11,0.336,4.707-0.084,4.707-1.093c0.083-0.504,0.083-1.344,0.083-2.605h-4.538
			c-0.084,0.504-0.168,1.009-0.252,1.429v-7.479c0.336,0.083,0.589,0.168,0.925,0.252c0.336,0,0.589,0.083,0.672,0.336
			c-0.336,0.588-0.588,1.429-0.757,2.353h7.733v4.034c0.084,3.53-1.093,5.631-3.446,6.219c0.168,0,0.336,0.085,0.588,0.168
			c0.252,0,0.421,0,0.505,0.084c0.251,0.084,0.335,0.252,0.335,0.42c0,0.083,0,0.168,0,0.252c-0.252,0.672-0.335,1.429-0.335,2.101
			h4.454v6.724c0.084,2.858-0.168,4.539-0.757,5.127c-0.42,0.672-1.765,1.008-4.034,1.008c0-0.168-0.084-0.42-0.168-0.672
			c-0.168-1.177-0.42-2.102-0.756-2.69c1.597,0.42,2.27-0.336,2.102-2.354v-4.034h-1.177c-0.251,5.295-1.849,8.657-4.706,10.17
			C219.027,175.521,218.608,175.101,218.187,174.681z M218.187,146.441v7.479c-0.84,2.69-2.437,4.707-4.874,5.968
			c0.083,0,0.083,0,0.083,0c0.084,0.084,0.168,0.167,0.168,0.167c0.084,0.085,0.084,0.168,0.084,0.253c0,0.168,0,0.336,0,0.42
			c0,0.084,0,0.252-0.084,0.504c-0.168,0.925-0.251,1.429-0.251,1.513h4.118v6.808c0,1.597-0.083,2.857-0.42,3.782
			c0.42-0.168,0.841-0.42,1.176-0.756v2.102c-0.42-0.336-0.84-0.672-1.261-1.009c-0.42,1.345-1.849,2.017-4.287,2.102
			c-0.168-1.261-0.504-2.438-1.008-3.53c1.681,0.335,2.437-0.421,2.269-2.354v-4.119h-0.841c-0.672,5.464-2.269,8.91-4.958,10.422
			c-0.252-0.42-0.84-1.009-1.681-1.681c-0.252-0.252-0.42-0.336-0.504-0.42v2.101h-3.951v-18.743h-3.194v-3.53h3.194v-7.647
			c3.278-0.085,4.707,0,4.287,0.42c0,0.083,0,0.251-0.084,0.504c-0.168,0.504-0.252,1.009-0.252,1.513v5.21h2.605v3.362h-2.605
			v16.306c2.185-1.344,3.446-3.95,3.698-7.817h-2.269v-3.025h2.605c0.083-0.588,0.168-1.597,0.251-3.11h0.252
			c-0.503-0.504-1.26-1.008-2.101-1.512c3.782-1.177,5.967-3.026,6.388-5.632h-4.539v-3.109h4.791c0.084-0.421,0.084-1.092,0-1.933
			c0-0.505,0-0.925,0-1.176C216.086,146.273,217.179,146.357,218.187,146.441L218.187,146.441z M218.187,156.19
			c-0.083,0-0.083,0-0.083-0.084c-0.084,0-0.084,0.084,0.083,0.42V156.19L218.187,156.19z M218.187,162.662h-0.083v3.109h0.083
			V162.662L218.187,162.662z M180.618,175.942v-9.918c0.252-0.084,0.504-0.252,0.757-0.42h-0.757v-2.941h9.162l0.672,1.261
			c-0.672,0.336-2.017,1.092-3.866,2.101c-1.513,0.841-2.521,1.513-3.11,1.85h10.842v3.109h-11.011v1.681
			C183.392,174.261,182.467,175.353,180.618,175.942L180.618,175.942z M180.618,161.57h10.59v3.193h3.782v-5.883h-2.605v-12.103
			h-6.976v2.858h3.446v1.344h-3.109v2.438h3.109v1.26h-3.109v2.522h3.109v1.681h-5.295l1.933-2.186
			c-0.252-0.167-0.672-0.504-1.176-0.84c-0.589-0.336-1.009-0.589-1.261-0.757c0.672-0.504,0.756-0.588,0.251-0.083
			c0.588-0.588,1.009-0.925,1.177-1.177c-0.756-0.589-1.765-1.093-3.025-1.765c-0.083,0.168-0.252,0.336-0.504,0.672
			c-0.168,0.168-0.252,0.252-0.336,0.42v4.034c0.841,0.504,1.682,1.092,2.522,1.681h-2.522V161.57L180.618,161.57z M180.618,150.812
			v-4.118c0.504-0.588,1.009-1.177,1.429-1.597c0.168,0.084,0.504,0.336,1.009,0.672c1.261,0.673,2.017,1.093,2.101,1.176
			c-0.42,0.421-1.008,1.009-2.017,1.766c0.252,0.084,0.504,0.336,0.924,0.672c0.588,0.42,1.093,0.756,1.429,0.925l-2.186,2.353
			C182.467,151.904,181.542,151.315,180.618,150.812z M180.618,146.693v4.118c-0.335,0.168-0.672,0.42-1.092,0.756
			c-0.504,0.336-0.924,0.672-1.177,0.841c0.42,0.251,1.093,0.588,1.934,1.008c0.084-0.084,0.168-0.168,0.335-0.252v4.034
			c-0.756,0.588-1.428,1.176-2.269,1.681h2.269v2.69h-10.842v3.445h-3.698v-6.135h2.605v-11.85c1.849-0.168,3.866-0.505,5.967-1.177
			c0.42,0.672,1.009,1.681,1.765,3.026c-2.185,0.42-3.615,0.672-4.287,0.757v1.344h3.026v2.438h-3.026v1.26h3.026v2.522h-3.026
			v1.681h5.043c-0.756-0.756-1.344-1.344-1.681-1.681c0.84-0.505,1.597-1.093,2.353-1.681c-0.504-0.252-1.008-0.588-1.513-0.924
			l1.513-1.934c-0.756-1.008-1.513-1.681-2.185-2.269c0.756-0.42,1.512-0.841,2.185-1.43c-0.588-0.42-1.26-0.756-1.933-1.176
			l1.933-2.269c0.168,0.083,0.421,0.168,0.757,0.336c0.756,0.421,1.26,0.841,1.681,1.092
			C180.45,146.861,180.534,146.777,180.618,146.693L180.618,146.693z M180.618,162.662h-9.245v2.941h9.245V162.662L180.618,162.662z
			 M180.618,166.024v9.918c-1.176,0.336-2.773,0.504-4.706,0.504c-0.168-1.345-0.588-2.605-1.261-3.782
			c3.193,0.168,4.622-0.084,4.371-0.756v-0.925h-12.187v-3.109h12.187v-1.093c0.168-0.084,0.42-0.168,0.756-0.336
			C180.114,166.276,180.366,166.192,180.618,166.024L180.618,166.024z M151.285,168.377v-3.446l3.866-0.588v-18.238h2.69
			c1.261-0.084,1.765,0.083,1.681,0.42c0,0.084,0,0.252-0.083,0.505c-0.084,0.672-0.168,1.429-0.168,2.101v14.54l3.53-0.672
			l0.251,3.446l-3.782,0.588v9.162h-4.119v-8.489L151.285,168.377L151.285,168.377z M151.285,163.25l2.522-1.261
			c-0.925-2.017-1.85-3.698-2.522-5.042V163.25L151.285,163.25z M151.285,154.762c0.168,0.252,0.336,0.503,0.504,0.756l2.942-2.521
			c0-0.252-1.177-1.849-3.446-4.706V154.762z M151.285,148.291v6.472c-0.924-1.261-2.101-2.773-3.53-4.455l3.193-2.354
			C151.117,148.038,151.201,148.206,151.285,148.291L151.285,148.291z M151.285,156.947v6.303l-0.924,0.42
			c-0.672-1.765-1.765-3.782-3.277-5.799l3.53-2.017C150.781,156.19,151.034,156.611,151.285,156.947L151.285,156.947z
			 M151.285,164.932l-4.875,0.672l1.429-1.177c-0.589-1.008-1.849-2.521-3.698-4.622l-1.849,1.26v-2.941h4.454v-3.447h-4.454v-4.034
			c1.428-0.251,2.857-0.335,4.286-0.335c0.168-0.168,0.168-0.421,0-0.757c-0.42-0.924-1.009-1.932-1.681-3.193
			c-3.11,0.84-7.144,1.429-12.103,1.849c0.841,1.009,1.261,2.102,1.429,3.278c1.512-0.168,2.857-0.336,4.202-0.42v3.613h-5.463
			v3.447h4.791c-0.756,2.437-2.605,5.63-5.547,9.75c0,0,0.083,0.083,0.336,0.336c1.093,1.176,1.765,2.101,2.185,2.857
			c0.756-1.008,1.681-2.689,2.858-4.875c0.42-0.672,0.672-1.093,0.84-1.345v10.927h3.867v-12.187
			c0.84,0.925,1.596,1.933,2.185,2.942c0.168,0.167,0.252,0.251,0.252,0.251l0.588-0.336l0.336,2.858l5.631-0.925V164.932
			L151.285,164.932z M115.481,168.293v-3.53c2.101-0.168,4.287-0.336,6.388-0.588v-17.902h1.933c1.765,0,2.521,0.083,2.354,0.251
			c0.084,0.084,0.084,0.42,0,0.925c-0.083,0.588-0.168,1.092-0.168,1.429v14.792c1.177-0.167,2.27-0.251,3.194-0.336l0.252,3.614
			c-1.009,0-2.185,0.083-3.446,0.252v8.825h-4.118v-8.321c-1.177,0.083-3.11,0.252-5.715,0.504
			C115.901,168.209,115.649,168.293,115.481,168.293L115.481,168.293z M115.481,160.813c0.673,1.008,1.261,1.933,1.681,2.857
			l3.446-1.932c-1.177-2.017-2.269-3.614-3.278-4.791l-1.849,1.008V160.813L115.481,160.813z M115.481,152.324
			c0.756,1.009,1.681,2.354,2.773,3.951l3.11-2.354c-0.336-0.756-1.597-2.521-3.782-5.21l-2.101,1.429V152.324z M115.481,150.139
			v2.185c-0.252-0.251-0.42-0.503-0.588-0.756c-0.756,1.429-1.429,2.689-2.269,3.95c-1.093-0.672-2.102-1.177-3.11-1.597
			c0.588-1.092,1.093-2.353,1.597-3.782c0.168-0.42,0.253-0.589,0.253-0.589c0.167-0.083,1.176,0.253,3.109,1.009
			c0.084,0.084,0.168,0.084,0.168,0.084L115.481,150.139L115.481,150.139z M115.481,157.956l-1.261,0.672v-1.934h-5.042v-8.068
			c0-0.335,0-0.84,0.083-1.429c0.084-0.42,0.084-0.756,0-0.84c0.084-0.168-0.588-0.252-2.185-0.252h-1.681v7.564
			c-0.672-1.346-1.429-2.69-2.185-4.034c-1.093,0.42-2.27,0.84-3.699,1.344c1.429,2.017,2.354,3.614,2.774,4.791l3.109-1.429v2.353
			h-5.968v3.362h4.371c-1.176,3.278-2.941,6.22-5.294,8.826c1.429,0.672,2.521,1.429,3.361,2.101
			c1.345-2.101,2.521-4.118,3.53-6.136v11.179h3.782v-11.599c0.504,0.673,1.093,1.597,1.765,2.858
			c0.084,0.252,0.168,0.336,0.252,0.42c0.588-0.084,1.093-0.336,1.765-0.756l0.084,1.513c0.588,0,1.345-0.084,2.437-0.168v-3.53
			c-0.504,0-1.008,0.084-1.513,0.084c-0.756-1.093-1.597-2.185-2.438-3.277c-0.924,0.336-1.681,0.672-2.353,1.092v-2.606h5.042
			V159.3c0.421,0.504,0.841,1.009,1.261,1.513V157.956L115.481,157.956z M84.804,174.093v-5.379h2.269v-1.008h-2.269v-1.934h2.269
			v-1.008h-2.269v-2.017h2.269v-1.008h-2.269v-2.354h4.791c-2.185-1.093-3.698-2.354-4.791-3.782v-6.976H94.89
			c0,0.084-0.168,0.924-0.504,2.606c-0.336,1.765-0.589,2.941-0.672,3.445c-1.345-0.504-2.69-0.756-4.286-0.756
			c0.083-0.588,0.251-1.344,0.42-2.185h-3.025c0.42,2.605,3.613,4.287,9.497,5.211c-0.756,1.093-1.597,2.521-2.354,4.118
			c-0.168,0-1.093-0.251-2.689-0.924v11.094h-5.883c3.025,0.672,5.883,1.512,8.572,2.605l-2.605,2.858
			C89.427,175.689,87.241,174.849,84.804,174.093z M84.804,148.626v6.976c0-0.084,0-0.084-0.084-0.084
			c-0.757,1.261-1.849,2.27-3.278,3.194v-4.539c0.589-0.756,1.009-1.513,1.345-2.438h-1.345v-5.462
			c1.092,0.168,1.681,0.251,1.765,0.42c0,0.083-0.084,0.251-0.252,0.588c-0.336,0.42-0.589,0.925-0.756,1.345H84.804L84.804,148.626
			z M84.804,159.384v2.354h-3.362v-2.354H84.804L84.804,159.384z M84.804,162.746v2.017h-3.362v-2.017H84.804L84.804,162.746z
			 M84.804,165.771v1.934h-3.362v-1.934H84.804L84.804,165.771z M84.804,168.713v5.379c-1.009-0.336-2.102-0.589-3.278-0.925
			l1.933-1.933h-2.017v-2.522H84.804z M81.442,146.273v5.462H80.77c-0.168,0.084-0.168,0.253-0.336,0.504
			c-0.168,0.252-0.673,1.093-1.513,2.437c-1.513-0.42-2.605-0.671-3.362-0.756c0.505,0.841,0.925,1.513,1.177,1.85
			c-2.27,1.345-4.118,2.521-5.715,3.53v-4.286c1.261-0.673,2.605-1.429,4.035-2.27l0.252,0.672c1.429-1.765,2.605-4.287,3.446-7.564
			C79.845,146.021,80.77,146.105,81.442,146.273L81.442,146.273z M81.442,154.173c-1.513,1.765-3.782,2.857-6.976,3.278
			c0.084,0.168,0.336,0.42,0.589,0.673c0.503,0.504,0.84,0.924,1.008,1.26H71.02v11.851h5.715c-1.429,0.588-3.362,1.092-5.715,1.512
			v3.446c2.017-0.42,4.287-1.093,6.892-2.018c0.252-0.083,0.504-0.167,0.841-0.336c0.42-0.168,0.588-0.336,0.672-0.42
			c0.084-0.168-0.588-0.925-1.933-2.185h3.95v-2.522h-7.229v-1.008h7.229v-1.934h-7.229v-1.008h7.229v-2.017h-7.229v-1.008h7.229
			v-2.354h-1.345c0.504-0.252,0.925-0.42,1.345-0.672V154.173L81.442,154.173z M71.02,153.165c0.588-0.252,1.765-1.009,3.614-2.354
			c-0.084-0.504-1.26-2.017-3.614-4.623V153.165z M71.02,146.188v6.977l0,0c-0.841-1.345-1.765-2.606-2.858-3.782
			c-0.42-0.421-0.672-0.672-0.672-0.757c1.177-1.092,2.354-1.849,3.53-2.521C71.02,146.188,71.02,146.188,71.02,146.188
			L71.02,146.188z M71.02,155.014v4.286c0,0-0.084,0.084-0.168,0.084h0.168v11.851h-0.672v-11.431
			c-0.336,0.251-0.672,0.504-1.008,0.756c-0.673,0.504-1.009,0.756-1.093,0.672c-0.336-0.336-1.093-1.597-2.186-3.782
			c0-0.083,0.252-0.252,0.756-0.42C68.162,156.527,69.591,155.771,71.02,155.014L71.02,155.014z M71.02,172.748v3.446
			c-0.841,0.168-1.597,0.252-2.354,0.336c-0.336-0.756-1.008-1.681-1.933-2.857c-0.084-0.084-0.168-0.168-0.253-0.252
			C68.162,173.252,69.675,173,71.02,172.748L71.02,172.748z M59.085,175.942v-6.388h2.269c0.084,3.614-0.503,5.715-1.764,6.22
			C59.421,175.857,59.253,175.942,59.085,175.942L59.085,175.942z M59.085,168.629v-5.967h1.429v5.967H59.085L59.085,168.629z
			 M59.085,161.906v-3.53h0.588c0.084,0.336,0.168,1.093,0.252,2.186c0.168,0.672,0.168,1.092,0.168,1.345H59.085L59.085,161.906z
			 M59.085,157.115c0.42-0.084,0.925-0.168,1.429-0.168l0.251,1.177c-0.251,0.083-0.42,0.083-0.42,0.083
			c0.252,1.009,0.505,2.185,0.756,3.698l2.017-0.672c-0.251-0.841-0.588-1.933-1.176-3.53l0.84-0.421l-1.261-4.37l-1.849,0.672
			l0.252,1.092c-0.168,0.168-0.504,0.252-0.841,0.252V157.115L59.085,157.115z M59.085,154.006v-3.867h0.252l0.756-1.513
			c1.26,0.589,2.018,1.093,2.185,1.429c-0.167,0.252-0.925,1.177-2.353,2.857C59.59,153.333,59.337,153.753,59.085,154.006
			L59.085,154.006z M59.085,148.794c0.673-0.84,1.009-1.429,1.177-1.765c-0.336-0.253-0.757-0.42-1.177-0.673V148.794z
			 M59.085,146.357v2.438c-0.336,0.42-0.756,0.841-1.176,1.345h1.176v3.867c-0.588,0.671-0.84,1.008-0.84,1.008
			c0.335,0,0.588-0.084,0.84-0.084v2.186c-1.008,0.084-1.933,0.252-2.773,0.42v-3.362c0.42-0.336,0.925-0.925,1.429-1.681
			c-0.504,0-0.924,0.084-1.429,0.084v-3.362c0.505-0.756,1.093-1.849,1.597-3.362C58.329,146.021,58.665,146.188,59.085,146.357
			L59.085,146.357z M59.085,158.375v3.53h-0.924c0-0.336-0.083-1.008-0.168-2.101c0-0.84,0-1.261,0-1.345L59.085,158.375
			L59.085,158.375z M59.085,162.662v5.967h-2.773v-2.437h0.925v-0.924h-0.925v-2.606H59.085L59.085,162.662z M59.085,169.554v6.388
			c-0.756,0.252-1.681,0.42-2.773,0.588v-3.277c0.252,0,0.42-0.084,0.505-0.084c0.588-0.084,0.84-0.335,0.84-0.756h-1.345v-2.857
			H59.085L59.085,169.554z M56.312,162.242v-4.118c0.168,0,0.336,0.083,0.505,0.083c0.588,0.084,0.84,0.168,0.84,0.252
			c-0.252,1.513-0.672,2.773-1.176,3.782H56.312z M56.312,149.215v3.362c-0.252,0.083-0.504,0.083-0.756,0.168
			c-0.336-1.597-0.504-2.521-0.504-2.689C55.471,150.055,55.892,149.719,56.312,149.215L56.312,149.215z M56.312,154.173v3.362
			c-0.252,0.083-0.504,0.083-0.756,0.168c-0.336-1.765-0.504-2.689-0.42-2.858C55.471,154.762,55.892,154.594,56.312,154.173
			L56.312,154.173z M56.312,158.124v4.118l-1.681-0.672c0.588-1.093,0.924-2.27,1.092-3.614
			C55.807,158.04,56.06,158.04,56.312,158.124L56.312,158.124z M56.312,162.662v2.606h-5.042v-2.606H56.312L56.312,162.662z
			 M56.312,166.192v2.437h-5.042v-2.437H56.312L56.312,166.192z M56.312,169.554v2.857h-5.042v-2.857H56.312L56.312,169.554z
			 M56.312,173.252v3.277c-0.756,0.084-1.681,0.084-2.69,0.168c-0.083-1.345-0.42-2.438-1.092-3.362
			C54.379,173.336,55.639,173.252,56.312,173.252L56.312,173.252z M51.269,161.317h3.362v-5.043h-3.362v1.85h1.008v1.26h-1.008
			V161.317L51.269,161.317z M51.269,155.35v-1.765h3.362v1.765H51.269L51.269,155.35z M51.269,152.745v-1.765h3.362v1.765H51.269
			L51.269,152.745z M51.269,150.139v-4.287c0.336-0.084,0.504-0.168,0.672-0.252c0,0.084,0,0.252,0.084,0.505
			c0.337,1.092,0.672,1.765,0.841,2.269h2.017v1.765H51.269z M51.269,145.853v4.287h-3.446v-1.765h2.017
			c-0.252-0.756-0.504-1.344-0.672-2.017c0.336-0.083,1.009-0.252,1.849-0.504C51.101,145.853,51.185,145.853,51.269,145.853
			L51.269,145.853z M51.269,150.979v1.765h-3.278v-1.765H51.269L51.269,150.979z M51.269,153.585v1.765h-3.278v-1.765H51.269
			L51.269,153.585z M51.269,156.274v1.85H50.26v1.26h1.009v1.933h-3.278v-5.043H51.269L51.269,156.274z M51.269,162.662v2.606
			h-3.446v-2.606H51.269L51.269,162.662z M51.269,166.192v2.437h-3.446v-2.437H51.269L51.269,166.192z M51.269,169.554v2.857h-3.446
			v-2.857H51.269L51.269,169.554z M47.823,157.536l0.168-0.084l-0.168-0.672V157.536z M47.823,148.374v1.765h-0.168v-1.765H47.823
			L47.823,148.374z M47.823,156.779l-0.924-3.531l-1.849,0.672l0.251,0.925c-0.42,0.084-0.924,0.168-1.428,0.168
			c0,0,0.42-0.505,1.177-1.345c1.429-1.766,2.354-2.774,2.605-3.278c-0.924-0.673-1.597-1.177-2.101-1.43l-0.756,1.43h-1.093v6.891
			c0.756-0.083,1.513-0.167,2.27-0.252l0.251,0.925c-0.336,0.084-0.756,0.252-1.176,0.504c0.084,0.252,0.251,0.84,0.504,1.681
			c0.168,0.924,0.336,1.512,0.42,1.849l1.68-0.672c-0.083-0.336-0.336-1.176-0.672-2.438c-0.168-0.504-0.251-0.84-0.251-0.924
			l1.092-0.42V156.779L47.823,156.779z M47.823,162.662v2.606h-4.118v-2.606H47.823L47.823,162.662z M47.823,166.192v2.437h-3.025
			l-0.168,0.925h3.193v2.857h-4.118v-6.219H47.823L47.823,166.192z M43.705,162.074v-3.53l0.672-0.084
			c0.168,1.261,0.252,2.354,0.252,3.446L43.705,162.074L43.705,162.074z M43.705,150.055v-4.034c0.756,0.42,1.429,0.84,2.018,1.26
			C45.554,147.786,44.881,148.71,43.705,150.055z M43.705,146.021v4.034c-0.168,0.084-0.252,0.252-0.336,0.336h0.336v6.891
			c-0.841,0.168-1.597,0.336-2.438,0.589v-3.109c0.589-0.421,1.177-1.093,1.85-2.018c-0.504,0-1.177,0.084-1.85,0.168v-3.194
			c0.673-0.672,1.346-1.933,2.102-3.866C43.452,145.937,43.537,145.937,43.705,146.021L43.705,146.021z M43.705,158.544v3.53
			l-1.009,0.168v-3.614L43.705,158.544L43.705,158.544z M43.705,162.662v2.606h-2.438v-2.606H43.705L43.705,162.662z
			 M43.705,166.192v6.219h-2.438v-4.875c0.085-0.672,0.168-1.093,0.168-1.345H43.705L43.705,166.192z M41.267,162.242v-3.866
			c0.336,0,0.673,0.084,1.009,0.084c-0.336,1.765-0.588,3.025-0.84,3.782H41.267z M41.267,149.719v3.194l0,0
			c-0.167,0.084-0.335,0.084-0.42,0.084c-0.42-1.597-0.588-2.521-0.588-2.689C40.595,150.308,40.931,150.139,41.267,149.719
			L41.267,149.719z M41.267,154.762v3.109c-0.083,0-0.251,0.084-0.42,0.084c-0.42-1.849-0.588-2.773-0.504-2.858
			C40.679,155.098,40.931,154.93,41.267,154.762L41.267,154.762z M41.267,158.375v3.866l-1.933-0.503
			c0.588-1.093,0.925-2.27,1.009-3.363C40.679,158.375,40.931,158.375,41.267,158.375L41.267,158.375z M41.267,162.662v2.606l0,0
			V162.662L41.267,162.662L41.267,162.662z M41.267,167.537v4.875h-0.42c0.084-1.009,0.252-2.606,0.42-4.791
			C41.267,167.537,41.267,167.537,41.267,167.537L41.267,167.537z M36.308,175.27v-13.028c0.925,0.673,1.849,1.261,2.774,1.849
			C38.326,166.529,37.401,170.227,36.308,175.27L36.308,175.27z M36.308,160.981v-5.631c0.672,0.588,1.345,1.261,2.102,2.101
			c0.336,0.336,0.588,0.589,0.672,0.673l-2.606,2.941C36.393,161.065,36.393,160.981,36.308,160.981L36.308,160.981z M36.308,152.66
			v-5.21c1.429,1.092,2.69,2.437,3.782,4.118l-2.605,2.605C37.148,153.669,36.729,153.165,36.308,152.66z M14.708,160.561h13.869
			v5.463h-3.531v0.42h-2.857c0.672,0.421,1.681,1.345,2.857,2.69l-3.109,1.345l-1.009-1.093c-0.505,0-1.345,0.085-2.354,0.168
			c-0.756,0-1.345,0-1.597,0v1.008h9.413v2.102h-9.413v0.924h12.355v2.438H14.708v-8.405l4.371-0.167
			c-0.084-0.168-0.252-0.336-0.504-0.505c-0.252-0.252-0.504-0.42-0.672-0.505h-3.194v-2.521h9.834v-1.008h-9.834V160.561
			L14.708,160.561z M36.308,147.45v5.21c-0.84-1.176-1.765-2.101-2.689-2.857l2.437-2.522
			C36.14,147.366,36.225,147.45,36.308,147.45L36.308,147.45z M36.308,155.35v5.631c-0.42-0.42-0.504-0.588-0.336-0.42
			c-1.345-1.429-2.438-2.689-3.362-3.614l2.185-3.026C35.216,154.341,35.804,154.762,36.308,155.35L36.308,155.35z M36.308,162.242
			v13.028c0,0.251-0.083,0.42-0.083,0.672l-4.035-2.521c1.093-2.101,2.438-5.883,3.866-11.431
			C36.14,162.074,36.225,162.158,36.308,162.242L36.308,162.242z M14.708,159.553v-2.102h6.556v-1.008h-6.556v-2.017h11.094v5.127
			H14.708L14.708,159.553z M14.708,153.417v-6.892c1.934-0.083,2.69,0.084,2.438,0.42c0,0.085-0.084,0.168-0.168,0.336
			c-0.168,0.252-0.252,0.504-0.252,0.841H28.66v2.27H16.725v0.924h10.17v2.102H14.708z M0.925,160.561h13.783v2.354H4.79v1.008
			h9.917v2.521h-1.68c-0.168,0.085-0.42,0.252-0.925,0.588c-0.504,0.421-0.756,0.589-0.925,0.673l3.53-0.084v8.405H0v-2.438h12.355
			v-0.924H2.689v-2.102h9.666v-0.924h-1.933c-0.841,0-2.186,0.167-4.035,0.42c-0.42,0.083-0.756,0.168-0.84,0.168
			c-0.252-0.589-0.504-1.345-0.84-2.522c1.261-0.168,2.521-0.588,3.614-1.261H4.034v-0.42H0.925V160.561L0.925,160.561z
			 M14.708,146.525v6.892H2.437v-2.102h10.002v-0.924H0.756v-2.27h11.683v-1.597h1.345C14.12,146.525,14.372,146.525,14.708,146.525
			L14.708,146.525z M14.708,154.426v2.017H8.068v1.008h6.639v2.102H3.782v-5.127H14.708z"/>
		<path fill="#0068B7" d="M246.931,195.272v-1.933l0,0c0.672,0,1.177-0.168,1.514-0.672c0.42-0.42,0.672-1.093,0.672-2.017
			c0-0.84-0.252-1.513-0.672-1.933c-0.336-0.505-0.841-0.757-1.514-0.757l0,0v-1.765c1.345,0,2.438,0.42,3.278,1.261
			c0.841,0.756,1.261,1.849,1.261,3.194s-0.42,2.438-1.261,3.278C249.369,194.853,248.276,195.272,246.931,195.272L246.931,195.272
			L246.931,195.272z M261.304,195.105h-2.353v-4.539c0-0.925-0.084-1.513-0.168-1.849c-0.084-0.252-0.252-0.42-0.42-0.588
			c-0.251-0.168-0.504-0.252-0.84-0.252c-0.42,0-0.756,0.084-1.092,0.336c-0.336,0.168-0.504,0.505-0.672,0.841
			c-0.084,0.42-0.168,1.093-0.168,2.018v4.034h-2.269v-8.741h2.101v1.26c0.756-0.924,1.765-1.429,2.941-1.429
			c0.504,0,0.924,0.084,1.345,0.252c0.42,0.167,0.757,0.42,1.008,0.672c0.168,0.336,0.336,0.672,0.42,0.924
			c0.084,0.336,0.168,0.924,0.168,1.597V195.105z M246.931,186.195v1.765c-0.588,0-1.092,0.252-1.512,0.757
			c-0.42,0.42-0.589,1.092-0.589,1.933c0,0.924,0.168,1.597,0.589,2.017c0.42,0.504,0.924,0.672,1.512,0.672v1.933
			c-0.756,0-1.512-0.167-2.269-0.504c-0.756-0.421-1.261-0.924-1.681-1.681c-0.336-0.673-0.588-1.514-0.588-2.522
			c0-0.756,0.252-1.513,0.588-2.269c0.42-0.588,0.925-1.177,1.596-1.513C245.335,186.364,246.091,186.195,246.931,186.195
			L246.931,186.195L246.931,186.195z M226.508,195.105v-1.514c0.336,0,0.589-0.167,0.924-0.335c0.252-0.253,0.421-0.504,0.504-0.841
			c0.084-0.168,0.168-0.504,0.168-1.093v-0.504c-0.335,0.168-0.84,0.253-1.429,0.421c-0.083,0-0.083,0-0.168,0v-1.429
			c0.757-0.168,1.261-0.336,1.597-0.504v-0.168c0-0.504-0.168-0.756-0.335-1.008c-0.252-0.168-0.672-0.252-1.261-0.252v-1.681
			c0.084,0,0.084,0,0.168,0c1.009,0,1.766,0.084,2.27,0.336c0.504,0.252,0.925,0.588,1.093,0.924
			c0.168,0.42,0.335,1.009,0.335,2.018l-0.084,2.689c0,0.756,0.084,1.345,0.168,1.765c0.084,0.336,0.168,0.756,0.42,1.177h-2.354
			c0-0.168-0.083-0.421-0.167-0.757c-0.084-0.083-0.084-0.167-0.084-0.251c-0.42,0.42-0.841,0.672-1.261,0.924
			C226.844,195.021,226.676,195.105,226.508,195.105L226.508,195.105z M236.678,186.364v1.765h-1.597v3.53c0,0.756,0,1.177,0,1.261
			c0.084,0.168,0.168,0.252,0.252,0.336c0.084,0.083,0.252,0.083,0.42,0.083s0.504-0.083,0.924-0.251l0.168,1.849
			c-0.504,0.252-1.177,0.336-1.849,0.336c-0.42,0-0.756-0.084-1.092-0.167c-0.336-0.168-0.588-0.336-0.757-0.589
			c-0.167-0.252-0.252-0.504-0.336-0.925c0-0.252-0.084-0.84-0.084-1.597v-3.866h-1.009v-1.765h1.009v-1.765l2.354-1.345v3.11
			H236.678L236.678,186.364z M238.274,185.187v-2.185h2.354v2.185H238.274L238.274,185.187z M238.274,195.105v-8.741h2.354v8.741
			H238.274z M226.508,186.195v1.681l0,0c-0.42,0-0.757,0.084-1.008,0.252c-0.168,0.168-0.42,0.42-0.504,0.84l-2.101-0.42
			c0.168-0.756,0.588-1.345,1.176-1.765C224.659,186.364,225.416,186.195,226.508,186.195L226.508,186.195z M226.508,189.81v1.429
			c-0.588,0.168-0.924,0.252-1.092,0.335c-0.336,0.252-0.504,0.505-0.504,0.841c0,0.336,0.168,0.588,0.42,0.841
			c0.252,0.252,0.505,0.42,0.925,0.42c0.084,0,0.168-0.084,0.252-0.084v1.514c-0.336,0.083-0.672,0.167-1.008,0.167
			c-0.841,0-1.597-0.252-2.101-0.756c-0.504-0.504-0.757-1.092-0.757-1.849c0-0.504,0.084-0.924,0.336-1.345
			c0.253-0.336,0.588-0.672,1.009-0.84c0.421-0.253,1.009-0.42,1.85-0.589C226.088,189.894,226.256,189.81,226.508,189.81
			L226.508,189.81z M216.674,195.188v-1.765l0,0c0.588,0,1.009-0.252,1.429-0.672c0.336-0.42,0.504-1.093,0.504-2.017
			c0-1.009-0.168-1.766-0.504-2.186c-0.42-0.42-0.841-0.672-1.429-0.672v-1.681c0.756,0.168,1.345,0.588,1.934,1.177v-4.371h2.353
			v12.103h-2.185v-1.345c-0.336,0.504-0.757,0.924-1.261,1.177C217.263,195.021,216.926,195.105,216.674,195.188z M216.674,186.195
			v1.681l0,0c-0.504,0-1.008,0.252-1.344,0.672c-0.421,0.42-0.588,1.092-0.588,1.934c0,0.924,0.167,1.597,0.42,2.017
			c0.336,0.589,0.84,0.925,1.513,0.925v1.765c-0.168,0.084-0.42,0.084-0.588,0.084c-1.009,0-1.934-0.42-2.606-1.26
			c-0.756-0.756-1.092-1.933-1.092-3.362c0-1.513,0.336-2.605,1.008-3.277c0.756-0.841,1.597-1.177,2.69-1.177
			C216.254,186.195,216.506,186.195,216.674,186.195L216.674,186.195z M185.913,195.272v-1.933l0,0c0.588,0,1.092-0.168,1.513-0.672
			c0.42-0.42,0.589-1.093,0.589-2.017c0-0.84-0.168-1.513-0.589-1.933c-0.42-0.505-0.925-0.757-1.513-0.757l0,0v-1.765
			c1.261,0,2.353,0.42,3.194,1.261c0.924,0.756,1.344,1.849,1.344,3.194s-0.42,2.438-1.344,3.278
			C188.266,194.853,187.174,195.272,185.913,195.272L185.913,195.272L185.913,195.272z M198.016,195.105v-1.345
			c-0.336,0.504-0.756,0.84-1.261,1.093c-0.504,0.252-1.092,0.42-1.681,0.42c-0.588,0-1.093-0.167-1.597-0.42
			c-0.42-0.252-0.757-0.588-1.009-1.093c-0.168-0.42-0.252-1.093-0.252-1.933v-5.463h2.27v3.95c0,1.26,0.083,2.017,0.168,2.269
			c0.083,0.252,0.252,0.505,0.42,0.673c0.252,0.168,0.504,0.252,0.924,0.252c0.336,0,0.756-0.084,1.008-0.336
			c0.336-0.252,0.589-0.504,0.673-0.84c0.084-0.252,0.168-1.092,0.168-2.354v-3.614h2.353v8.741H198.016L198.016,195.105z
			 M210.54,195.105h-2.354v-4.539c0-0.925,0-1.513-0.084-1.849c-0.084-0.252-0.252-0.42-0.504-0.588
			c-0.252-0.168-0.505-0.252-0.841-0.252c-0.336,0-0.756,0.084-1.009,0.336c-0.336,0.168-0.588,0.505-0.672,0.841
			c-0.168,0.42-0.168,1.093-0.168,2.018v4.034h-2.354v-8.741h2.185v1.26c0.756-0.924,1.681-1.429,2.858-1.429
			c0.504,0,1.008,0.084,1.429,0.252c0.42,0.167,0.756,0.42,0.925,0.672c0.251,0.336,0.42,0.672,0.503,0.924
			c0.085,0.336,0.085,0.924,0.085,1.597V195.105z M185.913,186.195v1.765c-0.588,0-1.176,0.252-1.513,0.757
			c-0.42,0.42-0.673,1.092-0.673,1.933c0,0.924,0.253,1.597,0.673,2.017c0.336,0.504,0.924,0.672,1.513,0.672v1.933
			c-0.84,0-1.597-0.167-2.27-0.504c-0.756-0.421-1.344-0.924-1.68-1.681c-0.421-0.673-0.588-1.514-0.588-2.522
			c0-0.756,0.167-1.513,0.588-2.269c0.336-0.588,0.924-1.177,1.596-1.513C184.232,186.364,184.988,186.195,185.913,186.195
			L185.913,186.195L185.913,186.195z M160.951,195.272v-1.765h0.083c0.42,0,0.672-0.084,0.925-0.252
			c0.252-0.253,0.504-0.504,0.588-1.009l2.354,0.42c-0.336,0.841-0.841,1.513-1.43,1.933c-0.671,0.42-1.428,0.672-2.437,0.672
			H160.951L160.951,195.272z M160.951,191.322v-1.429h1.765c-0.084-0.672-0.252-1.176-0.588-1.513
			c-0.337-0.336-0.673-0.504-1.177-0.504l0,0v-1.681c1.261,0,2.186,0.42,2.941,1.261c0.756,0.756,1.093,2.102,1.093,3.866H160.951
			L160.951,191.322z M171.625,195.105v-12.103h8.321v2.101h-5.883v2.773h5.042v2.017h-5.042v5.211H171.625z M160.951,186.195v1.681
			c-0.504,0-0.925,0.168-1.261,0.589c-0.336,0.335-0.504,0.84-0.504,1.428h1.765v1.429h-1.765c0,0.757,0.168,1.261,0.504,1.597
			c0.336,0.42,0.757,0.588,1.261,0.588v1.765c-1.513,0-2.605-0.504-3.278-1.513c-0.588-0.757-0.84-1.765-0.84-3.025
			c0-1.429,0.336-2.605,1.092-3.362c0.756-0.757,1.765-1.177,2.858-1.177C160.867,186.195,160.867,186.195,160.951,186.195
			L160.951,186.195z M131.787,195.272v-1.765c0.084,0,0.084,0,0.167,0c0.336,0,0.673-0.084,0.925-0.252
			c0.252-0.253,0.42-0.504,0.504-1.009l2.353,0.42c-0.336,0.841-0.756,1.513-1.429,1.933c-0.672,0.42-1.429,0.672-2.437,0.672
			C131.871,195.272,131.871,195.272,131.787,195.272L131.787,195.272z M131.787,191.322v-1.429h1.765
			c0-0.672-0.168-1.176-0.504-1.513c-0.336-0.336-0.756-0.504-1.26-0.504l0,0v-1.681c1.26,0,2.269,0.42,2.941,1.261
			c0.756,0.756,1.177,2.102,1.092,3.866H131.787L131.787,191.322z M145.738,195.105h-2.354v-4.539c0-0.925-0.083-1.513-0.168-1.849
			c-0.084-0.252-0.252-0.42-0.42-0.588c-0.252-0.168-0.503-0.252-0.84-0.252c-0.421,0-0.757,0.084-1.093,0.336
			c-0.336,0.168-0.504,0.505-0.672,0.841c-0.083,0.42-0.168,1.093-0.168,2.018v4.034h-2.269v-8.741h2.101v1.26
			c0.757-0.924,1.766-1.429,2.942-1.429c0.505,0,0.925,0.084,1.345,0.252c0.42,0.167,0.756,0.42,1.008,0.672
			c0.168,0.336,0.336,0.672,0.42,0.924c0.084,0.336,0.168,0.924,0.168,1.597V195.105L145.738,195.105z M155.74,188.885l-2.354,0.42
			c0-0.504-0.252-0.84-0.504-1.008c-0.252-0.252-0.588-0.336-1.009-0.336c-0.588,0-1.092,0.168-1.428,0.588
			c-0.336,0.336-0.505,1.009-0.505,2.017s0.168,1.765,0.505,2.186c0.336,0.42,0.84,0.588,1.428,0.588
			c0.42,0,0.757-0.083,1.092-0.336c0.253-0.251,0.505-0.672,0.589-1.26l2.27,0.336c-0.252,1.092-0.673,1.849-1.345,2.354
			c-0.672,0.588-1.597,0.84-2.69,0.84c-1.344,0-2.353-0.42-3.109-1.176c-0.757-0.84-1.093-1.933-1.093-3.446
			c0-1.429,0.336-2.521,1.093-3.277c0.756-0.757,1.849-1.177,3.109-1.177c1.093,0,1.934,0.168,2.521,0.672
			C154.983,187.288,155.404,187.96,155.74,188.885z M131.787,186.195v1.681c-0.504,0-0.925,0.168-1.261,0.589
			c-0.336,0.335-0.504,0.84-0.421,1.428h1.682v1.429h-1.765c0,0.757,0.168,1.261,0.588,1.597c0.336,0.42,0.672,0.588,1.177,0.588
			v1.765c-1.429,0-2.521-0.504-3.278-1.513c-0.505-0.757-0.757-1.765-0.757-3.025c0-1.429,0.336-2.605,1.008-3.362
			c0.757-0.757,1.766-1.177,2.942-1.177H131.787L131.787,186.195z M92.2,195.188v-1.597c0.336,0,0.588-0.167,0.925-0.335
			c0.251-0.253,0.42-0.504,0.504-0.841c0.084-0.168,0.167-0.504,0.167-1.093v-0.504c-0.335,0.168-0.84,0.253-1.428,0.421
			c-0.084,0-0.168,0-0.168,0v-1.429c0.672-0.168,1.261-0.336,1.596-0.504v-0.168c0-0.504-0.167-0.756-0.335-1.008
			c-0.252-0.168-0.672-0.252-1.261-0.252v-1.681c0,0,0.083,0,0.168,0c1.008,0,1.765,0.084,2.269,0.336
			c0.505,0.252,0.925,0.588,1.093,0.924c0.168,0.42,0.336,1.009,0.336,2.018l-0.084,2.689c0,0.756,0.084,1.345,0.168,1.765
			c0.084,0.336,0.168,0.756,0.42,1.177h-2.353c0-0.168-0.084-0.421-0.168-0.757c-0.084-0.083-0.084-0.167-0.084-0.251
			c-0.42,0.42-0.84,0.672-1.261,0.924C92.537,195.021,92.368,195.105,92.2,195.188L92.2,195.188z M102.454,191.154l2.354-0.252
			c0.168,0.756,0.42,1.345,0.841,1.765c0.42,0.336,1.008,0.589,1.765,0.589c0.84,0,1.429-0.168,1.765-0.504
			c0.42-0.336,0.672-0.757,0.672-1.177c0-0.335-0.083-0.588-0.252-0.756c-0.168-0.168-0.504-0.335-0.924-0.504
			c-0.252-0.084-0.925-0.336-1.933-0.589c-1.345-0.251-2.27-0.672-2.773-1.176c-0.756-0.672-1.092-1.345-1.092-2.354
			c0-0.588,0.168-1.176,0.503-1.681c0.336-0.588,0.841-1.008,1.514-1.261c0.671-0.251,1.428-0.42,2.353-0.42
			c1.513,0,2.689,0.336,3.446,1.008c0.756,0.673,1.176,1.514,1.261,2.69l-2.438,0.083c-0.168-0.672-0.336-1.092-0.672-1.345
			c-0.42-0.251-0.924-0.42-1.597-0.42c-0.672,0-1.26,0.168-1.681,0.42c-0.251,0.168-0.336,0.42-0.336,0.757s0.084,0.588,0.336,0.756
			c0.336,0.252,1.093,0.504,2.27,0.84c1.177,0.252,2.017,0.42,2.605,0.757c0.588,0.336,1.008,0.672,1.345,1.26
			c0.336,0.505,0.504,1.177,0.504,1.933c0,0.673-0.252,1.345-0.588,1.934c-0.421,0.588-0.924,1.008-1.681,1.345
			c-0.672,0.252-1.513,0.42-2.605,0.42c-1.513,0-2.689-0.336-3.53-1.008C103.042,193.508,102.538,192.499,102.454,191.154
			L102.454,191.154z M121.953,188.885l-2.269,0.42c-0.084-0.504-0.252-0.84-0.504-1.008c-0.336-0.252-0.672-0.336-1.092-0.336
			c-0.589,0-1.009,0.168-1.43,0.588c-0.335,0.336-0.503,1.009-0.503,2.017s0.168,1.765,0.588,2.186
			c0.336,0.42,0.756,0.588,1.345,0.588c0.504,0,0.84-0.083,1.092-0.336c0.336-0.251,0.504-0.672,0.588-1.26l2.269,0.336
			c-0.167,1.092-0.672,1.849-1.345,2.354c-0.672,0.588-1.596,0.84-2.689,0.84c-1.26,0-2.269-0.42-3.026-1.176
			c-0.84-0.84-1.176-1.933-1.176-3.446c0-1.429,0.336-2.521,1.176-3.277c0.757-0.757,1.766-1.177,3.11-1.177
			c1.009,0,1.849,0.168,2.521,0.672C121.196,187.288,121.701,187.96,121.953,188.885L121.953,188.885z M123.718,185.187v-2.185
			h2.354v2.185H123.718L123.718,185.187z M123.718,195.105v-8.741h2.354v8.741H123.718z M92.2,186.195v1.681l0,0
			c-0.42,0-0.756,0.084-1.009,0.252c-0.168,0.168-0.42,0.42-0.504,0.84l-2.101-0.42c0.168-0.756,0.588-1.345,1.177-1.765
			C90.351,186.364,91.107,186.195,92.2,186.195L92.2,186.195z M92.2,189.81v1.429c-0.588,0.168-0.925,0.252-1.093,0.335
			c-0.336,0.252-0.504,0.505-0.504,0.841c0,0.336,0.168,0.588,0.42,0.841c0.168,0.252,0.505,0.42,0.925,0.42
			c0.084,0,0.168-0.084,0.252-0.084v1.597c-0.336,0-0.672,0.084-1.009,0.084c-0.84,0-1.597-0.252-2.101-0.756
			c-0.504-0.504-0.757-1.092-0.757-1.849c0-0.504,0.084-0.924,0.336-1.345c0.252-0.336,0.588-0.672,1.008-0.84
			c0.42-0.253,1.009-0.42,1.85-0.589C91.78,189.894,91.948,189.81,92.2,189.81L92.2,189.81z M77.155,195.188v-1.597
			c0.336,0,0.588-0.167,0.925-0.335c0.251-0.253,0.42-0.504,0.588-0.841c0-0.168,0.084-0.504,0.084-1.093v-0.504
			c-0.336,0.168-0.841,0.253-1.429,0.421c-0.084,0-0.084,0-0.168,0v-1.429c0.756-0.168,1.261-0.336,1.597-0.504v-0.168
			c0-0.504-0.168-0.756-0.336-1.008c-0.252-0.168-0.672-0.252-1.261-0.252v-1.681c0.084,0,0.084,0,0.168,0
			c1.008,0,1.765,0.084,2.269,0.336c0.505,0.252,0.925,0.588,1.093,0.924c0.168,0.42,0.337,1.009,0.337,2.018l-0.084,2.689
			c0,0.756,0.084,1.345,0.168,1.765c0.083,0.336,0.168,0.756,0.42,1.177h-2.354c0-0.168-0.083-0.421-0.168-0.757
			c-0.084-0.083-0.084-0.167-0.084-0.251c-0.42,0.42-0.84,0.672-1.26,0.924C77.492,195.021,77.324,195.105,77.155,195.188
			L77.155,195.188z M87.325,186.364v1.765h-1.596v3.53c0,0.756,0,1.177,0,1.261c0.084,0.168,0.168,0.252,0.252,0.336
			c0.083,0.083,0.252,0.083,0.42,0.083c0.168,0,0.504-0.083,0.924-0.251l0.168,1.849c-0.504,0.252-1.177,0.336-1.849,0.336
			c-0.42,0-0.756-0.084-1.093-0.167c-0.336-0.168-0.588-0.336-0.756-0.589c-0.168-0.252-0.252-0.504-0.336-0.925
			c0-0.252-0.084-0.84-0.084-1.597v-3.866h-1.009v-1.765h1.009v-1.765l2.354-1.345v3.11H87.325z M77.155,186.195v1.681l0,0
			c-0.42,0-0.756,0.084-1.008,0.252c-0.168,0.168-0.42,0.42-0.504,0.84l-2.101-0.42c0.167-0.756,0.588-1.345,1.176-1.765
			C75.307,186.364,76.063,186.195,77.155,186.195L77.155,186.195z M77.155,189.81v1.429c-0.588,0.168-0.925,0.252-1.092,0.335
			c-0.336,0.252-0.505,0.505-0.505,0.841c0,0.336,0.168,0.588,0.421,0.841c0.251,0.252,0.504,0.42,0.924,0.42
			c0.084,0,0.168-0.084,0.252-0.084v1.597c-0.336,0-0.672,0.084-1.008,0.084c-0.84,0-1.597-0.252-2.102-0.756
			c-0.503-0.504-0.756-1.092-0.756-1.849c0-0.504,0.084-0.924,0.336-1.345c0.252-0.336,0.588-0.672,1.008-0.84
			c0.421-0.253,1.009-0.42,1.849-0.589C76.735,189.894,76.903,189.81,77.155,189.81L77.155,189.81z M66.734,195.105v-2.102
			c0.252,0,0.504-0.083,0.672-0.083c0.42-0.084,0.756-0.252,1.009-0.504c0.252-0.252,0.504-0.672,0.672-1.176
			c0.084-0.504,0.168-1.261,0.168-2.186c0-1.009-0.084-1.597-0.168-2.102c-0.167-0.504-0.42-0.924-0.756-1.176
			c-0.252-0.252-0.672-0.505-1.093-0.588c-0.168,0-0.337,0-0.504-0.084v-2.101c0.672,0.083,1.26,0.168,1.681,0.251
			c0.756,0.253,1.345,0.588,1.849,1.093c0.504,0.588,0.924,1.26,1.176,2.017c0.252,0.756,0.42,1.597,0.42,2.773
			c0,1.009-0.167,1.849-0.42,2.605c-0.252,0.84-0.756,1.597-1.261,2.102c-0.42,0.42-1.008,0.756-1.765,1.008
			C67.994,194.937,67.406,195.021,66.734,195.105z M66.734,183.002v2.101c-0.421,0-0.925,0-1.513,0h-1.093v7.9h1.85
			c0.252,0,0.504,0,0.757,0v2.102c-0.168,0-0.336,0-0.421,0H61.69v-12.103h4.455C66.313,183.002,66.566,183.002,66.734,183.002
			L66.734,183.002z M40.51,195.188v-1.597c0.336,0,0.589-0.167,0.925-0.335c0.252-0.253,0.42-0.504,0.504-0.841
			c0.084-0.168,0.168-0.504,0.168-1.093v-0.504c-0.336,0.168-0.841,0.253-1.429,0.421c-0.083,0-0.168,0-0.168,0v-1.429
			c0.673-0.168,1.261-0.336,1.597-0.504v-0.168c0-0.504-0.168-0.756-0.336-1.008c-0.252-0.168-0.672-0.252-1.261-0.252v-1.681
			c0,0,0.085,0,0.168,0c1.009,0,1.765,0.084,2.27,0.336c0.503,0.252,0.924,0.588,1.092,0.924c0.168,0.42,0.336,1.009,0.336,2.018
			l-0.084,2.689c0,0.756,0.084,1.345,0.168,1.765c0.084,0.336,0.168,0.756,0.42,1.177h-2.354c0-0.168-0.083-0.421-0.167-0.757
			c-0.084-0.083-0.084-0.167-0.084-0.251c-0.42,0.42-0.84,0.672-1.26,0.924C40.847,195.021,40.679,195.105,40.51,195.188
			L40.51,195.188z M54.631,195.105h-2.354v-4.539c0-0.925,0-1.513-0.168-1.849c-0.084-0.252-0.252-0.42-0.42-0.588
			c-0.252-0.168-0.504-0.252-0.841-0.252c-0.42,0-0.756,0.084-1.092,0.336c-0.336,0.168-0.505,0.505-0.672,0.841
			c-0.085,0.42-0.168,1.093-0.168,2.018v4.034h-2.269v-8.741h2.101v1.26c0.756-0.924,1.765-1.429,2.941-1.429
			c0.504,0,0.924,0.084,1.344,0.252c0.421,0.167,0.757,0.42,1.01,0.672c0.167,0.336,0.336,0.672,0.42,0.924
			c0.083,0.336,0.168,0.924,0.168,1.597V195.105z M40.51,186.195v1.681l0,0c-0.42,0-0.756,0.084-1.008,0.252
			c-0.168,0.168-0.42,0.42-0.504,0.84l-2.101-0.42c0.168-0.756,0.588-1.345,1.176-1.765
			C38.662,186.364,39.418,186.195,40.51,186.195L40.51,186.195z M40.51,189.81v1.429c-0.588,0.168-0.924,0.252-1.092,0.335
			c-0.336,0.252-0.504,0.505-0.504,0.841c0,0.336,0.168,0.588,0.42,0.841c0.168,0.252,0.504,0.42,0.925,0.42
			c0.084,0,0.168-0.084,0.251-0.084v1.597c-0.335,0-0.672,0.084-1.008,0.084c-0.84,0-1.597-0.252-2.101-0.756
			c-0.504-0.504-0.756-1.092-0.756-1.849c0-0.504,0.084-0.924,0.336-1.345c0.253-0.336,0.588-0.672,1.009-0.84
			c0.42-0.253,1.008-0.42,1.849-0.589C40.09,189.894,40.259,189.81,40.51,189.81L40.51,189.81z M13.279,195.188v-1.597
			c0.252,0,0.588-0.167,0.925-0.335c0.252-0.253,0.42-0.504,0.503-0.841c0.085-0.168,0.085-0.504,0.085-1.093v-0.504
			c-0.253,0.168-0.756,0.253-1.429,0.421h-0.084v-1.429c0.672-0.168,1.177-0.336,1.513-0.504v-0.168
			c0-0.504-0.085-0.756-0.336-1.008c-0.168-0.168-0.588-0.252-1.177-0.252v-1.681h0.084c1.093,0,1.849,0.084,2.354,0.336
			s0.84,0.588,1.093,0.924c0.168,0.42,0.252,1.009,0.252,2.018v2.689c0,0.756,0,1.345,0.084,1.765
			c0.084,0.336,0.252,0.756,0.42,1.177h-2.27c-0.083-0.168-0.167-0.421-0.251-0.757c0-0.083,0-0.167-0.084-0.251
			c-0.336,0.42-0.756,0.672-1.26,0.924C13.531,195.021,13.363,195.105,13.279,195.188L13.279,195.188z M19.415,185.187v-2.185h2.269
			v2.185H19.415L19.415,185.187z M19.415,195.105v-8.741h2.269v8.741H19.415L19.415,195.105z M25.718,195.105l-2.773-8.741h2.269
			l1.597,5.715l1.513-5.715h2.27l1.428,5.715l1.681-5.715h2.27l-2.773,8.741h-2.27l-1.513-5.715l-1.429,5.715H25.718z
			 M9.497,183.002h0.168v2.101H9.497V183.002L9.497,183.002z M13.279,186.195v1.681c-0.084,0-0.084,0-0.084,0
			c-0.42,0-0.673,0.084-0.925,0.252c-0.251,0.168-0.42,0.42-0.588,0.84l-2.102-0.42c0.252-0.756,0.672-1.345,1.261-1.765
			C11.346,186.364,12.187,186.195,13.279,186.195L13.279,186.195z M13.279,189.81v1.429c-0.588,0.168-0.924,0.252-1.177,0.335
			c-0.252,0.252-0.42,0.505-0.42,0.841c0,0.336,0.083,0.588,0.336,0.841c0.251,0.252,0.588,0.42,0.924,0.42
			c0.084,0,0.168-0.084,0.336-0.084v1.597c-0.336,0-0.672,0.084-1.009,0.084c-0.924,0-1.597-0.252-2.101-0.756
			c-0.336-0.252-0.504-0.588-0.672-0.925v-1.849c0.084-0.084,0.168-0.252,0.252-0.42c0.168-0.336,0.504-0.672,0.924-0.84
			c0.421-0.253,1.093-0.42,1.849-0.589C12.775,189.894,13.027,189.81,13.279,189.81z M3.614,195.105v-10.002H0v-2.101h9.497v2.101
			H6.051v10.002H3.614L3.614,195.105z M9.497,191.743c-0.084,0.336-0.168,0.588-0.168,0.924s0.084,0.672,0.168,0.924V191.743z"/>
	</g>
	<g>
		<rect x="71.945" y="3.728" fill="#F08300" width="16.389" height="16.306"/>
		<rect x="84.888" y="16.671" fill="#F08300" width="25.298" height="25.299"/>
		<rect x="84.888" y="60.292" fill="#0068B7" width="25.298" height="25.298"/>
		<rect x="163.472" y="60.292" fill="#0068B7" width="25.299" height="25.298"/>
		<path fill="#0068B7" d="M123.55,16.671c13.363,0,26.727,0,40.09,0c8.405,0,24.794,7.312,24.962,25.299h-39.838v43.62H123.55
			V16.671z"/>
		<path fill="#0068B7" d="M71.945,105.594v-5.8h25.214v5.8h-9.666v19.331h-5.799v-19.331H71.945L71.945,105.594z M101.361,99.794
			h19.331c2.186,0,3.951,0.757,5.463,2.27s2.269,3.278,2.269,5.462v9.666c0,2.186-0.756,3.95-2.269,5.463
			c-1.513,1.513-3.278,2.27-5.463,2.27h-19.331V109.46h5.799v9.666h13.532c0.589,0,1.009-0.168,1.429-0.588
			c0.336-0.336,0.504-0.84,0.504-1.345v-9.666c0-0.503-0.168-1.008-0.588-1.344c-0.335-0.42-0.84-0.588-1.345-0.588
			c-6.387,0-12.859,0-19.331,0V99.794L101.361,99.794z M140.359,99.794h21.264v5.8h-21.264c-0.588,0-1.008,0.168-1.429,0.504
			c-0.336,0.42-0.588,0.84-0.504,1.428c0,2.354,2.857,2.018,5.042,2.018c3.362,0,6.724-0.168,10.086,0
			c1.85,0.084,3.278,0.588,4.287,1.177c2.437,1.176,3.613,3.361,3.613,6.555c0,2.102-0.756,3.951-2.269,5.463
			c-1.513,1.513-3.362,2.269-5.463,2.269h-21.096v-5.883h21.096c0.504,0,1.008-0.168,1.345-0.588c0.42-0.336,0.588-0.84,0.588-1.345
			c0-0.84-0.42-1.345-1.26-1.681c-0.168,0-0.337-0.084-0.505-0.084c-4.202-0.252-8.741,0.084-12.943-0.083
			c-2.102,0-3.698-0.673-4.875-1.261c-2.354-1.261-3.446-3.446-3.446-6.556c0-2.185,0.672-3.95,2.185-5.462
			S138.174,99.794,140.359,99.794L140.359,99.794z M165.91,124.925V109.46c7.396,0,14.792,0,22.188,0v5.799h-16.39v9.666H165.91
			L165.91,124.925z M165.91,105.594v-5.8h22.944v5.8C181.207,105.594,173.558,105.594,165.91,105.594z"/>
	</g>
</g>
</svg>
