<?xml version="1.0" encoding="utf-8"?>
<!-- Generator: Adobe Illustrator 16.0.0, SVG Export Plug-In . SVG Version: 6.00 Build 0)  -->
<!DOCTYPE svg PUBLIC "-//W3C//DTD SVG 1.1//EN" "http://www.w3.org/Graphics/SVG/1.1/DTD/svg11.dtd">
<svg version="1.1" id="圖層_1" xmlns="http://www.w3.org/2000/svg" xmlns:xlink="http://www.w3.org/1999/xlink" x="0px" y="0px"
	 width="207.995px" height="63px" viewBox="0 0 207.995 63" enable-background="new 0 0 207.995 63" xml:space="preserve">
<g>
	<defs>
		<rect id="SVGID_1_" width="207.995" height="63"/>
	</defs>
	<clipPath id="SVGID_2_">
		<use xlink:href="#SVGID_1_"  overflow="visible"/>
	</clipPath>
	<path clip-path="url(#SVGID_2_)" fill="#FFFFFF" d="M58.569,60.933H5.097c-1.484,0-2.688-1.203-2.688-2.688V4.813
		c0-1.484,1.204-2.688,2.688-2.688h53.472c1.485,0,2.688,1.204,2.688,2.688v53.432C61.257,59.729,60.054,60.933,58.569,60.933"/>
	<path clip-path="url(#SVGID_2_)" fill="#00A0DC" d="M5.179,2.067h53.309c1.523,0,2.769,1.246,2.769,2.769v25.12H49.796
		l-5.218,11.992l-7.665-18.433l-7.415,17.045H2.41V4.836C2.41,3.313,3.656,2.067,5.179,2.067"/>
	<path clip-path="url(#SVGID_2_)" fill="#00A0DC" d="M61.257,32.502v25.644c0,1.522-1.246,2.769-2.77,2.769H5.179
		c-1.522,0-2.769-1.246-2.769-2.769v-15.04h29.137l5.221-12l7.68,18.434l7.412-17.037H61.257z"/>
	<path clip-path="url(#SVGID_2_)" fill="#036EB8" d="M87.404,15.028h-9.726v19.168H74.86V5.908h12.544V15.028z M84.748,7.988h-7.07
		v1.439h7.07V7.988z M77.678,12.948h7.07v-1.632h-7.07V12.948z M85.74,15.508l-1.664,1.728c-0.382,0.384-0.896,0.831-1.533,1.344
		l1.375,0.032l1.247,0.032c0.448-0.32,0.747-0.555,0.896-0.704l0.609-0.64l2.047,0.64c-2.325,2.154-4.331,3.626-6.016,4.416
		l1.761-0.032l1.567-0.096l-0.192-0.48l-0.224-0.544l1.76-0.224c0.427,0.981,0.821,2.091,1.185,3.328l-2.08,0.353l-0.097-0.706
		l-3.521,0.161l-3.68,0.096l-0.447-2.016l0.961,0.096c0.254-0.128,0.458-0.224,0.606-0.288c1.068-0.49,2.04-1.024,2.915-1.6
		c0.083-0.064,0.2-0.138,0.351-0.224l-1.888,0.064l-2.05,0.032l-0.383-1.888l0.896,0.064c0.256-0.235,0.459-0.416,0.607-0.544
		c1.237-1.108,2.123-2.058,2.656-2.849L85.74,15.508z M81.55,33.813l-1.313-2.209c3.009-0.277,4.618-1.088,4.832-2.432h-5.217V25.3
		h2.402v1.888h2.911v-2.176h2.497v3.393C87.662,31.305,85.623,33.108,81.55,33.813 M94.222,15.539
		c-0.578,0.727-1.067,1.281-1.473,1.665l-1.534,1.472h3.007l0.703-0.64l0.607-0.672l2.081,0.736
		c-1.599,1.707-3.263,3.093-4.992,4.16c-0.128,0.064-0.286,0.16-0.479,0.288l1.919-0.128c0.789,0,1.313-0.064,1.568-0.192
		l-0.224-0.416l-0.255-0.576l1.695-0.384l0.737,1.664c0.086,0.235,0.245,0.726,0.479,1.473c0.021,0.085,0.065,0.203,0.128,0.351
		l-1.888,0.448l-0.255-0.833l-3.456,0.29l-3.329,0.126l-0.544-1.951h0.769c0.254-0.148,0.458-0.266,0.606-0.352
		c0.451-0.256,0.802-0.49,1.058-0.704l1.567-1.184l-2.143,0.128l-1.92,0.032l-0.45-1.792l0.706,0.032
		c1.172-1.003,2.185-2.144,3.039-3.424L94.222,15.539z M92.014,25.012v2.624h2.753V25.3h2.398v4.416h-5.151v4.032h-2.497v-8.736
		H92.014z M95.886,31.061l2.657,0.158c0.724,0,1.086-0.329,1.086-0.991v-15.2H89.582v-9.12h12.865v24.288v0.8
		c0,0.917-0.198,1.627-0.594,2.128c-0.393,0.501-1.198,0.751-2.414,0.751h-2.594L95.886,31.061z M92.269,9.427h7.36V7.988h-7.36
		V9.427z M99.629,11.315h-7.36v1.632h7.36V11.315z"/>
	<path clip-path="url(#SVGID_2_)" fill="#036EB8" d="M115.853,31.316c-2.559,0.938-5.674,1.708-9.344,2.305l-0.32-2.753l2.529-0.384
		l1.888-0.352v-9.761h-4.158v-2.399h4.158v-2.784h-2.625v-1.632l-0.989,1.056l-1.088-2.657c0.341-0.362,0.627-0.661,0.863-0.896
		c1.664-1.749,2.975-3.797,3.936-6.144h2.56l1.919,2.752l2.113,2.976l-1.951,1.793l-1.698-2.689l-1.471-2.24
		c-0.662,1.75-1.803,3.499-3.425,5.249h7.073v2.432h-2.72v2.784h3.009v2.399h-3.009v9.249l1.406-0.416l1.633-0.48v2.337
		c0.789-0.79,1.548-1.824,2.271-3.106c0.065-0.126,0.162-0.297,0.289-0.511c-0.406-0.917-0.789-1.994-1.151-3.232l-0.929-3.296
		l2.015-0.736l0.545,1.856c0.299,1.109,0.556,1.91,0.769,2.4c0.299-1.13,0.492-2.325,0.576-3.584l0.257-3.104h-3.489v-1.984
		c1.195-2.176,2.039-4.277,2.528-6.304c0.064-0.299,0.148-0.66,0.255-1.089h-3.519V6.132h5.951V8.18
		c-0.128,0.533-0.233,0.97-0.32,1.312c-0.534,2.346-1.217,4.352-2.047,6.016h3.039v1.887c-0.148,4.31-0.724,7.649-1.727,10.018
		c1.323,1.876,3.25,2.9,5.792,3.071v-2.945h-4.031v-2.335h4.031v-2.176h-3.521v-2.336h3.521v-1.92h-3.521V16.5h3.521v-2.464h-4.353
		v-2.208h4.353V9.427h-3.521V7.156h3.521V4.787h2.398v2.369H134v4.672h1.375v2.208H134v4.736h-4.354v1.92h4.93v2.336h-4.93v2.176
		h5.186v2.335h-5.186v3.137h2.497c1.237,0,2.315-0.086,3.232-0.256l-0.513,2.688h-3.967h-0.769c-2.56,0-4.588-0.25-6.08-0.752
		c-1.493-0.501-2.764-1.402-3.808-2.704c-1.109,1.749-2.357,3.263-3.745,4.543l-1.409-2.176L115.853,31.316z M107.726,28.692
		l-0.352-3.199c-0.193-1.601-0.341-2.646-0.448-3.137l2.047-0.288l0.514,3.009c0.064,0.49,0.169,1.354,0.319,2.591
		c0,0.17,0.021,0.384,0.063,0.64L107.726,28.692z M116.431,22.004l-0.13,2.657c-0.083,1.023-0.203,1.951-0.351,2.783l-2.047-0.256
		c0.021-0.192,0.042-0.352,0.062-0.48c0.171-0.981,0.278-1.728,0.32-2.24l0.191-2.56L116.431,22.004z M131.726,9.427h-2.081v2.4
		h2.081V9.427z M131.758,14.036h-2.112V16.5h2.112V14.036z"/>
	<path clip-path="url(#SVGID_2_)" fill="#3E3A39" d="M148.943,11.124H137.87V8.468h4.385l-0.544-1.632
		c-0.255-0.619-0.523-1.184-0.8-1.696l2.912-0.384l0.255,0.512c0.383,0.832,0.768,1.898,1.154,3.2h3.711V11.124z M138.606,13.237
		h9.761v2.496h-9.761V13.237z M138.606,17.94h9.761v2.464h-9.761V17.94z M138.703,22.933h9.729v10.943h-2.721v-1.439h-4.289v1.759
		h-2.719V22.933z M145.711,25.365h-4.289v4.64h4.289V25.365z M159.919,21.684h7.425v2.785h-7.425v9.727h-2.911v-9.727h-7.393v-2.785
		h7.393V8.66h-6.945V5.876h16.865V8.66h-7.009V21.684z M152.398,19.348c-0.127-0.554-0.234-1.012-0.32-1.376
		c-0.555-2.602-1.182-4.811-1.888-6.624l2.625-0.736c0.617,1.579,1.055,2.827,1.312,3.744l1.183,4.256L152.398,19.348z
		 M166.77,11.156c-0.792,3.286-1.678,6.091-2.657,8.417l-2.722-1.28c0.917-2.006,1.706-4.161,2.367-6.465
		c0.086-0.341,0.214-0.789,0.387-1.344L166.77,11.156z"/>
	<path clip-path="url(#SVGID_2_)" fill="#3E3A39" d="M169.87,11.06V8.404h3.907l-0.514-1.408c-0.255-0.724-0.533-1.344-0.83-1.856
		l2.75-0.384c0.299,0.47,0.575,1.119,0.833,1.951l0.576,1.697h3.328v2.656H169.87z M170.831,13.14h8.48v2.56h-8.48V13.14z
		 M170.831,17.844h8.32v2.528h-8.32V17.844z M179.12,33.876h-2.559v-1.504h-3.074v1.823h-2.56V22.868h8.192V33.876z M176.562,25.301
		h-3.073v4.608h3.073V25.301z M183.759,12.596l-0.382,0.288c-0.342,0.256-0.631,0.448-0.865,0.576l-1.44,0.864l-1.599-2.624
		c1.3-0.532,2.768-1.417,4.398-2.656c1.633-1.236,2.992-2.614,4.08-4.128h3.042c1.94,2.261,4.725,4.364,8.353,6.304l-1.151,2.784
		c-0.192-0.107-0.344-0.181-0.451-0.224c-0.382-0.192-0.703-0.361-0.958-0.512l-1.281-0.768v1.984h-11.745V12.596z M193.071,32.819
		h-2.56v-6.687h-2.078v6.687h-2.529v-6.687h-2.049v8.062h-2.657V16.724h16.804v13.504v0.416c0,1.089-0.198,1.904-0.595,2.449
		c-0.393,0.545-1.196,0.815-2.414,0.815h-1.696L193.071,32.819z M185.904,19.221h-2.049v4.416h2.049V19.221z M194.449,11.795
		c-1.581-1.088-3.211-2.539-4.896-4.352c-1.047,1.344-2.615,2.794-4.706,4.352H194.449z M190.512,19.221h-2.078v4.416h2.078V19.221z
		 M195.346,19.284h-2.273v4.384h2.273V19.284z M194.608,31.285c0.489,0,0.737-0.267,0.737-0.801v-4.319h-2.274v5.055L194.608,31.285
		z"/>
	<path clip-path="url(#SVGID_2_)" fill="#595757" d="M77.261,43.584l1.359,0.674c-0.916,2.347-2.484,4.533-4.703,6.561l-1.073-1.36
		c1.247-1.1,2.193-2.113,2.831-3.041C76.316,45.49,76.844,44.545,77.261,43.584 M85.149,49.233
		c-0.141,4.276-0.401,6.769-0.784,7.473c-0.195,0.373-0.463,0.644-0.818,0.816c-0.351,0.17-1.171,0.256-2.463,0.256
		c-0.448,0-0.714-0.006-0.802-0.017l-0.445-1.487c1.099,0.03,1.914,0.049,2.445,0.049c0.471,0,0.776-0.321,0.922-0.961
		c0.146-0.642,0.265-2.203,0.359-4.689h-3.68c-0.224,1.271-0.604,2.398-1.143,3.384c-0.539,0.988-1.318,1.899-2.336,2.736
		c-1.018,0.838-1.63,1.256-1.831,1.256l-1.026-1.328c1.537-0.819,2.654-1.709,3.354-2.664c0.699-0.953,1.165-2.082,1.399-3.384
		h-2.591v-1.439H85.149z M83.42,43.729c0.662,1.26,1.281,2.268,1.857,3.022c0.576,0.758,1.349,1.606,2.32,2.545l-1.281,1.216
		c-1.334-1.333-2.581-3.108-3.742-5.328h-3.011v-1.455H83.42z"/>
	<path clip-path="url(#SVGID_2_)" fill="#595757" d="M97.853,53.938h5.71v1.407h-6.127v0.752v0.193c0,0.618-0.119,1.047-0.359,1.288
		c-0.24,0.24-0.721,0.359-1.448,0.359H93.34l-0.318-1.455l2.271,0.047c0.351,0,0.528-0.166,0.528-0.496v-0.688h-6.992v-1.407h6.992
		v-0.593l1.391-0.352l1.826-0.544h-8.993v-1.375h11.824v1.229c-1.003,0.535-2.154,1.015-3.456,1.441
		C98.264,53.799,98.077,53.864,97.853,53.938 M89.004,45.938v-1.409h6.112l-0.224-0.432l-0.318-0.526l1.758-0.21l0.336,0.608
		l0.274,0.56h6.447v1.409H89.004z M90.574,46.723h11.311v3.583H90.574V46.723z M100.27,47.938h-8.081v1.137h8.081V47.938z"/>
	<path clip-path="url(#SVGID_2_)" fill="#595757" d="M112.575,57.426h-5.425v0.656h-1.247v-5.359l-0.259,0.353l-0.352,0.415
		l-0.432-1.489c0.702-0.649,1.266-1.461,1.68-2.43l1.25,0.158l-0.339,0.736h1.807l-0.205-0.448l-0.255-0.465l0.479-0.191v-2.879
		h0.783v-0.898h-0.896v-1.087h0.896v-1.136h1.197v1.136h1.684v1.087h-1.684v0.898h1.395v3.04h-2.526l0.224,0.464l0.19,0.479h2.224
		v1.057h-2.19v0.832h2.031v0.96h-2.031v0.96h2.031v0.942h-2.031v1.121h2.225v0.241c0.938-0.737,1.44-1.874,1.502-3.41h-0.88v-9.39
		h5.472v9.39h-1.533v2.898c0,0.287,0.03,0.467,0.093,0.543c0.065,0.076,0.214,0.112,0.451,0.112c0.286,0,0.43-0.278,0.43-0.834
		v-0.112l-0.016-1.439l1.153,0.386l-0.034,1.662c0,0.981-0.544,1.474-1.63,1.474c-0.651,0-1.091-0.11-1.32-0.328
		c-0.229-0.219-0.345-0.606-0.345-1.16v-3.201h-0.608c-0.128,2.177-0.896,3.814-2.306,4.913L112.575,57.426z M108.637,46.482v3.04
		h-3.328v-3.04h1.345v-0.898h-1.743v-1.087h1.743v-1.136h1.199v1.136h0.978v1.087h-0.978v0.898H108.637z M107.533,47.393h-1.12
		v1.216h1.12V47.393z M109.324,51.522h-2.178v0.832h2.178V51.522z M109.324,53.314h-2.178v0.96h2.178V53.314z M109.324,55.217
		h-2.178v1.121h2.178V55.217z M111.549,47.393h-1.166v1.216h1.166V47.393z M117.583,45.01h-2.865v1.408h2.865V45.01z
		 M114.718,49.106h2.862v-1.554h-2.862V49.106z M114.718,51.938h2.862v-1.681h-2.862V51.938z"/>
	<path clip-path="url(#SVGID_2_)" fill="#595757" d="M124.575,51.873h-3.011v-1.2h3.011v-0.943h-3.154v-5.968h7.568v5.968h-3.217
		v0.943h3.073v1.2h-3.073v0.977l1.811-0.127c0.51,0,0.992-0.055,1.439-0.161v1.185l-3.794,0.303c-1.695,0-3.05,0.076-4.062,0.226
		l-0.289-1.298l1.586-0.015l2.112-0.062V51.873z M122.958,54.866c-0.042,0.222-0.076,0.41-0.096,0.56
		c-0.193,1.024-0.459,1.904-0.801,2.642l-1.185-0.515c0.438-0.776,0.758-1.726,0.961-2.848L122.958,54.866z M122.557,48.579h2.019
		v-3.648h-2.019V48.579z M122.862,45.794l0.735-0.21l0.321,0.995c0.073,0.244,0.153,0.575,0.239,0.992
		c0.011,0.052,0.025,0.126,0.047,0.223l-0.833,0.255l-0.206-1.119C123.059,46.428,122.958,46.049,122.862,45.794 M123.533,57.889
		c0.045-0.36,0.064-0.879,0.064-1.551c0-0.586-0.02-1.082-0.064-1.488l1.089-0.079c0.096,0.479,0.143,0.948,0.143,1.407
		c0,0.853,0.005,1.381,0.017,1.584L123.533,57.889z M125.838,57.618c-0.065-1.098-0.203-2.038-0.416-2.815l1.041-0.162
		c0.255,0.822,0.435,1.724,0.542,2.705L125.838,57.618z M125.772,48.579h2.081v-3.648h-2.081V48.579z M126.526,46.594l0.208-1.056
		l0.768,0.191l-0.193,1.217c-0.105,0.587-0.191,0.961-0.255,1.121l-0.88-0.259l0.127-0.383
		C126.419,47.052,126.494,46.775,126.526,46.594 M128.047,57.187l-0.081-0.4c-0.062-0.299-0.144-0.592-0.24-0.879l-0.432-1.28
		l0.945-0.224c0.447,0.959,0.739,1.748,0.878,2.367L128.047,57.187z M131.294,50.37v-7.009h1.409v2.672h2.861v1.312h-2.861v3.024
		h2.271v7.712h-1.359v-1.105h-2.737v1.105h-1.359V50.37H131.294z M133.614,51.665h-2.737v4.017h2.737V51.665z"/>
	<path clip-path="url(#SVGID_2_)" fill="#595757" d="M136.877,51.554c0.417-0.278,0.906-0.791,1.475-1.544
		c0.564-0.751,1.04-1.533,1.422-2.344l1.344,0.783l-0.464,0.832l-0.512,0.849v7.95h-1.438v-6.11l-0.576,0.656
		c-0.224,0.256-0.492,0.517-0.802,0.782L136.877,51.554z M141.519,44.514c-1.175,1.366-2.401,2.571-3.681,3.616l-0.8-1.425
		c1.172-0.854,2.235-1.871,3.184-3.056L141.519,44.514z M147.198,49.01v2.048h3.424v1.439h-3.424v3.521
		c0.651,0.086,1.265,0.129,1.841,0.129h0.159l2.352-0.033l-0.256,1.504h-1.022h-0.466c-2.292,0-3.806-0.185-4.534-0.56
		c-0.732-0.374-1.454-1.036-2.17-1.985l-0.544,1.377c-0.225,0.533-0.495,1.058-0.815,1.568l-1.136-1.216
		c1.278-2.207,1.977-4.667,2.097-7.375l1.456,0.048c-0.065,1.524-0.235,2.832-0.514,3.918c0.481,1.026,1.181,1.788,2.097,2.29V49.01
		H147.198z M148.222,43.666c0.022-0.074,0.05-0.16,0.08-0.258l1.456,0.336l-0.081,0.32c-0.158,0.588-0.366,1.179-0.621,1.777
		l1.277,0.88l1.14,0.784l-0.931,1.406c-0.778-0.725-1.493-1.32-2.144-1.791c-0.382,0.642-0.811,1.217-1.281,1.729l-0.912-1.344
		l-0.768,1.151l-0.958-1.07c-0.076-0.086-0.235-0.236-0.482-0.449c-0.062-0.053-0.153-0.133-0.271-0.241
		c-0.042,0.065-0.075,0.118-0.097,0.161c-0.331,0.511-0.741,1.035-1.231,1.568c-0.042,0.043-0.097,0.101-0.159,0.176l-1.184-1.104
		c0.649-0.522,1.157-1.078,1.527-1.664c0.367-0.587,0.711-1.467,1.031-2.641l1.409,0.225l-0.257,1.024
		c-0.073,0.298-0.187,0.619-0.336,0.96l1.007,0.832l0.93,0.815C147.326,46.15,147.945,44.955,148.222,43.666"/>
	<path clip-path="url(#SVGID_2_)" fill="#595757" d="M153.295,51.187c0.736-0.832,1.445-1.829,2.128-2.992h-2.464v-1.329h4.064
		v1.136c-0.513,0.97-1.097,1.9-1.744,2.785c-0.056,0.063-0.117,0.148-0.193,0.255h1.904v0.929c-0.063,0.405-0.149,0.778-0.255,1.118
		l-0.384,1.187c0.511,0.853,1.154,1.403,1.928,1.646c0.772,0.246,2.386,0.371,4.839,0.371c1.28,0,2.508-0.027,3.682-0.082
		c0.211,0,0.469-0.015,0.766-0.046l-0.255,1.488h-3.839c-2.997,0-4.912-0.146-5.736-0.435c-0.826-0.287-1.52-0.836-2.073-1.646
		c-0.651,1.097-1.248,1.912-1.792,2.446l-1.023-1.118c1.227-1.132,2.122-2.656,2.688-4.577h-2.239V51.187z M155.487,46.579
		c-0.864-0.929-1.622-1.639-2.273-2.129l0.93-0.928c0.82,0.564,1.533,1.15,2.144,1.76l0.192,0.19L155.487,46.579z M162.319,43.361
		c0.02,0.044,0.038,0.081,0.049,0.111c0.244,0.447,0.409,0.813,0.494,1.089c0.011,0.055,0.031,0.129,0.065,0.225h4.479v1.359H157.36
		v-1.359h4.047l-0.225-0.562c-0.148-0.341-0.271-0.56-0.367-0.653L162.319,43.361z M158.271,46.946h8.384v1.263h-8.384V46.946z
		 M158.271,49.088h8.384v1.266h-8.384V49.088z M158.464,51.298h8.094v3.841h-8.094V51.298z M165.136,52.562h-5.25v1.327h5.25V52.562
		z"/>
	<path clip-path="url(#SVGID_2_)" fill="#595757" d="M175.565,49.235h-4.829v8.847h-1.476V43.873h6.305V49.235z M174.144,45.057
		h-3.408v0.96h3.408V45.057z M170.736,48.033h3.408V47.01h-3.408V48.033z M178.465,52.962h2.271v1.263h-2.271v3.41h-1.347v-3.41
		h-1.857c-0.052,1.464-0.897,2.646-2.541,3.552l-1.089-1.006c0.138-0.076,0.255-0.14,0.352-0.191
		c1.131-0.598,1.756-1.383,1.872-2.354h-2.289v-1.263h2.401v-1.616h-1.919v-1.231h8.209v1.231h-1.792V52.962z M177.118,51.346
		h-1.809v1.616h1.809V51.346z M181.087,56.498c0.362,0,0.545-0.166,0.545-0.496v-6.767h-4.896v-5.362h6.366v12.114v0.397
		c0,0.981-0.5,1.474-1.503,1.474h-1.745l-0.366-1.425L181.087,56.498z M178.144,46.018h3.487v-0.959h-3.487V46.018z M181.632,47.01
		h-3.487v1.023h3.487V47.01z"/>
	<path clip-path="url(#SVGID_2_)" fill="#595757" d="M186.832,46.274l0.175-1.394l0.146-1.488l1.424,0.05l-0.161,1.567l-0.159,1.265
		h2.561v1.087c-0.193,2.38-0.651,4.486-1.379,6.32c0.504,0.374,1.073,0.906,1.715,1.601l-0.946,1.201l-0.769-0.832l-0.702-0.688
		c-0.789,1.194-1.634,2.164-2.529,2.91l-1.216-1.023c1.078-0.776,1.958-1.711,2.641-2.801l-1.12-0.88l-1.281-0.913
		c0.513-1.246,0.966-2.787,1.361-4.622h-1.76v-1.359H186.832z M187.585,52.274c0.297,0.191,0.526,0.366,0.687,0.527
		c0.521-1.387,0.882-2.948,1.07-4.688c0.014-0.128,0.032-0.288,0.066-0.48h-1.375l-0.448,2c-0.224,0.841-0.456,1.567-0.69,2.175
		L187.585,52.274z M196.991,45.426l0.417,0.623c0.789,1.174,1.505,2.444,2.143,3.81l-1.343,0.782l-0.271-0.64l-0.305-0.59
		c-1.151,0.254-2.25,0.383-3.297,0.383c-1.193,0-2.331,0.07-3.407,0.207l-0.176-1.519l0.463,0.031l0.432-0.017
		c0.834-1.557,1.507-3.257,2.017-5.104l1.586,0.226c-0.12,0.33-0.214,0.602-0.289,0.815c-0.555,1.664-1.109,3.015-1.664,4.049
		l1.857-0.128c0.937-0.099,1.552-0.171,1.838-0.225l-0.575-1.042c-0.276-0.478-0.519-0.863-0.719-1.149L196.991,45.426z
		 M191.438,51.235h7.186v6.847h-1.425v-0.847h-4.336v0.847h-1.425V51.235z M197.199,52.594h-4.336v3.279h4.336V52.594z"/>
</g>
</svg>
