<svg xmlns="http://www.w3.org/2000/svg" width="113.131" height="79.978" viewBox="0 0 113.131 79.978"><g fill="#B99868"><path d="M220.28 12.032c.81.353 2.476.956 3.845.956.858 0 1.2-.256 1.2-.582 0-.396-.416-.696-1.516-1.095-1.472-.558-3.109-1.467-3.109-3.185 0-2.655 2.519-4.168 5.999-4.168 1.667 0 2.941.304 3.649.653l-1.028 2.861a7.996 7.996 0 0 0-2.914-.535c-.781 0-1.272.186-1.272.581 0 .281.511.628 1.564 1.023 1.226.444 3.235 1.211 3.235 3.235 0 2.775-2.645 4.238-6.273 4.192-1.762-.046-3.525-.444-4.41-1.07l1.03-2.866zM200.645 3.958c-3.109.016-5.354.811-6.272 1.201l.22 2.587c1.258-.6 3.105-.988 4.492-.988 1.756 0 2.04.503 1.931.959l-.085.385c-1.802-.127-3.399-.064-4.771.406-1.99.685-3.384 1.889-3.799 3.684-.361 1.551.516 2.956 2.278 3.448 1.913.531 3.939.347 5.907-.029 1.731-.331 3.694-.116 3.694-.116 0-.574.165-1.63.429-2.753l.885-3.807c.661-2.82-.411-5.004-4.909-4.977zm-3.64 7.206c.659-.646 1.86-.895 3.564-.829 0 0-.333 1.417-.595 2.548-1.199.328-2.751.589-3.234.04-.388-.447-.383-1.118.265-1.759zM215.566 4.248c-1.263 0-2.436.368-3.287.916L213.303 0h-4.88L206.3 10.726c-.15.703-.239 1.344-.239 2.018-.027 2.072 1.444 3.516 4.923 3.516 6.098 0 8.576-4.33 8.576-7.845.001-2.372-1.472-4.167-3.994-4.167zm-3.702 8.868c-.662 0-1.172-.372-1.222-1.097-.052-.461.05-.88.121-1.231l.047-.304c.392-1.956 1.544-2.933 2.696-2.933.887 0 1.446.653 1.446 1.676.001 1.865-1.416 3.889-3.088 3.889zM187.922 11.897L190.282 0h-5.494s-2.414 12.216-2.627 13.261c-.22 1.043.28 2.426 2.002 2.426h6.675l.742-3.79h-3.658z"/></g><g fill="#CA1F22"><path d="M180.256 3.752C179.958.658 177.191 0 174.092 0H167.623l-3.119 15.719h4.889l2.58-12.973c1.204 0 1.97-.044 2.731.183.752.229 1.178.857 1.018 1.916-.227 1.422-1.644 2.485-3.895 2.825.729.604 1.372 2.263 1.64 4.178.273 1.911.516 3.403.689 3.872h4.665c-.403-.931-.692-3.084-.961-4.671-.219-1.234-.471-2.05-1.465-2.605l.022-.095c2.254-.337 4.065-2.22 3.839-4.597zM158.948 15.719h4.929L162.697 0h-7.437l-7.848 15.719h4.518l1.965-3.935h4.755l.298 3.935zm-3.42-7.208l2.5-5.008.377 5.008h-2.877zM144.534 0l-1.828 9.216L139.64 0h-6.129l-3.118 15.719h5.371l1.828-9.221 3.066 9.221h6.13L149.904 0z"/></g><g fill="#221E1F"><path d="M266.992.312h-12.9l.006 13.52c0 .803.223 1.872 2.092 1.872h10.786c1.414 0 2.074-.596 2.074-1.872l.012-11.645c0-.808-.215-1.875-2.07-1.875zm.03 13.638c0 .639-.252.751-.778.751h-9.338c-.65 0-.762-.232-.762-.751V2.072c0-.402 0-.633-.002-.755h10.102c.656 0 .778.252.778.755V13.95z"/><path d="M264.741 8.199c.922-.139 1.025-.782 1.025-1.254V5.496c0-.891-.459-1.288-1.504-1.288h-1.753v-.565h3.481c.529 0 .584-.326.584-.467 0-.299-.225-.485-.584-.485h-3.481V1.76h-1.884v.931h-3.856v.952h3.856v.565h-3.188l-.008.118V6.945c0 .895.47 1.293 1.509 1.293h1.688v.722h-3.849v.946h7.832c.123.215.25.435.4.635l.042.054 1.548.001-.322-.47c-.449-.674-1.001-1.49-1.536-1.927zm-4.116-.862h-1.037c-.459 0-.506-.05-.506-.508v-.158h1.543v.666zm0-1.566h-1.543v-.615h1.543v.615zm1.883 3.189v-.721h1.224a.51.51 0 0 0 .005.201c.028.181.165.381.281.521h-1.51zm1.576-2.131c0 .458-.045.508-.504.508h-1.072v-.666h1.576v.158zm-1.576-1.058v-.615h1.072c.474 0 .504 0 .504.615h-1.576z"/><path d="M266 10.955h-1.457v-.664l-1.889-.013v.676h-5.869v.95h1.209c.5.993 1.177 1.77 1.906 2.161a.876.876 0 0 0 .307.068c.14 0 .255-.043.327-.134.083-.088.105-.213.083-.371-.047-.234-.275-.503-.373-.628a4.277 4.277 0 0 1-.633-1.097h3.042v.923c0 .437-.047.484-.505.484h-.667c-.545 0-.604.346-.604.498 0 .148.059.487.604.487h1.555c1.038 0 1.506-.396 1.506-1.276v-1.116H266c.354 0 .572-.177.572-.463 0-.305-.208-.485-.572-.485z"/></g><path fill="#221E1F" d="M302.757 14.656l-.05-.023c-2.804-1.274-4.245-3.308-4.733-4.129-1.017-1.718-1.483-4.274-1.483-5.918V.046h-2.127v3.935c0 3.784-.895 5.457-1.195 6.019-1.324 2.483-3.449 3.893-4.988 4.634l-.028.009c-.287.13-.512.231-.512.551 0 .299.261.51.504.51.326 0 5.375-1.753 7.314-6.271 1.85 4.792 7.192 6.253 7.249 6.253a.52.52 0 0 0 .505-.508c-.001-.309-.226-.416-.456-.522z"/><g fill="#221E1F"><path d="M247.633 5.197h-2.184c0 1.158-.175 2.655-.454 3.977-.332 1.585-.891 2.739-1.397 3.483-.277.346-.356.619-.205.843.077.118.209.185.383.195a.494.494 0 0 0 .361-.124c.702-.565 1.544-1.729 2.229-3.315.611-1.418 1.051-3.137 1.267-5.059z"/><path d="M251.457 3.269h-.767V.057h-1.986v3.211h-5.394v.995h5.394v9.749c0 .542-.106.639-.66.639h-1.338c-.513 0-.59.322-.59.508 0 .375.32.51.59.51h2.106c.924 0 1.878-.206 1.878-1.707V4.264h.767c.364 0 .584-.183.584-.489 0-.32-.22-.506-.584-.506zM242.546 14.592l-.044-.046c-.416-.524-.8-1.233-.833-2.549.646-.062 1.032-.304 1.032-1.167V1.766c0-1.011-.492-1.442-1.643-1.442h-4.466l.005.124.001 1.318v9.064c0 .805.327 1.079 1.022 1.161-.03 1.32-.412 2.031-.831 2.555l-.043.046c-.111.127-.282.293-.356.535a.476.476 0 0 0 .118.471c.114.096.328.166.64.023.402-.191.78-.547 1.159-1.077.374-.524.755-1.279.948-2.537h.779c.196 1.258.574 2.013.949 2.537.377.53.755.886 1.159 1.077.312.143.524.073.637-.023a.476.476 0 0 0 .12-.471c-.073-.242-.239-.408-.353-.535zm-4.03-3.895V8.613h2.266v2.084c0 .465-.043.56-.556.56h-1.153c-.511 0-.557-.095-.557-.56zm2.266-3.079h-2.266V4.973h2.266v2.645zm-.555-6.284c.513 0 .556.09.556.564v2.081h-2.266V1.334h1.71z"/></g><g fill="#221E1F"><path d="M272.673 2.107c.358.449.696 1.12.933 1.836l.032.08 1.95.006-.075-.174c-.626-1.433-1.499-2.514-2.458-3.063-.312-.122-.606-.093-.757.083-.084.104-.116.254-.084.442.052.291.326.628.459.79zM271.989 6.14c.358.447.705 1.12.938 1.834l.026.082 1.959.005-.074-.171c-.634-1.433-1.505-2.521-2.463-3.063-.318-.12-.611-.095-.751.079-.093.105-.123.256-.086.442.046.291.322.63.451.792zM275.009 8.969c-.18.12-.215.238-.274.445-.017.048-.03.097-.052.167-.351 1.521-2 4.289-3.531 5.913l-.197.208 2.569.002.039-.052c1.89-2.935 2.555-5.981 2.197-6.523a.535.535 0 0 0-.751-.16zM286.312 14.145l-1.404-2.102-.127-.183c-.27-.377-.719-1.02-1.202-1.02a.544.544 0 0 0-.183.03.381.381 0 0 0-.243.238c-.132.363.216.964.256 1.025l1.036 1.995c.078.132.098.236.057.31-.073.122-.301.19-.633.19h-4.412c-.326 0-.555-.068-.623-.19-.043-.073-.028-.177.039-.31l3.35-6.067h3.675c.533 0 .593-.345.593-.494 0-.15-.06-.506-.593-.506h-3.488V4.029h3.101c.514 0 .592-.308.592-.494 0-.148-.061-.504-.592-.504h-3.101V.048h-2.094V3.03h-3.692v.999h3.692v3.032h-4.083v1h3.833l-3.106 5.781c-.177.412-.15.872.079 1.208.177.272.555.594 1.374.594H285.058l-.004-.003c.709-.02 1.146-.183 1.342-.487.148-.253.131-.591-.084-1.009z"/></g><g fill="#221E1F"><path d="M367.752 1.592h1.292c.275 0 .397.057.519.542.617 2.464 2.698 2.793 2.729 2.802.005 0 .066.014.144.014a.566.566 0 0 0 .312-.082c.086-.054.187-.167.187-.383 0-.351-.477-.592-.531-.619-1.119-.512-1.396-1.872-1.396-1.88-.053-.873-.539-1.353-1.369-1.353l-3.374.005c0 2.193-.816 2.961-1.66 3.406v.85c2.099-.464 2.895-1.783 3.147-3.302z"/><path d="M371.059 5.17c0-.31-.206-.51-.533-.51h-4.128v1.023h4.128c.247.001.533-.133.533-.513zM368.268 14.333c.108-.15.076-.404-.07-.594-.374-.469-.671-.457-.671-1.185v-1.281h-1.639s.004.473.004.898c0 .431-.086.453-.315.896-.227.44-.826 1.117-1.243 1.494a.55.55 0 0 0-.188.387c0 .195.075.427.437.427.299 0 1.27-.682 2.125-1.694.374.467.821.707 1.094.77.183.044.344.028.466-.118zM358.524 10.482c-.132-.148-.332-.188-.479-.075-.11.079-.114.17-.118.293l-.003.087c.007.691-.374 1.877-.893 2.759l-.113.185.208.003s.493.009.815.009c.329 0 .363 0 .387-.09.505-1.475.456-2.886.196-3.171zM359.902 13.644c.258-1.533-.028-2.999-.347-3.242-.158-.124-.365-.116-.483.018-.095.098-.084.195-.068.308l.011.089c.126.646-.018 1.809-.351 2.761l-.05.168h1.273l.015-.102zM360.206 13.746l1.236-.001.006-.122c.058-1.594-.44-3.04-.802-3.236-.172-.091-.376-.052-.481.097-.076.114-.052.204-.02.316l.023.086c.211.606.236 1.72.062 2.712l-.024.148zM373.023 14.562c-.386-.347-.862-.846-1.129-1.326s-.338-.483-.338-.938v-1.025h-1.651v.979c0 .302.016.245-.224.751-.234.508-.868 1.154-1.32 1.558a.55.55 0 0 0-.183.387c0 .195.075.427.433.427.262 0 .967-.359 1.657-1.125.152-.154.318-.336.463-.506.146.17.238.352.387.502.692.77 1.401 1.129 1.657 1.129.362 0 .435-.232.435-.427a.54.54 0 0 0-.187-.386z"/><path d="M364.226 9.915c-.002-.093-.002-.155-.002-.198 0-.78-.555-1.251-1.476-1.251h-.154V6.87h.939c.357 0 .569-.189.569-.508 0-.315-.222-.514-.569-.514h-.939V4.256h.939c.357 0 .569-.191.569-.512 0-.315-.222-.512-.569-.512h-.939V1.635h1.176c.349 0 .565-.195.565-.51 0-.145-.058-.492-.565-.492h-5.643v7.321c0 .794.186 1.537 1.57 1.537h2.38c.215 0 .366.021.392.324.045.504.056 1.299.061 1.793-.316-.743-.697-1.26-.939-1.331-.188-.054-.297-.007-.364.163-.058.13-.015.211.041.315l.041.077c.336.573.591 1.732.594 2.761l.004.122.54.032c-.121.794-.409.835-.932.835h-1.094c-.261 0-.563.133-.563.51 0 .381.303.515.563.515h1.575c.932 0 1.671-.159 2.069-2.093.199-.928.172-2.923.161-3.599zm-3.254-1.449h-.587c-.512 0-.555-.093-.555-.578V6.87h1.142v1.596zm0-5.233h-1.146v1.023h1.146v1.592h-1.146c0-1.729-.004-4.19-.004-4.213h1.149v1.598zM370.286 10.769h.862c.936 0 1.35-.408 1.35-1.32V7.62c0-.901-.414-1.302-1.35-1.302h-2.204l-.003 3.131c0 .912.411 1.32 1.345 1.32zm.103-3.448h.453c.155 0 .202 0 .202.215V9.55c0 .193 0 .193-.456.193-.159 0-.199-.005-.199-.193V7.321zM364.968 6.317h-.009v3.131c0 .913.417 1.32 1.348 1.32h.798c.934 0 1.349-.408 1.349-1.32V7.62c0-.901-.415-1.302-1.349-1.302h-2.137zm2.053 3.233c0 .193 0 .193-.424.193-.161 0-.208-.005-.208-.193V7.321h.428c.145 0 .204.009.204.215V9.55z"/></g><path fill="#221E1F" d="M336.958 13.844c-.111-.089-.217-.19-.346-.276-.936-.633-2.304-1.846-3.122-4.415 1.847-.637 2.679-1.907 2.827-2.82l.025-.15h-2.154l-.023.1c-.138.571-.361 1.394-1 1.721-.14-.778-.288-2.231-.329-3.201h1.254c.37 0 .596-.206.596-.535 0-.334-.222-.531-.596-.531h-9.026v1.066h2.369c-.447.621-1.389 1.974-4.017 3.084-.138.066-.428.199-.428.541 0 .331.26.535.498.535.268 0 1.037-.315 1.738-.61.827-.344 2.058-1.19 3.092-1.949.093.117.179.236.308.438-1.977 2.279-4.53 3.492-5.464 3.833-.29.1-.419.261-.419.526 0 .29.229.535.509.535.304 0 3.703-1.098 6.144-3.19.058.168.101.328.165.571v.005a15.64 15.64 0 0 1-6.734 4.414c-.168.058-.505.174-.505.562 0 .308.245.515.476.515.233 0 3.963-.998 7.003-3.424.111 1.365-.165 2.655-.56 3.081-.258.265-.567.265-.904.265h-1.224c-.372 0-.596.204-.596.537 0 .392.32.535.596.535h2.401c1.503 0 2.297-1.218 2.297-3.519 0-2.771-.876-4.926-2.598-6.407.404-.347.602-.589.862-.877h.791c.508 4.201 1.701 6.475 2.909 7.881.944 1.101 2.222 1.972 2.936 2.162.264.071.492-.234.492-.528.001-.257-.16-.402-.243-.475z"/><g fill="#221E1F"><path d="M308.612 10.559h1.836c.644 0 1.306-.127 1.306-1.068V6.788c0-.945-.662-1.076-1.306-1.076h-3.173l.002.127s.009.188.009.948V9.49c0 .942.671 1.069 1.326 1.069zm.247-3.456l.003-.404h.913c.39 0 .424.032.424.399v2.079c0 .344-.032.404-.424.404h-.494c-.39 0-.422-.061-.422-.404V7.103z"/><path d="M317.436.283H304.64v13.461c0 .866.232 1.862 2.075 1.862h10.721c1.417 0 2.078-.592 2.078-1.862v-11.6c0-.802-.214-1.861-2.078-1.861zm.046 13.593c0 .619-.245.73-.762.73h-9.284c-.656 0-.764-.228-.764-.73V2.637l-.004-1.377 10.052.005c.583 0 .762.17.762.746v11.865z"/><path d="M311.7 11.799c0-.303-.213-.481-.57-.481h-3.853v.948h3.853c.348 0 .57-.179.57-.467z"/><path d="M315.243 5.978c-.096.866-.416 2.193-.988 3.265-.129-.778-.322-2.854-.329-4.638h2.512c.382 0 .606-.184.606-.497 0-.369-.327-.498-.606-.498h-.077c-.261-.664-.656-1.174-1.141-1.463a.727.727 0 0 0-.271-.054c-.261 0-.43.161-.44.417-.007.17.097.345.165.465a.672.672 0 0 1 .041.074c.093.204.155.374.217.562h-1.021l-.008-1.549-1.888.003V3.61h-4.845v.995h4.881c.079 2.947.394 4.412 1.027 6.327-.569.995-1.539 1.798-2.258 2.297l-.058.038c-.157.107-.354.238-.354.444 0 .336.24.406.44.406.365 0 1.852-.9 2.819-1.977.215.424.44.733.72 1.084.504.537.916.918 1.669.918h.292c.54 0 .601-.34.601-.481 0-.152-.061-.499-.601-.499h-.236c-.305 0-.658-.313-.895-.812-.004-.007-.376-.548-.526-1.235 1.156-1.363 2.036-3.265 2.354-5.084l.029-.138-1.816-.018-.015.103z"/></g><g fill="#221E1F"><path d="M422.424 5.489c0-.314-.213-.499-.563-.499h-4.253v.999h4.253c.35-.001.563-.191.563-.5zM413.314 6.364c.064-.2 1.236-3.535 1.316-3.782.079-.243.221-.707.231-.938.014-.343-.199-.909-1.101-.909h-4.054l-.006 13.667c0 .297-.134 1.204.791 1.204.895 0 .895-.907.895-1.204V2.299c0-.292.006-.472.009-.574h1.505c.093 0-.009.009.039.077.025.036.041.082.019.198-.021.118-1.156 3.43-1.192 3.571-.032.146-.108.453-.108.587 0 .208.001.381.141.596.219.349.877.848 1.214 1.506.597 1.175.572 2.331-.834 2.719-.256.074-.529.288-.533.626a.649.649 0 0 0 .598.651c.415.038 1.002-.185 1.27-.347.612-.367 1.399-1.097 1.399-2.238-.003-2.012-1.58-3.286-1.599-3.307z"/><path d="M423.999 8.77c.516 0 .569-.341.569-.49 0-.316-.212-.504-.739-.504h-8.532v.994h1.737c0 1.555-.052 2.507-.617 3.838-.544 1.281-1.907 2.052-2.015 2.109-.252.14-.315.267-.318.442-.013.288.218.437.439.437.387 0 1.532-.302 2.734-1.598 1.249-1.346 1.635-3.076 1.635-5.228h1.378v5.121c0 1.503.92 1.705 1.814 1.705h1.914c.263 0 .569-.132.569-.504 0-.193-.07-.506-.569-.506h-1.168c-.541 0-.639-.102-.639-.646l.003-5.169h1.805zM422.85 2.043h-1.95V0h-1.968v2.043h-3.636v2.979h1.83V3.65v-.592h4.65c.522 0 .908.113.908.592v.354c0 .333 0 1.226.941 1.226s.941-.839.941-1.243V3.65c.002-1.124-.512-1.607-1.716-1.607z"/></g><g fill="#221E1F"><path d="M394.568 2.451h2.529a5.35 5.35 0 0 1-.865 2.158 4.134 4.134 0 0 1-1.385 1.265c-.526.297-.757.344-.724.598.036.274.389.227.416.227.723-.039 1.579-.345 2.512-1.084 1.131-.891 1.66-2.295 1.858-3.163h2.103v2.882c0 .678.196 1.365 1.653 1.365h2.762c.55 0 .608-.325.612-.334.035-.168.009-.308-.09-.413-.116-.127-.332-.199-.633-.199h-1.926c-.534 0-.583-.095-.583-.544V2.451h1.851c.563 0 .65.086.65.621v.825c-.005.036-.067.961.673 1.133.104.046.271.055.358.055.472 0 1.03-.193 1.03-1.12v-.862c0-1.406-.955-1.602-1.89-1.602h-4.512V.014h-2.077v1.487h-6.395v3.557h2.062c.002 0 .005-2.501.011-2.607z"/><path d="M406.537 14.526h-1.267c-.557 0-.665-.107-.665-.66V9.688c0-.206-.083-.556-.354-.811-.265-.257-.66-.358-1.21-.358h-3.409c.146-.774.214-1.506.237-2.118h-2.146a15.417 15.417 0 0 1-.157 2.118h-4.165v1.022h3.971c-.231.938-.591 1.768-1.103 2.479-.789 1.095-1.793 1.932-3.104 2.542-.155.071-.604.197-.604.596 0 .216.172.458.516.447.357-.016 2.501-.53 4.466-2.641.951-1.021 1.514-2.24 1.85-3.424h2.854c.181 0 .301.095.324.234v4.04c0 1.535.955 1.745 1.886 1.745h2.082c.275 0 .593-.138.593-.519-.003-.196-.08-.514-.595-.514z"/></g><g fill="#221E1F"><path d="M390.074 6.38h-.924V1.653h.645c.365 0 .583-.191.583-.508s-.218-.512-.583-.512h-7.409v1.02h1.062V6.38h-1.458v1.021h1.458c-.006 1.847-.103 3.337-.466 4.453-.293.898-.64 1.666-1.27 2.356-.419.461-.58.571-.612.814-.032.247.157.571.483.571.279 0 .563-.183.97-.463.461-.32 1.185-1.104 1.708-1.975.593-.988 1.075-2.351 1.187-5.756h1.699v7.004c0 .991.541 1.201 1.001 1.201.459 0 1.003-.209 1.003-1.201V7.401h.924c.366 0 .583-.195.583-.508-.001-.381-.313-.513-.584-.513zm-2.928 0h-1.697V1.653h1.697V6.38z"/><path d="M381.522 12.692v-5.6c0-1.012-.492-1.453-1.64-1.453h-1.563c.326-1.009.814-2.671.948-4l1.896.016c.368 0 .591-.189.591-.51 0-.313-.228-.512-.591-.512h-5.713v1.021h1.509c-.079 4.079-1.159 6.147-2.097 8.078-.14.292-.351.515-.231.75.073.143.245.211.41.204.168-.007.676-.138 1.533-1.244v3.249c0 1.015.488 1.451 1.637 1.451h1.671c1.148.001 1.64-.435 1.64-1.45zm-1.761-.084c0 .461-.501.513-.956.513h.619c-.461 0-.973-.061-.973-.513V7.174c0-.265 0-.429.003-.53h.351c.447 0 .956.066.956.53v5.434z"/></g><path fill="#221E1F" d="M324.07 2.156h10.677c.524 0 .565.492.565.991v.414c0 .306 0 1.229 1.034 1.229.694 0 1.045-.414 1.045-1.229v-.947c0-1.041-.49-1.487-1.653-1.487h-5.021V.014h-2.051v1.113h-6.61v3.686h2.015V2.156z"/><g fill="#221E1F"><path d="M353.275 14.64c-.058-.009-.109-.016-.161-.027-.805-.163-1.6-.544-2.047-.944h1.042c1.155 0 1.647-.444 1.647-1.487V9.418c0-1.027-.506-1.483-1.647-1.483h-10.994v.129s.005.376.005 1.354v2.764c0 1.043.494 1.487 1.657 1.487h.776c-.455.4-1.006.782-1.806.944-.054.011-.105.018-.162.027-.372.066-.795.145-.78.501.018.292.207.465.519.465h.069c1.193 0 2.292-.326 3.004-.594 1.027-.388 1.586-.959 1.822-1.343h2.422c.24.384.795.955 1.823 1.343.718.269 1.812.594 3.006.594h.067c.313 0 .503-.174.518-.465.016-.356-.408-.434-.78-.501zm-1.562-3.494h-8.53v-.672h8.53v.672zm-8.532-2.238h8.017c.337 0 .419.055.458.112.049.075.058.306.058.528h-8.532v-.64zm.738 3.768c-.478 0-.735-.068-.736-.623h8.53c0 .555-.038.623-.516.623h-7.278zM355.021 4.659h-1.527v-.217c0-.301-.043-.549-.131-.753.15.159.381.274.74.274.468 0 1.019-.208 1.019-1.208v-.24c0-.907-.562-1.403-1.584-1.403h-5.118V0h-2.029v1.113h-6.641V3.94h1.628v.719h-2.129v.961h2.133v.288c0 1.038.497 1.483 1.652 1.483h8.807c1.161 0 1.653-.445 1.653-1.483V5.62h1.527c.372 0 .602-.163.602-.488 0-.309-.23-.473-.602-.473zm-4.006-.759c.531 0 .565.125.565.758h-3.219V3.9h2.654zm1.63-1.758c.361 0 .444.087.444.438v.175c0 .136 0 .397.097.642-.266-.301-.702-.437-1.346-.437h-10.084v-.818h10.889zm-9.3 1.758h3.106v.758h-3.106V3.9zm0 1.886V5.62h3.106v.827h-2.524c-.539-.001-.582-.165-.582-.661zm8.236 0c0 .512-.037.66-.565.66h-2.653V5.62h3.219v.166z"/></g><g><path fill="#C63529" d="M103.452 18.6c2.357 0 4.379-2.007 4.379-4.55 0-2.508-2.022-4.628-4.379-4.628-2.35 0-4.288 2.12-4.288 4.628.001 2.542 1.938 4.55 4.288 4.55z"/><path fill="#221E1F" d="M76.917 36.968l-1.267-3.705H65.458L60.991 51.37h13.322l-1.359-4.047-6.646.089 2.521-10.445h8.088zM56.53 51.371l4.389-18.025H56.12l-1.86 7.919-5.225-.088 1.933-7.913H46.26l-4.643 18.107h4.803l1.523-6.646h5.382l-1.26 6.646h4.465zm42.121-40.769l1.946-1.358C79.438-4.566 35.56 10.255 22.163 30.061h6.991c16.6-18.097 47.087-32.267 69.497-19.459zm8.51 9.359l-2.187.334c3.7 37.146-66.304 65.516-85.004 37.974l54.757-.512v-3.523l-63.775.173c.592 43.891 100.581 15.827 96.209-34.446zm-90.637 31.41l3.2-.084 5.312-18.023H20.57l-2.447 8.164-2.439-8.164h-4.381l-5.31 18.107 4.542-.084 2.611-9.098 3.378 9.182zm23.672-14.403l-1.265-3.705H28.81L24.268 51.37h13.305l-1.336-4.047-6.659.089 2.528-10.445h8.09z"/></g><g fill="#221E1F"><path d="M379.088 71.56a26.8 26.8 0 0 0-.071-2.252h1.939l.089 1.118h.054c.44-.592 1.245-1.294 2.745-1.294 1.17 0 2.086.562 2.469 1.403h.035a3.164 3.164 0 0 1 1.099-.948c.49-.295 1.056-.455 1.789-.455 1.485 0 2.984.855 2.984 3.283v4.461h-2.197v-4.182c0-1.26-.512-2.004-1.589-2.004-.769 0-1.338.465-1.574 1.008-.054.188-.11.42-.11.637v4.541h-2.193v-4.382c0-1.06-.49-1.804-1.535-1.804-.845 0-1.406.559-1.61 1.09a1.42 1.42 0 0 0-.125.621v4.475h-2.197V71.56zM442.559 76.584c-.53.234-1.7.471-3.178.471-3.915 0-6.291-2.083-6.291-5.271 0-3.449 2.816-5.535 6.577-5.535 1.481 0 2.544.266 3.006.465l-.497 1.523c-.587-.216-1.389-.406-2.412-.406-2.509 0-4.319 1.342-4.319 3.857 0 2.301 1.593 3.783 4.302 3.783.916 0 1.86-.16 2.451-.396l.361 1.509zM210.156 76.449c-.53.238-1.703.469-3.185.469-3.909 0-6.291-2.081-6.291-5.27 0-3.447 2.818-5.535 6.584-5.535 1.479 0 2.541.267 2.999.469l-.492 1.524c-.585-.22-1.392-.404-2.414-.404-2.506 0-4.315 1.335-4.315 3.854 0 2.3 1.591 3.776 4.296 3.776.914 0 1.864-.154 2.451-.391l.367 1.508zM213.103 73.515c.054 1.366 1.316 1.959 2.743 1.959 1.043 0 1.794-.126 2.471-.346l.327 1.32c-.767.27-1.827.469-3.107.469-2.89 0-4.591-1.51-4.591-3.823 0-2.097 1.501-4.072 4.353-4.072 2.887 0 3.839 2.019 3.839 3.684 0 .358-.038.638-.072.81h-5.963zm3.915-1.341c.018-.696-.349-1.849-1.848-1.849-1.389 0-1.977 1.074-2.066 1.849h3.914zM220.598 71.45c0-.874-.02-1.604-.075-2.256h1.977l.109 1.132h.056c.384-.59 1.353-1.304 2.833-1.304 1.555 0 3.164.854 3.164 3.249v4.49h-2.251v-4.273c0-1.088-.474-1.912-1.7-1.912-.896 0-1.515.545-1.755 1.119-.072.17-.091.408-.091.623v4.443h-2.267V71.45zM233.173 67.031v2.163h2.14v1.428h-2.14v3.339c0 .921.292 1.404 1.152 1.404.385 0 .676-.051.878-.096l.036 1.463c-.328.107-.915.186-1.626.186-.825 0-1.519-.23-1.938-.617-.476-.438-.694-1.123-.694-2.115v-3.563H229.7v-1.428h1.281v-1.71l2.192-.454zM238.218 73.515c.056 1.366 1.317 1.959 2.743 1.959 1.045 0 1.794-.126 2.469-.346l.329 1.32c-.768.27-1.827.469-3.108.469-2.889 0-4.589-1.51-4.589-3.823 0-2.097 1.501-4.072 4.353-4.072 2.886 0 3.836 2.019 3.836 3.684 0 .358-.036.638-.072.81h-5.961zm3.915-1.341c.018-.696-.347-1.849-1.844-1.849-1.392 0-1.977 1.074-2.07 1.849h3.914zM245.747 71.632c0-1.025-.018-1.757-.072-2.438h1.956l.072 1.445h.075c.438-1.073 1.481-1.617 2.431-1.617.22 0 .347.015.53.045v1.804a3.665 3.665 0 0 0-.657-.061c-1.081 0-1.812.59-2.011 1.445a2.746 2.746 0 0 0-.075.588v3.918h-2.249v-5.129zM273.248 71.613c0-1.027-.021-1.756-.074-2.439h1.953l.075 1.446h.075c.437-1.075 1.479-1.619 2.43-1.619.219 0 .348.015.533.046v1.805c-.186-.027-.383-.062-.658-.062-1.08 0-1.814.593-2.015 1.44a2.939 2.939 0 0 0-.071.594v3.918h-2.248v-5.129zM271.924 72.791c0 2.854-2.358 4.127-4.681 4.127-2.586 0-4.572-1.514-4.572-4 0-2.551 1.968-4.111 4.718-4.111 2.721-.001 4.535 1.626 4.535 3.984zm-6.871.078c0 1.503.858 2.635 2.266 2.635 1.31 0 2.229-1.104 2.229-2.665 0-1.21-.637-2.6-2.211-2.6-1.629 0-2.284 1.342-2.284 2.63zM257.555 76.742v-6.027h-1.336v-1.791h1.336v-.301c0-.945.277-1.982.938-2.623.599-.577 1.397-.783 2.086-.783.508 0 .909.08 1.231.16l-.095 1.869a2.504 2.504 0 0 0-.751-.111c-.768 0-1.09.621-1.09 1.389v.4h1.843v1.791h-1.827v6.027h-2.335zM372.769 71.749c0-1.03-.018-1.761-.071-2.44h1.957l.071 1.443h.075c.437-1.071 1.479-1.619 2.43-1.619.219 0 .348.021.533.049v1.804a3.584 3.584 0 0 0-.658-.063c-1.081 0-1.814.593-2.011 1.446-.04.173-.075.372-.075.593v3.916h-2.251v-5.129zM371.449 72.925c0 2.854-2.358 4.13-4.681 4.13-2.583 0-4.569-1.516-4.569-4.004 0-2.546 1.969-4.108 4.717-4.108 2.715 0 4.533 1.623 4.533 3.982zm-6.87.078c0 1.502.858 2.631 2.265 2.631 1.31 0 2.226-1.1 2.226-2.664 0-1.211-.633-2.596-2.207-2.596-1.629.001-2.284 1.34-2.284 2.629zM454.424 71.56c0-.869-.019-1.601-.072-2.252h1.937l.093 1.118h.054c.44-.592 1.245-1.294 2.744-1.294 1.171 0 2.083.562 2.47 1.403h.035a3.164 3.164 0 0 1 1.099-.948c.49-.295 1.062-.455 1.793-.455 1.478 0 2.977.855 2.977 3.283v4.461h-2.193v-4.182c0-1.26-.512-2.004-1.592-2.004-.766 0-1.331.465-1.571 1.008a2.29 2.29 0 0 0-.11.637v4.541h-2.194v-4.382c0-1.06-.49-1.804-1.534-1.804-.845 0-1.406.559-1.607 1.09-.1.183-.132.402-.132.621v4.475h-2.193V71.56zM452.857 72.925c0 2.854-2.361 4.13-4.684 4.13-2.588 0-4.569-1.516-4.569-4.004 0-2.546 1.968-4.108 4.716-4.108 2.716 0 4.537 1.623 4.537 3.982zm-6.878.078c0 1.502.863 2.631 2.27 2.631 1.312 0 2.229-1.1 2.229-2.664 0-1.211-.637-2.596-2.211-2.596-1.629.001-2.288 1.34-2.288 2.629zM357.079 76.876v-6.025h-1.338v-1.788h1.338v-.306c0-.943.279-1.984.938-2.623.602-.576 1.396-.783 2.09-.783.505 0 .905.082 1.228.158l-.094 1.872a2.465 2.465 0 0 0-.751-.11c-.766 0-1.092.624-1.092 1.39v.402h1.843v1.788h-1.828v6.025h-2.334zM419.615 76.649c-.472.187-1.402.388-2.519.388-2.773 0-4.58-1.502-4.58-3.848 0-2.264 1.825-4.031 4.945-4.031.826 0 1.66.156 2.172.354l-.401 1.431c-.364-.141-.895-.297-1.699-.297-1.71 0-2.733 1.074-2.716 2.451 0 1.552 1.188 2.438 2.716 2.438a5.05 5.05 0 0 0 1.774-.297l.308 1.411zM422.459 73.638c.058 1.367 1.317 1.955 2.737 1.955 1.042 0 1.793-.121 2.466-.338l.329 1.316c-.766.264-1.825.465-3.105.465-2.881 0-4.577-1.502-4.577-3.815 0-2.09 1.496-4.063 4.341-4.063 2.888 0 3.832 2.017 3.832 3.677 0 .354-.036.636-.071.804h-5.952zm3.909-1.332c.018-.699-.348-1.846-1.843-1.846-1.389 0-1.972 1.07-2.065 1.846h3.908zM518.95 69.041c-.032.467-.071 1.031-.071 1.986v3.914c0 1.447-.347 2.484-1.195 3.138-.854.637-2.025.833-3.142.833-1.034 0-2.136-.182-2.837-.551l.454-1.322c.516.26 1.385.526 2.369.526 1.334 0 2.333-.594 2.333-2.085v-.592h-.032c-.466.61-1.299 1.018-2.365 1.018-2.022 0-3.457-1.416-3.457-3.379 0-2.267 1.732-3.646 3.686-3.646 1.238 0 1.972.514 2.358 1.084h.028l.086-.924h1.785zm-2.121 2.765c0-.158-.015-.326-.064-.471-.219-.637-.802-1.117-1.668-1.117-1.155 0-2.004.854-2.004 2.255 0 1.179.701 2.126 1.982 2.126.77 0 1.438-.424 1.671-1.049.054-.183.083-.424.083-.623v-1.121zM308.633 69.041a26.137 26.137 0 0 0-.068 1.986v3.914c0 1.447-.347 2.484-1.202 3.138-.852.637-2.018.833-3.135.833-1.034 0-2.136-.182-2.837-.551l.45-1.322c.52.26 1.385.526 2.369.526 1.335 0 2.337-.594 2.337-2.085v-.592h-.036c-.465.61-1.299 1.018-2.369 1.018-2.018 0-3.452-1.416-3.452-3.379 0-2.267 1.738-3.646 3.688-3.646 1.234 0 1.969.514 2.354 1.084h.029l.082-.924h1.79zm-2.122 2.765c0-.158-.015-.326-.061-.471-.222-.637-.806-1.117-1.675-1.117-1.148 0-2 .854-2 2.255 0 1.179.701 2.126 1.985 2.126.766 0 1.438-.424 1.671-1.049.051-.183.079-.424.079-.623v-1.121zM283.539 66.136h2.115v10.74h-2.115zM291.404 66.136l-.007 10.74h2.144v-10.74zM328.564 71.64c0-1.019-.039-1.846-.075-2.577h2.021l.111 1.19h.039c.673-.875 1.739-1.373 3.127-1.373 2.098 0 3.84 1.531 3.84 3.954 0 2.81-2.079 4.163-4.154 4.163-1.145 0-2.101-.414-2.569-1.039h-.035v4.02h-2.305V71.64zm2.305 1.928c0 .193.014.367.071.548.226.792 1.048 1.364 2.025 1.364 1.46 0 2.322-1.033 2.322-2.562 0-1.371-.787-2.487-2.269-2.487-.956 0-1.836.591-2.062 1.447a1.662 1.662 0 0 0-.089.497v1.193zM469.313 71.64c0-1.019-.036-1.846-.075-2.577h2.021l.115 1.19h.035c.677-.875 1.743-1.373 3.128-1.373 2.097 0 3.843 1.531 3.843 3.954 0 2.81-2.083 4.163-4.161 4.163-1.142 0-2.098-.414-2.566-1.039h-.039v4.02h-2.301V71.64zm2.301 1.928c0 .193.018.367.079.548.222.792 1.048 1.364 2.018 1.364 1.464 0 2.326-1.033 2.326-2.562 0-1.371-.791-2.487-2.269-2.487-.952 0-1.836.591-2.062 1.447a1.671 1.671 0 0 0-.093.497v1.193zM311.042 65.562h2.322v4.621h.035a2.987 2.987 0 0 1 1.142-.891c.455-.223.995-.35 1.575-.35 1.556 0 3.181.875 3.181 3.363v4.57h-2.301v-4.35c0-1.133-.486-1.975-1.761-1.975-.898 0-1.535.51-1.782 1.096-.071.162-.089.369-.089.593v4.636h-2.322V65.562zM298.839 66.953c0 .588-.504 1.046-1.312 1.046-.767 0-1.274-.458-1.274-1.046 0-.607.529-1.07 1.296-1.07.786-.001 1.273.462 1.29 1.07zm-2.454 9.923v-7.762h2.322v7.762h-2.322z"/><path d="M298.839 66.953c0 .588-.504 1.046-1.312 1.046-.767 0-1.274-.458-1.274-1.046 0-.607.529-1.07 1.296-1.07.786-.001 1.273.462 1.29 1.07zm-2.454 9.923v-7.762h2.322v7.762h-2.322zM499.298 66.953c0 .588-.505 1.046-1.313 1.046-.766 0-1.273-.458-1.273-1.046 0-.607.526-1.07 1.292-1.07.789-.001 1.273.462 1.294 1.07zm-2.454 9.923v-7.762h2.322v7.762h-2.322zM130.393 76.55V65.812h2.619l3.261 4.605a27.887 27.887 0 0 1 2.154 3.602h.04c-.152-1.434-.208-2.82-.208-4.462v-3.745h2.134V76.55h-2.379l-3.296-4.716c-.803-1.175-1.647-2.501-2.265-3.712l-.058.014c.095 1.389.111 2.807.111 4.576v3.838h-2.113zM154.467 66.576v2.219h2.188v1.466h-2.188v3.425c0 .94.295 1.434 1.179 1.434.39 0 .694-.046.898-.096l.036 1.499c-.334.11-.934.188-1.666.188-.845 0-1.555-.236-1.982-.634-.488-.449-.712-1.149-.712-2.169V70.26h-1.315v-1.466h1.315v-1.758l2.247-.46zM160.442 66.625c0 .589-.506 1.053-1.312 1.053-.768 0-1.274-.464-1.274-1.053 0-.608.522-1.07 1.293-1.07.787-.001 1.272.461 1.293 1.07zm-2.454 9.925v-7.756h2.322v7.756h-2.322zM171.122 72.602c0 2.853-2.362 4.126-4.682 4.126-2.585 0-4.571-1.516-4.571-3.997 0-2.552 1.968-4.113 4.72-4.113 2.713 0 4.533 1.624 4.533 3.984zm-6.874.079c0 1.497.861 2.631 2.265 2.631 1.312 0 2.229-1.104 2.229-2.664 0-1.213-.635-2.594-2.211-2.594-1.629 0-2.283 1.336-2.283 2.627zM172.705 71.103c0-.893-.018-1.643-.073-2.309h2.022l.114 1.16h.054c.394-.604 1.387-1.337 2.904-1.337 1.592 0 3.24.873 3.24 3.331v4.602h-2.303v-4.379c0-1.117-.487-1.961-1.743-1.961-.919 0-1.557.562-1.798 1.148-.077.175-.095.413-.095.637v4.555h-2.322v-5.447zM192.236 65.238h2.321V76.55h-2.321V65.238zM189.371 76.082c-.667.455-1.906.789-2.839.795a8.006 8.006 0 0 1-1.335-.094c-1.93-.287-2.759-1.252-2.759-2.361 0-1.961 2.09-2.955 5.541-2.938v-.125c0-.508-.25-1.354-1.9-1.354-.92 0-1.879.237-2.51.574l-.46-1.276c.687-.354 1.895-.685 3.373-.685 2.99 0 3.854 1.579 3.854 3.267v2.033c-.002.837-.261 1.681-.965 2.164zm-1.337-3.319c-1.667-.032-3.301.267-3.301 1.445 0 .766.621 1.122 1.385 1.122.939 0 1.34-.341 1.56-.567.222-.23.356-.647.356-1.027v-.973zM149.031 76.082c-.667.455-1.907.789-2.839.795a8.001 8.001 0 0 1-1.334-.094c-1.932-.287-2.761-1.252-2.761-2.361 0-1.961 2.09-2.955 5.542-2.938v-.125c0-.508-.25-1.354-1.898-1.354-.921 0-1.88.237-2.514.574l-.458-1.276c.689-.354 1.898-.685 3.373-.685 2.991 0 3.855 1.579 3.855 3.267v2.033c.001.837-.259 1.681-.966 2.164zm-1.336-3.319c-1.667-.032-3.301.267-3.301 1.445 0 .766.619 1.122 1.383 1.122.939 0 1.342-.341 1.562-.567.224-.23.356-.647.356-1.027v-.973zM284.609 70.765h7.858v1.482h-7.858zM238.218 73.515c.056 1.366 1.317 1.959 2.743 1.959 1.045 0 1.794-.126 2.469-.346l.329 1.32c-.768.27-1.827.469-3.108.469-2.889 0-4.589-1.51-4.589-3.823 0-2.097 1.501-4.072 4.353-4.072 2.886 0 3.836 2.019 3.836 3.684 0 .358-.036.638-.072.81h-5.961zm3.915-1.341c.018-.696-.347-1.849-1.844-1.849-1.392 0-1.977 1.074-2.07 1.849h3.914z"/><g><path d="M341.288 73.65c.054 1.365 1.313 1.959 2.737 1.959 1.045 0 1.797-.129 2.473-.345l.329 1.32c-.769.269-1.828.471-3.109.471-2.891 0-4.587-1.509-4.587-3.825 0-2.097 1.496-4.074 4.351-4.074 2.888 0 3.84 2.023 3.84 3.686 0 .356-.036.636-.075.809h-5.959zm3.908-1.336c.021-.701-.344-1.85-1.843-1.85-1.393 0-1.976 1.071-2.065 1.85h3.908zM348.813 71.767c0-1.025-.018-1.756-.071-2.438h1.957l.071 1.443h.072c.439-1.072 1.484-1.617 2.433-1.617.222 0 .348.018.529.051v1.8a3.72 3.72 0 0 0-.654-.063c-1.081 0-1.814.593-2.015 1.446a2.88 2.88 0 0 0-.075.594v3.915h-2.247v-5.131z"/></g><path d="M400.382 76.082c-.673.455-1.907.789-2.841.795a8.013 8.013 0 0 1-1.335-.094c-1.933-.287-2.763-1.252-2.763-2.361 0-1.961 2.09-2.955 5.543-2.938v-.125c0-.508-.251-1.354-1.896-1.354-.923 0-1.882.237-2.512.574l-.462-1.276c.69-.354 1.896-.685 3.374-.685 2.992 0 3.854 1.579 3.854 3.267v2.033c.001.837-.257 1.681-.962 2.164zm-1.338-3.319c-1.668-.032-3.303.267-3.303 1.445 0 .766.622 1.122 1.385 1.122.938 0 1.342-.341 1.56-.567.222-.23.358-.647.358-1.027v-.973zM402.93 71.103c0-.893-.019-1.643-.075-2.309h2.021l.111 1.16h.057c.397-.604 1.389-1.337 2.905-1.337 1.593 0 3.238.873 3.238 3.331v4.602h-2.304v-4.379c0-1.117-.487-1.961-1.739-1.961-.92 0-1.557.562-1.8 1.148-.075.175-.093.413-.093.637v4.555h-2.322v-5.447zM501.474 71.103c0-.893-.021-1.643-.079-2.309h2.025l.107 1.16h.061c.394-.604 1.385-1.337 2.906-1.337 1.585 0 3.234.873 3.234 3.331v4.602h-2.301v-4.379c0-1.117-.486-1.961-1.742-1.961-.916 0-1.554.562-1.797 1.148-.078.175-.093.413-.093.637v4.555h-2.322v-5.447zM488.027 74.068c0 .891.019 1.641.075 2.309h-2.025l-.11-1.164h-.058c-.394.608-1.389 1.338-2.901 1.338-1.593 0-3.242-.873-3.242-3.329v-4.604h2.305V73c0 1.116.486 1.959 1.742 1.959.916 0 1.553-.555 1.796-1.145.075-.178.094-.416.094-.641v-4.556h2.325v5.451zM492.955 67.031v2.163h2.144v1.428h-2.144v3.339c0 .921.293 1.404 1.155 1.404.387 0 .677-.051.877-.096l.036 1.463c-.329.107-.913.186-1.625.186-.823 0-1.521-.23-1.939-.617-.479-.438-.697-1.123-.697-2.115v-3.563h-1.277v-1.428h1.277v-1.71l2.193-.454zM325.705 71.875v1.615h-4.021v-1.615h4.021z"/></g><g><g fill="#221E1F"><path d="M234.324 29.077h-13.033v-2.709h-4.197v2.709h-14.023v2.048h31.252c.281 0 .984-.25.984-1.034.001-.779-.703-1.014-.983-1.014zM230.538 43.858h-26.525V59.11h4.097V45.907h20.41c1.403 0 1.644.447 1.644 1.759v7.595c0 1.356-.241 1.77-1.644 1.77h-1.458c-.308 0-1.083.194-1.083 1.06 0 .861.807 1.021 1.083 1.021h3.476c2.165 0 3.712-.666 3.712-3.444v-8.262c0-2.576-1.12-3.548-3.712-3.548zM226.126 41.125c1.683 0 2.979-.483 2.979-2.739v-1.563c0-2.172-1.188-2.693-2.979-2.693h-16.82v4.256c0 2.177 1.188 2.739 3.013 2.739h13.807zm-12.723-4.951h10.86c.646 0 .748.132.748.878v1.15c0 .751-.059.873-.748.873h-10.06c-.758 0-.8-.089-.8-.873v-2.028z"/><path d="M226.146 50.975c0-1.792-.596-2.993-3.194-2.993h-10.72v5.164c0 1.902.705 2.961 3.188 2.961h7.532c2.253 0 3.194-.787 3.194-2.961v-2.171zm-3.65 1.641c0 1.161-.2 1.427-1.324 1.427h-3.956c-1.125 0-1.337-.266-1.337-1.427v-2.591h5.292c1.124 0 1.324.272 1.324 1.432v1.159z"/></g><g fill="#221E1F"><path d="M270.3 57.064h-15.083c-3.807 0-8.946-.971-8.935-4.666v-8.726c0-1.871-.699-2.956-3.188-2.956h-3.992v2.045h2.133c1.265 0 1.471.338 1.471 1.571v8.026c0 1.983-2.113 3.069-3.103 3.533-1.77.835-.876 3.907 1.045 3.084 1.324-.574 2.512-1.609 3.745-3.288 2.453 3.433 4.968 3.423 9.461 3.423H270.3c.314 0 1.244 0 1.244-1.021 0-.978-.912-1.025-1.244-1.025zM242.149 34.984h4.319c-.433-3.391-4.373-7.605-6.366-8.116-.431-.12-.796.414-.796.823 0 .218.068.406.249.671 1.048 1.717 2.061 3.232 2.594 6.622z"/><path d="M257.394 35.158h-7.634v6.067c0 1.905.725 2.997 3.179 2.997h2.979c-1.939 4.548-5.358 7.007-7.323 8.543-.279.22-.562.406-.562.862 0 .486.349.861.772.861.417 0 4.775-1.396 8.588-6.373v6.189c0 1.121.626 2.233 2.095 2.233 1.542 0 2.113-1.263 2.113-2.233V47.63c3.33 4.936 7.563 6.79 8.265 6.79.348 0 .766-.344.766-.862 0-.417-.279-.649-.522-.832-3.223-2.731-5.819-5.7-6.832-8.504h2.836c2.206 0 3.193-.832 3.193-2.997v-3.106c0-1.907-.705-2.961-3.193-2.961h-4.513v-2.862h8.876c.283 0 .98-.245.98-1.023 0-.782-.697-1.022-.98-1.022H261.601v-3.399h-4.208v3.399h-9.772v2.045h9.772v2.862zm0 7.013h-2.705c-1.256 0-1.467-.306-1.467-1.574v-3.396H257.394v4.97zm4.208-4.97h2.725c1.195 0 1.44.298 1.44 1.567v1.829c0 1.269-.145 1.574-1.44 1.574h-2.725v-4.97z"/></g><g fill="#221E1F"><path d="M339.799 46.028h-11.143v9.978c0 2.247.912 3.14 3.436 3.14h7.707c2.215 0 3.438-.631 3.438-3.14v-6.792c.001-2.25-.915-3.186-3.438-3.186zm-.755 9.352c0 1.387-.247 1.723-1.578 1.723h-2.998c-1.328 0-1.614-.301-1.614-1.691v-7.336h4.612c1.299 0 1.578.223 1.578 1.685v5.619zM325.541 52.992c-.318.095-1.514.467-3.253.881v-7.026h2.798c.276 0 .98-.25.98-1.027 0-.783-.704-1.02-.98-1.02h-1.42c-.029 0-.051-.005-.079-.005h-1.299v-5.067c2.479 0 3.253-.979 3.253-2.958v-6.28c0-1.802-.595-2.963-3.185-2.963h-8.059v9.242c0 1.906.694 2.958 3.185 2.958h1.475v14.832c-.58.102-1.195.198-1.825.282V42.098h-2.834v13.06c-.482.035-.955.064-1.435.083v3.819s10.055-2.674 13.297-4.505c.779-.399.644-.653.54-1.165-.101-.519-.391-.619-1.159-.398zm-4.664-15.317h-1.817c-1.224 0-1.481-.257-1.481-1.571V29.57h3.299c1.235 0 1.479.301 1.479 1.569v4.964c-.001 1.314-.244 1.572-1.48 1.572zM343.431 43.318c-.708-.324-2.998-1.25-5.768-3.446 2.451-2.147 4.741-4.951 5.957-8.443l.047-.37c0-.156 0-1.949-2.308-1.949h-7.271c.312-.637.69-1.583.69-1.583h-4.497s-.462 3.761-2.602 7.274c-.254.406-1.542 2.288-1.542 2.659 0 .486.343.857.801.857.537 0 1.872-1.293 3.117-2.85.598.803 1.85 2.335 3.922 4.09-1.618 1.457-3.747 2.999-6.534 4.53-.548.211-.772.864-.619 1.156.154.279.519.728 1.31.397.437-.186 4.137-1.608 7.919-4.451 1.42 1.095 3.789 2.514 4.437 2.843.648.338 2.562 1.165 3.103 1.324.551.158 1.224.462 1.518-.384.339-.965-.96-1.337-1.68-1.654zm-7.715-5.489c-1.234-1.523-2.673-3.015-3.424-5.407.347-.501.934-1.261.934-1.261h5.139c.15 0 .744 0 .744.601-.039.283-.43 2.787-3.393 6.067z"/></g><path fill="#221E1F" d="M450.477 51.015h-7.872v-2.412h1.671c2.169 0 3.472-.783 3.472-3.326v-8.482c0-1.559-.469-2.518-1.479-2.982-.501-1.331-1.656-2.833-2.236-3.526h6.087c.275 0 .973-.238.973-1.025s-.697-1.021-.973-1.021h-9.332c.196-.31.58-.614.92-1.312h-4.237c-.383 1.483-1.277 3.31-3.013 5.16-.279.288-.454.551-.454.815 0 .202.064.399.183.56h-2.098c-.551-1.236-1.549-2.553-2.075-3.177h3.657c.286 0 .984-.238.984-1.025s-.698-1.021-.984-1.021h-6.888c.192-.31.572-.614.908-1.312h-4.387c-.662 1.915-1.768 4.019-3.739 6.101-.279.3-.458.567-.458.83 0 .444.315.852.766.852.516 0 2.938-1.562 5.75-4.424h1.557c.533.807 1.066 2.383 1.317 3.177h-5.475v11.813c0 2.319.98 3.326 3.475 3.326h1.628v2.412h-8.828v2.053h8.635c-.394 1.141-1.51 2.504-3.982 3.496-.787.309-1.965.639-2.784.806-.794.165-1.138.313-1.199.827-.061.484.319.906.978.932.727.043 9.317-.08 11.117-6.061h6.355v3.614c0 1.114.472 2.454 2.114 2.454 1.89 0 2.075-1.938 2.075-2.454V53.07h7.872c.275 0 .978-.252.978-1.031-.001-.788-.704-1.024-.979-1.024zm-10.849-20.729h1.563c.537.807 1.08 2.383 1.338 3.177h-6.852c.838-.417 2.152-1.338 3.951-3.177zm-12.409 5.226h14.853c1.228 0 1.475.531 1.475 1.766v.614H427.22v-2.38zm0 4.367h16.327v2.336h-16.327v-2.336zm11.197 11.136h-6.098v-.023-2.389h6.098v2.412zm3.656-4.452h-13.386c-1.228 0-1.467-.376-1.467-1.287V44.16h16.327v.875c0 1.231-.247 1.528-1.474 1.528z"/><g fill="#221E1F"><path d="M276.036 55.222c-.144.555-.472 1.271-.472 1.568 0 .412 0 .824.611.824.311 0 .525-.256.701-.527 1.503-2.403 2.694-6.838 2.694-9.717h-2.659a25.177 25.177 0 0 1-.875 7.852zM297.548 36.879c-.086-1.451-2.523-4.967-3.571-5.346-.526-.206-.948.521-.533 1.173.647 1.05 1.155 2.913 1.46 4.172l2.644.001zM299.026 36.444c-.243.725.347.971.823.799.819-.293 3.521-3.056 3.338-5.71h-2.766s.207.588-.361 2.655c-.222.807-.948 1.975-1.034 2.256zM302.793 54.363c0-.738-.694-1.01-.974-1.01h-2.525c-1.224 0-1.438-.336-1.438-1.565v-5.174h3.964c.279 0 .974-.254.974-1.038 0-.787-.694-1.016-.974-1.016h-2.25v-4.693h2.25c.279 0 .974-.249.974-1.042 0-.782-.694-1.007-.974-1.007h-8.233v2.048h2.928v4.693h-2.928v2.054h1.342v5.82c0 2.262 1.01 2.971 3.117 2.971h3.675c.321 0 1.072-.211 1.072-1.041zM285.361 47.261c-.387 0-.58.372-.58.791 0 .332 1.131 3.688.623 9.562 1.119.028 1.116-.034 2.662 0 0-3.922-1.17-8.729-2.008-9.871-.204-.274-.387-.482-.697-.482z"/><path d="M303.917 27.527h-15.011v31.584h3.718V29.599h9.683c1.331 0 1.61.617 1.61 1.721v24.022c0 1.349-.279 1.722-1.61 1.722h-1.363c-.551 0-.984.277-.984 1.025 0 .74.419 1.021.984 1.021h2.974c2.601 0 3.721-.973 3.721-3.556V31.081c-.001-2.96-1.55-3.554-3.722-3.554zM284.806 39.151c-.395 0-.744.336-.744.818 0 .234.314.682.562 2.048-2.741.124-3.095.158-3.754.19 3.321-3.661 7.265-10.396 7.265-10.396h-3.704s-1.313 2.952-1.603 3.435c-.318-.521-1.428-1.336-2.137-1.902 1.228-1.422 2.934-4.383 3.421-6.414h-3.575c-.307 1.354-.301 3.002-1.527 5.219-.451-.259-1.535-.987-1.926-1.021-.418-.034-.88.302-.88.794 0 .413.172.592.419.817 1.441 1.347 3.957 4.757 4.348 5.579-.348.594-.98 1.539-2.759 3.966-1.31.179-2.216.143-2.216.143v3.036s3.711-.483 4.384-.594l.2-.04v12.132c0 .535.019 2.135 1.528 2.135 1.517 0 1.517-1.526 1.517-2.126V44.214l.201-.052c.504-.138.869-.273 1.252-.388.133.419.161.684.161.684s1.06.005 1.907 0h1.185c-.935-3.851-2.953-5.307-3.525-5.307z"/></g><g fill="#221E1F"><path d="M380.509 48.203h-1.3V30.197c.025-1.677-1.23-2.766-2.737-2.766h-5.914v1.719h3.421c.701 0 1.08.449 1.059 1.156v3.61h-3.986v2.056h3.986v4.877h-3.986v2.048h3.986v5.305h-5.868v-9.397c0-1.753-1.049-2.583-2.666-2.583h-1.084c-.977 0-.977-.68-.977-1.05v-2.003h3.922c.282 0 .987-.242.987-1.029 0-.784-.705-1.021-.987-1.021h-3.922v-3.688h-3.436v8.155c0 .934.562 2.361 2.627 2.361h1.155c.701 0 .98.299.98 1.05v9.206h-1.921v-8.797h-2.842v8.797h-6.555v-5.305h3.492c.271 0 .973-.249.973-1.032 0-.787-.701-1.016-.973-1.016h-3.492v-4.877h3.492c.271 0 .973-.245.973-1.034 0-.782-.701-1.021-.973-1.021h-3.492v-3.61c-.032-.707.347-1.156 1.056-1.156h3.409v-1.719h-5.903c-1.511 0-2.773 1.089-2.734 2.766v18.006h-1.961v2.037h32.212c.286 0 .987-.245.987-1.018.001-.791-.7-1.021-1.008-1.021zM350.309 57.359c-.365.15-.705.441-.705.924 0 .494.547.835 1.174.749 6.215-.835 10.931-5.825 11.25-7.44h-4.863c-1.285 3.14-4.03 4.587-6.856 5.767zM379.2 57.386c-3.124-1.752-5.84-3.568-6.828-5.762h-4.974c1.436 3.954 9.106 7.414 11.59 7.486.522.014.806-.442.806-.857-.001-.378-.248-.672-.594-.867z"/></g><g fill="#221E1F"><path d="M415.758 37.82h-5.046V26.948h-3.903V37.82h-6.638v1.907h6.638v16.978c0 .73.189 2.431 1.979 2.431 1.764 0 1.925-1.746 1.925-2.431V39.727h5.046c.265 0 .908-.225.908-.959 0-.733-.644-.948-.909-.948zM397.756 29.007c0-.728-.651-.943-.906-.943h-10.391v1.904h10.391c.255 0 .906-.231.906-.961zM398.118 32.827h-13.025v1.898h13.025c.261 0 .919-.232.919-.952 0-.727-.659-.946-.919-.946zM397.756 38.675c0-.727-.651-.941-.906-.941h-10.391v1.906h10.391c.255 0 .906-.235.906-.965zM386.459 44.551h10.391c.255 0 .906-.229.906-.959 0-.727-.651-.943-.906-.943h-10.391v1.902zM395.63 47.488h-9.296V55.4c0 1.63.522 2.75 2.931 2.75h6.365c2.021 0 2.974-.764 2.974-2.75v-5.16c0-1.843-.755-2.752-2.974-2.752zm-.844 7.59c0 1.163-.161 1.477-1.334 1.477h-1.937c-1.177 0-1.366-.313-1.366-1.477v-5.982h3.303c1.138 0 1.334.271 1.334 1.426v4.556z"/></g><path fill="#221E1F" d="M198.345 55.449c-.229-.19-.458-.403-.721-.58-1.972-1.332-4.85-3.879-6.566-9.291 3.882-1.331 5.628-4.004 5.943-5.922l.052-.319h-4.528l-.048.209c-.293 1.197-.762 2.931-2.102 3.621-.297-1.642-.608-4.693-.69-6.734h2.633c.773 0 1.249-.431 1.249-1.12 0-.703-.463-1.118-1.249-1.118h-18.979v2.238h4.982c-.943 1.306-2.916 4.152-8.446 6.491-.293.14-.898.415-.898 1.129 0 .7.541 1.127 1.04 1.127.569 0 2.192-.656 3.666-1.275 1.732-.73 4.323-2.5 6.495-4.104a8.6 8.6 0 0 1 .642.923c-4.149 4.8-9.52 7.342-11.482 8.057-.61.213-.88.553-.88 1.104 0 .613.487 1.127 1.066 1.127.639 0 7.786-2.307 12.917-6.702.122.349.214.689.351 1.193l.003.014c-3.773 4.206-8.52 7.393-14.163 9.286-.351.114-1.064.365-1.064 1.178 0 .644.521 1.084 1.007 1.084.479 0 8.328-2.096 14.721-7.194.229 2.864-.351 5.577-1.177 6.466-.54.565-1.2.565-1.896.565h-2.58c-.782 0-1.247.423-1.247 1.126 0 .822.671 1.119 1.247 1.119h5.054c3.154 0 4.825-2.559 4.825-7.395 0-5.827-1.843-10.352-5.468-13.472.854-.728 1.267-1.238 1.821-1.846h1.664c1.057 8.838 3.575 13.623 6.113 16.574 1.988 2.317 4.673 4.146 6.176 4.549.551.148 1.041-.5 1.041-1.113 0-.538-.353-.846-.524-.995z"/><g fill="#221E1F"><path d="M138.746 48.541h3.854c1.36 0 2.753-.269 2.753-2.254V40.61c0-1.984-1.394-2.258-2.753-2.258h-6.663l.005.266s.018.389.018 1.992v5.677c0 1.985 1.408 2.254 2.786 2.254zm.513-7.268l.005-.852h1.927c.811 0 .889.068.889.843v4.367c0 .721-.068.846-.889.846h-1.04c-.825 0-.893-.125-.893-.846v-4.358z"/><path d="M157.299 26.928h-26.906v28.308c0 1.818.496 3.91 4.363 3.91h22.543c2.982 0 4.371-1.24 4.371-3.91V30.839c-.001-1.682-.455-3.911-4.371-3.911zm.098 28.583c0 1.306-.519 1.535-1.604 1.535h-19.518c-1.379 0-1.61-.477-1.61-1.535V31.885l-.005-2.902 21.133.009c1.226 0 1.604.365 1.604 1.569v24.95z"/><path d="M145.237 51.145c0-.637-.449-1.015-1.201-1.015h-8.094v1.994h8.094c.737.001 1.201-.373 1.201-.979z"/><path d="M152.688 38.906c-.202 1.818-.875 4.614-2.077 6.867-.275-1.639-.682-5.999-.694-9.752h5.287c.798 0 1.272-.392 1.272-1.046 0-.775-.689-1.047-1.272-1.047h-.161c-.554-1.397-1.381-2.463-2.406-3.079a1.623 1.623 0 0 0-.567-.109c-.551 0-.909.338-.929.876-.014.354.208.73.351.977.036.062.07.114.088.156.191.424.322.782.453 1.179h-2.147l-.011-3.252-3.979.003v3.249h-10.189v2.093h10.27c.165 6.194.828 9.273 2.154 13.302-1.186 2.094-3.233 3.779-4.745 4.829l-.12.083c-.336.223-.744.5-.744.934 0 .701.504.848.925.848.774 0 3.893-1.891 5.929-4.156.449.9.932 1.539 1.51 2.279 1.063 1.131 1.934 1.931 3.51 1.931h.614c1.143 0 1.269-.714 1.269-1.013 0-.32-.125-1.051-1.269-1.051h-.492c-.647 0-1.381-.656-1.887-1.708a8.421 8.421 0 0 1-1.103-2.593c2.432-2.869 4.276-6.861 4.954-10.691l.056-.293-3.818-.039-.032.223z"/></g><path fill="#221E1F" d="M171.245 30.866h22.454c1.097 0 1.186 1.036 1.186 2.084v.875c0 .643 0 2.582 2.172 2.582 1.465 0 2.205-.868 2.205-2.582V31.83c0-2.188-1.036-3.125-3.478-3.125H185.22v-2.337h-4.308v2.337h-13.9v7.745h4.233v-5.584z"/><g fill="#221E1F"><path d="M512.578 57.196h-9.798c-1.327 0-1.643-.372-1.643-1.768V34.463h-3.871v21.302c0 2.583 1.08 3.522 3.664 3.522h11.647c1.549 0 2.479 0 2.479-1.118.001-1.089-1.151-.973-2.478-.973zM493.126 38.348c-.559.016-1.013.533-1.103 1.503-.154 1.814-.587 3.913-1.518 6.638-.876 2.551-2.39 5.39-3.456 7.123h4.802c.29-.697 1.324-3.883 1.843-6.505.49-2.539.862-6.062.72-7.364-.136-1.256-.733-1.411-1.288-1.395zM517.655 41.2c-1.668-2.303-2.952-3.716-3.943-3.87-.604-.104-1.08.226-1.037.902.035.571.533 1.22.869 1.823 1.57 2.75 2.963 6.285 3.178 10.451h4.723c-.169-3.139-1.833-6.605-3.79-9.306zM498.49 28.617c3.797 1.39 5.933 4.516 6.945 6.225h5.053c-.766-2.119-5.225-7.38-11.865-7.949-.376-.034-.795.336-.795.859 0 .527.329.743.662.865zM480.724 32.252h-8.838v-5.36h-4.219v5.36H454.706v12.566c0 3.06 1.26 3.952 4.133 3.952h8.828v7.956c0 1.023.207 2.561 2.097 2.561 1.925 0 2.122-1.583 2.122-2.561V48.77h8.838c2.483 0 4.133-.604 4.133-3.952v-8.607c0-3.089-1.335-3.959-4.133-3.959zm-13.057 14.789h-6.921c-1.159 0-1.817-.34-1.817-1.952V33.995h8.738v13.046zm12.967-1.952c0 1.725-.802 1.952-1.821 1.952h-6.927V33.995h6.927c1.442 0 1.821.633 1.821 1.954v9.14z"/></g></g></svg>