<svg xmlns="http://www.w3.org/2000/svg" width="293.431" height="292.93" viewBox="0 0 293.431 292.93"><path fill="#121B3D" d="M-.499-.5h293.93v293.93H-.499z"/><path fill="#6FC092" d="M248.456 186.592h33.59v8.574h-33.59z"/><path fill="#FFF" d="M57.901 172.995c2.819 0 4.874-.338 6.168-1.013 1.29-.675 1.938-1.836 1.938-3.48 0-1.527-.691-2.789-2.07-3.789-1.381-.997-3.655-2.083-6.828-3.259-1.938-.705-3.715-1.454-5.33-2.247s-3.01-1.718-4.185-2.775a11.35 11.35 0 0 1-2.774-3.832c-.676-1.498-1.014-3.333-1.014-5.506 0-4.229 1.557-7.561 4.67-10 3.112-2.436 7.341-3.656 12.686-3.656 2.701 0 5.287.251 7.753.75 2.467.499 4.316.983 5.551 1.453l-1.939 8.633c-1.175-.529-2.673-1.013-4.492-1.453-1.821-.44-3.936-.661-6.344-.661-2.173 0-3.935.367-5.286 1.101-1.351.735-2.025 1.866-2.025 3.392 0 .764.132 1.44.396 2.026.266.588.72 1.132 1.366 1.631s1.498.998 2.555 1.496c1.058.501 2.349 1.014 3.877 1.543 2.524.94 4.67 1.865 6.431 2.775 1.763.911 3.216 1.937 4.36 3.083a10.548 10.548 0 0 1 2.512 3.921c.529 1.468.793 3.23.793 5.285 0 4.406-1.63 7.739-4.891 10-3.259 2.261-7.914 3.392-13.963 3.392-4.053 0-7.312-.338-9.778-1.014-2.468-.674-4.2-1.218-5.198-1.63l1.85-8.898c1.586.647 3.48 1.264 5.684 1.851 2.198.588 4.709.881 7.527.881M129.701 179.25c-2.058.528-4.729 1.072-8.018 1.631-3.29.557-6.901.836-10.836.836-3.7 0-6.799-.528-9.295-1.586-2.497-1.057-4.493-2.524-5.99-4.404-1.498-1.879-2.57-4.125-3.216-6.74-.646-2.612-.969-5.476-.969-8.59v-25.813h10.66v24.139c0 4.934.719 8.458 2.158 10.572 1.438 2.115 3.949 3.172 7.532 3.172 1.291 0 2.656-.058 4.098-.176 1.438-.117 2.51-.264 3.215-.44v-37.267h10.66v44.666zM183.969 179.25c-2.113.647-4.771 1.233-7.973 1.762-3.202.529-6.563.793-10.087.793-3.643 0-6.902-.559-9.779-1.674-2.878-1.115-5.33-2.717-7.355-4.802-2.026-2.083-3.583-4.609-4.669-7.576-1.089-2.965-1.631-6.298-1.631-9.999 0-3.641.454-6.944 1.365-9.911.91-2.965 2.247-5.506 4.009-7.62a17.869 17.869 0 0 1 6.432-4.89c2.523-1.145 5.432-1.718 8.722-1.718 2.231 0 4.198.264 5.902.793 1.703.529 3.172 1.116 4.404 1.762v-23.875h10.66v66.955zm-30.57-21.76c0 4.699 1.114 8.384 3.348 11.057 2.23 2.672 5.314 4.007 9.25 4.007 1.703 0 3.156-.072 4.361-.219 1.203-.147 2.187-.308 2.95-.485v-26.43c-.939-.645-2.188-1.247-3.743-1.806-1.558-.557-3.217-.837-4.978-.837-3.877 0-6.711 1.322-8.502 3.965-1.791 2.643-2.686 6.226-2.686 10.748M240.969 157.577c0 3.643-.529 6.96-1.586 9.956-1.058 2.995-2.556 5.55-4.493 7.664-1.938 2.114-4.272 3.76-7.004 4.934s-5.741 1.762-9.03 1.762c-3.29 0-6.285-.588-8.986-1.762s-5.021-2.819-6.959-4.934c-1.938-2.114-3.45-4.669-4.538-7.664-1.087-2.996-1.629-6.313-1.629-9.956 0-3.641.542-6.944 1.629-9.91 1.088-2.965 2.613-5.507 4.581-7.621a20.255 20.255 0 0 1 7.005-4.89c2.7-1.145 5.668-1.718 8.897-1.718s6.211.573 8.942 1.718c2.73 1.146 5.065 2.775 7.004 4.89 1.938 2.114 3.45 4.656 4.537 7.621 1.086 2.966 1.63 6.27 1.63 9.91m-10.924 0c0-4.581-.984-8.207-2.952-10.879-1.969-2.673-4.713-4.009-8.237-4.009s-6.27 1.336-8.237 4.009c-1.968 2.672-2.95 6.298-2.95 10.879 0 4.641.982 8.312 2.95 11.012 1.968 2.702 4.713 4.053 8.237 4.053s6.269-1.351 8.237-4.053c1.968-2.7 2.952-6.371 2.952-11.012"/></svg>