<?xml version="1.0" encoding="utf-8"?>
<!-- Generator: Adobe Illustrator 16.0.0, SVG Export Plug-In . SVG Version: 6.00 Build 0)  -->
<!DOCTYPE svg PUBLIC "-//W3C//DTD SVG 1.1//EN" "http://www.w3.org/Graphics/SVG/1.1/DTD/svg11.dtd">
<svg version="1.1" id="圖層_1" xmlns="http://www.w3.org/2000/svg" xmlns:xlink="http://www.w3.org/1999/xlink" x="0px" y="0px"
	 width="432.484px" height="85.987px" viewBox="0 0 432.484 85.987" enable-background="new 0 0 432.484 85.987"
	 xml:space="preserve">
<g>
	<g>
		<path fill="#0C63AA" d="M413.968,54.792V40.87h3.991v13.922H413.968L413.968,54.792z M413.968,39.468V35.8h1.727v-3.886h-1.727
			V28.03h0.972c-0.325-0.107-0.647-0.324-0.972-0.54v-5.612c3.453,2.05,7.229,3.562,11.546,4.534
			c-1.186,1.511-1.941,3.236-2.479,5.179c-0.542-0.108-1.08-0.323-1.837-0.646c-0.324-0.107-0.431-0.217-0.54-0.217v8.743h-6.689
			V39.468z M413.968,33.641c0.215-0.324,0.538-0.645,0.646-0.863c-0.108-0.108-0.215-0.217-0.432-0.323
			c-0.107-0.108-0.107-0.108-0.215-0.108V33.641L413.968,33.641z M413.968,21.878v5.61c-0.971-0.539-1.941-1.188-3.021-1.943v1.188
			h-2.16V18.1C410.405,19.503,412.133,20.797,413.968,21.878L413.968,21.878z M413.968,28.027v3.885h-0.971
			c0.323,0.107,0.647,0.216,0.971,0.431v1.295c-0.323,0.432-0.756,0.97-1.187,1.404c-0.215,0.324-0.324,0.539-0.433,0.755h1.619
			v3.667h-5.181v-3.667h2.052l-2.052-0.971v-0.974c0.755-0.754,1.295-1.401,1.513-1.941h-1.513v-3.884H413.968L413.968,28.027z
			 M413.968,40.87v13.922h-1.834V53.82h-3.347v-3.669h3.347v-1.188h-3.347v-2.912h3.347v-1.513h-3.347V40.87H413.968z M408.786,18.1
			v8.634h-4.53v-3.67h3.235c-1.186-0.97-2.266-2.048-3.235-3.345v-5.071l2.266,0.214c0.321,0.107,0.215,0.434-0.216,0.865
			C407.06,16.589,407.924,17.345,408.786,18.1L408.786,18.1z M408.786,28.027v3.885h-1.943v3.885h1.943v3.669h-4.53V28.027H408.786
			L408.786,28.027z M408.786,33.855L408.786,33.855c-0.215,0.431-0.323,0.649-0.432,0.755l0.432,0.216V33.855L408.786,33.855z
			 M408.786,40.87v3.669h-4.53V40.87H408.786L408.786,40.87z M408.786,46.052v2.913h-4.53v-2.913H408.786L408.786,46.052z
			 M408.786,50.151v3.669h-4.53v-3.669H408.786z M404.257,14.647v5.071c-0.217-0.107-0.325-0.323-0.434-0.541
			c-0.539,0.755-1.51,1.942-3.129,3.455V14.43L404.257,14.647L404.257,14.647z M404.257,23.063v3.67h-3.562v-3.67H404.257
			L404.257,23.063z M404.257,28.027v11.44h-3.562V35.8h1.942v-3.886h-1.942V28.03h3.562V28.027z M404.257,40.87v3.669h-3.562V40.87
			H404.257L404.257,40.87z M404.257,46.052v2.913h-3.562v-2.913H404.257L404.257,46.052z M404.257,50.151v3.669h-3.562v-3.669
			H404.257L404.257,50.151z M400.692,34.61c0.216-0.105,0.324-0.105,0.432-0.213c-0.107-0.108-0.216-0.323-0.432-0.542V34.61z
			 M400.692,14.433v8.2c-0.106,0.107-0.216,0.323-0.431,0.431h0.431v3.67h-3.671v-0.971c-0.537,0.431-1.078,0.865-1.726,1.294V21.12
			c2.266-2.05,3.992-4.208,5.181-6.799L400.692,14.433L400.692,14.433z M400.692,28.027v3.885h-1.834
			c0.323,0.216,0.647,0.646,1.078,1.188c0.323,0.321,0.54,0.54,0.756,0.755v0.755c-0.539,0.323-0.971,0.646-1.511,1.187h1.511v3.669
			h-5.396v-3.669h1.726c-0.537-0.647-1.078-1.187-1.726-1.726v-1.404c0.323-0.324,0.647-0.539,0.971-0.755h-0.971v-3.885H400.692
			L400.692,28.027z M400.692,40.87v3.669h-4.208v1.513h4.208v2.912h-4.208v1.188h4.208v3.669h-4.208v0.972h-1.188V40.87H400.692z
			 M395.297,21.12v5.937c-0.538,0.324-1.185,0.647-1.833,0.974h1.833v3.884h-1.618V35.8h1.618v3.668h-6.69v-8.419
			c-0.106,0.108-0.321,0.216-0.646,0.323c-0.216,0.108-0.538,0.324-0.972,0.54c-0.755-1.619-1.838-2.914-3.133-4.208
			C388.605,25.868,392.384,23.711,395.297,21.12L395.297,21.12z M395.297,32.668c-0.323,0.217-0.538,0.433-0.862,0.756
			c0.324,0.217,0.648,0.432,0.862,0.647V32.668L395.297,32.668z M395.297,40.87v13.922h-4.101V40.87H395.297L395.297,40.87z
			 M367.778,52.203v-2.699c1.727-1.511,2.805-4.426,3.021-8.742h-3.021V36.77h3.559c0-0.107,0-0.432,0-0.97
			c0.109-1.189,0.109-1.944,0.109-2.376c-0.647,0.108-1.402,0.108-2.158,0c-0.215-0.863-0.539-2.051-1.187-3.346
			c-0.107-0.538-0.323-0.973-0.323-1.186v-0.432c3.992,0.432,6.044-0.107,6.044-1.404c0.104-0.646,0.104-1.725,0.104-3.345h-5.825
			c-0.107,0.647-0.215,1.296-0.323,1.835v-9.603c0.432,0.105,0.756,0.216,1.187,0.323c0.433,0,0.755,0.106,0.862,0.433
			c-0.43,0.753-0.754,1.833-0.971,3.021h9.929v5.18c0.108,4.533-1.404,7.23-4.425,7.984c0.216,0,0.432,0.111,0.755,0.216
			c0.324,0,0.541,0,0.648,0.107c0.321,0.108,0.432,0.324,0.432,0.54c0,0.107,0,0.215,0,0.323c-0.325,0.862-0.432,1.836-0.432,2.698
			h5.721v8.634c0.106,3.669-0.216,5.828-0.972,6.584c-0.541,0.862-2.269,1.294-5.182,1.294c0-0.216-0.107-0.539-0.216-0.861
			c-0.216-1.514-0.539-2.701-0.971-3.456c2.051,0.54,2.915-0.433,2.699-3.022v-5.18h-1.512c-0.32,6.799-2.373,11.116-6.042,13.059
			C368.856,53.281,368.317,52.742,367.778,52.203z M367.778,15.942v9.602c-1.079,3.454-3.131,6.045-6.261,7.664
			c0.109,0,0.109,0,0.109,0c0.107,0.108,0.215,0.214,0.215,0.214c0.108,0.11,0.108,0.216,0.108,0.326c0,0.215,0,0.431,0,0.538
			c0,0.109,0,0.324-0.108,0.647c-0.215,1.188-0.324,1.834-0.324,1.942h5.29v8.741c0,2.053-0.106,3.669-0.54,4.857
			c0.54-0.217,1.079-0.54,1.511-0.971v2.699c-0.539-0.432-1.079-0.864-1.62-1.297c-0.54,1.729-2.373,2.591-5.504,2.699
			c-0.216-1.618-0.649-3.13-1.295-4.533c2.158,0.432,3.129-0.539,2.914-3.021v-5.29h-1.081c-0.86,7.016-2.914,11.441-6.364,13.382
			c-0.325-0.538-1.081-1.297-2.16-2.159c-0.323-0.323-0.539-0.431-0.646-0.538v2.697h-5.074V30.077h-4.099v-4.533h4.099v-9.817
			c4.21-0.11,6.043,0,5.505,0.539c0,0.105,0,0.321-0.107,0.646c-0.216,0.648-0.323,1.295-0.323,1.942v6.689h3.345v4.318h-3.345
			v20.937c2.807-1.727,4.425-5.071,4.749-10.037h-2.914v-3.885h3.344c0.107-0.754,0.217-2.051,0.324-3.992h0.321
			c-0.646-0.647-1.616-1.295-2.695-1.942c4.854-1.51,7.659-3.886,8.202-7.231h-5.828v-3.992h6.151c0.107-0.541,0.107-1.402,0-2.481
			c0-0.648,0-1.188,0-1.511C365.079,15.727,366.484,15.834,367.778,15.942L367.778,15.942z M367.778,28.459
			c-0.107,0-0.107,0-0.107-0.108c-0.107,0-0.107,0.108,0.107,0.54V28.459L367.778,28.459z M367.778,36.77h-0.107v3.992h0.107V36.77
			L367.778,36.77z M319.538,53.82V41.086c0.323-0.108,0.647-0.324,0.972-0.539h-0.972v-3.776h11.765l0.863,1.619
			c-0.863,0.431-2.59,1.401-4.966,2.698c-1.941,1.08-3.236,1.942-3.991,2.375h13.92v3.992h-14.138v2.158
			C323.102,51.664,321.911,53.065,319.538,53.82L319.538,53.82z M319.538,35.368h13.598v4.1h4.856v-7.554h-3.346v-15.54h-8.956
			v3.668h4.425v1.726h-3.993v3.132h3.993v1.617h-3.993v3.238h3.993v2.159h-6.8l2.481-2.809c-0.322-0.213-0.863-0.646-1.51-1.078
			c-0.756-0.432-1.295-0.755-1.619-0.971c0.863-0.647,0.971-0.756,0.323-0.107c0.755-0.756,1.295-1.188,1.511-1.512
			c-0.971-0.756-2.266-1.402-3.884-2.265c-0.107,0.215-0.324,0.432-0.648,0.862c-0.216,0.215-0.322,0.323-0.432,0.539v5.18
			c1.081,0.646,2.16,1.401,3.239,2.158h-3.239V35.368L319.538,35.368z M319.538,21.555v-5.289c0.647-0.755,1.295-1.51,1.834-2.049
			c0.215,0.107,0.647,0.431,1.296,0.862c1.619,0.863,2.591,1.401,2.698,1.51c-0.538,0.54-1.293,1.295-2.59,2.267
			c0.325,0.108,0.647,0.432,1.187,0.863c0.756,0.539,1.403,0.972,1.834,1.188l-2.806,3.021
			C321.911,22.956,320.724,22.2,319.538,21.555z M319.538,16.266v5.286c-0.431,0.216-0.862,0.54-1.401,0.971
			c-0.646,0.432-1.187,0.863-1.512,1.082c0.539,0.321,1.404,0.754,2.482,1.293c0.109-0.107,0.215-0.216,0.431-0.323v5.179
			c-0.971,0.756-1.833,1.511-2.913,2.159h2.913v3.454h-13.921v4.423h-4.749v-7.877h3.347V16.697
			c2.371-0.217,4.963-0.649,7.661-1.513c0.539,0.863,1.294,2.159,2.265,3.886c-2.806,0.539-4.641,0.862-5.505,0.972v1.726h3.885
			v3.132h-3.885v1.617h3.885v3.238h-3.885v2.159h6.476c-0.971-0.972-1.724-1.727-2.158-2.159c1.079-0.649,2.052-1.404,3.021-2.159
			c-0.647-0.323-1.294-0.755-1.942-1.186l1.942-2.483c-0.97-1.294-1.942-2.159-2.807-2.914c0.973-0.539,1.942-1.08,2.807-1.836
			c-0.755-0.539-1.616-0.971-2.482-1.509l2.482-2.914c0.218,0.107,0.541,0.215,0.974,0.431c0.971,0.542,1.617,1.081,2.157,1.402
			C319.321,16.48,319.43,16.374,319.538,16.266L319.538,16.266z M319.538,36.77h-11.871v3.777h11.871V36.77L319.538,36.77z
			 M319.538,41.086V53.82c-1.509,0.432-3.56,0.647-6.043,0.647c-0.215-1.726-0.755-3.344-1.618-4.855
			c4.1,0.216,5.935-0.107,5.613-0.97v-1.189h-15.65v-3.991h15.65v-1.403c0.215-0.108,0.539-0.215,0.97-0.432
			C318.893,41.409,319.215,41.302,319.538,41.086L319.538,41.086z M281.874,44.107v-4.423l4.966-0.757V15.511h3.452
			c1.62-0.108,2.268,0.105,2.159,0.539c0,0.107,0,0.324-0.106,0.647c-0.109,0.863-0.217,1.835-0.217,2.698v18.669l4.531-0.863
			l0.323,4.426l-4.855,0.756v11.764h-5.287v-10.9L281.874,44.107L281.874,44.107z M281.874,37.525l3.239-1.621
			c-1.188-2.588-2.378-4.747-3.239-6.472V37.525L281.874,37.525z M281.874,26.625c0.216,0.324,0.431,0.647,0.647,0.971l3.777-3.236
			c0-0.324-1.511-2.374-4.425-6.043V26.625z M281.874,18.316v8.312c-1.186-1.62-2.696-3.562-4.533-5.721l4.101-3.023
			C281.658,17.992,281.765,18.207,281.874,18.316L281.874,18.316z M281.874,29.433v8.093l-1.186,0.538
			c-0.863-2.267-2.268-4.855-4.209-7.445l4.531-2.591C281.228,28.459,281.552,29,281.874,29.433L281.874,29.433z M281.874,39.685
			l-6.259,0.862l1.832-1.512c-0.755-1.294-2.372-3.235-4.745-5.935l-2.376,1.618v-3.776h5.719v-4.426h-5.719v-5.181
			c1.836-0.32,3.669-0.429,5.503-0.429c0.216-0.215,0.216-0.541,0-0.974c-0.539-1.186-1.295-2.48-2.157-4.1
			c-3.993,1.08-9.174,1.836-15.541,2.374c1.078,1.296,1.619,2.699,1.834,4.209c1.942-0.215,3.67-0.432,5.396-0.539v4.64h-7.016
			v4.427h6.152c-0.971,3.13-3.345,7.228-7.123,12.519c0,0,0.108,0.107,0.434,0.432c1.4,1.51,2.265,2.699,2.804,3.669
			c0.972-1.294,2.157-3.453,3.671-6.26c0.538-0.862,0.862-1.404,1.078-1.728v14.031h4.965V37.959
			c1.079,1.188,2.05,2.482,2.807,3.776c0.215,0.215,0.323,0.323,0.323,0.323l0.754-0.432l0.433,3.67l7.23-1.188L281.874,39.685
			L281.874,39.685z M235.9,43.999v-4.531c2.698-0.215,5.505-0.433,8.203-0.756V15.727h2.48c2.266,0,3.237,0.105,3.024,0.321
			c0.109,0.107,0.109,0.539,0,1.188c-0.107,0.755-0.216,1.401-0.216,1.834v18.993c1.51-0.214,2.914-0.322,4.101-0.431l0.324,4.641
			c-1.297,0-2.806,0.106-4.425,0.323v11.332h-5.288V43.244c-1.511,0.105-3.994,0.323-7.339,0.646
			C236.439,43.893,236.116,43.999,235.9,43.999L235.9,43.999z M235.9,34.396c0.864,1.293,1.62,2.481,2.159,3.668l4.425-2.48
			c-1.512-2.591-2.914-4.641-4.209-6.15l-2.375,1.293V34.396L235.9,34.396z M235.9,23.496c0.971,1.295,2.159,3.021,3.561,5.073
			l3.994-3.024c-0.433-0.97-2.051-3.235-4.856-6.689l-2.698,1.837V23.496z M235.9,20.69v2.806c-0.323-0.322-0.539-0.647-0.755-0.971
			c-0.97,1.834-1.836,3.451-2.914,5.07c-1.403-0.862-2.698-1.51-3.992-2.051c0.755-1.401,1.402-3.02,2.05-4.854
			c0.216-0.541,0.325-0.758,0.325-0.758c0.214-0.106,1.51,0.325,3.992,1.296c0.108,0.107,0.216,0.107,0.216,0.107L235.9,20.69
			L235.9,20.69z M235.9,30.728l-1.619,0.862v-2.484h-6.473V18.747c0-0.431,0-1.078,0.106-1.835c0.107-0.538,0.107-0.97,0-1.078
			c0.107-0.215-0.757-0.323-2.807-0.323h-2.159v9.711c-0.861-1.727-1.835-3.454-2.806-5.18c-1.403,0.54-2.915,1.078-4.748,1.726
			c1.833,2.591,3.021,4.642,3.561,6.152l3.992-1.834v3.02h-7.664v4.318h5.613c-1.51,4.209-3.776,7.985-6.797,11.332
			c1.835,0.864,3.237,1.835,4.315,2.697c1.727-2.697,3.236-5.286,4.532-7.877v14.353h4.856V39.035
			c0.647,0.864,1.404,2.051,2.266,3.67c0.109,0.324,0.217,0.432,0.324,0.539c0.755-0.107,1.403-0.431,2.267-0.969l0.107,1.941
			c0.755,0,1.729-0.108,3.129-0.216v-4.533c-0.646,0-1.293,0.108-1.943,0.108c-0.97-1.404-2.05-2.806-3.13-4.208
			c-1.186,0.433-2.157,0.863-3.021,1.402v-3.347h6.475v-0.972c0.542,0.648,1.08,1.296,1.619,1.943v-3.668H235.9z M196.511,51.447
			V44.54h2.913v-1.294h-2.913v-2.484h2.913v-1.294h-2.913v-2.589h2.913v-1.294h-2.913v-3.024h6.152
			c-2.806-1.402-4.749-3.021-6.152-4.854v-8.958h12.95c0,0.107-0.214,1.186-0.646,3.346c-0.433,2.268-0.757,3.776-0.863,4.424
			c-1.727-0.647-3.454-0.971-5.502-0.971c0.106-0.755,0.322-1.726,0.538-2.807h-3.885c0.54,3.346,4.641,5.506,12.195,6.693
			c-0.972,1.403-2.05,3.235-3.023,5.287c-0.217,0-1.403-0.323-3.452-1.187v14.245h-7.554c3.884,0.863,7.554,1.94,11.006,3.345
			l-3.345,3.67C202.446,53.497,199.64,52.42,196.511,51.447z M196.511,18.747v8.957c0-0.108,0-0.108-0.107-0.108
			c-0.974,1.621-2.375,2.915-4.209,4.102v-5.829c0.755-0.969,1.295-1.941,1.727-3.131h-1.727v-7.011
			c1.401,0.216,2.157,0.321,2.265,0.539c0,0.105-0.107,0.321-0.322,0.755c-0.433,0.54-0.757,1.187-0.971,1.727H196.511
			L196.511,18.747z M196.511,32.561v3.022h-4.316v-3.022H196.511L196.511,32.561z M196.511,36.877v2.591h-4.316v-2.591H196.511
			L196.511,36.877z M196.511,40.762v2.482h-4.316v-2.482H196.511L196.511,40.762z M196.511,44.539v6.907
			c-1.296-0.432-2.699-0.757-4.21-1.188l2.482-2.48h-2.589v-3.239L196.511,44.539L196.511,44.539z M192.194,15.727v7.011h-0.863
			c-0.216,0.108-0.216,0.326-0.431,0.648c-0.217,0.324-0.864,1.404-1.944,3.129c-1.942-0.538-3.345-0.861-4.316-0.971
			c0.648,1.081,1.188,1.944,1.512,2.376c-2.916,1.728-5.287,3.237-7.338,4.532v-5.503c1.618-0.863,3.345-1.835,5.181-2.914
			l0.323,0.862c1.835-2.267,3.346-5.505,4.424-9.713C190.144,15.402,191.331,15.511,192.194,15.727L192.194,15.727z M192.194,25.868
			c-1.943,2.268-4.857,3.669-8.959,4.21c0.108,0.216,0.433,0.54,0.758,0.864c0.646,0.647,1.079,1.187,1.293,1.618h-6.475v15.217
			h7.338c-1.835,0.756-4.316,1.402-7.338,1.941v4.425c2.589-0.538,5.504-1.404,8.85-2.592c0.323-0.105,0.647-0.215,1.079-0.432
			c0.54-0.215,0.755-0.431,0.863-0.538c0.107-0.217-0.756-1.188-2.482-2.805h5.073v-3.239h-9.283v-1.294h9.283V40.76h-9.283v-1.294
			h9.283v-2.59h-9.283v-1.295h9.283v-3.022h-1.727c0.646-0.323,1.187-0.539,1.727-0.862V25.868L192.194,25.868z M178.812,24.575
			c0.755-0.323,2.266-1.295,4.64-3.023c-0.107-0.646-1.617-2.589-4.64-5.936V24.575z M178.812,15.616v8.959l0,0
			c-1.079-1.727-2.267-3.347-3.67-4.856c-0.539-0.541-0.863-0.863-0.863-0.972c1.511-1.402,3.022-2.373,4.533-3.236
			C178.812,15.616,178.812,15.616,178.812,15.616L178.812,15.616z M178.812,26.949v5.503c0,0-0.107,0.108-0.216,0.108h0.216v15.217
			h-0.861V33.101c-0.433,0.321-0.864,0.647-1.296,0.971c-0.865,0.647-1.296,0.971-1.403,0.862c-0.432-0.431-1.404-2.052-2.807-4.856
			c0-0.105,0.323-0.323,0.97-0.54C175.142,28.893,176.976,27.923,178.812,26.949L178.812,26.949z M178.812,49.72v4.424
			c-1.079,0.217-2.051,0.324-3.023,0.432c-0.432-0.97-1.293-2.155-2.481-3.667c-0.106-0.107-0.215-0.216-0.324-0.324
			C175.142,50.366,177.084,50.043,178.812,49.72L178.812,49.72z M163.486,53.82v-8.2h2.914c0.107,4.64-0.646,7.338-2.266,7.985
			C163.917,53.713,163.702,53.82,163.486,53.82L163.486,53.82z M163.486,44.431V36.77h1.835v7.661H163.486L163.486,44.431z
			 M163.486,35.8v-4.534h0.755c0.107,0.432,0.216,1.403,0.324,2.809c0.216,0.862,0.216,1.402,0.216,1.727L163.486,35.8L163.486,35.8
			z M163.486,29.647c0.539-0.107,1.188-0.215,1.835-0.215l0.323,1.51c-0.323,0.106-0.539,0.106-0.539,0.106
			c0.323,1.296,0.648,2.807,0.97,4.748l2.59-0.863c-0.322-1.078-0.755-2.481-1.51-4.532l1.078-0.539l-1.619-5.612l-2.374,0.863
			l0.324,1.401c-0.217,0.216-0.648,0.324-1.08,0.324v2.809H163.486z M163.486,25.655V20.69h0.324l0.971-1.943
			c1.617,0.756,2.591,1.402,2.806,1.835c-0.215,0.323-1.188,1.512-3.021,3.668C164.135,24.791,163.811,25.33,163.486,25.655
			L163.486,25.655z M163.486,18.963c0.863-1.079,1.296-1.835,1.512-2.266c-0.432-0.326-0.973-0.54-1.512-0.865V18.963z
			 M163.486,15.834v3.13c-0.431,0.539-0.971,1.079-1.51,1.729h1.51v4.964c-0.755,0.861-1.079,1.295-1.079,1.295
			c0.432,0,0.756-0.107,1.079-0.107v2.807c-1.294,0.106-2.481,0.323-3.56,0.539v-4.318c0.539-0.431,1.187-1.188,1.835-2.157
			c-0.648,0-1.187,0.107-1.835,0.107v-4.317c0.648-0.971,1.403-2.373,2.05-4.316C162.516,15.402,162.947,15.616,163.486,15.834
			L163.486,15.834z M163.486,31.265v4.532H162.3c0-0.431-0.106-1.294-0.216-2.696c0-1.079,0-1.62,0-1.729L163.486,31.265
			L163.486,31.265z M163.486,36.77v7.661h-3.56v-3.129h1.187v-1.187h-1.187V36.77H163.486L163.486,36.77z M163.486,45.62v8.2
			c-0.971,0.323-2.158,0.54-3.56,0.755v-4.208c0.323,0,0.539-0.106,0.648-0.106c0.755-0.107,1.078-0.43,1.078-0.971h-1.727v-3.667
			h3.56V45.62z M159.927,36.23v-5.288c0.216,0,0.431,0.106,0.648,0.106c0.755,0.108,1.078,0.216,1.078,0.323
			c-0.323,1.944-0.863,3.562-1.511,4.857L159.927,36.23L159.927,36.23z M159.927,19.503v4.317c-0.324,0.106-0.646,0.106-0.971,0.215
			c-0.432-2.05-0.648-3.235-0.648-3.451C158.848,20.582,159.388,20.149,159.927,19.503L159.927,19.503z M159.927,25.868v4.318
			c-0.324,0.106-0.646,0.106-0.971,0.215c-0.432-2.266-0.648-3.452-0.539-3.668C158.848,26.625,159.388,26.41,159.927,25.868
			L159.927,25.868z M159.927,30.942v5.288l-2.159-0.862c0.756-1.405,1.188-2.916,1.403-4.641
			C159.279,30.836,159.603,30.836,159.927,30.942L159.927,30.942z M159.927,36.77v3.346h-6.475V36.77H159.927L159.927,36.77z
			 M159.927,41.302v3.129h-6.475v-3.129H159.927L159.927,41.302z M159.927,45.62v3.667h-6.475V45.62H159.927L159.927,45.62z
			 M159.927,50.366v4.209c-0.971,0.108-2.159,0.108-3.455,0.217c-0.106-1.729-0.539-3.132-1.402-4.317
			C157.444,50.476,159.062,50.366,159.927,50.366L159.927,50.366z M153.45,35.042h4.317v-6.476h-4.317v2.376h1.295v1.618h-1.295
			V35.042L153.45,35.042z M153.45,27.381v-2.267h4.317v2.267H153.45L153.45,27.381z M153.45,24.035v-2.265h4.317v2.265H153.45
			L153.45,24.035z M153.45,20.69v-5.506c0.432-0.107,0.647-0.216,0.863-0.323c0,0.107,0,0.323,0.108,0.649
			c0.433,1.401,0.862,2.266,1.079,2.913h2.59v2.267H153.45z M153.45,15.188v5.505h-4.424v-2.268h2.59
			c-0.325-0.972-0.647-1.725-0.863-2.591c0.431-0.104,1.295-0.323,2.374-0.646C153.236,15.188,153.344,15.188,153.45,15.188
			L153.45,15.188z M153.45,21.768v2.268h-4.209v-2.268H153.45L153.45,21.768z M153.45,25.114v2.267h-4.209v-2.267H153.45
			L153.45,25.114z M153.45,28.566v2.376h-1.296v1.618h1.296v2.481h-4.209v-6.476H153.45L153.45,28.566z M153.45,36.77v3.346h-4.424
			V36.77H153.45L153.45,36.77z M153.45,41.302v3.129h-4.424v-3.129H153.45L153.45,41.302z M153.45,45.62v3.667h-4.424V45.62H153.45
			L153.45,45.62z M149.026,30.188l0.215-0.108l-0.215-0.862V30.188z M149.026,18.424v2.267h-0.216v-2.267H149.026L149.026,18.424z
			 M149.026,29.217l-1.187-4.535l-2.375,0.862l0.322,1.189c-0.539,0.107-1.187,0.216-1.833,0.216c0,0,0.54-0.649,1.511-1.729
			c1.835-2.267,3.022-3.562,3.346-4.208c-1.187-0.865-2.05-1.513-2.697-1.837l-0.972,1.837h-1.404v8.849
			c0.972-0.107,1.943-0.216,2.916-0.324l0.323,1.188c-0.432,0.108-0.971,0.323-1.512,0.646c0.107,0.324,0.322,1.079,0.648,2.158
			c0.216,1.188,0.432,1.941,0.54,2.375l2.155-0.862c-0.105-0.432-0.432-1.51-0.863-3.131c-0.214-0.647-0.321-1.078-0.321-1.187
			l1.402-0.539V29.217L149.026,29.217z M149.026,36.77v3.346h-5.289V36.77H149.026L149.026,36.77z M149.026,41.302v3.129h-3.885
			l-0.215,1.189h4.1v3.667h-5.289v-7.985H149.026L149.026,41.302z M143.737,36.015v-4.533l0.863-0.108
			c0.217,1.619,0.324,3.024,0.324,4.427L143.737,36.015L143.737,36.015z M143.737,20.582v-5.18c0.972,0.54,1.835,1.078,2.594,1.618
			C146.113,17.669,145.248,18.854,143.737,20.582z M143.737,15.402v5.18c-0.215,0.108-0.322,0.323-0.431,0.431h0.431v8.85
			c-1.079,0.215-2.049,0.431-3.129,0.756v-3.993c0.756-0.539,1.511-1.403,2.375-2.59c-0.647,0-1.512,0.107-2.375,0.215v-4.102
			c0.863-0.862,1.728-2.48,2.698-4.964C143.413,15.295,143.522,15.295,143.737,15.402L143.737,15.402z M143.737,31.481v4.533
			l-1.295,0.216V31.59L143.737,31.481L143.737,31.481z M143.737,36.77v3.346h-3.129V36.77H143.737L143.737,36.77z M143.737,41.302
			v7.985h-3.129v-6.26c0.109-0.862,0.215-1.402,0.215-1.726H143.737L143.737,41.302z M140.608,36.23v-4.965
			c0.432,0,0.863,0.107,1.295,0.107c-0.432,2.268-0.755,3.884-1.079,4.857H140.608z M140.608,20.149v4.103l0,0
			c-0.214,0.107-0.43,0.107-0.539,0.107c-0.541-2.05-0.756-3.236-0.756-3.452C139.746,20.907,140.178,20.69,140.608,20.149
			L140.608,20.149z M140.608,26.625v3.993c-0.106,0-0.321,0.107-0.539,0.107c-0.541-2.375-0.756-3.562-0.648-3.669
			C139.854,27.057,140.178,26.841,140.608,26.625L140.608,26.625z M140.608,31.265v4.965l-2.483-0.646
			c0.756-1.404,1.188-2.915,1.296-4.318C139.854,31.265,140.178,31.265,140.608,31.265L140.608,31.265z M140.608,36.77v3.346l0,0
			V36.77L140.608,36.77L140.608,36.77z M140.608,43.029v6.26h-0.539c0.108-1.296,0.324-3.345,0.539-6.152
			C140.608,43.029,140.608,43.029,140.608,43.029L140.608,43.029z M134.241,52.958V36.23c1.187,0.863,2.373,1.619,3.561,2.374
			C136.832,41.735,135.644,46.482,134.241,52.958L134.241,52.958z M134.241,34.61v-7.229c0.862,0.755,1.727,1.619,2.697,2.697
			c0.433,0.432,0.756,0.758,0.863,0.864l-3.345,3.776C134.351,34.719,134.351,34.61,134.241,34.61L134.241,34.61z M134.241,23.927
			v-6.689c1.834,1.401,3.453,3.129,4.855,5.288l-3.345,3.343C135.319,25.222,134.781,24.575,134.241,23.927z M106.505,34.071h17.809
			v7.015h-4.534v0.539h-3.668c0.862,0.542,2.158,1.728,3.668,3.455l-3.991,1.727l-1.295-1.402c-0.65,0-1.728,0.107-3.023,0.216
			c-0.971,0-1.728,0-2.051,0v1.294h12.088v2.698h-12.088v1.187h15.864v3.13h-18.778V43.137l5.613-0.215
			c-0.108-0.215-0.323-0.431-0.647-0.646c-0.324-0.325-0.647-0.54-0.862-0.65h-4.102v-3.236h12.627v-1.295h-12.627v-3.022H106.505z
			 M134.241,17.237v6.689c-1.08-1.51-2.268-2.698-3.454-3.669l3.131-3.237C134.025,17.129,134.134,17.237,134.241,17.237
			L134.241,17.237z M134.241,27.381v7.229c-0.539-0.539-0.647-0.755-0.432-0.539c-1.728-1.834-3.131-3.452-4.317-4.639l2.805-3.888
			C132.838,26.086,133.594,26.625,134.241,27.381L134.241,27.381z M134.241,36.23v16.728c0,0.323-0.107,0.539-0.107,0.862
			l-5.181-3.236c1.403-2.697,3.13-7.554,4.965-14.677C134.025,36.015,134.134,36.123,134.241,36.23L134.241,36.23z M106.505,32.777
			v-2.699h8.42v-1.294h-8.42v-2.591h14.245v6.584H106.505L106.505,32.777z M106.505,24.899v-8.85
			c2.485-0.107,3.455,0.107,3.131,0.539c0,0.109-0.107,0.216-0.215,0.432c-0.216,0.323-0.323,0.647-0.323,1.079h15.322v2.916
			h-15.324v1.187h13.059V24.9L106.505,24.899L106.505,24.899z M88.808,34.071h17.697v3.022H93.771v1.295h12.733v3.236h-2.156
			c-0.217,0.11-0.54,0.324-1.188,0.756c-0.646,0.54-0.97,0.756-1.188,0.863l4.532-0.107v10.792H87.62v-3.13h15.864v-1.187H91.073
			v-2.698h12.411v-1.187h-2.482c-1.08,0-2.807,0.214-5.18,0.54c-0.541,0.105-0.972,0.215-1.08,0.215
			c-0.323-0.757-0.647-1.729-1.078-3.238c1.619-0.217,3.237-0.755,4.641-1.619H92.8v-0.539h-3.992V34.071L88.808,34.071z
			 M106.505,16.05v8.85H90.75V22.2h12.843v-1.188H88.591v-2.915h15.002v-2.05h1.727C105.75,16.05,106.074,16.05,106.505,16.05
			L106.505,16.05z M106.505,26.193v2.591h-8.525v1.294h8.524v2.699H92.477v-6.584H106.505z"/>
		<path fill="#0C63AA" d="M406.927,78.265v-2.499l0,0c0.87,0,1.522-0.218,1.957-0.868c0.543-0.544,0.868-1.414,0.868-2.608
			c0-1.086-0.325-1.957-0.868-2.501c-0.434-0.652-1.086-0.978-1.957-0.978l0,0v-2.282c1.739,0,3.151,0.543,4.238,1.63
			c1.087,0.978,1.631,2.391,1.631,4.131c0,1.738-0.544,3.152-1.631,4.238C410.078,77.725,408.666,78.265,406.927,78.265
			L406.927,78.265L406.927,78.265z M425.513,78.051h-3.044v-5.87c0-1.197-0.108-1.957-0.217-2.393
			c-0.108-0.325-0.325-0.542-0.542-0.76c-0.325-0.217-0.652-0.326-1.086-0.326c-0.544,0-0.979,0.109-1.412,0.435
			c-0.436,0.218-0.653,0.653-0.87,1.089c-0.109,0.543-0.217,1.412-0.217,2.609v5.216h-2.935V66.748h2.718v1.629
			c0.978-1.195,2.283-1.849,3.803-1.849c0.651,0,1.193,0.109,1.737,0.327c0.544,0.216,0.979,0.543,1.305,0.868
			c0.217,0.435,0.435,0.869,0.544,1.195c0.108,0.434,0.217,1.194,0.217,2.064L425.513,78.051L425.513,78.051z M406.927,66.528v2.282
			c-0.761,0-1.412,0.325-1.955,0.978c-0.543,0.544-0.762,1.412-0.762,2.501c0,1.194,0.217,2.064,0.762,2.608
			c0.543,0.65,1.194,0.868,1.955,0.868v2.499c-0.978,0-1.955-0.214-2.935-0.651c-0.978-0.543-1.63-1.195-2.173-2.174
			c-0.435-0.87-0.761-1.956-0.761-3.261c0-0.979,0.326-1.956,0.761-2.935c0.543-0.76,1.195-1.521,2.063-1.955
			C404.862,66.746,405.84,66.528,406.927,66.528L406.927,66.528L406.927,66.528z M380.517,78.051v-1.959
			c0.436,0,0.764-0.217,1.197-0.434c0.325-0.327,0.543-0.651,0.651-1.087c0.108-0.218,0.217-0.652,0.217-1.413v-0.651
			c-0.433,0.217-1.086,0.325-1.85,0.542c-0.107,0-0.107,0-0.217,0v-1.846c0.98-0.217,1.632-0.435,2.066-0.651v-0.218
			c0-0.652-0.217-0.979-0.433-1.304c-0.326-0.218-0.869-0.326-1.633-0.326v-2.173c0.108,0,0.108,0,0.219,0
			c1.305,0,2.283,0.108,2.935,0.434c0.652,0.326,1.195,0.761,1.413,1.195c0.217,0.542,0.434,1.304,0.434,2.608l-0.109,3.478
			c0,0.978,0.109,1.739,0.217,2.284c0.109,0.434,0.218,0.977,0.544,1.521h-3.043c0-0.218-0.107-0.544-0.216-0.979
			c-0.109-0.108-0.109-0.217-0.109-0.325c-0.543,0.543-1.086,0.868-1.63,1.195C380.952,77.942,380.735,78.051,380.517,78.051
			L380.517,78.051z M393.669,66.746v2.282h-2.065v4.565c0,0.978,0,1.521,0,1.63c0.108,0.218,0.217,0.326,0.325,0.435
			c0.109,0.107,0.326,0.107,0.543,0.107c0.218,0,0.651-0.107,1.194-0.324l0.219,2.392c-0.652,0.326-1.522,0.435-2.392,0.435
			c-0.542,0-0.979-0.108-1.412-0.217c-0.435-0.218-0.761-0.436-0.979-0.761c-0.216-0.326-0.325-0.651-0.435-1.197
			c0-0.326-0.108-1.086-0.108-2.065v-4.999h-1.307v-2.282h1.307v-2.281l3.044-1.74v4.021H393.669L393.669,66.746z M395.732,65.226
			v-2.827h3.043v2.827H395.732L395.732,65.226z M395.732,78.051V66.746h3.043v11.305H395.732z M380.517,66.528v2.174l0,0
			c-0.543,0-0.979,0.108-1.303,0.325c-0.218,0.217-0.543,0.543-0.651,1.086l-2.717-0.543c0.218-0.978,0.76-1.739,1.521-2.281
			C378.127,66.746,379.105,66.528,380.517,66.528L380.517,66.528z M380.517,71.203v1.846c-0.76,0.22-1.194,0.328-1.411,0.435
			c-0.435,0.326-0.651,0.653-0.651,1.088s0.217,0.76,0.542,1.087c0.326,0.325,0.652,0.543,1.196,0.543
			c0.108,0,0.218-0.108,0.327-0.108v1.958c-0.436,0.108-0.871,0.217-1.305,0.217c-1.086,0-2.064-0.325-2.717-0.978
			c-0.65-0.651-0.979-1.414-0.979-2.392c0-0.652,0.109-1.195,0.435-1.739c0.327-0.436,0.76-0.87,1.306-1.087
			c0.543-0.326,1.304-0.543,2.391-0.761C379.974,71.312,380.19,71.203,380.517,71.203L380.517,71.203z M367.801,78.156v-2.282l0,0
			c0.762,0,1.306-0.326,1.849-0.868c0.435-0.544,0.651-1.413,0.651-2.608c0-1.306-0.217-2.284-0.651-2.827
			c-0.543-0.543-1.087-0.868-1.849-0.868v-2.174c0.979,0.218,1.74,0.761,2.501,1.521v-5.652h3.042v15.65h-2.824v-1.739
			c-0.435,0.653-0.979,1.196-1.63,1.521C368.564,77.942,368.127,78.051,367.801,78.156z M367.801,66.528v2.174l0,0
			c-0.65,0-1.304,0.325-1.738,0.868c-0.543,0.543-0.759,1.413-0.759,2.502c0,1.195,0.216,2.064,0.542,2.607
			c0.434,0.762,1.086,1.195,1.957,1.195v2.284c-0.218,0.108-0.543,0.108-0.762,0.108c-1.304,0-2.499-0.543-3.369-1.629
			c-0.977-0.979-1.412-2.501-1.412-4.35c0-1.955,0.436-3.368,1.304-4.236c0.979-1.088,2.065-1.521,3.478-1.521
			C367.257,66.528,367.584,66.528,367.801,66.528L367.801,66.528z M328.024,78.265v-2.499l0,0c0.76,0,1.411-0.218,1.956-0.868
			c0.545-0.544,0.764-1.414,0.764-2.608c0-1.086-0.219-1.957-0.764-2.501c-0.544-0.652-1.196-0.978-1.956-0.978l0,0v-2.282
			c1.63,0,3.043,0.543,4.131,1.63c1.194,0.978,1.735,2.391,1.735,4.131c0,1.738-0.541,3.152-1.735,4.238
			C331.067,77.725,329.654,78.265,328.024,78.265L328.024,78.265L328.024,78.265z M343.676,78.051V76.31
			c-0.436,0.652-0.979,1.087-1.632,1.415c-0.652,0.326-1.411,0.543-2.174,0.543c-0.76,0-1.413-0.217-2.064-0.543
			c-0.543-0.326-0.979-0.761-1.307-1.415c-0.217-0.543-0.325-1.412-0.325-2.499v-7.064h2.937v5.109c0,1.628,0.107,2.606,0.217,2.933
			c0.107,0.326,0.326,0.653,0.543,0.87c0.325,0.217,0.651,0.325,1.195,0.325c0.435,0,0.978-0.108,1.303-0.434
			c0.434-0.326,0.763-0.651,0.871-1.087c0.108-0.325,0.218-1.411,0.218-3.042v-4.675h3.041v11.305H343.676L343.676,78.051z
			 M359.869,78.051h-3.043v-5.87c0-1.197,0-1.957-0.109-2.393c-0.108-0.325-0.326-0.542-0.651-0.76
			c-0.326-0.217-0.653-0.326-1.088-0.326s-0.977,0.109-1.306,0.435c-0.434,0.218-0.76,0.653-0.868,1.089
			c-0.217,0.543-0.217,1.412-0.217,2.609v5.216h-3.044V66.748h2.825v1.629c0.978-1.195,2.173-1.849,3.696-1.849
			c0.651,0,1.304,0.109,1.848,0.327c0.544,0.216,0.978,0.543,1.195,0.868c0.324,0.435,0.543,0.869,0.649,1.195
			c0.11,0.434,0.11,1.194,0.11,2.064v7.067H359.869z M328.024,66.528v2.282c-0.761,0-1.521,0.325-1.957,0.978
			c-0.542,0.544-0.87,1.412-0.87,2.501c0,1.194,0.328,2.064,0.87,2.608c0.435,0.65,1.195,0.868,1.957,0.868v2.499
			c-1.087,0-2.065-0.214-2.935-0.651c-0.978-0.543-1.74-1.195-2.175-2.174c-0.544-0.87-0.76-1.956-0.76-3.261
			c0-0.979,0.216-1.956,0.76-2.935c0.435-0.76,1.197-1.521,2.065-1.955C325.85,66.746,326.827,66.528,328.024,66.528L328.024,66.528
			L328.024,66.528z M295.746,78.265v-2.282h0.107c0.542,0,0.868-0.108,1.194-0.325c0.327-0.327,0.652-0.651,0.762-1.305l3.045,0.543
			c-0.435,1.087-1.089,1.957-1.85,2.501c-0.869,0.542-1.847,0.868-3.151,0.868H295.746L295.746,78.265z M295.746,73.158v-1.85h2.281
			c-0.108-0.868-0.326-1.521-0.76-1.956c-0.437-0.434-0.871-0.65-1.521-0.65l0,0v-2.174c1.631,0,2.826,0.543,3.803,1.63
			c0.977,0.978,1.413,2.719,1.413,5H295.746L295.746,73.158z M309.548,78.051V62.398h10.762v2.719H312.7v3.585h6.521v2.606H312.7
			v6.739h-3.152V78.051z M295.746,66.528v2.174c-0.651,0-1.196,0.217-1.63,0.761c-0.434,0.433-0.651,1.086-0.651,1.846h2.281v1.85
			h-2.281c0,0.979,0.218,1.63,0.651,2.064c0.434,0.543,0.979,0.76,1.63,0.76v2.282c-1.955,0-3.368-0.651-4.24-1.956
			c-0.759-0.979-1.085-2.282-1.085-3.911c0-1.849,0.435-3.369,1.411-4.348c0.979-0.979,2.284-1.521,3.697-1.521
			C295.638,66.528,295.638,66.528,295.746,66.528L295.746,66.528z M258.033,78.265v-2.282c0.109,0,0.109,0,0.217,0
			c0.435,0,0.87-0.108,1.196-0.325c0.325-0.327,0.542-0.651,0.65-1.305l3.044,0.543c-0.435,1.087-0.978,1.957-1.848,2.501
			c-0.87,0.542-1.849,0.868-3.151,0.868C258.143,78.265,258.143,78.265,258.033,78.265L258.033,78.265z M258.033,73.158v-1.85h2.283
			c0-0.868-0.217-1.521-0.653-1.956c-0.434-0.434-0.978-0.65-1.628-0.65l0,0v-2.174c1.628,0,2.936,0.543,3.803,1.63
			c0.978,0.978,1.522,2.719,1.412,5H258.033L258.033,73.158z M276.073,78.051h-3.044v-5.87c0-1.197-0.107-1.957-0.217-2.393
			c-0.109-0.325-0.326-0.542-0.543-0.76c-0.326-0.217-0.651-0.326-1.087-0.326c-0.543,0-0.978,0.109-1.412,0.435
			c-0.436,0.218-0.652,0.653-0.869,1.089c-0.108,0.543-0.218,1.412-0.218,2.609v5.216h-2.935V66.748h2.718v1.629
			c0.979-1.195,2.284-1.849,3.804-1.849c0.654,0,1.197,0.109,1.74,0.327c0.543,0.216,0.978,0.543,1.304,0.868
			c0.217,0.435,0.434,0.869,0.542,1.195c0.108,0.434,0.217,1.194,0.217,2.064V78.051L276.073,78.051z M289.007,70.006l-3.043,0.543
			c0-0.652-0.327-1.086-0.652-1.303c-0.325-0.326-0.761-0.435-1.305-0.435c-0.761,0-1.412,0.217-1.846,0.76
			c-0.436,0.435-0.654,1.306-0.654,2.609c0,1.303,0.219,2.281,0.654,2.826c0.434,0.543,1.085,0.76,1.846,0.76
			c0.544,0,0.979-0.107,1.412-0.435c0.326-0.324,0.653-0.869,0.762-1.629l2.936,0.435c-0.326,1.412-0.869,2.393-1.739,3.043
			c-0.869,0.762-2.065,1.087-3.479,1.087c-1.737,0-3.042-0.543-4.02-1.521c-0.98-1.087-1.414-2.5-1.414-4.455
			c0-1.849,0.434-3.262,1.414-4.237c0.978-0.979,2.391-1.522,4.02-1.522c1.413,0,2.502,0.218,3.261,0.868
			C288.028,67.941,288.573,68.811,289.007,70.006z M258.033,66.528v2.174c-0.651,0-1.193,0.217-1.631,0.761
			c-0.434,0.433-0.651,1.086-0.544,1.846h2.175v1.85h-2.282c0,0.979,0.218,1.63,0.761,2.064c0.435,0.543,0.869,0.76,1.521,0.76
			v2.282c-1.848,0-3.259-0.651-4.238-1.956c-0.653-0.979-0.979-2.282-0.979-3.911c0-1.849,0.435-3.369,1.305-4.348
			c0.979-0.979,2.282-1.521,3.804-1.521H258.033L258.033,66.528z M206.844,78.156v-2.064c0.435,0,0.761-0.217,1.196-0.434
			c0.324-0.327,0.543-0.651,0.651-1.087c0.108-0.218,0.216-0.652,0.216-1.413v-0.651c-0.433,0.217-1.086,0.325-1.847,0.542
			c-0.108,0-0.217,0-0.217,0v-1.846c0.869-0.217,1.631-0.435,2.063-0.651v-0.218c0-0.652-0.216-0.979-0.433-1.304
			c-0.326-0.218-0.869-0.326-1.631-0.326v-2.173c0,0,0.107,0,0.217,0c1.304,0,2.282,0.108,2.936,0.434
			c0.652,0.326,1.195,0.761,1.413,1.195c0.217,0.542,0.434,1.304,0.434,2.608l-0.108,3.478c0,0.978,0.108,1.739,0.217,2.284
			c0.108,0.434,0.218,0.977,0.544,1.521h-3.044c0-0.218-0.108-0.544-0.217-0.979c-0.108-0.108-0.108-0.217-0.108-0.325
			c-0.543,0.543-1.086,0.868-1.631,1.195C207.279,77.942,207.061,78.051,206.844,78.156L206.844,78.156z M220.104,72.94l3.045-0.325
			c0.216,0.978,0.542,1.738,1.086,2.282c0.544,0.434,1.304,0.761,2.283,0.761c1.086,0,1.847-0.217,2.282-0.651
			c0.543-0.436,0.868-0.979,0.868-1.521c0-0.434-0.106-0.762-0.325-0.979c-0.217-0.218-0.651-0.433-1.195-0.651
			c-0.326-0.109-1.196-0.435-2.499-0.761c-1.739-0.326-2.935-0.869-3.586-1.522c-0.979-0.868-1.412-1.738-1.412-3.044
			c0-0.761,0.217-1.521,0.649-2.172c0.435-0.76,1.089-1.305,1.958-1.632c0.868-0.324,1.847-0.543,3.043-0.543
			c1.956,0,3.478,0.435,4.457,1.304c0.977,0.871,1.521,1.957,1.63,3.479l-3.151,0.107c-0.218-0.869-0.435-1.412-0.871-1.74
			c-0.542-0.323-1.194-0.543-2.064-0.543c-0.868,0-1.629,0.217-2.173,0.543c-0.325,0.218-0.435,0.543-0.435,0.98
			c0,0.436,0.108,0.76,0.435,0.978c0.434,0.325,1.413,0.65,2.935,1.085c1.523,0.326,2.608,0.544,3.369,0.979
			c0.76,0.435,1.303,0.87,1.739,1.631c0.434,0.651,0.651,1.521,0.651,2.5c0,0.869-0.326,1.738-0.76,2.499
			c-0.545,0.762-1.195,1.305-2.175,1.739c-0.868,0.326-1.956,0.543-3.368,0.543c-1.957,0-3.478-0.435-4.564-1.303
			C220.863,75.983,220.212,74.68,220.104,72.94L220.104,72.94z M245.316,70.006l-2.933,0.543c-0.108-0.652-0.325-1.086-0.651-1.303
			c-0.435-0.326-0.87-0.435-1.413-0.435c-0.762,0-1.305,0.217-1.849,0.76c-0.434,0.435-0.65,1.306-0.65,2.609
			c0,1.303,0.217,2.281,0.76,2.826c0.435,0.543,0.978,0.76,1.739,0.76c0.651,0,1.088-0.107,1.413-0.435
			c0.435-0.324,0.651-0.869,0.76-1.629l2.934,0.435c-0.216,1.412-0.868,2.393-1.739,3.043c-0.869,0.762-2.062,1.087-3.477,1.087
			c-1.63,0-2.934-0.543-3.913-1.521c-1.086-1.087-1.521-2.5-1.521-4.455c0-1.849,0.436-3.262,1.521-4.237
			c0.979-0.979,2.283-1.522,4.021-1.522c1.306,0,2.392,0.218,3.262,0.868C244.339,67.941,244.991,68.811,245.316,70.006
			L245.316,70.006z M247.6,65.226v-2.827h3.044v2.827H247.6L247.6,65.226z M247.6,78.051V66.746h3.044v11.305H247.6z
			 M206.844,66.528v2.174l0,0c-0.543,0-0.978,0.108-1.305,0.325c-0.217,0.217-0.543,0.543-0.651,1.086l-2.718-0.543
			c0.218-0.978,0.761-1.739,1.523-2.281C204.453,66.746,205.431,66.528,206.844,66.528L206.844,66.528z M206.844,71.203v1.846
			c-0.76,0.22-1.196,0.328-1.413,0.435c-0.435,0.326-0.651,0.653-0.651,1.088s0.217,0.76,0.543,1.087
			c0.217,0.325,0.652,0.543,1.195,0.543c0.109,0,0.218-0.108,0.326-0.108v2.066c-0.435,0-0.869,0.108-1.305,0.108
			c-1.086,0-2.065-0.325-2.717-0.978c-0.652-0.651-0.979-1.414-0.979-2.392c0-0.652,0.108-1.195,0.435-1.739
			c0.326-0.436,0.761-0.87,1.304-1.087c0.544-0.326,1.305-0.543,2.393-0.761C206.301,71.312,206.518,71.203,206.844,71.203
			L206.844,71.203z M187.39,78.156v-2.064c0.434,0,0.76-0.217,1.195-0.434c0.324-0.327,0.543-0.651,0.761-1.087
			c0-0.218,0.108-0.652,0.108-1.413v-0.651c-0.435,0.217-1.088,0.325-1.848,0.542c-0.108,0-0.108,0-0.217,0v-1.846
			c0.977-0.217,1.63-0.435,2.064-0.651v-0.218c0-0.652-0.218-0.979-0.435-1.304c-0.326-0.218-0.869-0.326-1.63-0.326v-2.173
			c0.108,0,0.108,0,0.217,0c1.303,0,2.282,0.108,2.934,0.434c0.654,0.326,1.197,0.761,1.414,1.195
			c0.217,0.542,0.436,1.304,0.436,2.608l-0.108,3.478c0,0.978,0.108,1.739,0.218,2.284c0.106,0.434,0.217,0.977,0.542,1.521h-3.044
			c0-0.218-0.107-0.544-0.217-0.979c-0.109-0.108-0.109-0.217-0.109-0.325c-0.543,0.543-1.086,0.868-1.629,1.195
			C187.825,77.942,187.607,78.051,187.39,78.156L187.39,78.156z M200.54,66.746v2.282h-2.063v4.565c0,0.978,0,1.521,0,1.63
			c0.108,0.218,0.217,0.326,0.326,0.435c0.106,0.107,0.325,0.107,0.542,0.107c0.218,0,0.652-0.107,1.195-0.324l0.217,2.392
			c-0.651,0.326-1.521,0.435-2.391,0.435c-0.542,0-0.977-0.108-1.414-0.217c-0.435-0.218-0.76-0.436-0.977-0.761
			c-0.218-0.326-0.326-0.651-0.436-1.197c0-0.326-0.108-1.086-0.108-2.065v-4.999h-1.304v-2.282h1.304v-2.281l3.045-1.74v4.021
			H200.54L200.54,66.746z M187.39,66.528v2.174l0,0c-0.544,0-0.979,0.108-1.304,0.325c-0.217,0.217-0.543,0.543-0.651,1.086
			l-2.718-0.543c0.216-0.978,0.76-1.739,1.521-2.281C185,66.746,185.978,66.528,187.39,66.528L187.39,66.528z M187.39,71.203v1.846
			c-0.761,0.22-1.196,0.328-1.412,0.435c-0.435,0.326-0.653,0.653-0.653,1.088s0.217,0.76,0.545,1.087
			c0.324,0.325,0.65,0.543,1.194,0.543c0.108,0,0.218-0.108,0.326-0.108v2.066c-0.435,0-0.87,0.108-1.304,0.108
			c-1.086,0-2.065-0.325-2.719-0.978c-0.65-0.651-0.977-1.414-0.977-2.392c0-0.652,0.108-1.195,0.434-1.739
			c0.326-0.436,0.761-0.87,1.303-1.087c0.546-0.326,1.307-0.543,2.393-0.761C186.846,71.312,187.063,71.203,187.39,71.203
			L187.39,71.203z M173.914,78.051v-2.72c0.326,0,0.651-0.107,0.868-0.107c0.544-0.108,0.979-0.325,1.305-0.652
			c0.326-0.325,0.652-0.868,0.869-1.52c0.109-0.651,0.217-1.631,0.217-2.826c0-1.306-0.107-2.065-0.217-2.719
			c-0.216-0.651-0.543-1.195-0.978-1.521c-0.325-0.326-0.869-0.651-1.413-0.76c-0.217,0-0.436,0-0.651-0.108V62.4
			c0.868,0.106,1.629,0.217,2.173,0.324c0.979,0.327,1.739,0.761,2.393,1.414c0.651,0.761,1.194,1.629,1.52,2.608
			c0.326,0.977,0.543,2.064,0.543,3.585c0,1.306-0.216,2.392-0.543,3.369c-0.325,1.086-0.978,2.064-1.63,2.717
			c-0.544,0.544-1.304,0.979-2.283,1.304C175.543,77.833,174.782,77.942,173.914,78.051z M173.914,62.398v2.719
			c-0.545,0-1.196,0-1.956,0h-1.415v10.214h2.394c0.325,0,0.651,0,0.979,0v2.72c-0.217,0-0.435,0-0.545,0h-5.979V62.398h5.761
			C173.369,62.398,173.697,62.398,173.914,62.398L173.914,62.398z M140.003,78.156v-2.064c0.437,0,0.764-0.217,1.197-0.434
			c0.325-0.327,0.543-0.651,0.651-1.087c0.108-0.218,0.217-0.652,0.217-1.413v-0.651c-0.435,0.217-1.086,0.325-1.848,0.542
			c-0.106,0-0.218,0-0.218,0v-1.846c0.872-0.217,1.631-0.435,2.065-0.651v-0.218c0-0.652-0.217-0.979-0.435-1.304
			c-0.325-0.218-0.867-0.326-1.631-0.326v-2.173c0,0,0.111,0,0.218,0c1.305,0,2.282,0.108,2.936,0.434
			c0.65,0.326,1.194,0.761,1.412,1.195c0.217,0.542,0.434,1.304,0.434,2.608l-0.108,3.478c0,0.978,0.108,1.739,0.218,2.284
			c0.108,0.434,0.217,0.977,0.542,1.521h-3.043c0-0.218-0.107-0.544-0.216-0.979c-0.108-0.108-0.108-0.217-0.108-0.325
			c-0.543,0.543-1.086,0.868-1.629,1.195C140.44,77.942,140.223,78.051,140.003,78.156L140.003,78.156z M158.263,78.051h-3.043
			v-5.87c0-1.197,0-1.957-0.218-2.393c-0.108-0.325-0.326-0.542-0.543-0.76c-0.325-0.217-0.651-0.326-1.087-0.326
			c-0.543,0-0.979,0.109-1.413,0.435c-0.435,0.218-0.652,0.653-0.868,1.089c-0.11,0.543-0.218,1.412-0.218,2.609v5.216h-2.934
			V66.748h2.717v1.629c0.977-1.195,2.283-1.849,3.803-1.849c0.652,0,1.195,0.109,1.738,0.327c0.544,0.216,0.979,0.543,1.306,0.868
			c0.216,0.435,0.435,0.869,0.543,1.195c0.107,0.434,0.217,1.194,0.217,2.064V78.051z M140.003,66.528v2.174l0,0
			c-0.543,0-0.977,0.108-1.304,0.325c-0.217,0.217-0.543,0.543-0.651,1.086l-2.716-0.543c0.217-0.978,0.76-1.739,1.52-2.281
			C137.614,66.746,138.591,66.528,140.003,66.528L140.003,66.528z M140.003,71.203v1.846c-0.76,0.22-1.194,0.328-1.412,0.435
			c-0.435,0.326-0.651,0.653-0.651,1.088s0.217,0.76,0.543,1.087c0.217,0.325,0.652,0.543,1.196,0.543
			c0.108,0,0.217-0.108,0.324-0.108v2.066c-0.433,0-0.868,0.108-1.304,0.108c-1.085,0-2.064-0.325-2.716-0.978
			c-0.651-0.651-0.978-1.414-0.978-2.392c0-0.652,0.108-1.195,0.435-1.739c0.327-0.436,0.761-0.87,1.305-1.087
			c0.543-0.326,1.303-0.543,2.391-0.761C139.46,71.312,139.679,71.203,140.003,71.203L140.003,71.203z M104.791,78.156v-2.064
			c0.326,0,0.761-0.217,1.196-0.434c0.325-0.327,0.543-0.651,0.65-1.087c0.109-0.218,0.109-0.652,0.109-1.413v-0.651
			c-0.327,0.217-0.977,0.325-1.848,0.542h-0.108v-1.846c0.869-0.217,1.521-0.435,1.956-0.651v-0.218
			c0-0.652-0.109-0.979-0.435-1.304c-0.217-0.218-0.76-0.326-1.521-0.326v-2.173h0.108c1.413,0,2.392,0.108,3.044,0.434
			c0.654,0.326,1.088,0.761,1.414,1.195c0.218,0.542,0.325,1.304,0.325,2.608v3.478c0,0.978,0,1.739,0.108,2.284
			c0.109,0.434,0.327,0.977,0.544,1.521h-2.936c-0.107-0.218-0.216-0.544-0.325-0.979c0-0.108,0-0.217-0.108-0.325
			c-0.435,0.543-0.978,0.868-1.629,1.195C105.117,77.942,104.899,78.051,104.791,78.156L104.791,78.156z M112.726,65.226v-2.827
			h2.935v2.827H112.726L112.726,65.226z M112.726,78.051V66.746h2.935v11.305H112.726L112.726,78.051z M120.876,78.051
			l-3.585-11.305h2.933l2.066,7.391l1.956-7.391h2.936l1.847,7.391l2.174-7.391h2.936l-3.587,11.305h-2.934l-1.958-7.391
			l-1.848,7.391H120.876z M99.9,62.398h0.217v2.719H99.9V62.398L99.9,62.398z M104.791,66.528v2.174c-0.108,0-0.108,0-0.108,0
			c-0.543,0-0.87,0.108-1.195,0.325s-0.543,0.543-0.761,1.086l-2.719-0.543c0.325-0.978,0.869-1.739,1.63-2.281
			C102.292,66.746,103.379,66.528,104.791,66.528L104.791,66.528z M104.791,71.203v1.846c-0.76,0.22-1.194,0.328-1.521,0.435
			c-0.325,0.326-0.543,0.653-0.543,1.088s0.107,0.76,0.435,1.087c0.324,0.325,0.76,0.543,1.194,0.543
			c0.108,0,0.217-0.108,0.435-0.108v2.066c-0.435,0-0.869,0.108-1.305,0.108c-1.194,0-2.065-0.325-2.717-0.978
			c-0.436-0.326-0.652-0.76-0.869-1.197v-2.391c0.108-0.108,0.217-0.325,0.325-0.543c0.218-0.436,0.652-0.87,1.195-1.087
			c0.544-0.326,1.414-0.543,2.391-0.761C104.14,71.312,104.466,71.203,104.791,71.203z M92.293,78.051V65.117H87.62v-2.719H99.9
			v2.719h-4.456v12.934H92.293L92.293,78.051z M99.9,73.702c-0.108,0.435-0.218,0.76-0.218,1.195c0,0.434,0.109,0.868,0.218,1.194
			V73.702z"/>
	</g>
	<g>
		<g>
			<rect x="6.971" y="7.72" fill="#E68013" width="9.425" height="9.377"/>
			<rect x="14.414" y="15.163" fill="#E68013" width="14.547" height="14.548"/>
			<rect x="14.414" y="40.246" fill="#0C63AA" width="14.547" height="14.548"/>
			<rect x="59.603" y="40.246" fill="#0C63AA" width="14.548" height="14.548"/>
			<path fill="#0C63AA" d="M36.646,15.163c7.685,0,15.369,0,23.054,0c4.833,0,14.258,4.204,14.354,14.548H51.146v25.083h-14.5
				V15.163z"/>
		</g>
		<path fill="#0C63AA" d="M6.971,67.201v-3.307h14.373v3.307h-5.51V78.22h-3.306V67.201H6.971L6.971,67.201z M23.739,63.895h11.02
			c1.246,0,2.253,0.432,3.114,1.294s1.293,1.868,1.293,3.113v5.51c0,1.247-0.431,2.253-1.293,3.114
			c-0.862,0.863-1.869,1.294-3.114,1.294h-11.02v-8.815h3.306v5.51h7.714c0.336,0,0.575-0.096,0.814-0.335
			c0.191-0.191,0.288-0.479,0.288-0.767v-5.51c0-0.287-0.097-0.574-0.336-0.766c-0.19-0.239-0.479-0.335-0.767-0.335
			c-3.641,0-7.33,0-11.02,0V63.895L23.739,63.895z M45.97,63.895h12.122v3.307H45.97c-0.335,0-0.574,0.095-0.813,0.287
			c-0.192,0.239-0.336,0.479-0.288,0.813c0,1.342,1.629,1.15,2.874,1.15c1.917,0,3.833-0.096,5.75,0
			c1.054,0.048,1.868,0.335,2.443,0.671c1.389,0.67,2.06,1.916,2.06,3.736c0,1.199-0.431,2.253-1.293,3.115
			c-0.863,0.862-1.917,1.293-3.114,1.293H41.562v-3.354h12.026c0.287,0,0.574-0.096,0.767-0.335
			c0.239-0.191,0.335-0.479,0.335-0.768c0-0.479-0.239-0.766-0.718-0.958c-0.097,0-0.192-0.048-0.288-0.048
			c-2.396-0.144-4.983,0.048-7.379-0.047c-1.197,0-2.107-0.384-2.778-0.719c-1.343-0.719-1.965-1.965-1.965-3.737
			c0-1.246,0.383-2.252,1.246-3.114C43.67,64.327,44.724,63.895,45.97,63.895L45.97,63.895z M60.535,78.22v-8.815
			c4.217,0,8.432,0,12.648,0v3.306H63.84v5.51H60.535L60.535,78.22z M60.535,67.201v-3.307h13.079v3.307
			C69.255,67.201,64.895,67.201,60.535,67.201z"/>
	</g>
</g>
</svg>
