<svg xmlns="http://www.w3.org/2000/svg" width="263.152" height="199.5" viewBox="0 0 263.152 199.5"><g fill="#0068B7"><path d="M254.16 176.698v-10.842h3.109v10.842h-3.109zm0-11.935v-2.857h1.345v-3.026h-1.345v-3.025h.756c-.252-.084-.504-.252-.756-.42v-4.37c2.689 1.596 5.631 2.773 8.993 3.53-.924 1.177-1.513 2.521-1.933 4.034-.42-.084-.84-.252-1.429-.504-.252-.084-.336-.168-.42-.168v6.808h-5.211v-.002zm0-4.538c.167-.252.42-.503.504-.672-.084-.084-.168-.168-.337-.252-.083-.084-.083-.084-.167-.084v1.008zm0-9.161v4.37c-.756-.42-1.513-.925-2.353-1.513v.925h-1.681v-6.724c1.26 1.093 2.605 2.101 4.034 2.942zm0 4.79v3.025h-.756c.252.084.504.168.756.336v1.008c-.252.336-.588.756-.925 1.093-.167.252-.251.421-.336.588h1.261v2.857h-4.034v-2.857h1.597l-1.597-.756v-.757c.588-.588 1.008-1.092 1.177-1.513h-1.177v-3.025h4.034v.001zm0 10.002v10.842h-1.428v-.756h-2.606v-2.858h2.606v-.925h-2.606v-2.269h2.606v-1.177h-2.606v-2.857h4.034zm-4.035-17.734v6.724h-3.53v-2.857h2.521a14.86 14.86 0 0 1-2.521-2.606v-3.95l1.765.167c.252.084.168.337-.168.673.588.672 1.261 1.261 1.933 1.849zm0 7.732v3.025h-1.513v3.026h1.513v2.857h-3.53v-8.909h3.53v.001zm0 4.539c-.168.336-.252.505-.336.588l.336.168v-.756zm0 5.463v2.857h-3.53v-2.857h3.53zm0 4.035v2.269h-3.53v-2.269h3.53zm0 3.193v2.858h-3.53v-2.858h3.53zm-3.529-27.651v3.95c-.168-.084-.252-.252-.336-.421-.421.588-1.177 1.513-2.438 2.69v-6.388l2.774.169zm0 6.556v2.857h-2.774v-2.857h2.774zm0 3.865v8.909h-2.774v-2.857h1.514v-3.026h-1.514v-3.025h2.774v-.001zm0 10.002v2.857h-2.774v-2.857h2.774zm0 4.035v2.269h-2.774v-2.269h2.774zm0 3.193v2.858h-2.774v-2.858h2.774zm-2.775-12.103c.168-.083.253-.083.336-.167-.083-.084-.168-.252-.336-.421v.588zm0-15.716v6.388c-.083.083-.167.251-.335.336h.335v2.857h-2.857v-.756c-.42.336-.841.673-1.345 1.008v-4.623c1.765-1.597 3.109-3.278 4.034-5.295l.168.085zm0 10.589v3.025h-1.428c.252.168.504.504.84.925l.588.588v.588c-.42.252-.756.504-1.176.925h1.176v2.857h-4.202v-2.857h1.345c-.42-.504-.841-.925-1.345-1.345v-1.093c.252-.252.504-.42.756-.588h-.756v-3.025h4.202zm0 10.002v2.857h-3.277v1.177h3.277v2.269h-3.277v.925h3.277v2.858h-3.277v.756h-.925v-10.842h4.202zm-4.201-15.381v4.623c-.42.252-.924.504-1.429.757h1.429v3.025h-1.261v3.026h1.261v2.857h-5.211v-6.556c-.083.084-.251.168-.504.252-.168.084-.42.252-.757.42-.588-1.261-1.429-2.269-2.438-3.278 3.698-1.428 6.64-3.109 8.91-5.126zm0 8.993c-.252.168-.42.336-.672.588.252.168.504.336.672.505v-1.093zm0 6.388v10.842h-3.194v-10.842h3.194zm-21.433 8.825v-2.102c1.345-1.177 2.186-3.446 2.354-6.808h-2.354v-3.109h2.773v-.756c.085-.925.085-1.513.085-1.85a5.565 5.565 0 0 1-1.681 0c-.168-.672-.421-1.596-.925-2.605-.084-.42-.252-.757-.252-.924v-.336c3.11.336 4.707-.084 4.707-1.093.083-.504.083-1.344.083-2.605h-4.538c-.084.504-.168 1.009-.252 1.429v-7.479c.336.083.589.168.925.252.336 0 .589.083.672.336-.336.588-.588 1.429-.757 2.353h7.733v4.034c.084 3.53-1.093 5.631-3.446 6.219.168 0 .336.085.588.168.252 0 .421 0 .505.084.251.084.335.252.335.42v.252c-.252.672-.335 1.429-.335 2.101h4.454v6.724c.084 2.858-.168 4.539-.757 5.127-.42.672-1.765 1.008-4.034 1.008 0-.168-.084-.42-.168-.672-.168-1.177-.42-2.102-.756-2.69 1.597.42 2.27-.336 2.102-2.354v-4.034h-1.177c-.251 5.295-1.849 8.657-4.706 10.17-.338-.42-.757-.84-1.178-1.26zm0-28.24v7.479c-.84 2.69-2.437 4.707-4.874 5.968h.083l.168.167c.084.085.084.168.084.253v.42c0 .084 0 .252-.084.504-.168.925-.251 1.429-.251 1.513h4.118v6.808c0 1.597-.083 2.857-.42 3.782.42-.168.841-.42 1.176-.756v2.102l-1.261-1.009c-.42 1.345-1.849 2.017-4.287 2.102a12.225 12.225 0 0 0-1.008-3.53c1.681.335 2.437-.421 2.269-2.354v-4.119h-.841c-.672 5.464-2.269 8.91-4.958 10.422-.252-.42-.84-1.009-1.681-1.681-.252-.252-.42-.336-.504-.42v2.101h-3.951V157.45h-3.194v-3.53h3.194v-7.647c3.278-.085 4.707 0 4.287.42 0 .083 0 .251-.084.504a4.763 4.763 0 0 0-.252 1.513v5.21h2.605v3.362h-2.605v16.306c2.185-1.344 3.446-3.95 3.698-7.817h-2.269v-3.025h2.605c.083-.588.168-1.597.251-3.11h.252c-.503-.504-1.26-1.008-2.101-1.512 3.782-1.177 5.967-3.026 6.388-5.632h-4.539v-3.109h4.791c.084-.421.084-1.092 0-1.933v-1.176c1.094-.001 2.187.083 3.195.167zm0 9.749c-.083 0-.083 0-.083-.084-.084 0-.084.084.083.42v-.336zm0 6.472h-.083v3.109h.083v-3.109zm-37.569 13.28v-9.918c.252-.084.504-.252.757-.42h-.757v-2.941h9.162l.672 1.261c-.672.336-2.017 1.092-3.866 2.101-1.513.841-2.521 1.513-3.11 1.85h10.842v3.109h-11.011v1.681c.085 1.596-.84 2.688-2.689 3.277zm0-14.372h10.59v3.193h3.782v-5.883h-2.605v-12.103h-6.976v2.858h3.446v1.344h-3.109v2.438h3.109v1.26h-3.109v2.522h3.109v1.681h-5.295l1.933-2.186c-.252-.167-.672-.504-1.176-.84a23.622 23.622 0 0 1-1.261-.757c.672-.504.756-.588.251-.083.588-.588 1.009-.925 1.177-1.177-.756-.589-1.765-1.093-3.025-1.765-.083.168-.252.336-.504.672-.168.168-.252.252-.336.42v4.034c.841.504 1.682 1.092 2.522 1.681h-2.522v2.691h-.001zm0-10.758v-4.118c.504-.588 1.009-1.177 1.429-1.597.168.084.504.336 1.009.672 1.261.673 2.017 1.093 2.101 1.176a17.134 17.134 0 0 1-2.017 1.766c.252.084.504.336.924.672.588.42 1.093.756 1.429.925l-2.186 2.353c-.84-.757-1.765-1.346-2.689-1.849zm0-4.119v4.118c-.335.168-.672.42-1.092.756-.504.336-.924.672-1.177.841.42.251 1.093.588 1.934 1.008.084-.084.168-.168.335-.252v4.034c-.756.588-1.428 1.176-2.269 1.681h2.269v2.69h-10.842v3.445h-3.698v-6.135h2.605v-11.85c1.849-.168 3.866-.505 5.967-1.177.42.672 1.009 1.681 1.765 3.026-2.185.42-3.615.672-4.287.757v1.344h3.026v2.438h-3.026v1.26h3.026v2.522h-3.026v1.681h5.043l-1.681-1.681c.84-.505 1.597-1.093 2.353-1.681-.504-.252-1.008-.588-1.513-.924l1.513-1.934c-.756-1.008-1.513-1.681-2.185-2.269.756-.42 1.512-.841 2.185-1.43-.588-.42-1.26-.756-1.933-1.176l1.933-2.269c.168.083.421.168.757.336.756.421 1.26.841 1.681 1.092.169-.083.253-.167.337-.251zm0 15.969h-9.245v2.941h9.245v-2.941zm0 3.362v9.918c-1.176.336-2.773.504-4.706.504a10.054 10.054 0 0 0-1.261-3.782c3.193.168 4.622-.084 4.371-.756v-.925h-12.187v-3.109h12.187v-1.093c.168-.084.42-.168.756-.336.336-.169.588-.253.84-.421zm-29.333 2.353v-3.446l3.866-.588v-18.238h2.69c1.261-.084 1.765.083 1.681.42 0 .084 0 .252-.083.505-.084.672-.168 1.429-.168 2.101v14.54l3.53-.672.251 3.446-3.782.588v9.162h-4.119v-8.489l-3.866.671zm0-5.127l2.522-1.261c-.925-2.017-1.85-3.698-2.522-5.042v6.303zm0-8.488l.504.756 2.942-2.521c0-.252-1.177-1.849-3.446-4.706v6.471zm0-6.471v6.472a79.606 79.606 0 0 0-3.53-4.455l3.193-2.354c.169.084.253.252.337.337zm0 8.656v6.303l-.924.42c-.672-1.765-1.765-3.782-3.277-5.799l3.53-2.017c.167.336.42.757.671 1.093zm0 7.985l-4.875.672 1.429-1.177c-.589-1.008-1.849-2.521-3.698-4.622l-1.849 1.26v-2.941h4.454v-3.447h-4.454v-4.034c1.428-.251 2.857-.335 4.286-.335.168-.168.168-.421 0-.757-.42-.924-1.009-1.932-1.681-3.193-3.11.84-7.144 1.429-12.103 1.849.841 1.009 1.261 2.102 1.429 3.278 1.512-.168 2.857-.336 4.202-.42v3.613h-5.463v3.447h4.791c-.756 2.437-2.605 5.63-5.547 9.75l.336.336c1.093 1.176 1.765 2.101 2.185 2.857.756-1.008 1.681-2.689 2.858-4.875.42-.672.672-1.093.84-1.345v10.927h3.867v-12.187c.84.925 1.596 1.933 2.185 2.942l.252.251.588-.336.336 2.858 5.631-.925v-3.446h.001zm-35.804 3.361v-3.53c2.101-.168 4.287-.336 6.388-.588v-17.902h1.933c1.765 0 2.521.083 2.354.251.084.084.084.42 0 .925-.083.588-.168 1.092-.168 1.429v14.792c1.177-.167 2.27-.251 3.194-.336l.252 3.614c-1.009 0-2.185.083-3.446.252v8.825h-4.118v-8.321c-1.177.083-3.11.252-5.715.504-.254.001-.506.085-.674.085zm0-7.48c.673 1.008 1.261 1.933 1.681 2.857l3.446-1.932c-1.177-2.017-2.269-3.614-3.278-4.791l-1.849 1.008v2.858zm0-8.489c.756 1.009 1.681 2.354 2.773 3.951l3.11-2.354c-.336-.756-1.597-2.521-3.782-5.21l-2.101 1.429v2.184zm0-2.185v2.185c-.252-.251-.42-.503-.588-.756-.756 1.429-1.429 2.689-2.269 3.95a21.98 21.98 0 0 0-3.11-1.597c.588-1.092 1.093-2.353 1.597-3.782.168-.42.253-.589.253-.589.167-.083 1.176.253 3.109 1.009a.26.26 0 0 0 .168.084l.84-.504zm0 7.817l-1.261.672v-1.934h-5.042v-8.068c0-.335 0-.84.083-1.429.084-.42.084-.756 0-.84.084-.168-.588-.252-2.185-.252h-1.681v7.564c-.672-1.346-1.429-2.69-2.185-4.034-1.093.42-2.27.84-3.699 1.344 1.429 2.017 2.354 3.614 2.774 4.791l3.109-1.429v2.353h-5.968v3.362h4.371a26.311 26.311 0 0 1-5.294 8.826 16.683 16.683 0 0 1 3.361 2.101c1.345-2.101 2.521-4.118 3.53-6.136v11.179h3.782v-11.599c.504.673 1.093 1.597 1.765 2.858.084.252.168.336.252.42.588-.084 1.093-.336 1.765-.756l.084 1.513c.588 0 1.345-.084 2.437-.168v-3.53c-.504 0-1.008.084-1.513.084-.756-1.093-1.597-2.185-2.438-3.277-.924.336-1.681.672-2.353 1.092v-2.606h5.042v-.757l1.261 1.513v-2.857h.003zm-30.677 16.137v-5.379h2.269v-1.008h-2.269v-1.934h2.269v-1.008h-2.269v-2.017h2.269v-1.008h-2.269v-2.354h4.791c-2.185-1.093-3.698-2.354-4.791-3.782v-6.976H94.89c0 .084-.168.924-.504 2.606-.336 1.765-.589 2.941-.672 3.445-1.345-.504-2.69-.756-4.286-.756.083-.588.251-1.344.42-2.185h-3.025c.42 2.605 3.613 4.287 9.497 5.211a29.992 29.992 0 0 0-2.354 4.118c-.168 0-1.093-.251-2.689-.924v11.094h-5.883c3.025.672 5.883 1.512 8.572 2.605l-2.605 2.858c-1.934-1.01-4.12-1.85-6.557-2.606zm0-25.467v6.976c0-.084 0-.084-.084-.084-.757 1.261-1.849 2.27-3.278 3.194v-4.539a8.58 8.58 0 0 0 1.345-2.438h-1.345v-5.462c1.092.168 1.681.251 1.765.42 0 .083-.084.251-.252.588-.336.42-.589.925-.756 1.345h2.605zm0 10.758v2.354h-3.362v-2.354h3.362zm0 3.362v2.017h-3.362v-2.017h3.362zm0 3.025v1.934h-3.362v-1.934h3.362zm0 2.942v5.379c-1.009-.336-2.102-.589-3.278-.925l1.933-1.933h-2.017v-2.522h3.362zm-3.362-22.44v5.462h-.672c-.168.084-.168.253-.336.504-.168.252-.673 1.093-1.513 2.437-1.513-.42-2.605-.671-3.362-.756.505.841.925 1.513 1.177 1.85-2.27 1.345-4.118 2.521-5.715 3.53v-4.286a112.27 112.27 0 0 0 4.035-2.27l.252.672c1.429-1.765 2.605-4.287 3.446-7.564 1.091.169 2.016.253 2.688.421zm0 7.9c-1.513 1.765-3.782 2.857-6.976 3.278.084.168.336.42.589.673.503.504.84.924 1.008 1.26H71.02v11.851h5.715c-1.429.588-3.362 1.092-5.715 1.512v3.446c2.017-.42 4.287-1.093 6.892-2.018.252-.083.504-.167.841-.336.42-.168.588-.336.672-.42.084-.168-.588-.925-1.933-2.185h3.95v-2.522h-7.229v-1.008h7.229v-1.934h-7.229v-1.008h7.229v-2.017h-7.229v-1.008h7.229v-2.354h-1.345c.504-.252.925-.42 1.345-.672v-4.538zm-10.422-1.008c.588-.252 1.765-1.009 3.614-2.354-.084-.504-1.26-2.017-3.614-4.623v6.977zm0-6.977v6.977c-.841-1.345-1.765-2.606-2.858-3.782-.42-.421-.672-.672-.672-.757 1.177-1.092 2.354-1.849 3.53-2.521v.083zm0 8.826v4.286s-.084.084-.168.084h.168v11.851h-.672v-11.431l-1.008.756c-.673.504-1.009.756-1.093.672-.336-.336-1.093-1.597-2.186-3.782 0-.083.252-.252.756-.42 1.345-.503 2.774-1.259 4.203-2.016zm0 17.734v3.446c-.841.168-1.597.252-2.354.336-.336-.756-1.008-1.681-1.933-2.857l-.253-.252a53.266 53.266 0 0 0 4.54-.673zm-11.935 3.194v-6.388h2.269c.084 3.614-.503 5.715-1.764 6.22-.169.083-.337.168-.505.168zm0-7.313v-5.967h1.429v5.967h-1.429zm0-6.723v-3.53h.588c.084.336.168 1.093.252 2.186.168.672.168 1.092.168 1.345h-1.008v-.001zm0-4.791c.42-.084.925-.168 1.429-.168l.251 1.177c-.251.083-.42.083-.42.083.252 1.009.505 2.185.756 3.698l2.017-.672a55.568 55.568 0 0 0-1.176-3.53l.84-.421-1.261-4.37-1.849.672.252 1.092c-.168.168-.504.252-.841.252v2.187h.002zm0-3.109v-3.867h.252l.756-1.513c1.26.589 2.018 1.093 2.185 1.429-.167.252-.925 1.177-2.353 2.857-.335.421-.588.841-.84 1.094zm0-5.212c.673-.84 1.009-1.429 1.177-1.765-.336-.253-.757-.42-1.177-.673v2.438zm0-2.437v2.438c-.336.42-.756.841-1.176 1.345h1.176v3.867c-.588.671-.84 1.008-.84 1.008.335 0 .588-.084.84-.084v2.186c-1.008.084-1.933.252-2.773.42v-3.362c.42-.336.925-.925 1.429-1.681-.504 0-.924.084-1.429.084v-3.362c.505-.756 1.093-1.849 1.597-3.362.42.167.756.334 1.176.503zm0 12.018v3.53h-.924c0-.336-.083-1.008-.168-2.101v-1.345l1.092-.084zm0 4.287v5.967h-2.773v-2.437h.925v-.924h-.925v-2.606h2.773zm0 6.892v6.388c-.756.252-1.681.42-2.773.588v-3.277c.252 0 .42-.084.505-.084.588-.084.84-.335.84-.756h-1.345v-2.857h2.773v-.002zm-2.773-7.312v-4.118c.168 0 .336.083.505.083.588.084.84.168.84.252-.252 1.513-.672 2.773-1.176 3.782h-.169zm0-13.027v3.362c-.252.083-.504.083-.756.168-.336-1.597-.504-2.521-.504-2.689.419-.001.84-.337 1.26-.841zm0 4.958v3.362c-.252.083-.504.083-.756.168-.336-1.765-.504-2.689-.42-2.858a2.439 2.439 0 0 0 1.176-.672zm0 3.951v4.118l-1.681-.672c.588-1.093.924-2.27 1.092-3.614.084.084.337.084.589.168zm0 4.538v2.606H51.27v-2.606h5.042zm0 3.53v2.437H51.27v-2.437h5.042zm0 3.362v2.857H51.27v-2.857h5.042zm0 3.698v3.277c-.756.084-1.681.084-2.69.168-.083-1.345-.42-2.438-1.092-3.362 1.849.001 3.109-.083 3.782-.083zm-5.043-11.935h3.362v-5.043h-3.362v1.85h1.008v1.26h-1.008v1.933zm0-5.967v-1.765h3.362v1.765h-3.362zm0-2.605v-1.765h3.362v1.765h-3.362zm0-2.606v-4.287c.336-.084.504-.168.672-.252 0 .084 0 .252.084.505.337 1.092.672 1.765.841 2.269h2.017v1.765h-3.614zm0-4.286v4.287h-3.446v-1.765h2.017c-.252-.756-.504-1.344-.672-2.017a38.406 38.406 0 0 0 1.849-.504l.252-.001zm0 5.126v1.765h-3.278v-1.765h3.278zm0 2.606v1.765h-3.278v-1.765h3.278zm0 2.689v1.85H50.26v1.26h1.009v1.933h-3.278v-5.043h3.278zm0 6.388v2.606h-3.446v-2.606h3.446zm0 3.53v2.437h-3.446v-2.437h3.446zm0 3.362v2.857h-3.446v-2.857h3.446zm-3.446-12.018l.168-.084-.168-.672v.756zm0-9.162v1.765h-.168v-1.765h.168zm0 8.405l-.924-3.531-1.849.672.251.925c-.42.084-.924.168-1.428.168 0 0 .42-.505 1.177-1.345 1.429-1.766 2.354-2.774 2.605-3.278-.924-.673-1.597-1.177-2.101-1.43l-.756 1.43h-1.093v6.891a926.15 926.15 0 0 0 2.27-.252l.251.925a4.489 4.489 0 0 0-1.176.504c.084.252.251.84.504 1.681.168.924.336 1.512.42 1.849l1.68-.672c-.083-.336-.336-1.176-.672-2.438-.168-.504-.251-.84-.251-.924l1.092-.42v-.755zm0 5.883v2.606h-4.118v-2.606h4.118zm0 3.53v2.437h-3.025l-.168.925h3.193v2.857h-4.118v-6.219h4.118zm-4.118-4.118v-3.53l.672-.084c.168 1.261.252 2.354.252 3.446l-.924.168zm0-12.019v-4.034c.756.42 1.429.84 2.018 1.26-.169.505-.842 1.429-2.018 2.774zm0-4.034v4.034c-.168.084-.252.252-.336.336h.336v6.891c-.841.168-1.597.336-2.438.589v-3.109c.589-.421 1.177-1.093 1.85-2.018-.504 0-1.177.084-1.85.168v-3.194c.673-.672 1.346-1.933 2.102-3.866.083.085.168.085.336.169zm0 12.523v3.53l-1.009.168v-3.614l1.009-.084zm0 4.118v2.606h-2.438v-2.606h2.438zm0 3.53v6.219h-2.438v-4.875c.085-.672.168-1.093.168-1.345h2.27v.001zm-2.438-3.95v-3.866c.336 0 .673.084 1.009.084-.336 1.765-.588 3.025-.84 3.782h-.169zm0-12.523v3.194c-.167.084-.335.084-.42.084-.42-1.597-.588-2.521-.588-2.689.336 0 .672-.169 1.008-.589zm0 5.043v3.109c-.083 0-.251.084-.42.084-.42-1.849-.588-2.773-.504-2.858.336.001.588-.167.924-.335zm0 3.613v3.866l-1.933-.503a8.595 8.595 0 0 0 1.009-3.363h.924zm0 4.287v2.606-2.606zm0 4.875v4.875h-.42c.084-1.009.252-2.606.42-4.791v-.084zm-4.959 7.733v-13.028c.925.673 1.849 1.261 2.774 1.849-.756 2.438-1.681 6.136-2.774 11.179zm0-14.289v-5.631a24.853 24.853 0 0 1 2.102 2.101l.672.673-2.606 2.941c-.083 0-.083-.084-.168-.084zm0-8.321v-5.21c1.429 1.092 2.69 2.437 3.782 4.118l-2.605 2.605c-.337-.504-.756-1.008-1.177-1.513zm-21.6 7.901h13.869v5.463h-3.531v.42h-2.857c.672.421 1.681 1.345 2.857 2.69l-3.109 1.345-1.009-1.093c-.505 0-1.345.085-2.354.168h-1.597v1.008h9.413v2.102h-9.413v.924h12.355v2.438H14.708v-8.405l4.371-.167c-.084-.168-.252-.336-.504-.505a2.79 2.79 0 0 0-.672-.505h-3.194v-2.521h9.834v-1.008h-9.834v-2.354h-.001zm21.6-13.111v5.21a14.734 14.734 0 0 0-2.689-2.857l2.437-2.522c.084.085.169.169.252.169zm0 7.9v5.631c-.42-.42-.504-.588-.336-.42-1.345-1.429-2.438-2.689-3.362-3.614l2.185-3.026c.421.42 1.009.841 1.513 1.429zm0 6.892v13.028c0 .251-.083.42-.083.672l-4.035-2.521c1.093-2.101 2.438-5.883 3.866-11.431l.252.252zm-21.6-2.689v-2.102h6.556v-1.008h-6.556v-2.017h11.094v5.127H14.708zm0-6.136v-6.892c1.934-.083 2.69.084 2.438.42 0 .085-.084.168-.168.336a1.42 1.42 0 0 0-.252.841H28.66v2.27H16.725v.924h10.17v2.102H14.708zM.925 160.561h13.783v2.354H4.79v1.008h9.917v2.521h-1.68c-.168.085-.42.252-.925.588-.504.421-.756.589-.925.673l3.53-.084v8.405H0v-2.438h12.355v-.924H2.689v-2.102h9.666v-.924h-1.933c-.841 0-2.186.167-4.035.42-.42.083-.756.168-.84.168-.252-.589-.504-1.345-.84-2.522 1.261-.168 2.521-.588 3.614-1.261H4.034v-.42H.925v-5.462zm13.783-14.036v6.892H2.437v-2.102h10.002v-.924H.756v-2.27h11.683v-1.597h1.345l.924.001zm0 7.901v2.017h-6.64v1.008h6.639v2.102H3.782v-5.127h10.926zM246.931 195.272v-1.933c.672 0 1.177-.168 1.514-.672.42-.42.672-1.093.672-2.017 0-.84-.252-1.513-.672-1.933-.336-.505-.841-.757-1.514-.757v-1.765c1.345 0 2.438.42 3.278 1.261.841.756 1.261 1.849 1.261 3.194s-.42 2.438-1.261 3.278c-.84.925-1.933 1.344-3.278 1.344zm14.373-.167h-2.353v-4.539c0-.925-.084-1.513-.168-1.849-.084-.252-.252-.42-.42-.588a1.417 1.417 0 0 0-.84-.252c-.42 0-.756.084-1.092.336-.336.168-.504.505-.672.841-.084.42-.168 1.093-.168 2.018v4.034h-2.269v-8.741h2.101v1.26c.756-.924 1.765-1.429 2.941-1.429.504 0 .924.084 1.345.252.42.167.757.42 1.008.672.168.336.336.672.42.924.084.336.168.924.168 1.597v5.464zm-14.373-8.91v1.765c-.588 0-1.092.252-1.512.757-.42.42-.589 1.092-.589 1.933 0 .924.168 1.597.589 2.017.42.504.924.672 1.512.672v1.933a5.536 5.536 0 0 1-2.269-.504c-.756-.421-1.261-.924-1.681-1.681a5.59 5.59 0 0 1-.588-2.522c0-.756.252-1.513.588-2.269.42-.588.925-1.177 1.596-1.513.758-.419 1.514-.588 2.354-.588zm-20.423 8.91v-1.514c.336 0 .589-.167.924-.335.252-.253.421-.504.504-.841.084-.168.168-.504.168-1.093v-.504c-.335.168-.84.253-1.429.421h-.168v-1.429c.757-.168 1.261-.336 1.597-.504v-.168c0-.504-.168-.756-.335-1.008-.252-.168-.672-.252-1.261-.252v-1.681h.168c1.009 0 1.766.084 2.27.336s.925.588 1.093.924c.168.42.335 1.009.335 2.018l-.084 2.689c0 .756.084 1.345.168 1.765.084.336.168.756.42 1.177h-2.354c0-.168-.083-.421-.167-.757-.084-.083-.084-.167-.084-.251-.42.42-.841.672-1.261.924-.168-.001-.336.083-.504.083zm10.17-8.741v1.765h-1.597V192.92c.084.168.168.252.252.336.084.083.252.083.42.083s.504-.083.924-.251l.168 1.849c-.504.252-1.177.336-1.849.336-.42 0-.756-.084-1.092-.167-.336-.168-.588-.336-.757-.589-.167-.252-.252-.504-.336-.925 0-.252-.084-.84-.084-1.597v-3.866h-1.009v-1.765h1.009v-1.765l2.354-1.345v3.11h1.597zm1.596-1.177v-2.185h2.354v2.185h-2.354zm0 9.918v-8.741h2.354v8.741h-2.354zm-11.766-8.91v1.681c-.42 0-.757.084-1.008.252-.168.168-.42.42-.504.84l-2.101-.42a2.898 2.898 0 0 1 1.176-1.765c.588-.419 1.345-.588 2.437-.588zm0 3.615v1.429c-.588.168-.924.252-1.092.335-.336.252-.504.505-.504.841 0 .336.168.588.42.841.252.252.505.42.925.42.084 0 .168-.084.252-.084v1.514c-.336.083-.672.167-1.008.167-.841 0-1.597-.252-2.101-.756s-.757-1.092-.757-1.849c0-.504.084-.924.336-1.345.253-.336.588-.672 1.009-.84.421-.253 1.009-.42 1.85-.589.25 0 .418-.084.67-.084zm-9.834 5.378v-1.765c.588 0 1.009-.252 1.429-.672.336-.42.504-1.093.504-2.017 0-1.009-.168-1.766-.504-2.186-.42-.42-.841-.672-1.429-.672v-1.681c.756.168 1.345.588 1.934 1.177v-4.371h2.353v12.103h-2.185v-1.345c-.336.504-.757.924-1.261 1.177-.252.085-.589.169-.841.252zm0-8.993v1.681c-.504 0-1.008.252-1.344.672-.421.42-.588 1.092-.588 1.934 0 .924.167 1.597.42 2.017.336.589.84.925 1.513.925v1.765c-.168.084-.42.084-.588.084a3.262 3.262 0 0 1-2.606-1.26c-.756-.756-1.092-1.933-1.092-3.362 0-1.513.336-2.605 1.008-3.277.756-.841 1.597-1.177 2.69-1.177.167-.002.419-.002.587-.002zm-30.761 9.077v-1.933c.588 0 1.092-.168 1.513-.672.42-.42.589-1.093.589-2.017 0-.84-.168-1.513-.589-1.933-.42-.505-.925-.757-1.513-.757v-1.765c1.261 0 2.353.42 3.194 1.261.924.756 1.344 1.849 1.344 3.194s-.42 2.438-1.344 3.278c-.841.925-1.933 1.344-3.194 1.344zm12.103-.167v-1.345c-.336.504-.756.84-1.261 1.093a3.824 3.824 0 0 1-1.681.42c-.588 0-1.093-.167-1.597-.42a2.552 2.552 0 0 1-1.009-1.093c-.168-.42-.252-1.093-.252-1.933v-5.463h2.27v3.95c0 1.26.083 2.017.168 2.269.083.252.252.505.42.673.252.168.504.252.924.252.336 0 .756-.084 1.008-.336.336-.252.589-.504.673-.84.084-.252.168-1.092.168-2.354v-3.614h2.353v8.741h-2.184zm12.524 0h-2.354v-4.539c0-.925 0-1.513-.084-1.849-.084-.252-.252-.42-.504-.588a1.422 1.422 0 0 0-.841-.252c-.336 0-.756.084-1.009.336a1.336 1.336 0 0 0-.672.841c-.168.42-.168 1.093-.168 2.018v4.034h-2.354v-8.741h2.185v1.26c.756-.924 1.681-1.429 2.858-1.429.504 0 1.008.084 1.429.252.42.167.756.42.925.672.251.336.42.672.503.924.085.336.085.924.085 1.597v5.464zm-24.627-8.91v1.765c-.588 0-1.176.252-1.513.757-.42.42-.673 1.092-.673 1.933 0 .924.253 1.597.673 2.017.336.504.924.672 1.513.672v1.933c-.84 0-1.597-.167-2.27-.504-.756-.421-1.344-.924-1.68-1.681-.421-.673-.588-1.514-.588-2.522 0-.756.167-1.513.588-2.269a3.97 3.97 0 0 1 1.596-1.513c.673-.419 1.429-.588 2.354-.588zm-24.962 9.077v-1.765h.083c.42 0 .672-.084.925-.252.252-.253.504-.504.588-1.009l2.354.42c-.336.841-.841 1.513-1.43 1.933-.671.42-1.428.672-2.437.672h-.083v.001zm0-3.95v-1.429h1.765c-.084-.672-.252-1.176-.588-1.513-.337-.336-.673-.504-1.177-.504v-1.681c1.261 0 2.186.42 2.941 1.261.756.756 1.093 2.102 1.093 3.866h-4.034zm10.674 3.783v-12.103h8.321v2.101h-5.883v2.773h5.042v2.017h-5.042v5.211h-2.438zm-10.674-8.91v1.681c-.504 0-.925.168-1.261.589-.336.335-.504.84-.504 1.428h1.765v1.429h-1.765c0 .757.168 1.261.504 1.597.336.42.757.588 1.261.588v1.765c-1.513 0-2.605-.504-3.278-1.513-.588-.757-.84-1.765-.84-3.025 0-1.429.336-2.605 1.092-3.362a4 4 0 0 1 2.858-1.177h.168zm-29.164 9.077v-1.765h.167c.336 0 .673-.084.925-.252.252-.253.42-.504.504-1.009l2.353.42c-.336.841-.756 1.513-1.429 1.933-.672.42-1.429.672-2.437.672.001.001.001.001-.083.001zm0-3.95v-1.429h1.765c0-.672-.168-1.176-.504-1.513-.336-.336-.756-.504-1.26-.504v-1.681c1.26 0 2.269.42 2.941 1.261.756.756 1.177 2.102 1.092 3.866h-4.034zm13.951 3.783h-2.354v-4.539c0-.925-.083-1.513-.168-1.849-.084-.252-.252-.42-.42-.588a1.417 1.417 0 0 0-.84-.252c-.421 0-.757.084-1.093.336-.336.168-.504.505-.672.841-.083.42-.168 1.093-.168 2.018v4.034h-2.269v-8.741h2.101v1.26c.757-.924 1.766-1.429 2.942-1.429.505 0 .925.084 1.345.252.42.167.756.42 1.008.672.168.336.336.672.42.924.084.336.168.924.168 1.597v5.464zm10.002-6.22l-2.354.42c0-.504-.252-.84-.504-1.008-.252-.252-.588-.336-1.009-.336-.588 0-1.092.168-1.428.588-.336.336-.505 1.009-.505 2.017s.168 1.765.505 2.186c.336.42.84.588 1.428.588.42 0 .757-.083 1.092-.336.253-.251.505-.672.589-1.26l2.27.336c-.252 1.092-.673 1.849-1.345 2.354-.672.588-1.597.84-2.69.84-1.344 0-2.353-.42-3.109-1.176-.757-.84-1.093-1.933-1.093-3.446 0-1.429.336-2.521 1.093-3.277.756-.757 1.849-1.177 3.109-1.177 1.093 0 1.934.168 2.521.672.673.418 1.094 1.09 1.43 2.015zm-23.953-2.69v1.681c-.504 0-.925.168-1.261.589-.336.335-.504.84-.421 1.428h1.682v1.429h-1.765c0 .757.168 1.261.588 1.597.336.42.672.588 1.177.588v1.765c-1.429 0-2.521-.504-3.278-1.513-.505-.757-.757-1.765-.757-3.025 0-1.429.336-2.605 1.008-3.362.757-.757 1.766-1.177 2.942-1.177h.085zM92.2 195.188v-1.597c.336 0 .588-.167.925-.335.251-.253.42-.504.504-.841.084-.168.167-.504.167-1.093v-.504c-.335.168-.84.253-1.428.421H92.2v-1.429c.672-.168 1.261-.336 1.596-.504v-.168c0-.504-.167-.756-.335-1.008-.252-.168-.672-.252-1.261-.252v-1.681h.168c1.008 0 1.765.084 2.269.336.505.252.925.588 1.093.924.168.42.336 1.009.336 2.018l-.084 2.689c0 .756.084 1.345.168 1.765.084.336.168.756.42 1.177h-2.353c0-.168-.084-.421-.168-.757-.084-.083-.084-.167-.084-.251-.42.42-.84.672-1.261.924-.167-.001-.336.083-.504.166zm10.254-4.034l2.354-.252c.168.756.42 1.345.841 1.765.42.336 1.008.589 1.765.589.84 0 1.429-.168 1.765-.504.42-.336.672-.757.672-1.177 0-.335-.083-.588-.252-.756-.168-.168-.504-.335-.924-.504-.252-.084-.925-.336-1.933-.589-1.345-.251-2.27-.672-2.773-1.176-.756-.672-1.092-1.345-1.092-2.354 0-.588.168-1.176.503-1.681.336-.588.841-1.008 1.514-1.261a6.556 6.556 0 0 1 2.353-.42c1.513 0 2.689.336 3.446 1.008.756.673 1.176 1.514 1.261 2.69l-2.438.083c-.168-.672-.336-1.092-.672-1.345-.42-.251-.924-.42-1.597-.42-.672 0-1.26.168-1.681.42-.251.168-.336.42-.336.757s.084.588.336.756c.336.252 1.093.504 2.27.84 1.177.252 2.017.42 2.605.757.588.336 1.008.672 1.345 1.26.336.505.504 1.177.504 1.933 0 .673-.252 1.345-.588 1.934-.421.588-.924 1.008-1.681 1.345-.672.252-1.513.42-2.605.42-1.513 0-2.689-.336-3.53-1.008-.844-.756-1.348-1.765-1.432-3.11zm19.499-2.269l-2.269.42c-.084-.504-.252-.84-.504-1.008-.336-.252-.672-.336-1.092-.336-.589 0-1.009.168-1.43.588-.335.336-.503 1.009-.503 2.017s.168 1.765.588 2.186c.336.42.756.588 1.345.588.504 0 .84-.083 1.092-.336.336-.251.504-.672.588-1.26l2.269.336c-.167 1.092-.672 1.849-1.345 2.354-.672.588-1.596.84-2.689.84-1.26 0-2.269-.42-3.026-1.176-.84-.84-1.176-1.933-1.176-3.446 0-1.429.336-2.521 1.176-3.277.757-.757 1.766-1.177 3.11-1.177 1.009 0 1.849.168 2.521.672.588.418 1.093 1.09 1.345 2.015zm1.765-3.698v-2.185h2.354v2.185h-2.354zm0 9.918v-8.741h2.354v8.741h-2.354zm-31.518-8.91v1.681c-.42 0-.756.084-1.009.252-.168.168-.42.42-.504.84l-2.101-.42a2.895 2.895 0 0 1 1.177-1.765c.588-.419 1.344-.588 2.437-.588zm0 3.615v1.429c-.588.168-.925.252-1.093.335-.336.252-.504.505-.504.841 0 .336.168.588.42.841.168.252.505.42.925.42.084 0 .168-.084.252-.084v1.597c-.336 0-.672.084-1.009.084-.84 0-1.597-.252-2.101-.756s-.757-1.092-.757-1.849c0-.504.084-.924.336-1.345.252-.336.588-.672 1.008-.84.42-.253 1.009-.42 1.85-.589.253 0 .421-.084.673-.084zm-15.045 5.378v-1.597c.336 0 .588-.167.925-.335.251-.253.42-.504.588-.841 0-.168.084-.504.084-1.093v-.504c-.336.168-.841.253-1.429.421h-.168v-1.429c.756-.168 1.261-.336 1.597-.504v-.168c0-.504-.168-.756-.336-1.008-.252-.168-.672-.252-1.261-.252v-1.681h.168c1.008 0 1.765.084 2.269.336.505.252.925.588 1.093.924.168.42.337 1.009.337 2.018l-.084 2.689c0 .756.084 1.345.168 1.765.083.336.168.756.42 1.177h-2.354c0-.168-.083-.421-.168-.757-.084-.083-.084-.167-.084-.251-.42.42-.84.672-1.26.924-.168-.001-.336.083-.505.166zm10.17-8.824v1.765h-1.596V192.92c.084.168.168.252.252.336.083.083.252.083.42.083.168 0 .504-.083.924-.251l.168 1.849c-.504.252-1.177.336-1.849.336-.42 0-.756-.084-1.093-.167-.336-.168-.588-.336-.756-.589-.168-.252-.252-.504-.336-.925 0-.252-.084-.84-.084-1.597v-3.866h-1.009v-1.765h1.009v-1.765l2.354-1.345v3.11h1.596zm-10.17-.169v1.681c-.42 0-.756.084-1.008.252-.168.168-.42.42-.504.84l-2.101-.42a2.894 2.894 0 0 1 1.176-1.765c.589-.419 1.345-.588 2.437-.588zm0 3.615v1.429c-.588.168-.925.252-1.092.335-.336.252-.505.505-.505.841 0 .336.168.588.421.841.251.252.504.42.924.42.084 0 .168-.084.252-.084v1.597c-.336 0-.672.084-1.008.084-.84 0-1.597-.252-2.102-.756-.503-.504-.756-1.092-.756-1.849 0-.504.084-.924.336-1.345.252-.336.588-.672 1.008-.84.421-.253 1.009-.42 1.849-.589.253 0 .421-.084.673-.084zm-10.421 5.295v-2.102c.252 0 .504-.083.672-.083.42-.084.756-.252 1.009-.504.252-.252.504-.672.672-1.176.084-.504.168-1.261.168-2.186 0-1.009-.084-1.597-.168-2.102-.167-.504-.42-.924-.756-1.176a2.282 2.282 0 0 0-1.093-.588c-.168 0-.337 0-.504-.084v-2.101c.672.083 1.26.168 1.681.251.756.253 1.345.588 1.849 1.093.504.588.924 1.26 1.176 2.017.252.756.42 1.597.42 2.773a8.028 8.028 0 0 1-.42 2.605 5.206 5.206 0 0 1-1.261 2.102c-.42.42-1.008.756-1.765 1.008-.42.085-1.008.169-1.68.253zm0-12.103v2.101h-2.606v7.9h2.607v2.102H61.69v-12.103H66.734zM40.51 195.188v-1.597c.336 0 .589-.167.925-.335.252-.253.42-.504.504-.841.084-.168.168-.504.168-1.093v-.504c-.336.168-.841.253-1.429.421h-.168v-1.429c.673-.168 1.261-.336 1.597-.504v-.168c0-.504-.168-.756-.336-1.008-.252-.168-.672-.252-1.261-.252v-1.681h.168c1.009 0 1.765.084 2.27.336.503.252.924.588 1.092.924.168.42.336 1.009.336 2.018l-.084 2.689c0 .756.084 1.345.168 1.765.084.336.168.756.42 1.177h-2.354c0-.168-.083-.421-.167-.757-.084-.083-.084-.167-.084-.251-.42.42-.84.672-1.26.924-.168-.001-.336.083-.505.166zm14.121-.083h-2.354v-4.539c0-.925 0-1.513-.168-1.849-.084-.252-.252-.42-.42-.588a1.42 1.42 0 0 0-.841-.252c-.42 0-.756.084-1.092.336-.336.168-.505.505-.672.841-.085.42-.168 1.093-.168 2.018v4.034h-2.269v-8.741h2.101v1.26c.756-.924 1.765-1.429 2.941-1.429.504 0 .924.084 1.344.252.421.167.757.42 1.01.672.167.336.336.672.42.924.083.336.168.924.168 1.597v5.464zm-14.121-8.91v1.681c-.42 0-.756.084-1.008.252-.168.168-.42.42-.504.84l-2.101-.42a2.898 2.898 0 0 1 1.176-1.765c.589-.419 1.345-.588 2.437-.588zm0 3.615v1.429c-.588.168-.924.252-1.092.335-.336.252-.504.505-.504.841 0 .336.168.588.42.841.168.252.504.42.925.42.084 0 .168-.084.251-.084v1.597c-.335 0-.672.084-1.008.084-.84 0-1.597-.252-2.101-.756s-.756-1.092-.756-1.849c0-.504.084-.924.336-1.345.253-.336.588-.672 1.009-.84.42-.253 1.008-.42 1.849-.589.251 0 .42-.084.671-.084zm-27.231 5.378v-1.597c.252 0 .588-.167.925-.335.252-.253.42-.504.503-.841.085-.168.085-.504.085-1.093v-.504c-.253.168-.756.253-1.429.421h-.084v-1.429c.672-.168 1.177-.336 1.513-.504v-.168c0-.504-.085-.756-.336-1.008-.168-.168-.588-.252-1.177-.252v-1.681h.084c1.093 0 1.849.084 2.354.336s.84.588 1.093.924c.168.42.252 1.009.252 2.018v2.689c0 .756 0 1.345.084 1.765.084.336.252.756.42 1.177h-2.27a4.001 4.001 0 0 1-.251-.757c0-.083 0-.167-.084-.251-.336.42-.756.672-1.26.924a.642.642 0 0 0-.422.166zm6.136-10.001v-2.185h2.269v2.185h-2.269zm0 9.918v-8.741h2.269v8.741h-2.269zm6.303 0l-2.773-8.741h2.269l1.597 5.715 1.513-5.715h2.27l1.428 5.715 1.681-5.715h2.27l-2.773 8.741h-2.27l-1.513-5.715-1.429 5.715h-2.27zM9.497 183.002h.168v2.101h-.168v-2.101zm3.782 3.193v1.681h-.084c-.42 0-.673.084-.925.252-.251.168-.42.42-.588.84l-2.102-.42c.252-.756.672-1.345 1.261-1.765.505-.419 1.346-.588 2.438-.588zm0 3.615v1.429c-.588.168-.924.252-1.177.335-.252.252-.42.505-.42.841 0 .336.083.588.336.841.251.252.588.42.924.42.084 0 .168-.084.336-.084v1.597c-.336 0-.672.084-1.009.084-.924 0-1.597-.252-2.101-.756-.336-.252-.504-.588-.672-.925v-1.849c.084-.084.168-.252.252-.42a1.82 1.82 0 0 1 .924-.84c.421-.253 1.093-.42 1.849-.589.254 0 .506-.084.758-.084zm-9.665 5.295v-10.002H0v-2.101h9.497v2.101H6.051v10.002H3.614zm5.883-3.362c-.084.336-.168.588-.168.924s.084.672.168.924v-1.848z"/></g><path fill="#F08300" d="M71.945 3.728h16.389v16.306H71.945z"/><path fill="#F08300" d="M84.888 16.671h25.298V41.97H84.888z"/><path fill="#0068B7" d="M84.888 60.292h25.298V85.59H84.888zM163.472 60.292h25.299V85.59h-25.299z"/><path fill="#0068B7" d="M123.55 16.671h40.09c8.405 0 24.794 7.312 24.962 25.299h-39.838v43.62H123.55V16.671zM71.945 105.594v-5.8h25.214v5.8h-9.666v19.331h-5.799v-19.331h-9.749zm29.416-5.8h19.331c2.186 0 3.951.757 5.463 2.27s2.269 3.278 2.269 5.462v9.666c0 2.186-.756 3.95-2.269 5.463-1.513 1.513-3.278 2.27-5.463 2.27h-19.331V109.46h5.799v9.666h13.532c.589 0 1.009-.168 1.429-.588.336-.336.504-.84.504-1.345v-9.666c0-.503-.168-1.008-.588-1.344-.335-.42-.84-.588-1.345-.588h-19.331v-5.801zm38.998 0h21.264v5.8h-21.264c-.588 0-1.008.168-1.429.504-.336.42-.588.84-.504 1.428 0 2.354 2.857 2.018 5.042 2.018 3.362 0 6.724-.168 10.086 0 1.85.084 3.278.588 4.287 1.177 2.437 1.176 3.613 3.361 3.613 6.555 0 2.102-.756 3.951-2.269 5.463-1.513 1.513-3.362 2.269-5.463 2.269h-21.096v-5.883h21.096c.504 0 1.008-.168 1.345-.588.42-.336.588-.84.588-1.345 0-.84-.42-1.345-1.26-1.681-.168 0-.337-.084-.505-.084-4.202-.252-8.741.084-12.943-.083-2.102 0-3.698-.673-4.875-1.261-2.354-1.261-3.446-3.446-3.446-6.556 0-2.185.672-3.95 2.185-5.462s3.363-2.271 5.548-2.271zm25.551 25.131V109.46h22.188v5.799h-16.39v9.666h-5.798zm0-19.331v-5.8h22.944v5.8H165.91z"/></svg>