<svg xmlns="http://www.w3.org/2000/svg" xmlns:xlink="http://www.w3.org/1999/xlink" width="207.995" height="63" viewBox="0 0 207.995 63"><defs><path id="a" d="M0 0h207.995v63H0z"/></defs><clipPath id="b"><use xlink:href="#a" overflow="visible"/></clipPath><path clip-path="url(#b)" fill="#FFF" d="M58.569 60.933H5.097a2.688 2.688 0 0 1-2.688-2.688V4.813a2.689 2.689 0 0 1 2.688-2.688h53.472a2.688 2.688 0 0 1 2.688 2.688v53.432a2.688 2.688 0 0 1-2.688 2.688"/><path clip-path="url(#b)" fill="#00A0DC" d="M5.179 2.067h53.309a2.777 2.777 0 0 1 2.769 2.769v25.12H49.796l-5.218 11.992-7.665-18.433-7.415 17.045H2.41V4.836a2.777 2.777 0 0 1 2.769-2.769"/><path clip-path="url(#b)" fill="#00A0DC" d="M61.257 32.502v25.644a2.778 2.778 0 0 1-2.77 2.769H5.179a2.778 2.778 0 0 1-2.769-2.769v-15.04h29.137l5.221-12 7.68 18.434 7.412-17.037h9.397z"/><path clip-path="url(#b)" fill="#036EB8" d="M87.404 15.028h-9.726v19.168H74.86V5.908h12.544v9.12zm-2.656-7.04h-7.07v1.439h7.07V7.988zm-7.07 4.96h7.07v-1.632h-7.07v1.632zm8.062 2.56l-1.664 1.728c-.382.384-.896.831-1.533 1.344l1.375.032 1.247.032c.448-.32.747-.555.896-.704l.609-.64 2.047.64c-2.325 2.154-4.331 3.626-6.016 4.416l1.761-.032 1.567-.096-.192-.48-.224-.544 1.76-.224a28.61 28.61 0 0 1 1.185 3.328l-2.08.353-.097-.706-3.521.161-3.68.096-.447-2.016.961.096c.254-.128.458-.224.606-.288a21.919 21.919 0 0 0 2.915-1.6c.083-.064.2-.138.351-.224l-1.888.064-2.05.032-.383-1.888.896.064c.256-.235.459-.416.607-.544 1.237-1.108 2.123-2.058 2.656-2.849l2.336.449zm-4.19 18.305l-1.313-2.209c3.009-.277 4.618-1.088 4.832-2.432h-5.217V25.3h2.402v1.888h2.911v-2.176h2.497v3.393c0 2.9-2.039 4.703-6.112 5.408m12.672-18.274c-.578.727-1.067 1.281-1.473 1.665l-1.534 1.472h3.007l.703-.64.607-.672 2.081.736c-1.599 1.707-3.263 3.093-4.992 4.16-.128.064-.286.16-.479.288l1.919-.128c.789 0 1.313-.064 1.568-.192l-.224-.416-.255-.576 1.695-.384.737 1.664c.086.235.245.726.479 1.473.021.085.065.203.128.351l-1.888.448-.255-.833-3.456.29-3.329.126-.544-1.951h.769l.606-.352c.451-.256.802-.49 1.058-.704l1.567-1.184-2.143.128-1.92.032-.45-1.792.706.032a16.646 16.646 0 0 0 3.039-3.424l2.273.383zm-2.208 9.473v2.624h2.753V25.3h2.398v4.416h-5.151v4.032h-2.497v-8.736h2.497zm3.872 6.049l2.657.158c.724 0 1.086-.329 1.086-.991v-15.2H89.582v-9.12h12.865v25.088c0 .917-.198 1.627-.594 2.128-.393.501-1.198.751-2.414.751h-2.594l-.959-2.814zM92.269 9.427h7.36V7.988h-7.36v1.439zm7.36 1.888h-7.36v1.632h7.36v-1.632zM115.853 31.316c-2.559.938-5.674 1.708-9.344 2.305l-.32-2.753 2.529-.384 1.888-.352v-9.761h-4.158v-2.399h4.158v-2.784h-2.625v-1.632l-.989 1.056-1.088-2.657c.341-.362.627-.661.863-.896 1.664-1.749 2.975-3.797 3.936-6.144h2.56l1.919 2.752 2.113 2.976-1.951 1.793-1.698-2.689-1.471-2.24c-.662 1.75-1.803 3.499-3.425 5.249h7.073v2.432h-2.72v2.784h3.009v2.399h-3.009v9.249l1.406-.416 1.633-.48v2.337c.789-.79 1.548-1.824 2.271-3.106.065-.126.162-.297.289-.511-.406-.917-.789-1.994-1.151-3.232l-.929-3.296 2.015-.736.545 1.856c.299 1.109.556 1.91.769 2.4.299-1.13.492-2.325.576-3.584l.257-3.104h-3.489v-1.984c1.195-2.176 2.039-4.277 2.528-6.304.064-.299.148-.66.255-1.089h-3.519V6.132h5.951V8.18c-.128.533-.233.97-.32 1.312-.534 2.346-1.217 4.352-2.047 6.016h3.039v1.887c-.148 4.31-.724 7.649-1.727 10.018 1.323 1.876 3.25 2.9 5.792 3.071v-2.945h-4.031v-2.335h4.031v-2.176h-3.521v-2.336h3.521v-1.92h-3.521V16.5h3.521v-2.464h-4.353v-2.208h4.353V9.427h-3.521V7.156h3.521V4.787h2.398v2.369H134v4.672h1.375v2.208H134v4.736h-4.354v1.92h4.93v2.336h-4.93v2.176h5.186v2.335h-5.186v3.137h2.497c1.237 0 2.315-.086 3.232-.256l-.513 2.688h-4.736c-2.56 0-4.588-.25-6.08-.752-1.493-.501-2.764-1.402-3.808-2.704-1.109 1.749-2.357 3.263-3.745 4.543l-1.409-2.176.769-.703zm-8.127-2.624l-.352-3.199c-.193-1.601-.341-2.646-.448-3.137l2.047-.288.514 3.009c.064.49.169 1.354.319 2.591 0 .17.021.384.063.64l-2.143.384zm8.705-6.688l-.13 2.657a29.62 29.62 0 0 1-.351 2.783l-2.047-.256c.021-.192.042-.352.062-.48.171-.981.278-1.728.32-2.24l.191-2.56 1.955.096zm15.295-12.577h-2.081v2.4h2.081v-2.4zm.032 4.609h-2.112V16.5h2.112v-2.464z"/><path clip-path="url(#b)" fill="#3E3A39" d="M148.943 11.124H137.87V8.468h4.385l-.544-1.632a17.873 17.873 0 0 0-.8-1.696l2.912-.384.255.512c.383.832.768 1.898 1.154 3.2h3.711v2.656zm-10.337 2.113h9.761v2.496h-9.761v-2.496zm0 4.703h9.761v2.464h-9.761V17.94zm.097 4.993h9.729v10.943h-2.721v-1.439h-4.289v1.759h-2.719V22.933zm7.008 2.432h-4.289v4.64h4.289v-4.64zm14.208-3.681h7.425v2.785h-7.425v9.727h-2.911v-9.727h-7.393v-2.785h7.393V8.66h-6.945V5.876h16.865V8.66h-7.009v13.024zm-7.521-2.336c-.127-.554-.234-1.012-.32-1.376-.555-2.602-1.182-4.811-1.888-6.624l2.625-.736c.617 1.579 1.055 2.827 1.312 3.744l1.183 4.256-2.912.736zm14.372-8.192c-.792 3.286-1.678 6.091-2.657 8.417l-2.722-1.28a46.128 46.128 0 0 0 2.367-6.465c.086-.341.214-.789.387-1.344l2.625.672zM169.87 11.06V8.404h3.907l-.514-1.408a11.01 11.01 0 0 0-.83-1.856l2.75-.384c.299.47.575 1.119.833 1.951l.576 1.697h3.328v2.656h-10.05zm.961 2.08h8.48v2.56h-8.48v-2.56zm0 4.704h8.32v2.528h-8.32v-2.528zm8.289 16.032h-2.559v-1.504h-3.074v1.823h-2.56V22.868h8.192v11.008zm-2.558-8.575h-3.073v4.608h3.073v-4.608zm7.197-12.705l-.382.288a7.617 7.617 0 0 1-.865.576l-1.44.864-1.599-2.624c1.3-.532 2.768-1.417 4.398-2.656 1.633-1.236 2.992-2.614 4.08-4.128h3.042c1.94 2.261 4.725 4.364 8.353 6.304l-1.151 2.784a4.231 4.231 0 0 0-.451-.224 16.462 16.462 0 0 1-.958-.512l-1.281-.768v1.984H183.76v-1.888zm9.312 20.223h-2.56v-6.687h-2.078v6.687h-2.529v-6.687h-2.049v8.062h-2.657v-17.47h16.804v13.92c0 1.089-.198 1.904-.595 2.449-.393.545-1.196.815-2.414.815h-1.696l-.226-1.089zm-7.167-13.598h-2.049v4.416h2.049v-4.416zm8.545-7.426c-1.581-1.088-3.211-2.539-4.896-4.352-1.047 1.344-2.615 2.794-4.706 4.352h9.602zm-3.937 7.426h-2.078v4.416h2.078v-4.416zm4.834.063h-2.273v4.384h2.273v-4.384zm-.738 12.001c.489 0 .737-.267.737-.801v-4.319h-2.274v5.055l1.537.065z"/><path clip-path="url(#b)" fill="#595757" d="M77.261 43.584l1.359.674c-.916 2.347-2.484 4.533-4.703 6.561l-1.073-1.36c1.247-1.1 2.193-2.113 2.831-3.041a16.65 16.65 0 0 0 1.586-2.834m7.888 5.649c-.141 4.276-.401 6.769-.784 7.473a1.79 1.79 0 0 1-.818.816c-.351.17-1.171.256-2.463.256-.448 0-.714-.006-.802-.017l-.445-1.487c1.099.03 1.914.049 2.445.049.471 0 .776-.321.922-.961.146-.642.265-2.203.359-4.689h-3.68c-.224 1.271-.604 2.398-1.143 3.384-.539.988-1.318 1.899-2.336 2.736-1.018.838-1.63 1.256-1.831 1.256l-1.026-1.328c1.537-.819 2.654-1.709 3.354-2.664.699-.953 1.165-2.082 1.399-3.384h-2.591v-1.439h9.44zm-1.729-5.504c.662 1.26 1.281 2.268 1.857 3.022.576.758 1.349 1.606 2.32 2.545l-1.281 1.216c-1.334-1.333-2.581-3.108-3.742-5.328h-3.011v-1.455h3.857zM97.853 53.938h5.71v1.407h-6.127V56.29c0 .618-.119 1.047-.359 1.288-.24.24-.721.359-1.448.359H93.34l-.318-1.455 2.271.047c.351 0 .528-.166.528-.496v-.688h-6.992v-1.407h6.992v-.593l1.391-.352 1.826-.544h-8.993v-1.375h11.824v1.229c-1.003.535-2.154 1.015-3.456 1.441-.149.055-.336.12-.56.194m-8.849-8v-1.409h6.112l-.224-.432-.318-.526 1.758-.21.336.608.274.56h6.447v1.409H89.004zm1.57.785h11.311v3.583H90.574v-3.583zm9.696 1.215h-8.081v1.137h8.081v-1.137zM112.575 57.426h-5.425v.656h-1.247v-5.359l-.259.353-.352.415-.432-1.489c.702-.649 1.266-1.461 1.68-2.43l1.25.158-.339.736h1.807l-.205-.448-.255-.465.479-.191v-2.879h.783v-.898h-.896v-1.087h.896v-1.136h1.197v1.136h1.684v1.087h-1.684v.898h1.395v3.04h-2.526l.224.464.19.479h2.224v1.057h-2.19v.832h2.031v.96h-2.031v.96h2.031v.942h-2.031v1.121h2.225v.241c.938-.737 1.44-1.874 1.502-3.41h-.88v-9.39h5.472v9.39h-1.533v2.898c0 .287.03.467.093.543.065.076.214.112.451.112.286 0 .43-.278.43-.834v-.112l-.016-1.439 1.153.386-.034 1.662c0 .981-.544 1.474-1.63 1.474-.651 0-1.091-.11-1.32-.328-.229-.219-.345-.606-.345-1.16V53.17h-.608c-.128 2.177-.896 3.814-2.306 4.913l-.653-.657zm-3.938-10.944v3.04h-3.328v-3.04h1.345v-.898h-1.743v-1.087h1.743v-1.136h1.199v1.136h.978v1.087h-.978v.898h.784zm-1.104.911h-1.12v1.216h1.12v-1.216zm1.791 4.129h-2.178v.832h2.178v-.832zm0 1.792h-2.178v.96h2.178v-.96zm0 1.903h-2.178v1.121h2.178v-1.121zm2.225-7.824h-1.166v1.216h1.166v-1.216zm6.034-2.383h-2.865v1.408h2.865V45.01zm-2.865 4.096h2.862v-1.554h-2.862v1.554zm0 2.832h2.862v-1.681h-2.862v1.681zM124.575 51.873h-3.011v-1.2h3.011v-.943h-3.154v-5.968h7.568v5.968h-3.217v.943h3.073v1.2h-3.073v.977l1.811-.127c.51 0 .992-.055 1.439-.161v1.185l-3.794.303c-1.695 0-3.05.076-4.062.226l-.289-1.298 1.586-.015 2.112-.062v-1.028zm-1.617 2.993c-.042.222-.076.41-.096.56-.193 1.024-.459 1.904-.801 2.642l-1.185-.515c.438-.776.758-1.726.961-2.848l1.121.161zm-.401-6.287h2.019v-3.648h-2.019v3.648zm.305-2.785l.735-.21.321.995c.073.244.153.575.239.992.011.052.025.126.047.223l-.833.255-.206-1.119a8.342 8.342 0 0 0-.303-1.136m.671 12.095c.045-.36.064-.879.064-1.551 0-.586-.02-1.082-.064-1.488l1.089-.079c.096.479.143.948.143 1.407 0 .853.005 1.381.017 1.584l-1.249.127zm2.305-.271c-.065-1.098-.203-2.038-.416-2.815l1.041-.162c.255.822.435 1.724.542 2.705l-1.167.272zm-.066-9.039h2.081v-3.648h-2.081v3.648zm.754-1.985l.208-1.056.768.191-.193 1.217c-.105.587-.191.961-.255 1.121l-.88-.259.127-.383c.118-.373.193-.65.225-.831m1.521 10.593l-.081-.4a7.703 7.703 0 0 0-.24-.879l-.432-1.28.945-.224c.447.959.739 1.748.878 2.367l-1.07.416zm3.247-6.817v-7.009h1.409v2.672h2.861v1.312h-2.861v3.024h2.271v7.712h-1.359v-1.105h-2.737v1.105h-1.359V50.37h1.775zm2.32 1.295h-2.737v4.017h2.737v-4.017zM136.877 51.554c.417-.278.906-.791 1.475-1.544a13.451 13.451 0 0 0 1.422-2.344l1.344.783-.464.832-.512.849v7.95h-1.438v-6.11l-.576.656a7.798 7.798 0 0 1-.802.782l-.449-1.854zm4.642-7.04a29.375 29.375 0 0 1-3.681 3.616l-.8-1.425a16.582 16.582 0 0 0 3.184-3.056l1.297.865zm5.679 4.496v2.048h3.424v1.439h-3.424v3.521c.651.086 1.265.129 1.841.129h.159l2.352-.033-.256 1.504h-1.488c-2.292 0-3.806-.185-4.534-.56-.732-.374-1.454-1.036-2.17-1.985l-.544 1.377a10.986 10.986 0 0 1-.815 1.568l-1.136-1.216c1.278-2.207 1.977-4.667 2.097-7.375l1.456.048c-.065 1.524-.235 2.832-.514 3.918.481 1.026 1.181 1.788 2.097 2.29V49.01h1.455zm1.024-5.344l.08-.258 1.456.336-.081.32a13.394 13.394 0 0 1-.621 1.777l1.277.88 1.14.784-.931 1.406a22.827 22.827 0 0 0-2.144-1.791 10.446 10.446 0 0 1-1.281 1.729l-.912-1.344-.768 1.151-.958-1.07a5.77 5.77 0 0 0-.482-.449 10.988 10.988 0 0 1-.271-.241 2.012 2.012 0 0 0-.097.161 11.881 11.881 0 0 1-1.231 1.568 2.799 2.799 0 0 0-.159.176l-1.184-1.104c.649-.522 1.157-1.078 1.527-1.664.367-.587.711-1.467 1.031-2.641l1.409.225-.257 1.024a5.99 5.99 0 0 1-.336.96l1.007.832.93.815c.96-1.098 1.579-2.293 1.856-3.582M153.295 51.187c.736-.832 1.445-1.829 2.128-2.992h-2.464v-1.329h4.064v1.136c-.513.97-1.097 1.9-1.744 2.785a3.177 3.177 0 0 0-.193.255h1.904v.929a7.776 7.776 0 0 1-.255 1.118l-.384 1.187c.511.853 1.154 1.403 1.928 1.646.772.246 2.386.371 4.839.371 1.28 0 2.508-.027 3.682-.082.211 0 .469-.015.766-.046l-.255 1.488h-3.839c-2.997 0-4.912-.146-5.736-.435-.826-.287-1.52-.836-2.073-1.646-.651 1.097-1.248 1.912-1.792 2.446l-1.023-1.118c1.227-1.132 2.122-2.656 2.688-4.577h-2.239v-1.136zm2.192-4.608c-.864-.929-1.622-1.639-2.273-2.129l.93-.928c.82.564 1.533 1.15 2.144 1.76l.192.19-.993 1.107zm6.832-3.218c.02.044.038.081.049.111.244.447.409.813.494 1.089.011.055.031.129.065.225h4.479v1.359H157.36v-1.359h4.047l-.225-.562c-.148-.341-.271-.56-.367-.653l1.504-.21zm-4.048 3.585h8.384v1.263h-8.384v-1.263zm0 2.142h8.384v1.266h-8.384v-1.266zm.193 2.21h8.094v3.841h-8.094v-3.841zm6.672 1.264h-5.25v1.327h5.25v-1.327zM175.565 49.235h-4.829v8.847h-1.476V43.873h6.305v5.362zm-1.421-4.178h-3.408v.96h3.408v-.96zm-3.408 2.976h3.408V47.01h-3.408v1.023zm7.729 4.929h2.271v1.263h-2.271v3.41h-1.347v-3.41h-1.857c-.052 1.464-.897 2.646-2.541 3.552l-1.089-1.006c.138-.076.255-.14.352-.191 1.131-.598 1.756-1.383 1.872-2.354h-2.289v-1.263h2.401v-1.616h-1.919v-1.231h8.209v1.231h-1.792v1.615zm-1.347-1.616h-1.809v1.616h1.809v-1.616zm3.969 5.152c.362 0 .545-.166.545-.496v-6.767h-4.896v-5.362h6.366V56.384c0 .981-.5 1.474-1.503 1.474h-1.745l-.366-1.425 1.599.065zm-2.943-10.48h3.487v-.959h-3.487v.959zm3.488.992h-3.487v1.023h3.487V47.01zM186.832 46.274l.175-1.394.146-1.488 1.424.05-.161 1.567-.159 1.265h2.561v1.087c-.193 2.38-.651 4.486-1.379 6.32.504.374 1.073.906 1.715 1.601l-.946 1.201-.769-.832-.702-.688c-.789 1.194-1.634 2.164-2.529 2.91l-1.216-1.023a9.919 9.919 0 0 0 2.641-2.801l-1.12-.88-1.281-.913c.513-1.246.966-2.787 1.361-4.622h-1.76v-1.359h1.999zm.753 6c.297.191.526.366.687.527.521-1.387.882-2.948 1.07-4.688a6.98 6.98 0 0 1 .066-.48h-1.375l-.448 2a21.6 21.6 0 0 1-.69 2.175l.69.466zm9.406-6.848l.417.623a28.252 28.252 0 0 1 2.143 3.81l-1.343.782-.271-.64-.305-.59c-1.151.254-2.25.383-3.297.383-1.193 0-2.331.07-3.407.207l-.176-1.519.463.031.432-.017a24.679 24.679 0 0 0 2.017-5.104l1.586.226c-.12.33-.214.602-.289.815-.555 1.664-1.109 3.015-1.664 4.049l1.857-.128c.937-.099 1.552-.171 1.838-.225l-.575-1.042a16.164 16.164 0 0 0-.719-1.149l1.293-.512zm-5.553 5.809h7.186v6.847h-1.425v-.847h-4.336v.847h-1.425v-6.847zm5.761 1.359h-4.336v3.279h4.336v-3.279z"/></svg>