<svg xmlns="http://www.w3.org/2000/svg" width="185" height="212" viewBox="0 0 185 212"><path fill="#EDB85C" d="M92.859 211.25L1.166 158.312l.001-105.214 91.692 52.938z"/><path fill="#DDAE59" d="M91.584 211.575l91.691-52.936V53.423L91.584 106.36z"/><path fill="#E69545" d="M92.146 181.215l-65.138-37.608.001-47.485 65.137 37.038z"/><path fill="#E58244" d="M92.147 181.215l65.138-37.608-.002-47.917-65.136 37.47z"/><path fill="#DD9F43" d="M91.943 58.317v74.744l.203.117 64.733-37.371z"/><path fill="#E7A446" d="M92.043 58.317v74.744l-.201.117L27.11 95.807z"/><path fill="#E5B855" d="M92.435 106.295L.741 53.357 91.861.75l91.694 52.938z"/><g fill="#C67C39"><path d="M145.697 129.812c.043-.408.071-.818.096-1.232.029-.49-29.455-28.453-29.455-28.453h-.707c-.002-.001 29.886 31.512 30.066 29.685zM82.789 120.104l-.119.263-.127.268c-.94 1.959 13.161 15.74 14.292 14.066.056-.074.105-.152.156-.228.058-.088.117-.17.172-.26.907-1.376-13.973-15.001-14.374-14.109z"/><path d="M145.812 128.329c-.646 14.313-12.485 25.758-26.955 25.758h-1.952l-14.449-14.231a51.04 51.04 0 0 0 3.276-5.226h13.125c4.154 0 7.533-3.375 7.533-7.528 0-4.15-3.379-7.529-7.533-7.529h-7.766c.592-3.129.913-6.354.913-9.648 0-3.349-.327-6.618-.942-9.797h4.826l29.838 29.389c.037-.397.063-.788.086-1.188zM60.117 65.611h-7.849v19.456h7.849c13.709 0 24.864 11.151 24.864 24.856 0 3.726-.832 7.267-2.311 10.443l14.323 14.106a44.03 44.03 0 0 0 7.45-24.551c-.001-24.43-19.886-44.31-44.326-44.31z"/><path d="M118.856 65.611H87.071a52.202 52.202 0 0 1 18.575 19.456h13.211c4.154 0 7.533 3.377 7.533 7.531 0 4.152-3.379 7.529-7.533 7.529h-2.967l29.84 29.391c.068-.8.113-1.599.113-2.416 0-6.56-2.354-12.574-6.263-17.25a26.826 26.826 0 0 0 6.263-17.253c0-14.882-12.105-26.988-26.987-26.988zM116.904 154.087H87.299a52.343 52.343 0 0 0 15.154-14.231l14.451 14.231zm-19.912-19.612l-14.321-14.107c-3.957 8.5-12.576 14.412-22.555 14.412h-7.849v19.453h7.849c15.361-.003 28.919-7.859 36.876-19.758z"/></g><g><g fill="#FFF8EE"><path d="M142.504 127.273c.043-.408.072-.82.096-1.234.027-.49-29.455-28.45-29.455-28.45h-.705c-.001 0 29.884 31.509 30.064 29.684zM79.596 117.568l-.119.258c-.041.092-.084.178-.127.268-.94 1.961 13.16 15.742 14.292 14.068.053-.074.104-.152.155-.229.06-.086.115-.17.173-.259.907-1.375-13.971-14.998-14.374-14.106zM99.52 136.947c-.039.088-.324.57-.584.822-.043.088 13.765 13.78 13.765 13.78h1.241c.001.002-12.96-14.022-14.422-14.602z"/><path d="M142.619 125.793c-.645 14.312-12.488 25.758-26.955 25.758h-1.955l-14.447-14.236a51.31 51.31 0 0 0 3.277-5.223h13.125c4.152 0 7.531-3.377 7.531-7.531 0-4.147-3.379-7.524-7.531-7.524h-7.766c.59-3.127.914-6.351.914-9.646 0-3.351-.33-6.622-.943-9.801h4.826l29.838 29.387c.037-.395.065-.786.086-1.184zM56.925 63.075h-7.849v19.456h7.849c13.708 0 24.863 11.151 24.863 24.859 0 3.726-.832 7.262-2.311 10.437l14.321 14.106a44.033 44.033 0 0 0 7.449-24.543c.001-24.435-19.883-44.315-44.322-44.315z"/><path d="M115.664 63.075H83.879a52.254 52.254 0 0 1 18.574 19.456h13.211c4.152 0 7.531 3.377 7.531 7.531 0 4.152-3.379 7.528-7.531 7.528h-2.967l29.84 29.389c.068-.797.113-1.6.113-2.418 0-6.557-2.355-12.565-6.265-17.244a26.83 26.83 0 0 0 6.265-17.254c0-14.882-12.105-26.988-26.986-26.988zM113.709 151.551H84.107a52.337 52.337 0 0 0 15.155-14.236l14.447 14.236zm-19.91-19.617l-14.32-14.106c-3.956 8.5-12.576 14.414-22.554 14.414h-7.849v19.452h7.849c15.361-.001 28.918-7.858 36.874-19.76z"/></g></g></svg>