<svg xmlns="http://www.w3.org/2000/svg" width="185" height="212" viewBox="0 0 185 212"><path fill="#BAC55E" d="M92.859 211.25L1.166 158.312l.001-105.214 91.692 52.938z"/><path fill="#ADBE4B" d="M91.584 211.575l91.691-52.936V53.423L91.584 106.36z"/><path fill="#88A750" d="M92.146 181.215l-65.138-37.608.001-47.485 65.137 37.038z"/><path fill="#6E9C30" d="M92.147 181.215l65.138-37.608-.002-47.917-65.136 37.47z"/><path fill="#95B053" d="M91.943 58.317v74.744l.203.117 64.733-37.371z"/><path fill="#A4BA63" d="M92.043 58.317v74.744l-.201.117L27.11 95.807z"/><path fill="#BBCD5E" d="M92.435 106.295L.741 53.357 91.861.75l91.694 52.938z"/><g><path fill="#637F26" d="M137.466 58.672c-7.465-8.337-17.33-16.073-41.715-16.244-9.527-.076-24.071 2.177-35.387 14.144-6.847 7.226-11.884 16.355-10.452 31.278.312 3.239 4.934 6.985 1.686 13.233 0 0-6.979 12.28-6.733 14.325 0 0-.123 3.734 5.657 3.853 0 0 1.443.187 1.027 3.37l-.069 4.643s.184 1.381 2.713 2.221c0 0 .481.48-.237 1.39 0 0-1.33 1.485.961 4.692.848 1.168 2.227 2.642 1.384 5.664 0 0-1.083 5.828 1.204 7.225 0 0 2.601 3.087 13.066 1.795 3.66-.45 10.414-2.219 14.439 2.836 0 0 9.626 18.292 10.357 22.617 0 0 16.429-29.245 36.478-33.76 0 0-4.885-11.017 5.055-25.28 0 0 12.455-16.431 12.825-25.457-.009-.005 3.276-15.216-12.259-32.545zm-59.53 18.091a1.819 1.819 0 0 0-1.193 1.691l-.077 8.5c-14.306-.841-14.177-7.141-12.94-15.15.983-6.361 5.931-11.582 13.219-14.91l-.083 9.521a1.815 1.815 0 0 0 3.169 1.223c1.419-1.597 3.411-2.507 5.491-2.507h.062c4.061.037 7.338 3.376 7.306 7.444-.04 4.045-3.346 7.32-7.379 7.32h-.065c-2.098-.018-4.104-.965-5.5-2.597a1.835 1.835 0 0 0-2.01-.535zm43.907 22.591c-3.082-.31-6.221-1.151-9.098-2.387-7.5-3.217-9.572-11.767-21.356-10.559-4.339.446-7.965.629-11.109.638l.048-4.844a10.924 10.924 0 0 0 5.064 1.313h.087c6.017 0 10.95-4.874 11.004-10.912.055-6.068-4.838-11.046-10.9-11.102-1.722.007-3.525.418-5.083 1.225l.069-7.283c5.896-1.99 12.92-2.889 20.485-2.346 7.777.547 15.058 2.851 21.146 6.334l-.037 3.646a10.852 10.852 0 0 0-5.068-1.312c-5.961.079-11.032 4.844-11.104 10.909a10.971 10.971 0 0 0 3.156 7.814 10.915 10.915 0 0 0 7.756 3.284c1.848-.049 3.523-.413 5.079-1.225l-.139 16.807zm3.625.096l.185-20.583a1.816 1.816 0 0 0-1.159-1.707 1.822 1.822 0 0 0-2.01.485c-1.436 1.61-3.38 2.43-5.542 2.501a7.33 7.33 0 0 1-5.194-2.2 7.3 7.3 0 0 1-2.119-5.232c.045-4.05 3.345-7.324 7.377-7.324h.067c2.134.017 4.087.941 5.507 2.598a1.817 1.817 0 0 0 1.995.529 1.805 1.805 0 0 0 1.194-1.685l.051-5.091c7.18 5.134 12.076 12.11 12.998 19.855 1.49 12.596-5.207 17.458-13.35 17.854z"/></g><g><path fill="#FAFFF3" d="M133.992 55.897c-7.467-8.337-17.33-16.073-41.716-16.244-9.527-.076-24.071 2.177-35.387 14.144-6.848 7.226-11.884 16.355-10.452 31.277.312 3.239 4.934 6.985 1.685 13.233 0 0-6.978 12.281-6.733 14.325 0 0-.124 3.735 5.657 3.853 0 0 1.443.188 1.027 3.371l-.069 4.643s.184 1.381 2.713 2.22c0 0 .481.481-.237 1.39 0 0-1.33 1.485.961 4.692.848 1.169 2.227 2.642 1.384 5.665 0 0-1.083 5.828 1.204 7.225 0 0 2.601 3.086 13.067 1.795 3.66-.45 10.413-2.219 14.438 2.836 0 0 9.626 18.291 10.358 22.617 0 0 16.428-29.246 36.479-33.76 0 0-4.887-11.017 5.054-25.281 0 0 12.454-16.432 12.823-25.458-.007-.002 3.277-15.213-12.256-32.543zM74.46 73.988a1.819 1.819 0 0 0-1.193 1.691l-.077 8.5c-14.306-.841-14.177-7.141-12.94-15.15.983-6.361 5.931-11.582 13.219-14.911l-.083 9.522a1.815 1.815 0 0 0 3.169 1.222c1.42-1.597 3.412-2.507 5.492-2.507h.062c4.061.037 7.338 3.376 7.306 7.444-.041 4.045-3.345 7.32-7.378 7.32h-.065c-2.098-.018-4.104-.965-5.5-2.597a1.839 1.839 0 0 0-2.012-.534zm43.908 22.591c-3.081-.31-6.222-1.151-9.097-2.387-7.5-3.217-9.573-11.767-21.358-10.559-4.339.446-7.965.629-11.109.638l.048-4.844a10.924 10.924 0 0 0 5.064 1.313h.087c6.017 0 10.953-4.874 11.007-10.912.053-6.068-4.841-11.046-10.902-11.102-1.723.007-3.525.418-5.083 1.225l.069-7.283c5.895-1.99 12.921-2.889 20.484-2.346 7.777.547 15.059 2.851 21.148 6.334l-.039 3.646a10.849 10.849 0 0 0-5.065-1.312c-5.963.079-11.034 4.844-11.104 10.909a10.971 10.971 0 0 0 3.156 7.814 10.912 10.912 0 0 0 7.756 3.284c1.848-.049 3.522-.413 5.078-1.225l-.14 16.807zm3.624.096l.186-20.583a1.812 1.812 0 0 0-1.158-1.707 1.823 1.823 0 0 0-2.011.485c-1.435 1.61-3.381 2.43-5.541 2.501a7.327 7.327 0 0 1-5.194-2.2 7.314 7.314 0 0 1-2.121-5.231c.047-4.051 3.346-7.324 7.379-7.324h.068c2.133.017 4.086.941 5.504 2.598a1.822 1.822 0 0 0 1.998.529 1.804 1.804 0 0 0 1.193-1.685l.051-5.091c7.178 5.134 12.075 12.111 12.997 19.855 1.49 12.595-5.206 17.457-13.351 17.853z"/></g></svg>