<svg xmlns="http://www.w3.org/2000/svg" width="185" height="212" viewBox="0 0 185 212"><path fill="#EEAAB5" d="M93.201 212L1.402 159V53.662l91.799 53z"/><path fill="#EC97A2" d="M93.201 212L185 159l-.001-105.338-91.798 53z"/><path fill="#F27979" d="M92.914 181.506l-65.215-37.652.001-47.543 65.214 37.084z"/><path fill="#E55A61" d="M92.914 181.506l65.215-37.652-.002-47.976-65.213 37.517z"/><path fill="#E6777F" d="M92.71 58.462v74.833l.204.117 64.807-37.416z"/><path fill="#F4979C" d="M92.812 58.462v74.833l-.205.117-64.806-37.416z"/><path fill="#F8BDC6" d="M93.201 106.497l-91.799-53L92.627.828l91.8 53z"/><g><path fill="#C43345" d="M145.102 60.004c-1.135-1.086-2.725-1.637-4.727-1.637-7.275 0-19.062 7.41-25.443 11.827l-.572.396-1.139 10.849-3.787-7.282-1.438 1.101c-8.043 6.166-16.15 13.395-22.82 20.353a80.056 80.056 0 0 0-3.761 4.217l-.283.34-2.714 21.416-5.031-10.201-1.378 2.684c-4.28 8.334-6.283 15.869-7.22 20.98l-2.397-11.959-2.037 2.791a77.642 77.642 0 0 0-2.492 3.617l-.188.287-1.689 13.334-2.754-5.586-1.074 3.811c-1.071 3.799-.946 6.584-.304 8.611L41.02 160.789a3.793 3.793 0 0 0 2.685 6.478 3.79 3.79 0 0 0 2.685-1.111l10.83-10.828c1.028.324 2.171.488 3.422.488 1.576 0 3.326-.269 5.198-.795l3.809-1.074-5.585-2.756 13.333-1.688.291-.188a78.916 78.916 0 0 0 3.617-2.492l2.79-2.033-11.344-2.275a72.282 72.282 0 0 0 8.365-2.059c8.249-2.553 20.325-7.932 30.987-19.062a177.08 177.08 0 0 0 1.56-1.649l1.396-1.492-9.104-4.489 14.628-1.854.383-.459c6.228-7.483 11.905-15.349 16.423-22.746l.885-1.449-6.459-3.016 8.918-1.325.36-.677c6.091-11.467 7.44-18.947 4.009-22.234z"/></g><g><path fill="#FDEDF0" d="M142.092 56.697c-1.135-1.086-2.725-1.637-4.727-1.637-7.275 0-19.062 7.41-25.443 11.827l-.572.396-1.14 10.849-3.787-7.282-1.438 1.101c-8.043 6.166-16.147 13.395-22.813 20.353a79.168 79.168 0 0 0-3.761 4.217l-.282.34-2.715 21.413-5.031-10.194-1.378 2.685c-4.28 8.327-6.283 15.862-7.22 20.975l-2.397-11.959-2.037 2.791a79.827 79.827 0 0 0-2.492 3.617l-.188.289-1.689 13.334-2.754-5.586-1.074 3.809c-1.071 3.801-.946 6.584-.304 8.611L38.015 157.48a3.796 3.796 0 1 0 5.37 5.369l10.83-10.83c1.028.326 2.171.489 3.422.489 1.576 0 3.326-.268 5.198-.795l3.809-1.073-5.585-2.757 13.333-1.688.291-.188a79.43 79.43 0 0 0 3.617-2.491l2.789-2.035-11.343-2.273a72.333 72.333 0 0 0 8.365-2.061c8.247-2.551 20.319-7.931 30.981-19.062.521-.543 1.04-1.094 1.559-1.649l1.396-1.494-9.104-4.484 14.627-1.852.384-.461c6.228-7.486 11.905-15.353 16.423-22.749l.885-1.449-6.459-3.016 8.918-1.325.36-.677c6.091-11.466 7.44-18.946 4.011-22.232z"/></g></svg>