<svg xmlns="http://www.w3.org/2000/svg" width="185" height="212" viewBox="0 0 185 212"><path fill="#EEAAB5" d="M93.201 212L1.402 159V53.662l91.799 53z"/><path fill="#EC97A2" d="M93.201 212L185 159l-.001-105.338-91.798 53z"/><path fill="#F27979" d="M92.914 181.506l-65.215-37.652.001-47.543 65.214 37.084z"/><path fill="#E55A61" d="M92.914 181.506l65.215-37.652-.002-47.976-65.213 37.517z"/><path fill="#E6777F" d="M92.71 58.462v74.833l.204.117 64.807-37.416z"/><path fill="#F4979C" d="M92.812 58.462v74.833l-.205.117-64.806-37.416z"/><path fill="#F8BDC6" d="M93.201 106.497l-91.799-53L92.627.828l91.8 53z"/><g fill="#C43345"><path d="M89.806 136.201l2.752-1.59a2.345 2.345 0 0 0 .858-3.204l-5.215-9.034a2.344 2.344 0 0 0-3.205-.858l-2.752 1.589a2.328 2.328 0 0 1-1.169.317c-1.226 0-2.349-.979-2.349-2.349v-3.179a2.345 2.345 0 0 0-2.346-2.345H65.948a2.346 2.346 0 0 0-2.346 2.345v3.179c0 1.369-1.124 2.349-2.349 2.349-.391 0-.791-.1-1.169-.317l-2.753-1.589a2.345 2.345 0 0 0-3.204.858l-5.215 9.034a2.347 2.347 0 0 0 .858 3.204l2.752 1.59c1.564.902 1.564 3.16 0 4.062l-2.752 1.589a2.344 2.344 0 0 0-.858 3.204l5.215 9.034a2.345 2.345 0 0 0 3.204.86l2.753-1.59a2.317 2.317 0 0 1 1.169-.318c1.225 0 2.349.98 2.349 2.35v3.178a2.347 2.347 0 0 0 2.346 2.347h10.431a2.348 2.348 0 0 0 2.346-2.347v-3.178c0-1.369 1.124-2.35 2.35-2.35.39 0 .791.1 1.168.318l2.753 1.59a2.343 2.343 0 0 0 3.204-.86l5.215-9.034a2.345 2.345 0 0 0-.858-3.204l-2.752-1.589c-1.563-.902-1.563-3.16.001-4.062zm-18.641 8.99a6.96 6.96 0 1 1 0-13.92 6.96 6.96 0 0 1 0 13.92zM84.561 63.837a3.223 3.223 0 0 0-4.557 4.557l5.756 5.756c-21.159 1.048-38.287 17.668-40.141 38.61l.476-.824a7.675 7.675 0 0 1 6.629-3.827c.057 0 .115.006.172.008 3.63-15.092 16.79-26.505 32.731-27.498l-5.625 5.627a3.223 3.223 0 0 0 4.556 4.557l11.203-11.204a3.222 3.222 0 0 0 0-4.555l-11.2-11.207zM121.736 80.319c7.153 0 12.973-5.819 12.973-12.973 0-7.153-5.819-12.974-12.973-12.974-7.154 0-12.975 5.82-12.975 12.974.001 7.154 5.821 12.973 12.975 12.973zM147.009 115.294V97.458c0-4.937-3.173-9.314-7.864-10.851l-.021-.008-6.86-1.135a1.15 1.15 0 0 0-1.42.706l-7.786 21.363c-.45 1.232-2.192 1.232-2.642 0L112.63 86.17a1.15 1.15 0 0 0-1.08-.757c-.11 0-7.201 1.185-7.201 1.185a11.497 11.497 0 0 0-7.89 10.92v17.776a4.823 4.823 0 0 0 4.822 4.822h40.904a4.822 4.822 0 0 0 4.824-4.822zM147.364 123.595c-.27 3.687-3.293 5.943-6.981 6.212-2.826 16.172-16.485 28.66-33.197 29.699l5.626-5.625a3.224 3.224 0 0 0-4.558-4.558l-11.203 11.204a3.221 3.221 0 0 0 0 4.557l11.203 11.203a3.214 3.214 0 0 0 2.277.943 3.221 3.221 0 0 0 2.277-5.5l-5.756-5.757c22.417-1.107 40.312-19.693 40.312-42.378z"/><path d="M124.562 85.22c-.298-.327-.736-.489-1.178-.489h-3.298c-.442 0-.881.163-1.179.489a1.527 1.527 0 0 0-.202 1.802l1.762 2.658-.824 6.964 1.627 4.323a.496.496 0 0 0 .932 0l1.626-4.323-.825-6.964 1.764-2.658a1.532 1.532 0 0 0-.205-1.802z"/></g><g fill="#FFF"><path d="M86.88 135.486l2.752-1.589a2.346 2.346 0 0 0 .858-3.205l-5.215-9.034a2.342 2.342 0 0 0-3.204-.858l-2.752 1.589a2.328 2.328 0 0 1-1.169.317c-1.226 0-2.349-.979-2.349-2.349v-3.179a2.345 2.345 0 0 0-2.346-2.345H63.023a2.347 2.347 0 0 0-2.346 2.345v3.179c0 1.369-1.124 2.349-2.349 2.349-.391 0-.792-.1-1.169-.317l-2.753-1.589a2.349 2.349 0 0 0-1.17-.316c-.811 0-1.599.422-2.034 1.174l-5.215 9.034a2.346 2.346 0 0 0 .858 3.205l2.752 1.589c1.564.903 1.564 3.16 0 4.062l-2.752 1.589a2.345 2.345 0 0 0-.858 3.205l5.215 9.034a2.344 2.344 0 0 0 3.204.859l2.753-1.59c.377-.22.778-.318 1.169-.318 1.225 0 2.349.98 2.349 2.35v3.179a2.345 2.345 0 0 0 2.346 2.345h10.431a2.346 2.346 0 0 0 2.346-2.345v-3.179c0-1.369 1.124-2.35 2.35-2.35.39 0 .791.099 1.168.318l2.753 1.59a2.347 2.347 0 0 0 3.205-.859l5.215-9.034a2.347 2.347 0 0 0-.859-3.205l-2.753-1.589c-1.564-.902-1.564-3.159.001-4.062zm-18.641 8.993a6.96 6.96 0 1 1 .003-13.921 6.96 6.96 0 0 1-.003 13.921zM81.636 63.127a3.222 3.222 0 1 0-4.556 4.557l5.756 5.756c-21.159 1.048-38.288 17.668-40.141 38.61l.476-.824A7.676 7.676 0 0 1 49.8 107.4c.058 0 .115.005.172.007 3.629-15.092 16.789-26.505 32.731-27.498l-5.625 5.626a3.223 3.223 0 0 0 4.556 4.557l11.204-11.205a3.221 3.221 0 0 0 0-4.555L81.636 63.127zM118.811 79.608c7.152 0 12.973-5.819 12.973-12.973s-5.82-12.974-12.973-12.974c-7.154 0-12.975 5.82-12.975 12.974s5.82 12.973 12.975 12.973zM144.084 114.58V96.747a11.42 11.42 0 0 0-7.864-10.851l-.022-.008-6.861-1.135a1.15 1.15 0 0 0-1.419.706l-7.786 21.364c-.449 1.231-2.192 1.231-2.642 0l-7.785-21.364a1.152 1.152 0 0 0-1.081-.757c-.11 0-7.2 1.185-7.2 1.185a11.497 11.497 0 0 0-7.89 10.919v17.773a4.823 4.823 0 0 0 4.822 4.822h40.903a4.822 4.822 0 0 0 4.825-4.821zM144.44 122.881c-.27 3.685-3.294 5.943-6.982 6.21-2.826 16.173-16.485 28.662-33.198 29.7l5.627-5.625a3.224 3.224 0 0 0-4.558-4.558l-11.203 11.203a3.222 3.222 0 0 0 0 4.558l11.203 11.203a3.21 3.21 0 0 0 2.276.943 3.221 3.221 0 0 0 2.278-5.5l-5.756-5.757c22.417-1.108 40.313-19.693 40.313-42.377z"/><path d="M121.638 84.509c-.299-.326-.737-.489-1.179-.489h-3.298c-.441 0-.88.163-1.179.489a1.527 1.527 0 0 0-.201 1.802l1.762 2.658-.825 6.963 1.627 4.323a.496.496 0 0 0 .932 0l1.625-4.323-.824-6.963 1.764-2.658a1.534 1.534 0 0 0-.204-1.802z"/></g></svg>