<svg xmlns="http://www.w3.org/2000/svg" width="185" height="212" viewBox="0 0 185 212"><path fill="#5FA5C3" d="M92.713 211.375L.914 158.373V53.034l91.799 53.001z"/><path fill="#5D9DBC" d="M92.287 211.375l91.8-53.002V53.034l-91.8 53.001z"/><path fill="#2684B9" d="M92.426 181.303L27.212 143.65l.001-47.542 65.213 37.083z"/><path fill="#1C75A8" d="M92.427 181.303l65.214-37.653-.002-47.974-65.212 37.515z"/><path fill="#3CA5C1" d="M92.222 58.26v74.832l.204.117 64.806-37.416z"/><path fill="#3BAAD2" d="M92.322 58.686v74.832l-.203.117-64.805-37.417z"/><path fill="#64ABC4" d="M92.713 106.294l-91.799-53L92.14.625l91.799 53z"/><g fill="#144784"><path d="M76.477 88.75a80.782 80.782 0 0 1 7.415 10.652.755.755 0 0 0 .48.352.745.745 0 0 0 .585-.118l9.803-6.689a.744.744 0 0 0 .15-1.087l-1.123-1.357c-5.501-6.636-12.553-12.723-21.553-18.607-4.268-2.803-8.967-5.475-13.968-7.942-4.369-2.156-8.333-3.881-12.121-5.273a.741.741 0 0 0-.933.394c-.346.772-1.062 2.4-1.062 2.4a.743.743 0 0 0 .323.952c.001 0 .402.22.522.288a95.946 95.946 0 0 1 3.758 2.276 138.728 138.728 0 0 1 6.194 4.175c4.306 3.073 8.343 6.331 12.001 9.679.271.247.532.49.795.737l-30.497 36.613a4.449 4.449 0 0 0 .573 6.268 4.445 4.445 0 0 0 4.158.834 4.4 4.4 0 0 0 2.113-1.404l29.948-35.955c.857.938 1.67 1.875 2.439 2.812zM116.263 123.281L97.15 134.665l-24.435 23.554H150.8V80.888l-17.248 9.969zM76.307 118.568l-10.929-3.62-.972 5.311 2.633 8.242 8.239-2.634zM61.876 141.909l7.719 3.907 4.348-2.988-1.54-10.064-9.592 1.599zM93.314 109.56l-5.641.94-.55 4.434 4.539 2.295 2.56-1.754zM100.326 107.07l-1.402 6.144 2.881 2.545 6.845-2.858-2.822-6.496zM88.308 122.258l-.316 2.534 2.591 1.31 1.46-1.004-.517-3.375zM79.223 126.993l2.063 2.53 2.356-.981-.148-2.899-1.592-.772z"/></g><g fill="#EEFBFF"><path d="M76.166 85.762a80.597 80.597 0 0 1 7.414 10.653c.105.179.28.304.481.351a.763.763 0 0 0 .377-.015.68.68 0 0 0 .207-.103l9.806-6.689a.73.73 0 0 0 .314-.509.74.74 0 0 0-.16-.578l-1.126-1.357c-5.504-6.638-12.556-12.724-21.557-18.608-4.265-2.802-8.966-5.475-13.967-7.942-4.368-2.157-8.332-3.882-12.12-5.273a.742.742 0 0 0-.935.395c-.345.772-1.061 2.4-1.061 2.4a.74.74 0 0 0 .323.95 47.639 47.639 0 0 0 1.772 1.023c.811.481 1.632.986 2.508 1.543a135.914 135.914 0 0 1 6.194 4.175c4.305 3.074 8.343 6.329 12 9.678.271.248.531.492.794.737l-30.498 36.621a4.446 4.446 0 0 0 .574 6.266 4.438 4.438 0 0 0 4.158.834 4.388 4.388 0 0 0 2.112-1.406l29.95-35.959c.857.939 1.67 1.876 2.44 2.813zM113.583 120.077l-19.115 11.385-24.436 23.553h78.09V77.678l-17.249 9.968zM73.839 115.471l-10.929-3.622-.971 5.312 2.633 8.244 8.239-2.634zM59.408 138.813l7.72 3.907 4.347-2.988-1.539-10.063-9.592 1.599zM90.848 106.458l-5.643.938-.55 4.438 4.539 2.296 2.563-1.756zM97.862 103.967l-1.4 6.147 2.879 2.546 6.844-2.858-2.821-6.5zM85.841 119.16l-.316 2.538 2.591 1.309 1.46-1.002-.519-3.379zM76.755 123.897l2.063 2.532 2.357-.983-.148-2.9-1.593-.771z"/></g></svg>