<svg xmlns="http://www.w3.org/2000/svg" width="185" height="212" viewBox="0 0 185 212"><path fill="#E9B86B" d="M92.229 210.731L.43 157.743V52.409l91.799 52.997z"/><path fill="#E7B255" d="M92.229 210.731l91.798-52.988V52.409l-91.798 52.997z"/><path fill="#F1A72E" d="M91.941 180.235l-65.213-37.638.001-47.539 65.212 37.08z"/><path fill="#DB8E26" d="M91.942 180.235l65.214-37.638-.002-47.972-65.212 37.513z"/><path fill="#EAA046" d="M91.738 57.209v74.829l.203.117 64.807-37.412z"/><path fill="#F1AD63" d="M91.84 57.209v74.829l-.204.117-64.807-37.412z"/><path fill="#F5C371" d="M92.229 105.241L.43 52.244 91.655-.425l91.8 53z"/><g fill="#FFF"><path d="M22.948 118.449a43.828 43.828 0 0 0-.046 1.89c0 17.265 10.156 31.26 22.684 31.26 12.526 0 22.681-13.995 22.681-31.26 0-.635-.017-1.263-.044-1.89H22.948z"/><path d="M43.023 145.414h5.122v32.43h-5.122z"/><ellipse cx="45.768" cy="178.332" rx="12.988" ry="3.902"/></g><g><path fill="#EDD8A3" d="M132.44 116.934H79.905V56.857h64.453z"/><path fill="#876727" d="M116.102 71.391l16.338 45.543 10.423-46.745-21.899-3.48z"/><path fill="#E4CB92" d="M116.102 71.391l-12.109 45.543h28.447z"/><path fill="#EDD8A3" d="M125.235 83.581h-12.306l2.962-12.19h11.115z"/><path fill="#E4CB92" d="M115.047 74.862h8.211l-.684 5.77h-8.929z"/><path fill="#EDD8A3" d="M77.387 76.153l-8.131 20.143h11.115l.557-20.524h-3.315"/><path fill="#E1605A" d="M79.043 103.355l10.354-2.04.553 2.81-10.353 2.04z"/><path fill="#767676" d="M86.103 74.298h6.656v12.601h-6.656z"/><path fill="#876727" d="M74.329 70.189l-14.557 8.217 65.974-8.217z"/><g><path fill="#374249" d="M145.103 62.803H74.329l6.666-36.233 60.748 5.275z"/><path fill="#6B808E" d="M145.103 62.803H74.329l2.012-10.87 67.612-1.022z"/><path fill="#374249" d="M154.452 70.189H59.314l15.015-9.215h70.774z"/></g><path fill="#FFF" d="M93.363 116.934h29.895l6.224 11.001H86.103z"/><g><path fill="#374249" d="M83.218 127.935h49.028l12.697 84.49H73.812z"/></g><path fill="#9A6A27" d="M109.375 212.425h35.568l-12.697-84.49h-22.871z"/><g><path fill="#FFF" d="M110.317 133.994l-53.494 14.117 8.689 13.024 44.805-13.566z"/><path fill="#EDD8A3" d="M58.313 150.342l-12.352 3.306 5.61 10.009 12.685-4.41z"/><path fill="#E1BE73" d="M51.571 163.657l-7.569-2.522-3.846-12.772 5.805 5.285 5.61 8.959"/></g></g></svg>