<svg xmlns="http://www.w3.org/2000/svg" width="185" height="212" viewBox="0 0 185 212"><path fill="#DDADCF" d="M92.49 211.089l-91.799-53V52.75l91.799 53z"/><path fill="#D49AC2" d="M92.065 211.514l91.799-53-.001-105.338-91.798 53z"/><path fill="#CA72AB" d="M92.203 181.02l-65.214-37.653V95.825l65.214 37.083z"/><path fill="#C5589C" d="M92.204 181.02l65.214-37.653-.002-47.975-65.212 37.516z"/><path fill="#D084B5" d="M91.999 57.976v74.833l.204.117L157.01 95.51z"/><path fill="#D896C0" d="M92.101 57.976v74.833l-.204.117L27.09 95.51z"/><path fill="#E9B5D2" d="M92.49 106.01l-91.799-53L91.917.341l91.799 53z"/><g><path fill="#A04384" d="M136.043 153.498h-19.462L91.292 124.49H75.549v29.008H59.187V66.6c13.76 0 27.52.124 41.279.124 20.454.124 31.239 13.76 31.239 28.76 0 11.9-5.455 23.925-21.941 27.271l26.279 29.627v1.116zM75.549 81.971v27.767h24.917c10.413 0 14.876-6.941 14.876-13.883s-4.587-13.884-14.876-13.884H75.549z"/></g><g><path fill="#FDF1F6" d="M132.043 151.498h-19.462L87.292 122.49H71.549v29.008H55.187V64.6c13.76 0 27.52.124 41.279.124 20.454.124 31.239 13.76 31.239 28.76 0 11.9-5.455 23.925-21.941 27.271l26.279 29.627v1.116zM71.549 79.971v27.767h24.917c10.413 0 14.876-6.941 14.876-13.883s-4.587-13.884-14.876-13.884H71.549z"/></g></svg>