<svg xmlns="http://www.w3.org/2000/svg" width="185" height="212" viewBox="0 0 185 212"><path fill="#FDF1F6" d="M132.043 151.498h-19.462L87.292 122.49H71.549v29.008H55.187V64.6c13.76 0 27.52.124 41.279.124 20.454.124 31.239 13.76 31.239 28.76 0 11.9-5.455 23.925-21.941 27.271l26.279 29.627v1.116zM71.549 79.971v27.767h24.917c10.413 0 14.876-6.941 14.876-13.883s-4.587-13.884-14.876-13.884H71.549z"/><path fill="#E9B86B" d="M92.926 211.597L1.127 158.596V53.258l91.799 53z"/><path fill="#E7B255" d="M92.926 211.597l91.799-53.001V53.258l-91.799 53z"/><path fill="#F1A72E" d="M92.639 181.102l-65.214-37.653V95.907l65.214 37.083z"/><path fill="#DB8E26" d="M92.64 181.102l65.214-37.653-.002-47.974L92.64 132.99z"/><path fill="#EAA046" d="M92.435 58.059v74.832l.204.117 64.806-37.416z"/><path fill="#F1AD63" d="M92.537 58.059v74.832l-.204.117-64.807-37.416z"/><path fill="#F5C371" d="M92.926 106.093l-91.799-53L92.353.424l91.799 53z"/><g><path fill="#AE6E28" d="M86.511 148.205c-28.812 0-52.252-23.439-52.252-52.251 0-28.812 23.44-52.251 52.252-52.251s52.251 23.44 52.251 52.251c0 28.812-23.44 52.251-52.251 52.251zm0-92.503c-22.195 0-40.252 18.057-40.252 40.251s18.057 40.251 40.252 40.251c22.194 0 40.251-18.057 40.251-40.251s-18.057-40.251-40.251-40.251z"/></g><g><path fill="#AE6E28" d="M144.078 170.66a7.968 7.968 0 0 1-5.657-2.344l-28.618-28.617a8 8 0 0 1 11.314-11.314l28.617 28.619a7.996 7.996 0 0 1 0 11.312 7.97 7.97 0 0 1-5.656 2.344z"/></g><g><path fill="#FFF1DD" d="M86.511 144.205c-28.812 0-52.252-23.439-52.252-52.251 0-28.812 23.44-52.251 52.252-52.251s52.251 23.44 52.251 52.251c0 28.812-23.44 52.251-52.251 52.251zm0-92.503c-22.195 0-40.252 18.057-40.252 40.251s18.057 40.251 40.252 40.251c22.194 0 40.251-18.057 40.251-40.251s-18.057-40.251-40.251-40.251z"/></g><g><path fill="#FFF1DD" d="M144.078 166.66a7.968 7.968 0 0 1-5.657-2.344l-28.618-28.617a8 8 0 0 1 11.314-11.314l28.617 28.619a7.996 7.996 0 0 1 0 11.312 7.97 7.97 0 0 1-5.656 2.344z"/></g><g fill="#FFF"><path d="M47.747 78.329c0-10.033 14.737-10.009 14.737 0v2.424c0 10.009-14.737 10.033-14.737 0v-2.424zm3.144 2.424c0 6.097 8.449 6.097 8.449 0v-2.424c0-6-8.449-6.072-8.449 0v2.424zM63.946 85.266h2.521V74.033h-2.616v-2.88h5.76v14.113h2.328v2.688h-7.993v-2.688zM73.306 78.329c0-10.033 14.737-10.009 14.737 0v2.424c0 10.009-14.737 10.033-14.737 0v-2.424zm3.144 2.424c0 6.097 8.449 6.097 8.449 0v-2.424c0-6-8.449-6.072-8.449 0v2.424zM89.506 85.266h2.521V74.033H89.41v-2.88h5.76v14.113h2.328v2.688h-7.992v-2.688zM98.866 78.329c0-10.033 14.737-10.009 14.737 0v2.424c0 10.009-14.737 10.033-14.737 0v-2.424zm3.144 2.424c0 6.097 8.449 6.097 8.449 0v-2.424c0-6-8.449-6.072-8.449 0v2.424zM115.065 85.266h2.521V74.033h-2.616v-2.88h5.761v14.113h2.328v2.688h-7.993v-2.688z"/></g><g fill="#FFF"><path d="M47.242 111.6h2.521v-11.234h-2.616v-2.88h5.76V111.6h2.328v2.688h-7.993V111.6zM56.603 104.662c0-10.033 14.737-10.009 14.737 0v2.424c0 10.01-14.737 10.033-14.737 0v-2.424zm3.144 2.424c0 6.098 8.449 6.098 8.449 0v-2.424c0-6-8.449-6.072-8.449 0v2.424zM72.802 111.6h2.521v-11.234h-2.616v-2.88h5.76V111.6h2.328v2.688h-7.993V111.6zM82.162 104.662c0-10.033 14.737-10.009 14.737 0v2.424c0 10.01-14.737 10.033-14.737 0v-2.424zm3.144 2.424c0 6.098 8.449 6.098 8.449 0v-2.424c0-6-8.449-6.072-8.449 0v2.424zM98.361 111.6h2.521v-11.234h-2.617v-2.88h5.761V111.6h2.328v2.688h-7.993V111.6zM107.722 104.662c0-10.033 14.737-10.009 14.737 0v2.424c0 10.01-14.737 10.033-14.737 0v-2.424zm3.143 2.424c0 6.098 8.449 6.098 8.449 0v-2.424c0-6-8.449-6.072-8.449 0v2.424z"/></g></svg>