<svg xmlns="http://www.w3.org/2000/svg" width="185" height="212" viewBox="0 0 185 212"><path fill="#FDF1F6" d="M132.043 151.498h-19.462L87.292 122.49H71.549v29.008H55.187V64.6c13.76 0 27.52.124 41.279.124 20.454.124 31.239 13.76 31.239 28.76 0 11.9-5.455 23.925-21.941 27.271l26.279 29.627v1.116zM71.549 79.971v27.767h24.917c10.413 0 14.876-6.941 14.876-13.883s-4.587-13.884-14.876-13.884H71.549z"/><path fill="#ECC86D" d="M92.547 211.597L.748 158.596V53.258l91.799 53z"/><path fill="#E8CD5B" d="M92.547 211.597l91.799-53.001V53.258l-91.799 53z"/><path fill="#ECBA1C" d="M92.26 181.102l-65.214-37.653.001-47.542L92.26 132.99z"/><path fill="#E9B02B" d="M92.261 181.102l65.214-37.653-.002-47.974-65.212 37.515z"/><path fill="#E7BA48" d="M92.057 58.059v74.832l.203.117 64.806-37.416z"/><path fill="#EEBD46" d="M92.158 58.059v74.832l-.204.117-64.807-37.416z"/><path fill="#F4D34B" d="M92.547 106.093l-91.799-53L91.974.424l91.799 53z"/><g><g fill="#B77D09"><path d="M134.535 144.686a5.239 5.239 0 0 0-.262-1.089c-.899-3.434-2.936-9.685-3.858-12.479a5.696 5.696 0 0 0-.475-1.396v-.024a6.778 6.778 0 0 0-2.628-2.911c-.071-.048-.213-.119-.402-.214-.07-.047-.166-.071-.237-.119-2.249-1.064-9.139-3.812-9.139-3.812-3.457-1.492-7.01-2.771-10.655-4.049-.64 2.698-6.82 20.671-7.814 23.157l-.781-16.694c.26-.401.449-.852.639-1.278l2.581-5.09c-1.823 1.515-4.521 2.462-7.575 2.462-2.96 0-5.636-.923-7.435-2.367l2.511 4.995c.213.427.378.877.638 1.278l-.783 16.694c-.971-2.486-7.15-20.459-7.813-23.157-3.646 1.303-7.222 2.58-10.655 4.049 0 0-6.89 2.747-9.141 3.812-.071.048-.165.072-.236.119-.189.095-.332.166-.403.214a6.796 6.796 0 0 0-2.628 2.911v.024a7.53 7.53 0 0 0-.473 1.396c-.924 2.794-2.96 9.045-3.86 12.479-.119.355-.212.71-.26 1.089a7.342 7.342 0 0 0-.071 1.019 6.659 6.659 0 0 0 6.653 6.654h67.956a6.66 6.66 0 0 0 6.653-6.654c.048-.355.001-.686-.047-1.019zM111.354 87.67c0-1.183.237-5.445.237-6.416 0-9.52-7.72-17.214-17.215-17.214h-.755c-9.518 0-17.213 7.719-17.213 17.214 0 .971.237 5.233.237 6.416-.426.024-4.262-.899-3.86 3.719.876 9.802 4.618 7.884 4.712 7.884 1.847 5.896 4.689 9.659 7.483 12.074 4.356 3.741 8.594 4.144 8.664 4.144h.71c.07 0 4.285-.402 8.618-4.097 2.817-2.391 5.683-6.178 7.53-12.097.118 0 3.835 1.894 4.712-7.885.402-4.641-3.434-3.718-3.86-3.742z"/><path d="M65.069 131.36c.024-.261.119-.758.167-1.019.071-.427.212-.828.331-1.255 1.018-3.409 2.747-9.116 3.836-12.407.166-.663.379-1.326.664-1.966l.733-2.106c-2.368-.947-4.783-1.824-7.245-2.7-.568 2.368-5.944 18.02-6.796 20.197l-.687-14.562c.237-.355.379-.733.568-1.112l2.249-4.452c-1.585 1.327-3.953 2.155-6.605 2.155-2.582 0-4.902-.806-6.488-2.061l2.203 4.357c.189.379.332.757.568 1.112l-.687 14.562c-.852-2.178-6.251-17.829-6.796-20.197-3.172 1.137-6.298 2.25-9.282 3.528 0 0-6.014 2.416-7.956 3.315-.071.023-.142.07-.213.094-.166.096-.285.144-.355.189a5.948 5.948 0 0 0-2.297 2.534v.023c-.189.379-.308.806-.402 1.23-.806 2.439-2.582 7.886-3.363 10.869-.094.309-.189.64-.237.947a5.621 5.621 0 0 0-.071.875 5.811 5.811 0 0 0 5.801 5.802h44.303c-1.255-1.918-2.013-4.19-2.013-6.653 0-.376 0-.848.07-1.299zM37.911 93.12c1.61 5.139 4.096 8.429 6.535 10.514 3.812 3.269 7.506 3.623 7.554 3.623h.615c.071 0 3.717-.354 7.506-3.574 2.462-2.085 4.948-5.376 6.583-10.562.095 0 3.363 1.658 4.121-6.89.354-4.025-3.008-3.22-3.363-3.244 0-1.019.189-4.735.189-5.587 0-8.288-6.725-15.013-15.013-15.013h-.662c-8.288 0-15.012 6.726-15.012 15.013 0 .852.213 4.569.213 5.587-.354.024-3.717-.781-3.363 3.244.735 8.523 4.002 6.889 4.097 6.889zM171.006 127.345a33.854 33.854 0 0 0-.189-1.61s-.309-1.753-.379-2.013c-.688-3.055-2.605-5.304-5.186-7.057a11.822 11.822 0 0 0-1.492-.876c-.663-.355-10.75-3.67-11.01-3.741.07.355.094.733.118 1.137 1.397.994 5.54 4.546 3.67 11.199 0 0-2.96-3.527-5.991-4.001-2.889 5.02-7.79 11.389-10.442 13.071-2.651-1.683-7.553-8.027-10.441-13.071-3.031.45-5.99 4.001-5.99 4.001-1.872-6.653 2.249-10.205 3.669-11.199.023-.403.048-.806.119-1.137-.189.071-6.133 2.014-9.211 3.078.142.379.261.782.354 1.161 1.091 3.29 2.937 8.974 3.836 12.406.048.143.403 1.706.497 2.274.072.448.072.923.072 1.372a11.91 11.91 0 0 1-2.013 6.654h42.431c2.321 0 4.286-.711 5.92-2.439 1.279-1.35 1.634-2.982 1.729-4.735.023-.308.048-1.634.048-1.634l-.119-2.84z"/><path d="M121.825 95.664c.237.876.402 1.682.379 2.463 0 .26-.024.521-.07.758-.214.733-1.776 3.221-2.014 3.647 2.747 2.96 6.347 3.622 9.922 4.38 1.064.213 2.131.354 3.268.496.379.072.733.143 1.112.213l-1.822 5.305s-.048 7.742 7.434 12.454h.048c7.482-4.712 7.436-12.454 7.436-12.454l-1.823-5.305c.379-.07.758-.142 1.113-.213 1.136-.142 2.225-.283 3.268-.496 3.575-.758 7.197-1.443 9.92-4.38-.236-.426-1.799-2.89-2.012-3.647a4.069 4.069 0 0 1-.072-.758c0-.781.144-1.61.381-2.463.235-.829.496-1.658.733-2.486a21.574 21.574 0 0 0 1.895-8.832c0-11.721-9.306-21.24-20.886-21.454h-.045c-11.579.214-20.885 9.732-20.885 21.454 0 3.149.662 6.132 1.895 8.832.353.852.613 1.656.825 2.486z"/></g></g><g><g fill="#FCFCED"><path d="M132.254 141.274a5.23 5.23 0 0 0-.262-1.088c-.899-3.434-2.936-9.686-3.858-12.479a5.667 5.667 0 0 0-.475-1.396v-.025a6.776 6.776 0 0 0-2.628-2.91c-.071-.049-.213-.119-.402-.215-.07-.047-.166-.07-.237-.119-2.249-1.064-9.139-3.811-9.139-3.811-3.457-1.492-7.01-2.771-10.655-4.049-.64 2.697-6.82 20.67-7.814 23.156l-.781-16.693c.26-.402.449-.852.639-1.279l2.581-5.09c-1.823 1.516-4.521 2.463-7.577 2.463-2.961 0-5.637-.924-7.436-2.367l2.511 4.994c.213.428.378.877.638 1.279l-.781 16.693c-.971-2.486-7.15-20.459-7.813-23.156-3.646 1.303-7.221 2.58-10.655 4.049 0 0-6.89 2.746-9.141 3.811-.071.049-.165.072-.236.119-.189.096-.332.166-.403.215a6.794 6.794 0 0 0-2.628 2.91v.025a7.48 7.48 0 0 0-.473 1.396c-.924 2.793-2.96 9.045-3.86 12.479a5.603 5.603 0 0 0-.26 1.088 7.357 7.357 0 0 0-.071 1.02 6.66 6.66 0 0 0 6.653 6.654h67.958a6.66 6.66 0 0 0 6.653-6.654c.047-.356 0-.686-.048-1.02zM109.072 84.259c0-1.183.237-5.445.237-6.416 0-9.52-7.72-17.214-17.215-17.214H91.337c-9.519 0-17.214 7.719-17.214 17.214 0 .971.237 5.233.237 6.416-.426.024-4.262-.899-3.86 3.719.876 9.802 4.618 7.884 4.712 7.884 1.847 5.896 4.688 9.661 7.483 12.075 4.356 3.74 8.595 4.143 8.665 4.143h.711c.07 0 4.286-.402 8.619-4.096 2.817-2.39 5.683-6.179 7.53-12.098.118 0 3.835 1.894 4.712-7.885.403-4.642-3.433-3.718-3.86-3.742z"/><path d="M62.786 127.95c.024-.262.119-.758.167-1.02.071-.426.212-.828.331-1.254 1.018-3.41 2.747-9.117 3.836-12.408.166-.662.379-1.326.664-1.965l.733-2.107c-2.368-.947-4.783-1.823-7.245-2.698-.568 2.366-5.944 18.019-6.796 20.196l-.687-14.562c.237-.355.379-.732.568-1.111l2.249-4.451c-1.585 1.326-3.953 2.154-6.605 2.154-2.582 0-4.902-.807-6.488-2.06l2.203 4.356c.189.379.332.756.568 1.111l-.687 14.562c-.852-2.178-6.251-17.83-6.796-20.196-3.172 1.136-6.298 2.249-9.282 3.526 0 0-6.014 2.416-7.956 3.316-.071.023-.142.07-.213.094-.166.096-.285.143-.355.189a5.95 5.95 0 0 0-2.297 2.533v.023c-.189.379-.308.807-.402 1.23-.806 2.439-2.582 7.887-3.363 10.869a7.244 7.244 0 0 0-.237.947 5.631 5.631 0 0 0-.071.875 5.812 5.812 0 0 0 5.801 5.803h44.303c-1.255-1.918-2.013-4.191-2.013-6.654-.001-.376-.001-.849.07-1.298zM35.627 89.709c1.61 5.139 4.096 8.429 6.535 10.514 3.812 3.269 7.506 3.624 7.554 3.624h.615c.071 0 3.717-.355 7.506-3.575 2.462-2.085 4.948-5.376 6.583-10.562.095 0 3.363 1.657 4.121-6.89.354-4.025-3.008-3.22-3.363-3.244 0-1.019.189-4.735.189-5.587 0-8.288-6.725-15.013-15.013-15.013h-.662c-8.288 0-15.012 6.726-15.012 15.013 0 .852.213 4.569.213 5.587-.354.024-3.717-.781-3.363 3.244.735 8.523 4.002 6.889 4.097 6.889zM168.725 123.935a33.898 33.898 0 0 0-.189-1.611s-.309-1.752-.379-2.012c-.688-3.055-2.605-5.305-5.186-7.057a11.95 11.95 0 0 0-1.492-.877c-.663-.355-10.75-3.67-11.01-3.74.07.355.094.732.118 1.137 1.397.994 5.54 4.545 3.67 11.199 0 0-2.96-3.527-5.991-4.002-2.889 5.02-7.79 11.389-10.442 13.072-2.651-1.684-7.553-8.027-10.441-13.072-3.031.451-5.99 4.002-5.99 4.002-1.872-6.654 2.249-10.205 3.669-11.199.023-.404.048-.807.119-1.137-.189.07-6.133 2.014-9.211 3.078.142.379.261.781.354 1.16 1.091 3.291 2.937 8.975 3.836 12.406.048.143.403 1.707.497 2.275.072.447.072.922.072 1.371 0 2.463-.734 4.738-2.013 6.654h42.431c2.321 0 4.286-.711 5.92-2.439 1.279-1.35 1.634-2.982 1.729-4.734.023-.309.048-1.635.048-1.635l-.119-2.839z"/><path d="M119.544 92.253c.237.875.402 1.682.379 2.463 0 .26-.024.52-.07.758-.214.732-1.776 3.221-2.014 3.646 2.747 2.96 6.347 3.622 9.922 4.38 1.064.214 2.131.355 3.268.497.379.072.733.143 1.112.213l-1.822 5.305s-.048 7.742 7.434 12.453h.048c7.482-4.711 7.436-12.453 7.436-12.453l-1.823-5.305c.379-.07.758-.142 1.113-.213 1.136-.142 2.225-.283 3.268-.497 3.575-.758 7.197-1.443 9.92-4.38-.236-.426-1.799-2.891-2.012-3.646a4.069 4.069 0 0 1-.072-.758c0-.781.144-1.61.381-2.463.235-.83.496-1.658.733-2.487a21.574 21.574 0 0 0 1.895-8.832c0-11.721-9.306-21.24-20.886-21.454h-.045c-11.579.214-20.885 9.732-20.885 21.454 0 3.149.662 6.132 1.895 8.832.352.853.613 1.657.825 2.487z"/></g></g></svg>