<svg xmlns="http://www.w3.org/2000/svg" width="185" height="212" viewBox="0 0 185 212"><path fill="#5FA5C3" d="M92.453 211.162L.654 158.16.655 52.822l91.798 53z"/><path fill="#5D9DBC" d="M92.028 211.162l91.799-53.002V52.822l-91.799 53z"/><path fill="#2684B9" d="M92.166 181.091l-65.214-37.653.001-47.542 65.213 37.083z"/><path fill="#1C75A8" d="M92.167 181.091l65.214-37.653-.002-47.974-65.212 37.515z"/><path fill="#3CA5C1" d="M91.962 58.048v74.832l.204.117 64.807-37.416z"/><path fill="#3BAAD2" d="M92.063 58.473v74.832l-.203.117-64.806-37.416z"/><path fill="#64ABC4" d="M92.453 106.082l-91.799-53L91.88.413l91.8 53z"/><path fill="#144784" d="M40.375 116.588a2.58 2.58 0 0 0 4.772 1.956 3.688 3.688 0 0 1 2.006-2.019 3.686 3.686 0 0 1 2.846-.004 2.572 2.572 0 0 0 1.976-.002 2.579 2.579 0 0 0-.005-4.764 8.815 8.815 0 0 0-6.8.009 8.81 8.81 0 0 0-4.795 4.824z"/><path fill="#144784" d="M38.512 115.354a10.557 10.557 0 0 1 5.744-5.781 10.54 10.54 0 0 1 8.151-.008 2.558 2.558 0 0 0 1.976-.004 2.579 2.579 0 0 0-.004-4.765 15.674 15.674 0 0 0-12.105.015 15.683 15.683 0 0 0-8.532 8.589 2.58 2.58 0 0 0 1.409 3.364 2.575 2.575 0 0 0 3.361-1.41z"/><g><g fill="#E1F6FF"><path d="M39.15 114.554a2.577 2.577 0 0 0 1.408 3.363 2.58 2.58 0 0 0 3.364-1.406 3.687 3.687 0 0 1 2.005-2.019 3.693 3.693 0 0 1 2.847-.004 2.577 2.577 0 0 0 3.368-1.399 2.578 2.578 0 0 0-1.396-3.367 8.81 8.81 0 0 0-6.8.01 8.8 8.8 0 0 0-4.796 4.822z"/><path d="M37.286 113.322a10.572 10.572 0 0 1 5.743-5.785 10.554 10.554 0 0 1 8.151-.007c.66.272 1.367.253 1.977-.003a2.579 2.579 0 0 0-.004-4.764 15.672 15.672 0 0 0-12.106.015 15.678 15.678 0 0 0-8.531 8.589 2.58 2.58 0 0 0 1.409 3.364c1.315.54 2.82-.09 3.361-1.409z"/></g></g><g><path fill="#144784" d="M153.134 118.691c-6.67-6.601-7.561-9.675-7.726-10.34-.819-3.286.816-7.467.521-10.92-1.021-11.775-8.001-22.637-17.769-29.153-5.343-3.561-11.55-5.745-17.913-6.575-17.544-2.28-36.026 5.424-42.637 22.659-5.697 14.815-.083 29.521 10.101 40.739 3.68 4.047 4.191 11.656 4.191 16.785v10.397a2.887 2.887 0 0 0 2.884 2.885h37.628a2.896 2.896 0 0 0 2.886-2.705c.131-2.044.367-3.837.367-3.837.783-3.37 3.656-6.076 9.781-5.103 6.408 1.032 10.456-.878 10.813-5.153-.519 5.587.111 1.83.203-13.447.308-.179 2.312-.569 5.245-1.248 2.279-.511 3.086-3.346 1.425-4.984zM133.498 93.49c-.926 1.174-1.98 1.399-2.537 1.435a.288.288 0 0 0-.262.367c.285 1.01.581 3.788-4.402 4.867-4.666 1.01-7.492 4.645-9.331 6.495-1.413 1.413-3.335 2.066-5.245 2.49-1.947.441-3.883.833-5.425 2.221-1.628 1.462-3.906 9.497-4.3 10.897a.276.276 0 0 1-.272.214h-2.398a.283.283 0 0 1-.272-.227l-1.161-5.496c-.048-.226-11.301.7-12.167-4.318-.035-.179-.213-.297-.38-.229-1.079.382-4.557 1.343-6.434-1.553-1.331-2.065-.974-3.989-.783-4.641a.299.299 0 0 0-.167-.345c-.949-.402-4.404-2.34-3.941-8.714.38-5.128 3.857-7.396 3.37-8.19-1.399-2.267-.189-6.042 2.684-6.885a.293.293 0 0 0 .202-.26l.131-1.33c.391-4.712 6.586-7.704 10.798-5.745.167.071.358-.011.403-.178.535-1.673 1.593-2.137 1.879-2.29 1.305-.736 3.003-.641 4.355-.095.106.046.237.023.307-.06.395-.416 1.959-1.722 4.573-1.722 2.669 0 4.022 1.306 4.497 1.662a.29.29 0 0 0 .31.035c.593-.308 2.787-1.294 4.984-.532 1.662.569 2.601 2.077 2.896 2.623a.322.322 0 0 0 .333.154c.783-.19 3.513-.713 5.805.32 2.408 1.092 3.168 2.67 3.359 3.205.033.106.142.178.258.19.524.011 1.973.143 2.863.891 1.577 1.329 1.423 2.374 1.247 2.825a.268.268 0 0 0 .13.355 9.13 9.13 0 0 1 4.001 4.012c1.734 3.42 1.043 6.353.092 7.552z"/><path fill="#E1F6FF" d="M149.35 116.454c-6.67-6.601-7.561-9.676-7.727-10.342-.819-3.287.817-7.468.522-10.921-1.021-11.775-8-22.637-17.77-29.153-5.342-3.561-11.55-5.745-17.911-6.576-17.548-2.279-36.029 5.424-42.64 22.659-5.697 14.815-.083 29.524 10.101 40.743 3.68 4.045 4.191 11.656 4.191 16.784v10.398A2.887 2.887 0 0 0 81 152.929h37.628a2.896 2.896 0 0 0 2.887-2.705c.131-2.043.367-3.835.367-3.835.783-3.37 3.655-6.076 9.78-5.103 6.408 1.031 10.456-.878 10.813-5.152.131-1.413.204-13.448.204-13.448.307-.179 2.312-.57 5.245-1.249 2.282-.509 3.087-3.344 1.426-4.983zM129.716 91.25c-.927 1.176-1.982 1.401-2.539 1.436a.288.288 0 0 0-.261.367c.284 1.009.581 3.788-4.401 4.868-4.668 1.008-7.492 4.644-9.332 6.493-1.412 1.415-3.335 2.065-5.245 2.491-1.947.441-3.882.834-5.426 2.224-1.627 1.462-3.905 9.497-4.299 10.896a.275.275 0 0 1-.273.214h-2.396a.282.282 0 0 1-.273-.226l-1.162-5.496c-.046-.225-11.302.702-12.168-4.318-.035-.179-.213-.297-.379-.228-1.079.381-4.557 1.343-6.434-1.552-1.331-2.069-.973-3.993-.783-4.645a.3.3 0 0 0-.167-.346c-.949-.403-4.403-2.339-3.941-8.714.381-5.128 3.857-7.396 3.371-8.191-1.399-2.266-.189-6.041 2.684-6.884a.293.293 0 0 0 .202-.26l.131-1.331c.392-4.711 6.588-7.703 10.799-5.744.169.071.358-.011.403-.179.534-1.673 1.592-2.136 1.875-2.29 1.306-.736 3.006-.641 4.36-.095.107.047.237.024.308-.059.392-.416 1.959-1.721 4.571-1.721 2.67 0 4.024 1.305 4.498 1.661a.29.29 0 0 0 .309.036c.594-.309 2.789-1.294 4.986-.532 1.661.569 2.6 2.076 2.896 2.622.07.118.2.178.331.154.784-.19 3.514-.713 5.805.32 2.41 1.092 3.17 2.67 3.36 3.205.034.106.141.178.258.19.523.011 1.973.142 2.86.89 1.582 1.33 1.427 2.375 1.249 2.825-.06.142 0 .296.13.354a9.14 9.14 0 0 1 4.002 4.013c1.729 3.421 1.039 6.354.091 7.552z"/></g><g><path fill="#144784" d="M94.491 133.675c-.324-.633-8.223-15.737-26.599-15.737-18.389 0-26.285 15.104-26.61 15.737a3.457 3.457 0 0 0 0 3.123c.325.635 8.199 15.737 26.61 15.737s26.274-15.103 26.61-15.737a3.485 3.485 0 0 0-.011-3.123zm-26.598 12.651c-5.801 0-10.525-4.979-10.525-11.089 0-6.112 4.724-11.089 10.525-11.089 5.8 0 10.514 4.977 10.514 11.089-.001 6.111-4.714 11.089-10.514 11.089z"/><path fill="#E1F6FF" d="M92.033 132.894c-.325-.603-8.245-14.975-26.666-14.975-18.434 0-26.351 14.372-26.675 14.975a3.137 3.137 0 0 0 0 2.972c.325.605 8.219 14.977 26.675 14.977s26.34-14.373 26.678-14.977a3.165 3.165 0 0 0-.012-2.972zm-26.666 12.039c-5.816 0-10.552-4.736-10.552-10.554 0-5.815 4.735-10.552 10.552-10.552 5.815 0 10.54 4.735 10.54 10.552 0 5.817-4.724 10.554-10.54 10.554z"/></g><g><path fill="#144784" d="M75.767 132.154c0 2.527-2.155 4.593-4.793 4.593-2.651 0-4.806-2.065-4.806-4.593 0-2.542 2.155-4.606 4.806-4.606 2.639-.003 4.793 2.064 4.793 4.606z"/><path fill="#E1F6FF" d="M73.702 129.831c0 2.527-2.156 4.593-4.793 4.593-2.651 0-4.806-2.065-4.806-4.593 0-2.542 2.155-4.606 4.806-4.606 2.638-.003 4.793 2.064 4.793 4.606z"/></g></svg>