<svg xmlns="http://www.w3.org/2000/svg" width="355.062" height="40.176" viewBox="16.371 34.596 355.062 40.176"><path fill="#3E3A39" d="M116.183 50.664c-.45-.489-1.163-1.464-1.501-1.951l-1.313 1.99H89.871c-.711 0-1.201-.375-1.426-.863-.263-.563-.188-1.276.3-1.84l9.271-10.998h4.504L93.249 48h20.982c-1.464-2.402-2.928-5.066-4.091-7.619h3.864c1.652 3.641 4.017 7.206 6.72 10.283h-4.541zm1.651 17.906a3.073 3.073 0 0 1-2.291 1.012H93.137c-.939 0-1.727-.335-2.328-.9-.676-.636-1.051-1.538-1.051-2.514v-8.445c0-.939.339-1.766.938-2.367.601-.599 1.464-.974 2.514-.974h22.221c.975 0 1.877.411 2.476 1.088.526.601.827 1.427.827 2.403v8.218c.002 1.051-.337 1.878-.9 2.479zm-2.552-10.36c0-.639-.524-1.089-1.088-1.089H94.375c-.488 0-1.088.45-1.088 1.05v7.732c0 .489.339.94.864.94h20.23c.375 0 .9-.451.9-.94l.001-7.693zM127.068 69.77h-3.642c1.313-3.454 3.003-9.684 3.379-13.475h3.228c-.488 3.453-1.876 9.873-2.965 13.475zm-.301-24.961c-.9-1.763-2.553-5.629-3.265-7.881h3.452c.526 2.026 2.216 5.817 3.454 7.881h-3.641zm-.112 9.573c-1.014-1.953-2.552-6.006-3.116-8.259h3.416c.526 2.214 2.252 6.192 3.454 8.259h-3.754zm5.931-.977h-2.102c.412-1.314.788-3.715.9-5.442h1.877c-.074 1.688-.299 4.015-.675 5.442zm18.393-8.296h2.667a26.717 26.717 0 0 1-.449-1.877h2.063c.15.976.675 2.853 1.128 3.83h-2.14c-.15-.377-.376-1.126-.527-1.54l-.9 1.54h-3.604c-.714 0-1.165-.34-1.314-.789-.15-.45 0-1.051.488-1.539.752-.789 1.917-2.026 2.327-2.59h-1.239c-.376 0-.676-.075-.901-.226-.301-.188-.45-.488-.563-.826h-8.933v-.863c-1.126 1.163-3.679 3.791-4.955 5.03h2.628c-.113-.489-.3-1.315-.338-1.84h2.063c.115 1.014.564 2.74.977 3.716h-2.14a26.732 26.732 0 0 1-.45-1.313l-.863 1.313h-4.166c-.452 0-.827-.301-.976-.675a.98.98 0 0 1 .188-1.165c.9-.863 2.176-2.214 2.926-3.04h-1.801c-.524 0-.938-.3-1.124-.675-.189-.413-.189-1.052.186-1.39a124.58 124.58 0 0 0 3.078-3.227h3.19c-.863.938-2.551 2.702-3.415 3.565h1.614c.262-.262.789-.789.976-1.014h2.403v-.6h2.928c-.188-.525-.413-1.463-.525-1.989h3.04c.038.487.299 1.464.487 1.989h3.266v1.013c.751-.788 2.029-2.289 2.667-3.077h2.851c-.674.899-2.176 2.702-3.001 3.603h1.538c.413-.413 1.05-1.125 1.352-1.539h2.854c-1.394 1.616-3.759 4.281-5.561 6.195zm3.83 23.723a2.814 2.814 0 0 1-2.064.938h-10.21l-1.427-2.364h10.324c.3 0 .638-.412.638-.752v-.824c0-.337-.301-.788-.638-.788h-16.668c-.788 0-1.426-.225-1.877-.676-.412-.414-.637-.976-.637-1.726v-1.275c0-.979.337-1.655.938-2.104.487-.339 1.126-.525 1.952-.525h15.767c.338 0 .675-.411.675-.715v-.411a.66.66 0 0 0-.638-.64h-19.107v-2.177h20.609c.825 0 1.538.227 1.988.64.339.374.563.862.563 1.537v1.689c0 .714-.262 1.276-.713 1.688-.448.377-1.086.602-1.837.602h-16.256c-.299 0-.602.301-.602.638v.64a.66.66 0 0 0 .64.636h16.744c.711 0 1.237.264 1.65.602.488.487.752 1.126.752 1.804v2.061c-.003.565-.229 1.089-.566 1.502zm-20.385-15.427c-.188-1.314-.45-4.055-.45-5.442h1.727c-.038 1.388.226 4.053.488 5.442h-1.765zm2.703 0c-.3-1.502-.564-4.093-.601-5.442h1.688c.039 1.537.414 4.091.713 5.442h-1.8zm9.796-.488c-.338.338-.787.524-1.35.524h-4.354c-.601 0-1.089-.148-1.389-.488-.338-.336-.525-.786-.525-1.388v-1.613c0-.713.225-1.277.675-1.651.338-.262.788-.376 1.352-.376h4.203c.603 0 1.127.225 1.464.637.265.338.413.751.413 1.315v1.726c0 .526-.187.975-.489 1.314zm-7.207-8.896v-1.876h7.583v1.876h-7.583zm0 2.891v-1.915h7.619v1.915h-7.619zm5.105 3.451c0-.261-.225-.562-.488-.562h-1.913c-.264 0-.564.264-.564.562v.602c0 .3.262.563.564.563h1.951c.262 0 .45-.264.45-.524v-.641zm4.769 3.004h-2.028c.526-1.614.864-3.979.94-5.48h1.877c0 1.464-.376 4.016-.789 5.48zm1.878 0c-.225-1.238-.412-3.942-.375-5.48h1.688c.039 1.464.338 4.242.563 5.48h-1.876zm2.928 0c-.263-1.312-.563-4.055-.676-5.48h1.802c.114 1.39.45 4.129.712 5.48h-1.838zM166.032 69.77h-7.056c2.814-1.049 5.368-2.703 7.131-4.204h5.369c-1.579 1.691-3.456 3.155-5.444 4.204zm-6.645-20.794v-2.741c3.641-.374 7.17-1.163 10.586-2.101v2.628c-3.529.937-6.945 1.688-10.586 2.214zm4.617-6.719c-1.39-1.126-3.04-3.002-4.016-4.43h4.579c1.162 1.613 2.853 3.265 4.505 4.43h-5.068zm24.659 21.395c-.486.6-1.198.978-2.023.978h-21.922c-.788 0-1.539-.378-2.065-.941-.45-.486-.749-1.125-.749-1.837v-8.597c0-.75.338-1.428.899-1.916a2.984 2.984 0 0 1 1.951-.713h21.657c.752 0 1.464.265 1.991.753.603.525.975 1.313.975 2.14V61.7a2.971 2.971 0 0 1-.714 1.952zm-2.812-9.91c0-.375-.451-.751-.865-.751h-18.88c-.338 0-.789.301-.789.751v.716h20.533v-.716h.001zm0 2.928h-20.533v1.802h20.533V56.67zm0 3.94h-20.533v.827c0 .487.489.902.977.902h18.693c.489 0 .866-.339.866-.828l-.003-.901zm-1.392-11.033c-1.423-.9-2.851-2.217-3.976-3.604-1.163 1.651-2.777 3.077-4.693 3.604h-7.433c2.964-.714 5.557-1.802 7.319-3.154 1.54-1.163 2.591-2.627 2.667-4.617h3.451c-.112.975-.449 2.214-.899 3.227h3.228c2.063 2.029 4.616 3.341 7.58 4.541l-7.244.003zm5.294-5.744H185.7c.712-1.014 1.201-1.801 1.425-2.439.077-.225-.111-.489-.3-.489h-11.186c-.599.938-1.313 1.952-1.988 2.741h-4.503c1.877-1.99 3.604-4.167 4.579-6.645h3.829c-.074.375-.414 1.163-.563 1.502h11.862c.637 0 1.239.226 1.653.638.448.451.675 1.163.525 1.914-.19.903-.754 1.991-1.28 2.778zm-4.542 25.937c-1.801-1.199-3.679-2.589-5.255-4.204h5.481c2.028 1.652 4.391 3.192 6.831 4.204h-7.057zM204.616 50.814v18.917h-3.264V50.814h-6.534V48.3h6.534V36.889h3.264v11.412h5.706v2.514h-5.706v-.001zm-6.342 16.404h-3.418c1.878-4.805 2.627-9.873 2.627-15.014h3.003c0 4.505-.75 10.774-2.212 15.014zm-.828-20.456c-1.162-2.592-1.914-5.292-2.438-8.146h3.303a31.77 31.77 0 0 0 2.363 8.146h-3.228zm10.961 0h-3.19c1.13-2.515 2.142-5.292 2.592-8.146h3.155c-.642 2.778-1.392 5.592-2.557 8.146zm-.824 20.456c-1.201-4.766-1.691-9.873-1.989-15.014h2.926c.303 5.178.866 10.322 2.329 15.014h-3.266zm17.714-6.232v8.672h-3.376v-8.485l-10.624.679v-2.628l10.624-.679V36.889h3.376v21.435l2.215-.077v2.628l-2.215.111zm-8.743-14.6c-1.951-2.44-3.417-5.067-4.692-7.77h3.904c1.275 2.74 2.813 5.479 5.178 7.77h-4.39zm-.376 9.047c-1.615-2.328-2.929-4.807-3.867-7.433h3.679c1.052 2.626 2.516 5.219 4.506 7.433h-4.318zM233.519 65.942h-3.229c1.5-5.067 1.989-10.548 2.141-16.142h2.854c-.041 5.52-.566 11.036-1.766 16.142zm6.003-17.793v21.695h-3.188V48.149h-5.557v-2.627h5.557v-4.805c-1.427.076-3.379.188-4.992.262v-2.552c4.468-.113 8.819-.601 12.987-1.463v2.666c-1.314.224-3.681.6-4.805.751v5.142h5.591v2.627h-5.593zm2.816 17.793c-1.161-5.441-1.649-11.373-1.764-16.142h2.93a68.2 68.2 0 0 0 2.143 16.142h-3.309zm18.28-5.783v9.686h-3.454v-9.157l-11.521 1.501v-2.704l11.521-1.498V36.964h3.454v20.571l2.666-.301v2.627l-2.666.298zm-9.909-4.54c-1.876-2.253-3.527-4.844-4.917-7.47h3.828c1.502 2.628 3.266 5.218 5.556 7.47h-4.467zm.413-9.196c-1.914-2.364-3.565-4.917-4.843-7.507h3.943c1.389 2.478 3.114 5.331 5.328 7.507h-4.428zM284.454 62.787v3.755c0 1.051-.227 1.915-.828 2.479-.488.45-1.277.751-2.327.751h-4.879l-.938-2.515h4.84c.377 0 .639-.227.639-.675v-3.795h-14.788v-2.401h14.788v-.824c1.275-.338 3.451-1.164 4.504-1.615h-13.173v-2.438h18.241c.711 0 1.163.376 1.315.824.185.528.035 1.126-.525 1.464-1.428.826-3.87 1.913-5.816 2.59h13.437v2.401h-14.49zm10.619-5.74v-2.854c0-.451-.262-.752-.714-.752h-23.683c-.3 0-.712.339-.712.752v2.854h-3.34v-3.005c0-.75.147-1.314.376-1.763.301-.526.749-.865 1.314-1.164V40.718c0-.525.263-1.014.601-1.426.449-.488 1.05-.825 1.464-.9 1.913-.301 5.219-.977 7.019-1.502v2.628c-1.351.3-3.903.826-5.18 1.088-.34.075-.713.413-.713.789v.712h5.106v2.141h-5.106v2.327h5.106v2.214h-5.106v2.216h21.957v-2.216h-4.955v-2.214h4.955v-2.327h-4.955v-2.141h5.028v-1.501c0-.488-.298-.825-.864-.825h-4.541v-2.328h5.446c1.01 0 1.838.299 2.363.9.485.526.752 1.276.752 2.29V51.19a2.5 2.5 0 0 1 1.161.977c.302.489.451.976.451 1.5v3.381h-3.23zm-10.583-6.944a30.575 30.575 0 0 1-1.839-1.277c-.564.451-1.429 1.015-1.952 1.277h-4.055c1.127-.676 3.266-2.063 4.205-2.854a58.608 58.608 0 0 1-3.003-3.115h3.452c.301.412 1.089 1.162 1.464 1.538.412-.338 1.203-1.087 1.651-1.538h3.38c-.789.899-2.403 2.478-3.23 3.19.979.862 2.892 2.176 3.908 2.778h-3.981zm-.49-6.757a17.488 17.488 0 0 1-1.388-1.051c-.412.3-1.163.825-1.578 1.051h-3.976c.977-.638 2.852-1.952 3.713-2.665-.752-.675-2.253-2.214-3.003-3.34h3.417c.411.526 1.163 1.35 1.501 1.727a39.01 39.01 0 0 0 1.768-1.727h3.3c-.938 1.163-2.366 2.666-3.191 3.378.865.713 2.63 2.026 3.527 2.627H284zM322.777 60.616v9.033h-3.418v-9.033h-15.798v-2.568h4.35v-6.465c0-.892.372-1.748.966-2.304.56-.56 1.301-.892 2.193-.892h8.289v-5.651h-8.474c-.969 1.932-2.382 4.387-3.385 5.723h-4.349c3.194-3.27 5.204-7.58 6.282-11.224h3.68c-.262.781-.746 2.081-1.117 2.863h23.568v2.639h-12.788v5.651h11.562v2.637h-11.562v7.023h13.195v2.568h-13.194zm-3.42-9.592h-7.247c-.375 0-.744.374-.744.746v6.277h7.991v-7.023zM366.379 44.893a73.214 73.214 0 0 1-5.241-4.944c-.263-.26-.855-.482-1.229-.482h-9.292c-.408 0-1.115.297-1.338.557-1.338 1.413-3.604 3.606-5.166 4.869h-5.465c3.345-2.08 6.395-4.869 8.364-6.876.26-.297.63-.521 1.114-.67a3.945 3.945 0 0 1 1.191-.185h12.079c.411 0 .854.111 1.261.259.448.149.857.409 1.117.669a62.717 62.717 0 0 0 7.657 6.803h-5.052zm2.19 9.997c-.556.596-1.336 1.042-2.269 1.042h-22.896c-.703 0-1.334-.336-1.821-.78-.595-.559-.964-1.339-.964-2.083v-3.903c0-.817.335-1.597.894-2.155a3.002 3.002 0 0 1 2.191-.966h22.414c.817 0 1.636.263 2.229.78.669.558 1.081 1.415 1.081 2.492v3.529c-.003.708-.299 1.451-.859 2.044zm-1.97 13.902c-.592.521-1.45.82-2.452.82H345.3c-.74 0-1.522-.336-2.08-.857-.594-.596-1.002-1.413-1.002-2.305v-5.834c0-.82.483-1.638 1.19-2.157a3.077 3.077 0 0 1 1.892-.669h19.183c.933 0 1.749.372 2.34.931.596.594.932 1.448.932 2.451v5.207a3.08 3.08 0 0 1-1.156 2.413zm-13.23-20.333h-8.661c-.373 0-.779.373-.779.82v3.343c0 .559.332.895.705.895h3.606c-.445-.93-1.376-2.936-1.822-4.09h3.234c.374 1.154 1.374 3.125 1.896 4.09h1.821v-5.058zm11.039 12.566c0-.409-.521-.819-.968-.819h-16.837c-.558 0-.893.41-.893.855v1.413h18.697v-1.449h.001zm0 3.791h-18.7v1.41c0 .521.481.932.858.932h16.911c.555 0 .931-.446.931-.967v-1.375zm-16.207-20.705V41.77h13.977v2.342h-13.977zm18.028 5.242c0-.445-.409-.894-.893-.894h-8.62v5.058h1.819c.669-1.079 1.635-2.9 2.044-4.09h3.233c-.297.967-1.19 2.937-1.973 4.09h3.496c.518 0 .893-.41.893-.896v-3.268h.001z"/><path fill="none" stroke="#EC8400" stroke-width="2" stroke-miterlimit="10" d="M26.301 45.074l15.981 24.518M42.187 70.114l18.44-22.984M60.627 47.13l12.138 14.978"/><path fill="#EC8400" d="M16.371 34.596h11.002v11.001H16.371zM37.632 63.77h11.001v11.002H37.632zM55.128 42.405h10.999v11.007H55.128zM67.69 57.187h11v11.002h-11z"/></svg>