<?xml version="1.0" encoding="utf-8"?>
<!-- Generator: Adobe Illustrator 16.0.0, SVG Export Plug-In . SVG Version: 6.00 Build 0)  -->
<!DOCTYPE svg PUBLIC "-//W3C//DTD SVG 1.1//EN" "http://www.w3.org/Graphics/SVG/1.1/DTD/svg11.dtd">
<svg version="1.1" id="圖層_1" xmlns="http://www.w3.org/2000/svg" xmlns:xlink="http://www.w3.org/1999/xlink" x="0px" y="0px"
	 width="400px" height="336px" viewBox="0 0 400 336" enable-background="new 0 0 400 336" xml:space="preserve">
<g>
	<g>
		<path fill="#3D3939" d="M63.365,149.254c-0.795-0.861-2.054-2.583-2.65-3.444l-2.317,3.51H16.936
			c-1.258,0-2.119-0.661-2.518-1.523c-0.463-0.993-0.331-2.252,0.53-3.245l16.359-19.405h7.948l-16.359,19.405h37.023
			c-2.583-4.239-5.167-8.941-7.219-13.445h6.821c2.914,6.426,7.087,12.717,11.855,18.148L63.365,149.254L63.365,149.254z
			 M66.278,180.846c-1.06,1.191-2.583,1.79-4.04,1.79h-39.54c-1.656,0-3.047-0.599-4.107-1.592
			c-1.192-1.128-1.854-2.714-1.854-4.438v-14.9c0-1.656,0.596-3.112,1.656-4.173s2.583-1.723,4.437-1.723H62.04
			c1.723,0,3.312,0.729,4.371,1.922c0.928,1.058,1.458,2.516,1.458,4.237v14.506C67.868,178.33,67.271,179.785,66.278,180.846z
			 M61.774,162.567c0-1.126-0.926-1.923-1.92-1.923h-34.97c-0.861,0-1.921,0.797-1.921,1.854v13.642
			c0,0.864,0.597,1.656,1.524,1.656h35.699c0.663,0,1.589-0.792,1.589-1.656L61.774,162.567L61.774,162.567z"/>
		<path fill="#3D3939" d="M82.572,182.967h-6.425c2.317-6.095,5.298-17.089,5.96-23.778h5.695
			C86.941,165.282,84.491,176.605,82.572,182.967z M82.041,138.921c-1.589-3.113-4.503-9.934-5.762-13.908h6.093
			c0.927,3.576,3.908,10.266,6.093,13.908H82.041z M81.843,155.81c-1.789-3.444-4.504-10.596-5.498-14.57h6.027
			c0.927,3.907,3.975,10.928,6.093,14.57H81.843z M92.307,154.089h-3.708c0.728-2.318,1.391-6.557,1.589-9.604h3.312
			C93.367,147.465,92.969,151.571,92.307,154.089z M124.761,139.452h4.703c-0.265-0.927-0.662-2.583-0.795-3.312h3.644
			c0.264,1.722,1.191,5.034,1.986,6.755h-3.775c-0.265-0.662-0.662-1.988-0.926-2.717l-1.59,2.717h-6.358
			c-1.258,0-2.053-0.598-2.318-1.391c-0.266-0.795,0-1.854,0.86-2.716c1.325-1.39,3.378-3.577,4.106-4.568h-2.185
			c-0.662,0-1.193-0.132-1.59-0.398c-0.53-0.33-0.794-0.86-0.993-1.457h-15.763v-1.524c-1.987,2.055-6.491,6.69-8.743,8.875h4.636
			c-0.199-0.862-0.53-2.317-0.596-3.244h3.643c0.199,1.788,0.993,4.834,1.721,6.556h-3.775c-0.198-0.529-0.596-1.655-0.795-2.318
			l-1.522,2.318h-7.352c-0.795,0-1.458-0.529-1.723-1.192c-0.331-0.661-0.266-1.456,0.331-2.054c1.59-1.522,3.842-3.906,5.167-5.363
			h-3.179c-0.927,0-1.656-0.532-1.986-1.193c-0.332-0.729-0.332-1.855,0.332-2.451c1.324-1.325,4.106-4.238,5.431-5.697h5.629
			c-1.522,1.655-4.503,4.77-6.027,6.293h2.848c0.464-0.464,1.391-1.39,1.723-1.79h4.239v-1.06h5.166
			c-0.331-0.926-0.729-2.583-0.926-3.51h5.363c0.067,0.862,0.531,2.584,0.862,3.51h5.762v1.789c1.324-1.39,3.578-4.04,4.703-5.43
			h5.033c-1.192,1.589-3.841,4.769-5.299,6.357h2.715c0.728-0.727,1.855-1.987,2.385-2.716h5.034
			C132.112,131.371,127.939,136.074,124.761,139.452z M131.516,181.311c-0.86,0.991-2.252,1.656-3.643,1.656h-18.015l-2.518-4.175
			h18.214c0.531,0,1.126-0.729,1.126-1.324v-1.458c0-0.596-0.53-1.39-1.126-1.39H96.148c-1.391,0-2.516-0.397-3.31-1.191
			c-0.729-0.729-1.126-1.723-1.126-3.048v-2.251c0-1.723,0.596-2.916,1.656-3.71c0.861-0.597,1.987-0.928,3.444-0.928h27.818
			c0.596,0,1.192-0.728,1.192-1.258v-0.728c0-0.596-0.53-1.126-1.127-1.126H90.982v-3.843h36.36c1.458,0,2.716,0.398,3.51,1.128
			c0.596,0.662,0.994,1.522,0.994,2.716v2.979c0,1.257-0.464,2.252-1.258,2.981c-0.795,0.661-1.921,1.059-3.246,1.059H98.665
			c-0.528,0-1.059,0.53-1.059,1.127v1.127c0,0.596,0.531,1.125,1.126,1.125h29.54c1.258,0,2.185,0.464,2.913,1.061
			c0.862,0.861,1.325,1.986,1.325,3.179v3.642C132.51,179.654,132.112,180.582,131.516,181.311z M95.552,154.089
			c-0.331-2.318-0.794-7.154-0.794-9.604h3.046c-0.066,2.451,0.396,7.154,0.86,9.604H95.552z M100.321,154.089
			c-0.531-2.649-0.995-7.22-1.061-9.604h2.982c0.065,2.716,0.728,7.22,1.257,9.604H100.321z M117.607,153.228
			c-0.597,0.596-1.391,0.928-2.384,0.928h-7.683c-1.06,0-1.92-0.265-2.45-0.861c-0.596-0.597-0.928-1.391-0.928-2.45v-2.848
			c0-1.259,0.397-2.252,1.192-2.914c0.597-0.465,1.391-0.663,2.384-0.663h7.418c1.06,0,1.987,0.398,2.582,1.126
			c0.465,0.596,0.73,1.324,0.73,2.317v3.047C118.469,151.836,118.138,152.631,117.607,153.228z M104.89,137.53v-3.311h13.379v3.311
			H104.89z M104.89,142.629v-3.376h13.444v3.376H104.89z M113.898,148.725c0-0.464-0.397-0.994-0.861-0.994h-3.378
			c-0.464,0-0.993,0.464-0.993,0.994v1.06c0,0.53,0.462,0.994,0.993,0.994h3.444c0.465,0,0.795-0.464,0.795-0.928V148.725z
			 M122.311,154.021h-3.578c0.927-2.849,1.524-7.02,1.657-9.67h3.312C123.701,146.935,123.038,151.439,122.311,154.021z
			 M125.62,154.021c-0.396-2.186-0.728-6.953-0.661-9.67h2.98c0.065,2.584,0.597,7.484,0.994,9.67H125.62z M130.788,154.021
			c-0.464-2.318-0.994-7.153-1.193-9.67h3.179c0.199,2.451,0.794,7.286,1.259,9.67H130.788z"/>
		<path fill="#3D3939" d="M151.318,182.967h-12.451c4.967-1.856,9.471-4.771,12.584-7.42h9.471
			C158.141,178.526,154.828,181.11,151.318,182.967z M139.595,146.274v-4.836c6.425-0.661,12.65-2.053,18.677-3.708v4.636
			C152.047,144.021,146.02,145.346,139.595,146.274z M147.742,134.418c-2.45-1.987-5.365-5.3-7.088-7.816h8.08
			c2.055,2.848,5.034,5.763,7.949,7.816H147.742z M191.257,172.172c-0.862,1.059-2.119,1.722-3.577,1.722h-38.678
			c-1.391,0-2.716-0.661-3.643-1.656c-0.795-0.862-1.325-1.986-1.325-3.245v-15.167c0-1.325,0.596-2.517,1.589-3.379
			c0.928-0.793,2.119-1.257,3.444-1.257h38.215c1.325,0,2.584,0.464,3.512,1.324c1.061,0.928,1.722,2.319,1.722,3.775v14.439
			C192.514,170.049,192.051,171.242,191.257,172.172z M186.289,154.685c0-0.661-0.794-1.325-1.522-1.325h-33.315
			c-0.596,0-1.391,0.533-1.391,1.325v1.259h36.229V154.685z M186.289,159.851h-36.229v3.18h36.229V159.851z M186.289,166.806
			h-36.229v1.456c0,0.861,0.862,1.59,1.723,1.59h32.983c0.859,0,1.522-0.596,1.522-1.458V166.806z M183.839,147.332
			c-2.517-1.588-5.033-3.907-7.021-6.358c-2.053,2.915-4.901,5.433-8.279,6.358h-13.114c5.232-1.257,9.802-3.18,12.914-5.562
			c2.715-2.054,4.57-4.638,4.703-8.147h6.092c-0.197,1.722-0.794,3.908-1.589,5.696h5.697c3.642,3.577,8.146,5.895,13.377,8.013
			H183.839z M193.177,137.2h-7.153c1.257-1.789,2.119-3.18,2.516-4.305c0.134-0.398-0.198-0.862-0.53-0.862h-19.734
			c-1.061,1.658-2.319,3.446-3.512,4.836h-7.947c3.312-3.51,6.358-7.352,8.08-11.723h6.755c-0.132,0.663-0.729,2.053-0.995,2.647
			h20.931c1.128,0,2.187,0.398,2.913,1.127c0.795,0.795,1.194,2.054,0.928,3.379C195.098,133.888,194.104,135.809,193.177,137.2z
			 M185.163,182.967c-3.18-2.121-6.492-4.571-9.271-7.42h9.669c3.577,2.916,7.749,5.629,12.053,7.42H185.163z"/>
		<path fill="#3D3939" d="M219.404,149.519v33.378h-5.764v-33.378h-11.522v-4.437h11.522v-20.136h5.764v20.136h10.064v4.437H219.404
			z M208.209,178.463h-6.028c3.311-8.478,4.638-17.42,4.638-26.493h5.299C212.117,159.918,210.793,170.978,208.209,178.463z
			 M206.753,142.365c-2.054-4.57-3.378-9.337-4.306-14.373h5.829c0.729,4.967,2.185,9.87,4.173,14.373H206.753z M226.093,142.365
			h-5.633c1.991-4.437,3.778-9.337,4.572-14.373h5.562C229.469,132.895,228.145,137.862,226.093,142.365z M224.636,178.463
			c-2.119-8.414-2.981-17.42-3.512-26.493h5.165c0.533,9.14,1.526,18.214,4.107,26.493H224.636z M255.896,167.468v15.299h-5.961
			v-14.969l-18.741,1.193v-4.637l18.741-1.191v-38.217h5.961v37.819l3.908-0.132v4.636L255.896,167.468z M240.464,141.703
			c-3.441-4.304-6.025-8.94-8.28-13.708h6.89c2.253,4.834,4.967,9.67,9.14,13.708H240.464z M239.803,157.666
			c-2.849-4.107-5.168-8.479-6.822-13.116h6.49c1.855,4.637,4.438,9.206,7.948,13.116H239.803z"/>
		<path fill="#3D3939" d="M270.398,176.211h-5.695c2.649-8.942,3.511-18.612,3.775-28.48h5.032
			C273.447,157.465,272.518,167.202,270.398,176.211z M280.996,144.815v38.283h-5.628v-38.283h-9.803v-4.636h9.803v-8.477
			c-2.517,0.132-5.962,0.331-8.808,0.463v-4.503c7.88-0.199,15.562-1.06,22.914-2.584v4.702c-2.317,0.399-6.49,1.061-8.479,1.326
			v9.073h9.869v4.636H280.996L280.996,144.815z M285.963,176.211c-2.051-9.604-2.913-20.068-3.111-28.48h5.165
			c0.136,10.001,1.458,19.406,3.778,28.48H285.963z M318.218,166.011v17.087h-6.093v-16.16l-20.33,2.648v-4.768l20.33-2.648v-37.09
			h6.093v36.294l4.706-0.528v4.635L318.218,166.011z M300.733,157.997c-3.311-3.976-6.227-8.543-8.677-13.182h6.756
			c2.649,4.636,5.762,9.207,9.804,13.182H300.733z M301.462,141.77c-3.378-4.173-6.291-8.676-8.543-13.247h6.957
			c2.448,4.372,5.495,9.406,9.401,13.247H301.462z"/>
		<path fill="#3D3939" d="M360.276,170.646v6.625c0,1.853-0.399,3.376-1.458,4.369c-0.859,0.796-2.252,1.326-4.107,1.326h-8.608
			l-1.654-4.44h8.541c0.661,0,1.126-0.396,1.126-1.192v-6.688h-26.094v-4.239h26.094v-1.457c2.255-0.596,6.094-2.054,7.948-2.848
			h-23.246v-4.306h32.188c1.259,0,2.054,0.661,2.319,1.456c0.33,0.928,0.065,1.987-0.927,2.583
			c-2.517,1.456-6.822,3.376-10.264,4.57h23.711v4.239L360.276,170.646L360.276,170.646z M379.021,160.514v-5.033
			c0-0.796-0.463-1.325-1.262-1.325H335.97c-0.53,0-1.258,0.595-1.258,1.325v5.033h-5.896v-5.299c0-1.324,0.267-2.318,0.664-3.113
			c0.53-0.926,1.324-1.522,2.317-2.052v-18.346c0-0.927,0.463-1.789,1.059-2.518c0.794-0.86,1.854-1.456,2.584-1.589
			c3.378-0.53,9.207-1.722,12.385-2.65v4.636c-2.386,0.531-6.888,1.458-9.14,1.921c-0.599,0.132-1.26,0.729-1.26,1.391v1.258h9.009
			v3.775h-9.009v4.106h9.009v3.907h-9.009v3.909h38.748v-3.909h-8.743v-3.907h8.743v-4.106h-8.743v-3.775h8.874v-2.649
			c0-0.861-0.53-1.458-1.523-1.458h-8.014v-4.105h9.604c1.787,0,3.245,0.529,4.173,1.589c0.859,0.927,1.324,2.252,1.324,4.04v18.611
			c0.86,0.332,1.589,0.995,2.054,1.723c0.53,0.861,0.795,1.722,0.795,2.648v5.961L379.021,160.514L379.021,160.514z
			 M360.344,148.261c-0.864-0.53-2.453-1.655-3.247-2.251c-0.993,0.794-2.517,1.787-3.443,2.251h-7.154
			c1.988-1.192,5.764-3.644,7.418-5.034c-1.455-1.39-3.906-3.907-5.297-5.497h6.094c0.527,0.729,1.92,2.054,2.581,2.716
			c0.729-0.597,2.119-1.921,2.914-2.716h5.962c-1.393,1.59-4.24,4.371-5.696,5.628c1.722,1.525,5.101,3.843,6.888,4.902H360.344z
			 M359.479,136.337c-0.596-0.397-1.853-1.325-2.45-1.853c-0.728,0.528-2.052,1.457-2.78,1.853h-7.021
			c1.722-1.126,5.034-3.443,6.558-4.702c-1.327-1.193-3.977-3.907-5.301-5.895h6.027c0.729,0.929,2.054,2.384,2.649,3.048
			c0.797-0.729,2.187-2.054,3.114-3.048h5.827c-1.657,2.053-4.173,4.703-5.631,5.961c1.523,1.259,4.638,3.578,6.229,4.638h-7.222
			V136.337z"/>
		<path fill="#3D3939" d="M89.725,253.732c-3.443-1.523-8.609-3.974-11.79-5.562c-2.715,1.325-8.676,4.17-11.788,5.562H52.238
			c6.491-2.584,14.042-5.829,19.604-8.675c-3.378-1.722-6.888-3.645-10.199-5.63h10.332c1.258,0.729,4.172,2.187,5.563,2.848
			c2.848-1.458,5.696-3.047,8.478-4.769c0.198-0.067,0.198-0.396-0.134-0.396H59.258c-2.053,5.429-4.239,10.728-7.352,16.622h-7.021
			c5.299-8.808,8.412-17.022,10.399-24.108h6.359c-0.199,0.928-0.597,2.119-0.994,3.047h31.726c1.655,0,2.782,0.794,3.245,1.853
			c0.662,1.458,0.132,3.381-1.656,4.505c-2.385,1.523-7.815,4.635-10.331,6.027c5.96,2.848,12.385,5.631,19.935,8.677H89.725
			L89.725,253.732z M96.083,219.158v-4.968c0-0.992-0.728-1.586-1.656-1.586H53.23c-0.596,0-1.391,0.729-1.391,1.586v4.968h-6.026
			v-5.696c0-1.455,0.462-2.913,1.522-3.904c0.929-0.862,2.252-1.458,4.108-1.458h4.635c-0.861-1.588-2.252-4.635-2.914-6.16
			c-1.59,0.067-4.967-0.065-6.623-0.199v-4.633c16.027,0.199,40.6,0.33,54.774-1.327v4.769c-1.126,0.134-2.98,0.267-4.04,0.267
			c-1.391,2.451-2.982,4.899-4.638,7.284h3.775c1.789,0,3.245,0.53,4.173,1.458c1.06,0.991,1.59,2.386,1.59,3.975v5.628h-6.095
			V219.158z M53.165,228.83h-7.351c4.371-4.705,7.286-8.943,9.802-13.247h6.225C59.987,219.291,56.211,224.987,53.165,228.83z
			 M68.265,201.939c-2.914,0.065-6.159,0.131-8.941,0.065c0.794,2.054,1.987,4.173,3.311,6.093h8.544
			C70.053,206.112,68.994,203.792,68.265,201.939z M85.882,229.358H67.868c-1.325,0-2.583-0.594-3.51-1.654
			c-0.662-0.862-1.126-1.988-1.126-3.18v-10.266h5.961v9.471c0,0.662,0.728,1.258,1.258,1.258h17.949L85.882,229.358z
			 M77.538,222.604c-1.723-2.649-3.179-5.432-4.305-8.345h5.895c1.457,2.913,3.112,5.628,5.101,8.345H77.538z M74.491,201.74
			c0.994,2.188,2.054,4.307,3.247,6.359h7.947c1.656-2.254,3.246-4.504,4.637-6.89C85.42,201.475,77.273,201.809,74.491,201.74z
			 M94.294,228.83c-3.112-4.173-5.829-8.611-8.014-13.247h6.358c2.385,4.769,5.365,9.009,9.206,13.247H94.294z"/>
		<path fill="#3D3939" d="M125.224,253.798c-1.192-1.591-3.577-5.165-4.703-7.021c-1.656,2.451-3.511,4.967-5.232,7.021h-8.08
			c3.842-3.775,7.219-7.948,10.002-12.251c-2.385-3.844-5.034-8.28-6.889-11.593c-0.729-1.322-0.662-3.047-0.331-4.769
			c0.794-4.105,1.92-10.596,2.451-15.232h-4.636v-4.636h5.166c0.53-3.114,0.86-6.425,1.059-9.403h5.629
			c-0.198,2.516-0.728,6.623-1.126,9.403h5.96c1.524,0,2.782,0.465,3.775,1.257c1.458,1.191,2.185,3.047,2.054,5.233
			c-0.531,10.399-1.656,20.6-6.425,29.209c2.848,4.371,5.894,8.675,9.14,12.781H125.224z M123.038,209.953h-4.967
			c-0.662,4.901-1.854,12.186-2.583,16.162c-0.132,0.661,0.065,1.324,0.332,1.853c1.39,2.386,3.178,5.432,4.569,7.616
			c3.312-7.35,4.239-15.496,4.437-23.776C124.893,210.812,124.032,209.953,123.038,209.953z M151.585,226.776v20.929
			c0,1.853-0.53,3.311-1.458,4.306c-1.126,1.191-2.716,1.787-4.571,1.787h-6.358l-2.252-4.769h7.153
			c0.794,0,1.391-0.663,1.391-1.392v-20.861h-14.307v-4.502h14.307v-7.023c4.173-3.903,8.079-8.144,11.059-12.516
			c0.199-0.329,0-0.729-0.397-0.729h-22.849v-4.638h26.162c1.324,0,2.517,0.797,3.179,1.921c0.663,1.061,0.795,2.45,0.132,3.775
			c-1.788,3.446-7.749,10.333-11.193,13.445v5.764h13.976v4.502H151.585L151.585,226.776z"/>
		<path fill="#3D3939" d="M206.753,218.63c-3.71,2.715-7.747,5.299-11.59,7.684h22.122c1.853,0,3.376,0.528,4.502,1.456
			c1.194,1.061,1.921,2.584,1.921,4.504v15.698c0,1.257-0.596,2.649-1.589,3.772c-0.995,1.127-2.383,1.921-4.107,1.921h-30.928
			c-1.855,0-3.313-0.727-4.306-1.921c-1.059-1.257-1.589-3.046-1.589-5.1v-12.979h-10.333c9.205-3.977,18.147-9.272,26.757-15.034
			h-26.824v-4.572h22.718v-7.684H175.56v-4.369h17.947v-6.229h6.095v6.229h13.841v3.577c1.787-1.591,4.369-4.636,5.895-6.691h7.352
			c-4.303,5.432-9.006,10.665-14.373,15.167h16.229v4.572h-21.791V218.63z M217.614,232.407c0-0.93-0.792-1.592-1.654-1.592h-26.891
			c-0.992,0-1.787,0.862-1.787,1.788v5.233h30.332V232.407z M217.614,242.077h-30.332v5.364c0,0.925,0.795,1.722,1.787,1.722h26.758
			c1.059,0,1.787-0.797,1.787-1.722V242.077z M199.604,206.376v7.684h4.236c2.715-2.053,6.227-4.836,8.808-7.684H199.604z"/>
		<path fill="#3D3939" d="M268.016,237.572v16.093h-6.093v-16.093h-28.148V233h7.75v-11.522c0-1.591,0.663-3.111,1.722-4.107
			c0.995-0.995,2.32-1.591,3.909-1.591h14.768v-10.067h-15.1c-1.722,3.444-4.24,7.817-6.027,10.201h-7.75
			c5.696-5.829,9.272-13.512,11.193-20.002h6.556c-0.465,1.391-1.325,3.708-1.988,5.099H290.8v4.702h-22.784v10.067h20.6v4.703
			h-20.6V233h23.513v4.57h-23.513V237.572z M261.923,220.482h-12.915c-0.661,0-1.322,0.666-1.322,1.327V233h14.237V220.482z"/>
		<path fill="#3D3939" d="M345.705,209.556c-2.979-2.519-6.755-6.093-9.336-8.811c-0.468-0.462-1.525-0.857-2.187-0.857h-16.561
			c-0.729,0-1.985,0.528-2.383,0.991c-2.385,2.519-6.425,6.425-9.207,8.677h-9.738c5.963-3.71,11.395-8.677,14.903-12.252
			c0.463-0.53,1.126-0.928,1.988-1.193c0.659-0.196,1.322-0.332,2.117-0.332h21.526c0.729,0,1.523,0.201,2.252,0.465
			c0.795,0.265,1.523,0.729,1.986,1.194c3.577,3.772,8.346,8.146,13.644,12.12h-9.006V209.556z M349.613,227.372
			c-0.993,1.061-2.383,1.853-4.042,1.853h-40.799c-1.257,0-2.383-0.596-3.245-1.39c-1.058-0.993-1.722-2.383-1.722-3.71v-6.953
			c0-1.455,0.596-2.848,1.591-3.841c0.993-1.061,2.384-1.722,3.907-1.722h39.937c1.458,0,2.915,0.462,3.974,1.388
			c1.194,0.995,1.923,2.517,1.923,4.438v6.292C351.137,224.987,350.606,226.313,349.613,227.372z M346.103,252.142
			c-1.059,0.928-2.582,1.458-4.369,1.458h-33.58c-1.324,0-2.715-0.594-3.71-1.523c-1.059-1.059-1.785-2.517-1.785-4.104v-10.399
			c0-1.458,0.86-2.915,2.117-3.843c0.925-0.729,2.119-1.191,3.378-1.191h34.173c1.657,0,3.114,0.661,4.175,1.656
			c1.059,1.061,1.654,2.582,1.654,4.371v9.271C348.155,249.495,347.429,251.083,346.103,252.142z M322.526,215.913h-15.434
			c-0.664,0-1.393,0.661-1.393,1.46v5.96c0,0.995,0.598,1.589,1.257,1.589h6.428c-0.795-1.654-2.451-5.231-3.245-7.287h5.759
			c0.663,2.056,2.453,5.564,3.381,7.287h3.247V215.913L322.526,215.913z M342.193,238.299c0-0.727-0.925-1.455-1.722-1.455h-30.003
			c-0.993,0-1.591,0.729-1.591,1.523v2.516h33.315V238.299L342.193,238.299z M342.193,245.056H308.88v2.519
			c0,0.925,0.86,1.654,1.523,1.654h30.136c0.995,0,1.654-0.795,1.654-1.722V245.056z M313.319,208.165v-4.172h24.902v4.172H313.319z
			 M345.438,217.504c0-0.795-0.729-1.591-1.589-1.591h-15.363v9.009h3.245c1.191-1.921,2.913-5.168,3.643-7.287h5.761
			c-0.528,1.724-2.119,5.235-3.509,7.287h6.227c0.925,0,1.588-0.728,1.588-1.589v-5.829H345.438z"/>
	</g>
	<path fill="none" stroke="#FFFFFF" stroke-miterlimit="10" d="M83.674,276.266"/>
	<g>
		<path fill="#3D3939" d="M198.94,324.092c-44.03,0-86.352-18.638-116.115-51.132l1.698-1.555
			c29.328,32.02,71.031,50.385,114.417,50.385c43.383,0,85.084-18.365,114.412-50.385l1.699,1.555
			C285.288,305.456,242.969,324.092,198.94,324.092z"/>
	</g>
	<g>
		<path fill="#3D3939" d="M313.355,64.594c-29.328-32.019-71.032-50.383-114.415-50.383c-43.387,0-85.09,18.365-114.416,50.383
			l-1.698-1.556c29.764-32.494,72.084-51.13,116.116-51.13c44.028,0,86.351,18.636,116.112,51.13L313.355,64.594z"/>
	</g>
	<g>
		<path fill="#EC8122" d="M153.307,277.489v30.745c7.705,2.329,15.661,4.08,23.816,5.206v-35.951H153.307L153.307,277.489z"/>
		<path fill="#EC8122" d="M186.734,296.633v17.825c3.931,0.296,7.9,0.456,11.908,0.456c4.003,0,7.976-0.16,11.906-0.456v-17.825
			H186.734z"/>
		<path fill="#EC8122" d="M220.754,286.333v26.814c8.165-1.229,16.122-3.09,23.817-5.531v-21.283H220.754z"/>
	</g>
	<polygon fill="#EC8122" points="124.331,93.36 120.977,89.222 120.977,78.79 110.13,78.79 110.13,89.285 101.652,99.849 
		93.981,99.849 82.3,81.936 82.765,81.936 82.765,71.09 71.917,71.09 71.917,81.936 81.614,81.936 81.131,82.249 92.607,99.849 
		91.949,99.849 91.949,110.697 102.795,110.697 102.795,100.267 111.325,89.636 119.832,89.636 122.849,93.36 122.098,93.36 
		122.098,104.207 132.946,104.207 132.946,93.36 	"/>
</g>
<g>
	<path fill="#EC8122" d="M164.742,102.064v0.178h21.006v7.768h-34.071v-7.293l14.834-11.651c2.982-2.352,5.083-4.324,6.297-5.915
		c1.216-1.591,1.824-3.265,1.824-5.025c0-3.914-2.564-5.87-7.688-5.87c-4.451,0-8.71,1.453-12.776,4.357v-8.241
		c4.5-2.393,9.576-3.588,15.231-3.588c5.292,0,9.425,1.092,12.397,3.277s4.457,5.134,4.457,8.85c0,4.961-3.62,10.091-10.862,15.387
		L164.742,102.064z"/>
	<path fill="#EC8122" d="M205.72,110.751c-12.319,0-18.479-7.105-18.479-21.316c0-7.372,1.666-12.991,4.999-16.855
		c3.332-3.863,8.163-5.796,14.49-5.796c12.03,0,18.046,7.225,18.046,21.673c0,7.194-1.642,12.71-4.927,16.544
		C216.565,108.834,211.855,110.751,205.72,110.751z M206.226,73.929c-4.934,0-7.399,5.09-7.399,15.268
		c0,9.586,2.418,14.38,7.255,14.38c4.716,0,7.074-4.94,7.074-14.824C213.155,78.87,210.845,73.929,206.226,73.929z"/>
	<path fill="#EC8122" d="M260.559,110.01h-32.735v-7.412h10.719V76.123l-11.007,1.958v-7.59l22.376-3.707v35.815h10.647V110.01z"/>
	<path display="none" fill="#EC8122" d="M264.577,108.914v-8.004c3.539,1.778,7.303,2.667,11.298,2.667
		c3.008,0,5.359-0.588,7.057-1.764c1.695-1.176,2.543-2.772,2.543-4.788c0-4.211-3.621-6.317-10.862-6.317
		c-2.358,0-5.21,0.179-8.555,0.535V67.495h28.657v7.649h-18.912v8.509c1.517-0.119,2.947-0.177,4.296-0.177
		c5.317,0,9.479,1.146,12.487,3.439c3.008,2.293,4.511,5.375,4.511,9.25c0,4.288-1.792,7.792-5.378,10.509
		c-3.586,2.717-8.444,4.077-14.58,4.077C272.158,110.751,267.972,110.139,264.577,108.914z"/>
</g>
<g>
	<path fill="#EC8122" d="M294.475,68.199l-0.262,7.719c-2.534-1.291-5.325-1.988-8.371-2.086c-3.757-0.122-6.827,0.965-9.211,3.26
		c-2.384,2.292-3.688,5.425-3.918,9.398l0.214,0.007c2.533-2.883,6.138-4.248,10.814-4.097c4.253,0.138,7.584,1.436,9.996,3.894
		c2.412,2.459,3.551,5.647,3.419,9.564c-0.144,4.21-1.913,7.656-5.315,10.335c-3.4,2.68-7.652,3.938-12.756,3.771
		c-5.717-0.184-10.124-2.034-13.221-5.549c-3.099-3.514-4.542-8.351-4.334-14.51c0.244-7.251,2.508-12.977,6.789-17.18
		c4.279-4.203,9.963-6.19,17.051-5.96C289.291,66.89,292.325,67.37,294.475,68.199z M279.718,89.118
		c-2.055-0.066-3.711,0.475-4.967,1.624c-1.258,1.149-1.916,2.65-1.979,4.502c-0.068,2.047,0.491,3.816,1.684,5.309
		c1.19,1.492,2.814,2.271,4.869,2.337c2.007,0.064,3.637-0.529,4.885-1.786s1.907-2.93,1.979-5.016
		C286.34,91.585,284.183,89.262,279.718,89.118z"/>
</g>
</svg>
