<svg xmlns="http://www.w3.org/2000/svg" width="384" height="330" viewBox="0 0 384 330"><g fill="#413B38"><path d="M55.445 145.694c-.784-.836-2.026-2.507-2.613-3.344l-2.287 3.409H9.649c-1.241 0-2.09-.643-2.483-1.48-.457-.963-.326-2.186.524-3.15l16.135-18.839h7.839l-16.136 18.839h36.519c-2.548-4.115-5.098-8.68-7.121-13.052h6.728c2.874 6.239 6.991 12.345 11.694 17.619l-7.903-.002zm2.874 30.671c-1.045 1.156-2.548 1.735-3.985 1.735h-39c-1.633 0-3.005-.579-4.051-1.544-1.176-1.095-1.828-2.636-1.828-4.308v-14.466c0-1.608.588-3.021 1.633-4.051 1.045-1.031 2.548-1.673 4.376-1.673h38.674c1.699 0 3.266.708 4.312 1.864.915 1.029 1.438 2.443 1.438 4.115v14.083c-.001 1.801-.589 3.215-1.569 4.245zm-4.443-17.746c0-1.093-.913-1.866-1.894-1.866H17.489c-.85 0-1.895.773-1.895 1.801v13.243c0 .839.588 1.607 1.504 1.607H52.31c.653 0 1.567-.769 1.567-1.607v-13.178h-.001zM74.39 178.424h-6.337c2.286-5.917 5.227-16.591 5.879-23.084h5.618c-.849 5.915-3.267 16.909-5.16 23.084zm-.524-42.76c-1.568-3.022-4.442-9.645-5.683-13.503h6.01c.915 3.471 3.855 9.966 6.01 13.503h-6.337zm-.195 16.395c-1.765-3.343-4.443-10.288-5.423-14.145h5.944c.915 3.792 3.92 10.608 6.01 14.145h-6.531zm10.322-1.671h-3.658c.718-2.25 1.371-6.366 1.567-9.324h3.267c-.132 2.894-.523 6.88-1.176 9.324zm32.011-14.21h4.638c-.262-.9-.653-2.507-.785-3.215h3.594c.26 1.671 1.175 4.887 1.96 6.559h-3.725c-.261-.644-.653-1.93-.914-2.638l-1.569 2.638h-6.271c-1.241 0-2.024-.58-2.286-1.351-.262-.773 0-1.8.849-2.637 1.307-1.349 3.332-3.473 4.05-4.435h-2.156c-.652 0-1.176-.127-1.568-.387-.522-.319-.783-.835-.979-1.414H95.295v-1.48c-1.961 1.994-6.403 6.494-8.625 8.616h4.573c-.196-.836-.522-2.25-.588-3.149h3.593c.195 1.736.979 4.693 1.698 6.364h-3.724a43.563 43.563 0 0 1-.784-2.251l-1.501 2.251h-7.251c-.784 0-1.438-.513-1.699-1.157-.326-.643-.262-1.414.327-1.994 1.567-1.478 3.79-3.792 5.095-5.206h-3.135c-.914 0-1.633-.517-1.959-1.159-.327-.707-.327-1.801.327-2.379a221.976 221.976 0 0 0 5.357-5.53h5.551a271.174 271.174 0 0 1-5.944 6.108h2.81c.457-.45 1.372-1.349 1.699-1.737h4.181v-1.029h5.095c-.327-.899-.719-2.507-.914-3.407h5.291c.065.837.523 2.508.85 3.407h5.683v1.737c1.306-1.35 3.529-3.922 4.638-5.271h4.965c-1.175 1.542-3.789 4.629-5.227 6.171h2.679c.718-.706 1.829-1.929 2.352-2.637h4.965c-2.419 2.767-6.534 7.333-9.669 10.612zm6.662 40.637c-.849.963-2.221 1.608-3.593 1.608h-17.77l-2.482-4.052h17.966c.522 0 1.111-.708 1.111-1.287v-1.415c0-.579-.523-1.349-1.111-1.349H87.781c-1.372 0-2.481-.388-3.266-1.157-.718-.708-1.11-1.674-1.11-2.959v-2.187c0-1.671.588-2.83 1.633-3.601.85-.58 1.96-.9 3.397-.9h27.438c.588 0 1.176-.706 1.176-1.222v-.707c0-.578-.522-1.093-1.112-1.093H82.686v-3.729h35.864c1.438 0 2.679.386 3.462 1.094.588.643.98 1.479.98 2.636v2.893c0 1.22-.458 2.187-1.241 2.894-.784.642-1.895 1.027-3.201 1.027H90.264c-.522 0-1.045.515-1.045 1.095v1.094c0 .579.523 1.092 1.11 1.092h29.137c1.241 0 2.155.451 2.874 1.03a4.288 4.288 0 0 1 1.307 3.085v3.536c0 .967-.393 1.865-.981 2.574zm-35.473-26.427c-.327-2.25-.784-6.945-.784-9.324h3.005c-.065 2.379.391 6.945.849 9.324h-3.07zm4.705 0c-.524-2.572-.982-7.01-1.046-9.324h2.941c.064 2.636.717 7.009 1.24 9.324h-3.135zm17.049-.836c-.588.578-1.371.9-2.352.9h-7.577c-1.045 0-1.895-.257-2.417-.836-.588-.579-.916-1.351-.916-2.378v-2.766c0-1.222.392-2.186 1.177-2.829.588-.451 1.371-.644 2.351-.644h7.316c1.045 0 1.96.387 2.547 1.093.458.578.72 1.285.72 2.25v2.958a3.3 3.3 0 0 1-.849 2.252zm-12.543-15.24v-3.214H109.6v3.214H96.404zm0 4.952v-3.278h13.261v3.278H96.404zm8.886 5.916c0-.45-.392-.964-.849-.964h-3.333c-.458 0-.98.449-.98.964v1.029c0 .514.457.965.98.965h3.397c.458 0 .784-.451.784-.901v-1.093zm8.296 5.142h-3.529c.915-2.765 1.503-6.814 1.634-9.387h3.266c.001 2.508-.652 6.881-1.371 9.387zm3.265 0c-.391-2.121-.718-6.75-.651-9.387h2.939c.064 2.509.588 7.266.98 9.387h-3.268zm5.097 0c-.458-2.25-.98-6.944-1.176-9.387h3.135c.196 2.379.783 7.073 1.242 9.387h-3.201zM142.199 178.424h-12.281c4.898-1.803 9.342-4.63 12.412-7.203h9.342c-2.744 2.891-6.011 5.4-9.473 7.203zm-11.564-35.623v-4.695c6.337-.641 12.478-1.994 18.423-3.6v4.5c-6.141 1.609-12.085 2.894-18.423 3.795zm8.037-11.509c-2.417-1.93-5.293-5.145-6.991-7.588h7.969c2.026 2.765 4.965 5.594 7.841 7.588h-8.819zm42.92 36.652c-.851 1.027-2.09 1.67-3.528 1.67h-38.15c-1.373 0-2.679-.641-3.593-1.608-.786-.835-1.308-1.927-1.308-3.149v-14.725c0-1.286.588-2.443 1.568-3.28a5.23 5.23 0 0 1 3.397-1.221h37.694c1.306 0 2.549.451 3.464 1.286 1.045.901 1.698 2.251 1.698 3.666v14.018a5.065 5.065 0 0 1-1.242 3.343zm-4.899-16.978c0-.643-.783-1.287-1.502-1.287h-32.86c-.588 0-1.372.518-1.372 1.287v1.223h35.735v-1.223zm0 5.015h-35.735v3.086h35.735v-3.086zm0 6.752h-35.735v1.415c0 .835.85 1.542 1.7 1.542h32.533c.848 0 1.502-.578 1.502-1.415v-1.542zm-2.418-18.905c-2.482-1.541-4.964-3.793-6.925-6.173-2.023 2.83-4.833 5.275-8.165 6.173H146.25c5.161-1.22 9.667-3.086 12.738-5.4 2.678-1.994 4.508-4.502 4.638-7.909h6.01c-.195 1.672-.783 3.793-1.568 5.529h5.619c3.592 3.473 8.036 5.723 13.195 7.779h-12.607zm9.212-9.836h-7.057c1.24-1.737 2.09-3.087 2.482-4.18.131-.386-.196-.836-.523-.836h-19.464c-1.047 1.608-2.288 3.345-3.464 4.695h-7.84c3.267-3.409 6.272-7.138 7.969-11.381h6.663c-.129.644-.718 1.993-.98 2.57h20.645c1.113 0 2.156.387 2.873 1.095.783.772 1.178 1.994.916 3.28-.326 1.541-1.306 3.407-2.22 4.757zm-7.905 44.432c-3.136-2.059-6.403-4.438-9.146-7.203h9.537c3.528 2.829 7.644 5.463 11.888 7.203h-12.279zM209.355 145.951v32.405h-5.684v-32.405h-11.367v-4.307h11.367v-19.548h5.684v19.548h9.93v4.307h-9.93zm-11.041 28.099h-5.948c3.267-8.229 4.575-16.911 4.575-25.72h5.227c0 7.717-1.305 18.453-3.854 25.72zm-1.436-35.044c-2.026-4.436-3.333-9.063-4.248-13.953h5.749c.721 4.822 2.156 9.581 4.117 13.953h-5.618zm19.075 0h-5.555c1.963-4.306 3.725-9.063 4.51-13.953h5.488c-1.111 4.759-2.417 9.581-4.443 13.953zm-1.437 35.044c-2.09-8.166-2.939-16.911-3.463-25.72h5.096c.523 8.874 1.504 17.683 4.051 25.72h-5.684zm30.832-10.674v14.852h-5.877v-14.531l-18.486 1.158v-4.501l18.486-1.157v-37.102h5.877v36.715l3.857-.128v4.501l-3.857.193zm-15.219-25.012c-3.396-4.179-5.943-8.679-8.166-13.309h6.795c2.221 4.693 4.898 9.388 9.014 13.309h-7.643zm-.652 15.497c-2.809-3.988-5.1-8.232-6.729-12.734h6.4c1.83 4.502 4.379 8.938 7.84 12.734h-7.511zM259.656 171.864h-5.619c2.613-8.681 3.463-18.068 3.725-27.648h4.963c-.063 9.45-.981 18.903-3.069 27.648zm10.451-30.48v37.167h-5.551v-37.167h-9.668v-4.5h9.668v-8.228c-2.48.127-5.881.321-8.688.448v-4.371c7.773-.193 15.35-1.028 22.602-2.508v4.563c-2.285.389-6.402 1.031-8.363 1.288v8.808h9.734v4.5h-9.734zm4.899 30.48c-2.023-9.323-2.873-19.482-3.068-27.648h5.096a115.445 115.445 0 0 0 3.725 27.648h-5.753zm31.816-9.902v16.588h-6.01v-15.689l-20.055 2.571v-4.627l20.055-2.571v-36.007h6.01v35.235l4.641-.513v4.5l-4.641.513zm-17.246-7.779c-3.266-3.861-6.141-8.295-8.559-12.799h6.664c2.613 4.502 5.684 8.938 9.67 12.799h-7.775zm.719-15.755c-3.332-4.051-6.205-8.423-8.428-12.86h6.863c2.414 4.243 5.418 9.131 9.273 12.86h-7.708zM348.307 166.462v6.432c0 1.8-.395 3.278-1.439 4.243-.848.771-2.221 1.287-4.051 1.287h-8.49l-1.633-4.312h8.426c.652 0 1.109-.383 1.109-1.156v-6.494h-25.736v-4.115h25.736v-1.415c2.225-.578 6.012-1.994 7.842-2.766h-22.93v-4.179h31.748c1.24 0 2.025.641 2.287 1.415.326.9.064 1.929-.916 2.507-2.48 1.413-6.727 3.277-10.121 4.436h23.389v4.116l-25.221.001zm18.488-9.837v-4.887c0-.772-.455-1.286-1.244-1.286H324.33c-.523 0-1.24.577-1.24 1.286v4.887h-5.814v-5.144c0-1.287.262-2.252.654-3.022.521-.899 1.305-1.479 2.285-1.993v-17.811c0-.899.455-1.736 1.045-2.444.783-.834 1.828-1.413 2.547-1.542 3.334-.516 9.084-1.672 12.219-2.573v4.5c-2.354.514-6.795 1.415-9.018 1.864-.588.128-1.24.708-1.24 1.351v1.222h8.885v3.666h-8.885v3.985h8.885v3.794h-8.885v3.794h38.219v-3.794h-8.625v-3.794h8.625V134.7h-8.625v-3.666h8.754v-2.573c0-.835-.523-1.414-1.504-1.414h-7.904v-3.986h9.475c1.762 0 3.201.514 4.115 1.542.848.9 1.307 2.186 1.307 3.921v18.068c.848.322 1.566.967 2.025 1.673.523.835.783 1.672.783 2.571v5.787l-5.618.002zm-18.422-11.895c-.854-.514-2.42-1.607-3.203-2.185-.979.771-2.48 1.734-3.396 2.185h-7.057c1.961-1.158 5.684-3.537 7.316-4.886-1.436-1.35-3.854-3.794-5.225-5.337h6.01c.521.708 1.895 1.994 2.549 2.637.717-.579 2.088-1.865 2.873-2.637h5.879c-1.371 1.543-4.182 4.244-5.617 5.465 1.699 1.48 5.031 3.73 6.795 4.759h-6.924zm-.853-11.575c-.586-.385-1.826-1.286-2.418-1.799-.715.513-2.021 1.415-2.74 1.799h-6.924c1.697-1.094 4.963-3.344 6.469-4.565-1.311-1.158-3.924-3.793-5.23-5.723h5.945c.719.903 2.025 2.315 2.613 2.959.785-.708 2.158-1.994 3.072-2.959h5.748c-1.635 1.993-4.117 4.566-5.555 5.789 1.502 1.222 4.574 3.473 6.143 4.501h-7.123v-.002zM81.445 247.125c-3.396-1.479-8.492-3.858-11.628-5.401-2.678 1.285-8.558 4.049-11.627 5.401H44.47c6.403-2.509 13.85-5.659 19.337-8.424a169.848 169.848 0 0 1-10.061-5.465h10.192c1.24.708 4.115 2.122 5.487 2.765a119.23 119.23 0 0 0 8.362-4.628c.195-.067.195-.387-.132-.387H51.394c-2.025 5.271-4.181 10.416-7.25 16.139h-6.925a93.572 93.572 0 0 0 10.256-23.405h6.272c-.196.901-.588 2.058-.979 2.958H84.06c1.632 0 2.745.771 3.201 1.798.652 1.415.129 3.28-1.633 4.374-2.352 1.479-7.709 4.499-10.19 5.851 5.878 2.766 12.216 5.467 19.663 8.425H81.445v-.001zm6.272-33.565v-4.823c0-.964-.718-1.54-1.634-1.54H45.449c-.587 0-1.372.708-1.372 1.54v4.823h-5.944v-5.531c0-1.414.457-2.828 1.501-3.791.917-.837 2.221-1.414 4.052-1.414h4.572c-.85-1.541-2.221-4.5-2.875-5.981-1.568.067-4.899-.063-6.532-.192v-4.498c15.809.192 40.046.32 54.027-1.287v4.629c-1.111.129-2.939.257-3.985.257-1.372 2.379-2.941 4.759-4.574 7.073h3.724c1.765 0 3.201.515 4.116 1.415 1.045.963 1.568 2.317 1.568 3.857v5.466h-6.011v-.003zm-42.333 9.389h-7.25c4.312-4.567 7.187-8.684 9.668-12.86h6.14c-1.829 3.599-5.553 9.128-8.558 12.86zm14.895-26.107c-2.875.063-6.075.128-8.819.063.784 1.994 1.96 4.052 3.267 5.916h8.427c-1.112-1.928-2.156-4.178-2.875-5.979zm17.376 26.619H59.887c-1.307 0-2.548-.576-3.462-1.605-.653-.838-1.111-1.93-1.111-3.088v-9.965h5.879v9.194c0 .642.719 1.22 1.241 1.22h17.704l-2.483 4.244zm-8.23-6.557c-1.699-2.572-3.135-5.272-4.246-8.102h5.815a55.515 55.515 0 0 0 5.031 8.102h-6.6zm-3.006-20.255c.981 2.122 2.025 4.181 3.202 6.174h7.839c1.633-2.188 3.202-4.373 4.574-6.688-4.834.257-12.87.579-15.615.514zm19.534 26.3c-3.07-4.053-5.75-8.361-7.905-12.86h6.271c2.352 4.628 5.292 8.744 9.081 12.86h-7.447zM116.46 247.187c-1.176-1.543-3.528-5.014-4.639-6.814-1.633 2.38-3.463 4.822-5.161 6.814h-7.969a70.453 70.453 0 0 0 9.865-11.894c-2.353-3.73-4.966-8.038-6.794-11.254-.719-1.284-.653-2.957-.327-4.629.784-3.984 1.895-10.286 2.417-14.789H99.28v-4.5h5.095c.523-3.021.849-6.235 1.044-9.129h5.553c-.195 2.443-.718 6.43-1.11 9.129h5.879c1.503 0 2.744.452 3.723 1.221 1.438 1.157 2.155 2.958 2.026 5.08-.523 10.096-1.633 19.999-6.337 28.357 2.809 4.242 5.813 8.421 9.015 12.407h-7.708zm-2.155-42.566h-4.899c-.653 4.76-1.829 11.833-2.547 15.691-.13.643.064 1.286.326 1.799 1.371 2.317 3.136 5.273 4.507 7.395 3.266-7.137 4.182-15.045 4.376-23.084.065-.965-.784-1.801-1.763-1.801zm28.157 16.334v20.317c0 1.799-.523 3.214-1.438 4.18-1.111 1.156-2.679 1.734-4.508 1.734h-6.272l-2.221-4.628h7.055a1.37 1.37 0 0 0 1.372-1.352v-20.252h-14.112v-4.371h14.112v-6.818c4.116-3.792 7.968-7.905 10.909-12.149.196-.32 0-.707-.393-.707h-22.538v-4.503h25.806c1.306 0 2.482.772 3.135 1.864.653 1.03.784 2.379.131 3.666-1.764 3.346-7.644 10.03-11.042 13.052v5.596h13.786v4.371h-13.782zM196.878 213.045c-3.66 2.637-7.643 5.146-11.433 7.459h21.821c1.828 0 3.33.514 4.441 1.414 1.176 1.031 1.895 2.511 1.895 4.374v15.238c0 1.222-.588 2.573-1.566 3.664-.982 1.093-2.352 1.863-4.053 1.863h-30.506c-1.831 0-3.268-.706-4.247-1.863-1.044-1.221-1.566-2.958-1.566-4.951v-12.602H161.47c9.08-3.858 17.9-9.001 26.392-14.595h-26.458v-4.438h22.408v-7.46h-17.703v-4.24h17.703v-6.047h6.012v6.047h13.65v3.472c1.764-1.545 4.309-4.501 5.814-6.495h7.252c-4.244 5.273-8.883 10.352-14.178 14.724h16.008v4.438h-21.493v-.002zm10.714 13.376c0-.903-.781-1.545-1.633-1.545h-26.524c-.979 0-1.762.836-1.762 1.735v5.082h29.919v-5.272zm0 9.387h-29.919v5.208c0 .899.783 1.671 1.762 1.671h26.394c1.043 0 1.764-.771 1.764-1.671v-5.208zm-17.766-34.659v7.46h4.177c2.68-1.995 6.142-4.694 8.69-7.46h-12.867zM257.305 231.435v15.623h-6.012v-15.623h-27.762v-4.437h7.643V215.81c0-1.544.654-3.021 1.699-3.985.98-.967 2.289-1.545 3.855-1.545h14.564v-9.773H236.4c-1.699 3.344-4.182 7.588-5.945 9.903h-7.645c5.619-5.661 9.148-13.116 11.041-19.419h6.467c-.457 1.351-1.307 3.601-1.961 4.95h41.42v4.565h-22.473v9.773h20.318v4.565h-20.318v12.153h23.191v4.436l-23.19.002zm-6.012-16.59h-12.738c-.65 0-1.305.645-1.305 1.288v10.865h14.043v-12.153zM333.934 204.236c-2.939-2.445-6.662-5.915-9.209-8.553-.461-.449-1.504-.834-2.156-.834h-16.334c-.719 0-1.959.514-2.35.964-2.354 2.443-6.338 6.236-9.082 8.423h-9.605c5.881-3.601 11.238-8.423 14.699-11.894.457-.517 1.111-.901 1.961-1.159a7.151 7.151 0 0 1 2.09-.321h21.232c.719 0 1.502.194 2.221.451.785.256 1.502.706 1.959 1.158 3.529 3.663 8.232 7.909 13.457 11.766l-8.883-.001zm3.855 17.297c-.98 1.028-2.35 1.799-3.986 1.799h-40.242c-1.24 0-2.35-.579-3.201-1.35-1.045-.965-1.697-2.314-1.697-3.601v-6.75c0-1.414.586-2.766 1.568-3.729a5.316 5.316 0 0 1 3.854-1.672h39.391c1.439 0 2.877.449 3.92 1.347 1.178.967 1.896 2.443 1.896 4.31v6.107c-.001 1.223-.524 2.51-1.503 3.539zm-3.463 24.047c-1.045.899-2.547 1.414-4.311 1.414h-33.121c-1.307 0-2.678-.576-3.66-1.477-1.043-1.028-1.76-2.444-1.76-3.987v-10.096c0-1.414.848-2.83 2.088-3.729a5.486 5.486 0 0 1 3.332-1.158h33.707c1.635 0 3.072.641 4.117 1.608 1.045 1.028 1.633 2.506 1.633 4.244v9a5.291 5.291 0 0 1-2.025 4.181zm-23.254-35.171H295.85c-.656 0-1.373.641-1.373 1.416v5.786c0 .966.588 1.543 1.238 1.543h6.34c-.783-1.608-2.418-5.078-3.201-7.074h5.68c.654 1.996 2.42 5.402 3.334 7.074h3.205v-8.745h-.001zm19.399 21.732c0-.706-.914-1.414-1.699-1.414h-29.594c-.979 0-1.568.708-1.568 1.48v2.443h32.861v-2.509zm0 6.559h-32.859v2.445c0 .898.848 1.606 1.504 1.606h29.723c.982 0 1.633-.772 1.633-1.673V238.7zm-28.481-35.813v-4.051h24.562v4.051H301.99zm31.682 9.066c0-.772-.719-1.544-1.568-1.544H316.95v8.745h3.201c1.176-1.865 2.873-5.018 3.594-7.074h5.682c-.521 1.674-2.09 5.082-3.461 7.074h6.141c.914 0 1.568-.705 1.568-1.543v-5.658h-.003z"/></g><path fill="#413B38" d="M189.171 315.429c-43.429 0-85.174-18.094-114.531-49.639l1.675-1.51c28.927 31.087 70.061 48.915 112.856 48.915 42.792 0 83.924-17.828 112.852-48.915l1.676 1.51c-29.357 31.546-71.099 49.639-114.528 49.639zM302.025 63.505c-28.928-31.085-70.062-48.913-112.854-48.913-42.795 0-83.929 17.829-112.855 48.913l-1.675-1.511c29.357-31.546 71.102-49.637 114.533-49.637 43.428 0 85.172 18.091 114.528 49.637l-1.677 1.511z"/><g fill="#EC8400"><path d="M144.16 270.187v29.849a155.892 155.892 0 0 0 23.492 5.054v-34.902H144.16v-.001zM177.13 288.771v17.307c3.878.286 7.794.442 11.747.442 3.948 0 7.866-.156 11.744-.442v-17.307H177.13zM210.688 278.773v26.03a154.708 154.708 0 0 0 23.492-5.37v-20.66h-23.492z"/></g><path fill="#EC8400" d="M115.58 91.432l-3.308-4.017V77.287h-10.699v10.189l-8.364 10.255h-7.565L74.122 80.34h.458V69.811H63.881V80.34h9.564l-.475.306 11.319 17.085h-.65v10.532h10.699V98.137l8.413-10.32h8.391l2.977 3.615h-.742v10.53h10.7v-10.53z"/><g fill="#EC8400" stroke="#E28011" stroke-width=".5" stroke-miterlimit="10"><path d="M140.138 108.119h-5.5c3.382-2.811 5.582-6.398 7.497-9.941h4.399c-1.671 3.504-3.504 7.007-6.396 9.941zm24.934-11.734a77.962 77.962 0 0 1-1.996-2.282l-1.467 2.363h-7.17v9.736c0 .978-.326 1.752-.855 2.323-.611.65-1.588.978-2.729.978h-3.993l-1.264-2.853h4.034c.53 0 1.06-.326 1.06-.977v-9.207h-12.589c-1.222 0-1.915-.653-2.078-1.427-.163-.814.244-1.711 1.222-2.16l10.512-4.93h-7.905a2.235 2.235 0 0 1-2.037-1.304c-.366-.856-.121-1.955 1.101-2.648l9.452-5.175c-3.38.082-8.882.204-11.856.245v-2.771c9.412-.163 23.631-.652 31.778-2.281v2.974c-3.177.448-9.248 1.1-12.141 1.304l-10.797 5.948c-.49.286-1.467.774-1.956.978.571 0 1.304-.042 1.751-.042h8.516l6.967-3.382h8.148l-21.471 10.186c-1.141.53-3.015 1.345-4.074 1.752 1.14 0 3.422-.082 4.604-.082h14.872c-1.181-1.589-2.607-3.667-3.381-5.215h4.237c1.996 2.892 4.236 5.745 7.212 7.945h-5.705v.004zm-.406 11.734c-2.566-3.016-4.604-6.641-5.99-9.941h4.197c1.915 3.545 4.317 7.13 7.456 9.941h-5.663zM185.003 77.317c-.368 1.915-.815 3.708-1.304 5.542h7.415c.896 0 1.754.448 2.324 1.1a2.93 2.93 0 0 1 .692 2.2c-.772 8.638-6.643 17.356-12.712 23.223h-5.093c3.016-2.729 6.274-6.152 8.638-9.615-1.875-2.444-3.341-5.133-4.604-7.822a47.025 47.025 0 0 1-1.059 1.997h-4.033c3.545-4.93 4.97-10.716 6.233-16.624h-5.664v-2.851h19.843v2.851h-10.676v-.001zm4.685 8.475h-6.844c-.571 1.63-1.183 3.3-1.915 4.889h2.811a31.13 31.13 0 0 0 3.219 5.786c1.63-3.016 3.177-6.438 3.504-9.901.04-.366-.245-.774-.775-.774zm8.192 14.87V75.973h3.626v24.689h-3.626zm11.814 7.865c-.57.53-1.425.856-2.566.856h-5.704l-1.426-2.853h6.111c.53 0 .855-.366.855-.977v-31.78h3.667v31.902c.001 1.222-.284 2.199-.937 2.852zM221.395 92.596c-2.076-2.811-3.87-5.745-5.337-8.8h4.156c1.589 3.096 3.585 5.989 5.908 8.8h-4.727zm-1.099 16.908h-4.236c2.689-3.83 5.337-10.471 6.641-14.993h3.79c-1.306 4.645-3.467 10.716-6.195 14.993zm1.304-27.053a55.086 55.086 0 0 1-5.379-8.474h4.156c1.752 2.934 3.666 5.785 5.947 8.474H221.6zm19.595 5.42v5.663h4.85c1.223 0 2.118.366 2.73 1.02.649.65.977 1.629.977 2.688v8.679c0 1.059-.286 1.915-.815 2.526-.612.693-1.508 1.059-2.689 1.059h-13.241c-.854 0-1.913-.286-2.689-1.019-.609-.571-1.018-1.385-1.018-2.566v-8.963c0-1.182.529-2.16 1.386-2.729.652-.448 1.507-.693 2.526-.693h4.236v-5.663h-10.633v-2.811h10.633v-5.827c-2.323.204-6.56.611-8.761.774v-2.934c7.172-.529 14.22-1.507 20.984-3.259v3.3c-1.916.367-6.03 1.141-8.476 1.547v6.397h10.267v2.812h-10.267v-.001zm4.81 9.533c0-.53-.448-1.019-.979-1.019h-11.083c-.447 0-.938.529-.938 1.059v8.108c0 .571.449 1.059.897 1.059h11.163c.488 0 .937-.449.937-.979v-8.229h.003zM257.093 109.708v-2.893c2.038-.042 5.95-.366 7.946-.571v-3.177h-7.416v-2.648h7.416v-2.118h-3.749c-.979 0-1.832-.326-2.444-.896-.61-.571-1.019-1.426-1.019-2.485v-6.927c0-1.059.571-1.915 1.345-2.445a3.827 3.827 0 0 1 2.118-.651h3.749v-2.078h-8.068v-2.486h8.068v-2.2c-1.996.245-5.459.53-7.212.571v-2.608c4.439-.203 12.793-1.059 17.314-2.078v2.689c-1.63.366-4.725.815-6.599 1.018v2.607h7.741v2.486h-7.741v2.078h3.546c1.101 0 1.913.285 2.484.733.732.571 1.059 1.467 1.059 2.485v6.966c0 1.06-.326 1.834-.979 2.404-.651.53-1.63.816-2.892.816h-3.219v2.118h7.619v2.648h-7.619v2.73c1.955-.123 5.908-.653 7.904-.978v2.566c-4.766.735-13.729 1.958-19.352 2.324zm7.946-22.246h-2.934c-.449 0-.817.449-.817.896v1.833h3.749v-2.729h.002zm0 5.256h-3.749v2.037c0 .53.447.978.856.978h2.893v-3.015zm7.089-4.278c0-.448-.488-.978-.979-.978h-2.608v2.729h3.587V88.44zm0 4.278h-3.587v3.015h2.608c.569 0 .979-.408.979-.978v-2.037zm19.188 15.849c-.651.692-1.589.977-2.689.977h-3.87l-1.101-2.851h3.748c.732 0 1.182-.408 1.182-1.183V84.896c0-.571-.488-1.101-1.101-1.101h-2.77c.202 8.107-.693 18.375-4.686 25.749h-4.114c4.725-7.374 5.498-18.497 5.254-25.749h-4.114v-2.811h4.114v-7.131h3.546v7.131h3.585c1.223 0 2.24.366 2.933 1.181.571.611.896 1.548.896 2.73v21.227c.003 1.102-.322 1.875-.813 2.445z"/></g></svg>