<svg xmlns="http://www.w3.org/2000/svg" width="389" height="106" viewBox="0 0 389 106"><path fill="#3E3A39" d="M151.753 21.859c-.573-.622-1.481-1.864-1.911-2.485l-1.672 2.533h-29.921c-.907 0-1.529-.478-1.816-1.099-.334-.717-.239-1.625.383-2.342l11.805-14.004h5.735L122.55 18.466h26.717c-1.864-3.059-3.728-6.452-5.209-9.702h4.921c2.104 4.636 5.115 9.176 8.556 13.096l-5.782-.001zm2.103 22.799c-.763.859-1.864 1.289-2.916 1.289h-28.533c-1.195 0-2.198-.43-2.963-1.146-.86-.812-1.338-1.96-1.338-3.203V30.844c0-1.194.431-2.247 1.195-3.011.764-.764 1.864-1.242 3.202-1.242h28.294c1.242 0 2.39.525 3.153 1.386.67.765 1.053 1.816 1.053 3.059v10.467c.001 1.337-.429 2.389-1.147 3.155zm-3.25-13.192c0-.813-.668-1.387-1.386-1.387h-25.236c-.622 0-1.386.573-1.386 1.339v9.846c0 .621.431 1.194 1.1 1.194h25.761c.478 0 1.146-.573 1.146-1.194l.001-9.798zM165.614 46.186h-4.637c1.672-4.397 3.824-12.331 4.303-17.158h4.11c-.621 4.397-2.39 12.57-3.776 17.158zm-.383-31.783c-1.146-2.246-3.25-7.169-4.158-10.037h4.396c.669 2.581 2.821 7.408 4.398 10.037h-4.636zm-.143 12.188c-1.291-2.485-3.25-7.647-3.968-10.515h4.349c.669 2.82 2.868 7.886 4.398 10.515h-4.779zm7.552-1.243h-2.676c.525-1.673 1.003-4.731 1.146-6.931h2.391c-.096 2.151-.383 5.114-.861 6.931zm23.421-10.563h3.396c-.189-.668-.479-1.863-.572-2.389h2.627c.191 1.242.86 3.632 1.436 4.875h-2.725c-.191-.478-.479-1.434-.67-1.96l-1.146 1.96h-4.589c-.909 0-1.483-.431-1.674-1.004-.192-.574 0-1.338.621-1.96.957-1.004 2.441-2.581 2.964-3.298h-1.578c-.479 0-.861-.095-1.147-.287-.383-.239-.574-.622-.717-1.051h-11.375v-1.1c-1.435 1.481-4.685 4.827-6.31 6.404h3.346c-.143-.621-.382-1.673-.43-2.341h2.627c.145 1.291.718 3.489 1.243 4.731h-2.724a33.821 33.821 0 0 1-.573-1.673l-1.099 1.673h-5.305c-.575 0-1.052-.383-1.243-.86a1.246 1.246 0 0 1 .24-1.482c1.146-1.099 2.771-2.819 3.727-3.871h-2.294a1.588 1.588 0 0 1-1.432-.86c-.24-.526-.24-1.339.238-1.769.956-.956 2.964-3.059 3.919-4.11h4.062a198.372 198.372 0 0 1-4.349 4.541h2.056c.334-.334 1.003-1.004 1.242-1.291h3.06v-.764h3.728c-.239-.669-.526-1.864-.669-2.533h3.871c.048.621.382 1.864.621 2.533h4.159v1.29c.956-1.003 2.585-2.915 3.396-3.918h3.631c-.859 1.146-2.771 3.441-3.821 4.588h1.958c.525-.526 1.338-1.434 1.722-1.96h3.634c-1.776 2.055-4.788 5.449-7.082 7.886zm4.877 30.207a3.584 3.584 0 0 1-2.629 1.194h-13.002l-1.816-3.011h13.146c.382 0 .812-.526.812-.956v-1.051c0-.43-.383-1.003-.812-1.003h-21.225c-1.003 0-1.815-.288-2.39-.861-.525-.526-.811-1.242-.811-2.198V35.48c0-1.242.429-2.103 1.194-2.676.621-.431 1.434-.67 2.485-.67h20.078c.43 0 .859-.525.859-.907v-.526a.838.838 0 0 0-.812-.812h-24.33v-2.772h26.243c1.05 0 1.959.287 2.531.812.431.478.717 1.1.717 1.96v2.15c0 .908-.334 1.625-.909 2.151-.57.478-1.383.765-2.339.765h-20.699c-.382 0-.766.382-.766.812v.812c0 .43.384.812.814.812h21.32c.907 0 1.576.335 2.102.765.621.621.957 1.434.957 2.295v2.627c-.002.719-.289 1.388-.718 1.914zm-25.957-19.644c-.239-1.673-.574-5.162-.574-6.931h2.2c-.048 1.769.287 5.162.621 6.931h-2.247zm3.442 0c-.382-1.912-.718-5.21-.765-6.931h2.15c.049 1.96.527 5.21.909 6.931h-2.294zm12.474-.621c-.43.43-1.002.669-1.72.669h-5.544c-.766 0-1.387-.191-1.769-.622-.43-.43-.669-1.003-.669-1.768v-2.055c0-.908.286-1.625.86-2.103.431-.334 1.003-.478 1.721-.478h5.352c.767 0 1.435.287 1.864.812.337.43.526.956.526 1.673v2.198c0 .67-.238 1.243-.621 1.674zm-9.177-11.328v-2.39h9.654v2.39h-9.654zm0 3.68v-2.438h9.702v2.438h-9.702zm6.5 4.397c0-.334-.286-.716-.622-.716h-2.436c-.335 0-.718.334-.718.716v.765c0 .383.334.717.718.717h2.485c.334 0 .573-.334.573-.668v-.814zm6.072 3.824h-2.583c.671-2.055 1.101-5.066 1.197-6.978h2.391c0 1.864-.479 5.114-1.005 6.978zm2.392 0c-.285-1.577-.524-5.019-.478-6.978h2.149c.049 1.863.431 5.4.717 6.978h-2.388zm3.728 0c-.335-1.672-.717-5.162-.86-6.978h2.294c.144 1.768.572 5.257.907 6.978h-2.341zM215.229 46.186h-8.985c3.584-1.337 6.835-3.441 9.08-5.353h6.837c-2.011 2.151-4.401 4.016-6.932 5.353zm-8.461-26.478v-3.489c4.637-.478 9.131-1.482 13.479-2.677v3.346c-4.493 1.195-8.843 2.151-13.479 2.82zm5.878-8.555c-1.769-1.434-3.871-3.823-5.113-5.64h5.83c1.48 2.055 3.633 4.158 5.736 5.64h-6.453zm31.401 27.243a3.28 3.28 0 0 1-2.579 1.243h-27.913c-1.003 0-1.959-.478-2.63-1.195-.573-.621-.954-1.434-.954-2.341V25.157c0-.956.432-1.816 1.146-2.438a3.788 3.788 0 0 1 2.485-.908h27.576c.957 0 1.865.335 2.534.957a3.648 3.648 0 0 1 1.241 2.724v10.419a3.776 3.776 0 0 1-.906 2.485zm-3.582-12.618c0-.478-.574-.956-1.102-.956h-24.041c-.43 0-1.004.382-1.004.956v.909h26.146l.001-.909zm0 3.728h-26.146V31.8h26.146v-2.294zm0 5.019h-26.146v1.051c0 .622.623 1.148 1.244 1.148h23.803c.621 0 1.101-.431 1.101-1.052l-.002-1.147zm-1.772-14.052c-1.813-1.146-3.631-2.82-5.063-4.588-1.481 2.103-3.537 3.919-5.976 4.588h-9.465c3.775-.908 7.076-2.294 9.32-4.015 1.961-1.482 3.299-3.346 3.395-5.879h4.396c-.144 1.242-.573 2.82-1.146 4.11h4.109c2.629 2.582 5.881 4.254 9.653 5.783l-9.223.001zm6.741-7.313h-5.16c.906-1.291 1.528-2.294 1.814-3.107.096-.286-.143-.621-.382-.621h-14.243c-.764 1.195-1.673 2.486-2.533 3.489h-5.734c2.389-2.533 4.589-5.306 5.83-8.46h4.877c-.096.478-.527 1.481-.719 1.912h15.104c.812 0 1.578.287 2.104.812.573.574.86 1.482.67 2.438-.242 1.148-.958 2.534-1.628 3.537zm-5.784 33.026c-2.293-1.528-4.685-3.298-6.691-5.353h6.979c2.582 2.103 5.592 4.063 8.697 5.353h-8.985zM264.361 22.05v24.088h-4.158V22.05h-8.318v-3.203h8.318V4.318h4.158v14.53h7.265v3.203l-7.265-.001zm-8.077 20.886h-4.353c2.392-6.117 3.346-12.57 3.346-19.118h3.824c.001 5.736-.955 13.718-2.817 19.118zm-1.054-26.048c-1.48-3.298-2.437-6.739-3.104-10.372h4.206c.523 3.584 1.576 7.122 3.009 10.372h-4.111zm13.958 0h-4.063c1.437-3.202 2.726-6.739 3.3-10.372h4.016c-.815 3.537-1.77 7.122-3.253 10.372zm-1.051 26.048c-1.529-6.069-2.152-12.57-2.533-19.118h3.727c.384 6.595 1.102 13.144 2.964 19.118h-4.158zm22.556-7.934v11.04h-4.299V35.241l-13.527.861v-3.346l13.527-.861V4.318h4.299v27.291l2.82-.096v3.346l-2.82.143zM279.561 16.41c-2.485-3.107-4.351-6.452-5.976-9.894h4.972c1.625 3.489 3.584 6.978 6.594 9.894h-5.59zm-.479 11.519c-2.057-2.963-3.73-6.118-4.924-9.463h4.683c1.341 3.345 3.203 6.644 5.738 9.463h-5.497zM301.161 41.312h-4.11c1.911-6.452 2.532-13.431 2.725-20.552h3.634c-.051 7.026-.721 14.051-2.249 20.552zm7.648-22.656v27.626h-4.062V18.656h-7.073V15.31h7.073V9.193c-1.815.096-4.302.239-6.354.334v-3.25c5.687-.144 11.229-.765 16.535-1.864v3.394c-1.672.287-4.686.765-6.117.956v6.547h7.121v3.346h-7.123zm3.584 22.656c-1.479-6.93-2.102-14.482-2.246-20.552h3.729a86.947 86.947 0 0 0 2.727 20.552h-4.21zm23.276-7.361v12.332h-4.397V34.621l-14.67 1.911v-3.441l14.67-1.912V4.414h4.397v26.191l3.396-.382v3.345l-3.396.383zm-12.617-5.784c-2.389-2.868-4.491-6.166-6.262-9.511h4.876c1.911 3.346 4.158 6.644 7.074 9.511h-5.688zm.525-11.709c-2.437-3.011-4.54-6.261-6.166-9.559h5.021c1.769 3.154 3.967 6.787 6.786 9.559h-5.641zM366.021 37.297v4.779c0 1.338-.289 2.438-1.055 3.155-.621.573-1.626.956-2.962.956h-6.213l-1.194-3.202h6.164c.479 0 .812-.288.812-.861v-4.827h-18.831v-3.059h18.831v-1.051c1.626-.43 4.396-1.482 5.736-2.056h-16.777v-3.106h23.229c.909 0 1.482.478 1.674 1.051.238.669.047 1.434-.668 1.864-1.816 1.051-4.925 2.437-7.408 3.298h17.111v3.059h-18.449zm13.524-7.313v-3.633c0-.574-.335-.956-.91-.956h-30.156c-.383 0-.908.431-.908.956v3.633h-4.252V26.16c0-.956.188-1.673.478-2.247.382-.669.955-1.1 1.673-1.481V9.193c0-.669.334-1.291.764-1.816.574-.621 1.338-1.051 1.865-1.147 2.437-.383 6.645-1.243 8.938-1.912v3.346a555.974 555.974 0 0 1-6.596 1.386c-.431.096-.908.525-.908 1.003v.909h6.501v2.725h-6.501v2.963h6.501v2.82h-6.501v2.82h27.959v-2.82h-6.309v-2.82h6.309v-2.963h-6.309v-2.725h6.405V9.05c0-.622-.382-1.051-1.101-1.051h-5.784V5.035h6.933c1.289 0 2.342.382 3.012 1.146.619.669.955 1.625.955 2.916v13.431c.619.239 1.146.716 1.481 1.242.382.622.573 1.242.573 1.912v4.302h-4.112zm-13.479-8.842c-.623-.382-1.77-1.195-2.342-1.625-.717.573-1.817 1.291-2.484 1.625h-5.162c1.434-.86 4.158-2.628 5.352-3.632-1.053-1.004-2.818-2.82-3.822-3.968h4.397c.382.526 1.386 1.482 1.863 1.96.524-.431 1.53-1.386 2.103-1.96h4.303c-1.004 1.147-3.06 3.155-4.111 4.063 1.244 1.099 3.681 2.772 4.972 3.537h-5.069zm-.623-8.603c-.43-.286-1.336-.956-1.767-1.338-.524.382-1.481 1.052-2.009 1.338h-5.064c1.242-.812 3.633-2.486 4.729-3.393-.957-.86-2.868-2.82-3.823-4.254h4.35c.525.67 1.48 1.72 1.912 2.199a48.368 48.368 0 0 0 2.248-2.199h4.203c-1.193 1.481-3.01 3.394-4.062 4.302 1.101.908 3.347 2.58 4.493 3.345h-5.21zM148.847 100.361a230.551 230.551 0 0 1-8.423-3.979c-1.941.946-6.201 2.983-8.425 3.979h-9.94c4.639-1.848 10.035-4.166 14.011-6.202a122.498 122.498 0 0 1-7.289-4.023h7.384c.9.522 2.982 1.564 3.975 2.036a85.425 85.425 0 0 0 6.059-3.408c.142-.047.142-.283-.095-.283h-19.026c-1.468 3.881-3.03 7.67-5.254 11.881h-5.017a69.537 69.537 0 0 0 7.431-17.229h4.544a13.114 13.114 0 0 1-.71 2.179h22.671c1.184 0 1.988.568 2.319 1.323.474 1.042.094 2.415-1.184 3.222-1.703 1.086-5.584 3.312-7.383 4.306 4.26 2.037 8.851 4.022 14.246 6.202h-9.894v-.004zm4.544-24.709v-3.549c0-.711-.521-1.137-1.183-1.137h-29.439c-.426 0-.994.521-.994 1.137v3.549h-4.307v-4.069c0-1.041.332-2.082 1.089-2.793.662-.613 1.608-1.04 2.934-1.04h3.313c-.616-1.137-1.609-3.312-2.082-4.402-1.136.047-3.551-.048-4.734-.141v-3.312c11.454.142 29.014.233 39.143-.949v3.408c-.804.095-2.13.189-2.887.189-.994 1.751-2.129 3.502-3.313 5.207h2.699c1.277 0 2.318.378 2.981 1.04.757.711 1.137 1.706 1.137 2.841v4.021h-4.357zm-30.669 6.912h-5.254c3.123-3.36 5.207-6.391 7.004-9.467h4.45c-1.326 2.65-4.024 6.721-6.2 9.467zm10.79-19.216c-2.083.047-4.401.094-6.39.047.569 1.469 1.42 2.983 2.367 4.355h6.106a36.743 36.743 0 0 1-2.083-4.402zm12.591 19.593h-12.875c-.946 0-1.846-.424-2.508-1.182-.473-.617-.804-1.42-.804-2.273V72.15h4.258v6.769c0 .474.521.899.899.899H147.9l-1.797 3.123zm-5.964-4.826a32.295 32.295 0 0 1-3.075-5.965h4.211a41.245 41.245 0 0 0 3.644 5.965h-4.78zm-2.178-14.908a51.7 51.7 0 0 0 2.32 4.543h5.681c1.182-1.607 2.319-3.218 3.312-4.924-3.503.192-9.325.427-11.313.381zm14.153 19.357c-2.225-2.982-4.167-6.153-5.727-9.467h4.543c1.705 3.406 3.834 6.438 6.58 9.467h-5.396zM174.216 100.404c-.852-1.131-2.555-3.688-3.359-5.014-1.184 1.752-2.509 3.551-3.741 5.014h-5.773a51.641 51.641 0 0 0 7.147-8.754c-1.704-2.746-3.597-5.916-4.922-8.282-.521-.947-.473-2.179-.237-3.408.568-2.935 1.373-7.571 1.75-10.886h-3.312v-3.312h3.692c.377-2.225.615-4.592.757-6.722h4.022c-.142 1.8-.52 4.733-.804 6.722h4.258c1.09 0 1.989.331 2.699.898 1.041.852 1.562 2.178 1.468 3.74-.38 7.43-1.184 14.72-4.592 20.873 2.036 3.123 4.212 6.199 6.531 9.132l-5.584-.001zm-1.562-31.33h-3.549c-.473 3.503-1.325 8.708-1.846 11.55-.095.474.048.946.237 1.323.994 1.703 2.271 3.883 3.266 5.441 2.365-5.25 3.029-11.072 3.17-16.988.048-.711-.568-1.326-1.278-1.326zm20.4 12.024v14.955c0 1.325-.379 2.365-1.041 3.077-.804.851-1.941 1.274-3.267 1.274h-4.544l-1.608-3.405h5.112a1 1 0 0 0 .993-.994V81.098h-10.224v-3.22h10.224v-5.019c2.982-2.791 5.777-5.82 7.906-8.942.144-.237 0-.522-.283-.522h-16.33v-3.312h18.695c.947 0 1.799.568 2.271 1.371.475.759.568 1.754.096 2.697-1.279 2.463-5.535 7.385-8 9.609v4.117h9.989v3.219h-9.989v.002zM232.484 75.275c-2.652 1.94-5.541 3.785-8.286 5.49h15.812c1.324 0 2.412.377 3.217 1.039.854.76 1.373 1.846 1.373 3.219v11.219c0 .9-.425 1.894-1.135 2.699-.711.804-1.705 1.371-2.938 1.371h-22.101c-1.325 0-2.368-.521-3.077-1.371-.762-.898-1.138-2.178-1.138-3.646V86.02h-7.384c6.58-2.84 12.97-6.627 19.122-10.744h-19.168v-3.267h16.233V66.52h-12.826v-3.125h12.826v-4.449h4.354v4.449h9.892v2.558c1.278-1.138 3.125-3.313 4.215-4.781h5.252c-3.076 3.884-6.437 7.62-10.27 10.839h11.596v3.268h-15.57v-.004zm7.761 9.845c0-.664-.565-1.136-1.185-1.136h-19.215c-.712 0-1.279.613-1.279 1.276V89h21.679v-3.88zm0 6.909h-21.679v3.834c0 .662.567 1.23 1.279 1.23h19.12c.759 0 1.278-.568 1.278-1.23l.002-3.834zM227.371 66.52v5.489h3.029c1.939-1.467 4.449-3.454 6.293-5.489h-9.322zM276.264 88.811v11.504h-4.354V88.811h-20.115v-3.267h5.538v-8.233c0-1.136.473-2.225 1.229-2.936.713-.709 1.657-1.135 2.795-1.135h10.554v-7.195H261.12c-1.231 2.461-3.032 5.586-4.308 7.288h-5.539c4.068-4.164 6.627-9.653 8-14.293h4.685c-.332.995-.948 2.649-1.422 3.646h30.01v3.359h-16.282v7.195h14.721v3.36h-14.721v8.944h16.803v3.267h-16.803zM271.908 76.6h-9.229c-.477 0-.947.475-.947.949v7.995h10.176V76.6zM331.782 68.79c-2.132-1.798-4.83-4.354-6.675-6.295-.332-.331-1.088-.613-1.562-.613h-11.832c-.52 0-1.42.378-1.703.709-1.705 1.8-4.591 4.593-6.58 6.199h-6.957c4.26-2.647 8.142-6.199 10.649-8.755.331-.379.804-.663 1.42-.854a5.042 5.042 0 0 1 1.517-.236h15.383c.52 0 1.086.142 1.604.33.57.191 1.091.521 1.422.853 2.558 2.698 5.964 5.823 9.75 8.662h-6.436zm2.791 12.731c-.71.758-1.701 1.326-2.89 1.326h-29.154c-.897 0-1.702-.428-2.318-.994-.758-.711-1.229-1.705-1.229-2.649v-4.972c0-1.041.424-2.034 1.136-2.744a3.826 3.826 0 0 1 2.792-1.231h28.539c1.042 0 2.085.334 2.84.995.852.708 1.375 1.8 1.375 3.171v4.496c-.001.899-.381 1.847-1.091 2.602zm-2.509 17.704c-.756.662-1.849 1.041-3.125 1.041h-23.996c-.944 0-1.939-.427-2.649-1.09-.758-.758-1.276-1.798-1.276-2.934V88.81c0-1.041.614-2.084 1.514-2.744a3.936 3.936 0 0 1 2.412-.852h24.425c1.185 0 2.225.473 2.979 1.184.76.758 1.187 1.845 1.187 3.121v6.631a3.93 3.93 0 0 1-1.471 3.075zm-16.846-25.892h-11.03c-.474 0-.992.474-.992 1.042v4.26c0 .711.425 1.137.898 1.137h4.592c-.568-1.183-1.752-3.737-2.319-5.207h4.116c.477 1.47 1.752 3.978 2.414 5.207h2.321v-6.439zm14.053 16c0-.522-.662-1.042-1.23-1.042h-21.439c-.711 0-1.137.52-1.137 1.09v1.797h23.809v-1.845h-.003zm0 4.826h-23.808v1.798c0 .663.613 1.186 1.091 1.186h21.535c.707 0 1.182-.567 1.182-1.23v-1.754zm-20.634-26.363v-2.981h17.797v2.981h-17.797zm22.955 6.675c0-.568-.521-1.138-1.137-1.138h-10.979v6.438h2.319c.851-1.373 2.081-3.692 2.603-5.207h4.117c-.379 1.231-1.516 3.74-2.51 5.207h4.449c.661 0 1.137-.521 1.137-1.138v-4.162z"/><path fill="none" stroke="#EC8400" stroke-width="2" stroke-miterlimit="10" d="M29.093 34.773l23.972 36.769M53.065 71.542l27.66-34.47M80.725 37.072l18.207 22.461"/><path fill="#EC8400" d="M14.34 18.271h16.502v16.502H14.34zM44.813 62.027h16.502v16.5H44.813zM72.476 29.986h16.498v16.503H72.476zM90.682 52.152h16.502v16.503H90.682z"/></svg>