<?xml version="1.0" encoding="utf-8"?>
<!-- Generator: Adobe Illustrator 16.0.0, SVG Export Plug-In . SVG Version: 6.00 Build 0)  -->
<!DOCTYPE svg PUBLIC "-//W3C//DTD SVG 1.1//EN" "http://www.w3.org/Graphics/SVG/1.1/DTD/svg11.dtd">
<svg version="1.1" id="圖層_1" xmlns="http://www.w3.org/2000/svg" xmlns:xlink="http://www.w3.org/1999/xlink" x="0px" y="0px"
	 width="389px" height="106px" viewBox="0 0 389 106" enable-background="new 0 0 389 106" xml:space="preserve">
<g>
	<path fill="#3E3A39" d="M151.753,21.859c-0.573-0.622-1.481-1.864-1.911-2.485l-1.672,2.533h-29.921
		c-0.907,0-1.529-0.478-1.816-1.099c-0.334-0.717-0.239-1.625,0.383-2.342l11.805-14.004h5.735L122.55,18.466h26.717
		c-1.864-3.059-3.728-6.452-5.209-9.702h4.921c2.104,4.636,5.115,9.176,8.556,13.096L151.753,21.859L151.753,21.859z
		 M153.856,44.658c-0.763,0.859-1.864,1.289-2.916,1.289h-28.533c-1.195,0-2.198-0.43-2.963-1.146
		c-0.86-0.812-1.338-1.96-1.338-3.203V30.844c0-1.194,0.431-2.247,1.195-3.011c0.764-0.764,1.864-1.242,3.202-1.242h28.294
		c1.242,0,2.39,0.525,3.153,1.386c0.67,0.765,1.053,1.816,1.053,3.059v10.467C155.004,42.84,154.574,43.892,153.856,44.658z
		 M150.606,31.466c0-0.813-0.668-1.387-1.386-1.387h-25.236c-0.622,0-1.386,0.573-1.386,1.339v9.846c0,0.621,0.431,1.194,1.1,1.194
		h25.761c0.478,0,1.146-0.573,1.146-1.194L150.606,31.466L150.606,31.466z"/>
	<path fill="#3E3A39" d="M165.614,46.186h-4.637c1.672-4.397,3.824-12.331,4.303-17.158h4.11
		C168.769,33.425,167,41.598,165.614,46.186z M165.231,14.403c-1.146-2.246-3.25-7.169-4.158-10.037h4.396
		c0.669,2.581,2.821,7.408,4.398,10.037H165.231z M165.088,26.591c-1.291-2.485-3.25-7.647-3.968-10.515h4.349
		c0.669,2.82,2.868,7.886,4.398,10.515H165.088z M172.64,25.348h-2.676c0.525-1.673,1.003-4.731,1.146-6.931h2.391
		C173.405,20.568,173.118,23.531,172.64,25.348z M196.061,14.785h3.396c-0.189-0.668-0.479-1.863-0.572-2.389h2.627
		c0.191,1.242,0.86,3.632,1.436,4.875h-2.725c-0.191-0.478-0.479-1.434-0.67-1.96l-1.146,1.96h-4.589
		c-0.909,0-1.483-0.431-1.674-1.004c-0.192-0.574,0-1.338,0.621-1.96c0.957-1.004,2.441-2.581,2.964-3.298h-1.578
		c-0.479,0-0.861-0.095-1.147-0.287c-0.383-0.239-0.574-0.622-0.717-1.051h-11.375v-1.1c-1.435,1.481-4.685,4.827-6.31,6.404h3.346
		c-0.143-0.621-0.382-1.673-0.43-2.341h2.627c0.145,1.291,0.718,3.489,1.243,4.731h-2.724c-0.143-0.383-0.43-1.195-0.573-1.673
		l-1.099,1.673h-5.305c-0.575,0-1.052-0.383-1.243-0.86c-0.239-0.478-0.192-1.052,0.24-1.482c1.146-1.099,2.771-2.819,3.727-3.871
		h-2.294c-0.668,0-1.194-0.382-1.432-0.86c-0.24-0.526-0.24-1.339,0.238-1.769c0.956-0.956,2.964-3.059,3.919-4.11h4.062
		c-1.099,1.195-3.249,3.441-4.349,4.541h2.056c0.334-0.334,1.003-1.004,1.242-1.291h3.06V6.899h3.728
		c-0.239-0.669-0.526-1.864-0.669-2.533h3.871c0.048,0.621,0.382,1.864,0.621,2.533h4.159v1.29c0.956-1.003,2.585-2.915,3.396-3.918
		h3.631c-0.859,1.146-2.771,3.441-3.821,4.588h1.958c0.525-0.526,1.338-1.434,1.722-1.96h3.634
		C201.367,8.954,198.355,12.348,196.061,14.785z M200.938,44.992c-0.623,0.716-1.625,1.194-2.629,1.194h-13.002l-1.816-3.011h13.146
		c0.382,0,0.812-0.526,0.812-0.956v-1.051c0-0.43-0.383-1.003-0.812-1.003h-21.225c-1.003,0-1.815-0.288-2.39-0.861
		c-0.525-0.526-0.811-1.242-0.811-2.198V35.48c0-1.242,0.429-2.103,1.194-2.676c0.621-0.431,1.434-0.67,2.485-0.67h20.078
		c0.43,0,0.859-0.525,0.859-0.907v-0.526c0-0.43-0.383-0.812-0.812-0.812h-24.33v-2.772h26.243c1.05,0,1.959,0.287,2.531,0.812
		c0.431,0.478,0.717,1.1,0.717,1.96v2.15c0,0.908-0.334,1.625-0.909,2.151c-0.57,0.478-1.383,0.765-2.339,0.765h-20.699
		c-0.382,0-0.766,0.382-0.766,0.812v0.812c0,0.43,0.384,0.812,0.814,0.812h21.32c0.907,0,1.576,0.335,2.102,0.765
		c0.621,0.621,0.957,1.434,0.957,2.295v2.627C201.654,43.797,201.367,44.466,200.938,44.992z M174.981,25.348
		c-0.239-1.673-0.574-5.162-0.574-6.931h2.2c-0.048,1.769,0.287,5.162,0.621,6.931H174.981z M178.423,25.348
		c-0.382-1.912-0.718-5.21-0.765-6.931h2.15c0.049,1.96,0.527,5.21,0.909,6.931H178.423z M190.897,24.727
		c-0.43,0.43-1.002,0.669-1.72,0.669h-5.544c-0.766,0-1.387-0.191-1.769-0.622c-0.43-0.43-0.669-1.003-0.669-1.768v-2.055
		c0-0.908,0.286-1.625,0.86-2.103c0.431-0.334,1.003-0.478,1.721-0.478h5.352c0.767,0,1.435,0.287,1.864,0.812
		c0.337,0.43,0.526,0.956,0.526,1.673v2.198C191.518,23.723,191.28,24.296,190.897,24.727z M181.72,13.399v-2.39h9.654v2.39H181.72z
		 M181.72,17.079v-2.438h9.702v2.438H181.72z M188.22,21.476c0-0.334-0.286-0.716-0.622-0.716h-2.436
		c-0.335,0-0.718,0.334-0.718,0.716v0.765c0,0.383,0.334,0.717,0.718,0.717h2.485c0.334,0,0.573-0.334,0.573-0.668V21.476z
		 M194.292,25.3h-2.583c0.671-2.055,1.101-5.066,1.197-6.978h2.391C195.297,20.186,194.818,23.436,194.292,25.3z M196.684,25.3
		c-0.285-1.577-0.524-5.019-0.478-6.978h2.149c0.049,1.863,0.431,5.4,0.717,6.978H196.684z M200.412,25.3
		c-0.335-1.672-0.717-5.162-0.86-6.978h2.294c0.144,1.768,0.572,5.257,0.907,6.978H200.412z"/>
	<path fill="#3E3A39" d="M215.229,46.186h-8.985c3.584-1.337,6.835-3.441,9.08-5.353h6.837
		C220.15,42.984,217.76,44.849,215.229,46.186z M206.768,19.708v-3.489c4.637-0.478,9.131-1.482,13.479-2.677v3.346
		C215.754,18.083,211.404,19.039,206.768,19.708z M212.646,11.153c-1.769-1.434-3.871-3.823-5.113-5.64h5.83
		c1.48,2.055,3.633,4.158,5.736,5.64H212.646z M244.047,38.396c-0.62,0.765-1.527,1.243-2.579,1.243h-27.913
		c-1.003,0-1.959-0.478-2.63-1.195c-0.573-0.621-0.954-1.434-0.954-2.341V25.157c0-0.956,0.432-1.816,1.146-2.438
		c0.671-0.573,1.53-0.908,2.485-0.908h27.576c0.957,0,1.865,0.335,2.534,0.957c0.767,0.669,1.241,1.673,1.241,2.724v10.419
		C244.954,36.867,244.62,37.727,244.047,38.396z M240.465,25.778c0-0.478-0.574-0.956-1.102-0.956h-24.041
		c-0.43,0-1.004,0.382-1.004,0.956v0.909h26.146L240.465,25.778L240.465,25.778z M240.465,29.506h-26.146V31.8h26.146V29.506z
		 M240.465,34.525h-26.146v1.051c0,0.622,0.623,1.148,1.244,1.148h23.803c0.621,0,1.101-0.431,1.101-1.052L240.465,34.525
		L240.465,34.525z M238.693,20.473c-1.813-1.146-3.631-2.82-5.063-4.588c-1.481,2.103-3.537,3.919-5.976,4.588h-9.465
		c3.775-0.908,7.076-2.294,9.32-4.015c1.961-1.482,3.299-3.346,3.395-5.879h4.396c-0.144,1.242-0.573,2.82-1.146,4.11h4.109
		c2.629,2.582,5.881,4.254,9.653,5.783L238.693,20.473L238.693,20.473z M245.434,13.16h-5.16c0.906-1.291,1.528-2.294,1.814-3.107
		c0.096-0.286-0.143-0.621-0.382-0.621h-14.243c-0.764,1.195-1.673,2.486-2.533,3.489h-5.734c2.389-2.533,4.589-5.306,5.83-8.46
		h4.877c-0.096,0.478-0.527,1.481-0.719,1.912h15.104c0.812,0,1.578,0.287,2.104,0.812c0.573,0.574,0.86,1.482,0.67,2.438
		C246.82,10.771,246.104,12.157,245.434,13.16z M239.65,46.186c-2.293-1.528-4.685-3.298-6.691-5.353h6.979
		c2.582,2.103,5.592,4.063,8.697,5.353H239.65z"/>
	<path fill="#3E3A39" d="M264.361,22.05v24.088h-4.158V22.05h-8.318v-3.203h8.318V4.318h4.158v14.53h7.265v3.203L264.361,22.05
		L264.361,22.05z M256.284,42.936h-4.353c2.392-6.117,3.346-12.57,3.346-19.118h3.824C259.102,29.554,258.146,37.536,256.284,42.936
		z M255.23,16.888c-1.48-3.298-2.437-6.739-3.104-10.372h4.206c0.523,3.584,1.576,7.122,3.009,10.372H255.23z M269.188,16.888
		h-4.063c1.437-3.202,2.726-6.739,3.3-10.372h4.016C271.626,10.053,270.671,13.638,269.188,16.888z M268.137,42.936
		c-1.529-6.069-2.152-12.57-2.533-19.118h3.727c0.384,6.595,1.102,13.144,2.964,19.118H268.137z M290.693,35.002v11.04h-4.299
		V35.241l-13.527,0.861v-3.346l13.527-0.861V4.318h4.299v27.291l2.82-0.096v3.346L290.693,35.002z M279.561,16.41
		c-2.485-3.107-4.351-6.452-5.976-9.894h4.972c1.625,3.489,3.584,6.978,6.594,9.894H279.561z M279.082,27.929
		c-2.057-2.963-3.73-6.118-4.924-9.463h4.683c1.341,3.345,3.203,6.644,5.738,9.463H279.082z"/>
	<path fill="#3E3A39" d="M301.161,41.312h-4.11c1.911-6.452,2.532-13.431,2.725-20.552h3.634
		C303.359,27.786,302.689,34.811,301.161,41.312z M308.809,18.656v27.626h-4.062V18.656h-7.073V15.31h7.073V9.193
		c-1.815,0.096-4.302,0.239-6.354,0.334v-3.25c5.687-0.144,11.229-0.765,16.535-1.864v3.394c-1.672,0.287-4.686,0.765-6.117,0.956
		v6.547h7.121v3.346H308.809z M312.393,41.312c-1.479-6.93-2.102-14.482-2.246-20.552h3.729c0.096,7.217,1.052,14.004,2.727,20.552
		H312.393z M335.669,33.951v12.332h-4.397V34.621l-14.67,1.911v-3.441l14.67-1.912V4.414h4.397v26.191l3.396-0.382v3.345
		L335.669,33.951z M323.052,28.167c-2.389-2.868-4.491-6.166-6.262-9.511h4.876c1.911,3.346,4.158,6.644,7.074,9.511H323.052z
		 M323.577,16.458c-2.437-3.011-4.54-6.261-6.166-9.559h5.021c1.769,3.154,3.967,6.787,6.786,9.559H323.577z"/>
	<path fill="#3E3A39" d="M366.021,37.297v4.779c0,1.338-0.289,2.438-1.055,3.155c-0.621,0.573-1.626,0.956-2.962,0.956h-6.213
		l-1.194-3.202h6.164c0.479,0,0.812-0.288,0.812-0.861v-4.827h-18.831v-3.059h18.831v-1.051c1.626-0.43,4.396-1.482,5.736-2.056
		h-16.777v-3.106h23.229c0.909,0,1.482,0.478,1.674,1.051c0.238,0.669,0.047,1.434-0.668,1.864
		c-1.816,1.051-4.925,2.437-7.408,3.298h17.111v3.059H366.021z M379.545,29.984v-3.633c0-0.574-0.335-0.956-0.91-0.956h-30.156
		c-0.383,0-0.908,0.431-0.908,0.956v3.633h-4.252V26.16c0-0.956,0.188-1.673,0.478-2.247c0.382-0.669,0.955-1.1,1.673-1.481V9.193
		c0-0.669,0.334-1.291,0.764-1.816c0.574-0.621,1.338-1.051,1.865-1.147c2.437-0.383,6.645-1.243,8.938-1.912v3.346
		c-1.721,0.382-4.971,1.052-6.596,1.386c-0.431,0.096-0.908,0.525-0.908,1.003v0.909h6.501v2.725h-6.501v2.963h6.501v2.82h-6.501
		v2.82h27.959v-2.82h-6.309v-2.82h6.309v-2.963h-6.309v-2.725h6.405V9.05c0-0.622-0.382-1.051-1.101-1.051h-5.784V5.035h6.933
		c1.289,0,2.342,0.382,3.012,1.146c0.619,0.669,0.955,1.625,0.955,2.916v13.431c0.619,0.239,1.146,0.716,1.481,1.242
		c0.382,0.622,0.573,1.242,0.573,1.912v4.302H379.545z M366.066,21.142c-0.623-0.382-1.77-1.195-2.342-1.625
		c-0.717,0.573-1.817,1.291-2.484,1.625h-5.162c1.434-0.86,4.158-2.628,5.352-3.632c-1.053-1.004-2.818-2.82-3.822-3.968h4.397
		c0.382,0.526,1.386,1.482,1.863,1.96c0.524-0.431,1.53-1.386,2.103-1.96h4.303c-1.004,1.147-3.06,3.155-4.111,4.063
		c1.244,1.099,3.681,2.772,4.972,3.537H366.066z M365.443,12.539c-0.43-0.286-1.336-0.956-1.767-1.338
		c-0.524,0.382-1.481,1.052-2.009,1.338h-5.064c1.242-0.812,3.633-2.486,4.729-3.393c-0.957-0.86-2.868-2.82-3.823-4.254h4.35
		c0.525,0.67,1.48,1.72,1.912,2.199c0.574-0.526,1.576-1.482,2.248-2.199h4.203c-1.193,1.481-3.01,3.394-4.062,4.302
		c1.101,0.908,3.347,2.58,4.493,3.345H365.443z"/>
	<path fill="#3E3A39" d="M148.847,100.361c-2.46-1.088-6.153-2.842-8.423-3.979c-1.941,0.946-6.201,2.983-8.425,3.979h-9.94
		c4.639-1.848,10.035-4.166,14.011-6.202c-2.414-1.231-4.923-2.603-7.289-4.023h7.384c0.9,0.522,2.982,1.564,3.975,2.036
		c2.035-1.04,4.071-2.178,6.059-3.408c0.142-0.047,0.142-0.283-0.095-0.283h-19.026c-1.468,3.881-3.03,7.67-5.254,11.881h-5.017
		c3.786-6.297,6.011-12.166,7.431-17.229h4.544c-0.143,0.664-0.427,1.517-0.71,2.179h22.671c1.184,0,1.988,0.568,2.319,1.323
		c0.474,1.042,0.094,2.415-1.184,3.222c-1.703,1.086-5.584,3.312-7.383,4.306c4.26,2.037,8.851,4.022,14.246,6.202h-9.894V100.361z
		 M153.391,75.652v-3.549c0-0.711-0.521-1.137-1.183-1.137h-29.439c-0.426,0-0.994,0.521-0.994,1.137v3.549h-4.307v-4.069
		c0-1.041,0.332-2.082,1.089-2.793c0.662-0.613,1.608-1.04,2.934-1.04h3.313c-0.616-1.137-1.609-3.312-2.082-4.402
		c-1.136,0.047-3.551-0.048-4.734-0.141v-3.312c11.454,0.142,29.014,0.233,39.143-0.949v3.408c-0.804,0.095-2.13,0.189-2.887,0.189
		c-0.994,1.751-2.129,3.502-3.313,5.207h2.699c1.277,0,2.318,0.378,2.981,1.04c0.757,0.711,1.137,1.706,1.137,2.841v4.021H153.391z
		 M122.722,82.564h-5.254c3.123-3.36,5.207-6.391,7.004-9.467h4.45C127.596,75.747,124.898,79.818,122.722,82.564z M133.512,63.348
		c-2.083,0.047-4.401,0.094-6.39,0.047c0.569,1.469,1.42,2.983,2.367,4.355h6.106C134.791,66.33,134.033,64.673,133.512,63.348z
		 M146.103,82.941h-12.875c-0.946,0-1.846-0.424-2.508-1.182c-0.473-0.617-0.804-1.42-0.804-2.273V72.15h4.258v6.769
		c0,0.474,0.521,0.899,0.899,0.899H147.9L146.103,82.941z M140.139,78.115c-1.231-1.895-2.272-3.883-3.075-5.965h4.211
		c1.042,2.082,2.224,4.023,3.644,5.965H140.139z M137.961,63.207c0.711,1.561,1.468,3.075,2.32,4.543h5.681
		c1.182-1.607,2.319-3.218,3.312-4.924C145.771,63.018,139.949,63.253,137.961,63.207z M152.114,82.564
		c-2.225-2.982-4.167-6.153-5.727-9.467h4.543c1.705,3.406,3.834,6.438,6.58,9.467H152.114L152.114,82.564z"/>
	<path fill="#3E3A39" d="M174.216,100.404c-0.852-1.131-2.555-3.688-3.359-5.014c-1.184,1.752-2.509,3.551-3.741,5.014h-5.773
		c2.745-2.696,5.159-5.678,7.147-8.754c-1.704-2.746-3.597-5.916-4.922-8.282c-0.521-0.947-0.473-2.179-0.237-3.408
		c0.568-2.935,1.373-7.571,1.75-10.886h-3.312v-3.312h3.692c0.377-2.225,0.615-4.592,0.757-6.722h4.022
		c-0.142,1.8-0.52,4.733-0.804,6.722h4.258c1.09,0,1.989,0.331,2.699,0.898c1.041,0.852,1.562,2.178,1.468,3.74
		c-0.38,7.43-1.184,14.72-4.592,20.873c2.036,3.123,4.212,6.199,6.531,9.132L174.216,100.404L174.216,100.404z M172.654,69.074
		h-3.549c-0.473,3.503-1.325,8.708-1.846,11.55c-0.095,0.474,0.048,0.946,0.237,1.323c0.994,1.703,2.271,3.883,3.266,5.441
		c2.365-5.25,3.029-11.072,3.17-16.988C173.98,69.689,173.364,69.074,172.654,69.074z M193.054,81.098v14.955
		c0,1.325-0.379,2.365-1.041,3.077c-0.804,0.851-1.941,1.274-3.267,1.274h-4.544l-1.608-3.405h5.112
		c0.567,0,0.993-0.474,0.993-0.994V81.098h-10.224v-3.22h10.224v-5.019c2.982-2.791,5.777-5.82,7.906-8.942
		c0.144-0.237,0-0.522-0.283-0.522h-16.33v-3.312h18.695c0.947,0,1.799,0.568,2.271,1.371c0.475,0.759,0.568,1.754,0.096,2.697
		c-1.279,2.463-5.535,7.385-8,9.609v4.117h9.989v3.219h-9.989V81.098z"/>
	<path fill="#3E3A39" d="M232.484,75.275c-2.652,1.94-5.541,3.785-8.286,5.49h15.812c1.324,0,2.412,0.377,3.217,1.039
		c0.854,0.76,1.373,1.846,1.373,3.219v11.219c0,0.9-0.425,1.894-1.135,2.699c-0.711,0.804-1.705,1.371-2.938,1.371h-22.101
		c-1.325,0-2.368-0.521-3.077-1.371c-0.762-0.898-1.138-2.178-1.138-3.646V86.02h-7.384c6.58-2.84,12.97-6.627,19.122-10.744
		h-19.168v-3.267h16.233V66.52h-12.826v-3.125h12.826v-4.449h4.354v4.449h9.892v2.558c1.278-1.138,3.125-3.313,4.215-4.781h5.252
		c-3.076,3.884-6.437,7.62-10.27,10.839h11.596v3.268h-15.57V75.275z M240.245,85.12c0-0.664-0.565-1.136-1.185-1.136h-19.215
		c-0.712,0-1.279,0.613-1.279,1.276V89h21.679V85.12L240.245,85.12z M240.245,92.029h-21.679v3.834c0,0.662,0.567,1.23,1.279,1.23
		h19.12c0.759,0,1.278-0.568,1.278-1.23L240.245,92.029L240.245,92.029z M227.371,66.52v5.489h3.029
		c1.939-1.467,4.449-3.454,6.293-5.489H227.371z"/>
	<path fill="#3E3A39" d="M276.264,88.811v11.504h-4.354V88.811h-20.115v-3.267h5.538v-8.233c0-1.136,0.473-2.225,1.229-2.936
		c0.713-0.709,1.657-1.135,2.795-1.135h10.554v-7.195H261.12c-1.231,2.461-3.032,5.586-4.308,7.288h-5.539
		c4.068-4.164,6.627-9.653,8-14.293h4.685c-0.332,0.995-0.948,2.649-1.422,3.646h30.01v3.359h-16.282v7.195h14.721V76.6h-14.721
		v8.944h16.803v3.267H276.264z M271.908,76.6h-9.229c-0.477,0-0.947,0.475-0.947,0.949v7.995h10.176V76.6L271.908,76.6z"/>
	<path fill="#3E3A39" d="M331.782,68.79c-2.132-1.798-4.83-4.354-6.675-6.295c-0.332-0.331-1.088-0.613-1.562-0.613h-11.832
		c-0.52,0-1.42,0.378-1.703,0.709c-1.705,1.8-4.591,4.593-6.58,6.199h-6.957c4.26-2.647,8.142-6.199,10.649-8.755
		c0.331-0.379,0.804-0.663,1.42-0.854c0.474-0.143,0.944-0.236,1.517-0.236h15.383c0.52,0,1.086,0.142,1.604,0.33
		c0.57,0.191,1.091,0.521,1.422,0.853c2.558,2.698,5.964,5.823,9.75,8.662H331.782z M334.573,81.521
		c-0.71,0.758-1.701,1.326-2.89,1.326h-29.154c-0.897,0-1.702-0.428-2.318-0.994c-0.758-0.711-1.229-1.705-1.229-2.649v-4.972
		c0-1.041,0.424-2.034,1.136-2.744c0.71-0.758,1.704-1.231,2.792-1.231h28.539c1.042,0,2.085,0.334,2.84,0.995
		c0.852,0.708,1.375,1.8,1.375,3.171v4.496C335.663,79.818,335.283,80.766,334.573,81.521z M332.064,99.225
		c-0.756,0.662-1.849,1.041-3.125,1.041h-23.996c-0.944,0-1.939-0.427-2.649-1.09c-0.758-0.758-1.276-1.798-1.276-2.934v-7.432
		c0-1.041,0.614-2.084,1.514-2.744c0.664-0.522,1.516-0.852,2.412-0.852h24.425c1.185,0,2.225,0.473,2.979,1.184
		c0.76,0.758,1.187,1.845,1.187,3.121v6.631C333.533,97.33,333.014,98.466,332.064,99.225z M315.218,73.333h-11.03
		c-0.474,0-0.992,0.474-0.992,1.042v4.26c0,0.711,0.425,1.137,0.898,1.137h4.592c-0.568-1.183-1.752-3.737-2.319-5.207h4.116
		c0.477,1.47,1.752,3.978,2.414,5.207h2.321V73.333L315.218,73.333z M329.271,89.333c0-0.522-0.662-1.042-1.23-1.042h-21.439
		c-0.711,0-1.137,0.52-1.137,1.09v1.797h23.809v-1.845H329.271z M329.271,94.159h-23.808v1.798c0,0.663,0.613,1.186,1.091,1.186
		h21.535c0.707,0,1.182-0.567,1.182-1.23V94.159z M308.637,67.796v-2.981h17.797v2.981H308.637z M331.592,74.471
		c0-0.568-0.521-1.138-1.137-1.138h-10.979v6.438h2.319c0.851-1.373,2.081-3.692,2.603-5.207h4.117
		c-0.379,1.231-1.516,3.74-2.51,5.207h4.449c0.661,0,1.137-0.521,1.137-1.138V74.471z"/>
	<g>
		<line fill="none" stroke="#EC8400" stroke-width="2" stroke-miterlimit="10" x1="29.093" y1="34.773" x2="53.065" y2="71.542"/>
		<line fill="none" stroke="#EC8400" stroke-width="2" stroke-miterlimit="10" x1="53.065" y1="71.542" x2="80.725" y2="37.072"/>
		<line fill="none" stroke="#EC8400" stroke-width="2" stroke-miterlimit="10" x1="80.725" y1="37.072" x2="98.932" y2="59.533"/>
		<rect x="14.34" y="18.271" fill="#EC8400" width="16.502" height="16.502"/>
		<rect x="44.813" y="62.027" fill="#EC8400" width="16.502" height="16.5"/>
		<rect x="72.476" y="29.986" fill="#EC8400" width="16.498" height="16.503"/>
		<rect x="90.682" y="52.152" fill="#EC8400" width="16.502" height="16.503"/>
	</g>
</g>
</svg>
