<svg xmlns="http://www.w3.org/2000/svg" width="1020" height="746" viewBox="0 0 1020 746"><path fill="#F0B3BC" d="M428.623 491.46l-67.125-38.756v-77.022l67.125 38.755z"/><path fill="#ED9DA6" d="M428.623 491.46l67.123-38.756v-77.022l-67.123 38.755z"/><path fill="#ED7775" d="M428.412 469.162l-47.684-27.53v-34.765l47.684 27.113z"/><path fill="#E35557" d="M428.412 469.162l47.684-27.53v-35.081l-47.684 27.429z"/><path fill="#E6757A" d="M428.261 379.192v54.716l.151.086 47.387-27.357z"/><path fill="#F19CA0" d="M428.339 379.192v54.716l-.15.086-47.385-27.357z"/><path fill="#F7C6CE" d="M428.623 414.314l-67.125-38.752 66.708-38.512 67.121 38.753z"/><path fill="#DDADCF" d="M356.563 534.188l-67.123-38.754v-77.023l67.123 38.753z"/><path fill="#D49AC2" d="M356.563 534.188l67.124-38.754v-77.023l-67.124 38.753z"/><path fill="#CA72AB" d="M356.353 511.89l-47.685-27.535v-34.76l47.685 27.116z"/><path fill="#C5589C" d="M356.359 511.89l47.68-27.535-.004-35.078-47.676 27.434z"/><path fill="#D084B5" d="M356.206 421.919v54.717l.147.087 47.389-27.359z"/><path fill="#D896C0" d="M356.279 421.919v54.717l-.148.087-47.386-27.359z"/><path fill="#E9B5D2" d="M356.563 457.043L289.44 418.29l66.704-38.513 67.123 38.754z"/><path fill="#DDADCF" d="M286.346 576.316l-67.123-38.752v-77.026l67.123 38.754z"/><path fill="#D49AC2" d="M286.346 576.316l67.123-38.752v-77.026l-67.123 38.754z"/><path fill="#CA72AB" d="M286.136 554.018l-47.686-27.533v-34.762l47.686 27.116z"/><path fill="#C5589C" d="M286.14 554.018l47.68-27.533-.004-35.078-47.676 27.432z"/><path fill="#D084B5" d="M285.989 464.049v54.717l.147.085 47.388-27.359z"/><path fill="#D896C0" d="M286.062 464.049v54.717l-.15.085-47.386-27.359z"/><path fill="#E9B5D2" d="M286.346 499.171l-67.123-38.753 66.702-38.513 67.125 38.754z"/><path fill="#F0B3BC" d="M502.918 533.545l-67.124-38.757v-77.02l67.124 38.753z"/><path fill="#ED9DA6" d="M502.918 533.545l67.124-38.757v-77.02l-67.124 38.753z"/><path fill="#ED7775" d="M502.707 511.246l-47.684-27.528v-34.767l47.684 27.114z"/><path fill="#E35557" d="M502.707 511.246l47.686-27.528v-35.082l-47.686 27.429z"/><path fill="#E6757A" d="M502.557 421.277v54.715l.15.087 47.388-27.358z"/><path fill="#F19CA0" d="M502.634 421.277v54.715l-.149.087-47.384-27.358z"/><path fill="#F7C6CE" d="M502.918 456.399l-67.124-38.753 66.706-38.511 67.122 38.754z"/><path fill="#C0CB5D" d="M650.535 365.756l-67.122-38.755v-77.022l67.122 38.753z"/><path fill="#B3C548" d="M650.537 365.756l67.124-38.755-.003-77.022-67.121 38.753z"/><path fill="#8BAD50" d="M650.327 343.458l-47.686-27.531v-34.763l47.686 27.114z"/><path fill="#70A22D" d="M650.327 343.458l47.684-27.531-.002-35.079-47.682 27.43z"/><path fill="#98B653" d="M650.176 253.489v54.717l.151.086 47.383-27.358z"/><path fill="#A9C063" d="M650.251 253.489v54.717l-.15.086-47.387-27.358z"/><path fill="#C2D55C" d="M650.535 288.612l-67.122-38.754 66.701-38.511 67.124 38.753z"/><path fill="#C0CB5D" d="M650.535 285.033l-67.122-38.755v-77.023l67.122 38.754z"/><path fill="#B3C548" d="M650.537 285.033l67.124-38.755-.003-77.023-67.121 38.754z"/><path fill="#8BAD50" d="M650.327 262.734l-47.686-27.53v-34.763l47.686 27.114z"/><path fill="#70A22D" d="M650.327 262.734l47.684-27.53-.002-35.079-47.682 27.43z"/><path fill="#98B653" d="M650.176 172.766v54.716l.151.086 47.383-27.358z"/><path fill="#A9C063" d="M650.251 172.766v54.716l-.15.086-47.387-27.358z"/><path fill="#C2D55C" d="M650.535 207.888l-67.122-38.753 66.701-38.511 67.124 38.752z"/><path fill="#C0CB5D" d="M577.156 407.457l-67.124-38.756v-77.022l67.124 38.755z"/><path fill="#B3C548" d="M577.158 407.457l67.123-38.756-.002-77.022-67.121 38.755z"/><path fill="#8BAD50" d="M576.947 385.158l-47.685-27.531v-34.762l47.685 27.114z"/><path fill="#70A22D" d="M576.947 385.158l47.685-27.531-.002-35.079-47.683 27.431z"/><path fill="#98B653" d="M576.797 295.189v54.717l.15.087 47.383-27.359z"/><path fill="#A9C063" d="M576.872 295.189v54.717l-.15.087-47.387-27.359z"/><path fill="#C2D55C" d="M577.156 330.312l-67.124-38.753 66.703-38.512 67.124 38.753z"/><path fill="#C3C2BF" d="M723.224 409.339L656.1 370.583V293.56l67.124 38.754z"/><path fill="#B8B7B3" d="M723.224 409.339l67.124-38.756-.002-77.023-67.122 38.754z"/><path fill="#807F7B" d="M723.012 387.039l-47.682-27.532v-34.765l47.682 27.117z"/><path fill="#706E6B" d="M723.012 387.039l47.686-27.532v-35.079l-47.686 27.431z"/><path fill="#858480" d="M722.865 297.069v54.718l.147.087 47.386-27.361z"/><path fill="#A19F9B" d="M722.94 297.069v54.718l-.152.087-47.385-27.361z"/><path fill="#D5D4D2" d="M723.224 332.191L656.1 293.437l66.704-38.51 67.124 38.755z"/><path fill="#C3C2BF" d="M649.078 451.024l-67.126-38.755v-77.024L649.078 374z"/><path fill="#B8B7B3" d="M649.078 451.024l67.123-38.755-.004-77.024L649.078 374z"/><path fill="#807F7B" d="M648.867 428.727l-47.685-27.533v-34.765l47.685 27.116z"/><path fill="#706E6B" d="M648.867 428.727l47.685-27.533v-35.08l-47.685 27.431z"/><path fill="#858480" d="M648.719 338.754v54.72l.148.085 47.385-27.361z"/><path fill="#A19F9B" d="M648.792 338.754v54.72l-.152.085-47.385-27.361z"/><path fill="#E6E5E4" d="M649.078 373.877l-67.126-38.753 66.707-38.512 67.12 38.755z"/><path fill="#99D3C9" d="M794.874 451.084l-67.12-38.756v-77.025l67.12 38.756z"/><path fill="#84CBC4" d="M794.874 451.084L862 412.328v-77.025l-67.126 38.756z"/><path fill="#62B1A5" d="M794.664 428.784l-47.683-27.531v-34.765l47.683 27.116z"/><path fill="#4AA99D" d="M794.666 428.784l47.685-27.531v-35.08l-47.685 27.431z"/><path fill="#65B5A8" d="M794.518 338.813v54.72l.146.085 47.391-27.36z"/><path fill="#7ABCAF" d="M794.591 338.813v54.72l-.147.085-47.387-27.36z"/><path fill="#A9D9D4" d="M794.874 373.937l-67.12-38.755 66.704-38.511 67.124 38.754z"/><path fill="#99D3C9" d="M866.352 493.212l-67.123-38.756v-77.022l67.123 38.753z"/><path fill="#84CBC4" d="M866.352 493.212l67.124-38.756v-77.022l-67.124 38.753z"/><path fill="#62B1A5" d="M866.14 470.911l-47.685-27.529v-34.764l47.685 27.114z"/><path fill="#4AA99D" d="M866.14 470.911l47.686-27.529v-35.08l-47.686 27.43z"/><path fill="#65B5A8" d="M865.991 380.943v54.716l.149.088 47.386-27.359z"/><path fill="#7ABCAF" d="M866.068 380.943v54.716l-.15.088-47.385-27.359z"/><path fill="#A9D9D4" d="M866.352 416.064l-67.123-38.753 66.703-38.512 67.126 38.755z"/><path fill="#51BBC0" d="M734.11 96.892c-2.135-5.499-7.477-9.398-13.729-9.398-6.255 0-11.597 3.9-13.729 9.399-6.772 1.327-11.882 7.291-11.882 14.45 0 8.135 6.592 14.729 14.727 14.729 4.314 0 8.192-1.854 10.885-4.808a14.697 14.697 0 0 0 10.889 4.808c8.133 0 14.727-6.594 14.727-14.729-.002-7.161-5.117-13.127-11.888-14.451z"/><path fill="#83CCCF" d="M720.381 87.493c-6.255 0-11.597 3.9-13.729 9.399-6.772 1.327-11.882 7.291-11.882 14.45 0 8.135 6.592 14.729 14.727 14.729 4.314 0 8.192-1.854 10.885-4.808v-33.77z"/><path fill="#83CCCF" d="M720.718 107.934l-16.971 16.972a14.659 14.659 0 0 0 5.749 1.166c4.314 0 8.192-1.854 10.885-4.808a14.697 14.697 0 0 0 10.889 4.808c2.221 0 4.324-.494 6.214-1.375l-16.766-16.763z"/><path fill="#71C5C5" d="M703.747 124.906a14.659 14.659 0 0 0 5.749 1.166c4.314 0 8.192-1.854 10.885-4.808V108.27l-16.634 16.636z"/><path fill="#51BBC0" d="M716.689 133.443l3.647-1.201 1.445 4.385-3.648 1.201zM719.436 141.77l3.654-1.202 1.444 4.387-3.654 1.203zM722.18 150.09l3.651-1.2 1.443 4.385-3.65 1.201zM726.028 133.113l3.65-1.201 1.444 4.386-3.65 1.202zM728.788 141.531l3.652-1.202 1.444 4.386-3.653 1.202zM731.52 149.795l3.654-1.202 1.444 4.385-3.654 1.203zM735.152 132.92l3.65-1.202 1.445 4.388-3.65 1.202zM737.9 141.25l3.646-1.201 1.446 4.385-3.645 1.203zM740.596 149.6l3.647-1.201 1.446 4.386-3.647 1.202z"/><g><path fill="#C3C2BF" d="M722.197 492.115l-67.126-38.757v-77.023l67.126 38.755z"/><path fill="#B8B7B3" d="M722.197 492.115l67.121-38.757-.002-77.023-67.119 38.755z"/><path fill="#807F7B" d="M721.986 469.814l-47.685-27.532v-34.763l47.685 27.117z"/><path fill="#706E6B" d="M721.986 469.814l47.685-27.532v-35.077l-47.685 27.431z"/><path fill="#858480" d="M721.836 379.846v54.716l.15.087 47.383-27.36z"/><path fill="#A19F9B" d="M721.913 379.846v54.716l-.154.087-47.385-27.36z"/><path fill="#E6E5E4" d="M722.197 414.968l-67.126-38.754 66.707-38.512 67.122 38.755z"/></g><g><path fill="#ECC062" d="M573.488 658.95l-67.125-38.754v-77.023l67.125 38.753z"/><path fill="#EABA49" d="M573.488 658.95l67.119-38.754v-77.023l-67.119 38.753z"/><path fill="#F2AF05" d="M573.273 636.651l-47.681-27.532v-34.761l47.681 27.115z"/><path fill="#DF9300" d="M573.273 636.651l47.687-27.532v-35.078l-47.687 27.432z"/><path fill="#EBA738" d="M573.127 546.683v54.716l.146.087 47.387-27.358z"/><path fill="#F2B559" d="M573.2 546.683v54.716l-.15.087-47.383-27.358z"/><path fill="#F8CB6A" d="M573.488 581.805l-67.125-38.753 66.702-38.51 67.124 38.751z"/></g><g><path fill="#ECC062" d="M500.901 701.062l-67.123-38.754v-77.022l67.123 38.754z"/><path fill="#EABA49" d="M500.901 701.062l67.124-38.754-.002-77.022-67.122 38.754z"/><path fill="#F2AF05" d="M500.69 678.764l-47.682-27.53V616.47l47.682 27.115z"/><path fill="#DF9300" d="M500.69 678.764l47.686-27.53v-35.08l-47.686 27.431z"/><path fill="#EBA738" d="M500.543 588.795v54.717l.147.087 47.388-27.359z"/><path fill="#F2B559" d="M500.619 588.795v54.717l-.152.087-47.386-27.359z"/><path fill="#F8CB6A" d="M500.901 623.919l-67.123-38.754 66.706-38.512 67.125 38.752z"/></g><g><path fill="#DDADCF" d="M938.599 535.613l-67.122-38.753v-77.024l67.122 38.754z"/><path fill="#D49AC2" d="M938.599 535.613l67.124-38.753v-77.024l-67.124 38.754z"/><path fill="#CA72AB" d="M938.389 513.316l-47.685-27.532V451.02l47.685 27.117z"/><path fill="#C5589C" d="M938.395 513.316l47.68-27.532-.005-35.081-47.675 27.434z"/><path fill="#D084B5" d="M938.242 423.348v54.715l.147.085 47.388-27.358z"/><path fill="#D896C0" d="M938.315 423.348v54.715l-.148.085-47.386-27.358z"/><path fill="#E9B5D2" d="M938.599 458.469l-67.122-38.754 66.702-38.511 67.126 38.753z"/></g><g><path fill="#C0CB5D" d="M431.003 575.234l-67.12-38.753v-77.022l67.12 38.751z"/><path fill="#B3C548" d="M431.005 575.234l67.122-38.753-.001-77.022-67.121 38.751z"/><path fill="#8BAD50" d="M430.792 552.936l-47.683-27.529v-34.763l47.683 27.113z"/><path fill="#70A22D" d="M430.792 552.936l47.687-27.529-.001-35.081-47.686 27.431z"/><path fill="#98B653" d="M430.644 462.968v54.717l.148.086 47.388-27.36z"/><path fill="#A9C063" d="M430.721 462.968v54.717l-.15.086-47.386-27.36z"/><path fill="#C2D55C" d="M431.003 498.09l-67.12-38.754 66.7-38.513 67.125 38.755z"/></g><g><path fill="#C0CB5D" d="M358.42 617.349l-67.124-38.756v-77.022l67.124 38.753z"/><path fill="#B3C548" d="M358.421 617.349l67.123-38.756-.001-77.024-67.122 38.755z"/><path fill="#8BAD50" d="M358.211 595.049l-47.685-27.529v-34.765l47.685 27.114z"/><path fill="#70A22D" d="M358.211 595.049l47.685-27.529-.002-35.082-47.683 27.431z"/><path fill="#98B653" d="M358.061 505.08v54.717l.15.086 47.385-27.359z"/><path fill="#A9C063" d="M358.136 505.08v54.717l-.15.086-47.387-27.359z"/><path fill="#C2D55C" d="M358.42 540.203l-67.124-38.753L358 462.938l67.125 38.754z"/></g><g><path fill="#C3C2BF" d="M648.461 533.487l-67.124-38.756v-77.023l67.124 38.753z"/><path fill="#B8B7B3" d="M648.461 533.487l67.126-38.756v-77.023l-67.126 38.753z"/><path fill="#807F7B" d="M648.253 511.187l-47.685-27.534v-34.761l47.685 27.116z"/><path fill="#706E6B" d="M648.253 511.187l47.685-27.534v-35.076l-47.685 27.431z"/><path fill="#858480" d="M648.103 421.216v54.72l.15.084 47.389-27.359z"/><path fill="#A19F9B" d="M648.178 421.216v54.72l-.147.084-47.386-27.359z"/><path fill="#E6E5E4" d="M648.461 456.34l-67.124-38.753 66.706-38.513 67.121 38.755z"/></g><g><path fill="#C3C2BF" d="M575.203 575.182l-67.123-38.753v-77.025l67.123 38.752z"/><path fill="#B8B7B3" d="M575.203 575.182l67.124-38.753v-77.025l-67.124 38.752z"/><path fill="#807F7B" d="M574.995 552.881l-47.684-27.531v-34.764l47.684 27.116z"/><path fill="#706E6B" d="M574.995 552.881l47.684-27.531v-35.079l-47.684 27.431z"/><path fill="#858480" d="M574.846 462.911v54.721l.149.085 47.389-27.361z"/><path fill="#A19F9B" d="M574.922 462.911v54.721l-.151.085-47.385-27.361z"/><path fill="#E6E5E4" d="M575.203 498.035l-67.123-38.754 66.707-38.512 67.121 38.754z"/></g><g><path fill="#C3C2BF" d="M645.657 617.662l-67.123-38.757v-77.024l67.123 38.755z"/><path fill="#B8B7B3" d="M645.657 617.662l67.124-38.757v-77.024l-67.124 38.755z"/><path fill="#807F7B" d="M645.449 595.361l-47.683-27.532v-34.764l47.683 27.118z"/><path fill="#706E6B" d="M645.449 595.361l47.685-27.532v-35.078l-47.685 27.432z"/><path fill="#858480" d="M645.299 505.391v54.718l.15.084 47.389-27.36z"/><path fill="#A19F9B" d="M645.374 505.391v54.718l-.148.084-47.385-27.36z"/><path fill="#E6E5E4" d="M645.657 540.512l-67.123-38.754 66.705-38.509 67.124 38.753z"/></g><g><path fill="#C0CB5D" d="M503.588 617.378l-67.123-38.755v-77.022l67.123 38.753z"/><path fill="#B3C548" d="M503.588 617.378l67.124-38.755v-77.022l-67.124 38.753z"/><path fill="#8BAD50" d="M503.379 595.077l-47.684-27.528v-34.765l47.684 27.114z"/><path fill="#70A22D" d="M503.379 595.077l47.687-27.528-.005-35.079-47.682 27.428z"/><path fill="#98B653" d="M503.229 505.112v54.716l.15.085 47.387-27.358z"/><path fill="#A9C063" d="M503.301 505.112v54.716l-.144.085-47.389-27.358z"/><path fill="#C2D55C" d="M503.588 540.233l-67.123-38.754 66.705-38.511 67.124 38.754z"/></g><g><path fill="#F0B3BC" d="M720.591 657.863l-67.124-38.755v-77.024l67.124 38.755z"/><path fill="#ED9DA6" d="M720.591 657.863l67.126-38.755v-77.024l-67.126 38.755z"/><path fill="#ED7775" d="M720.381 635.563l-47.682-27.529v-34.763l47.682 27.113z"/><path fill="#E35557" d="M720.381 635.563l47.686-27.529-.002-35.079-47.684 27.429z"/><path fill="#E6757A" d="M720.234 545.595v54.717l.147.084 47.389-27.356z"/><path fill="#F19CA0" d="M720.31 545.595v54.717l-.151.084-47.389-27.356z"/><path fill="#F7C6CE" d="M720.591 580.717l-67.124-38.752 66.708-38.515 67.124 38.755z"/></g><g><path fill="#ECC062" d="M575.563 659.581l-67.122-38.755v-77.022l67.122 38.752z"/><path fill="#EABA49" d="M575.563 659.581l67.123-38.755v-77.022l-67.123 38.752z"/><path fill="#F2AF05" d="M575.354 637.284l-47.686-27.532v-34.764l47.686 27.116z"/><path fill="#DF9300" d="M575.354 637.284l47.684-27.534v-35.079l-47.684 27.433z"/><path fill="#EBA738" d="M575.205 547.313v54.718l.149.085 47.386-27.358z"/><path fill="#F2B559" d="M575.276 547.313v54.718l-.148.085-47.383-27.358z"/><path fill="#F8CB6A" d="M575.563 582.435l-67.122-38.754 66.703-38.51 67.122 38.752z"/></g><g><path fill="#B6B5B1" d="M519.632 472.02c-41.941 9.553-55.514 42.884-56.22 44.654l17.862 9.878c-2.223 5.59 25.494-37.861 56.993-39.415 2.242-.111 4.419-.295 6.535-.531l-25.17-14.586z"/><g fill="none" stroke="#F9E540" stroke-width="2" stroke-miterlimit="10"><path d="M529.295 477.619s-1.437.303-3.868 1.005"/><path stroke-dasharray="7.2764,7.2764" d="M518.518 480.899c-12.163 4.48-31.663 14.149-42.5 32.555"/><path d="M474.27 516.651a56.8 56.8 0 0 0-1.677 3.632"/></g><path fill="#77C2B3" d="M535.784 501.358l-7.631-4.54 15.449-8.672 7.629 4.539z"/><path fill="#99D3C9" d="M535.85 499.627l-7.697-4.43-.028 6.853 7.695 4.43z"/><path fill="#4AA99D" d="M551.301 492.645l-.07 6.282-15.379 8.933.003-6.545z"/><path fill="#77C2B3" d="M513.672 511.34l-13.42-7.983 27.162-15.253 13.422 7.985z"/><path fill="#99D3C9" d="M513.785 511.094l-13.533-7.791-.052 12.052 13.533 7.791z"/><path fill="#77C2B3" d="M495.04 523.194l-7.632-4.538 15.446-8.674 7.632 4.54z"/><path fill="#99D3C9" d="M495.103 523.053l-7.695-4.429-.031 6.856 7.697 4.427z"/><path fill="#4AA99D" d="M510.556 514.481l-.07 6.283-15.382 8.934.005-6.546z"/><path fill="#99D3C9" d="M498.991 524.173l-2.443 1.357.066-2.026 2.442-1.359zM502.154 522.416l-2.445 1.355.068-2.026 2.444-1.355zM505.288 520.676l-2.444 1.356.064-2.027 2.445-1.358zM509.068 518.354l-2.442 1.359.067-2.026 2.442-1.358zM542.889 500.839l-2.444 1.357.064-2.028 2.444-1.355zM546.024 499.101l-2.444 1.355.064-2.026 2.444-1.358zM549.804 496.778l-2.443 1.357.066-2.026 2.442-1.357z"/><path fill="#4AA99D" d="M540.957 496.014l-.121 11.05-27.045 15.71.004-11.509z"/><path fill="#99D3C9" d="M520.736 513.767l-4.613 2.562.127-3.828 4.613-2.564zM526.71 510.45l-4.613 2.56.124-3.828 4.616-2.562zM532.626 507.16l-4.613 2.565.125-3.828 4.615-2.565zM538.499 503.9l-4.614 2.565.125-3.828 4.615-2.563z"/></g><g><path fill="#C0CB5D" d="M431.003 659.49l-67.12-38.754v-77.023l67.12 38.756z"/><path fill="#B3C548" d="M431.003 659.49l67.124-38.754-.001-77.023-67.123 38.756z"/><path fill="#8BAD50" d="M430.792 637.192l-47.683-27.531v-34.762l47.683 27.115z"/><path fill="#70A22D" d="M430.793 637.192l47.686-27.531-.001-35.079-47.685 27.432z"/><path fill="#98B653" d="M430.644 547.224v54.716l.148.084 47.391-27.358z"/><path fill="#A9C063" d="M430.72 547.224v54.716l-.148.084-47.387-27.358z"/><path fill="#C2D55C" d="M431.003 582.347l-67.12-38.753 66.7-38.514 67.125 38.754z"/></g><g><path fill="#ECC062" d="M502.98 701.693l-67.126-38.755v-77.022l67.126 38.751z"/><path fill="#EABA49" d="M502.98 701.693l67.124-38.755-.002-77.022-67.122 38.751z"/><path fill="#F2AF05" d="M502.769 679.396l-47.684-27.532V617.1l47.684 27.114z"/><path fill="#DF9300" d="M502.769 679.396l47.687-27.532v-35.079l-47.687 27.429z"/><path fill="#EBA738" d="M502.621 589.425v54.719l.148.084 47.385-27.356z"/><path fill="#F2B559" d="M502.697 589.425v54.719l-.153.084-47.385-27.356z"/><path fill="#F8CB6A" d="M502.98 624.548l-67.126-38.753 66.707-38.512 67.125 38.754z"/></g><g><path fill="#99D3C9" d="M793.635 535.49l-67.117-38.756V419.71l67.117 38.755z"/><path fill="#84CBC4" d="M793.635 535.49l67.128-38.756-.002-77.024-67.126 38.755z"/><path fill="#62B1A5" d="M793.427 513.192l-47.685-27.532v-34.764l47.685 27.116z"/><path fill="#4AA99D" d="M793.429 513.192l47.684-27.532v-35.078l-47.684 27.43z"/><path fill="#65B5A8" d="M793.278 423.222v54.719l.149.084 47.39-27.358z"/><path fill="#7ABCAF" d="M793.354 423.222v54.719l-.149.084-47.385-27.358z"/><path fill="#A9D9D4" d="M793.635 458.346l-67.117-38.757 66.701-38.509 67.124 38.754z"/></g><g><path fill="#99D3C9" d="M865.814 579.249l-67.12-38.755V463.47l67.12 38.754z"/><path fill="#84CBC4" d="M865.814 579.249l67.124-38.755V463.47l-67.124 38.754z"/><path fill="#62B1A5" d="M865.604 556.949L817.92 529.42v-34.764l47.684 27.115z"/><path fill="#4AA99D" d="M865.604 556.949l47.689-27.529v-35.081l-47.689 27.432z"/><path fill="#65B5A8" d="M865.454 466.979v54.718l.15.087 47.391-27.36z"/><path fill="#7ABCAF" d="M865.529 466.979v54.718l-.144.087-47.389-27.36z"/><path fill="#A9D9D4" d="M865.814 502.103l-67.12-38.754 66.702-38.513 67.124 38.755z"/></g><g fill="#84CBC4"><path d="M872.334 549.426c.037-.017 3.971-1.427 8.38-4.077 1.899-1.144 3.888-2.517 5.714-4.141 1.824-1.631 3.5-3.498 4.759-5.809.66-1.211 1.174-2.476 1.594-3.726.733-2.196 1.191-4.364 1.669-6.438.357-1.559.72-3.066 1.186-4.515.704-2.174 1.603-4.209 3.133-6.275 1.529-2.059 3.731-4.149 7.007-6.119l.273-.164-.218-3.493c-.098.06-.194.119-.294.177-3.559 2.139-6.126 4.528-8.039 7.138-1.436 1.95-2.486 4.024-3.266 6.066-1.174 3.067-1.763 6.018-2.369 8.621-.302 1.308-.603 2.528-.96 3.65-.358 1.125-.765 2.146-1.29 3.111-.829 1.543-2.207 3.16-3.835 4.604-1.629 1.451-3.497 2.747-5.303 3.833a51.965 51.965 0 0 1-7.364 3.652l-.485.188-.125.046-.033.016-.134 3.655z"/><path d="M871.384 529.929l.038-.032c.396-.335 3.921-3.271 7.856-5.636 1.805-1.085 3.694-2.05 5.385-2.593 1.689-.553 3.171-.655 4.138-.194.54.256 1.002.655 1.432 1.178.756.91 1.404 2.22 2.136 3.625.547 1.052 1.14 2.151 1.892 3.121 1.122 1.458 2.616 2.589 4.706 2.739 2.092.158 4.741-.618 8.242-2.726l.297-.179-.257-3.465c-.094.055-.185.109-.274.164-3.326 2.003-5.65 2.608-7.337 2.452-1.266-.118-2.195-.647-2.979-1.416-1.172-1.154-2.01-2.921-2.946-4.711-.47-.893-.964-1.784-1.562-2.564-.597-.78-1.296-1.446-2.157-1.848-1.465-.674-3.253-.457-5.145.147-1.896.614-3.907 1.649-5.807 2.79-4.41 2.654-8.221 5.899-8.254 5.928l.596 3.22z"/><path d="M881.654 542.971l-1.433-21.087-2.33 1.402 1.437 21.086M886.393 539.665l-1.378-20.21-2.327 1.4 1.376 20.21M900.153 529.525l-1.132-16.631-2.329 1.4 1.134 16.632M904.204 528.952l-1.376-20.211-2.327 1.401 1.376 20.211"/></g><g fill="#84CBC4"><path d="M775.194 484.958l-1.29-.718c.16-1.194.081-2.453-.217-3.752-.436-1.938-1.374-3.972-2.696-5.794-1.326-1.823-3.029-3.425-4.972-4.507-2.582-1.446-5.044-1.667-6.898-.911a5.091 5.091 0 0 0-2.283 1.795c-.579.808-.97 1.804-1.129 2.996-.16 1.192-.081 2.452.217 3.748.436 1.94 1.371 3.974 2.698 5.797 1.324 1.82 3.029 3.422 4.97 4.506 2.582 1.446 5.044 1.665 6.9.912a5.138 5.138 0 0 0 2.281-1.793c.579-.81.97-1.809 1.129-2.997l1.29.718 1.291.723c-.236 1.729-.807 3.189-1.622 4.323-1.223 1.704-2.981 2.689-5.008 2.93-2.028.24-4.336-.265-6.699-1.588-3.152-1.764-5.854-4.665-7.692-8.021-.918-1.68-1.62-3.478-2.032-5.3-.413-1.821-.537-3.669-.304-5.4.234-1.729.807-3.189 1.622-4.323 1.225-1.706 2.981-2.689 5.008-2.932 2.028-.237 4.336.267 6.701 1.588 3.15 1.764 5.854 4.667 7.69 8.023.918 1.677 1.618 3.475 2.03 5.3.415 1.82.537 3.668.306 5.399l-1.291-.722z"/><path d="M782.376 492.389l.693 1.688c-1.184.566-2.645.512-4.138-.326-1.619-.9-2.981-2.55-3.862-4.472-.878-1.916-1.29-4.134-1.017-6.154.275-2.025 1.186-3.502 2.427-4.234 1.239-.736 2.825-.736 4.442.167 1.493.834 2.763 2.307 3.637 4.023l.373.726-1.362 10.031-.5.239-.693-1.688-1.289-.721 1.162-8.578 1.292.721-1.021.732c-.498-.977-1.199-1.786-2.036-2.254-.91-.509-1.79-.509-2.49-.094-.702.413-1.203 1.229-1.358 2.37-.152 1.141.075 2.364.571 3.449s1.247 1.994 2.163 2.508c.835.467 1.64.497 2.315.178l.691 1.689-1.289-.721 1.289.721zM758.322 486.64l2.831-20.909 2.586 1.444-2.837 20.906"/></g><g fill="#C0CB5D"><path d="M394.097 612.964l-7.18-4.397v-24.241l7.18 4.397zM404.564 619.368l-7.181-4.393v-14.047l7.181 4.393zM414.62 625.521l-7.183-4.395v-9.062l7.183 4.395zM424.873 631.797l-7.183-4.394v-19.711l7.183 4.396z"/></g><g fill="#C0CB5D"><path d="M334.092 551.545l1.219 5.421c3.979 2.203 7.214 7.233 7.214 11.211s-3.235 5.422-7.214 3.217c-3.875-2.149-7.039-6.976-7.199-10.9l-4.886-4.436c-1.39 8.322 5.594 16.48 12.084 20.078 6.593 3.655 11.958 1.264 11.958-5.329.001-6.594-4.678-15.48-13.176-19.262z"/><path d="M321.469 551.407l13.849 13.395-4.78-16.844c-4.152-.905-7.434.406-9.069 3.449z"/></g><g><path fill="#EBA738" d="M513.949 669.072l9.361-23.172 6.543 10.308 9.026-22.639 2.809 3.813 2.285-2.653-5.383-7.306-8.887 22.287-6.522-10.275-11.667 28.877z"/></g><path fill="#B6B5B1" d="M557.602 488.841c41.938-9.555 55.516-42.886 56.221-44.656l-17.863-9.875c2.225-5.59-25.492 37.861-56.994 39.415-2.242.109-4.418.292-6.529.531l25.165 14.585z"/><g><g fill="none" stroke="#F9E540" stroke-width="2" stroke-miterlimit="10"><path d="M549.267 483.24s1.435-.312 3.86-1.037"/><path stroke-dasharray="7.1514,7.1514" d="M559.893 479.896c11.832-4.512 30.693-14.188 41.368-32.536"/><path d="M602.967 444.21a58.247 58.247 0 0 0 1.672-3.634"/></g></g><path fill="#B6B5B1" d="M663.703 388.136c-41.94 9.553-55.514 42.884-56.221 44.654l17.863 9.876c-2.225 5.589 25.492-37.862 56.994-39.415 2.242-.109 4.416-.293 6.531-.532l-25.167-14.583z"/><g><g fill="none" stroke="#F9E540" stroke-width="2" stroke-miterlimit="10"><path d="M671.87 393.733s-1.435.313-3.858 1.042"/><path stroke-dasharray="7.1359,7.1359" d="M661.264 397.087c-11.791 4.517-30.572 14.195-41.227 32.535"/><path d="M618.336 432.766a58.247 58.247 0 0 0-1.672 3.634"/></g></g><path fill="#B6B5B1" d="M700.676 401.45c41.94-9.553 55.514-42.885 56.219-44.654l-17.863-9.877c2.225-5.59-25.49 37.863-56.992 39.417-2.244.109-4.416.291-6.535.531l25.171 14.583z"/><g><g fill="none" stroke="#F9E540" stroke-width="2" stroke-miterlimit="10"><path d="M692.045 394.611s1.445-.269 3.889-.925"/><path stroke-dasharray="7.1122,7.1122" d="M702.723 391.578c11.911-4.181 30.906-13.369 41.61-31.632"/><path d="M746.037 356.819a56.877 56.877 0 0 0 1.676-3.632"/></g></g><g fill="#99D3C9"><path d="M520.015 557.577c-41.94 9.555-55.515 42.885-56.221 44.654l15.22 8.786c.153-.386 14.764-36.114 59.638-38.325 2.242-.108 4.415-.293 6.532-.531l-25.169-14.584zM594.395 516.471c-.501 1.451-12.528 36.521-56.607 38.692a106.9 106.9 0 0 0-8.067.723l25.173 14.675c11.208-2.47 20.355-6.737 27.77-11.745 21.164-14.288 27.07-31.976 27.49-33.247l-15.759-9.098z"/></g><g><path fill="#FFF" d="M575.694 530.229l-6.487 14.051 14.299-8.6z"/><path fill="#EDEDEC" d="M575.694 530.231l.66 9.751 7.152-4.302z"/><path fill="#FFF" d="M565.179 553.717l22.118-29.307 1.045 15.376z"/><path fill="#E1E0DF" d="M588.342 539.786l-24.208-1.443 1.045 15.374z"/><path fill="#EDEDEC" d="M576.238 539.063l-11.059 14.654 23.163-13.931v-.002z"/></g><g><path fill="#FFF" d="M490.696 564.859l-6.485 14.048 14.295-8.598z"/><path fill="#EDEDEC" d="M490.696 564.859l.662 9.751 7.148-4.301z"/><path fill="#FFF" d="M480.181 588.346l22.117-29.307 1.048 15.375z"/><path fill="#E1E0DF" d="M503.346 574.414l-24.211-1.442 1.046 15.374z"/><path fill="#EDEDEC" d="M491.24 573.692l-11.059 14.654 23.165-13.932z"/></g><g><path fill="#E6E5E4" d="M802.464 295.263h8.376v23.354h-8.376z"/><path fill="#E6E5E4" d="M792.501 322.812v-.038l26.851-12.514v12.552z"/><path fill="#FFF" d="M815.62 322.812v-.038l-33.117-16.063 6.265 16.101z"/><path fill="#C8C7C4" d="M800.79 292.836h11.724v2.701H800.79z"/><ellipse fill="#A9D9D4" cx="790.835" cy="326.767" rx="8.082" ry="6.103"/><path fill="#A9D9D4" d="M811.821 326.302c0 3.371-3.614 6.103-8.079 6.103s-8.079-2.732-8.079-6.103c0-3.371 3.614-6.103 8.079-6.103s8.079 2.732 8.079 6.103z"/><ellipse fill="#A9D9D4" cx="815.621" cy="327.78" rx="8.08" ry="6.102"/><path fill="none" stroke="#65B5A8" stroke-miterlimit="10" d="M787.896 324.226s4.827-3.095 8.402.308c0 0 7.877-4.738 13.364 0 0 0 4.305-2.089 7.713-.308"/><ellipse fill="#D5D4D2" cx="809.095" cy="288.227" rx="2.441" ry="2.371"/><ellipse fill="#D5D4D2" cx="813.278" cy="287.757" rx="2.794" ry="2.714"/><ellipse fill="#D5D4D2" cx="817.969" cy="287.757" rx="3.138" ry="3.047"/><ellipse fill="#D5D4D2" cx="823.702" cy="287.757" rx="4.054" ry="3.938"/></g><g><path fill="#C3C2BF" d="M670.952 340.931l-13.789-7.962.002-15.821 13.787 7.961z"/><path fill="#B8B7B3" d="M670.952 340.931l13.789-7.962v-15.821l-13.789 7.961z"/><path fill="#D5D4D2" d="M670.952 325.083l-13.789-7.96 13.704-7.911 13.787 7.961z"/></g><g><path fill="#C3C2BF" d="M656.572 349.223l-13.789-7.961v-15.823l13.789 7.961z"/><path fill="#B8B7B3" d="M656.572 349.223l13.787-7.961v-15.823l-13.787 7.961z"/><path fill="#D5D4D2" d="M656.572 333.375l-13.789-7.961 13.703-7.911 13.787 7.96z"/></g><g><path fill="#C3C2BF" d="M656.572 333.693l-13.789-7.96V309.91l13.789 7.961z"/><path fill="#B8B7B3" d="M656.572 333.693l13.787-7.96V309.91l-13.787 7.961z"/><path fill="#D5D4D2" d="M656.572 317.846l-13.789-7.961 13.703-7.911 13.787 7.961z"/></g><g><path fill="#C3C2BF" d="M656.572 317.846l-13.789-7.961v-15.823l13.789 7.961z"/><path fill="#B8B7B3" d="M656.572 317.846l13.787-7.961v-15.823l-13.787 7.961z"/><path fill="#D5D4D2" d="M656.572 301.999l-13.789-7.961 13.703-7.911 13.787 7.96z"/></g><g><path fill="#C3C2BF" d="M640.078 358.701l-13.791-7.962.002-15.822 13.789 7.96z"/><path fill="#B8B7B3" d="M640.078 358.701l13.789-7.962v-15.822l-13.789 7.96z"/><path fill="#D5D4D2" d="M640.078 342.853l-13.791-7.962 13.704-7.911 13.789 7.961z"/><path fill="#C3C2BF" d="M640.078 343.17l-13.791-7.96.002-15.823 13.789 7.961z"/><path fill="#B8B7B3" d="M640.078 343.17l13.789-7.96v-15.823l-13.789 7.961z"/><path fill="#D5D4D2" d="M640.078 327.323l-13.791-7.961 13.704-7.911 13.789 7.961z"/><g><path fill="#C3C2BF" d="M640.078 327.323l-13.791-7.96.002-15.822 13.789 7.96z"/><path fill="#B8B7B3" d="M640.078 327.323l13.789-7.96v-15.822l-13.789 7.96z"/><path fill="#D5D4D2" d="M640.078 311.476l-13.791-7.961 13.704-7.911 13.789 7.961z"/></g><g><path fill="#FFF" d="M646.854 318.571l-4.276 2.525v-4.925l4.276-2.525zM652.502 315.234l-4.274 2.525v-4.925l4.274-2.525z"/><path fill="#F7D232" d="M646.854 325.556l-4.276 2.525v-4.924l4.276-2.525z"/><path fill="#FFF" d="M652.502 322.221l-4.274 2.523v-4.924l4.274-2.524z"/><path fill="#F7D232" d="M646.854 332.33l-4.276 2.524v-4.924l4.276-2.525z"/><path fill="#FFF" d="M652.502 328.992l-4.274 2.524v-4.923l4.274-2.525zM646.854 338.535l-4.276 2.524v-4.924l4.276-2.525zM652.502 335.197l-4.274 2.525v-4.924l4.274-2.526zM646.854 344.888l-4.276 2.525v-4.924l4.276-2.525z"/><path fill="#F7D232" d="M652.502 341.553l-4.274 2.524v-4.925l4.274-2.525z"/></g></g><g><path fill="#FFF" d="M662.779 309.285l-4.276 2.525v-4.925l4.276-2.523z"/><path fill="#F7D232" d="M668.428 305.95l-4.277 2.524v-4.924l4.277-2.525zM662.779 316.271l-4.276 2.525v-4.924l4.276-2.525z"/><path fill="#FFF" d="M668.428 312.936l-4.277 2.524v-4.926l4.277-2.523zM662.779 323.045l-4.276 2.525v-4.926l4.276-2.525z"/><path fill="#F7D232" d="M668.428 319.707l-4.277 2.524v-4.923l4.277-2.525z"/><path fill="#FFF" d="M662.779 329.249l-4.276 2.525v-4.924l4.276-2.525zM668.428 325.913l-4.277 2.524v-4.924l4.277-2.525z"/><path fill="#F7D232" d="M662.779 335.604l-4.276 2.524v-4.924l4.276-2.524zM668.428 332.268l-4.277 2.524v-4.924l4.277-2.525z"/></g><g><path fill="#C3C2BF" d="M937.032 414.455l-13.787-7.961v-15.822l13.787 7.959z"/><path fill="#B8B7B3" d="M937.032 414.455l13.792-7.961v-15.822l-13.792 7.959z"/><path fill="#D5D4D2" d="M937.032 398.607l-13.787-7.96 13.704-7.912 13.787 7.961z"/><path fill="#C3C2BF" d="M922.65 422.747l-13.787-7.963v-15.821l13.787 7.96z"/><path fill="#B8B7B3" d="M922.65 422.747l13.791-7.963v-15.821l-13.791 7.96z"/><path fill="#D5D4D2" d="M922.65 406.897l-13.787-7.959 13.702-7.912 13.791 7.961z"/><g><path fill="#C3C2BF" d="M922.65 407.216l-13.787-7.959v-15.822l13.787 7.96z"/><path fill="#B8B7B3" d="M922.65 407.216l13.791-7.959v-15.822l-13.791 7.96z"/><path fill="#D5D4D2" d="M922.65 391.369l-13.787-7.962 13.702-7.909 13.791 7.96z"/></g><g><path fill="#C3C2BF" d="M922.65 391.369l-13.787-7.961v-15.823l13.787 7.962z"/><path fill="#B8B7B3" d="M922.65 391.369l13.791-7.961v-15.823l-13.791 7.962z"/><path fill="#D5D4D2" d="M922.65 375.522l-13.787-7.961 13.702-7.911 13.791 7.961z"/></g><g><path fill="#C3C2BF" d="M906.157 432.224l-13.787-7.961.002-15.823 13.785 7.962z"/><path fill="#B8B7B3" d="M906.157 432.224l13.791-7.961V408.44l-13.791 7.962z"/><path fill="#D5D4D2" d="M906.157 416.376l-13.787-7.961 13.704-7.91 13.787 7.96z"/><path fill="#C3C2BF" d="M906.157 416.693l-13.787-7.96.002-15.821 13.785 7.959z"/><path fill="#B8B7B3" d="M906.157 416.693l13.791-7.96v-15.821l-13.791 7.959z"/><path fill="#D5D4D2" d="M906.157 400.848l-13.787-7.962 13.704-7.911 13.787 7.961z"/><g><path fill="#C3C2BF" d="M906.157 400.848l-13.787-7.961.002-15.824 13.785 7.962z"/><path fill="#B8B7B3" d="M906.157 400.848l13.791-7.961v-15.824l-13.791 7.962z"/><path fill="#D5D4D2" d="M906.157 385l-13.787-7.961 13.704-7.912 13.787 7.961z"/></g><g><path fill="#FFF" d="M912.936 392.094l-4.277 2.524v-4.924l4.277-2.525zM918.582 388.758l-4.272 2.525v-4.926l4.272-2.524z"/><path fill="#F7D232" d="M912.936 399.079l-4.277 2.525v-4.923l4.277-2.525z"/><path fill="#FFF" d="M918.582 395.743l-4.272 2.525v-4.925l4.272-2.525z"/><path fill="#F7D232" d="M912.936 405.853l-4.277 2.525v-4.926l4.277-2.524z"/><path fill="#FFF" d="M918.582 402.515l-4.272 2.526v-4.926l4.272-2.524zM912.936 412.058l-4.277 2.523v-4.924l4.277-2.523zM918.582 408.722l-4.272 2.524v-4.926l4.272-2.523zM912.936 418.413l-4.277 2.525v-4.925l4.277-2.525z"/><path fill="#F7D232" d="M918.582 415.076l-4.272 2.525v-4.924l4.272-2.526z"/></g></g><g><path fill="#FFF" d="M928.858 382.809l-4.272 2.524v-4.925l4.272-2.522z"/><path fill="#F7D232" d="M934.511 379.472l-4.277 2.525v-4.925l4.277-2.524zM928.858 389.795l-4.272 2.524v-4.923l4.272-2.525z"/><path fill="#FFF" d="M934.511 386.459l-4.277 2.524v-4.924l4.277-2.525zM928.858 396.566l-4.272 2.526v-4.924l4.272-2.524z"/><path fill="#F7D232" d="M934.511 393.231l-4.277 2.523v-4.923l4.277-2.524z"/><path fill="#FFF" d="M928.858 402.772l-4.272 2.525v-4.924l4.272-2.524zM934.511 399.437l-4.277 2.524v-4.924l4.277-2.525z"/><path fill="#F7D232" d="M928.858 409.129l-4.272 2.522v-4.923l4.272-2.525zM934.511 405.79l-4.277 2.526v-4.925l4.277-2.524z"/></g></g><g><path fill="#E9B700" d="M696.802 361.462H730.6v20.769h-33.798z"/><path fill="#F7D232" d="M730.6 361.462h-33.798v20.769h.301z"/><path fill="#F7D232" d="M690.909 372.122h6.193v10.109h-6.193z"/><circle fill="#82817E" cx="705.065" cy="380.341" r="5.155"/><circle fill="#FFF" cx="705.064" cy="380.341" r="3.129"/><path fill="#82817E" d="M725.473 380.341a5.155 5.155 0 0 1-10.308 0 5.155 5.155 0 0 1 10.308 0z"/><path fill="#FFF" d="M723.446 380.341a3.128 3.128 0 0 1-6.256 0 3.128 3.128 0 1 1 6.256 0zM690.933 373.655h2.394v3.557h-2.394z"/></g><g><path fill="#E6E5E4" d="M868.193 336.801h10.322v28.782h-10.322z"/><path fill="#E6E5E4" d="M855.913 370.751v-.046l33.095-15.422v15.468z"/><path fill="#FFF" d="M884.41 370.751v-.046l-40.814-19.795 7.719 19.841z"/><path fill="#C8C7C4" d="M866.13 333.812h14.451v3.33H866.13z"/><ellipse fill="#A9D9D4" cx="853.861" cy="375.627" rx="9.957" ry="7.52"/><ellipse fill="#A9D9D4" cx="869.768" cy="375.054" rx="9.957" ry="7.519"/><path fill="#A9D9D4" d="M894.362 376.874c0 4.154-4.455 7.521-9.952 7.521-5.5 0-9.959-3.366-9.959-7.521s4.459-7.52 9.959-7.52c5.497 0 9.952 3.366 9.952 7.52z"/><path fill="none" stroke="#65B5A8" stroke-miterlimit="10" d="M850.243 372.493s5.948-3.814 10.349.38c0 0 9.707-5.839 16.475 0 0 0 5.301-2.575 9.504-.38"/><ellipse fill="#D5D4D2" cx="876.364" cy="328.13" rx="3.01" ry="2.922"/><ellipse fill="#D5D4D2" cx="881.518" cy="327.553" rx="3.443" ry="3.343"/><ellipse fill="#D5D4D2" cx="887.299" cy="327.553" rx="3.867" ry="3.754"/><ellipse fill="#D5D4D2" cx="894.364" cy="327.553" rx="4.996" ry="4.852"/></g><g><path fill="#C3C2BF" d="M731.561 541.2l-10.173-5.872v-11.671l10.173 5.872z"/><path fill="#B8B7B3" d="M731.561 541.2l10.17-5.872v-11.671l-10.17 5.872z"/><path fill="#D5D4D2" d="M731.561 529.511l-10.173-5.872 10.109-5.836 10.171 5.872z"/><path fill="#C3C2BF" d="M720.952 547.317l-10.171-5.873v-11.671l10.171 5.871z"/><path fill="#B8B7B3" d="M720.952 547.317l10.171-5.873v-11.671l-10.171 5.871z"/><path fill="#D5D4D2" d="M720.952 535.628l-10.171-5.875 10.108-5.836 10.173 5.875z"/><g><path fill="#C3C2BF" d="M720.952 535.862l-10.171-5.872v-11.671l10.171 5.869z"/><path fill="#B8B7B3" d="M720.952 535.862l10.171-5.872v-11.671l-10.171 5.869z"/><path fill="#D5D4D2" d="M720.952 524.173l-10.171-5.875 10.108-5.835 10.173 5.874z"/></g><g><path fill="#C3C2BF" d="M720.952 524.173l-10.171-5.875v-11.671l10.171 5.874z"/><path fill="#B8B7B3" d="M720.952 524.173l10.171-5.875v-11.671l-10.171 5.874z"/><path fill="#D5D4D2" d="M720.952 512.483l-10.171-5.873 10.108-5.836 10.173 5.873z"/></g><g><path fill="#C3C2BF" d="M708.784 554.308l-10.171-5.872.002-11.672 10.169 5.872z"/><path fill="#B8B7B3" d="M708.784 554.308l10.173-5.872v-11.672l-10.173 5.872z"/><path fill="#D5D4D2" d="M708.784 542.617l-10.171-5.871 10.11-5.834 10.171 5.869z"/><path fill="#C3C2BF" d="M708.784 542.853l-10.171-5.873.002-11.671 10.169 5.873z"/><path fill="#B8B7B3" d="M708.784 542.853l10.173-5.873v-11.671l-10.173 5.873z"/><path fill="#D5D4D2" d="M708.784 531.163l-10.171-5.873 10.11-5.835 10.171 5.872z"/><g><path fill="#C3C2BF" d="M708.784 531.163l-10.171-5.873.002-11.671 10.169 5.872z"/><path fill="#B8B7B3" d="M708.784 531.163l10.173-5.873v-11.671l-10.173 5.872z"/><path fill="#D5D4D2" d="M708.784 519.473l-10.171-5.872 10.11-5.836 10.171 5.872z"/></g><g><path fill="#FFF" d="M713.785 524.706l-3.154 1.861v-3.63l3.154-1.862zM717.95 522.245l-3.152 1.861v-3.631l3.152-1.863z"/><path fill="#F7D232" d="M713.785 529.86l-3.154 1.862v-3.632l3.154-1.864z"/><path fill="#FFF" d="M717.95 527.396l-3.152 1.865v-3.633l3.152-1.861z"/><path fill="#F7D232" d="M713.785 534.856l-3.154 1.862v-3.634l3.154-1.862z"/><path fill="#FFF" d="M717.95 532.395l-3.152 1.862v-3.633l3.152-1.863zM713.785 539.433l-3.154 1.862v-3.632l3.154-1.862zM717.95 536.972l-3.152 1.86v-3.631l3.152-1.864zM713.785 544.121l-3.154 1.861v-3.633l3.154-1.862z"/><path fill="#F7D232" d="M717.95 541.659l-3.152 1.862v-3.631l3.152-1.865z"/></g></g><g><path fill="#FFF" d="M725.531 517.855l-3.152 1.864v-3.631l3.152-1.862z"/><path fill="#F7D232" d="M729.699 515.396l-3.154 1.862v-3.632l3.154-1.861zM725.531 523.011l-3.152 1.862v-3.632l3.152-1.864z"/><path fill="#FFF" d="M729.699 520.55l-3.154 1.861v-3.632l3.154-1.864zM725.531 528.005l-3.152 1.862v-3.63l3.152-1.864z"/><path fill="#F7D232" d="M729.699 525.544l-3.154 1.863v-3.632l3.154-1.863z"/><path fill="#FFF" d="M725.531 532.582l-3.152 1.864v-3.633l3.152-1.861zM729.699 530.123l-3.154 1.861v-3.633l3.154-1.861z"/><path fill="#F7D232" d="M725.531 537.272l-3.152 1.862v-3.632l3.152-1.864zM729.699 534.809l-3.154 1.863v-3.634l3.154-1.859z"/></g></g><g><path fill="#F1E1A7" d="M830.556 362.725h-26.802v-30.652h32.885z"/><path fill="#936C17" d="M822.221 339.488l8.335 23.237 5.319-23.85-11.174-1.776z"/><path fill="#EAD493" d="M822.221 339.488l-6.178 23.237h14.513z"/><path fill="#F1E1A7" d="M826.882 345.707h-6.281l1.512-6.219h5.671z"/><path fill="#EAD493" d="M821.684 341.259h4.189l-.352 2.944h-4.553z"/><path fill="#F1E1A7" d="M802.468 341.918l-4.148 10.276h5.67l.285-10.471h-1.69"/><path fill="#E05B4F" d="M803.28 355.793l5.282-1.04.282 1.433-5.281 1.04z"/><path fill="#7A7976" d="M806.915 340.971h3.396v6.428h-3.396z"/><path fill="#936C17" d="M800.909 338.875l-7.427 4.191 33.66-4.191z"/><g><path fill="#37424A" d="M837.017 335.105h-36.108l3.401-18.484 30.992 2.691z"/><path fill="#6C8391" d="M837.017 335.105h-36.108l1.028-5.544 34.493-.522z"/><path fill="#37424A" d="M841.787 338.875h-48.539l7.661-4.701h36.108z"/></g><path fill="#FFF" d="M810.62 362.725h15.253l3.174 5.612h-22.132z"/><g><path fill="#655C57" d="M781.256 350.166c2.317 10.378-4.222 20.667-14.595 22.983-10.377 2.315-20.665-4.218-22.98-14.596-2.317-10.378 4.217-20.666 14.592-22.982 10.379-2.316 20.668 4.22 22.983 14.595z"/><path fill="#514843" d="M793.817 377.359a4.004 4.004 0 0 1 .262 5.657 4.009 4.009 0 0 1-5.66.258l-15.29-13.946a4.003 4.003 0 0 1-.258-5.655 4.003 4.003 0 0 1 5.658-.261l15.288 13.947z"/><path fill="#514843" d="M781.256 350.166c-2.003-8.97-9.963-15.055-18.786-15.048v38.483c1.382 0 2.784-.14 4.191-.452 10.373-2.316 16.912-12.605 14.595-22.983z"/><circle fill="#FFF" cx="762.469" cy="354.361" r="13.786"/><path fill="#DFDFDD" d="M775.924 351.358c-1.434-6.424-7.137-10.782-13.454-10.776v27.557a13.93 13.93 0 0 0 3.002-.324c7.428-1.66 12.108-9.026 10.452-16.457z"/><path fill="#352824" d="M793.817 377.359l-10.344-9.436v10.839l4.945 4.512a4.009 4.009 0 0 0 5.66-.258 4.003 4.003 0 0 0-.261-5.657z"/></g><g fill="#37424A"><path d="M805.443 368.337h25.013l6.48 43.113h-36.292z"/><path d="M816.043 395.15l-27.985 2.311v19.292h13.24l-.042-10.801h14.787zM783.474 416.753h17.824v4.719h-17.824z"/><path d="M808.613 411.693v8.31l13.608-.073.987-8.237-14.595-1.018"/><path d="M821.834 403.811h4.721v17.823h-4.721z"/></g><path fill="#A46F15" d="M818.789 411.45h18.147l-6.48-43.113h-11.667z"/><g><path fill="#FFF" d="M819.269 371.429l-27.291 7.205 4.432 6.65 22.859-6.927z"/><path fill="#F1E1A7" d="M792.739 379.772l-6.302 1.689 2.86 5.109 6.474-2.25z"/><path fill="#E6C76B" d="M789.297 386.57l-3.86-1.286-1.963-6.521 2.963 2.698 2.86 4.573"/></g></g><path fill="#B6B5B1" d="M889.353 437.802c-41.94 9.55-55.516 42.883-56.222 44.651l17.863 9.879c-2.223 5.589 25.493-37.864 56.995-39.416 2.244-.109 4.415-.292 6.53-.531l-25.166-14.583z"/><g><g fill="none" stroke="#F9E540" stroke-width="2" stroke-miterlimit="10"><path d="M897.519 443.4s-1.435.313-3.858 1.042"/><path stroke-dasharray="7.1356,7.1356" d="M886.912 446.753c-11.791 4.517-30.572 14.192-41.227 32.531"/><path d="M843.984 482.428a58.247 58.247 0 0 0-1.672 3.634"/></g></g><g><path fill="#C3C2BF" d="M347.587 446.716l-10.837-6.257v-12.438l10.837 6.258z"/><path fill="#B8B7B3" d="M347.587 446.716l10.838-6.257v-12.438l-10.838 6.258z"/><path fill="#D5D4D2" d="M347.587 434.259l-10.837-6.255 10.77-6.217 10.837 6.255z"/><path fill="#C3C2BF" d="M347.587 434.51l-10.837-6.258v-12.436l10.837 6.258z"/><path fill="#B8B7B3" d="M347.587 434.51l10.838-6.258v-12.436l-10.838 6.258z"/><path fill="#D5D4D2" d="M347.587 422.054l-10.837-6.256 10.77-6.217 10.837 6.255z"/><g><path fill="#C3C2BF" d="M347.587 422.054l-10.837-6.256v-12.437l10.837 6.258z"/><path fill="#B8B7B3" d="M347.587 422.054l10.838-6.256v-12.437l-10.838 6.258z"/><path fill="#D5D4D2" d="M347.587 409.599l-10.837-6.256 10.77-6.219 10.837 6.258z"/></g><g><path fill="#C3C2BF" d="M371.395 446.692l-10.838-6.255.001-12.438 10.837 6.258z"/><path fill="#B8B7B3" d="M371.395 446.692l10.837-6.255v-12.438l-10.837 6.258z"/><path fill="#D5D4D2" d="M371.395 434.238l-10.838-6.258 10.772-6.218 10.837 6.258z"/><g><path fill="#C3C2BF" d="M371.395 434.486l-10.838-6.257.001-12.435 10.837 6.258z"/><path fill="#B8B7B3" d="M371.395 434.486l10.837-6.257v-12.435l-10.837 6.258z"/><path fill="#D5D4D2" d="M371.395 422.031l-10.838-6.257 10.772-6.217 10.837 6.257z"/></g><g><path fill="#F7D232" d="M376.72 425.967l-3.361 1.984v-3.872l3.361-1.984z"/><path fill="#FFF" d="M381.16 423.343l-3.36 1.984v-3.869l3.36-1.984zM376.72 430.844l-3.361 1.984v-3.871l3.361-1.984zM381.16 428.22l-3.36 1.985v-3.872l3.36-1.984zM376.72 435.838l-3.361 1.984v-3.872l3.361-1.981z"/><path fill="#F7D232" d="M381.16 433.216l-3.36 1.982v-3.869l3.36-1.984z"/></g></g><g><path fill="#FFF" d="M352.467 415.327l-3.361 1.984v-3.872l3.361-1.983z"/><path fill="#F7D232" d="M356.905 412.704l-3.358 1.984v-3.871l3.358-1.983zM352.467 420.817l-3.361 1.982v-3.866l3.361-1.986z"/><path fill="#FFF" d="M356.905 418.195l-3.358 1.983v-3.87l3.358-1.985zM352.467 426.14l-3.361 1.984v-3.868l3.361-1.986z"/><path fill="#F7D232" d="M356.905 423.518l-3.358 1.983v-3.869l3.358-1.986z"/><path fill="#FFF" d="M352.467 431.018l-3.361 1.984v-3.871l3.361-1.985zM356.905 428.396l-3.358 1.983v-3.872l3.358-1.983z"/><path fill="#F7D232" d="M352.467 436.012l-3.361 1.984v-3.869l3.361-1.984zM356.905 433.39l-3.358 1.985v-3.872l3.358-1.984z"/></g></g><g><path fill="#51BBC0" d="M864.544 205.588c-2.227-5.728-7.788-9.791-14.301-9.791-6.515 0-12.082 4.063-14.307 9.792-7.057 1.382-12.38 7.595-12.38 15.056 0 8.472 6.87 15.343 15.344 15.343 4.494 0 8.535-1.931 11.343-5.009a15.305 15.305 0 0 0 11.341 5.009c8.472 0 15.344-6.871 15.344-15.343 0-7.462-5.326-13.678-12.384-15.057z"/><path fill="#83CCCF" d="M850.243 195.797c-6.515 0-12.082 4.063-14.307 9.792-7.057 1.382-12.38 7.595-12.38 15.056 0 8.472 6.87 15.343 15.344 15.343 4.494 0 8.535-1.931 11.343-5.009v-35.182z"/><path fill="#83CCCF" d="M850.594 217.093l-17.685 17.682a15.342 15.342 0 0 0 5.991 1.213c4.494 0 8.535-1.931 11.343-5.009a15.305 15.305 0 0 0 11.341 5.009c2.313 0 4.506-.515 6.471-1.431l-17.461-17.464z"/><path fill="#71C5C5" d="M832.909 234.775a15.342 15.342 0 0 0 5.991 1.213c4.494 0 8.535-1.931 11.343-5.009v-13.537l-17.334 17.333z"/></g><g><path fill="#C0CB5D" d="M723.012 328.16l-67.124-38.756v-77.022l67.124 38.754z"/><path fill="#B3C548" d="M723.012 328.16l67.124-38.756v-77.022l-67.124 38.754z"/><path fill="#8BAD50" d="M722.804 305.861l-47.687-27.53v-34.763l47.687 27.114z"/><path fill="#70A22D" d="M722.804 305.861l47.682-27.53-.002-35.08-47.68 27.431z"/><path fill="#98B653" d="M722.653 215.893v54.716l.151.086 47.383-27.357z"/><path fill="#A9C063" d="M722.729 215.893v54.716l-.153.086-47.385-27.357z"/><path fill="#C2D55C" d="M723.012 251.016l-67.124-38.754 66.704-38.512 67.123 38.753z"/></g><g><path fill="#C0CB5D" d="M578.819 326.207l-67.124-38.754V210.43l67.124 38.755z"/><path fill="#B3C548" d="M578.819 326.207l67.124-38.754-.002-77.023-67.122 38.755z"/><path fill="#8BAD50" d="M578.609 303.909l-47.684-27.531v-34.762l47.684 27.114z"/><path fill="#70A22D" d="M578.609 303.909l47.684-27.531-.002-35.079-47.682 27.431z"/><path fill="#98B653" d="M578.459 213.941v54.717l.15.085 47.385-27.358z"/><path fill="#A9C063" d="M578.534 213.941v54.717l-.151.085-47.385-27.358z"/><path fill="#C2D55C" d="M578.819 249.063l-67.124-38.753 66.703-38.512 67.124 38.753z"/></g><g><path fill="#8ABB4E" d="M626.768 164.328l-7.496-4.815v-29.254l7.496 4.816z"/><path fill="#73A633" d="M626.77 164.328l7.496-4.815v-29.254l-7.496 4.816z"/><path fill="#73A633" d="M626.906 135.181v-.011l-7.496-4.815v4.826z"/><path fill="#A6C06C" d="M611.913 130.259v.012l7.497 4.814v-4.826z"/><path fill="#73A633" d="M611.913 135.181v-.011l7.497-4.815v4.826z"/><path fill="#67982F" d="M626.745 135.158v-.012l7.497-4.813v4.825z"/><path fill="#A6C06C" d="M641.736 130.235v.012l-7.494 4.814v-4.826z"/><path fill="#67982F" d="M641.736 135.158v-.012l-7.494-4.813v4.825z"/></g><g><path fill="#8ABB4E" d="M647.906 175.192l-7.496-4.815v-23.102l7.496 4.816z"/><path fill="#73A633" d="M647.906 175.192l7.496-4.815v-23.102l-7.496 4.816z"/><path fill="#73A633" d="M648.043 152.197v-.011l-7.496-4.814v4.825z"/><path fill="#A6C06C" d="M633.052 147.275v.01l7.495 4.816v-4.826z"/><path fill="#73A633" d="M633.052 152.197v-.011l7.495-4.814v4.825z"/><path fill="#67982F" d="M647.882 152.174v-.012l7.497-4.815v4.827z"/><path fill="#A6C06C" d="M662.875 147.251v.012l-7.496 4.814v-4.826z"/><path fill="#67982F" d="M662.875 152.174v-.012l-7.496-4.815v4.827z"/></g><g><path fill="#8ABB4E" d="M675.448 186.552l-7.496-4.815v-15.463l7.496 4.815z"/><path fill="#73A633" d="M675.448 186.552l7.497-4.815v-15.463l-7.497 4.815z"/><path fill="#73A633" d="M675.586 171.195v-.01l-7.497-4.815v4.825z"/><path fill="#A6C06C" d="M660.593 166.274v.011l7.496 4.815v-4.826z"/><path fill="#73A633" d="M660.593 171.195v-.01l7.496-4.815v4.825z"/><path fill="#67982F" d="M675.425 171.172v-.011l7.496-4.815v4.826z"/><path fill="#A6C06C" d="M690.415 166.25v.011l-7.494 4.815v-4.826z"/><path fill="#67982F" d="M690.415 171.172v-.011l-7.494-4.815v4.826z"/></g><g><path fill="#ECC062" d="M648.738 702.047l-67.123-38.756V586.27l67.123 38.753z"/><path fill="#EABA49" d="M648.738 702.047l67.124-38.756-.002-77.021-67.122 38.753z"/><path fill="#F2AF05" d="M648.528 679.749l-47.681-27.531v-34.765l47.681 27.117z"/><path fill="#DF9300" d="M648.528 679.749l47.687-27.531V617.14l-47.687 27.43z"/><path fill="#EBA738" d="M648.38 589.778v54.719l.148.087 47.387-27.358z"/><path fill="#F2B559" d="M648.457 589.778v54.719l-.152.087-47.387-27.358z"/><path fill="#F8CB6A" d="M648.738 624.902l-67.123-38.754 66.705-38.512 67.124 38.755z"/></g><g><path fill="#ECC062" d="M575.594 744.214l-67.126-38.756v-77.021l67.126 38.752z"/><path fill="#EABA49" d="M575.594 744.214l67.124-38.756-.002-77.021-67.122 38.752z"/><path fill="#F2AF05" d="M575.382 721.916l-47.683-27.529v-34.766l47.683 27.113z"/><path fill="#DF9300" d="M575.382 721.916l47.685-27.529v-35.081l-47.685 27.428z"/><path fill="#EBA738" d="M575.234 631.945v54.719l.148.084 47.387-27.356z"/><path fill="#F2B559" d="M575.311 631.945v54.719l-.154.084-47.385-27.356z"/><path fill="#F8CB6A" d="M575.594 667.069l-67.126-38.754 66.707-38.511 67.124 38.754z"/></g><g><path fill="#C9C9C4" d="M459.581 386.438l-17.269-11.094 12.888-51.42 4.381 9.289z"/><path fill="#BCBEB4" d="M459.584 386.438l17.27-11.094-13.019-51.42-4.251 9.289z"/><path fill="none" stroke="#D5D4D2" stroke-miterlimit="10" d="M448.278 379.177l11.434-68.1M471.147 379.177l-11.435-68.1"/><path fill="#F5F6F6" d="M446.906 310.028v.018l12.675 8.143v-8.161z"/><path fill="#E6E5E4" d="M472.264 310.028v.018l-12.68 8.143v-8.161z"/><path fill="#F5F6F6" d="M442.312 324.131v.025l17.269 11.093v-11.118z"/><path fill="#E6E5E4" d="M476.854 324.131v.025l-17.27 11.093v-11.118z"/><path fill="#F5F6F6" d="M442.312 338.39v.026l17.269 11.092V338.39z"/><path fill="#E6E5E4" d="M476.854 338.39v.026l-17.27 11.092V338.39z"/><path fill="#F5F6F6" d="M442.312 353.133v.025l17.269 11.094v-11.119z"/><path fill="#E6E5E4" d="M476.854 353.133v.025l-17.27 11.094v-11.119z"/><g><path fill="#C9C9C4" d="M423.904 406.023l-14.568-9.359 10.871-43.378 3.697 7.837z"/><path fill="#BCBEB4" d="M423.906 406.023l14.569-9.359-10.984-43.378-3.585 7.837z"/><path fill="none" stroke="#D5D4D2" stroke-miterlimit="10" d="M414.368 399.896l9.648-57.447M433.661 399.896l-9.645-57.447"/><path fill="#F5F6F6" d="M413.211 341.563v.014l10.693 6.87v-6.884z"/><path fill="#E6E5E4" d="M434.604 341.563v.014l-10.698 6.87v-6.884z"/><path fill="#F5F6F6" d="M409.336 353.46v.021l14.568 9.358v-9.379z"/><path fill="#E6E5E4" d="M438.475 353.46v.021l-14.569 9.358v-9.379z"/><path fill="#F5F6F6" d="M409.336 365.49v.021l14.568 9.358v-9.379z"/><path fill="#E6E5E4" d="M438.475 365.49v.021l-14.569 9.358v-9.379z"/><path fill="#F5F6F6" d="M409.336 377.928v.021l14.568 9.358v-9.379z"/><path fill="#E6E5E4" d="M438.475 377.928v.021l-14.569 9.358v-9.379z"/></g><g><path fill="#F1CF00" d="M423.785 307.456a16.209 16.209 0 0 1-3.987-11.805c.287-4.167 2.14-8.196 5.532-11.163a16.204 16.204 0 0 1 11.803-3.982c4.169.284 8.197 2.136 11.164 5.53l5.658-4.944a23.741 23.741 0 0 0-16.316-8.084 23.734 23.734 0 0 0-17.253 5.823 23.74 23.74 0 0 0-8.083 16.316 23.74 23.74 0 0 0 5.824 17.252l5.658-4.943z"/></g><g><path fill="#F1CF00" d="M432.85 306.303a8.651 8.651 0 0 1-2.124-6.301 8.64 8.64 0 0 1 2.952-5.96 8.647 8.647 0 0 1 6.302-2.126 8.65 8.65 0 0 1 5.958 2.953l3.021-2.639a12.667 12.667 0 0 0-8.71-4.315c-3.24-.22-6.575.803-9.211 3.107a12.676 12.676 0 0 0-4.316 8.71 12.673 12.673 0 0 0 3.108 9.211l3.02-2.64z"/></g><g><path fill="#F1CF00" d="M439.895 310.168a5.567 5.567 0 0 1-1.368-4.054 5.564 5.564 0 0 1 1.898-3.835 5.572 5.572 0 0 1 4.056-1.367 5.556 5.556 0 0 1 3.833 1.9l1.945-1.7a8.157 8.157 0 0 0-5.606-2.775 8.143 8.143 0 0 0-5.924 1.998 8.167 8.167 0 0 0-.775 11.531l1.941-1.698z"/></g></g><g><path fill="#C3C2BF" d="M663.287 508.99l-13.789-7.963.002-15.821 13.787 7.961z"/><path fill="#B8B7B3" d="M663.287 508.99l13.789-7.963v-15.821l-13.789 7.961z"/><path fill="#D5D4D2" d="M663.287 493.142l-13.789-7.96 13.704-7.912 13.787 7.962z"/><g><path fill="#C3C2BF" d="M663.287 493.461l-13.789-7.962.002-15.821 13.787 7.962z"/><path fill="#B8B7B3" d="M663.287 493.461l13.789-7.962v-15.821l-13.789 7.962z"/><path fill="#D5D4D2" d="M663.287 477.614l-13.789-7.962 13.704-7.911 13.787 7.961z"/></g><g><path fill="#F7D232" d="M670.062 482.62l-4.273 2.525v-4.928l4.273-2.523z"/><path fill="#FFF" d="M675.71 479.282l-4.272 2.523v-4.923l4.272-2.526zM670.062 488.822l-4.273 2.527v-4.924l4.273-2.526zM675.71 485.487l-4.272 2.524v-4.924l4.272-2.525zM670.062 495.179l-4.273 2.525v-4.925l4.273-2.526z"/><path fill="#F7D232" d="M675.71 491.841l-4.272 2.525v-4.925l4.272-2.524z"/></g></g><g><path fill="#C3C2BF" d="M641.718 518.465l-13.791-7.962v-15.821l13.791 7.962z"/><path fill="#B8B7B3" d="M641.718 518.465l13.788-7.962v-15.821l-13.788 7.962z"/><path fill="#D5D4D2" d="M641.718 502.618l-13.791-7.962 13.704-7.909 13.789 7.959z"/><path fill="#C3C2BF" d="M641.718 502.935l-13.791-7.959v-15.824l13.791 7.961z"/><path fill="#B8B7B3" d="M641.718 502.935l13.788-7.959v-15.824l-13.788 7.961z"/><path fill="#D5D4D2" d="M641.718 487.089l-13.791-7.962 13.704-7.91 13.789 7.96z"/><g><path fill="#C3C2BF" d="M641.718 487.089l-13.791-7.962v-15.821l13.791 7.962z"/><path fill="#B8B7B3" d="M641.718 487.089l13.788-7.962v-15.821l-13.788 7.962z"/><path fill="#D5D4D2" d="M641.718 471.243l-13.791-7.963 13.704-7.911 13.789 7.962z"/></g><g><path fill="#FFF" d="M648.493 478.336l-4.274 2.524v-4.924l4.274-2.524zM654.142 475l-4.275 2.522V472.6l4.275-2.526z"/><path fill="#F7D232" d="M648.493 485.32l-4.274 2.527v-4.927l4.274-2.523z"/><path fill="#FFF" d="M654.142 481.985l-4.275 2.524v-4.923l4.275-2.526z"/><path fill="#F7D232" d="M648.493 492.094l-4.274 2.526v-4.926l4.274-2.525z"/><path fill="#FFF" d="M654.142 488.756l-4.275 2.526v-4.923l4.275-2.526zM648.493 498.298l-4.274 2.524v-4.923l4.274-2.525zM654.142 494.962l-4.275 2.525v-4.925l4.275-2.523zM648.493 504.656l-4.274 2.523v-4.926l4.274-2.523z"/><path fill="#F7D232" d="M654.142 501.318l-4.275 2.525v-4.925l4.275-2.525z"/></g></g><g><path fill="#F1E1A7" d="M449.088 446.769h26.803v-30.657h-32.883z"/><path fill="#E46505" d="M457.424 423.527l-8.336 23.242-5.315-23.853 11.171-1.777z"/><path fill="#EAD493" d="M457.424 423.527l6.18 23.242h-14.516z"/><path fill="#F1E1A7" d="M477.176 425.956l4.148 10.278h-5.668l-.287-10.47h1.69"/><path fill="#E05B4F" d="M476.056 441.284l-5.28-1.038.282-1.435 5.28 1.038z"/><path fill="#7A7976" d="M469.334 425.01h3.395v6.43h-3.395z"/><path fill="#E46505" d="M478.736 422.916l7.428 4.19-33.662-4.19zM443.773 422.916l-.765 29.561 6.08 1.803 5.974-24.164z"/><path fill="#F1E1A7" d="M452.763 429.746h6.28l-1.511-6.219h-5.671z"/><path fill="#EAD493" d="M457.961 425.3h-4.189l.352 2.942h4.554z"/><path fill="#D04D14" d="M449.088 454.28l-13.156-7.042 12.252 11.82z"/><path fill="#37424A" d="M442.631 419.147h36.105l-3.399-18.486-30.995 2.692z"/><path fill="#6C8391" d="M442.631 419.147h36.105l-1.028-5.545-34.494-.523z"/><path fill="#37424A" d="M437.858 422.916h48.537l-7.659-4.702h-36.105z"/><path fill="#FFF" d="M469.027 446.769h-15.255l-3.175 5.609h22.132z"/><path fill="#FFF" d="M461.981 455.262l27.187-7.579-.461 7.977-23.225 5.578z"/><path fill="#F1E1A7" d="M489.092 449.049l6.291-1.725.109 5.852-6.717 1.331z"/><g fill="#37424A"><path d="M474.2 452.378h-25.013l-6.475 43.113h36.29z"/><path d="M463.604 479.193l27.982 2.307v19.293h-13.239l.044-10.8h-14.787zM478.347 500.793h17.823v4.721h-17.823z"/><path d="M471.031 495.733v8.309l-13.607-.071-.986-8.238 14.593-1.02"/><path d="M453.094 487.849h4.717v17.824h-4.717z"/></g><path fill="#D12530" d="M460.855 495.491h-18.143l6.475-43.113h11.668z"/><g><path fill="#FFF" d="M460.375 455.471l27.291 7.205-4.432 6.647-22.859-6.926z"/><path fill="#F1E1A7" d="M486.906 463.812l6.305 1.69-2.864 5.108-6.469-2.249z"/><path fill="#E6C76B" d="M490.347 470.61l3.863-1.287 1.96-3.574-2.959-.247-2.864 4.575"/></g><path fill="#B05C15" d="M493.211 436.234h7.123v20.248h-7.123z"/><path fill="#BF7223" d="M493.211 436.234h3.564v20.248h-3.564z"/><path fill="#EAD493" d="M493.211 456.482h3.564v3.057z"/><path fill="#D9BC6F" d="M496.77 459.539l3.563-3.057h-3.563"/><path fill="#676663" d="M494.991 458.011h1.784v1.528z"/><path fill="#1E1B1A" d="M496.775 459.539l1.78-1.528h-1.78"/><path fill="#B0AFAB" d="M493.211 437.925h3.564v1.344h-3.564z"/><path fill="#888783" d="M496.77 437.925h3.564v1.344h-3.564z"/><path fill="#ECD700" d="M493.211 436.234h3.564v1.69h-3.564z"/><path fill="#EBAD00" d="M496.77 436.234h3.564v1.69h-3.564z"/><g><path fill="#C0A66B" d="M514.809 473.45l-27.387-.85 8.328-10.203 27.387.852z"/><path fill="#FFF" d="M513.029 472.419l-22.272-.692 6.769-8.299 22.277.692z"/><path fill="#595856" d="M518.506 468.783l-4.263-.133 1.296-1.587 4.264.132z"/></g></g><path fill="#B6B5B1" d="M413.312 571.229c41.938-9.555 55.514-42.885 56.22-44.655l-17.863-9.877c2.224-5.591-25.492 37.862-56.995 39.414-2.243.11-4.417.291-6.531.531l25.169 14.587z"/><g><g fill="none" stroke="#F9E540" stroke-width="2" stroke-miterlimit="10"><path d="M404.976 565.628s1.435-.312 3.86-1.038"/><path stroke-dasharray="7.1514,7.1514" d="M415.602 562.283c11.833-4.513 30.695-14.189 41.369-32.536"/><path d="M458.676 526.598a57.675 57.675 0 0 0 1.672-3.634"/></g></g><path fill="#B6B5B1" d="M343.965 471.439c41.941 9.551 55.514 42.883 56.221 44.652l-17.863 9.876c2.223 5.593-25.494-37.861-56.996-39.412a106.006 106.006 0 0 1-6.53-.532l25.168-14.584z"/><g><g fill="none" stroke="#F9E540" stroke-width="2" stroke-miterlimit="10"><path d="M335.798 477.037s1.434.313 3.859 1.042"/><path stroke-dasharray="7.1358,7.1358" d="M346.405 480.391c11.791 4.517 30.572 14.193 41.227 32.533"/><path d="M389.333 516.067a58.247 58.247 0 0 1 1.672 3.634"/></g></g><path fill="#B6B5B1" d="M405.596 518.851s.842 16.026 27.505 17.01l3.803 6.224-20.285 10.798s-22.491-2.923-29.702-21.956l18.679-12.076z"/><path fill="none" stroke="#F9E540" stroke-width="2" stroke-miterlimit="10" stroke-dasharray="8" d="M396.071 525.008s2.752 15.323 22.486 18.705"/><path fill="#B6B5B1" d="M312.635 483.927c-42.282-7.905-57.147-40.682-57.923-42.42l17.462-10.57c-2.44-5.497 26.955 36.839 58.493 37.16 2.245.021 6.397.531 8.52.687l-26.552 15.143z"/><g><g fill="none" stroke="#F9E540" stroke-width="2" stroke-miterlimit="10"><path d="M320.578 478.014s-1.445-.257-3.896-.891"/><path stroke-dasharray="7.1357,7.1357" d="M309.848 475.077c-11.958-4.052-31.103-12.987-42.468-30.896"/><path d="M265.558 441.107a57.757 57.757 0 0 1-1.813-3.565"/></g></g><g><path fill="#C3C2BF" d="M589.922 633.402l-10.171-5.872v-11.671l10.171 5.872z"/><path fill="#B8B7B3" d="M589.922 633.402l10.171-5.872v-11.671l-10.171 5.872z"/><path fill="#D5D4D2" d="M589.922 621.713l-10.171-5.872 10.107-5.836 10.173 5.874z"/><path fill="#C3C2BF" d="M579.312 639.52l-10.167-5.874v-11.671l10.167 5.873z"/><path fill="#B8B7B3" d="M579.312 639.52l10.172-5.874v-11.671l-10.172 5.873z"/><path fill="#D5D4D2" d="M579.312 627.829l-10.167-5.872 10.107-5.836 10.17 5.873z"/><g><path fill="#C3C2BF" d="M579.312 628.064l-10.167-5.872v-11.671l10.167 5.872z"/><path fill="#B8B7B3" d="M579.312 628.064l10.172-5.872v-11.671l-10.172 5.872z"/><path fill="#D5D4D2" d="M579.312 616.375l-10.167-5.873 10.107-5.835 10.17 5.872z"/></g><g><path fill="#C3C2BF" d="M579.312 616.375l-10.167-5.873v-11.671l10.167 5.872z"/><path fill="#B8B7B3" d="M579.312 616.375l10.172-5.873v-11.671l-10.172 5.872z"/><path fill="#D5D4D2" d="M579.312 604.685l-10.167-5.873 10.107-5.835 10.17 5.873z"/></g><g><path fill="#C3C2BF" d="M567.147 646.512l-10.172-5.874.002-11.672 10.17 5.874z"/><path fill="#B8B7B3" d="M567.147 646.512l10.171-5.874v-11.672l-10.171 5.874z"/><path fill="#D5D4D2" d="M567.147 634.822l-10.172-5.874 10.111-5.834 10.169 5.872z"/><path fill="#C3C2BF" d="M567.147 635.058l-10.172-5.875.002-11.672 10.17 5.875z"/><path fill="#B8B7B3" d="M567.147 635.058l10.171-5.875v-11.672l-10.171 5.875z"/><path fill="#D5D4D2" d="M567.147 623.364l-10.172-5.872 10.111-5.833 10.169 5.869z"/><g><path fill="#C3C2BF" d="M567.147 623.364l-10.172-5.872.002-11.672 10.17 5.876z"/><path fill="#B8B7B3" d="M567.147 623.364l10.171-5.872V605.82l-10.171 5.876z"/><path fill="#D5D4D2" d="M567.147 611.677l-10.172-5.872 10.111-5.838 10.169 5.874z"/></g><g><path fill="#FFF" d="M572.146 616.908l-3.153 1.862v-3.632l3.153-1.862zM576.313 614.449l-3.154 1.862v-3.634l3.154-1.863z"/><path fill="#F7D232" d="M572.146 622.062l-3.153 1.862v-3.632l3.153-1.862z"/><path fill="#FFF" d="M576.313 619.601l-3.154 1.861v-3.632l3.154-1.861z"/><path fill="#F7D232" d="M572.146 627.059l-3.153 1.861v-3.632l3.153-1.862z"/><path fill="#FFF" d="M576.313 624.597l-3.154 1.864v-3.635l3.154-1.861zM572.146 631.634l-3.153 1.862v-3.632l3.153-1.861zM576.313 629.176l-3.154 1.861v-3.634l3.154-1.861zM572.146 636.323l-3.153 1.862v-3.632l3.153-1.862z"/><path fill="#F7D232" d="M576.313 633.861l-3.154 1.863v-3.633l3.154-1.862z"/></g></g><g><path fill="#FFF" d="M583.893 610.06l-3.153 1.861v-3.631l3.153-1.862z"/><path fill="#F7D232" d="M588.062 607.598l-3.154 1.862v-3.63l3.154-1.863zM583.893 615.213l-3.153 1.862v-3.633l3.153-1.86z"/><path fill="#FFF" d="M588.062 612.752l-3.154 1.861v-3.632l3.154-1.862zM583.893 620.209l-3.153 1.862v-3.633l3.153-1.86z"/><path fill="#F7D232" d="M588.062 617.748l-3.154 1.861v-3.631l3.154-1.862z"/><path fill="#FFF" d="M583.893 624.786l-3.153 1.861v-3.631l3.153-1.862zM588.062 622.325l-3.154 1.862v-3.632l3.154-1.863z"/><path fill="#F7D232" d="M583.893 629.475l-3.153 1.861v-3.632l3.153-1.862zM588.062 627.013l-3.154 1.861v-3.632l3.154-1.861z"/></g></g><g><path fill="#8ABB4E" d="M559.09 210.726l-6.817-4.378v-26.596l6.817 4.378z"/><path fill="#73A633" d="M559.09 210.726l6.814-4.378v-26.596l-6.814 4.378z"/><path fill="#73A633" d="M559.215 184.227v-.01l-6.817-4.377v4.387z"/><path fill="#A6C06C" d="M545.584 179.752v.01l6.814 4.378v-4.388z"/><path fill="#73A633" d="M545.584 184.227v-.01l6.814-4.377v4.387z"/><path fill="#67982F" d="M559.068 184.205v-.009l6.815-4.377v4.386z"/><path fill="#A6C06C" d="M572.699 179.73v.011l-6.816 4.377v-4.388z"/><path fill="#67982F" d="M572.699 184.205v-.009l-6.816-4.377v4.386z"/></g><g><path fill="#8ABB4E" d="M578.306 220.602l-6.815-4.378v-21.002l6.815 4.379z"/><path fill="#73A633" d="M578.308 220.602l6.814-4.378v-21.002l-6.814 4.379z"/><path fill="#73A633" d="M578.431 199.697v-.01l-6.817-4.377v4.387z"/><path fill="#A6C06C" d="M564.802 195.222v.009l6.812 4.378v-4.387z"/><path fill="#73A633" d="M564.802 199.697v-.01l6.812-4.377v4.387z"/><path fill="#67982F" d="M578.284 199.675v-.009l6.817-4.378v4.387z"/><path fill="#A6C06C" d="M591.914 195.201v.009l-6.813 4.377v-4.386z"/><path fill="#67982F" d="M591.914 199.675v-.009l-6.813-4.378v4.387z"/></g><g><path fill="#8ABB4E" d="M603.347 230.929l-6.815-4.377v-14.057l6.815 4.377z"/><path fill="#73A633" d="M603.347 230.929l6.813-4.377v-14.057l-6.813 4.377z"/><path fill="#73A633" d="M603.47 216.968v-.009l-6.815-4.377v4.386z"/><path fill="#A6C06C" d="M589.841 212.495v.009l6.814 4.377v-4.386z"/><path fill="#73A633" d="M589.841 216.969v-.01l6.814-4.377v4.386z"/><path fill="#67982F" d="M603.324 216.947v-.009l6.815-4.377v4.386z"/><path fill="#A6C06C" d="M616.955 212.474v.008l-6.816 4.378v-4.386z"/><path fill="#67982F" d="M616.955 216.947v-.009l-6.816-4.377v4.386z"/></g><g><path fill="#8ABB4E" d="M702.585 208.765l-6.814-4.378v-26.595l6.814 4.377z"/><path fill="#73A633" d="M702.585 208.765l6.816-4.378v-26.595l-6.816 4.377z"/><path fill="#73A633" d="M702.71 182.266v-.01l-6.814-4.377v4.387z"/><path fill="#A6C06C" d="M689.081 177.792v.009l6.815 4.378v-4.387z"/><path fill="#73A633" d="M689.081 182.266v-.01l6.815-4.377v4.387z"/><path fill="#67982F" d="M702.565 182.245v-.01l6.814-4.377v4.387z"/><path fill="#A6C06C" d="M716.193 177.77v.011l-6.814 4.376v-4.387z"/><path fill="#67982F" d="M716.193 182.245v-.01l-6.814-4.377v4.387z"/><g><path fill="#8ABB4E" d="M721.803 218.642l-6.815-4.378v-21.002l6.815 4.378z"/><path fill="#73A633" d="M721.803 218.642l6.814-4.378v-21.002l-6.814 4.378z"/><path fill="#73A633" d="M721.928 197.736v-.01l-6.817-4.377v4.387z"/><path fill="#A6C06C" d="M708.297 193.262v.009l6.814 4.378v-4.387z"/><path fill="#73A633" d="M708.297 197.736v-.01l6.814-4.377v4.387z"/><path fill="#67982F" d="M721.78 197.714v-.009l6.815-4.378v4.387z"/><path fill="#A6C06C" d="M735.411 193.24v.01l-6.816 4.377v-4.387z"/><path fill="#67982F" d="M735.411 197.714v-.009l-6.816-4.378v4.387z"/></g><g><path fill="#8ABB4E" d="M746.841 228.969l-6.813-4.378v-14.057l6.813 4.377z"/><path fill="#73A633" d="M746.843 228.969l6.814-4.378v-14.057l-6.814 4.377z"/><path fill="#73A633" d="M746.966 215.008v-.01l-6.815-4.377v4.387z"/><path fill="#A6C06C" d="M733.338 210.534v.009l6.813 4.378v-4.387z"/><path fill="#73A633" d="M733.338 215.008v-.01l6.813-4.377v4.387z"/><path fill="#67982F" d="M746.821 214.987v-.01l6.815-4.377v4.387z"/><path fill="#A6C06C" d="M760.45 210.513v.008l-6.814 4.378v-4.386z"/><path fill="#67982F" d="M760.45 214.987v-.01l-6.814-4.377v4.387z"/></g></g><g><path fill="#51BBC0" d="M925.662 274.634c-1.412-3.629-4.935-6.204-9.062-6.204s-7.655 2.575-9.064 6.205c-4.471.876-7.846 4.812-7.846 9.54 0 5.369 4.354 9.722 9.723 9.722a9.698 9.698 0 0 0 7.188-3.174 9.695 9.695 0 0 0 7.186 3.174c5.368 0 9.723-4.353 9.723-9.722-.002-4.728-3.377-8.666-7.848-9.541z"/><path fill="#83CCCF" d="M916.6 268.431a9.724 9.724 0 0 0-9.064 6.205c-4.471.876-7.846 4.812-7.846 9.54 0 5.369 4.354 9.722 9.723 9.722a9.698 9.698 0 0 0 7.188-3.174v-22.293z"/><path fill="#83CCCF" d="M916.821 281.925l-11.203 11.203a9.689 9.689 0 0 0 3.794.769 9.698 9.698 0 0 0 7.188-3.174 9.695 9.695 0 0 0 7.186 3.174 9.693 9.693 0 0 0 4.102-.906l-11.067-11.066z"/><path fill="#71C5C5" d="M905.618 293.128a9.689 9.689 0 0 0 3.794.769 9.698 9.698 0 0 0 7.188-3.174v-8.578l-10.982 10.983z"/></g><g><path fill="#E9B700" d="M359.406 478.625h33.8v20.771h-33.8z"/><path fill="#F7D232" d="M393.206 478.625h-33.8v20.771h.302z"/><path fill="#F7D232" d="M353.514 489.285h6.193v10.11h-6.193z"/><circle fill="#82817E" cx="367.67" cy="497.504" r="5.155"/><circle fill="#FFF" cx="367.668" cy="497.504" r="3.129"/><path fill="#82817E" d="M388.078 497.504a5.156 5.156 0 0 1-10.31 0 5.155 5.155 0 0 1 10.31 0z"/><path fill="#FFF" d="M386.052 497.504a3.126 3.126 0 0 1-3.129 3.129 3.126 3.126 0 0 1-3.127-3.129 3.127 3.127 0 0 1 3.127-3.128c1.732 0 3.129 1.4 3.129 3.128zM353.537 490.816h2.395v3.56h-2.395z"/></g><g><path fill="#E9B700" d="M585.984 431.147h33.798v20.767h-33.798z"/><path fill="#F7D232" d="M619.782 431.147h-33.798v20.767h.304z"/><path fill="#F7D232" d="M580.094 441.806h6.194v10.108h-6.194z"/><circle fill="#82817E" cx="594.249" cy="450.025" r="5.155"/><circle fill="#FFF" cx="594.248" cy="450.025" r="3.129"/><circle fill="#82817E" cx="609.502" cy="450.025" r="5.155"/><path fill="#FFF" d="M612.631 450.025a3.126 3.126 0 0 1-3.129 3.128 3.127 3.127 0 0 1-3.128-3.128 3.128 3.128 0 1 1 6.257 0zM580.116 443.339h2.395v3.557h-2.395z"/></g></svg>