<?xml version="1.0" encoding="utf-8"?>
<!-- Generator: Adobe Illustrator 16.0.2, SVG Export Plug-In . SVG Version: 6.00 Build 0)  -->
<!DOCTYPE svg PUBLIC "-//W3C//DTD SVG 1.1//EN" "http://www.w3.org/Graphics/SVG/1.1/DTD/svg11.dtd">
<svg version="1.1" id="圖層_1" xmlns="http://www.w3.org/2000/svg" xmlns:xlink="http://www.w3.org/1999/xlink" x="0px" y="0px"
	 width="523.046px" height="95.891px" viewBox="0 0 523.046 95.891" enable-background="new 0 0 523.046 95.891"
	 xml:space="preserve">
<g>
	<path fill="#14116E" d="M264.508,14.978L271.021,0c0,0,47.536,47.049-6.838,95.889C265.75,93.524,303.533,43.715,264.508,14.978z"
		/>
	<path fill="#56A021" d="M274.928,14.978L281.44,0c0,0,47.535,47.049-6.838,95.891C276.168,93.528,313.952,43.715,274.928,14.978z"
		/>
	<path fill="#7BC3C1" d="M285.998,14.978L292.51,0c0,0,47.536,47.049-6.838,95.889C287.24,93.524,325.022,43.715,285.998,14.978z"/>
	<g>
		<path fill="#05001D" d="M16.254,48.725c2.341,0.229,4.249,0.871,5.725,1.925c1.961,1.392,2.943,3.188,2.943,5.39
			c0,2.784-1.319,4.823-3.956,6.12c-1.205,0.607-2.625,1.008-4.261,1.195c-0.933,0.109-2.327,0.162-4.18,0.162H0v-1.662l0.567-0.02
			c1.054-0.055,1.682-0.129,1.885-0.223c0.487-0.217,0.784-0.635,0.892-1.256c0.081-0.352,0.122-1.129,0.122-2.332V41.338
			c-0.014-1.783-0.176-2.857-0.486-3.223c-0.203-0.23-0.473-0.379-0.811-0.446c-0.175-0.04-0.709-0.087-1.601-0.142L0,37.507v-1.661
			h12.606c2.444,0,4.226,0.148,5.347,0.445c2.079,0.555,3.591,1.475,4.537,2.759c0.647,0.88,0.972,1.927,0.972,3.144
			c0,2.123-0.891,3.779-2.673,4.969C19.629,47.947,18.117,48.467,16.254,48.725z M9.465,47.951h1.155
			c2.301,0,3.943-0.303,4.926-0.911c1.278-0.796,1.917-2.309,1.917-4.537c0-1.782-0.431-3.064-1.292-3.849
			c-0.835-0.756-2.061-1.134-3.676-1.134c-1.36,0-2.249,0.292-2.666,0.872c-0.243,0.365-0.364,1.115-0.364,2.251V47.951z
			 M9.465,49.789v8.653c0,1.371,0.148,2.242,0.446,2.613c0.365,0.453,1.155,0.678,2.371,0.678c2.365,0,4.047-0.51,5.047-1.531
			c0.918-0.938,1.378-2.369,1.378-4.29c0-2.551-0.784-4.29-2.351-5.217c-1.013-0.604-2.891-0.906-5.634-0.906H9.465z"/>
		<path fill="#05001D" d="M37.353,50.34v7.684c0.014,1.783,0.176,2.857,0.486,3.223c0.203,0.23,0.473,0.379,0.811,0.445
			c0.081,0.027,0.615,0.076,1.601,0.143l0.426,0.02v1.662H27.888v-1.662l0.567-0.02c1.054-0.055,1.682-0.129,1.885-0.223
			c0.487-0.217,0.784-0.635,0.892-1.256c0.081-0.352,0.122-1.129,0.122-2.332V41.338c-0.014-1.783-0.176-2.857-0.486-3.223
			c-0.203-0.23-0.473-0.379-0.811-0.446c-0.175-0.04-0.709-0.087-1.601-0.142l-0.567-0.021v-1.661h12.094
			c4.356,0,7.417,0.703,9.184,2.111c1.564,1.232,2.347,2.871,2.347,4.915c0,1.948-0.682,3.526-2.044,4.731
			c-1.362,1.205-2.994,1.807-4.895,1.807c-0.122,0-0.325-0.006-0.607-0.021c0.606,0.257,1.146,0.661,1.618,1.214
			c0.525,0.648,1.227,1.876,2.104,3.684l1.396,2.955c1.159,2.375,2.09,3.758,2.791,4.149c0.418,0.27,1.125,0.473,2.124,0.607v1.518
			h-8.211l-4.429-9.2c-0.783-1.612-1.363-2.661-1.74-3.146c-0.392-0.523-0.971-0.787-1.74-0.787
			C37.744,50.355,37.568,50.34,37.353,50.34z M37.353,48.6h1.638c1.388,0,2.358-0.067,2.911-0.203
			c2.263-0.542,3.396-2.332,3.396-5.37c0-1.708-0.337-3.017-1.011-3.926c-0.755-1.017-2.035-1.526-3.841-1.526
			c-1.187,0-2.002,0.219-2.446,0.653c-0.284,0.272-0.458,0.632-0.525,1.081c-0.081,0.559-0.122,1.252-0.122,2.082V48.6z"/>
		<path fill="#05001D" d="M64.551,41.338v16.686c0.013,1.783,0.175,2.857,0.486,3.223c0.203,0.23,0.473,0.379,0.811,0.445
			c0.189,0.041,0.723,0.088,1.601,0.143l0.567,0.02v1.662h-12.93v-1.662l0.567-0.02c1.054-0.055,1.682-0.129,1.885-0.223
			c0.486-0.217,0.784-0.635,0.892-1.256c0.081-0.352,0.122-1.129,0.122-2.332V41.338c-0.013-1.783-0.175-2.857-0.486-3.223
			c-0.203-0.23-0.473-0.379-0.811-0.446c-0.176-0.04-0.709-0.087-1.601-0.142l-0.567-0.021v-1.661h12.93v1.661l-0.567,0.021
			c-1.054,0.055-1.682,0.129-1.885,0.223c-0.486,0.217-0.784,0.635-0.892,1.257C64.592,39.371,64.551,40.148,64.551,41.338z"/>
		<path fill="#05001D" d="M74.178,58.024V41.338c-0.014-1.783-0.176-2.857-0.487-3.223c-0.203-0.23-0.473-0.379-0.811-0.446
			c-0.176-0.04-0.709-0.087-1.601-0.142l-0.567-0.021v-1.661h10.904c2.001,0,3.449,0.037,4.342,0.111
			c0.893,0.074,1.751,0.232,2.577,0.477c2.895,0.824,5.188,2.541,6.88,5.148c1.515,2.339,2.272,5.055,2.272,8.149
			c0,2.581-0.548,4.92-1.644,7.015c-1.461,2.77-3.564,4.709-6.311,5.819c-1.136,0.459-2.477,0.742-4.019,0.852
			c-0.975,0.066-2.117,0.1-3.429,0.1H70.712v-1.662l0.567-0.02c1.054-0.055,1.682-0.129,1.885-0.223
			c0.486-0.217,0.784-0.635,0.892-1.256C74.138,60.004,74.178,59.227,74.178,58.024z M80.177,41.258v17.233
			c0,1.389,0.067,2.219,0.203,2.488c0.27,0.539,1.201,0.809,2.793,0.809c1.996,0,3.501-0.338,4.514-1.014
			c1.336-0.904,2.273-2.328,2.814-4.273c0.431-1.594,0.647-3.809,0.647-6.645c0-2.822-0.226-5.11-0.678-6.866
			c-0.453-1.756-1.151-3.045-2.095-3.869c-1.093-0.959-2.807-1.438-5.141-1.438c-1.323,0-2.187,0.242-2.591,0.728
			c-0.23,0.27-0.364,0.613-0.405,1.029C80.197,39.871,80.177,40.479,80.177,41.258z"/>
		<path fill="#05001D" d="M115.672,51.194h12.269v1.655c-1.357,0.014-2.247,0.304-2.667,0.869c-0.204,0.27-0.333,0.666-0.387,1.191
			c-0.054,0.498-0.081,1.387-0.081,2.667v5.129h-1.111c-0.054,0-0.223,0-0.506,0c-0.176,0-0.317,0-0.426,0
			c-0.703,0-1.667,0.178-2.895,0.533c-2.255,0.652-4.178,0.98-5.771,0.98c-4.118,0-7.384-1.393-9.799-4.18
			c-2.254-2.583-3.381-5.87-3.381-9.862c0-4.355,1.403-8.027,4.211-11.018c2.524-2.678,5.569-4.018,9.133-4.018
			c1.525,0,3.037,0.297,4.536,0.891c0.58,0.234,0.964,0.353,1.153,0.353c0.311,0,0.77-0.165,1.377-0.494l0.506-0.267
			c0.094-0.041,0.189-0.09,0.284-0.145l0.91,0.081l1.839,7.999l-1.617,0.67c-2.585-4.905-5.459-7.358-8.623-7.358
			c-0.97,0-1.882,0.228-2.737,0.68c-0.855,0.452-1.552,1.071-2.09,1.855c-0.808,1.204-1.401,2.694-1.777,4.474
			c-0.377,1.777-0.565,3.958-0.565,6.541c0,3.462,0.337,6.078,1.011,7.85c1.078,2.813,2.997,4.219,5.759,4.219
			c1.967,0,3.361-0.621,4.183-1.863c0.661-1.014,0.991-2.559,0.991-4.638c0-1.431-0.372-2.329-1.115-2.693
			c-0.473-0.243-1.344-0.392-2.614-0.446V51.194z"/>
		<path fill="#05001D" d="M148.451,43.952v11.241h-1.689c-0.107-1.315-0.509-2.422-1.207-3.316
			c-0.791-1.004-2.373-1.521-4.745-1.547h-0.845v7.799c0,1.424,0.101,2.33,0.302,2.719c0.309,0.59,1.117,0.885,2.42,0.885
			c1.385,0,2.618-0.178,3.701-0.533c1.083-0.357,2.168-0.939,3.258-1.748c1.505-1.129,2.877-2.549,4.114-4.258l1.5,0.851
			l-2.209,7.472H130.5v-1.662l0.568-0.02c1.054-0.055,1.682-0.129,1.885-0.223c0.486-0.217,0.784-0.635,0.892-1.256
			c0.081-0.352,0.122-1.129,0.122-2.332V41.338c-0.014-1.783-0.176-2.857-0.486-3.223c-0.203-0.23-0.473-0.379-0.811-0.446
			c-0.176-0.04-0.709-0.087-1.601-0.142l-0.568-0.021v-1.661h21.882l2.169,7.498l-1.479,0.891c-0.888-1.324-1.862-2.474-2.924-3.448
			c-1.237-1.122-2.4-1.894-3.488-2.312c-1.117-0.42-2.4-0.63-3.851-0.63c-1.398,0-2.245,0.298-2.541,0.894
			c-0.202,0.379-0.302,1.354-0.302,2.924v6.722h0.764c2.386-0.014,3.967-0.492,4.745-1.437c0.549-0.661,0.978-1.659,1.287-2.995
			H148.451z"/>
		<path fill="#05001D" d="M170.063,55.569l4.036-12.327l-1.136-3.485c-0.27-0.824-0.473-1.331-0.608-1.521
			c-0.325-0.418-0.764-0.648-1.318-0.689c-0.189-0.013-0.515-0.026-0.974-0.04v-1.661h11.133v1.661
			c-0.229,0.027-0.377,0.04-0.443,0.04c-0.954,0.109-1.532,0.264-1.733,0.467c-0.135,0.148-0.202,0.365-0.202,0.648
			c0,0.257,0.1,0.737,0.303,1.439l4.446,15.468l4.01-13.421c0.394-1.297,0.59-2.188,0.59-2.675c0-1.257-0.865-1.913-2.594-1.967
			v-1.661h8.269v1.661c-1,0.216-1.804,0.614-2.412,1.196c-0.703,0.689-1.372,1.998-2.006,3.93l-6.851,21.317h-2.23l-5.353-18.113
			l-5.75,18.113h-2.325l-6.959-23.059c-0.392-1.27-0.641-2.025-0.748-2.27c-0.271-0.566-0.743-0.904-1.417-1.013
			c-0.243-0.026-0.622-0.062-1.133-0.102v-1.661h11.188v1.661c-0.28,0.014-0.461,0.021-0.541,0.021
			c-0.721,0.041-1.189,0.148-1.402,0.324c-0.254,0.203-0.381,0.453-0.381,0.75c0,0.379,0.162,1.143,0.486,2.291L170.063,55.569z"/>
		<path fill="#05001D" d="M213.184,43.952v11.241h-1.689c-0.107-1.315-0.509-2.422-1.207-3.316
			c-0.791-1.004-2.372-1.521-4.745-1.547h-0.845v7.799c0,1.424,0.101,2.33,0.303,2.719c0.309,0.59,1.116,0.885,2.42,0.885
			c1.385,0,2.618-0.178,3.701-0.533c1.083-0.357,2.168-0.939,3.258-1.748c1.506-1.129,2.877-2.549,4.114-4.258l1.5,0.851
			l-2.209,7.472h-22.55v-1.662l0.567-0.02c1.054-0.055,1.682-0.129,1.885-0.223c0.486-0.217,0.784-0.635,0.892-1.256
			c0.081-0.352,0.122-1.129,0.122-2.332V41.338c-0.013-1.783-0.175-2.857-0.486-3.223c-0.203-0.23-0.473-0.379-0.811-0.446
			c-0.176-0.04-0.709-0.087-1.601-0.142l-0.567-0.021v-1.661h21.882l2.168,7.498l-1.479,0.891c-0.888-1.324-1.862-2.474-2.924-3.448
			c-1.237-1.122-2.4-1.894-3.488-2.312c-1.116-0.42-2.4-0.63-3.851-0.63c-1.398,0-2.246,0.298-2.541,0.894
			c-0.202,0.379-0.303,1.354-0.303,2.924v6.722h0.765c2.385-0.014,3.967-0.492,4.745-1.437c0.549-0.661,0.978-1.659,1.287-2.995
			H213.184z"/>
		<path fill="#05001D" d="M247.037,56.076l-2.25,7.44h-21.99v-1.662l0.568-0.02c1.054-0.055,1.682-0.129,1.885-0.223
			c0.486-0.217,0.784-0.635,0.892-1.256c0.081-0.352,0.122-1.129,0.122-2.332V41.338c-0.013-1.783-0.176-2.857-0.486-3.223
			c-0.203-0.23-0.473-0.379-0.811-0.446c-0.176-0.04-0.709-0.087-1.601-0.142l-0.568-0.021v-1.661h13.336v1.661l-0.973,0.021
			c-1.027,0.041-1.655,0.115-1.885,0.223c-0.487,0.217-0.784,0.635-0.892,1.257c-0.081,0.351-0.122,1.128-0.122,2.331v16.989
			c0,1.145,0.027,1.832,0.081,2.061c0.257,0.969,1.162,1.455,2.716,1.455c2.297,0,4.432-0.756,6.405-2.266
			c1.486-1.16,2.912-2.583,4.276-4.27L247.037,56.076z"/>
		<path fill="#05001D" d="M272.331,56.076l-2.25,7.44h-21.99v-1.662l0.568-0.02c1.054-0.055,1.682-0.129,1.885-0.223
			c0.486-0.217,0.784-0.635,0.892-1.256c0.081-0.352,0.122-1.129,0.122-2.332V41.338c-0.013-1.783-0.176-2.857-0.486-3.223
			c-0.203-0.23-0.473-0.379-0.811-0.446c-0.176-0.04-0.709-0.087-1.601-0.142l-0.568-0.021v-1.661h13.336v1.661l-0.973,0.021
			c-1.027,0.041-1.655,0.115-1.885,0.223c-0.486,0.217-0.784,0.635-0.892,1.257c-0.081,0.351-0.122,1.128-0.122,2.331v16.989
			c0,1.145,0.027,1.832,0.081,2.061c0.257,0.969,1.162,1.455,2.716,1.455c2.297,0,4.432-0.756,6.405-2.266
			c1.486-1.16,2.912-2.583,4.276-4.27L272.331,56.076z"/>
	</g>
	<g>
		<path fill="#080135" d="M327.43,54.677v-2.739h14.551v-4.466h-10.249v-2.739h20.383v2.739h-7.276v4.466h11.704v2.739h-11.704
			v6.833c0,0.739-0.23,1.467-0.691,2.183c-0.481,0.738-1.046,1.234-1.696,1.487c-1.157,0.463-2.242,0.685-3.254,0.664
			c-1.835-0.085-4.061-0.485-6.675-1.202l-0.158-3.227c4.724,1.435,7.687,1.729,8.889,0.886c0.484-0.38,0.728-0.833,0.728-1.36
			v-6.263H327.43z M340.492,35.842h2.858v2.341h11.261l2.499,1.26c-0.211,1.725-0.739,3.789-1.582,6.192l-2.594-0.886
			c0.59-1.918,0.896-3.047,0.917-3.384c0.021-0.295-0.106-0.443-0.38-0.443h-22.969c-0.169,0.021-0.253,0.106-0.253,0.253v4.365
			h-2.739v-6.822c0.021-0.356,0.2-0.535,0.538-0.535h12.443V35.842z"/>
		<path fill="#080135" d="M388.976,39.177h-24.451c-0.253,0-0.379,0.127-0.379,0.38v22.311c0,0.275,0.126,0.412,0.379,0.412h24.926
			v2.62h-26.978c-0.632,0-0.947-0.327-0.947-0.981V37.507c0-0.633,0.315-0.95,0.947-0.95h26.726L388.976,39.177z M366.331,46.25
			c1.371,0.781,2.857,1.909,4.46,3.385l-1.677,2.056c-1.729-1.539-3.174-2.636-4.333-3.29L366.331,46.25z M371.551,53.841
			c-1.202,3.29-2.668,5.82-4.397,7.592l-2.309-1.455c2.045-1.981,3.49-4.302,4.333-6.959L371.551,53.841z M367.122,40.049
			c1.329,0.802,2.762,1.941,4.302,3.417l-1.708,2.024c-1.645-1.518-3.037-2.625-4.175-3.321L367.122,40.049z M388.669,43.404
			l-0.221,2.382h-5.726v2.739h5.504v2.263h-5.504v2.798h5.504v2.263h-5.504v2.739h5.946v2.382h-14.616
			c-0.612,0-0.917-0.316-0.917-0.95V47.519c-0.464,0.528-0.96,1.045-1.487,1.551c-0.591-0.822-1.15-1.434-1.677-1.835
			c2.108-2.025,3.701-4.494,4.777-7.404l2.373,1.139c-0.359,0.802-0.77,1.613-1.233,2.436h4.239c0.739-1.37,1.266-2.53,1.583-3.479
			l2.309,1.044c-0.274,0.739-0.612,1.55-1.012,2.436H388.669z M380.103,45.786h-3.998c-0.233,0.021-0.349,0.137-0.349,0.346v2.393
			h4.347V45.786z M380.103,50.788h-4.347v2.798h4.347V50.788z M380.103,55.849h-4.347v2.361c0.021,0.252,0.137,0.378,0.349,0.378
			h3.998V55.849z"/>
		<path fill="#080135" d="M395.429,65.436l-2.151-2.057c1.392-0.737,2.572-1.655,3.543-2.752c0.042-0.063,0.105-0.126,0.189-0.189
			c1.792-1.939,3.068-4.787,3.828-8.541h-6.991v-2.739h7.244c0-0.233,0-0.457,0-0.669v-7.012h-2.594
			c-0.886,2.574-1.866,4.598-2.942,6.074l-2.436-1.455c1.075-1.413,1.908-2.91,2.499-4.492c0.463-1.26,0.77-3.1,0.917-5.522
			l2.753,0.032c-0.063,0.907-0.138,1.782-0.222,2.625h9.951v2.739h-5.188v7.012c0,0.234,0,0.457,0,0.669h5.852v2.739h-6.104
			c-0.041,0.169-0.073,0.359-0.094,0.569c2.339,3.396,4.521,6.907,6.547,10.534l-2.468,1.486c-1.287-2.594-2.908-5.504-4.866-8.73
			C401.478,59.742,399.055,62.968,395.429,65.436z M413.595,65.44h-2.738V38.05c-0.021-0.296,0.126-0.444,0.442-0.444h10.447
			c0.401,0,0.602,0.19,0.602,0.57V65.44h-2.738v-1.455h-6.015V65.44z M419.609,61.246v-20.52c0-0.253-0.139-0.381-0.414-0.381
			h-5.219c-0.275,0-0.403,0.127-0.382,0.381v20.52H419.609z"/>
		<path fill="#080135" d="M436.065,41.462v2.5h-9.269v-2.5H436.065z M429.546,64.848h-2.62V54.671
			c0.021-0.549,0.295-0.824,0.821-0.824h7.019c0.568,0.021,0.854,0.296,0.854,0.824v8.529c0,0.592-0.296,0.888-0.886,0.888h-5.188
			V64.848z M434.927,37.175v2.5h-7.497v-2.5H434.927z M435.054,45.749v2.501h-7.497v-2.501H435.054z M435.054,49.798v2.501h-7.497
			v-2.501H435.054z M429.958,56.348c-0.275,0-0.412,0.138-0.412,0.413v4.827h2.914c0.359-0.021,0.539-0.2,0.539-0.539V56.76
			c-0.021-0.275-0.169-0.413-0.443-0.413H429.958z M439.489,64.353h-2.501V51.512c0-0.507,0.252-0.761,0.759-0.761h9.257
			c0.547,0,0.821,0.265,0.821,0.791v10.471c0,0.021-0.011,0.043-0.031,0.063c0.906-0.906,1.781-1.93,2.626-3.069
			c-0.866-3.1-1.424-6.387-1.677-9.863h-12.447v-2.501h6.827c0.8-1.981,1.368-3.732,1.705-5.251l2.304,0.822
			c-0.232,0.992-0.695,2.468-1.39,4.429h2.779c-0.147-1.85-0.232-3.795-0.253-5.835h-11.213v-2.5h3.922v-2.341h2.62v2.341h4.65
			c0-0.823,0-1.624,0-2.404l2.499,0.221c-0.085,3.603-0.021,7.109,0.189,10.519h5.251v2.501h-5.061
			c0.253,3.359,0.579,5.769,0.98,7.226c0.716-1.31,1.434-3.074,2.15-5.293l2.373,0.825c-1.097,3.105-2.353,5.684-3.765,7.732
			c0.169,0.592,0.348,1.173,0.538,1.743c0.21,0.719,0.411,1.077,0.601,1.077c0.105,0,0.169-0.095,0.19-0.284
			c0.104-0.466,0.158-1.754,0.158-3.866l2.403,0.664c-0.189,2.854-0.411,4.668-0.664,5.449c-0.189,0.548-0.442,0.927-0.759,1.139
			c-0.359,0.253-0.728,0.379-1.107,0.379c-0.464-0.021-0.896-0.295-1.297-0.822c-0.591-0.802-1.15-1.93-1.677-3.387
			c-1.202,1.498-2.604,2.944-4.207,4.336l-1.898-1.677c0.611-0.527,1.213-1.023,1.804-1.486h-7.462V64.353z M440.21,41.495
			c0.632,2.257,0.98,3.701,1.043,4.334l-2.436,0.348c-0.232-1.497-0.569-2.878-1.012-4.144L440.21,41.495z M439.899,53.132
			c-0.273,0-0.41,0.137-0.41,0.41v2.27h5.836v-2.27c0-0.273-0.138-0.41-0.411-0.41H439.899z M445.325,58.194h-5.836v2.322h5.331
			c0.336,0,0.505-0.17,0.505-0.509V58.194z M453.97,37.573c0.886,1.603,1.655,3.617,2.31,6.042l-2.373,0.822
			c-0.78-2.53-1.529-4.502-2.246-5.915L453.97,37.573z"/>
		<path fill="#080135" d="M468.079,65.841h-2.739V52.492c-0.949,2.088-2.004,3.954-3.163,5.599l-2.594-1.013
			c2.319-2.888,4.08-6.168,5.282-9.837h-4.776v-2.739h5.251v-4.523c-1.477,0.126-3.017,0.232-4.618,0.316l-0.316-2.752
			c4.864-0.295,8.729-0.822,11.597-1.582l0.474,2.72c-1.35,0.359-2.814,0.676-4.396,0.949v4.872h4.555v2.739h-4.555v0.411
			c1.877,2.131,3.647,4.366,5.314,6.707l-2.151,1.676c-0.907-1.392-1.961-2.889-3.163-4.492V65.841z M471.651,59.877l-0.664-2.688
			l12.812-2.183V35.963h2.739v18.568l2.72-0.475l0.443,2.721l-3.163,0.569v8.383h-2.739v-7.908L471.651,59.877z M475.504,45.358
			c2.636,2.657,4.46,4.598,5.472,5.82l-2.15,1.676c-1.413-1.813-3.195-3.701-5.347-5.662L475.504,45.358z M476.896,37.513
			c2.825,2.827,4.776,4.935,5.852,6.327l-2.15,1.677c-1.604-2.066-3.512-4.123-5.726-6.168L476.896,37.513z"/>
		<path fill="#080135" d="M497.174,44.71h-3.732v-2.739h3.732v-5.884h2.739v5.884h3.036v2.739h-3.036v5.884
			c0.864-0.526,1.592-1.022,2.183-1.486l1.677,2.151c-1.013,0.717-2.162,1.435-3.448,2.151c-0.148,0.063-0.285,0.138-0.411,0.222
			v9.047c-0.021,1.223-0.505,2.151-1.449,2.783c-0.734,0.485-2.366,0.369-4.896-0.348l0.158-2.847
			c0.717,0.296,1.234,0.485,1.551,0.569c0.822,0.211,1.359,0.222,1.613,0.031c0.189-0.168,0.284-0.475,0.284-0.917v-6.896
			c-0.886,0.443-1.803,0.865-2.752,1.265l-1.519-2.341c1.687-0.674,3.11-1.297,4.271-1.866V44.71z M502.244,65.652l-1.708-2.499
			c4.154-1.117,7.497-2.572,10.027-4.365c-1.961-1.877-3.965-4.334-6.01-7.371l2.277-1.55c1.981,3.08,3.867,5.484,5.654,7.212
			c2.295-2.487,4.044-5.029,5.246-7.623c0.21-0.485,0.095-0.716-0.348-0.696h-12.957v-2.739h6.264v-4.347h-7.528v-2.739h7.528
			v-2.974h2.739v2.974h8.604v2.739h-8.604v4.347h6.959l1.139,0.944c-0.759,2.505-1.708,4.716-2.847,6.635
			c-0.612,0.97-1.993,2.72-4.145,5.25c2.235,1.667,5.072,3.175,8.51,4.524l-1.898,2.467c-3.121-1.435-5.978-3.194-8.568-5.282
			C509.421,63.005,505.978,64.703,502.244,65.652z"/>
	</g>
</g>
</svg>
