<?xml version="1.0" encoding="utf-8"?>
<!-- Generator: Adobe Illustrator 16.0.0, SVG Export Plug-In . SVG Version: 6.00 Build 0)  -->
<!DOCTYPE svg PUBLIC "-//W3C//DTD SVG 1.1//EN" "http://www.w3.org/Graphics/SVG/1.1/DTD/svg11.dtd">
<svg version="1.1" id="圖層_1" xmlns="http://www.w3.org/2000/svg" xmlns:xlink="http://www.w3.org/1999/xlink" x="0px" y="0px"
	 width="259.873px" height="81.133px" viewBox="0 0 259.873 81.133" enable-background="new 0 0 259.873 81.133"
	 xml:space="preserve">
<g>
	<path fill="#173581" d="M218.022,15.269l5.301-12.192c0,0,38.695,38.298-5.566,78.054
		C219.033,79.207,249.788,38.661,218.022,15.269z"/>
	<path fill="#5CAA32" d="M226.503,15.269l5.302-12.192c0,0,38.693,38.298-5.566,78.056C227.512,79.209,258.27,38.661,226.503,15.269
		z"/>
	<path fill="#7DC6D8" d="M235.514,15.269l5.302-12.192c0,0,38.694,38.298-5.565,78.054
		C236.525,79.207,267.281,38.661,235.514,15.269z"/>
	<g>
		<path fill="#0F1939" d="M15.94,42.738c1.905,0.188,3.458,0.711,4.66,1.566c1.597,1.135,2.396,2.598,2.396,4.389
			c0,2.266-1.073,3.926-3.22,4.98c-0.98,0.496-2.137,0.82-3.469,0.975c-0.759,0.088-1.894,0.131-3.402,0.131H2.708v-1.354
			L3.17,53.41c0.858-0.043,1.369-0.104,1.534-0.18c0.396-0.178,0.638-0.518,0.726-1.023c0.066-0.285,0.099-0.918,0.099-1.898V36.726
			c-0.011-1.451-0.143-2.326-0.396-2.623c-0.166-0.188-0.385-0.309-0.66-0.363c-0.143-0.033-0.577-0.071-1.303-0.115l-0.462-0.017
			v-1.353H12.97c1.989,0,3.44,0.121,4.353,0.363c1.692,0.451,2.924,1.2,3.693,2.246c0.527,0.716,0.792,1.568,0.792,2.559
			c0,1.729-0.726,3.076-2.176,4.044C18.687,42.105,17.456,42.529,15.94,42.738z M10.413,42.109h0.94c1.873,0,3.209-0.246,4.01-0.742
			c1.041-0.646,1.561-1.878,1.561-3.693c0-1.45-0.351-2.494-1.052-3.132c-0.68-0.616-1.677-0.923-2.992-0.923
			c-1.107,0-1.831,0.238-2.17,0.71c-0.198,0.297-0.296,0.908-0.296,1.832V42.109z M10.413,43.605v7.043
			c0,1.117,0.121,1.826,0.363,2.129c0.297,0.367,0.94,0.551,1.93,0.551c1.925,0,3.294-0.414,4.108-1.246
			c0.748-0.764,1.122-1.93,1.122-3.492c0-2.076-0.638-3.492-1.914-4.246c-0.825-0.492-2.354-0.738-4.586-0.738H10.413z"/>
		<path fill="#0F1939" d="M33.114,44.055v6.254c0.011,1.451,0.143,2.326,0.396,2.623c0.165,0.188,0.385,0.309,0.66,0.363
			c0.066,0.021,0.5,0.062,1.304,0.115l0.346,0.016v1.354H25.41v-1.354l0.461-0.016c0.858-0.043,1.37-0.104,1.535-0.18
			c0.396-0.178,0.638-0.518,0.726-1.023c0.066-0.285,0.099-0.918,0.099-1.898V36.726c-0.011-1.451-0.143-2.326-0.396-2.623
			c-0.166-0.188-0.385-0.309-0.66-0.363c-0.143-0.033-0.577-0.071-1.304-0.115l-0.461-0.017v-1.353h9.845
			c3.546,0,6.038,0.573,7.476,1.719c1.273,1.003,1.911,2.337,1.911,4.001c0,1.586-0.555,2.871-1.664,3.851
			c-1.108,0.98-2.437,1.471-3.984,1.471c-0.099,0-0.264-0.004-0.495-0.016c0.494,0.209,0.933,0.537,1.317,0.988
			c0.427,0.527,0.999,1.525,1.712,2.998l1.136,2.406c0.943,1.932,1.701,3.059,2.272,3.377c0.34,0.219,0.916,0.385,1.729,0.494v1.234
			H39.98l-3.605-7.488c-0.637-1.312-1.11-2.166-1.417-2.561c-0.318-0.426-0.791-0.641-1.416-0.641
			C33.432,44.066,33.289,44.055,33.114,44.055z M33.114,42.637h1.333c1.13,0,1.919-0.055,2.37-0.164
			c1.842-0.441,2.764-1.898,2.764-4.372c0-1.391-0.274-2.456-0.823-3.196c-0.615-0.827-1.657-1.242-3.126-1.242
			c-0.966,0-1.63,0.178-1.991,0.532c-0.231,0.222-0.373,0.514-0.428,0.88c-0.066,0.454-0.099,1.019-0.099,1.694V42.637z"/>
		<path fill="#0F1939" d="M55.254,36.726v13.583c0.011,1.451,0.143,2.326,0.396,2.623c0.165,0.188,0.385,0.309,0.66,0.363
			c0.154,0.033,0.589,0.072,1.304,0.115l0.461,0.016v1.354H47.55v-1.354l0.461-0.016c0.858-0.043,1.37-0.104,1.535-0.18
			c0.396-0.178,0.638-0.518,0.726-1.023c0.066-0.285,0.099-0.918,0.099-1.898V36.726c-0.011-1.451-0.143-2.326-0.396-2.623
			c-0.165-0.188-0.385-0.309-0.66-0.363c-0.143-0.033-0.578-0.071-1.304-0.115l-0.461-0.017v-1.353h10.525v1.353l-0.461,0.017
			c-0.858,0.044-1.37,0.105-1.535,0.181c-0.396,0.176-0.638,0.517-0.726,1.023C55.287,35.125,55.254,35.758,55.254,36.726z"/>
		<path fill="#0F1939" d="M63.09,50.309V36.726c-0.011-1.451-0.143-2.326-0.396-2.623c-0.165-0.188-0.385-0.309-0.66-0.363
			c-0.143-0.033-0.578-0.071-1.304-0.115l-0.461-0.017v-1.353h8.875c1.629,0,2.808,0.03,3.535,0.091
			c0.727,0.061,1.426,0.189,2.098,0.388c2.356,0.671,4.223,2.069,5.6,4.191c1.233,1.903,1.85,4.114,1.85,6.633
			c0,2.102-0.446,4.004-1.338,5.711c-1.189,2.254-2.902,3.832-5.137,4.736c-0.925,0.373-2.016,0.604-3.271,0.693
			c-0.793,0.053-1.723,0.08-2.791,0.08h-9.42v-1.354l0.461-0.016c0.858-0.043,1.37-0.104,1.535-0.18
			c0.396-0.178,0.638-0.518,0.726-1.023C63.058,51.922,63.09,51.289,63.09,50.309z M67.974,36.661v14.029
			c0,1.129,0.055,1.805,0.165,2.025c0.22,0.438,0.978,0.658,2.274,0.658c1.625,0,2.85-0.275,3.674-0.826
			c1.087-0.736,1.851-1.895,2.291-3.479c0.351-1.297,0.527-3.1,0.527-5.408c0-2.297-0.184-4.16-0.552-5.589
			c-0.369-1.429-0.937-2.479-1.706-3.149c-0.89-0.78-2.285-1.17-4.185-1.17c-1.077,0-1.78,0.197-2.109,0.592
			c-0.187,0.219-0.296,0.499-0.33,0.838C67.99,35.533,67.974,36.027,67.974,36.661z"/>
		<path fill="#0F1939" d="M96.867,44.75h9.987v1.348c-1.105,0.012-1.829,0.246-2.171,0.707c-0.166,0.219-0.271,0.543-0.314,0.971
			c-0.044,0.404-0.066,1.129-0.066,2.17v4.174h-0.904c-0.044,0-0.182,0-0.412,0c-0.143,0-0.258,0-0.346,0
			c-0.572,0-1.357,0.145-2.356,0.436c-1.835,0.529-3.401,0.797-4.697,0.797c-3.352,0-6.01-1.133-7.977-3.402
			c-1.835-2.104-2.752-4.777-2.752-8.027c0-3.545,1.143-6.535,3.428-8.968c2.055-2.18,4.533-3.271,7.435-3.271
			c1.241,0,2.472,0.242,3.692,0.725c0.472,0.191,0.785,0.287,0.939,0.287c0.253,0,0.626-0.134,1.121-0.402l0.412-0.217
			c0.077-0.033,0.154-0.073,0.231-0.118l0.741,0.066l1.497,6.511l-1.316,0.545c-2.104-3.992-4.444-5.99-7.019-5.99
			c-0.79,0-1.532,0.186-2.228,0.553c-0.696,0.368-1.263,0.872-1.702,1.511c-0.658,0.98-1.14,2.193-1.447,3.642
			c-0.307,1.446-0.459,3.221-0.459,5.325c0,2.816,0.274,4.947,0.823,6.391c0.877,2.289,2.439,3.434,4.688,3.434
			c1.601,0,2.736-0.506,3.405-1.518c0.538-0.824,0.807-2.082,0.807-3.775c0-1.164-0.302-1.895-0.907-2.193
			c-0.385-0.197-1.094-0.316-2.128-0.361V44.75z"/>
		<path fill="#0F1939" d="M123.549,38.854v9.152h-1.375c-0.087-1.072-0.415-1.973-0.982-2.701c-0.644-0.816-1.931-1.238-3.863-1.258
			h-0.688v6.348c0,1.16,0.082,1.896,0.246,2.213c0.251,0.48,0.909,0.721,1.97,0.721c1.127,0,2.131-0.145,3.012-0.434
			c0.881-0.291,1.765-0.766,2.652-1.424c1.225-0.918,2.342-2.074,3.349-3.465l1.221,0.691l-1.798,6.082h-18.357v-1.354l0.462-0.016
			c0.858-0.043,1.369-0.104,1.534-0.18c0.396-0.178,0.638-0.518,0.726-1.023c0.066-0.285,0.099-0.918,0.099-1.898V36.726
			c-0.011-1.451-0.143-2.326-0.396-2.623c-0.165-0.188-0.385-0.309-0.66-0.363c-0.143-0.033-0.578-0.071-1.303-0.115l-0.462-0.017
			v-1.353h17.812l1.766,6.104l-1.204,0.726c-0.723-1.078-1.516-2.014-2.38-2.808c-1.007-0.913-1.954-1.541-2.84-1.881
			c-0.909-0.342-1.954-0.513-3.135-0.513c-1.138,0-1.828,0.242-2.068,0.728c-0.164,0.308-0.246,1.101-0.246,2.379v5.471h0.622
			c1.942-0.01,3.229-0.4,3.863-1.168c0.447-0.539,0.796-1.351,1.047-2.439H123.549z"/>
		<path fill="#0F1939" d="M141.142,48.311l3.285-10.034l-0.925-2.838c-0.22-0.67-0.385-1.083-0.495-1.237
			c-0.265-0.34-0.622-0.528-1.073-0.562c-0.154-0.01-0.419-0.021-0.792-0.032v-1.353h9.062v1.353
			c-0.186,0.022-0.307,0.032-0.361,0.032c-0.776,0.089-1.247,0.215-1.411,0.38c-0.11,0.121-0.164,0.297-0.164,0.528
			c0,0.209,0.082,0.6,0.247,1.172l3.619,12.59l3.265-10.924c0.32-1.056,0.48-1.781,0.48-2.178c0-1.023-0.704-1.557-2.112-1.601
			v-1.353h6.731v1.353c-0.813,0.175-1.468,0.5-1.963,0.974c-0.572,0.562-1.117,1.626-1.633,3.199l-5.576,17.352h-1.815
			l-4.357-14.745l-4.68,14.745h-1.893l-5.666-18.771c-0.319-1.033-0.521-1.648-0.609-1.847c-0.22-0.461-0.604-0.736-1.153-0.824
			c-0.198-0.021-0.506-0.05-0.922-0.083v-1.353h9.106v1.353c-0.228,0.011-0.375,0.017-0.44,0.017
			c-0.587,0.033-0.968,0.121-1.141,0.264c-0.207,0.166-0.31,0.369-0.31,0.611c0,0.308,0.132,0.93,0.396,1.865L141.142,48.311z"/>
		<path fill="#0F1939" d="M176.243,38.854v9.152h-1.375c-0.087-1.072-0.415-1.973-0.982-2.701c-0.644-0.816-1.931-1.238-3.863-1.258
			h-0.688v6.348c0,1.16,0.082,1.896,0.247,2.213c0.251,0.48,0.909,0.721,1.97,0.721c1.127,0,2.131-0.145,3.012-0.434
			c0.881-0.291,1.765-0.766,2.652-1.424c1.226-0.918,2.342-2.074,3.349-3.465l1.221,0.691l-1.798,6.082h-18.356v-1.354l0.462-0.016
			c0.858-0.043,1.369-0.104,1.534-0.18c0.396-0.178,0.638-0.518,0.726-1.023c0.066-0.285,0.099-0.918,0.099-1.898V36.726
			c-0.011-1.451-0.143-2.326-0.396-2.623c-0.165-0.188-0.385-0.309-0.66-0.363c-0.143-0.033-0.578-0.071-1.303-0.115l-0.462-0.017
			v-1.353h17.812l1.765,6.104l-1.204,0.726c-0.723-1.078-1.516-2.014-2.38-2.808c-1.007-0.913-1.954-1.541-2.84-1.881
			c-0.909-0.342-1.954-0.513-3.134-0.513c-1.138,0-1.828,0.242-2.068,0.728c-0.165,0.308-0.247,1.101-0.247,2.379v5.471h0.623
			c1.941-0.01,3.229-0.4,3.862-1.168c0.447-0.539,0.796-1.351,1.047-2.439H176.243z"/>
		<path fill="#0F1939" d="M203.8,48.725l-1.831,6.055h-17.9v-1.354l0.462-0.016c0.858-0.043,1.369-0.104,1.534-0.18
			c0.396-0.178,0.638-0.518,0.726-1.023c0.066-0.285,0.099-0.918,0.099-1.898V36.726c-0.011-1.451-0.143-2.326-0.396-2.623
			c-0.165-0.188-0.385-0.309-0.66-0.363c-0.143-0.033-0.578-0.071-1.303-0.115l-0.462-0.017v-1.353h10.856v1.353l-0.792,0.017
			c-0.836,0.033-1.347,0.094-1.534,0.181c-0.396,0.176-0.638,0.517-0.726,1.023c-0.066,0.285-0.099,0.918-0.099,1.897v13.829
			c0,0.932,0.022,1.492,0.066,1.678c0.209,0.789,0.946,1.186,2.211,1.186c1.87,0,3.608-0.615,5.213-1.846
			c1.209-0.943,2.37-2.104,3.481-3.475L203.8,48.725z"/>
		<path fill="#0F1939" d="M224.389,48.725l-1.831,6.055h-17.9v-1.354l0.462-0.016c0.857-0.043,1.369-0.104,1.534-0.18
			c0.396-0.178,0.638-0.518,0.726-1.023c0.066-0.285,0.099-0.918,0.099-1.898V36.726c-0.011-1.451-0.143-2.326-0.396-2.623
			c-0.165-0.188-0.385-0.309-0.66-0.363c-0.143-0.033-0.578-0.071-1.303-0.115l-0.462-0.017v-1.353h10.855v1.353l-0.792,0.017
			c-0.836,0.033-1.348,0.094-1.534,0.181c-0.396,0.176-0.638,0.517-0.726,1.023c-0.066,0.285-0.099,0.918-0.099,1.897v13.829
			c0,0.932,0.022,1.492,0.066,1.678c0.209,0.789,0.946,1.186,2.211,1.186c1.87,0,3.607-0.615,5.213-1.846
			c1.21-0.943,2.371-2.104,3.482-3.475L224.389,48.725z"/>
	</g>
</g>
</svg>
