<?xml version="1.0" encoding="utf-8"?>
<!-- Generator: Adobe Illustrator 16.0.0, SVG Export Plug-In . SVG Version: 6.00 Build 0)  -->
<!DOCTYPE svg PUBLIC "-//W3C//DTD SVG 1.1//EN" "http://www.w3.org/Graphics/SVG/1.1/DTD/svg11.dtd">
<svg version="1.1" id="圖層_1" xmlns="http://www.w3.org/2000/svg" xmlns:xlink="http://www.w3.org/1999/xlink" x="0px" y="0px"
	 width="303.185px" height="200px" viewBox="0 0 303.185 200" enable-background="new 0 0 303.185 200" xml:space="preserve">
<path fill="#003E7F" d="M63.235,188.018l-0.646,0.926c-0.194,0.275-0.446,0.564-0.753,0.867l2.661-0.152
	c1.004,0,2.009-0.096,3.014-0.289l-0.554-0.35l-0.508-0.318l1.108-0.684c0.84,0.455,1.994,1.252,3.46,2.387l-1,1.064l-0.692-0.623
	l-0.538-0.412c-1.743,0.203-3.461,0.375-5.152,0.518c-1.988,0-3.701,0.102-5.136,0.305l-0.231-1.385l0.969-0.014
	c0.379,0,0.646-0.016,0.8-0.047c0.676-0.617,1.204-1.221,1.583-1.809h-4.398v-1.262h14.164v1.277H63.235z M69.663,180.979h-4.736
	v3.254h-1.414v-3.254h-4.537v2.51h-1.4v-3.695h5.937v-0.652h-5.291v-1.188h11.964v1.188h-5.259v0.652h6.167v3.588h-1.431V180.979z
	 M69.986,185.994h-11.38v-1.154h11.38V185.994z M62.897,184.172H59.59v-1.004h3.307V184.172z M62.897,182.576h-3.229v-0.988h3.229
	V182.576z M68.895,182.576h-3.307v-0.988h3.307V182.576z M68.987,184.172h-3.399v-1.004h3.399V184.172z"/>
<path fill="#003E7F" d="M93.9,184.582c-1.169-0.963-2.101-1.662-2.798-2.098l0.999-1.08c0.82,0.457,1.753,1.096,2.799,1.916
	L93.9,184.582z M95.069,186.285c-0.82,1.965-1.737,3.627-2.752,4.986l-1.184-1.188c0.973-1.135,1.881-2.715,2.721-4.742
	L95.069,186.285z M94.162,180.752c-0.093-0.072-0.169-0.133-0.231-0.184c-0.625-0.527-1.364-1.068-2.214-1.627
	c-0.072-0.039-0.165-0.102-0.277-0.182l0.999-1.064c1.087,0.568,1.999,1.17,2.738,1.809L94.162,180.752z M100.59,180.66v1.764h3.799
	v5.35v0.184c0,0.568-0.121,0.969-0.362,1.209c-0.24,0.238-0.7,0.357-1.377,0.357h-1.229l-0.339-1.521l1.399,0.061
	c0.328,0,0.493-0.156,0.493-0.471v-3.846h-2.384v7.707h-1.414v-7.707h-2.108v5.959h-1.414v-7.281h3.522v-1.764h-3.922v-1.338h3.937
	l-0.385-0.746c-0.215-0.363-0.384-0.623-0.508-0.775l1.477-0.334c0.194,0.295,0.363,0.588,0.507,0.883l0.477,0.973h4.46v1.338
	H100.59z"/>
<path fill="#003E7F" d="M126.256,185.189v-3.617l-0.646,0.41l-0.692-1.293c1.835-0.961,3.153-2.012,3.952-3.146h1.323
	c0.266,0.162,0.487,0.295,0.661,0.396c0.841,0.506,2.02,1.322,3.537,2.447l-0.615,1.398l-0.462-0.381v4.896h-5.859
	c-0.112,1.844-0.569,3.494-1.368,4.953l-1.169-0.881C125.811,188.812,126.256,187.086,126.256,185.189 M126.642,181.344h2.937
	c-0.082-0.191-0.21-0.404-0.384-0.639l-0.508-0.684l1.291-0.305c0.462,0.518,0.795,1.061,1,1.627h2.261
	c-1.252-1.094-2.436-1.957-3.552-2.584C128.743,179.783,127.728,180.645,126.642,181.344 M127.487,185.189h4.567v-0.896h-4.552
	L127.487,185.189z M132.055,182.453h-4.537v0.807h4.537V182.453z M127.518,187.121h6.136v4.332h-1.307v-0.715h-3.522v0.715h-1.307
	V187.121z M132.347,188.23h-3.521v1.398h3.521V188.23z M134.652,178.486h1.384v9.623h-1.384V178.486z M137.283,177.467h1.43v12.01
	v0.184c0,0.566-0.12,0.969-0.361,1.207c-0.241,0.238-0.705,0.357-1.392,0.357h-1.768l-0.339-1.52l1.938,0.076
	c0.328,0,0.492-0.162,0.492-0.486V177.467z"/>
<path fill="#003E7F" d="M165.501,187.484l0.416,0.41l-0.83,0.959c-0.123-0.131-0.221-0.238-0.293-0.32
	c-0.461-0.496-0.989-0.998-1.584-1.504v4.424h-1.352v-4.014c-0.771,1.166-1.57,2.088-2.4,2.768l-0.707-1.201
	c1.23-0.953,2.188-2.047,2.875-3.283h-2.875v-1.217h3.107v-1.186h-2.924v-1.201h1.661l-0.245-0.836
	c-0.104-0.334-0.21-0.629-0.322-0.883c-0.021-0.039-0.047-0.096-0.078-0.166l1.153-0.381c0.339,0.752,0.601,1.439,0.784,2.068
	c0.01,0.051,0.031,0.117,0.061,0.197h1.17c0.308-0.619,0.555-1.287,0.738-2.008c0.02-0.07,0.047-0.156,0.076-0.258l1.215,0.381
	c-0.041,0.143-0.07,0.254-0.092,0.334c-0.174,0.67-0.363,1.186-0.568,1.551h1.568v1.201h-2.846v1.186h2.969v1.217h-2.922
	c0.104,0.07,0.189,0.127,0.262,0.168C164.185,186.314,164.846,186.848,165.501,187.484 M165.994,178.518v1.246h-6.996v-1.246h2.783
	l-0.308-0.41l-0.385-0.457l1.507-0.168c0.186,0.213,0.324,0.395,0.416,0.547l0.307,0.488H165.994z M171.3,191.453h-1.398v-7.723
	h-1.74v0.076v0.244c0,1.672-0.116,3.047-0.353,4.127c-0.235,1.078-0.743,2.145-1.522,3.199l-1.076-1.049
	c0.769-1.033,1.223-2.07,1.361-3.109c0.137-1.039,0.207-2.084,0.207-3.139v-5.291c2.051-0.09,3.854-0.373,5.412-0.85l0.616,1.275
	c-1.302,0.387-2.625,0.635-3.968,0.746c-0.174,0.021-0.4,0.045-0.678,0.076v2.402h4.723v1.291H171.3V191.453z"/>
<path fill="#003E7F" d="M200.443,191.453h-1.431v-3.617c-0.748,0.76-1.548,1.365-2.399,1.814c-0.851,0.453-1.959,0.885-3.322,1.301
	l-0.723-1.262c2.081-0.416,3.713-1.039,4.891-1.871h-4.645v-1.229h6.198v-0.762h-4.66v-3.938l-0.43,0.578
	c-0.134,0.174-0.277,0.334-0.431,0.486l-0.093,0.092l-0.846-1.369c1.271-1.205,2.265-2.609,2.983-4.209l1.445,0.258
	c-0.164,0.436-0.349,0.814-0.554,1.139c-0.011,0.021-0.03,0.057-0.062,0.107h3.061l-0.246-0.531
	c-0.164-0.334-0.287-0.568-0.369-0.699l1.399-0.26l0.415,0.76l0.324,0.73h4.951v1.125h-4.998v0.76h4.398v1.033h-4.398v0.852h4.398
	v1.035h-4.398v0.881h5.229v1.17h-5.689v0.762h6.074v1.229h-4.568c1.211,0.803,2.799,1.389,4.768,1.764l-0.661,1.369
	c-2.522-0.68-4.394-1.719-5.612-3.115V191.453z M199.566,180.098h-3.814v0.76h3.814V180.098z M199.566,181.891h-3.814v0.852h3.814
	V181.891z M199.566,183.777h-3.814v0.881h3.814V183.777z"/>
<path fill="#003E7F" d="M226.787,177.832h13.332v13.621h-1.322v-0.609h-10.704v0.609h-1.306V177.832z M237.043,184.643l0.477,0.531
	l0.63,0.73l-0.984,0.623l-0.414-0.531h-0.262v0.699h1.86v0.941h-1.86v0.396v0.168c0,0.373-0.086,0.65-0.254,0.828
	c-0.17,0.176-0.535,0.266-1.101,0.266h-1.676l-0.308-0.988l1.569,0.061c0.349,0,0.522-0.146,0.522-0.441v-0.289h-6.566v-0.941h6.566
	v-0.609l-2.86,0.107l-3.397,0.061l-0.232-1.08l1.984,0.031l1.969-0.031v-0.531h-3.631v-3.619h3.631v-0.5h-4.061v-0.988h4.061v-0.578
	h-4.614v10.762h10.704v-10.762h-4.891v0.578h4.414v0.988h-4.43v0.5h3.846v3.619H237.043z M231.291,189.354l-0.491-0.652
	c-0.134-0.182-0.287-0.355-0.461-0.518l-0.093-0.09l1.015-0.457l0.492,0.457c0.134,0.131,0.286,0.309,0.462,0.531
	c0.02,0.031,0.056,0.076,0.107,0.137L231.291,189.354z M230.277,182.5h2.43v-0.623h-2.43V182.5z M230.277,183.791h2.43v-0.639h-2.43
	V183.791z M233.89,182.5h2.646v-0.623h-2.646V182.5z M233.89,183.791h2.646v-0.639h-2.646V183.791z M233.89,184.643v0.531
	l1.277-0.014l0.953-0.031l-0.385-0.486H233.89z"/>
<path fill="#C2C0BC" d="M166.815,42.852c-4.862-3.551-7.921-8.248-7.924-13.473c0.008-5.956,3.957-11.193,10.042-14.888
	c6.102-3.705,14.43-5.956,23.612-5.959c9.183,0.003,17.509,2.254,23.612,5.961c6.084,3.693,10.033,8.93,10.041,14.886
	c-0.008,5.953-3.957,11.19-10.041,14.884c-6.104,3.706-14.43,5.958-23.612,5.962c-0.454,0-0.908-0.005-1.36-0.015l3.403,14.604
	L166.815,42.852z M169.96,16.183c-5.736,3.492-9.098,8.183-9.09,13.196c-0.004,4.407,2.58,8.552,7.142,11.898l23.364,18.473
	l-2.412-10.351l-0.299-1.277l1.312,0.064c0.843,0.043,1.699,0.061,2.568,0.059c8.858,0.003,16.864-2.191,22.584-5.672
	c5.735-3.494,9.098-8.185,9.09-13.194c0.008-5.013-3.354-9.704-9.09-13.196c-5.72-3.481-13.726-5.674-22.584-5.671h-0.021
	C183.675,10.512,175.677,12.705,169.96,16.183 M189.878,50.163l0.049-0.987L189.878,50.163z"/>
<path fill="#003E7F" d="M54.896,115.592l0.604-6.674l1.509-26.285h-6.256c0.1-0.808,0.211-2.12,0.329-3.936
	c0.118-1.817,0.193-3.144,0.227-3.979h6.874l-0.011-1.616c0-2.882,0.151-5.084,0.455-6.607c0.303-1.522,0.867-2.767,1.694-3.737
	c0.824-0.97,1.988-1.812,3.487-2.526c1.5-0.713,3.144-1.198,4.93-1.454c1.786-0.256,3.623-0.384,5.511-0.384
	c3.842,0,7.904,0.432,12.184,1.298c0.1,3.007,0.286,5.582,0.556,7.729c-3.231-0.906-6.175-1.36-8.832-1.36
	c-1.043,0-2.002,0.101-2.877,0.303c-0.875,0.203-1.59,0.48-2.145,0.831c-0.555,0.35-1.018,0.809-1.389,1.376
	c-0.369,0.565-0.622,1.233-0.756,2.002c-0.135,0.769-0.202,1.652-0.202,2.65l0.016,1.495h12.846
	c-0.202,1.857-0.404,4.497-0.606,7.915H70.928c-0.636,10.73-1.123,21.714-1.457,32.958c-3.07-0.055-5.516-0.082-7.338-0.082
	C60.276,115.51,57.864,115.537,54.896,115.592"/>
<path fill="#003E7F" d="M135.581,115.592c-2.97-0.055-5.248-0.082-6.834-0.082c-1.991,0-4.252,0.027-6.783,0.082l0.112-6.711
	c-0.943,1.133-1.769,2.045-2.476,2.734s-1.632,1.365-2.776,2.027c-1.145,0.662-2.391,1.189-3.737,1.58
	c-1.348,0.393-2.888,0.715-4.622,0.973c-1.734,0.256-3.578,0.387-5.531,0.387c-3.771,0-7.054-0.439-9.848-1.316
	s-5.008-2.207-6.64-3.988c-1.633-1.783-2.45-4.334-2.45-7.652v-0.852l0.811-10.43l0.76-13.747c0.033-1.105,0.05-2.481,0.05-4.125
	c3.204,0.054,5.716,0.081,7.537,0.081c1.923,0,4.249-0.027,6.982-0.081l-1.685,18.437c-0.102,1.429-0.18,2.635-0.23,3.618
	c-0.051,0.985-0.076,1.692-0.076,2.125c0,1.94,0.361,3.55,1.086,4.833c0.724,1.281,1.988,2.258,3.792,2.934
	c1.802,0.674,3.731,1.012,5.787,1.012c1.954,0,3.806-0.295,5.559-0.893c1.584-0.535,2.94-1.291,4.069-2.264
	c1.128-0.971,2.081-2.277,2.856-3.922c0.572-1.186,1.011-2.829,1.314-4.933c0.235-1.482,0.454-4.032,0.657-7.644
	c0.255-4.366,0.43-8.801,0.525-13.303c3.341,0.054,5.889,0.081,7.643,0.081c1.99,0,4.235-0.027,6.732-0.081
	c-0.406,3.855-0.829,8.674-1.267,14.456c-0.438,5.781-0.743,10.55-0.912,14.311C135.816,106.998,135.681,111.117,135.581,115.592"/>
<path fill="#003E7F" d="M142.572,115.592c0.771-6.119,1.418-12.992,1.938-20.621c0.519-7.629,0.813-14.462,0.881-20.5
	c3.105,0.054,5.587,0.081,7.445,0.081c2.195,0,4.523-0.027,6.988-0.081l-0.54,6.858c1.044-1.187,1.962-2.13,2.754-2.831
	c0.792-0.702,1.803-1.39,3.033-2.062c1.229-0.677,2.544-1.214,3.942-1.619c1.399-0.405,2.967-0.728,4.701-0.972
	c1.736-0.242,3.547-0.363,5.436-0.363c3,0,5.871,0.303,8.619,0.91c2.746,0.606,4.963,1.571,6.647,2.893
	c1.685,1.321,2.797,2.765,3.336,4.328c0.54,1.563,0.81,3.221,0.81,4.976c0,0.726-0.051,1.888-0.152,3.478l-1.071,17.677
	c-0.136,2.455-0.221,5.07-0.255,7.848c-2.664-0.055-4.939-0.082-6.827-0.082c-2.563,0-5.143,0.027-7.739,0.082
	c0.271-2.348,0.61-6.438,1.018-12.277c0.406-5.838,0.609-9.701,0.609-11.589c0-2.127-0.422-3.838-1.265-5.132
	c-0.844-1.291-2.151-2.277-3.921-2.95c-1.77-0.672-3.684-1.01-5.74-1.01c-2.025,0-3.912,0.311-5.666,0.93
	c-1.755,0.622-3.271,1.522-4.553,2.709c-1.35,1.213-2.395,2.709-3.137,4.487c-0.776,1.887-1.35,5-1.721,9.341
	c-0.34,3.857-0.613,9.019-0.818,15.492c-2.594-0.055-4.934-0.082-7.022-0.082C148.18,115.51,145.603,115.537,142.572,115.592"/>
<path fill="#D80C18" d="M205.001,115.592l0.91-9.576l1.264-21.216l0.605-15.394c0.033-1.401,0.051-2.815,0.051-4.243
	c0-1.051-0.018-2.627-0.051-4.728c4.317,0.054,7.824,0.081,10.522,0.081c2.157,0,5.159-0.04,9.003-0.121
	c3.846-0.081,6.898-0.121,9.157-0.121c4.653,0,8.075,0.27,10.27,0.808c2.326,0.592,4.366,1.52,6.119,2.785
	c1.754,1.266,3.088,2.786,3.996,4.562c1.013,1.993,1.519,4.131,1.519,6.42c0,3.472-1.086,6.627-3.262,9.468
	c-2.172,2.841-5.18,4.959-9.021,6.357c-3.842,1.402-8.105,2.102-12.789,2.102c-2.293,0-4.734-0.186-7.329-0.557
	c-0.744-2.813-1.589-5.452-2.536-7.915c2.083,0.371,4.148,0.557,6.199,0.557c2.789,0,5.207-0.335,7.257-1.008
	c2.05-0.672,3.679-1.766,4.888-3.285c1.211-1.517,1.815-3.229,1.815-5.136c0-1.128-0.251-2.163-0.757-3.103
	c-0.504-0.94-1.236-1.693-2.194-2.257c-0.959-0.564-2.019-0.947-3.179-1.148c-1.159-0.201-2.815-0.302-4.967-0.302
	c-1.884,0-3.783,0.027-5.699,0.081c-1.918,0.054-3.614,0.08-5.094,0.08c-0.406,5.277-0.709,10.327-0.912,15.145l-0.609,15.429
	c-0.203,5.466-0.305,9.478-0.305,12.037c0,0.969,0.017,2.369,0.052,4.199l-7.335-0.082
	C211.645,115.51,209.117,115.537,205.001,115.592"/>
<path fill="#D80C18" d="M53.603,134.898c0.006-0.037,0.03-0.145,0.055-0.258c0.029-0.137,0.06-0.279,0.069-0.332
	c0.113-0.641,0.019-1.162-0.27-1.506c-0.259-0.309-0.655-0.465-1.178-0.465c-1.317,0-7.062,13.816-7.432,15.916l-0.028,0.156h1.953
	c0.212,0,2.44-4.365,2.459-4.404c0.043-0.078,0.157-0.354,0.339-0.795c0.137-0.332,0.293-0.709,0.337-0.791
	c0.52-1.148,3.116-6.408,3.683-7.482L53.603,134.898z"/>
<path fill="#D80C18" d="M61.384,138.605c-0.753,0-1.386,0.352-1.999,0.689c-0.512,0.285-0.995,0.553-1.472,0.553
	c-0.034,0-0.096-0.008-0.141-0.014c-0.014-0.002-0.028-0.004-0.039-0.004c-0.241-0.105-0.939-0.4-1.126-0.4l-0.062,0.01
	c-1.822,0.592-3.666,6.855-3.834,7.811c-0.079,0.445-0.046,0.715,0.108,0.896c0.154,0.186,0.421,0.264,0.891,0.264
	c1.453,0,2.48-1.807,3.473-3.553c0.902-1.586,1.835-3.227,2.985-3.227c0.378,0,0.548,0.043,0.597,0.301
	c-0.009,0.049-0.019,0.119-0.031,0.203c-0.024,0.174-0.058,0.408-0.103,0.66c-0.041,0.234-0.074,0.469-0.1,0.646
	c-0.014,0.105-0.026,0.189-0.036,0.24c-0.122,0.695-0.355,1.357-0.579,2c-0.224,0.637-0.455,1.295-0.576,1.982
	c-0.074,0.42-0.042,0.688,0.105,0.861c0.203,0.242,0.583,0.26,1.098,0.26l0.167,0.002c0.662,0,1.203-0.066,1.641-0.908l1.093-3.953
	l0.02-0.119c0.014-0.078,0.033-0.16,0.053-0.242c0.019-0.086,0.039-0.17,0.053-0.25l0.039-0.217
	c0.213-1.209,0.303-2.844-0.476-3.771C62.732,138.848,62.144,138.605,61.384,138.605"/>
<path fill="#D80C18" d="M73.665,138.605c-0.753,0-1.386,0.352-1.999,0.689c-0.512,0.285-0.995,0.553-1.472,0.553
	c-0.034,0-0.096-0.008-0.141-0.014c-0.014-0.002-0.028-0.004-0.039-0.004c-0.241-0.105-0.939-0.4-1.126-0.4l-0.062,0.01
	c-1.822,0.592-3.666,6.855-3.834,7.811c-0.079,0.445-0.046,0.715,0.108,0.896c0.154,0.186,0.421,0.264,0.891,0.264
	c1.453,0,2.48-1.807,3.473-3.553c0.902-1.586,1.835-3.227,2.985-3.227c0.378,0,0.548,0.043,0.597,0.301
	c-0.009,0.049-0.019,0.119-0.031,0.203c-0.024,0.174-0.058,0.408-0.103,0.66c-0.041,0.234-0.074,0.469-0.1,0.646
	c-0.014,0.105-0.026,0.189-0.036,0.24c-0.122,0.695-0.355,1.357-0.579,2c-0.224,0.637-0.455,1.295-0.576,1.982
	c-0.074,0.42-0.042,0.688,0.105,0.861c0.203,0.242,0.583,0.26,1.098,0.26l0.167,0.002c0.662,0,1.203-0.066,1.641-0.908l1.093-3.953
	l0.02-0.119c0.014-0.078,0.033-0.16,0.053-0.242c0.019-0.086,0.039-0.17,0.053-0.25l0.039-0.217
	c0.213-1.209,0.303-2.844-0.476-3.771C75.012,138.848,74.424,138.605,73.665,138.605"/>
<path fill="#D80C18" d="M85.337,138.25c-0.041,0-0.112,0.008-0.163,0.016l-0.079,0.006l-0.035,0.023
	c-0.694,0.49-1.456,0.938-2.193,1.369c-2.259,1.326-4.595,2.697-5.085,5.477c-0.204,1.156-0.035,2.068,0.503,2.711
	c0.673,0.801,1.909,1.189,3.778,1.189c1.685,0,6.813,0,7.527-4.053c0.287-1.623-0.394-3.916-1.583-5.334
	C87.236,138.736,86.313,138.25,85.337,138.25 M82.993,146.744c-0.384,0-1.783-0.148-2.05-0.332l-0.051-0.02
	c-0.078-0.016-0.131-0.047-0.166-0.1c-0.115-0.174-0.034-0.543,0.014-0.764c0.013-0.055,0.023-0.105,0.031-0.146
	c0.349-1.982,2.731-4.639,4.687-4.639c0.543,0,1.028,0.234,1.402,0.68c0.562,0.67,0.813,1.734,0.641,2.713
	C87.088,146.475,84.73,146.744,82.993,146.744"/>
<path fill="#D80C18" d="M105.481,138.242c-0.183-0.283-0.585-0.307-0.947-0.307c-1.337,0-2.633,1.793-3.886,3.525
	c-1.163,1.609-2.365,3.273-3.463,3.273c-0.387,0-0.556-0.045-0.6-0.322c-0.099-0.637-0.662-3.686-0.813-4.342
	c-0.05-0.229-0.076-0.445-0.099-0.635c-0.073-0.594-0.135-1.105-0.906-1.105c-0.835,0-1.929,1.139-2.071,1.941
	c-0.231,1.311,0.665,6.258,1.942,7.779c0.277,0.33,0.566,0.496,0.858,0.496c2.36,0,3.946-2.006,5.346-3.775
	c0.174-0.221,0.345-0.438,0.514-0.645l3.988-4.73l0.02-0.031C105.599,138.838,105.636,138.482,105.481,138.242"/>
<path fill="#D80C18" d="M115.894,146.074c-0.42,0-0.933-0.035-1.166-0.314c-0.143-0.17-0.182-0.422-0.121-0.771
	c0.114-0.643,0.417-1.227,0.738-1.844c0.339-0.654,0.69-1.33,0.829-2.117c0.007-0.037,0.015-0.102,0.026-0.184
	c0.018-0.135,0.042-0.32,0.075-0.506c0.035-0.201,0.061-0.389,0.079-0.523c0.01-0.074,0.017-0.131,0.023-0.166l0.027-0.15
	l-0.153-0.006c-0.654-0.027-0.935-0.412-1.231-0.818c-0.286-0.393-0.582-0.799-1.21-0.799c-3.451,0-7.929,5.656-8.386,8.252
	c-0.128,0.723,0.05,1.436,0.487,1.957c0.402,0.477,0.984,0.74,1.64,0.74c0.131,0,1.221-0.375,1.301-0.402
	c0.371-0.146,1.89-0.85,2.456-1.123c0.483,1.102,1.391,1.199,2.283,1.199c0.119,0,0.24-0.002,0.363-0.006
	c0.125-0.002,0.251-0.004,0.378-0.004c0.014,0,0.045,0.002,0.088,0.004c0.115,0.006,0.316,0.014,0.564,0.014
	c0.903,0,2.086-0.115,2.588-0.664c0.188-0.205,0.271-0.453,0.245-0.742C117.706,146.074,116.527,146.074,115.894,146.074
	 M112.741,141.066c-0.484,2.422-2.21,4.824-4.673,4.926C108.495,144.113,110.725,141.217,112.741,141.066"/>
<path fill="#D80C18" d="M131.097,137.422h-0.294c-0.143,0-0.317,0.02-0.422,0.031c-0.038,0.006-0.066,0.008-0.078,0.01
	c-0.069,0-0.216,0.045-0.685,0.203c-0.233,0.076-0.55,0.184-0.606,0.189h-0.178c-0.171,0-0.458,0-0.495-0.061
	c-0.041-0.062,0.03-0.289,0.209-0.676c0.2-0.432,0.409-0.857,0.617-1.281c0.609-1.24,1.239-2.521,1.606-3.918
	c0.177-0.654,0.507-1.871,0.062-2.451c-0.164-0.215-0.413-0.324-0.738-0.324c-1.357,0-2.064,2.039-2.814,4.197
	c-0.71,2.051-1.446,4.172-2.759,4.926c-0.936,0.516-2.712,0.914-3.566,1.107l-0.322,0.072l-0.621,0.826l-0.024,0.053
	c-0.005,0.02-0.04,0.119-0.074,0.193c-0.067,0.268-0.03,0.494,0.109,0.672c0.228,0.293,0.725,0.436,1.518,0.436
	c0.359,0,0.709-0.027,0.99-0.051c0.08-0.006,0.153-0.012,0.217-0.016c-0.232,0.779-0.605,1.539-0.966,2.277
	c-0.398,0.811-0.81,1.648-1.047,2.533l-0.048,0.186c-0.237,0.902-0.459,1.754,0.79,2.182l0.044,0.008
	c0.093,0,0.276,0.006,0.496,0.014c0.334,0.012,0.752,0.025,1.073,0.025h0.394c1.013,0,6.113-0.168,6.972-3.471l0.044-0.166h-0.173
	c-0.974,0-1.828,0.455-2.655,0.896c-0.81,0.432-1.648,0.877-2.586,0.877c-0.752,0-1.173-0.109-1.364-0.357
	c-0.179-0.232-0.189-0.631-0.027-1.25c0.378-1.449,0.956-2.406,1.465-3.248c0.219-0.361,0.425-0.703,0.588-1.043
	c0.138-0.285,1.369-0.627,2.454-0.928c1.681-0.469,3.419-0.953,3.608-1.68c0.097-0.395,0.084-0.641-0.04-0.799
	C131.63,137.436,131.392,137.422,131.097,137.422"/>
<path fill="#D80C18" d="M141.35,133.811c-0.058-0.377-1.053-1.295-1.5-1.295c-0.954,0-1.954,1.283-2.101,2.119
	c-0.041,0.232,0.004,0.428,0.132,0.582c0.271,0.322,0.848,0.363,1.319,0.363c0.471,0,1.268-0.418,1.743-0.91
	C141.22,134.379,141.362,134.088,141.35,133.811"/>
<path fill="#D80C18" d="M137.396,138.389c-1.432,0-3.226,4.395-4.791,8.693c-0.157,0.43-0.275,0.756-0.354,0.955
	c-0.067,0.379,0.021,0.756,0.234,1.01c0.169,0.203,0.405,0.311,0.679,0.311c0.878,0,1.806-0.852,2.198-1.68l2.751-6.684
	c0.006-0.012,0.593-1.086,0.618-1.227c0.062-0.35-0.015-0.664-0.221-0.91C138.263,138.562,137.847,138.389,137.396,138.389"/>
<path fill="#D80C18" d="M146.921,138.25c-0.042,0-0.113,0.008-0.163,0.016l-0.079,0.006l-0.035,0.023
	c-0.694,0.492-1.457,0.939-2.193,1.371c-2.259,1.324-4.596,2.695-5.086,5.475c-0.204,1.156-0.035,2.068,0.504,2.711
	c0.672,0.801,1.908,1.189,3.777,1.189c1.686,0,6.813,0,7.528-4.053c0.286-1.623-0.394-3.916-1.583-5.334
	C148.819,138.736,147.896,138.25,146.921,138.25 M144.575,146.744c-0.383,0-1.782-0.148-2.05-0.332l-0.051-0.02
	c-0.078-0.016-0.13-0.047-0.166-0.1c-0.115-0.174-0.034-0.543,0.014-0.764c0.012-0.055,0.023-0.105,0.031-0.146
	c0.35-1.982,2.731-4.639,4.687-4.639c0.544,0,1.028,0.234,1.401,0.68c0.562,0.67,0.814,1.734,0.642,2.713
	C148.671,146.475,146.313,146.744,144.575,146.744"/>
<path fill="#D80C18" d="M161.721,138.605c-0.753,0-1.386,0.352-1.999,0.689c-0.512,0.285-0.995,0.553-1.472,0.553
	c-0.034,0-0.097-0.008-0.14-0.014c-0.015-0.002-0.029-0.004-0.039-0.004c-0.242-0.105-0.939-0.4-1.127-0.4l-0.062,0.01
	c-1.823,0.592-3.666,6.855-3.835,7.811c-0.077,0.445-0.046,0.715,0.107,0.896c0.155,0.186,0.422,0.264,0.892,0.264
	c1.454,0,2.481-1.807,3.474-3.553c0.902-1.586,1.834-3.227,2.985-3.227c0.377,0,0.547,0.043,0.596,0.301
	c-0.008,0.049-0.018,0.119-0.03,0.203c-0.024,0.174-0.058,0.408-0.103,0.66c-0.042,0.24-0.076,0.479-0.103,0.656
	c-0.014,0.1-0.025,0.182-0.033,0.23c-0.122,0.695-0.355,1.357-0.58,2c-0.225,0.637-0.455,1.295-0.577,1.982
	c-0.073,0.42-0.041,0.686,0.106,0.861c0.201,0.242,0.582,0.26,1.098,0.26l0.167,0.002c0.663,0,1.204-0.066,1.642-0.908l1.092-3.953
	l0.021-0.119c0.014-0.076,0.032-0.158,0.051-0.24c0.02-0.086,0.041-0.172,0.055-0.252l0.039-0.217
	c0.213-1.209,0.303-2.844-0.477-3.771C163.07,138.848,162.482,138.605,161.721,138.605"/>
<path fill="#D80C18" d="M196.978,140.324c-0.323-0.094-1.676-0.398-1.939-0.398c-0.689,0-4.585,0.289-5.866,0.385l-0.131,0.01
	c-1.308,0.146-1.815,0.572-2.012,1.686c-0.232,1.32,0.739,1.531,1.594,1.715c0.739,0.16,1.437,0.311,1.506,1.076
	c0.011,0.176-0.053,0.336-0.194,0.488c-0.703,0.748-2.998,0.947-3.281,0.947c-1.557,0-4.795,0-5.928-1.352
	c-0.353-0.418-0.47-0.924-0.359-1.547c0.814-4.615,5.179-6.244,8.365-7.434c1.777-0.662,3.061-1.143,3.203-1.949
	c0.012-0.066,0.013-0.197,0.013-0.197l0.001-0.035l-0.016-0.029c-0.082-0.152-0.547-0.719-0.683-0.828l-0.026-0.023l-0.035-0.006
	c-0.227-0.041-1.373-0.1-1.582-0.1c-4.861,0-11.373,5.508-12.227,10.338c-0.25,1.42-0.005,2.582,0.727,3.455
	c1.105,1.316,3.33,1.984,6.615,1.984c3.279,0,7.662-0.582,7.986-5.58c0.033-0.006,0.072-0.014,0.116-0.021
	c2.927-0.525,4.423-1.191,4.571-2.039C197.427,140.697,197.144,140.4,196.978,140.324"/>
<path fill="#D80C18" d="M205.767,138.447c-0.189,0-0.785,0.035-0.883,0.066c-0.063,0.023-0.24,0.109-0.545,0.26
	c-0.357,0.176-1.021,0.504-1.104,0.523c-0.047-0.016-0.24-0.133-0.355-0.201c-0.24-0.146-0.311-0.188-0.363-0.193
	c-0.146-0.031-0.64-0.041-0.686-0.041c-1.455,0-3.755,8.141-4.011,9.59l-0.028,0.156h2.249c0.181,0,0.345-0.244,1.662-2.832
	c0.712-1.395,1.517-2.977,1.92-3.508c0.274-0.373,0.825-0.652,1.41-0.949c0.837-0.426,1.701-0.865,1.84-1.65
	c0.077-0.438,0.037-0.734-0.128-0.932C206.532,138.482,206.15,138.447,205.767,138.447"/>
<path fill="#D80C18" d="M214.771,138.25c-0.041,0-0.112,0.008-0.162,0.016l-0.08,0.006l-0.034,0.023
	c-0.694,0.492-1.457,0.939-2.193,1.371c-2.259,1.324-4.595,2.695-5.086,5.475c-0.204,1.156-0.034,2.068,0.504,2.711
	c0.673,0.801,1.908,1.189,3.777,1.189c1.687,0,6.813,0,7.528-4.053c0.285-1.623-0.395-3.916-1.584-5.334
	C216.669,138.736,215.747,138.25,214.771,138.25 M212.425,146.744c-0.383,0-1.781-0.148-2.049-0.332l-0.052-0.02
	c-0.078-0.016-0.13-0.047-0.166-0.1c-0.115-0.174-0.034-0.543,0.014-0.764c0.013-0.055,0.022-0.105,0.031-0.146
	c0.35-1.982,2.731-4.639,4.687-4.639c0.545,0,1.028,0.234,1.401,0.68c0.562,0.67,0.813,1.734,0.642,2.713
	C216.521,146.475,214.164,146.744,212.425,146.744"/>
<path fill="#D80C18" d="M233.166,147.414c0.02-0.115,0.031-0.543,0.027-0.623l-0.011-0.125h-0.124c-1.699,0-2.355-0.359-2.607-0.66
	c-0.162-0.191-0.215-0.42-0.166-0.701c0.162-0.924,0.535-1.824,0.897-2.697c0.364-0.877,0.74-1.785,0.905-2.723
	c0.109-0.617,0.16-1.01-0.055-1.266c-0.158-0.189-0.434-0.27-0.918-0.27c-1.117,0-1.852,1.531-2.629,3.152
	c-0.91,1.893-1.939,4.041-3.705,4.041c-0.321,0-0.52-0.059-0.621-0.182c-0.108-0.127-0.131-0.352-0.071-0.688
	c0.005-0.035,0.024-0.098,0.038-0.145c0.009-0.027,0.015-0.053,0.015-0.053l1.488-3.961c0.005-0.027,0.021-0.094,0.038-0.17
	c0.023-0.098,0.048-0.209,0.058-0.264c0.068-0.379-0.021-0.758-0.233-1.01c-0.168-0.203-0.404-0.309-0.678-0.309
	c-1.554,0-2.695,2.012-3.395,5.982c-0.209,1.182-0.34,2.488,0.283,3.23c0.318,0.379,0.808,0.572,1.453,0.572
	c1.318,0,2.201-0.527,3.539-1.326c0.131-0.078,0.267-0.16,0.408-0.244c0.879,1.312,2.118,1.924,3.895,1.924
	C231.918,148.902,232.971,148.512,233.166,147.414"/>
<path fill="#D80C18" d="M247.318,139.439c-0.75-0.895-2.222-1.387-4.145-1.387c-2.003,0-3.146,1.266-4.254,2.488
	c-0.623,0.689-1.27,1.402-2.071,1.893c-0.004,0.002-0.446,0.326-0.511,0.453l-5.501,13.406c-0.003,0.012-0.011,0.045-0.023,0.096
	c-0.038,0.146-0.106,0.424-0.142,0.615l-0.041,0.238c-0.115,0.652-0.191,1.082,0.029,1.344c0.187,0.225,0.554,0.271,1.047,0.271
	c0.048,0,0.101,0.002,0.158,0.004c0.068,0.002,0.143,0.006,0.221,0.006c0.326,0,0.785-0.055,1.003-0.523l3.952-9.037l0.397-0.34
	c5.919,0.42,9.548-2.014,10.425-6.992C248.045,140.941,247.863,140.088,247.318,139.439 M240.156,146.783
	c-0.761,0-1.199-0.119-1.425-0.389c-0.225-0.268-0.27-0.732-0.141-1.465c0.336-1.904,3.198-4.244,5.19-4.244
	c0.556,0,0.932,0.127,1.15,0.387c0.242,0.289,0.301,0.762,0.182,1.447C244.74,144.631,242.238,146.783,240.156,146.783"/>
</svg>
