<?xml version="1.0" encoding="utf-8"?>
<!-- Generator: Adobe Illustrator 16.0.0, SVG Export Plug-In . SVG Version: 6.00 Build 0)  -->
<!DOCTYPE svg PUBLIC "-//W3C//DTD SVG 1.1//EN" "http://www.w3.org/Graphics/SVG/1.1/DTD/svg11.dtd">
<svg version="1.1" id="圖層_1" xmlns="http://www.w3.org/2000/svg" xmlns:xlink="http://www.w3.org/1999/xlink" x="0px" y="0px"
	 width="215.286px" height="106.369px" viewBox="0 0 215.286 106.369" enable-background="new 0 0 215.286 106.369"
	 xml:space="preserve">
<g>
	<g>
		<path fill="#595757" d="M23.308,89.767c-0.455-0.301-1.023-0.432-1.641-0.432c-1.438,0-2.344,1.15-2.344,2.574
			c0,0.979,0.66,1.766,1.666,1.766c0.271,0,0.451,0,0.584-0.059l0.33-1.6h-1.252l0.193-0.953h2.396l-0.678,3.295
			c-0.346,0.148-1.006,0.268-1.582,0.268c-1.734,0-2.895-0.812-2.895-2.68c0-2.205,1.414-3.562,3.547-3.562
			c0.658,0,1.354,0.094,1.971,0.338L23.308,89.767z"/>
		<path fill="#595757" d="M27.284,88.487h3.479l-0.18,0.951h-2.309l-0.305,1.486h2.064l-0.188,0.951h-2.072l-0.348,1.695h2.338
			l-0.205,0.951h-3.521L27.284,88.487z"/>
		<path fill="#595757" d="M34.147,88.487h1.496l1.262,4.582h0.018l0.963-4.582h1.119l-1.279,6.035h-1.521l-1.236-4.627h-0.016
			l-0.941,4.627h-1.133L34.147,88.487z"/>
		<path fill="#595757" d="M42.552,88.487h3.479l-0.178,0.951h-2.311l-0.305,1.486H45.3l-0.184,0.951h-2.072l-0.348,1.695h2.336
			l-0.205,0.951h-3.52L42.552,88.487z"/>
		<path fill="#595757" d="M49.364,88.487h1.395c1.092,0,2.354-0.018,2.354,1.428c0,1.035-0.762,1.59-1.725,1.605v0.018
			c0.32,0.018,0.521,0.225,0.6,0.555l0.566,2.43H51.31l-0.289-1.42c-0.133-0.637-0.1-1.086-0.744-1.086h-0.447l-0.516,2.506h-1.186
			L49.364,88.487z M50.042,91.063h0.432c0.633,0,1.404-0.199,1.404-0.996c0-0.629-0.535-0.629-1.016-0.629H50.37L50.042,91.063z"/>
		<path fill="#595757" d="M58.751,88.487h1.311l1.076,6.035h-1.186l-0.203-1.383h-2.512l-0.754,1.383h-1.311L58.751,88.487z
			 M57.761,92.187h1.828l-0.373-2.627h-0.033L57.761,92.187z"/>
		<path fill="#595757" d="M65.253,88.487h1.186l-1.061,5.084h2.318l-0.201,0.951h-3.494L65.253,88.487z"/>
		<path fill="#595757" d="M76.13,88.487h1.953l0.398,4.35h0.016l2.328-4.35h1.971l-1.26,6.035h-1.252l1.117-4.996h-0.018
			l-2.674,4.996h-1.133l-0.475-4.996h-0.018l-1.082,4.996h-1.127L76.13,88.487z"/>
		<path fill="#595757" d="M91.198,90.942c0,0.984-0.355,1.945-0.99,2.674c-0.617,0.699-1.516,1.01-2.506,1.01
			c-1.455,0-2.326-1.072-2.326-2.508c0-0.957,0.33-1.893,0.932-2.611c0.643-0.752,1.463-1.123,2.428-1.123
			C90.335,88.384,91.198,89.335,91.198,90.942z M86.612,92.187c0,0.787,0.389,1.488,1.242,1.488c1.354,0,2.107-1.658,2.107-2.863
			c0-0.803-0.404-1.477-1.26-1.477C87.323,89.335,86.612,90.97,86.612,92.187z"/>
		<path fill="#595757" d="M95.021,88.487h1.754c0.92,0,1.783,0.346,1.783,1.443c0,0.736-0.574,1.324-1.26,1.438v0.018
			c0.658,0.102,0.947,0.621,0.947,1.268c0,1.73-1.896,1.869-2.775,1.869h-1.686L95.021,88.487z M95.114,93.571h0.404
			c0.729,0,1.543-0.086,1.543-1.02c0-0.631-0.576-0.727-1.211-0.727H95.47L95.114,93.571z M95.655,90.925h0.465
			c0.602,0,1.254-0.174,1.254-0.881c0-0.578-0.543-0.605-0.99-0.605h-0.416L95.655,90.925z"/>
		<path fill="#595757" d="M102.39,88.487h1.236l-1.244,6.035h-1.236L102.39,88.487z"/>
		<path fill="#595757" d="M107.116,88.487h1.186l-1.059,5.084h2.318l-0.203,0.951h-3.494L107.116,88.487z"/>
		<path fill="#595757" d="M113.538,88.487h3.477l-0.176,0.951h-2.311l-0.305,1.486h2.064l-0.188,0.951h-2.07l-0.35,1.695h2.336
			l-0.203,0.951h-3.52L113.538,88.487z"/>
		<path fill="#595757" d="M128.722,89.688c-0.271-0.189-0.721-0.354-1.355-0.354c-1.311,0-2.232,1.01-2.232,2.428
			c0,1.014,0.643,1.912,1.684,1.912c0.5,0,0.904-0.166,1.244-0.373l-0.186,1.158c-0.434,0.123-0.891,0.166-1.338,0.166
			c-1.785,0-2.641-1.227-2.641-2.863c0-1.943,1.295-3.379,3.385-3.379c0.594,0,1.219,0.078,1.734,0.293L128.722,89.688z"/>
		<path fill="#595757" d="M137.048,90.942c0,0.984-0.354,1.945-0.988,2.674c-0.619,0.699-1.514,1.01-2.506,1.01
			c-1.455,0-2.326-1.072-2.326-2.508c0-0.957,0.33-1.893,0.93-2.611c0.645-0.752,1.465-1.123,2.43-1.123
			C136.187,88.384,137.048,89.335,137.048,90.942z M132.464,92.187c0,0.787,0.389,1.488,1.242,1.488
			c1.355,0,2.107-1.658,2.107-2.863c0-0.803-0.404-1.477-1.262-1.477C133.173,89.335,132.464,90.97,132.464,92.187z"/>
		<path fill="#595757" d="M140.872,88.487h1.396c1.092,0,2.354-0.018,2.354,1.428c0,1.035-0.764,1.59-1.727,1.605v0.018
			c0.32,0.018,0.523,0.225,0.6,0.555l0.566,2.43h-1.242l-0.289-1.42c-0.135-0.637-0.102-1.086-0.744-1.086h-0.449l-0.514,2.506
			h-1.186L140.872,88.487z M141.55,91.063h0.432c0.635,0,1.404-0.199,1.404-0.996c0-0.629-0.533-0.629-1.016-0.629h-0.492
			L141.55,91.063z"/>
		<path fill="#595757" d="M148.245,94.522h-1.184l1.252-6.035h0.998c1.092,0,2.59,0.061,2.59,1.566c0,1.459-1.176,2.178-2.496,2.178
			h-0.686L148.245,94.522z M148.923,91.28h0.424c0.65,0,1.32-0.346,1.32-1.1c0-0.613-0.484-0.742-0.992-0.742h-0.371L148.923,91.28z
			"/>
		<path fill="#595757" d="M160.233,90.942c0,0.984-0.357,1.945-0.99,2.674c-0.617,0.699-1.516,1.01-2.504,1.01
			c-1.455,0-2.326-1.072-2.326-2.508c0-0.957,0.328-1.893,0.928-2.611c0.645-0.752,1.465-1.123,2.43-1.123
			C159.37,88.384,160.233,89.335,160.233,90.942z M155.647,92.187c0,0.787,0.389,1.488,1.244,1.488c1.354,0,2.107-1.658,2.107-2.863
			c0-0.803-0.406-1.477-1.262-1.477C156.356,89.335,155.647,90.97,155.647,92.187z"/>
		<path fill="#595757" d="M164.056,88.487h1.396c1.092,0,2.354-0.018,2.354,1.428c0,1.035-0.764,1.59-1.727,1.605v0.018
			c0.322,0.018,0.525,0.225,0.6,0.555l0.568,2.43h-1.244l-0.289-1.42c-0.135-0.637-0.1-1.086-0.744-1.086h-0.447l-0.518,2.506
			h-1.182L164.056,88.487z M164.733,91.063h0.432c0.635,0,1.404-0.199,1.404-0.996c0-0.629-0.533-0.629-1.016-0.629h-0.49
			L164.733,91.063z"/>
		<path fill="#595757" d="M173.442,88.487h1.312l1.074,6.035h-1.184l-0.203-1.383h-2.514l-0.752,1.383h-1.312L173.442,88.487z
			 M172.454,92.187h1.828l-0.375-2.627h-0.031L172.454,92.187z"/>
		<path fill="#595757" d="M178.86,88.487h4.561l-0.193,0.951h-1.668l-1.074,5.084h-1.234l1.074-5.084h-1.666L178.86,88.487z"/>
		<path fill="#595757" d="M186.265,88.487h1.234l-1.244,6.035h-1.234L186.265,88.487z"/>
		<path fill="#595757" d="M195.849,90.942c0,0.984-0.357,1.945-0.99,2.674c-0.617,0.699-1.516,1.01-2.504,1.01
			c-1.457,0-2.328-1.072-2.328-2.508c0-0.957,0.328-1.893,0.932-2.611c0.643-0.752,1.463-1.123,2.428-1.123
			C194.987,88.384,195.849,89.335,195.849,90.942z M191.261,92.187c0,0.787,0.389,1.488,1.244,1.488
			c1.355,0,2.107-1.658,2.107-2.863c0-0.803-0.404-1.477-1.26-1.477C191.974,89.335,191.261,90.97,191.261,92.187z"/>
		<path fill="#595757" d="M199.692,88.487h1.496l1.262,4.582h0.018l0.963-4.582h1.117l-1.275,6.035h-1.523l-1.234-4.627h-0.018
			l-0.938,4.627h-1.137L199.692,88.487z"/>
	</g>
	<g>
		<path fill="#595757" d="M166.071,70.876c-0.543-1.158-1.494-2.395-2.975-3.867l-2.801,1.521c1.205,1.363,2.062,2.689,2.555,3.949
			L166.071,70.876z"/>
		<path fill="#595757" d="M167.794,64.073c-0.564-1.172-1.473-2.359-2.84-3.711l-2.793,1.498c1.188,1.379,1.963,2.623,2.365,3.797
			L167.794,64.073z"/>
		<path fill="#595757" d="M131.897,79.526v-0.008c-0.041,0.053-0.082,0.1-0.123,0.15C131.851,79.583,131.897,79.526,131.897,79.526z
			"/>
		<g>
			<path fill="#595757" d="M130.024,65.19l0.426-2.014h-5.02l0.303-1.418l0.125-0.016c2.006-0.256,3.49-0.518,4.65-0.83
				l-0.932-1.893c-2.447,0.678-6.613,1.152-10.193,1.152c-0.494,0-0.971-0.008-1.416-0.027l0.426,2.053
				c1.211,0.023,2.596-0.021,4.141-0.127l0.152-0.012l-0.238,1.117h-4.801l-0.424,2.014h4.801l-0.236,1.109h-4.801l-1.689,7.973
				h4.803l-0.234,1.111h-4.787l-0.432,2.033h4.787l-0.375,1.764h-5.486l-0.518,2.439h12.213l1.814-2.439h-5.041l0.373-1.764h5.551
				l0.43-2.033h-5.547l0.232-1.111h4.932L129.7,66.3h-4.932l0.236-1.109H130.024z M119.386,68.21h1.998l-0.277,1.312h-2
				L119.386,68.21z M118.505,72.364l0.285-1.336h1.996l-0.281,1.336H118.505z M125.538,72.364h-2.053l0.283-1.336h2.051
				L125.538,72.364z M126.419,68.21l-0.281,1.312h-2.049l0.279-1.312H126.419z"/>
		</g>
		<path fill="#595757" d="M96.06,66.239c1.791-0.971,3.438-2.08,4.912-3.299l0.055-0.045h3.545l-0.193,0.209
			c-0.752,0.82-1.646,1.615-2.656,2.357l-0.098,0.074l-0.088-0.051c-0.496-0.293-1.053-0.582-1.65-0.871l-2.334,1.615
			c0.516,0.299,0.945,0.57,1.312,0.824l0.162,0.113l-0.211,0.113c-1.641,0.867-3.428,1.586-5.314,2.137l1.129,2.521
			c0.088,0.131,2.98-1.191,3.24-1.309c0.887-0.398,4.459-2.398,5.4-3.086c1.871-1.367,3.482-2.932,4.822-4.668h0.016l0.006-0.029
			l0.416-1.959l0.098-0.459h-1.172h-3.58h-0.197l0.184-0.205c0.211-0.244,0.416-0.486,0.605-0.721
			c0.059-0.07,0.117-0.143,0.176-0.213l-3.344-0.273c-1.637,2.066-4.357,4.145-7.322,5.6L96.06,66.239z"/>
		<path fill="#595757" d="M107.069,70.437h-3.416l0.217-0.215c0.377-0.375,0.764-0.791,1.16-1.242
			c-0.244-0.025-0.787-0.07-1.9-0.164l-1.428-0.082l-1.99,1.703c-1.869,1.67-3.312,2.799-5.812,4.02l1.053,2.293
			c2.092-1.105,4.035-2.363,5.783-3.727l0.055-0.045h3.621l-0.152,0.197c-0.855,1.121-1.826,2.096-2.959,2.977l-0.096,0.08
			l-0.094-0.055c-0.488-0.283-1.23-0.713-2.123-1.148c-0.23,0.182-0.824,0.59-2.369,1.66c0.637,0.367,1.203,0.738,1.721,1.137
			l0.154,0.117l-0.205,0.107c-2.061,1.057-4.559,1.883-7.428,2.453l1.869,2.398c7.008-1.797,11.885-5.006,15.176-10.004h0.008
			l0.006-0.021l0.424-2.002l0.092-0.438H107.069z"/>
		<g>
			<path fill="#595757" d="M28.562,79.481c-2.01-0.051-3.535-0.449-4.938-2.279l-0.027-0.039l1.691-7.984h-6.188l-0.566,2.672h3.004
				l-1.217,5.762l-0.074,0.041c-1.342,0.766-2.596,1.406-3.725,1.904l0.773,2.9c1.529-0.883,2.918-1.764,4.35-2.76l0.131-0.09
				l0.08,0.098c1.41,1.689,2.824,2.289,5.602,2.367c1.441,0.041,3.648,0.064,6.207,0.064c3.086,0,6.195-0.031,8.166-0.088
				l1.156-2.688c-2.623,0.115-6.797,0.156-9.881,0.156C31.259,79.519,29.644,79.503,28.562,79.481z"/>
			<path fill="#595757" d="M27.099,63.698c-0.635-1.33-1.666-2.727-3.148-4.273l-2.828,1.521c1.299,1.531,2.217,3.018,2.734,4.426
				L27.099,63.698z"/>
			<path fill="#595757" d="M41.157,65.044h-2.924l0.434-0.244c1.697-0.967,3.393-2.002,4.891-2.982l0.488-2.301H31.093l-0.482,2.287
				h8.66l-0.334,0.236c-0.742,0.525-1.596,1.088-2.459,1.631l-0.102,0.066l-0.082-0.061c-0.609-0.449-1.436-1.027-2.42-1.6
				l-2.242,1.375c0.592,0.389,1.176,0.812,1.875,1.348l0.322,0.244h-3.172l0.002-0.008h-1.141c-0.072,0-0.137,0.002-0.199,0.008
				c-0.588,0.047-0.926,0.305-1.025,0.787l-1.225,5.775l-1.439,6.789h3.238l0.828-3.906h3.055l-0.832,3.93h3.211l0.832-3.93h3.195
				l-0.828,3.906h1.098h1.465c0.473,0,0.803-0.326,0.896-0.77l0.322-1.531l0.902-4.246l1.439-6.805H41.157z M33.204,72.351h-3.055
				l0.328-1.539h3.053L33.204,72.351z M33.968,68.747h-3.055l0.316-1.488h3.055L33.968,68.747z M37.497,67.259h3.191l-0.314,1.488
				h-3.197L37.497,67.259z M36.415,72.351l0.326-1.539h3.195l-0.326,1.539H36.415z"/>
		</g>
		<path fill="#595757" d="M169.767,74.386l3.107-14.66h-0.033h-2.107c-0.846,0.068-1.348,0.43-1.553,1.072l-1.961,9.266
			l-0.916,4.322h-7.537l1.201,2.672h5.77l-0.039,0.189l-1.094,5.174h3.463l1.133-5.363h3.689l0.568-2.672H169.767z"/>
		<g>
			<path fill="#595757" d="M198.817,77.61l-0.145-0.092l0.16-0.123c2.131-1.68,3.908-3.738,5.318-6.125l0,0l0.498-2.359l0.086-0.418
				h-1.828l-0.012-0.002l-0.641,0.002h-2.422l0.641-3.008h5.816l0.6-2.822h-5.82l0.775-3.656h-0.023h-2.105
				c-0.859,0.07-1.369,0.443-1.562,1.109c-0.146,0.68-0.271,1.273-0.395,1.84c-0.055,0.234-0.107,0.473-0.158,0.707h-5.754
				l-0.602,2.822h5.75l-0.641,3.008h-5.123l-0.596,2.812c0.398,2.375,1.303,4.42,2.715,6.09l0.102,0.123l-0.178,0.092
				c-1.92,0.934-4.037,1.633-6.303,2.076l0.072,0.115l1.5,2.525l0.064,0.104c2.416-0.631,4.682-1.545,6.748-2.705l0.014-0.051
				c0.041-0.021,0.08-0.041,0.121-0.062l0.102-0.055l0.074,0.055c1.611,1.215,3.553,2.164,5.771,2.818l2.801-2.744
				C202.163,79.243,200.341,78.544,198.817,77.61z M196.634,75.661l-0.123,0.094l-0.088-0.094c-0.91-0.988-1.568-2.131-1.984-3.391
				c-0.08-0.27-0.162-0.537-0.217-0.82l-0.041-0.18h2.973h3.445l-0.119,0.18C199.47,73.065,198.21,74.44,196.634,75.661z"/>
		</g>
		<g>
			<path fill="#595757" d="M186.778,71.104l0.373-1.762l0.678-3.201h0.021h2.342l0.59-2.799h-2.342h-0.018l0.916-4.312h-2.277
				c-0.643,0.094-1.184,0.369-1.283,0.842l-0.734,3.471h-0.062h-3.338l-0.59,2.799h3.336h0.061l-0.676,3.201l-0.375,1.762h-3.957
				l-0.596,2.795h3.961l-0.109,0.52l-0.91,4.291c-0.07,0.346-0.246,0.752-0.926,0.818c-0.164,0.01-0.412,0.016-0.699,0.016
				c-0.508,0-1.018-0.018-1.434-0.049c0.002,0.279,0.014,1.023,0.045,2.963c0.334,0.016,0.707,0.02,1.084,0.02
				c0.906,0,1.723-0.035,2.188-0.096c1.738-0.252,2.58-1.117,2.998-3.092l1.143-5.391h2.92l0.592-2.795H186.778z"/>
		</g>
		<g>
			<path fill="#595757" d="M137.358,63.61h-0.348l0.037-0.141c0.416-1.709,0.596-2.545,0.99-4.41h-0.947h-0.875
				c-0.828,0.064-1.324,0.414-1.535,1.025l-0.369,1.729c-0.088,0.389-0.182,0.793-0.291,1.25c-0.033,0.131-0.068,0.27-0.102,0.412
				l-0.035,0.135h-2.32l-0.572,2.693h2.252l-0.039,0.143c-0.953,3.51-2.021,7.145-4.172,10.5c-0.256,0.398-2.578,3.926-3.219,4.668
				h3.754c2.396-2.729,4.443-7.467,5.918-12.221c0.309-0.988,0.594-1.984,0.85-2.957l0.031-0.133h0.42h1.482l-0.035,0.139
				c-2.24,9.578-3.029,11.799-3.52,12.191c-0.188,0.174-0.451,0.197-0.688,0.197c-0.117,0.008-0.285,0.01-0.475,0.01
				c-0.141,0-0.742-0.002-0.885-0.002l-0.584,2.754c0.676,0.016,1.969,0.029,2.418,0.01c0.996-0.025,1.719-0.219,2.281-0.602
				c1.314-0.936,2.906-7.195,5.371-17.391H137.358z"/>
		</g>
		<path fill="#595757" d="M90.815,68.552l-0.01-0.051H93.8l0.559-2.645h-3.062l0.738-3.488l0.115-0.025
			c1.314-0.324,2.486-0.682,3.408-1.043l-1.225-2.275c-2.227,0.941-6.125,1.793-9.236,2.025l0.576,2.42
			c0.789-0.072,1.662-0.184,2.674-0.344l0.186-0.029l-0.588,2.76h-3.764l-0.561,2.645h3.656l-0.107,0.18
			c-1.73,2.352-5.193,6.281-7.145,8.541h3.391l2.682-3.137l0.141-0.17l-1.812,8.562h1.16h0.836c0.865-0.068,1.373-0.439,1.568-1.107
			c0.266-1.256,0.475-2.223,0.703-3.232l0.16-0.742l0.312-1.48l0.424-1.992l1.418,3.299h3.389
			C93.417,74.985,91.563,70.946,90.815,68.552z"/>
		<path fill="#595757" d="M155.673,68.552l-0.008-0.051h2.994l0.561-2.645h-3.062l0.738-3.488l0.115-0.025
			c1.312-0.324,2.486-0.682,3.41-1.043l-1.229-2.275c-2.227,0.941-6.123,1.793-9.234,2.025l0.576,2.42
			c0.787-0.072,1.66-0.184,2.67-0.344l0.188-0.029l-0.586,2.76h-3.764l-0.561,2.645h3.658l-0.109,0.18
			c-1.734,2.352-5.193,6.281-7.145,8.541h3.389l2.682-3.137l0.145-0.17l-1.816,8.562h1.164h0.834
			c0.863-0.068,1.371-0.439,1.568-1.107c0.264-1.256,0.477-2.223,0.703-3.232l0.158-0.742l0.316-1.48l0.42-1.992l1.418,3.299h3.393
			C158.278,74.985,156.425,70.946,155.673,68.552z"/>
		<g>
			<path fill="#595757" d="M59.554,60.071h-0.055h-1.207h-0.846c-0.861,0.068-1.371,0.441-1.564,1.109
				c-0.143,0.682-0.273,1.273-0.395,1.84l-0.766,3.617l-0.627,2.965c-0.061,0.268-0.123,0.535-0.184,0.805
				c-0.025,0.104-0.047,0.205-0.07,0.309l-2.486,11.742h0.137h3.266l1.516-7.158h5.266l-1.406,6.646h3.293l1.408-6.646h5.525
				l-0.732,3.459c-0.115,0.541-0.373,0.762-0.953,0.818c-0.191,0.025-0.49,0.029-0.709,0.029c-0.291,0-0.613-0.008-0.932-0.021
				l-0.6,2.846c-0.002,0.008-0.002,0.018,0,0.027c0.457,0.02,0.945,0.027,1.404,0.027c0.924,0,1.674-0.037,2.107-0.104
				c1.725-0.248,2.559-1.107,2.973-3.064l4.074-19.246H59.554z M62.132,72.503h-5.264l0.441-2.096l0.299-1.398h0.051h5.215
				L62.132,72.503z M63.458,66.235h-5.209h-0.055l0.717-3.391h0.057h5.209L63.458,66.235z M70.954,72.503h-5.529l0.738-3.494h5.529
				L70.954,72.503z M72.28,66.235h-5.527l0.719-3.391h5.527L72.28,66.235z"/>
		</g>
	</g>
	<g>
		<g>
			<path fill="#3B90C8" d="M149.853,35.894c-2.018,9.488-8.666,14.287-19.791,14.287c-11.123,0-15.666-4.799-13.648-14.287
				c2.041-9.592,8.609-14.338,19.732-14.338S151.892,26.302,149.853,35.894z M125.796,35.894c-1.07,5.371,0.787,8.084,5.514,8.084
				c4.729,0,7.689-2.816,8.922-8.291c1.143-5.371-0.656-8.029-5.381-8.029C129.981,27.657,126.96,30.421,125.796,35.894z"/>
			<path fill="#3B90C8" d="M205.024,21.972l-5.861,27.584h-9.248l5.152-24.246c0.479-2.24,2.168-3.338,5.16-3.338H205.024z"/>
			<path fill="#3B90C8" d="M206.696,14.1l-1.15,5.422h-9.248l0.432-2.035c0.408-2.239,2.111-3.387,5.17-3.387H206.696z"/>
			<g>
				<path fill="#3B90C8" d="M177.022,21.556c-4.586,0-8.363,1.408-11.336,4.275l2.496-11.731h-4.59h-0.07
					c-3.059,0-4.844,1.201-5.33,3.495l-1.754,8.237l0,0l-2.094,9.848l-0.006,0.043l-0.402,1.895
					c-0.91,4.279-0.031,7.438,2.598,9.494c2.463,1.926,6.459,2.887,12.018,2.863c11.434-0.158,18.119-4.799,20.072-13.977
					C190.616,26.612,186.769,21.817,177.022,21.556z M169.524,44.079c-5.273,0-7.176-2.803-5.939-8.357l0.008-0.043
					c1.408-5.314,4.537-7.916,9.539-7.916c5.004,0,7.023,2.604,6.102,7.924C178.048,41.265,174.808,44.079,169.524,44.079z"/>
			</g>
			<path fill="#3B90C8" d="M107.419,14.1h-5.285L87.147,41.108L83.364,14.1h-5.088h-4.297c-2.713,0-5.244,1.773-5.676,3.807
				l-6.729,31.649h9.107l6.086-28.625l0.02,0.172l3.559,28.453h9.873l15.748-28.625l-6.145,28.625h0.059h4.24
				c2.713,0,5.246-1.773,5.676-3.807l6.729-31.649H107.419z"/>
		</g>
		<path fill="#3B90C8" d="M41.964,18.827c4.59,0,7.559,1.408,8.824,4.278c0.859,1.197,2.115,1.824,3.854,1.824h5.979
			c0.508-4.014-0.855-7.09-4.006-9.28c-3.518-2.086-8.094-3.127-13.586-3.127c-10.172,0-22.375,3.9-21.168,16.257
			c0.398,4.096,3.346,8.113,5.873,9.314c-1.383-2.193-1.176-5.111-0.617-7.637C28.839,22.687,33.831,18.827,41.964,18.827z"/>
		<path fill="#F5A200" d="M53.771,32.354h-0.111H39.954l-0.551,2.225c-0.184,0.748-0.029,1.471,0.449,2.082
			c0.756,0.967,2.258,1.541,4.018,1.541h3.943c0,0,0.014,0.002,0.035,0.002c-3.842,2.785-8.42,4.471-13.035,4.471
			c-10.268,0-16.824-8.322-14.641-18.592c0.014-0.061,0.029-0.121,0.043-0.182c0.01-0.047,0.014-0.09,0.023-0.137
			c0,0-2.215,3.725-2.781,5.578c-0.182,0.598-0.332,1.203-0.443,1.816c-1.887,10.438,5.125,18.633,18.68,18.633
			c4.951,0,9.68-1.527,14.682-5.512l-0.457,1.842c-0.305,1.244-0.15,2.344,0.443,3.102c0.484,0.617,1.232,0.957,2.107,0.957
			c0.219,0,0.445-0.02,0.674-0.061l2.592-0.457l4.273-17.309H53.771z"/>
	</g>
</g>
</svg>
