<?xml version="1.0" encoding="utf-8"?>
<!-- Generator: Adobe Illustrator 16.0.0, SVG Export Plug-In . SVG Version: 6.00 Build 0)  -->
<!DOCTYPE svg PUBLIC "-//W3C//DTD SVG 1.1//EN" "http://www.w3.org/Graphics/SVG/1.1/DTD/svg11.dtd">
<svg version="1.1" id="圖層_1" xmlns="http://www.w3.org/2000/svg" xmlns:xlink="http://www.w3.org/1999/xlink" x="0px" y="0px"
	 width="196.667px" height="76.667px" viewBox="0 0 196.667 76.667" enable-background="new 0 0 196.667 76.667"
	 xml:space="preserve">
<g>
	<g>
		<path fill="#595757" d="M9.666,61.108c-0.459-0.303-1.027-0.432-1.645-0.432c-1.441,0-2.35,1.15-2.35,2.582
			c0,0.979,0.66,1.766,1.67,1.766c0.271,0,0.449,0,0.586-0.061l0.33-1.604H7.002l0.195-0.951h2.4L8.92,65.709
			c-0.35,0.146-1.01,0.268-1.586,0.268c-1.738,0-2.9-0.814-2.9-2.686c0-2.209,1.416-3.568,3.553-3.568
			c0.662,0,1.357,0.094,1.977,0.336L9.666,61.108z"/>
		<path fill="#595757" d="M13.648,59.827h3.484l-0.178,0.953h-2.314l-0.307,1.49h2.07l-0.188,0.953h-2.076l-0.348,1.697h2.34
			l-0.203,0.953h-3.527L13.648,59.827z"/>
		<path fill="#595757" d="M20.525,59.827h1.5l1.264,4.592h0.018l0.967-4.592h1.119l-1.281,6.047h-1.525l-1.238-4.635H21.33
			l-0.941,4.635h-1.135L20.525,59.827z"/>
		<path fill="#595757" d="M28.947,59.827h3.484l-0.178,0.953h-2.314l-0.305,1.49h2.068l-0.188,0.953h-2.076l-0.348,1.697h2.34
			l-0.203,0.953h-3.527L28.947,59.827z"/>
		<path fill="#595757" d="M35.773,59.827h1.398c1.094,0,2.357-0.018,2.357,1.43c0,1.039-0.764,1.594-1.73,1.611v0.018
			c0.322,0.018,0.525,0.225,0.602,0.555l0.568,2.434h-1.246l-0.289-1.42c-0.135-0.643-0.1-1.094-0.746-1.094h-0.449l-0.516,2.514
			h-1.188L35.773,59.827z M36.451,62.409h0.432c0.637,0,1.408-0.199,1.408-0.996c0-0.633-0.533-0.633-1.018-0.633h-0.492
			L36.451,62.409z"/>
		<path fill="#595757" d="M45.18,59.827h1.312l1.078,6.047h-1.188l-0.203-1.387h-2.52l-0.754,1.387h-1.312L45.18,59.827z
			 M44.188,63.536h1.83l-0.371-2.635h-0.035L44.188,63.536z"/>
		<path fill="#595757" d="M51.693,59.827h1.186L51.82,64.92h2.324l-0.203,0.953h-3.504L51.693,59.827z"/>
		<path fill="#595757" d="M62.592,59.827h1.959l0.398,4.357h0.018l2.33-4.357h1.977l-1.264,6.047h-1.254l1.117-5.008h-0.016
			l-2.68,5.008h-1.137l-0.475-5.008h-0.016l-1.086,5.008h-1.129L62.592,59.827z"/>
		<path fill="#595757" d="M77.692,62.288c0,0.988-0.355,1.949-0.992,2.676c-0.619,0.703-1.518,1.014-2.51,1.014
			c-1.459,0-2.333-1.074-2.333-2.512c0-0.961,0.331-1.898,0.934-2.617c0.643-0.754,1.467-1.125,2.432-1.125
			C76.827,59.723,77.692,60.676,77.692,62.288z M73.096,63.536c0,0.787,0.391,1.488,1.246,1.488c1.355,0,2.111-1.664,2.111-2.867
			c0-0.805-0.406-1.48-1.264-1.48C73.809,60.676,73.096,62.313,73.096,63.536z"/>
		<path fill="#595757" d="M81.522,59.827h1.756c0.924,0,1.789,0.346,1.789,1.447c0,0.736-0.578,1.324-1.264,1.438v0.018
			c0.66,0.104,0.949,0.623,0.949,1.273c0,1.732-1.898,1.871-2.781,1.871h-1.688L81.522,59.827z M81.616,64.92h0.406
			c0.729,0,1.543-0.086,1.543-1.021c0-0.633-0.576-0.729-1.213-0.729h-0.381L81.616,64.92z M82.159,62.27h0.465
			c0.604,0,1.256-0.174,1.256-0.885c0-0.58-0.543-0.605-0.992-0.605h-0.416L82.159,62.27z"/>
		<path fill="#595757" d="M88.907,59.827h1.238l-1.248,6.047h-1.236L88.907,59.827z"/>
		<path fill="#595757" d="M93.641,59.827h1.188l-1.061,5.094h2.324l-0.203,0.953h-3.502L93.641,59.827z"/>
		<path fill="#595757" d="M100.077,59.827h3.484l-0.18,0.953h-2.312l-0.307,1.49h2.068l-0.186,0.953h-2.078l-0.346,1.697h2.34
			l-0.205,0.953h-3.525L100.077,59.827z"/>
		<path fill="#595757" d="M115.29,61.03c-0.271-0.189-0.721-0.354-1.355-0.354c-1.314,0-2.24,1.014-2.24,2.434
			c0,1.014,0.646,1.914,1.688,1.914c0.5,0,0.906-0.164,1.248-0.371l-0.188,1.16c-0.432,0.121-0.891,0.164-1.34,0.164
			c-1.789,0-2.645-1.23-2.645-2.867c0-1.949,1.297-3.387,3.391-3.387c0.594,0,1.221,0.076,1.738,0.293L115.29,61.03z"/>
		<path fill="#595757" d="M123.635,62.288c0,0.988-0.357,1.949-0.992,2.676c-0.619,0.703-1.518,1.014-2.51,1.014
			c-1.459,0-2.332-1.074-2.332-2.512c0-0.961,0.33-1.898,0.934-2.617c0.643-0.754,1.467-1.125,2.434-1.125
			C122.77,59.723,123.635,60.676,123.635,62.288z M119.04,63.536c0,0.787,0.389,1.488,1.246,1.488c1.357,0,2.111-1.664,2.111-2.867
			c0-0.805-0.406-1.48-1.264-1.48C119.752,60.676,119.04,62.313,119.04,63.536z"/>
		<path fill="#595757" d="M127.465,59.827h1.398c1.094,0,2.357-0.018,2.357,1.43c0,1.039-0.764,1.594-1.73,1.611v0.018
			c0.324,0.018,0.527,0.225,0.602,0.555l0.57,2.434h-1.248l-0.287-1.42c-0.137-0.643-0.104-1.094-0.746-1.094h-0.449l-0.518,2.514
			h-1.188L127.465,59.827z M128.143,62.409h0.434c0.635,0,1.406-0.199,1.406-0.996c0-0.633-0.533-0.633-1.018-0.633h-0.49
			L128.143,62.409z"/>
		<path fill="#595757" d="M134.854,65.874h-1.188l1.254-6.047h1.002c1.094,0,2.594,0.061,2.594,1.568c0,1.463-1.178,2.184-2.5,2.184
			h-0.688L134.854,65.874z M135.532,62.625h0.424c0.652,0,1.322-0.348,1.322-1.102c0-0.615-0.482-0.744-0.992-0.744h-0.371
			L135.532,62.625z"/>
		<path fill="#595757" d="M146.866,62.288c0,0.988-0.357,1.949-0.992,2.676c-0.619,0.703-1.518,1.014-2.51,1.014
			c-1.459,0-2.332-1.074-2.332-2.512c0-0.961,0.33-1.898,0.934-2.617c0.645-0.754,1.467-1.125,2.434-1.125
			C146,59.723,146.866,60.676,146.866,62.288z M142.27,63.536c0,0.787,0.391,1.488,1.246,1.488c1.357,0,2.111-1.664,2.111-2.867
			c0-0.805-0.408-1.48-1.264-1.48C142.981,60.676,142.27,62.313,142.27,63.536z"/>
		<path fill="#595757" d="M150.696,59.827h1.398c1.094,0,2.359-0.018,2.359,1.43c0,1.039-0.764,1.594-1.73,1.611v0.018
			c0.322,0.018,0.525,0.225,0.602,0.555l0.568,2.434h-1.246l-0.289-1.42c-0.137-0.643-0.102-1.094-0.746-1.094h-0.449l-0.518,2.514
			h-1.186L150.696,59.827z M151.375,62.409h0.432c0.637,0,1.408-0.199,1.408-0.996c0-0.633-0.535-0.633-1.018-0.633h-0.492
			L151.375,62.409z"/>
		<path fill="#595757" d="M160.102,59.827h1.314l1.076,6.047h-1.186l-0.203-1.387h-2.52l-0.754,1.387h-1.314L160.102,59.827z
			 M159.11,63.536h1.832l-0.373-2.635h-0.035L159.11,63.536z"/>
		<path fill="#595757" d="M165.532,59.827h4.568l-0.193,0.953h-1.672l-1.076,5.094h-1.238l1.076-5.094h-1.668L165.532,59.827z"/>
		<path fill="#595757" d="M172.948,59.827h1.238l-1.246,6.047h-1.238L172.948,59.827z"/>
		<path fill="#595757" d="M182.551,62.288c0,0.988-0.355,1.949-0.99,2.676c-0.619,0.703-1.52,1.014-2.512,1.014
			c-1.457,0-2.332-1.074-2.332-2.512c0-0.961,0.332-1.898,0.934-2.617c0.645-0.754,1.467-1.125,2.434-1.125
			C181.686,59.723,182.551,60.676,182.551,62.288z M177.956,63.536c0,0.787,0.391,1.488,1.246,1.488
			c1.357,0,2.111-1.664,2.111-2.867c0-0.805-0.406-1.48-1.264-1.48C178.668,60.676,177.956,62.313,177.956,63.536z"/>
		<path fill="#595757" d="M186.405,59.827h1.5l1.264,4.592h0.018l0.965-4.592h1.119l-1.279,6.047h-1.525l-1.238-4.635h-0.018
			l-0.941,4.635h-1.135L186.405,59.827z"/>
	</g>
	<g>
		<g>
			<path fill="#3B90C8" d="M136.465,40.183c-2.021,9.507-8.686,14.314-19.832,14.314c-11.145,0-15.697-4.807-13.674-14.314
				c2.043-9.611,8.625-14.365,19.771-14.365C133.875,25.817,138.506,30.571,136.465,40.183z M112.36,40.183
				c-1.072,5.38,0.789,8.099,5.525,8.099s7.705-2.822,8.939-8.308c1.145-5.381-0.658-8.045-5.393-8.045
				C116.553,31.929,113.528,34.696,112.36,40.183z"/>
			<path fill="#3B90C8" d="M191.747,26.233l-5.873,27.636h-9.266l5.164-24.292c0.477-2.246,2.172-3.344,5.168-3.344H191.747z"/>
			<path fill="#3B90C8" d="M193.422,18.345l-1.154,5.436h-9.264l0.432-2.039c0.408-2.246,2.115-3.396,5.18-3.396H193.422z"/>
			<g>
				<path fill="#3B90C8" d="M163.69,25.817c-4.596,0-8.381,1.41-11.359,4.281l2.5-11.754h-4.6h-0.068
					c-3.066,0-4.854,1.203-5.342,3.502l-1.756,8.254v-0.002l-2.1,9.867l-0.006,0.045l-0.402,1.896
					c-0.914,4.289-0.031,7.453,2.602,9.511c2.469,1.932,6.475,2.895,12.043,2.869c11.457-0.156,18.156-4.807,20.111-14
					C177.309,30.882,173.458,26.077,163.69,25.817z M156.176,48.383c-5.285,0-7.191-2.809-5.953-8.373l0.008-0.045
					c1.414-5.324,4.549-7.932,9.561-7.932c5.014,0,7.037,2.611,6.113,7.939C164.717,45.563,161.469,48.383,156.176,48.383z"/>
			</g>
			<path fill="#3B90C8" d="M93.946,18.345h-5.293L73.635,45.407l-3.792-27.062h-5.098h-4.307c-2.717,0-5.254,1.777-5.688,3.814
				L48.01,53.87h9.127l6.096-28.681l0.02,0.172l3.566,28.509h9.895l15.779-28.681L86.336,53.87h0.059h4.248
				c2.719,0,5.256-1.775,5.686-3.812l6.742-31.712H93.946z"/>
		</g>
		<path fill="#3B90C8" d="M28.359,23.083c4.598,0,7.572,1.41,8.842,4.283c0.859,1.201,2.117,1.828,3.859,1.828h5.992
			c0.508-4.021-0.857-7.104-4.016-9.297c-3.523-2.09-8.109-3.135-13.611-3.135c-10.191,0-22.418,3.908-21.213,16.289
			c0.4,4.105,3.354,8.131,5.887,9.334c-1.385-2.197-1.178-5.121-0.617-7.652C15.209,26.946,20.209,23.083,28.359,23.083z"/>
		<path fill="#F5A200" d="M40.189,36.636h-0.113H26.344l-0.549,2.229c-0.186,0.752-0.031,1.475,0.447,2.086
			c0.758,0.969,2.264,1.545,4.027,1.545h3.953c0,0,0.012,0.002,0.031,0.002c-3.85,2.791-8.436,4.48-13.061,4.48
			c-10.289,0-16.855-8.341-14.67-18.628c0.014-0.062,0.031-0.123,0.045-0.184c0.008-0.045,0.014-0.09,0.021-0.135
			c0,0-2.217,3.73-2.785,5.588c-0.182,0.598-0.332,1.205-0.445,1.82C1.469,45.897,8.494,54.108,22.076,54.108
			c4.963,0,9.699-1.531,14.711-5.523l-0.455,1.846c-0.307,1.246-0.15,2.35,0.441,3.107c0.484,0.619,1.236,0.959,2.113,0.959
			c0.219,0,0.445-0.02,0.674-0.061l2.6-0.455l4.277-17.345H40.189z"/>
	</g>
</g>
</svg>
