<svg xmlns="http://www.w3.org/2000/svg" width="547.127" height="288.679" viewBox="0 0 547.127 288.679"><g fill="#4DBCD7"><path d="M39.106 239.06l1.551.812c-.512.993-1.099 1.791-1.761 2.408a7.532 7.532 0 0 1-2.243 1.385c-.843.316-1.776.467-2.83.467-2.333 0-4.169-.753-5.464-2.273-1.34-1.55-1.987-3.266-1.987-5.192 0-1.821.557-3.433 1.671-4.862 1.4-1.791 3.296-2.709 5.674-2.709 2.424 0 4.365.934 5.825 2.785 1.024 1.309 1.551 2.949 1.581 4.906H28.27c.03 1.656.571 3.025 1.58 4.079 1.039 1.069 2.288 1.596 3.809 1.596a5.95 5.95 0 0 0 2.122-.376c.692-.256 1.279-.588 1.776-1.009.466-.422.993-1.085 1.549-2.017zm0-3.87c-.256-.979-.617-1.761-1.068-2.363-.467-.586-1.099-1.053-1.866-1.414a5.698 5.698 0 0 0-2.424-.543c-1.415 0-2.619.452-3.627 1.355-.722.662-1.28 1.656-1.671 2.965h10.656zM50.125 229.485h1.852v2.56c.723-.993 1.55-1.716 2.438-2.213.888-.481 1.866-.737 2.92-.737s2.002.271 2.83.828a4.93 4.93 0 0 1 1.851 2.182c.376.934.587 2.363.587 4.306v7.345h-1.852v-6.818c0-1.641-.075-2.754-.196-3.297-.196-.947-.602-1.67-1.219-2.137-.602-.481-1.385-.723-2.363-.723-1.114 0-2.107.377-2.995 1.1-.873.752-1.46 1.655-1.746 2.738-.166.708-.256 2.018-.256 3.898v5.238h-1.852v-14.27zM73.832 224.188h1.866v5.298h2.875v1.596h-2.875v12.674h-1.866v-12.674h-2.514v-1.596h2.514v-5.298zM99.015 239.06l1.565.812c-.512.993-1.099 1.791-1.776 2.408a7.174 7.174 0 0 1-2.243 1.385c-.843.316-1.776.467-2.829.467-2.333 0-4.155-.753-5.479-2.273-1.294-1.55-1.957-3.266-1.957-5.192 0-1.821.542-3.433 1.656-4.862 1.415-1.791 3.312-2.709 5.675-2.709 2.438 0 4.365.934 5.825 2.785 1.038 1.309 1.565 2.949 1.58 4.906H88.177c.03 1.656.572 3.025 1.596 4.079 1.023 1.069 2.303 1.596 3.793 1.596.737 0 1.445-.12 2.138-.376.677-.256 1.279-.588 1.746-1.009.496-.422 1.008-1.085 1.565-2.017zm0-3.87c-.241-.979-.603-1.761-1.069-2.363-.467-.586-1.084-1.053-1.867-1.414a5.613 5.613 0 0 0-2.438-.543c-1.399 0-2.589.452-3.612 1.355-.737.662-1.295 1.656-1.671 2.965h10.657zM109.4 229.485h1.852v2.078c.572-.812 1.159-1.43 1.791-1.836.617-.422 1.265-.633 1.942-.633.527 0 1.069.166 1.641.496l-.948 1.566c-.391-.166-.723-.256-.994-.256-.602 0-1.204.256-1.776.768-.572.496-1.023 1.279-1.31 2.332-.226.813-.346 2.469-.346 4.923v4.831H109.4v-14.269zM125.446 224.188h1.851v5.298h2.89v1.596h-2.89v12.674h-1.851v-12.674h-2.529v-1.596h2.529v-5.298zM152.766 229.485v14.27h-1.852v-2.438c-.782.918-1.641 1.625-2.589 2.107a7.088 7.088 0 0 1-3.146.707c-2.002 0-3.733-.723-5.148-2.197-1.43-1.461-2.137-3.252-2.137-5.359 0-2.062.723-3.808 2.153-5.283 1.445-1.46 3.176-2.197 5.192-2.197 1.174 0 2.228.256 3.176.768.949.496 1.776 1.25 2.499 2.242v-2.619h1.852zm-7.376 1.385a5.45 5.45 0 0 0-2.8.754c-.873.496-1.55 1.203-2.047 2.121a5.787 5.787 0 0 0-.768 2.906c0 .992.256 1.971.768 2.89.512.933 1.205 1.641 2.062 2.138a5.223 5.223 0 0 0 2.77.782c.993 0 1.942-.256 2.83-.768.903-.512 1.595-1.188 2.062-2.077.497-.857.722-1.836.722-2.92 0-1.656-.542-3.041-1.61-4.154-1.084-1.114-2.408-1.672-3.989-1.672zM163.227 223.601c.437 0 .813.15 1.114.451.301.286.452.647.452 1.068 0 .407-.151.754-.452 1.055s-.677.451-1.114.451c-.421 0-.783-.15-1.083-.451a1.433 1.433 0 0 1-.452-1.055c0-.421.15-.782.452-1.068.3-.301.662-.451 1.083-.451zm-.918 5.884h1.867v14.27h-1.867v-14.27zM173.568 229.485h1.836v2.56c.737-.993 1.55-1.716 2.453-2.213a6.005 6.005 0 0 1 2.905-.737c1.084 0 2.017.271 2.845.828a4.805 4.805 0 0 1 1.836 2.182c.391.934.587 2.363.587 4.306v7.345h-1.837v-6.818c0-1.641-.075-2.754-.21-3.297-.196-.947-.602-1.67-1.204-2.137-.602-.481-1.4-.723-2.378-.723-1.114 0-2.107.377-2.98 1.1-.888.752-1.475 1.655-1.761 2.738-.166.708-.256 2.018-.256 3.898v5.238h-1.836v-14.27zM195.589 229.485h1.852v2.469c.647-.918 1.295-1.58 1.987-2.002.918-.572 1.896-.857 2.92-.857.692 0 1.354.135 1.972.406.617.286 1.129.647 1.521 1.084.391.451.752 1.099 1.038 1.941.603-1.113 1.37-1.972 2.273-2.543a5.24 5.24 0 0 1 2.95-.889c.993 0 1.852.256 2.604.752.753.497 1.31 1.205 1.686 2.093.361.888.542 2.228.542 4.019v7.797h-1.851v-7.781c0-1.535-.105-2.59-.316-3.161-.226-.571-.602-1.023-1.129-1.385-.527-.347-1.159-.526-1.896-.526-.873 0-1.686.271-2.424.797a4.462 4.462 0 0 0-1.61 2.093c-.346.888-.512 2.333-.512 4.38v5.584h-1.852v-7.285c0-1.73-.105-2.904-.331-3.521a2.895 2.895 0 0 0-1.114-1.49c-.542-.361-1.174-.557-1.912-.557-.843 0-1.626.256-2.363.768a4.607 4.607 0 0 0-1.656 2.076c-.346.858-.527 2.184-.527 3.975v6.035h-1.852v-14.272zM238.563 239.06l1.55.812c-.526.993-1.099 1.791-1.776 2.408a7.356 7.356 0 0 1-2.242 1.385c-.828.316-1.776.467-2.83.467-2.333 0-4.154-.753-5.464-2.273-1.31-1.55-1.972-3.266-1.972-5.192 0-1.821.557-3.433 1.671-4.862 1.399-1.791 3.296-2.709 5.659-2.709 2.424 0 4.38.934 5.84 2.785 1.024 1.309 1.55 2.949 1.581 4.906h-12.854c.03 1.656.557 3.025 1.58 4.079 1.024 1.069 2.303 1.596 3.809 1.596.723 0 1.43-.12 2.122-.376.678-.256 1.279-.588 1.761-1.009s1.008-1.085 1.565-2.017zm-.015-3.87c-.241-.979-.587-1.761-1.068-2.363-.467-.586-1.084-1.053-1.852-1.414a5.763 5.763 0 0 0-2.438-.543c-1.4 0-2.619.452-3.612 1.355-.738.662-1.295 1.656-1.671 2.965h10.641zM249.581 229.485h1.837v2.56c.737-.993 1.55-1.716 2.453-2.213a6.002 6.002 0 0 1 2.905-.737c1.083 0 2.017.271 2.845.828a4.805 4.805 0 0 1 1.836 2.182c.391.934.587 2.363.587 4.306v7.345h-1.836v-6.818c0-1.641-.075-2.754-.195-3.297-.211-.947-.617-1.67-1.22-2.137-.602-.481-1.399-.723-2.363-.723-1.129 0-2.122.377-2.995 1.1-.888.752-1.475 1.655-1.746 2.738-.181.708-.271 2.018-.271 3.898v5.238h-1.837v-14.27zM273.288 224.188h1.852v5.298h2.905v1.596h-2.905v12.674h-1.852v-12.674h-2.514v-1.596h2.514v-5.298z"/></g><path fill="#4DBCD7" d="M521.148 117.362c-25.919-39.542-95.235-39.933-154.841-.888-59.622 39.045-86.953 102.746-61.053 142.289 25.905 39.542 95.235 39.934 154.842.888 59.608-39.047 86.942-102.761 61.052-142.289zM458.125 13.593c-11.755-17.972-43.26-18.138-70.354-.406-27.079 17.746-39.512 46.691-27.741 64.664 11.771 17.972 43.275 18.138 70.354.406 27.094-17.747 39.512-46.692 27.741-64.664zM44.781 209.361c0 4.26-3.958 7.722-8.82 7.722-4.877 0-8.836-3.462-8.836-7.722v-30.376c0-4.289 3.959-7.752 8.836-7.752 4.862 0 8.82 3.463 8.82 7.752v30.376zM205.388 152.645v64.634l-17.626-8.037c-3.447 2.859-6.938 4.937-10.416 6.217-3.477 1.264-7.255 1.881-11.334 1.881-9.122 0-17.009-3.086-23.677-9.271-6.683-6.157-10.009-13.849-10.009-23.03 0-9.528 3.236-17.341 9.678-23.421 6.458-6.097 14.285-9.137 23.497-9.137 4.245 0 8.218.691 11.937 2.076 3.732 1.385 7.18 3.478 10.325 6.247l17.625-8.159zm-36.261 14.073c-5.509 0-10.07 1.687-13.712 5.073s-5.464 7.722-5.464 13.005c0 5.344 1.851 9.709 5.554 13.141 3.703 3.447 8.264 5.163 13.698 5.163 5.584 0 10.22-1.687 13.908-5.058 3.673-3.387 5.524-7.827 5.524-13.291 0-5.373-1.851-9.724-5.524-13.035-3.688-3.326-8.354-4.998-13.984-4.998zM216 152.645l17.596 8.294v2.047c4.034-2.95 7.677-5.012 10.928-6.172 3.267-1.158 6.593-1.746 9.995-1.746 7.014 0 12.96 2.139 17.837 6.413 4.094 3.657 6.156 9.017 6.156 16.136v39.662l-17.611-7.691v-.316c0-7.36-.376-30.104-1.144-32.527-.753-2.424-2.062-4.26-3.929-5.523-1.882-1.25-4.185-1.897-6.939-1.897-3.567 0-15.293 1.807-15.293 8.219v32.046L216 217.278v-64.633z"/><g fill="#B2DB10"><path d="M124.769 166.854l-14.721 7.135c-2.77-2.574-5.509-4.351-8.204-5.344-2.694-.994-5.871-1.49-9.498-1.49-6.608 0-11.952 1.73-16.045 5.178-4.079 3.447-6.111 7.872-6.111 13.261 0 5.238 1.957 9.498 5.886 12.81 3.928 3.326 9.076 4.982 15.458 4.982 7.888 0 14.044-2.379 18.454-7.12l13.908 8.399c-7.541 8.654-18.183 12.96-31.94 12.96-12.358 0-22.052-3.206-29.051-9.618-7.015-6.443-10.507-13.953-10.507-22.578 0-5.991 1.687-11.485 5.103-16.513s8.173-8.972 14.285-11.86c6.096-2.846 12.93-4.291 20.471-4.291 6.999 0 13.291 1.205 18.846 3.658 5.552 2.453 10.113 5.945 13.666 10.431z"/><path d="M125.461 169.759c0-3.732-3.854-6.773-8.609-6.773-4.757 0-8.625 3.041-8.625 6.773s3.868 6.759 8.625 6.759c4.755 0 8.609-3.027 8.609-6.759zM126.018 199.999c0-3.764-3.914-6.864-8.715-6.864-4.816 0-8.745 3.101-8.745 6.864 0 3.777 3.929 6.849 8.745 6.849 4.801 0 8.715-3.072 8.715-6.849z"/></g><path fill="#4DBCD7" d="M44.42 156.017c0 4.786-3.883 8.67-8.685 8.67a8.672 8.672 0 0 1-8.67-8.67c0-4.802 3.883-8.686 8.67-8.686a8.679 8.679 0 0 1 8.685 8.686z"/><path fill="#B2DB10" d="M116.565 145.254c0 1.882-1.746 3.433-3.914 3.433-2.167 0-3.928-1.551-3.928-3.433 0-1.896 1.761-3.447 3.928-3.447 2.168 0 3.914 1.55 3.914 3.447zM106.104 145.254c0 1.882-1.761 3.433-3.929 3.433-2.152 0-3.914-1.551-3.914-3.433 0-1.896 1.761-3.447 3.914-3.447 2.168 0 3.929 1.55 3.929 3.447z"/><g fill="#FFF"><path d="M449.199 135.365l-16.828 21.57c-6.066-1.807-11.47-2.453-16.257-1.957-4.801.512-9.934 2.092-15.383 4.787-9.92 4.877-16.678 11.424-20.26 19.628-3.598 8.203-3.387 16.347.586 24.444 3.884 7.857 9.995 12.84 18.334 14.902 8.354 2.092 17.311.768 26.913-3.959 11.861-5.826 19.343-13.938 22.443-24.324l27.108 2.332c-4.922 18.561-17.716 32.92-38.383 43.08-18.574 9.166-35.508 11.484-50.771 7.029-15.277-4.485-26.1-13.186-32.482-26.146-4.425-9.001-5.93-18.499-4.516-28.584 1.4-10.056 5.63-19.522 12.674-28.358 7.061-8.82 16.242-16.031 27.576-21.615 10.506-5.178 20.848-7.978 31.022-8.414 10.176-.421 19.585 1.43 28.224 5.585z"/><path d="M452.405 139.188c-2.754-5.614-10.792-7.315-17.941-3.808-7.15 3.522-10.718 10.958-7.948 16.557 2.755 5.6 10.808 7.301 17.957 3.794 7.15-3.523 10.702-10.943 7.932-16.543zM475.601 184.224c-2.799-5.674-10.942-7.42-18.168-3.854-7.24 3.553-10.838 11.079-8.053 16.754 2.8 5.659 10.958 7.391 18.168 3.838 7.24-3.567 10.838-11.078 8.053-16.738z"/></g></svg>