<?xml version="1.0" encoding="utf-8"?>
<!-- Generator: Adobe Illustrator 16.0.0, SVG Export Plug-In . SVG Version: 6.00 Build 0)  -->
<!DOCTYPE svg PUBLIC "-//W3C//DTD SVG 1.1//EN" "http://www.w3.org/Graphics/SVG/1.1/DTD/svg11.dtd">
<svg version="1.1" id="圖層_1" xmlns="http://www.w3.org/2000/svg" xmlns:xlink="http://www.w3.org/1999/xlink" x="0px" y="0px"
	 width="556px" height="139px" viewBox="0 0 556 139" enable-background="new 0 0 556 139" xml:space="preserve">
<g display="none">
	
		<rect x="42.364" y="-126.61" transform="matrix(0.7073 0.7069 -0.7069 0.7073 -70.1439 -65.2653)" display="inline" fill="#FFFFFF" width="2.748" height="18.553"/>
</g>
<g display="none">
	
		<rect x="80.792" y="-126.624" transform="matrix(0.7071 0.7071 -0.7071 0.7071 -58.8778 -92.4561)" display="inline" fill="#FFFFFF" width="2.747" height="18.649"/>
</g>
<g display="none">
	
		<rect x="117.056" y="-127.534" transform="matrix(0.7071 0.7071 -0.7071 0.7071 -46.7023 -117.4547)" display="inline" fill="#FFFFFF" width="2.747" height="24.865"/>
</g>
<circle display="none" fill="#F7941D" cx="50.297" cy="-123.894" r="2.748"/>
<circle display="none" fill="#808284" cx="75.252" cy="-110.477" r="2.747"/>
<circle display="none" fill="#F7941D" cx="127.221" cy="-123.894" r="2.747"/>
<rect x="136.338" y="-145" fill="#F7941D" width="22" height="22"/>
<rect x="252.706" y="-145.001" fill="#808284" width="22" height="22.002"/>
<g>
	<path d="M166.702-131.6v-6.442h1.283l1.525,4.562c0.141,0.425,0.242,0.742,0.307,0.953c0.073-0.233,0.188-0.578,0.344-1.032
		l1.542-4.482h1.147v6.442h-0.822v-5.393l-1.872,5.393h-0.769l-1.863-5.484v5.484H166.702z"/>
	<path d="M174.345-135.365v-0.901h0.9v0.901H174.345z M174.345-131.6v-0.9h0.9v0.9H174.345z"/>
	<path d="M176.405-133.287l0.831-0.07c0.062,0.404,0.204,0.708,0.429,0.912c0.224,0.203,0.494,0.305,0.811,0.305
		c0.381,0,0.703-0.143,0.967-0.43s0.396-0.668,0.396-1.143c0-0.451-0.127-0.808-0.38-1.068c-0.254-0.261-0.586-0.391-0.996-0.391
		c-0.254,0-0.484,0.058-0.689,0.173c-0.205,0.116-0.366,0.267-0.483,0.45l-0.743-0.096l0.625-3.31h3.203v0.756h-2.57l-0.348,1.731
		c0.387-0.27,0.792-0.404,1.217-0.404c0.562,0,1.037,0.195,1.424,0.584c0.387,0.391,0.58,0.892,0.58,1.504
		c0,0.583-0.17,1.087-0.51,1.512c-0.412,0.521-0.977,0.781-1.691,0.781c-0.586,0-1.064-0.163-1.435-0.492
		C176.67-132.31,176.458-132.745,176.405-133.287z"/>
	<path d="M181.411-134.777c0-0.761,0.079-1.374,0.235-1.839c0.157-0.464,0.39-0.822,0.699-1.074
		c0.309-0.252,0.697-0.378,1.167-0.378c0.345,0,0.648,0.069,0.909,0.209c0.261,0.139,0.476,0.34,0.646,0.602
		c0.17,0.263,0.304,0.582,0.4,0.958c0.097,0.377,0.145,0.885,0.145,1.522c0,0.756-0.077,1.366-0.232,1.831
		c-0.155,0.464-0.388,0.823-0.696,1.076c-0.31,0.254-0.7,0.38-1.171,0.38c-0.622,0-1.109-0.222-1.464-0.668
		C181.624-132.693,181.411-133.566,181.411-134.777z M182.225-134.777c0,1.059,0.124,1.762,0.371,2.112
		c0.248,0.35,0.553,0.524,0.917,0.524c0.362,0,0.668-0.176,0.916-0.527c0.247-0.352,0.371-1.055,0.371-2.109
		c0-1.06-0.124-1.765-0.371-2.113c-0.248-0.349-0.557-0.523-0.926-0.523c-0.363,0-0.653,0.154-0.869,0.462
		C182.36-136.56,182.225-135.834,182.225-134.777z"/>
	<path d="M197.552-131.6v-2.729l-2.483-3.714h1.037l1.271,1.942c0.233,0.363,0.452,0.727,0.654,1.09
		c0.193-0.337,0.428-0.717,0.703-1.139l1.248-1.894h0.993l-2.571,3.714v2.729H197.552z"/>
	<path d="M201.858-135.365v-0.901h0.9v0.901H201.858z M201.858-131.6v-0.9h0.9v0.9H201.858z"/>
	<path d="M206.899-131.6h-0.791v-5.041c-0.191,0.183-0.44,0.364-0.75,0.545c-0.309,0.183-0.586,0.318-0.832,0.409v-0.765
		c0.441-0.208,0.828-0.46,1.16-0.756c0.33-0.296,0.564-0.583,0.703-0.861h0.51V-131.6z"/>
	<path d="M208.925-134.777c0-0.761,0.079-1.374,0.235-1.839c0.157-0.464,0.39-0.822,0.699-1.074
		c0.309-0.252,0.697-0.378,1.167-0.378c0.345,0,0.648,0.069,0.909,0.209c0.261,0.139,0.476,0.34,0.646,0.602
		c0.17,0.263,0.304,0.582,0.4,0.958c0.097,0.377,0.145,0.885,0.145,1.522c0,0.756-0.077,1.366-0.232,1.831
		c-0.155,0.464-0.388,0.823-0.696,1.076c-0.31,0.254-0.7,0.38-1.171,0.38c-0.622,0-1.109-0.222-1.464-0.668
		C209.138-132.693,208.925-133.566,208.925-134.777z M209.738-134.777c0,1.059,0.124,1.762,0.371,2.112
		c0.248,0.35,0.553,0.524,0.917,0.524c0.362,0,0.668-0.176,0.916-0.527c0.247-0.352,0.371-1.055,0.371-2.109
		c0-1.06-0.124-1.765-0.371-2.113c-0.248-0.349-0.557-0.523-0.926-0.523c-0.363,0-0.653,0.154-0.869,0.462
		C209.874-136.56,209.738-135.834,209.738-134.777z"/>
	<path d="M213.931-134.777c0-0.761,0.079-1.374,0.235-1.839c0.157-0.464,0.39-0.822,0.699-1.074
		c0.309-0.252,0.697-0.378,1.167-0.378c0.345,0,0.648,0.069,0.909,0.209c0.261,0.139,0.476,0.34,0.646,0.602
		c0.17,0.263,0.304,0.582,0.4,0.958c0.097,0.377,0.145,0.885,0.145,1.522c0,0.756-0.077,1.366-0.232,1.831
		c-0.155,0.464-0.388,0.823-0.696,1.076c-0.31,0.254-0.7,0.38-1.171,0.38c-0.622,0-1.109-0.222-1.464-0.668
		C214.144-132.693,213.931-133.566,213.931-134.777z M214.744-134.777c0,1.059,0.124,1.762,0.371,2.112
		c0.248,0.35,0.553,0.524,0.917,0.524c0.362,0,0.668-0.176,0.916-0.527c0.247-0.352,0.371-1.055,0.371-2.109
		c0-1.06-0.124-1.765-0.371-2.113c-0.248-0.349-0.557-0.523-0.926-0.523c-0.363,0-0.653,0.154-0.869,0.462
		C214.88-136.56,214.744-135.834,214.744-134.777z"/>
</g>
<g>
	<path d="M285.437-131.6v-6.442h0.853v3.194l3.199-3.194h1.156l-2.703,2.61l2.821,3.832h-1.125l-2.294-3.261l-1.055,1.028v2.232
		H285.437z"/>
	<path d="M291.594-135.365v-0.901h0.9v0.901H291.594z M291.594-131.6v-0.9h0.9v0.9H291.594z"/>
	<path d="M297.76-136.465l-0.787,0.062c-0.07-0.311-0.17-0.537-0.299-0.678c-0.214-0.225-0.478-0.338-0.791-0.338
		c-0.252,0-0.474,0.07-0.664,0.211c-0.249,0.182-0.445,0.447-0.588,0.795c-0.145,0.35-0.219,0.846-0.225,1.49
		c0.19-0.29,0.423-0.506,0.699-0.646c0.274-0.141,0.563-0.211,0.865-0.211c0.527,0,0.977,0.194,1.347,0.583
		c0.371,0.388,0.556,0.89,0.556,1.505c0,0.404-0.087,0.78-0.261,1.127c-0.175,0.348-0.414,0.613-0.719,0.798
		s-0.65,0.276-1.037,0.276c-0.659,0-1.197-0.242-1.612-0.727c-0.417-0.485-0.625-1.284-0.625-2.397c0-1.245,0.23-2.15,0.69-2.716
		c0.401-0.492,0.941-0.738,1.622-0.738c0.506,0,0.922,0.143,1.245,0.426C297.501-137.357,297.694-136.965,297.76-136.465z
		 M294.529-133.688c0,0.273,0.058,0.534,0.174,0.783c0.115,0.249,0.277,0.438,0.485,0.568c0.208,0.131,0.427,0.195,0.655,0.195
		c0.334,0,0.62-0.134,0.861-0.404c0.239-0.269,0.359-0.635,0.359-1.098c0-0.445-0.118-0.797-0.355-1.053
		c-0.237-0.257-0.536-0.385-0.896-0.385c-0.357,0-0.661,0.128-0.91,0.385C294.653-134.439,294.529-134.103,294.529-133.688z"/>
	<path d="M298.66-134.777c0-0.761,0.079-1.374,0.235-1.839c0.157-0.464,0.39-0.822,0.699-1.074c0.309-0.252,0.697-0.378,1.167-0.378
		c0.345,0,0.648,0.069,0.909,0.209c0.261,0.139,0.476,0.34,0.646,0.602c0.17,0.263,0.304,0.582,0.4,0.958
		c0.097,0.377,0.145,0.885,0.145,1.522c0,0.756-0.077,1.366-0.232,1.831c-0.155,0.464-0.388,0.823-0.696,1.076
		c-0.31,0.254-0.7,0.38-1.171,0.38c-0.622,0-1.109-0.222-1.464-0.668C298.873-132.693,298.66-133.566,298.66-134.777z
		 M299.474-134.777c0,1.059,0.124,1.762,0.371,2.112c0.248,0.35,0.553,0.524,0.917,0.524c0.362,0,0.668-0.176,0.916-0.527
		c0.247-0.352,0.371-1.055,0.371-2.109c0-1.06-0.124-1.765-0.371-2.113c-0.248-0.349-0.557-0.523-0.926-0.523
		c-0.363,0-0.653,0.154-0.869,0.462C299.609-136.56,299.474-135.834,299.474-134.777z"/>
</g>
<g>
	<g>
		<path fill="#808284" d="M497.945,98.641v-88c0-0.084-0.01-0.166-0.014-0.25c0.004-0.083,0.014-0.165,0.014-0.25
			c0-3.037-2.463-5.5-5.5-5.5c-0.084,0-0.166,0.01-0.25,0.014c-0.084-0.004-0.166-0.014-0.25-0.014h-35
			c-0.084,0-0.166,0.01-0.25,0.014c-0.084-0.004-0.166-0.014-0.25-0.014c-3.039,0-5.5,2.463-5.5,5.5c0,0.085,0.008,0.167,0.012,0.25
			c-0.002,0.084-0.012,0.166-0.012,0.25v94h5.5c3.039,0,5.5-2.463,5.5-5.5c0-0.006,0-0.012,0-0.02V68.64h25v25h-12.336l4.785,8.295
			l0.01,0.006c0.959,1.613,2.715,2.699,4.729,2.699h7.812c0.084,0,0.166-0.01,0.25-0.012c0.084,0.004,0.166,0.012,0.25,0.012
			c3.039,0,5.5-2.463,5.5-5.5c0-0.088-0.008-0.172-0.012-0.26C497.936,98.801,497.945,98.723,497.945,98.641z M486.945,32.64h-25
			v-17h25V32.64z M461.945,58.64v-16h25v16H461.945z"/>
		<path fill="#808284" d="M550.945,10.14c0-3.037-2.463-5.5-5.5-5.5c-0.084,0-0.166,0.01-0.25,0.014
			c-0.084-0.004-0.166-0.014-0.25-0.014h-35c-0.084,0-0.166,0.01-0.25,0.014c-0.084-0.004-0.166-0.014-0.25-0.014
			c-3.039,0-5.5,2.463-5.5,5.5c0,0.088,0.008,0.174,0.014,0.26c-0.004,0.081-0.014,0.16-0.014,0.24v94h5.5
			c3.039,0,5.5-2.463,5.5-5.5c0-0.006,0-0.012,0-0.02V68.64h25v25h-12.336l4.758,8.262l0.021,0.012
			c0.953,1.629,2.719,2.727,4.744,2.727h7.812c0.084,0,0.166-0.01,0.25-0.012c0.084,0.004,0.166,0.012,0.25,0.012
			c3.037,0,5.5-2.463,5.5-5.5c0-0.084-0.01-0.166-0.014-0.25c0.004-0.084,0.014-0.166,0.014-0.25v-88c0-0.084-0.01-0.166-0.014-0.25
			C550.936,10.307,550.945,10.225,550.945,10.14z M539.945,32.64h-25v-17h25V32.64z M514.945,58.64v-16h25v16H514.945z"/>
		<path fill="#808284" d="M436.945,58.578v-14l-11.303,14.051c-4.373-20.118-6.297-37.986-6.297-37.986V20.64h3.6h11
			c0.324,0,0.645-0.037,0.957-0.098c0.016-0.004,0.033-0.005,0.051-0.008c0.309-0.064,0.609-0.16,0.898-0.279
			c0.014-0.006,0.027-0.011,0.039-0.016c0.725-0.307,1.379-0.777,1.895-1.396c0.295-0.354,0.529-0.756,0.711-1.184
			c0.021-0.048,0.043-0.096,0.062-0.145c0.094-0.241,0.172-0.488,0.23-0.74c0.021-0.096,0.039-0.191,0.055-0.289
			c0.047-0.266,0.076-0.533,0.082-0.801c0-0.016,0.004-0.029,0.004-0.045c0-0.021-0.006-0.041-0.006-0.062
			c0-0.314-0.021-0.629-0.078-0.938l-2.9-10h-10l1.75,6h-4.75h-4v-6h-10v6h-64c-0.219,0-0.434,0.014-0.645,0.036
			c-0.121-0.009-0.234-0.036-0.355-0.036c-2.762,0-5,2.238-5,5c0,0.122,0.027,0.236,0.035,0.355
			c-0.021,0.213-0.035,0.428-0.035,0.645v88h5c2.762,0,5-2.238,5-5v-59h13c0,2.197,0,5.061,0,8h-8v10h8c0,2.396,0,4,0,4l0.018-0.006
			c0.121,12.143,1.164,16.686,10.129,22.924c-5.986,2.785-11.371,4.848-14.145,6.082c0,3.35,0,7.65,0,11
			c4.467-1.896,15.508-6.758,24-11.213c8.49,4.455,19.531,9.316,23.998,11.213c0-3.35,0-7.65,0-11
			c-2.773-1.234-8.158-3.297-14.145-6.082c9.887-6.879,10.139-11.695,10.145-26.918h8l-2-10h-36c0-2.853,0-5.775,0-8h39.725
			c1.291,8.148,3.045,17.798,5.275,27c2.857,11.801,7.701,27.651,9.803,33.635c0.031,0.09,0.07,0.168,0.109,0.246
			c0.744,1.828,2.531,3.119,4.627,3.119h7.461c0,0-5.98-16.889-10.721-35.222L436.945,58.578z M381.947,80.465
			c-9.807-5.721-9.996-7.723-10-21.825h19.998C391.943,72.742,391.752,74.744,381.947,80.465z M348.945,30.64v-10h60
			c0,0,0.414,3.91,1.248,10H348.945z"/>
	</g>
	<g>
		<path fill="#808284" d="M281.945,40.64h-25h-4h-8v64h12v-52h25c8.283,0,15,6.717,15,15v37h12v-37
			C308.945,52.73,296.857,40.64,281.945,40.64z"/>
		<path fill="#F7941D" d="M211.945,40.64h-10c-14.911,0-27,12.09-27,27v10c0,14.912,12.089,27,27,27h10c14.911,0,27-12.088,27-27
			v-10C238.945,52.73,226.856,40.64,211.945,40.64z M226.945,77.641c0,8.285-6.716,15-15,15h-10c-8.284,0-15-6.715-15-15v-10
			c0-8.283,6.716-15,15-15h10c8.284,0,15,6.717,15,15h0.001L226.945,77.641L226.945,77.641z"/>
		<path fill="#808284" d="M168.944,67.64L168.944,67.64c0.001-14.91-12.088-27-26.999-27h-37v94h6.001
			c3.312,0,5.997-2.686,5.998-5.998h0.001V52.64h25c8.284,0,15,6.717,15,15v10c0,8.285-6.716,15-15,15h-12h-6v6l0,0c0,0,0,0,0,0.002
			c0,3.311,2.686,5.998,6,5.998l0,0h12c14.911,0,27-12.088,27-27h-0.001V67.64z"/>
		<g display="none">
			
				<rect x="154.507" y="35.695" transform="matrix(0.7071 0.7071 -0.7071 0.7071 83.1649 -95.6207)" display="inline" fill="#FFFFFF" width="4.999" height="33.766"/>
		</g>
		<g display="none">
			
				<rect x="224.445" y="35.67" transform="matrix(0.7071 0.7071 -0.7071 0.7071 103.6928 -145.0563)" display="inline" fill="#FFFFFF" width="4.999" height="33.941"/>
		</g>
		<g display="none">
			
				<rect x="290.445" y="34.013" transform="matrix(0.7071 0.7072 -0.7072 0.7071 125.8695 -190.5654)" display="inline" fill="#FFFFFF" width="5" height="45.255"/>
		</g>
		<circle display="none" fill="#F7941D" cx="168.945" cy="40.64" r="5"/>
		<circle display="none" fill="#808284" cx="214.362" cy="65.058" r="5"/>
		<circle display="none" fill="#F7941D" cx="308.945" cy="40.64" r="5"/>
		<path fill="#808284" d="M110.945,10.64h-9.008c-2.648,0-4.893,1.719-5.688,4.1l-0.013,0.01L64.833,88.148
			c-0.006,0.002-0.027,0.006-0.028,0.008c-1.137,2.668-3.777,4.545-6.859,4.545c-3.072,0-5.707-1.865-6.85-4.52
			c-0.001-0.002-0.013-0.004-0.015-0.006L19.669,14.857c-0.764-2.434-3.037-4.201-5.725-4.201c-0.002,0-0.003,0-0.004,0
			l-0.022-0.016H4.945l35.107,82.063c0.02,0.049,0.041,0.096,0.062,0.145l0.158,0.369h0.017c3.041,6.73,9.789,11.424,17.656,11.424
			c8.07,0,14.976-4.932,17.896-11.945l0.03,0.006L110.945,10.64z"/>
	</g>
</g>
</svg>
