<?xml version="1.0" encoding="utf-8"?>
<!-- Generator: Adobe Illustrator 16.0.0, SVG Export Plug-In . SVG Version: 6.00 Build 0)  -->
<!DOCTYPE svg PUBLIC "-//W3C//DTD SVG 1.1//EN" "http://www.w3.org/Graphics/SVG/1.1/DTD/svg11.dtd">
<svg version="1.1" id="圖層_1" xmlns="http://www.w3.org/2000/svg" xmlns:xlink="http://www.w3.org/1999/xlink" x="0px" y="0px"
	 width="557px" height="100px" viewBox="0 0 557 100" enable-background="new 0 0 557 100" xml:space="preserve">
<g>
	<defs>
		<rect id="SVGID_1_" x="-150" y="-218.28" width="841.89" height="595.28"/>
	</defs>
	<clipPath id="SVGID_2_">
		<use xlink:href="#SVGID_1_"  overflow="visible"/>
	</clipPath>
	<g clip-path="url(#SVGID_2_)">
		<text transform="matrix(1 0 0 1 5.9834 181.3027)" font-family="'AdobeMingStd-Light-B5pc-H'" font-size="12">標準色</text>
	</g>
	<g clip-path="url(#SVGID_2_)">
		<text transform="matrix(1 0 0 1 5.9834 196.3027)" font-family="'AdobeMingStd-Light-B5pc-H'" font-size="12">標準色以PONTONE色票為標準</text>
	</g>
	<g clip-path="url(#SVGID_2_)">
		<text transform="matrix(1 0 0 1 5.9834 211.3027)" font-family="'AdobeMingStd-Light-B5pc-H'" font-size="12">印刷四色為輔助辯色使用</text>
	</g>
	<g clip-path="url(#SVGID_2_)">
		<text transform="matrix(1 0 0 1 462.5957 192.5225)" font-family="'AdobeMingStd-Light-B5pc-H'" font-size="12">PANTONE Blue   072C</text>
	</g>
	<g clip-path="url(#SVGID_2_)">
		<text transform="matrix(1 0 0 1 462.5957 207.5225)" font-family="'AdobeMingStd-Light-B5pc-H'" font-size="12">C 100 M 96.3 Y 16.4 K 00</text>
	</g>
	<g clip-path="url(#SVGID_2_)">
		<text transform="matrix(1 0 0 1 254.5034 192.5225)" font-family="'AdobeMingStd-Light-B5pc-H'" font-size="12">PANTONE P     48-16C</text>
	</g>
	<g clip-path="url(#SVGID_2_)">
		<text transform="matrix(1 0 0 1 254.5034 207.5225)" font-family="'AdobeMingStd-Light-B5pc-H'" font-size="12">C 00   M 99   Y 91     K 11</text>
	</g>
	<g clip-path="url(#SVGID_2_)">
		<text transform="matrix(1 0 0 1 -137.1318 326.9443)" font-family="'AdobeMingStd-Light-B5pc-H'" font-size="10">東森信息科技股份有限公司</text>
	</g>
	<g clip-path="url(#SVGID_2_)">
		<text transform="matrix(1 0 0 1 -32.1328 -143.3467)" font-family="'AdobeMingStd-Light-B5pc-H'" font-size="14">集團關企商標標準字使用規範</text>
	</g>
	<g clip-path="url(#SVGID_2_)">
		<defs>
			<rect id="SVGID_3_" x="-150" y="-218.28" width="841.89" height="595.28"/>
		</defs>
		<clipPath id="SVGID_4_">
			<use xlink:href="#SVGID_3_"  overflow="visible"/>
		</clipPath>
		
			<circle clip-path="url(#SVGID_4_)" fill="none" stroke="#060E9F" stroke-width="0.5" stroke-miterlimit="10" cx="616.982" cy="314.234" r="14.328"/>
		
			<line clip-path="url(#SVGID_4_)" fill="none" stroke="#060E9F" stroke-width="0.5" stroke-miterlimit="10" x1="602.653" y1="314.234" x2="631.311" y2="314.234"/>
		
			<line clip-path="url(#SVGID_4_)" fill="none" stroke="#060E9F" stroke-width="0.5" stroke-miterlimit="10" x1="-0.5" y1="323.148" x2="594.04" y2="323.148"/>
		
			<line clip-path="url(#SVGID_4_)" fill="none" stroke="#060E9F" stroke-width="0.5" stroke-miterlimit="10" x1="616.981" y1="328.562" x2="616.981" y2="299.905"/>
		
			<line clip-path="url(#SVGID_4_)" fill="none" stroke="#060E9F" stroke-width="0.5" stroke-miterlimit="10" x1="606.85" y1="324.366" x2="627.114" y2="304.102"/>
		
			<line clip-path="url(#SVGID_4_)" fill="none" stroke="#060E9F" stroke-width="0.5" stroke-miterlimit="10" x1="627.114" y1="324.366" x2="606.85" y2="304.102"/>
		
			<rect x="606.85" y="304.103" transform="matrix(0.7071 -0.7071 0.7071 0.7071 -41.4947 528.2868)" clip-path="url(#SVGID_4_)" fill="none" stroke="#060E9F" stroke-width="0.5" stroke-miterlimit="10" width="20.264" height="20.263"/>
		<polygon clip-path="url(#SVGID_4_)" fill="#D7000F" points="635.448,328.648 649.851,328.648 649.851,322.349 642.622,322.349 
			642.622,316.792 649.163,316.792 649.163,310.492 642.622,310.492 642.622,306.255 649.851,306.255 649.851,299.955 
			635.448,299.955 		"/>
		<path clip-path="url(#SVGID_4_)" fill="#D7000F" d="M656.743,299.971c-0.947,0-1.778,0.342-2.493,1.026
			c-0.684,0.684-1.027,1.514-1.027,2.491c0,0.955,0.344,1.79,1.027,2.505c0.694,0.694,1.53,1.043,2.505,1.043
			c0.947,0,1.776-0.343,2.492-1.029c0.694-0.692,1.042-1.518,1.042-2.474c0-0.997-0.343-1.838-1.026-2.521
			C658.577,300.316,657.737,299.971,656.743,299.971"/>
		<rect x="653.309" y="310.432" clip-path="url(#SVGID_4_)" fill="#D7000F" width="6.895" height="18.218"/>
		<polygon clip-path="url(#SVGID_4_)" fill="#D7000F" points="672.274,308.559 672.274,302.65 665.955,302.65 665.955,308.559 
			663.262,308.559 663.262,314.023 665.955,314.023 665.955,328.649 672.274,328.649 672.274,314.023 675.321,314.023 
			675.321,308.559 		"/>
		<path clip-path="url(#SVGID_4_)" fill="#060E9F" d="M617.554,297.192c0,0.316-0.257,0.572-0.572,0.572s-0.571-0.256-0.571-0.572
			c0-0.315,0.256-0.571,0.571-0.571S617.554,296.877,617.554,297.192"/>
		<circle clip-path="url(#SVGID_4_)" fill="none" stroke="#060E9F" stroke-miterlimit="10" cx="616.982" cy="297.192" r="0.572"/>
		<path clip-path="url(#SVGID_4_)" fill="#060E9F" d="M617.554,293.628c0,0.315-0.257,0.571-0.572,0.571s-0.571-0.256-0.571-0.571
			c0-0.316,0.256-0.572,0.571-0.572S617.554,293.312,617.554,293.628"/>
		<circle clip-path="url(#SVGID_4_)" fill="none" stroke="#060E9F" stroke-miterlimit="10" cx="616.982" cy="293.628" r="0.572"/>
		<path clip-path="url(#SVGID_4_)" fill="#060E9F" d="M-12.649,323.148c0,0.316-0.256,0.572-0.572,0.572
			c-0.315,0-0.571-0.256-0.571-0.572c0-0.315,0.256-0.571,0.571-0.571C-12.905,322.577-12.649,322.833-12.649,323.148"/>
		<circle clip-path="url(#SVGID_4_)" fill="none" stroke="#060E9F" stroke-miterlimit="10" cx="-13.22" cy="323.148" r="0.572"/>
		<path clip-path="url(#SVGID_4_)" fill="#060E9F" d="M-8.607,323.148c0,0.316-0.256,0.572-0.572,0.572
			c-0.315,0-0.571-0.256-0.571-0.572c0-0.315,0.256-0.571,0.571-0.571C-8.863,322.577-8.607,322.833-8.607,323.148"/>
		<circle clip-path="url(#SVGID_4_)" fill="none" stroke="#060E9F" stroke-miterlimit="10" cx="-9.178" cy="323.148" r="0.572"/>
		<path clip-path="url(#SVGID_4_)" fill="#060E9F" d="M-4.565,323.148c0,0.316-0.256,0.572-0.572,0.572
			c-0.315,0-0.571-0.256-0.571-0.572c0-0.315,0.256-0.571,0.571-0.571C-4.821,322.577-4.565,322.833-4.565,323.148"/>
		<circle clip-path="url(#SVGID_4_)" fill="none" stroke="#060E9F" stroke-miterlimit="10" cx="-5.137" cy="323.148" r="0.572"/>
		<path clip-path="url(#SVGID_4_)" fill="#060E9F" d="M610.396,307.063c0,0.315-0.256,0.571-0.572,0.571
			c-0.315,0-0.571-0.256-0.571-0.571s0.256-0.571,0.571-0.571C610.14,306.492,610.396,306.748,610.396,307.063"/>
		<circle clip-path="url(#SVGID_4_)" fill="none" stroke="#060E9F" stroke-miterlimit="10" cx="609.824" cy="307.063" r="0.572"/>
		<path clip-path="url(#SVGID_4_)" fill="#060E9F" d="M624.748,307.063c0,0.315-0.256,0.571-0.572,0.571s-0.572-0.256-0.572-0.571
			s0.256-0.571,0.572-0.571S624.748,306.748,624.748,307.063"/>
		<circle clip-path="url(#SVGID_4_)" fill="none" stroke="#060E9F" stroke-miterlimit="10" cx="624.176" cy="307.063" r="0.572"/>
		<path clip-path="url(#SVGID_4_)" fill="#060E9F" d="M617.554,314.234c0,0.316-0.257,0.572-0.572,0.572s-0.571-0.256-0.571-0.572
			s0.256-0.572,0.571-0.572S617.554,313.918,617.554,314.234"/>
		<circle clip-path="url(#SVGID_4_)" fill="none" stroke="#060E9F" stroke-miterlimit="10" cx="616.982" cy="314.234" r="0.572"/>
		<path clip-path="url(#SVGID_4_)" fill="#060E9F" d="M617.554,328.562c0,0.316-0.257,0.572-0.572,0.572s-0.571-0.256-0.571-0.572
			s0.256-0.572,0.571-0.572S617.554,328.246,617.554,328.562"/>
		<circle clip-path="url(#SVGID_4_)" fill="none" stroke="#060E9F" stroke-miterlimit="10" cx="616.982" cy="328.562" r="0.572"/>
		<path clip-path="url(#SVGID_4_)" fill="#060E9F" d="M603.225,314.234c0,0.316-0.256,0.572-0.571,0.572s-0.571-0.256-0.571-0.572
			s0.256-0.572,0.571-0.572S603.225,313.918,603.225,314.234"/>
		<circle clip-path="url(#SVGID_4_)" fill="none" stroke="#060E9F" stroke-miterlimit="10" cx="602.653" cy="314.234" r="0.571"/>
		<path clip-path="url(#SVGID_4_)" fill="#060E9F" d="M631.883,314.234c0,0.316-0.257,0.572-0.572,0.572s-0.571-0.256-0.571-0.572
			s0.256-0.572,0.571-0.572S631.883,313.918,631.883,314.234"/>
		<circle clip-path="url(#SVGID_4_)" fill="none" stroke="#060E9F" stroke-miterlimit="10" cx="631.311" cy="314.234" r="0.572"/>
		<path clip-path="url(#SVGID_4_)" fill="#060E9F" d="M617.554,299.905c0,0.316-0.257,0.572-0.572,0.572s-0.571-0.256-0.571-0.572
			c0-0.315,0.256-0.571,0.571-0.571S617.554,299.59,617.554,299.905"/>
		<circle clip-path="url(#SVGID_4_)" fill="none" stroke="#060E9F" stroke-miterlimit="10" cx="616.982" cy="299.905" r="0.572"/>
		<path clip-path="url(#SVGID_4_)" fill="#060E9F" d="M610.396,321.41c0,0.315-0.256,0.571-0.572,0.571
			c-0.315,0-0.571-0.256-0.571-0.571s0.256-0.571,0.571-0.571C610.14,320.839,610.396,321.095,610.396,321.41"/>
		<circle clip-path="url(#SVGID_4_)" fill="none" stroke="#060E9F" stroke-miterlimit="10" cx="609.824" cy="321.41" r="0.572"/>
		<path clip-path="url(#SVGID_4_)" fill="#060E9F" d="M624.748,321.41c0,0.315-0.256,0.571-0.572,0.571s-0.572-0.256-0.572-0.571
			s0.256-0.571,0.572-0.571S624.748,321.095,624.748,321.41"/>
		<circle clip-path="url(#SVGID_4_)" fill="none" stroke="#060E9F" stroke-miterlimit="10" cx="624.176" cy="321.41" r="0.572"/>
		<polygon clip-path="url(#SVGID_4_)" fill="#D7000F" points="82.675,89.115 115.993,89.115 115.993,74.54 99.27,74.54 
			99.27,61.685 114.403,61.685 114.403,47.111 99.27,47.111 99.27,37.308 115.993,37.308 115.993,22.733 82.675,22.733 		"/>
		<path clip-path="url(#SVGID_4_)" fill="#D7000F" d="M131.938,22.771c-2.191,0-4.114,0.788-5.767,2.374
			c-1.581,1.581-2.376,3.503-2.376,5.762c0,2.21,0.795,4.142,2.376,5.795c1.606,1.605,3.54,2.412,5.796,2.412
			c2.189,0,4.108-0.793,5.764-2.378c1.607-1.605,2.41-3.513,2.41-5.724c0-2.306-0.793-4.252-2.374-5.833
			C136.181,23.569,134.237,22.771,131.938,22.771"/>
		<rect x="123.994" y="46.971" clip-path="url(#SVGID_4_)" fill="#D7000F" width="15.949" height="42.144"/>
		<polygon clip-path="url(#SVGID_4_)" fill="#D7000F" points="167.869,42.637 167.869,28.97 153.251,28.97 153.251,42.637 
			147.02,42.637 147.02,55.28 153.251,55.28 153.251,89.115 167.869,89.115 167.869,55.28 174.918,55.28 174.918,42.637 		"/>
		
			<circle clip-path="url(#SVGID_4_)" fill="none" stroke="#060E9F" stroke-width="0.5" stroke-miterlimit="10" cx="39.793" cy="55.556" r="32.512"/>
		
			<line clip-path="url(#SVGID_4_)" fill="none" stroke="#060E9F" stroke-width="0.5" stroke-miterlimit="10" x1="7.28" y1="55.556" x2="72.305" y2="55.556"/>
		
			<line clip-path="url(#SVGID_4_)" fill="none" stroke="#060E9F" stroke-width="0.5" stroke-miterlimit="10" x1="39.792" y1="88.067" x2="39.792" y2="23.042"/>
		
			<line clip-path="url(#SVGID_4_)" fill="none" stroke="#060E9F" stroke-width="0.5" stroke-miterlimit="10" x1="16.802" y1="78.545" x2="62.782" y2="32.565"/>
		
			<line clip-path="url(#SVGID_4_)" fill="none" stroke="#060E9F" stroke-width="0.5" stroke-miterlimit="10" x1="62.783" y1="78.545" x2="16.803" y2="32.565"/>
		
			<rect x="16.802" y="32.566" transform="matrix(0.7071 -0.7071 0.7071 0.7071 -27.6287 44.4077)" clip-path="url(#SVGID_4_)" fill="none" stroke="#060E9F" stroke-width="0.5" stroke-miterlimit="10" width="45.98" height="45.979"/>
		<path clip-path="url(#SVGID_4_)" fill="#060E9F" d="M41.089,16.886c0,0.717-0.581,1.297-1.297,1.297
			c-0.716,0-1.296-0.58-1.296-1.297c0-0.715,0.58-1.296,1.296-1.296C40.508,15.59,41.089,16.171,41.089,16.886"/>
		<circle clip-path="url(#SVGID_4_)" fill="none" stroke="#060E9F" stroke-miterlimit="10" cx="39.792" cy="16.886" r="1.296"/>
		<path clip-path="url(#SVGID_4_)" fill="#060E9F" d="M41.089,8.798c0,0.717-0.581,1.297-1.297,1.297
			c-0.716,0-1.296-0.58-1.296-1.297c0-0.717,0.58-1.297,1.296-1.297C40.508,7.5,41.089,8.081,41.089,8.798"/>
		<circle clip-path="url(#SVGID_4_)" fill="none" stroke="#060E9F" stroke-miterlimit="10" cx="39.792" cy="8.798" r="1.296"/>
		<path clip-path="url(#SVGID_4_)" fill="#060E9F" d="M24.848,39.284c0,0.717-0.581,1.297-1.297,1.297
			c-0.717,0-1.298-0.58-1.298-1.297c0-0.715,0.581-1.296,1.298-1.296C24.267,37.988,24.848,38.569,24.848,39.284"/>
		<circle clip-path="url(#SVGID_4_)" fill="none" stroke="#060E9F" stroke-miterlimit="10" cx="23.55" cy="39.284" r="1.298"/>
		<path clip-path="url(#SVGID_4_)" fill="#060E9F" d="M57.414,39.284c0,0.717-0.581,1.297-1.297,1.297
			c-0.717,0-1.298-0.58-1.298-1.297c0-0.715,0.581-1.296,1.298-1.296C56.833,37.988,57.414,38.569,57.414,39.284"/>
		<circle clip-path="url(#SVGID_4_)" fill="none" stroke="#060E9F" stroke-miterlimit="10" cx="56.116" cy="39.284" r="1.298"/>
		<path clip-path="url(#SVGID_4_)" fill="#060E9F" d="M41.089,55.556c0,0.717-0.581,1.297-1.297,1.297
			c-0.716,0-1.296-0.58-1.296-1.297c0-0.717,0.58-1.297,1.296-1.297C40.508,54.258,41.089,54.838,41.089,55.556"/>
		<circle clip-path="url(#SVGID_4_)" fill="none" stroke="#060E9F" stroke-miterlimit="10" cx="39.792" cy="55.556" r="1.296"/>
		<path clip-path="url(#SVGID_4_)" fill="#060E9F" d="M41.089,88.067c0,0.717-0.581,1.297-1.297,1.297
			c-0.716,0-1.296-0.58-1.296-1.297c0-0.718,0.58-1.298,1.296-1.298C40.508,86.77,41.089,87.35,41.089,88.067"/>
		<circle clip-path="url(#SVGID_4_)" fill="none" stroke="#060E9F" stroke-miterlimit="10" cx="39.792" cy="88.067" r="1.296"/>
		<path clip-path="url(#SVGID_4_)" fill="#060E9F" d="M8.577,55.556c0,0.717-0.581,1.297-1.297,1.297
			c-0.716,0-1.296-0.58-1.296-1.297c0-0.717,0.58-1.297,1.296-1.297C7.996,54.258,8.577,54.838,8.577,55.556"/>
		<circle clip-path="url(#SVGID_4_)" fill="none" stroke="#060E9F" stroke-miterlimit="10" cx="7.28" cy="55.556" r="1.297"/>
		<path clip-path="url(#SVGID_4_)" fill="#060E9F" d="M73.602,55.556c0,0.717-0.581,1.297-1.297,1.297
			c-0.716,0-1.296-0.58-1.296-1.297c0-0.717,0.58-1.297,1.296-1.297C73.021,54.258,73.602,54.838,73.602,55.556"/>
		<circle clip-path="url(#SVGID_4_)" fill="none" stroke="#060E9F" stroke-miterlimit="10" cx="72.306" cy="55.556" r="1.296"/>
		<path clip-path="url(#SVGID_4_)" fill="#060E9F" d="M41.089,23.042c0,0.717-0.581,1.297-1.297,1.297
			c-0.716,0-1.296-0.58-1.296-1.297c0-0.715,0.58-1.296,1.296-1.296C40.508,21.746,41.089,22.327,41.089,23.042"/>
		<circle clip-path="url(#SVGID_4_)" fill="none" stroke="#060E9F" stroke-miterlimit="10" cx="39.792" cy="23.042" r="1.296"/>
		<path clip-path="url(#SVGID_4_)" fill="#060E9F" d="M24.848,71.837c0,0.717-0.581,1.297-1.297,1.297
			c-0.717,0-1.298-0.58-1.298-1.297c0-0.715,0.581-1.296,1.298-1.296C24.267,70.541,24.848,71.122,24.848,71.837"/>
		<circle clip-path="url(#SVGID_4_)" fill="none" stroke="#060E9F" stroke-miterlimit="10" cx="23.55" cy="71.837" r="1.298"/>
		<path clip-path="url(#SVGID_4_)" fill="#060E9F" d="M57.414,71.837c0,0.717-0.581,1.297-1.297,1.297
			c-0.717,0-1.298-0.58-1.298-1.297c0-0.715,0.581-1.296,1.298-1.296C56.833,70.541,57.414,71.122,57.414,71.837"/>
		<circle clip-path="url(#SVGID_4_)" fill="none" stroke="#060E9F" stroke-miterlimit="10" cx="56.116" cy="71.837" r="1.298"/>
		<path clip-path="url(#SVGID_4_)" fill="#D7000F" d="M219.304,72.35c4.52,4.609,11.007,8.808,17.18,11.11
			c-1.493,1.422-3.513,4.256-4.525,6.09c-6.218-2.897-12.604-7.98-17.443-13.77v14.359h-6.545V76.075
			c-4.731,5.673-11.007,10.462-17.123,13.352c-1.012-1.711-2.98-4.486-4.365-5.903c6.064-2.308,12.34-6.506,16.757-11.173h-10.744
			V49.779h15.475v-3.372h-19.994v-6.558h19.994v-4.846h6.545v4.846h20.475v6.558h-20.475v3.372h16.225V72.35H219.304z
			 M198.611,58.523h9.359v-3.487h-9.359V58.523z M198.611,67.094h9.359v-3.609h-9.359V67.094z M214.516,58.523h9.789v-3.487h-9.789
			V58.523z M224.304,63.485h-9.789v3.609h9.789V63.485z"/>
		<path clip-path="url(#SVGID_4_)" fill="#D7000F" d="M268.693,80.568c-0.795-0.769-2.129-1.891-3.564-3.135v12.232h-5.956V79.087
			c-2.237,3.077-4.738,5.853-7.391,7.565c-0.481-1.834-1.596-4.667-2.5-6.443c3.455-1.948,7.122-5.552,9.462-9.096h-7.763v-6.148
			h8.192v-5.731h5.956v5.731h7.551v6.148h-7.551v0.173c2.128,1.359,7.128,4.789,8.456,5.853L268.693,80.568z M271.085,48.772
			c-4.629,5.615-11.059,10.103-17.815,12.706c-0.802-1.712-2.551-4.257-3.885-5.494c6.064-1.955,12.02-5.378,16.168-9.578h-13.667
			v-6.147h19.199v-5.378h6.333v5.378h19.251v6.147h-13.616c5.692,2.84,13.135,6.738,15.264,8.097l-1.969,6.558
			c-4.147-3.07-13.346-8.86-18.93-12.231v12.59h-6.333V48.772z M288.956,71.286c2.821,3.904,7.181,7.981,10.905,10.109
			c-1.437,1.358-3.456,3.84-4.469,5.552c-2.391-2.007-4.949-5.142-7.231-8.449v11.699h-6.013V78.498
			c-2.763,3.544-6.115,6.615-9.411,8.628c-0.852-1.48-2.607-3.84-3.935-5.025c4.679-2.128,9.519-6.378,12.391-10.814h-6.705v-6.084
			h7.66v-5.968h6.013v5.968h9.681v6.084H288.956z"/>
		<path clip-path="url(#SVGID_4_)" fill="#D7000F" d="M329.46,37.073c-1.121,3.488-2.397,7.032-3.936,10.456v42.848h-5.75V58.58
			c-1.275,2.014-2.603,3.962-3.878,5.616c-0.532-1.596-2.237-5.257-3.244-6.917c4.469-5.372,8.719-13.77,11.168-22.097
			L329.46,37.073z M362.167,44.105v5.732h-34.2v-5.732h15.212c-0.795-2.186-2.128-4.91-3.295-7.032l5.372-2.25
			c1.487,2.423,3.135,5.673,3.878,7.801l-3.032,1.481H362.167z M330.897,70.344h28.135v19.559h-5.589v-1.654h-17.176v1.833h-5.37
			V70.344z M358.34,58.465h-26.647v-5.5h26.647V58.465z M331.692,61.536h26.647v5.5h-26.647V61.536z M336.268,82.633h17.175V75.96
			h-17.175V82.633z"/>
		<path clip-path="url(#SVGID_4_)" fill="#D7000F" d="M374.958,84.17c1.859-3.371,3.879-8.333,5.052-12.41l5.635,2.603
			c-1.326,4.077-3.135,9.455-4.84,12.943L374.958,84.17z M398.203,69.1h-15.271V40.144h12.238c0.532-1.949,1.115-4.077,1.378-5.788
			l7.661,1.057c-0.744,1.776-1.597,3.315-2.289,4.731h14.577V69.1h-15.32c2.237,2.423,4.468,5.5,5.583,7.801l-5.212,3.366
			c-1.063-2.597-3.878-6.558-6.327-9.334L398.203,69.1z M405.697,82.754c2.558,0,2.979-0.77,3.301-6.385
			c1.327,1.122,4.039,2.128,5.744,2.481c-0.744,8.276-2.609,10.283-8.564,10.283h-10.103c-7.45,0-9.418-1.949-9.418-8.27v-8.161
			h6.437v8.097c0,1.776,0.532,1.955,3.564,1.955H405.697z M389.049,48.24h21.015v-2.718h-21.015V48.24z M389.049,55.984h21.015
			v-2.718h-21.015V55.984z M389.049,63.779h21.015v-2.775h-21.015V63.779z M418.197,70.638c2.449,3.898,5,9.039,5.904,12.648
			l-6.064,2.833c-0.744-3.429-3.083-8.801-5.424-12.885L418.197,70.638z"/>
		<path clip-path="url(#SVGID_4_)" fill="#D7000F" d="M454.926,72.646c-0.635-1.654-1.911-4.135-3.187-6.5V90.14h-6.115V68.862
			c-1.757,4.552-3.726,8.751-5.802,11.706c-0.583-2.013-1.969-4.91-2.924-6.68c2.976-3.782,5.955-10.109,7.872-15.84h-7.18V51.49
			h8.033v-6.679c-2.077,0.358-4.045,0.711-6.013,0.948c-0.213-1.596-1.014-3.904-1.705-5.436c6.063-1.007,12.711-2.84,17.129-4.846
			l3.562,5.73c-2.077,0.885-4.416,1.597-6.858,2.186v8.097h7.019v6.558h-7.019v0.474c1.538,1.654,5.903,7.212,6.91,8.571
			L454.926,72.646z M481.15,75.19v14.891h-6.225V76.427l-16.063,3.077l-1.008-6.68l17.071-3.25v-34.63h6.225v33.45l5.263-1.006
			l1.013,6.558L481.15,75.19z M467.798,66.971c-1.648-2.596-5.373-6.378-8.456-9.038l4.045-4.02
			c3.032,2.366,6.969,6.026,8.719,8.571L467.798,66.971z M469.182,51.375c-1.486-2.545-4.949-6.327-7.923-8.866l4.147-4.019
			c2.871,2.423,6.597,5.91,8.192,8.507L469.182,51.375z"/>
		<path clip-path="url(#SVGID_4_)" fill="#D7000F" d="M519.009,66.503c-1.858,0.59-3.776,1.18-5.686,1.712v14.124
			c0,3.429-0.591,5.083-2.398,6.205c-1.756,1.063-4.308,1.242-8.032,1.242c-0.263-1.775-1.058-4.551-1.808-6.384
			c2.077,0.058,4.257,0.058,4.949,0.058c0.795,0,1.013-0.296,1.013-1.18V70.106l-5.161,1.417l-1.646-6.68
			c1.968-0.41,4.25-1,6.808-1.711V52.669h-6.122v-6.5h6.122V34.944h6.276v11.225h5.211v6.5h-5.211v8.751l4.891-1.359L519.009,66.503
			z M548.477,58.522c-2.019,8.212-5.422,14.654-9.891,19.623c3.456,2.717,7.552,4.666,12.283,5.968
			c-1.327,1.417-3.135,4.25-4.039,6.083c-5.161-1.711-9.577-4.135-13.244-7.441c-4.147,3.192-8.833,5.551-13.988,7.27
			c-0.691-1.892-2.236-4.847-3.402-6.385c4.679-1.244,8.986-3.135,12.711-5.789c-3.142-3.962-5.642-8.629-7.559-14.071l1.598-0.526
			h-2.764v-6.327h10.475v-7.09h-11.43v-6.501h11.43v-8.454h6.276v8.454h11.917v6.501h-11.917v7.09h6.384l1.115-0.295L548.477,58.522
			z M527.521,63.253c1.487,3.898,3.615,7.443,6.276,10.456c2.762-2.956,5.051-6.443,6.647-10.456H527.521z"/>
	</g>
	<g clip-path="url(#SVGID_2_)">
		<defs>
			<rect id="SVGID_5_" x="-129.653" y="-195.659" width="83.527" height="57.312"/>
		</defs>
		<clipPath id="SVGID_6_">
			<use xlink:href="#SVGID_5_"  overflow="visible"/>
		</clipPath>
		<g clip-path="url(#SVGID_6_)">
			
				<image overflow="visible" width="968" height="686" xlink:href="D37DF30650DCF4FD.png"  transform="matrix(0.0863 0 0 0.0835 -129.6528 -195.6592)">
			</image>
		</g>
	</g>
	<g clip-path="url(#SVGID_2_)">
		<defs>
			<rect id="SVGID_7_" x="-150" y="-218.28" width="841.89" height="595.28"/>
		</defs>
		<clipPath id="SVGID_8_">
			<use xlink:href="#SVGID_7_"  overflow="visible"/>
		</clipPath>
		<rect x="194.041" y="167.869" clip-path="url(#SVGID_8_)" fill="#D7000F" width="49.302" height="49.302"/>
		<rect x="399.794" y="167.869" clip-path="url(#SVGID_8_)" fill="#060E9F" width="49.302" height="49.302"/>
	</g>
</g>
</svg>
