<?xml version="1.0" encoding="utf-8"?>
<!-- Generator: Adobe Illustrator 17.0.0, SVG Export Plug-In . SVG Version: 6.00 Build 0)  -->
<svg version="1.2" baseProfile="tiny" id="圖層_1"
	 xmlns="http://www.w3.org/2000/svg" xmlns:xlink="http://www.w3.org/1999/xlink" x="0px" y="0px" width="256.073px"
	 height="71.763px" viewBox="0 0 256.073 71.763" xml:space="preserve">
<g>
	<path fill="#1A9E77" d="M70.168,22.715c5.41,13.754,1.579,29.986-9.395,39.681c-9.468,8.567-23.52,11.723-36.072,7.516
		c-14.052-4.659-23.896-17.36-24.649-32.24C-0.697,23.62,6.669,10.917,18.991,4.231c11.274-6.465,28.18-5.41,38.478,2.404
		C63.102,10.467,67.613,16.479,70.168,22.715z"/>
	<path fill="#FFFFFF" d="M34.546,16.706c1.279-0.377,2.93-1.353,4.211-0.377c0.901,1.354,3.381,1.802,2.705,3.681
		c1.276,1.579,2.705,3.382,4.357,4.584c0.377,0.077,0.526-0.148,0.676-0.375l-0.45-0.225c0.526-0.451,1.802,0.3,2.628-0.152
		c0.526,0,1.279,0.152,1.656,0.675c0.373,0.605,0.45,1.354,0.976,1.956l0.3-0.148c0.376,0.674,0.526,1.278,0.976,1.877
		c2.707,0.901,3.984,4.132,6.39,5.487c2.932,2.179,6.01,4.357,9.468,5.637c-0.15,0.45,0.376,0.45,0.599,0.6v0.077
		c-0.45-0.227-1.049-0.451-1.502-0.303c0.453,0.678,1.579,0.376,1.806,1.129h-1.204c0,0.227,0.302,0.227,0.451,0.3
		c-0.6-0.227-1.203,0.227-1.579-0.527c-2.479-1.051-4.734-2.555-6.913-3.906l-0.073,0.073c1.727,1.654,4.131,2.855,6.087,3.983
		c0.676,0.377,1.652,0.603,2.027,1.278c-0.225,0.075-0.601,0.075-0.674,0.377l-0.526-0.302c-0.15,0.077,0,0.227-0.077,0.302
		l0.377,0.301c-2.555-1.053-5.41-2.632-7.739-4.511c-1.13-0.751-2.255-1.353-3.385-2.179c-0.148,0-0.373-0.075-0.45,0.15
		c1.279,0.976,2.632,1.579,3.908,2.482c-2.328-1.129-5.11-2.782-6.989-5.035c-0.826-0.828-2.029-2.557-3.455-2.255
		c-0.526,0.3-1.353,0.227-1.956,0.525c-0.45,0-0.826-0.525-1.276-0.15c-0.377,0.828-1.579,0.15-1.806,1.053
		c-0.75,0.302-2.102,0.075-2.329,0.978l0.077,0.375c-1.506,0.676-3.535,0.451-4.584,1.879c-0.303,0.3-0.903-0.075-1.203,0.3
		c0.073-0.15-0.077-0.3-0.227-0.3c-0.376-0.15-0.603,0.225-0.903,0.3c-0.223-0.375,0.3-0.45,0.227-0.676
		c-0.676-0.3-0.978,0.601-1.502,0.903c0.075-0.601,0.751-0.676,0.976-1.203c-0.377-0.223-0.676,0.15-0.976,0.225
		c0.15-0.075,0.45-0.601,0-0.601c0.376-0.599,1.203-0.375,1.426-1.051h-0.6c0.6-0.452,1.276-0.978,1.802-1.427
		c-0.223,0-0.676-0.603-1.053-0.077c0-0.075,0.153-0.15,0.077-0.223c-0.3-0.303-0.676,0.223-1.053,0.223
		c0,0.077,0.077-0.223-0.15-0.3h-0.226c0.226-0.15,0.528-0.524,0.83-0.751l-0.153-0.15c1.129-0.678,2.255-1.429,3.385-1.954
		l0.223-0.226c-0.3-0.375-0.899-0.375-1.203,0c0.979-0.073,0.077-1.128,1.053-1.276c0.15-0.826,0.903-1.427,1.502-1.804
		c-0.976-0.901-1.352-2.557-2.479-3.08c-0.077-0.676-0.753,0-0.826-0.676c-1.353-0.077-2.932,0.599-3.835-0.603
		c-0.676-0.227-1.576-0.15-2.254-0.075c-0.601,0.524-0.826,1.278-1.201,1.877c-0.603,0.451-0.903,1.203-1.352,1.879
		c-0.676,0.903-1.506,2.029-2.705,2.405c0-0.073,0-0.15,0-0.15c-0.828,1.128-2.632,0.676-3.685,1.879l-0.073-0.302
		c-0.376-0.075-0.676,0.152-0.753,0.452v0.15c-0.527-0.15-0.903,0.45-1.126,0.749c-1.279,1.354-3.381,1.354-4.734,2.482
		c-0.154,0.075,0.073,0,0-0.075c-2.482,0.528-3.685,2.405-5.337,4.209c-0.451,0.749-1.203,1.201-1.802,1.802
		c0.15,0.603-0.753,0.826-1.053,1.129c0.3-0.526,0.974-0.978,1.053-1.579c-0.605,0.3-0.753,0.976-1.429,1.276
		c-0.378-0.3,0.376-0.525,0.15-0.826l-0.903,0.678l0.828-1.128c-0.453,0.073-0.903,0.826-1.428,0.903
		c-0.15,0.225-0.377,0.225-0.676,0.225v-0.075c0.3-0.227,0.826-0.753,1.276-1.204c-0.524-0.298-1.128,0.378-1.506,0.301
		c-0.148-0.077-0.07-0.45-0.446-0.301c0.376-0.298,0.749-0.525,0.903-0.974c-0.303-0.077-0.676,0.148-0.98,0.3
		c0.077-0.376,0.826-0.603,0.603-1.203c-0.976-0.152-0.828,0.826-1.652,1.051c0.824-1.128,2.029-1.804,2.855-3.005l-0.077-0.075
		c1.579-1.729,3.531-2.78,5.485-3.911c1.581-0.899,3.681-1.351,4.812-2.851c0.45-0.603,0.899-1.129,1.199-1.731
		c0.225,0.077,0.303-0.15,0.377-0.298c1.129-0.676,2.332-1.128,3.684-1.128c0.6-0.603,1.727-0.227,2.179-1.054
		c1.576-1.877,2.179-4.208,3.53-6.087c0.451-0.6,0.978-1.579,1.881-1.802C30.265,15.726,32.444,16.102,34.546,16.706z"/>
	<g>
		<polygon fill="#FFFFFF" points="51.306,25.647 51.006,24.671 51.306,25.497 		"/>
		<path fill="#FFFFFF" d="M51.832,27.149c-0.3-0.073-0.227-0.3-0.376-0.524C51.606,26.701,51.756,26.926,51.832,27.149z"/>
		<path fill="#1A9E77" d="M15.987,27.676c-0.227-0.45,0.373-0.6,0.598-0.974C16.513,27.076,16.286,27.453,15.987,27.676z"/>
		<polygon fill="#1A9E77" points="23.199,27.826 23.199,27.752 23.425,27.752 		"/>
		<path fill="#1A9E77" d="M21.623,28.277c-0.154,0.152-0.227,0.376-0.453,0.302C21.17,28.352,21.47,28.129,21.623,28.277z"/>
		<path fill="#FFFFFF" d="M36.051,29.555c-0.376,0.3-1.129,0.526-1.203,0.976c-0.678-0.077-1.128,0.603-1.656,0.603
			c0.077-0.603,0.978-0.226,1.053-0.828l0.603-0.451l0.073,0.227c0.227-0.227,0.978-0.077,0.753-0.676L36.051,29.555z"/>
		<path fill="#FFFFFF" d="M33.646,30.004c-0.15,0.302-0.453,0.527-0.826,0.603C32.97,30.231,33.27,30.231,33.646,30.004z"/>
		<path fill="#1A9E77" d="M18.165,30.907c0.15,0.226-0.15,0-0.227,0.15C18.015,30.982,18.09,30.907,18.165,30.907z"/>
		<rect x="35.072" y="31.284" fill="#FFFFFF" width="0.227" height="0.227"/>
		<path fill="#FFFFFF" d="M34.772,31.808c0,0.152-0.15,0.152-0.227,0.301h-0.223c-0.077-0.226,0.15-0.301,0.3-0.376
			C34.699,31.733,34.699,31.808,34.772,31.808z"/>
		<path fill="#FFFFFF" d="M36.201,33.236c-0.077,0.303-0.453,0.303-0.603,0.378c-0.223-0.075,0.077-0.152,0.077-0.302
			C35.9,33.389,35.975,33.161,36.201,33.236z"/>
		<path fill="#1A9E77" d="M36.351,33.689c-0.077,0.3-0.603,0.3-0.903,0.526c-0.073-0.301,0.376-0.451,0.603-0.601
			C36.125,33.689,36.351,33.614,36.351,33.689z"/>
		<path fill="#1A9E77" d="M54.388,34.44c0.3,0.15,0.45,0.525,0.676,0.75l-0.227,0.228c-0.526-0.528-0.826-1.053-1.126-1.729
			C53.936,33.914,54.084,34.288,54.388,34.44z"/>
		<path fill="#FFFFFF" d="M65.208,38.423c-0.227,0.15-0.526-0.152-0.751-0.226L65.208,38.423z"/>
		<path fill="#FFFFFF" d="M67.313,39.551c-0.603-0.377-1.429-0.377-1.879-0.828C66.111,38.799,66.787,39.174,67.313,39.551z"/>
		<polygon fill="#FFFFFF" points="60.701,39.476 59.798,38.799 60.399,39.099 		"/>
		<polygon fill="#FFFFFF" points="67.087,41.731 67.163,41.578 67.387,41.731 		"/>
		<path fill="#FFFFFF" d="M66.787,42.104h-0.303v-0.15C66.56,42.029,66.71,42.029,66.787,42.104z"/>
	</g>
</g>
<path fill="#1A9E77" d="M90.233,49.323h12.171v2.773h-8.872v3.648h8.257v2.775h-8.257v4.448h9.175v2.775H90.233V49.323z"/>
<path fill="#1A9E77" d="M120.653,60.1c0.157,0.851,0.592,3.136,3.573,3.136c2.318,0,3.238-1.21,3.238-2.262
	c0-1.377-1.148-1.672-4.18-2.409c-1.621-0.413-5.244-1.309-5.244-4.927c0-1.79,1.168-4.581,5.982-4.581
	c3.209,0,6.142,1.253,6.28,4.967l-3.319,0.14c-0.143-0.849-0.387-2.388-3.005-2.388c-0.99,0-2.773,0.3-2.773,1.63
	c0,1.054,1.027,1.514,3.666,2.133c2.501,0.594,5.895,1.401,5.895,5.435c0,1.994-1.267,3.669-2.684,4.312
	c-1.464,0.685-3.122,0.732-3.876,0.732c-1.766,0-6.121-0.157-6.763-5.623L120.653,60.1z"/>
<path fill="#1A9E77" d="M143.528,49.323v8.875c0,1.949,0,2.752,0.417,3.535c0.619,1.166,1.9,1.44,2.913,1.44
	c3.162,0,3.162-1.992,3.162-4.792v-9.058h3.3v8.623c0,2.933-0.112,4.561-0.912,5.806c-1.265,1.945-3.629,2.266-5.461,2.266
	c-6.717,0-6.717-4.148-6.717-7.932v-8.762H143.528z"/>
<path fill="#1A9E77" d="M163.652,49.323h3.207l6.675,10.963h0.044V49.323h3.071v16.419h-3.32l-6.564-10.705h-0.047v10.705h-3.066
	V49.323z"/>
<path fill="#1A9E77" d="M196.978,49.323h11.26v2.773h-7.951v3.903h6.878v2.771h-6.878v6.972h-3.308V49.323z"/>
<path fill="#1A9E77" d="M217.379,49.323h3.303v6.468h6.484v-6.468h3.305v16.419h-3.305v-7.178h-6.484v7.178h-3.303V49.323z"/>
<path fill="#1A9E77" d="M254.015,60.719c-0.349,1.285-1.457,5.299-6.81,5.299c-4.451,0-7.481-3.239-7.481-8.349
	c0-4.561,2.316-8.612,7.66-8.612c0.913,0,3.212,0.087,5.023,1.87c0.826,0.83,1.232,1.792,1.555,2.946l-3.277,0.772
	c-0.415-1.79-1.764-2.756-3.462-2.756c-4.085,0-4.085,4.499-4.085,5.551c0,1.537,0.185,3.075,0.875,4.125
	c0.596,0.919,1.694,1.607,3.162,1.607c2.2,0,3.21-1.672,3.625-3.463L254.015,60.719z"/>
<circle fill="#1A9E77" cx="108.772" cy="63.64" r="2.117"/>
<polygon fill="#1A9E77" points="152.832,32.736 160.207,32.736 160.207,11.276 165.496,11.276 165.496,39.856 160.207,39.856 
	160.207,37.93 139.911,37.877 139.859,39.713 134.419,39.713 134.419,11.023 139.859,11.023 139.859,32.736 147.336,32.683 
	147.336,6.347 152.832,6.347 "/>
<polygon fill="#1A9E77" points="119.968,12.278 107.97,12.304 107.874,12.407 107.874,19.719 119.16,19.829 119.16,25.004 
	107.82,25.004 107.764,34.212 121.446,34.262 121.446,39.554 88.649,39.554 88.649,34.313 102.281,34.262 102.281,25.063 
	91.089,25.004 91.089,19.777 102.281,19.777 102.281,12.259 90.326,12.142 90.326,6.961 119.975,6.961 "/>
<path fill="#1A9E77" d="M116.625,27.907c0.455,0.716,0.613,1.686,0.403,2.601c-0.248,0.96-1.166,1.977-2.133,2.228
	c-1.323,0.418-2.597-0.052-3.509-1.014c-0.563-0.654-0.763-1.464-0.718-2.393c0.108-1.209,1.077-2.419,2.242-2.74
	C114.283,26.18,115.813,26.642,116.625,27.907z"/>
<path fill="#1A9E77" d="M194.142,11.735l0.08,0.15c1.691,2.175,3.096,3.759,4.204,4.77v0.302h-8.6v-0.152
	c2.458-2.764,3.826-4.452,4.091-5.07H194.142z M190.707,6.054c-1.99,3.932-3.798,6.512-5.428,7.725
	c-2.782,2.824-5.572,4.669-8.373,5.525v0.373l0.439,0.552c0.69,1.115,1.17,2.106,1.438,2.996c0.152,0.711,0.303,1.016,0.444,0.924
	h0.669c2.881-1.511,5.075-2.899,6.609-4.171h0.071l0.07,0.476c-0.051,0.739,0,1.053,0.155,0.959h4.314v2.212h-2.583l-6.648-0.068
	l-0.15,0.147v4.249l0.15,0.141l4.208-0.078v0.228l-0.291,0.214l-2.956,1.011v0.427l0.072,0.085c0.76,1.726,1.33,3.456,1.701,5.205
	v0.364l-5.907-0.073l-0.148,0.157v4.464l0.148,0.139c0.96,0.021,1.638-0.023,2.034-0.139h28.13l0.218-0.15V35.55l-0.218-0.139
	c-0.643-0.057-1.292,0-1.957,0.139h-4.539v-0.218c1.309-2.222,2.219-4.07,2.729-5.576v-0.288l-1.292-0.57
	c-1.304-0.331-1.936-0.582-1.881-0.732v-0.152h4.685l0.148-0.108v-4.282l-0.148-0.228c-0.666-0.061-1.337,0-2.024,0.228h-8.349
	v-2.212h5.058l0.151-0.138v-1.891l0.07-0.148l0.033,0.068c2.317,1.462,3.77,2.29,4.359,2.522c1.574,0.643,2.386,1.061,2.44,1.245
	h0.732c0.865-1.956,1.818-3.453,2.878-4.464v-0.441c0-0.153-0.192-0.22-0.587-0.22c-5.813-1.874-10.566-5.386-14.289-10.526V7.063
	l0.223-0.308V6.533l-0.704-0.176c-1.917-0.303-3.873-0.431-5.867-0.371L190.707,6.054z M191.116,35.55h-5.023v-0.139l0.113-0.16
	l3.69-1.433v-0.296c-1.15-2.977-2.041-4.725-2.66-5.278v-0.228h3.88V35.55z M197.534,33.675v0.22
	c1.976,0.572,3.157,1.009,3.554,1.356v0.3h-4.839v-7.535h3.876C199.455,30.187,198.595,32.057,197.534,33.675z"/>
<path fill="#1A9E77" d="M226.648,6.277l4.619,0.19l0.152,0.139V6.91l-0.229,0.648v6.065l2.801-0.075l0.151,0.155v4.392l-0.151,0.141
	l-2.801-0.071v3.66h0.229l2.573-0.704h0.219l0.157,0.153l-0.157,2.953c2.665-1.677,4.71-4.031,6.13-7.055h0.296l3.251,1.361
	l0.228,0.192v0.295c-1.412,2.505-3.092,4.795-5.058,6.871v0.066c0,0.298,1.531,0.397,4.612,0.298h6.862l1.074-0.225v-0.225
	c-2.163-1.82-4.04-4.159-5.609-7.014v-0.331l3.099-1.584h0.558c0.784,1.868,2.719,3.944,5.79,6.2l0.629,0.333v0.295
	c-0.659,1.061-1.454,2.118-2.363,3.165l-0.071,0.075h-0.443l-0.518-0.288h-0.228v3.763l-0.108,0.145l-5.056-0.061v5.131h6.283
	l1.504-0.146h0.227l0.145,0.146v4.236l-0.145,0.153c-0.049-0.153-2.721-0.194-8.014-0.153h-11.701l-1.513,0.153h-0.186l-0.152-0.153
	V35.55l0.152-0.139c0,0.173,2.782,0.244,8.349,0.223h0.516v-5.131h-4.694c0.244,0.042-0.026,0.061-0.811,0.061
	c-0.12,0.106-0.178-0.223-0.145-0.943v-1.856l-0.04-0.073h-0.075l-0.366,0.216h-0.298c-0.492-0.683-1.279-1.398-2.363-2.102
	l-0.225-0.077h-0.214l-2.252,0.675l-0.077,0.028v10.963c-0.373,2.074-1.811,3.282-4.321,3.63h-1.584
	c-0.152,0.04-0.322-0.425-0.516-1.377c-0.131-0.667-0.582-1.732-1.37-3.249V36.19c-0.096-0.152,0.193-0.2,0.894-0.152h1.806
	c0.265-0.098,0.45-0.281,0.549-0.551v-7.723h-0.152l-3.507,1.07h-0.511c-0.394-0.668-0.682-2.329-0.851-4.98
	c-0.101-0.151,0.185-0.23,0.851-0.23c1.4-0.092,2.764-0.295,4.096-0.62l0.073-0.07v-4.769h-2.876l-1.22,0.152h-0.152l-0.146-0.152
	v-4.462l0.146-0.155l3.88,0.075h0.368V7.722l-0.152-1.255V6.392L226.648,6.277z M242.523,6.467h4.396l0.22,0.139
	c-0.293,1.06-0.392,2.607-0.293,4.626h8.453l0.145,0.141v6.944l-0.145,0.143h-4.208c-0.126,0.108-0.171-0.223-0.148-0.959v-2.144
	l-0.038-0.077h-11.556v3.104l-0.15,0.148h-4.169l-0.148-0.148v-7.012l0.148-0.141h7.35V6.607L242.523,6.467z"/>
</svg>
