<svg xmlns="http://www.w3.org/2000/svg" width="259.873" height="81.133" viewBox="0 0 259.873 81.133"><path fill="#173581" d="M218.022 15.269l5.301-12.192s38.695 38.298-5.566 78.054c1.276-1.924 32.031-42.47.265-65.862z"/><path fill="#5CAA32" d="M226.503 15.269l5.302-12.192s38.693 38.298-5.566 78.056c1.273-1.924 32.031-42.472.264-65.864z"/><path fill="#7DC6D8" d="M235.514 15.269l5.302-12.192s38.694 38.298-5.565 78.054c1.274-1.924 32.03-42.47.263-65.862z"/><g fill="#0F1939"><path d="M15.94 42.738c1.905.188 3.458.711 4.66 1.566 1.597 1.135 2.396 2.598 2.396 4.389 0 2.266-1.073 3.926-3.22 4.98-.98.496-2.137.82-3.469.975-.759.088-1.894.131-3.402.131H2.708v-1.354l.462-.015c.858-.043 1.369-.104 1.534-.18.396-.178.638-.518.726-1.023.066-.285.099-.918.099-1.898V36.726c-.011-1.451-.143-2.326-.396-2.623a1.144 1.144 0 0 0-.66-.363c-.143-.033-.577-.071-1.303-.115l-.462-.017v-1.353H12.97c1.989 0 3.44.121 4.353.363 1.692.451 2.924 1.2 3.693 2.246.527.716.792 1.568.792 2.559 0 1.729-.726 3.076-2.176 4.044-.945.638-2.176 1.062-3.692 1.271zm-5.527-.629h.94c1.873 0 3.209-.246 4.01-.742 1.041-.646 1.561-1.878 1.561-3.693 0-1.45-.351-2.494-1.052-3.132-.68-.616-1.677-.923-2.992-.923-1.107 0-1.831.238-2.17.71-.198.297-.296.908-.296 1.832v5.948zm0 1.496v7.043c0 1.117.121 1.826.363 2.129.297.367.94.551 1.93.551 1.925 0 3.294-.414 4.108-1.246.748-.764 1.122-1.93 1.122-3.492 0-2.076-.638-3.492-1.914-4.246-.825-.492-2.354-.738-4.586-.738h-1.023zM33.114 44.055v6.254c.011 1.451.143 2.326.396 2.623.165.188.385.309.66.363.066.021.5.062 1.304.115l.346.016v1.354H25.41v-1.354l.461-.016c.858-.043 1.37-.104 1.535-.18.396-.178.638-.518.726-1.023.066-.285.099-.918.099-1.898V36.726c-.011-1.451-.143-2.326-.396-2.623a1.144 1.144 0 0 0-.66-.363c-.143-.033-.577-.071-1.304-.115l-.461-.017v-1.353h9.845c3.546 0 6.038.573 7.476 1.719 1.273 1.003 1.911 2.337 1.911 4.001 0 1.586-.555 2.871-1.664 3.851-1.108.98-2.437 1.471-3.984 1.471-.099 0-.264-.004-.495-.016.494.209.933.537 1.317.988.427.527.999 1.525 1.712 2.998l1.136 2.406c.943 1.932 1.701 3.059 2.272 3.377.34.219.916.385 1.729.494v1.234H39.98l-3.605-7.488c-.637-1.312-1.11-2.166-1.417-2.561-.318-.426-.791-.641-1.416-.641a2.258 2.258 0 0 0-.428-.033zm0-1.418h1.333c1.13 0 1.919-.055 2.37-.164 1.842-.441 2.764-1.898 2.764-4.372 0-1.391-.274-2.456-.823-3.196-.615-.827-1.657-1.242-3.126-1.242-.966 0-1.63.178-1.991.532-.231.222-.373.514-.428.88a12.086 12.086 0 0 0-.099 1.694v5.868zM55.254 36.726v13.583c.011 1.451.143 2.326.396 2.623.165.188.385.309.66.363.154.033.589.072 1.304.115l.461.016v1.354H47.55v-1.354l.461-.016c.858-.043 1.37-.104 1.535-.18.396-.178.638-.518.726-1.023.066-.285.099-.918.099-1.898V36.726c-.011-1.451-.143-2.326-.396-2.623a1.14 1.14 0 0 0-.66-.363c-.143-.033-.578-.071-1.304-.115l-.461-.017v-1.353h10.525v1.353l-.461.017c-.858.044-1.37.105-1.535.181-.396.176-.638.517-.726 1.023-.066.296-.099.929-.099 1.897zM63.09 50.309V36.726c-.011-1.451-.143-2.326-.396-2.623a1.14 1.14 0 0 0-.66-.363c-.143-.033-.578-.071-1.304-.115l-.461-.017v-1.353h8.875c1.629 0 2.808.03 3.535.091a10.44 10.44 0 0 1 2.098.388c2.356.671 4.223 2.069 5.6 4.191 1.233 1.903 1.85 4.114 1.85 6.633 0 2.102-.446 4.004-1.338 5.711-1.189 2.254-2.902 3.832-5.137 4.736-.925.373-2.016.604-3.271.693-.793.053-1.723.08-2.791.08h-9.42v-1.354l.461-.016c.858-.043 1.37-.104 1.535-.18.396-.178.638-.518.726-1.023.066-.283.098-.916.098-1.896zm4.884-13.648V50.69c0 1.129.055 1.805.165 2.025.22.438.978.658 2.274.658 1.625 0 2.85-.275 3.674-.826 1.087-.736 1.851-1.895 2.291-3.479.351-1.297.527-3.1.527-5.408 0-2.297-.184-4.16-.552-5.589-.369-1.429-.937-2.479-1.706-3.149-.89-.78-2.285-1.17-4.185-1.17-1.077 0-1.78.197-2.109.592-.187.219-.296.499-.33.838-.033.351-.049.845-.049 1.479zM96.867 44.75h9.987v1.348c-1.105.012-1.829.246-2.171.707-.166.219-.271.543-.314.971-.044.404-.066 1.129-.066 2.17v4.174h-1.662c-.572 0-1.357.145-2.356.436-1.835.529-3.401.797-4.697.797-3.352 0-6.01-1.133-7.977-3.402-1.835-2.104-2.752-4.777-2.752-8.027 0-3.545 1.143-6.535 3.428-8.968 2.055-2.18 4.533-3.271 7.435-3.271a9.96 9.96 0 0 1 3.692.725c.472.191.785.287.939.287.253 0 .626-.134 1.121-.402l.412-.217a2.1 2.1 0 0 0 .231-.118l.741.066 1.497 6.511-1.316.545c-2.104-3.992-4.444-5.99-7.019-5.99-.79 0-1.532.186-2.228.553a4.695 4.695 0 0 0-1.702 1.511c-.658.98-1.14 2.193-1.447 3.642-.307 1.446-.459 3.221-.459 5.325 0 2.816.274 4.947.823 6.391.877 2.289 2.439 3.434 4.688 3.434 1.601 0 2.736-.506 3.405-1.518.538-.824.807-2.082.807-3.775 0-1.164-.302-1.895-.907-2.193-.385-.197-1.094-.316-2.128-.361V44.75zM123.549 38.854v9.152h-1.375c-.087-1.072-.415-1.973-.982-2.701-.644-.816-1.931-1.238-3.863-1.258h-.688v6.348c0 1.16.082 1.896.246 2.213.251.48.909.721 1.97.721 1.127 0 2.131-.145 3.012-.434.881-.291 1.765-.766 2.652-1.424 1.225-.918 2.342-2.074 3.349-3.465l1.221.691-1.798 6.082h-18.357v-1.354l.462-.016c.858-.043 1.369-.104 1.534-.18.396-.178.638-.518.726-1.023.066-.285.099-.918.099-1.898V36.726c-.011-1.451-.143-2.326-.396-2.623a1.14 1.14 0 0 0-.66-.363c-.143-.033-.578-.071-1.303-.115l-.462-.017v-1.353h17.812l1.766 6.104-1.204.726a15.555 15.555 0 0 0-2.38-2.808c-1.007-.913-1.954-1.541-2.84-1.881-.909-.342-1.954-.513-3.135-.513-1.138 0-1.828.242-2.068.728-.164.308-.246 1.101-.246 2.379v5.471h.622c1.942-.01 3.229-.4 3.863-1.168.447-.539.796-1.351 1.047-2.439h1.376zM141.142 48.311l3.285-10.034-.925-2.838c-.22-.67-.385-1.083-.495-1.237a1.435 1.435 0 0 0-1.073-.562c-.154-.01-.419-.021-.792-.032v-1.353h9.062v1.353a3.945 3.945 0 0 1-.361.032c-.776.089-1.247.215-1.411.38-.11.121-.164.297-.164.528 0 .209.082.6.247 1.172l3.619 12.59 3.265-10.924c.32-1.056.48-1.781.48-2.178 0-1.023-.704-1.557-2.112-1.601v-1.353h6.731v1.353c-.813.175-1.468.5-1.963.974-.572.562-1.117 1.626-1.633 3.199l-5.576 17.352h-1.815l-4.357-14.745-4.68 14.745h-1.893l-5.666-18.771c-.319-1.033-.521-1.648-.609-1.847-.22-.461-.604-.736-1.153-.824-.198-.021-.506-.05-.922-.083v-1.353h9.106v1.353c-.228.011-.375.017-.44.017-.587.033-.968.121-1.141.264-.207.166-.31.369-.31.611 0 .308.132.93.396 1.865l3.3 11.947zM176.243 38.854v9.152h-1.375c-.087-1.072-.415-1.973-.982-2.701-.644-.816-1.931-1.238-3.863-1.258h-.688v6.348c0 1.16.082 1.896.247 2.213.251.48.909.721 1.97.721 1.127 0 2.131-.145 3.012-.434.881-.291 1.765-.766 2.652-1.424 1.226-.918 2.342-2.074 3.349-3.465l1.221.691-1.798 6.082h-18.356v-1.354l.462-.016c.858-.043 1.369-.104 1.534-.18.396-.178.638-.518.726-1.023.066-.285.099-.918.099-1.898V36.726c-.011-1.451-.143-2.326-.396-2.623a1.14 1.14 0 0 0-.66-.363c-.143-.033-.578-.071-1.303-.115l-.462-.017v-1.353h17.812l1.765 6.104-1.204.726a15.555 15.555 0 0 0-2.38-2.808c-1.007-.913-1.954-1.541-2.84-1.881-.909-.342-1.954-.513-3.134-.513-1.138 0-1.828.242-2.068.728-.165.308-.247 1.101-.247 2.379v5.471h.623c1.941-.01 3.229-.4 3.862-1.168.447-.539.796-1.351 1.047-2.439h1.375zM203.8 48.725l-1.831 6.055h-17.9v-1.354l.462-.016c.858-.043 1.369-.104 1.534-.18.396-.178.638-.518.726-1.023.066-.285.099-.918.099-1.898V36.726c-.011-1.451-.143-2.326-.396-2.623a1.14 1.14 0 0 0-.66-.363c-.143-.033-.578-.071-1.303-.115l-.462-.017v-1.353h10.856v1.353l-.792.017c-.836.033-1.347.094-1.534.181-.396.176-.638.517-.726 1.023-.066.285-.099.918-.099 1.897v13.829c0 .932.022 1.492.066 1.678.209.789.946 1.186 2.211 1.186 1.87 0 3.608-.615 5.213-1.846 1.209-.943 2.37-2.104 3.481-3.475l1.055.627zM224.389 48.725l-1.831 6.055h-17.9v-1.354l.462-.016c.857-.043 1.369-.104 1.534-.18.396-.178.638-.518.726-1.023.066-.285.099-.918.099-1.898V36.726c-.011-1.451-.143-2.326-.396-2.623a1.14 1.14 0 0 0-.66-.363c-.143-.033-.578-.071-1.303-.115l-.462-.017v-1.353h10.855v1.353l-.792.017c-.836.033-1.348.094-1.534.181-.396.176-.638.517-.726 1.023-.066.285-.099.918-.099 1.897v13.829c0 .932.022 1.492.066 1.678.209.789.946 1.186 2.211 1.186 1.87 0 3.607-.615 5.213-1.846 1.21-.943 2.371-2.104 3.482-3.475l1.055.627z"/></g></svg>