<svg xmlns="http://www.w3.org/2000/svg" width="523.046" height="95.891" viewBox="0 0 523.046 95.891"><path fill="#14116E" d="M264.508 14.978L271.021 0s47.536 47.049-6.838 95.889c1.567-2.365 39.35-52.174.325-80.911z"/><path fill="#56A021" d="M274.928 14.978L281.44 0s47.535 47.049-6.838 95.891c1.566-2.363 39.35-52.176.326-80.913z"/><path fill="#7BC3C1" d="M285.998 14.978L292.51 0s47.536 47.049-6.838 95.889c1.568-2.365 39.35-52.174.326-80.911z"/><g fill="#05001D"><path d="M16.254 48.725c2.341.229 4.249.871 5.725 1.925 1.961 1.392 2.943 3.188 2.943 5.39 0 2.784-1.319 4.823-3.956 6.12-1.205.607-2.625 1.008-4.261 1.195-.933.109-2.327.162-4.18.162H0v-1.662l.567-.02c1.054-.055 1.682-.129 1.885-.223.487-.217.784-.635.892-1.256.081-.352.122-1.129.122-2.332V41.338c-.014-1.783-.176-2.857-.486-3.223a1.411 1.411 0 0 0-.811-.446c-.175-.04-.709-.087-1.601-.142L0 37.507v-1.661h12.606c2.444 0 4.226.148 5.347.445 2.079.555 3.591 1.475 4.537 2.759.647.88.972 1.927.972 3.144 0 2.123-.891 3.779-2.673 4.969-1.16.784-2.672 1.304-4.535 1.562zm-6.789-.774h1.155c2.301 0 3.943-.303 4.926-.911 1.278-.796 1.917-2.309 1.917-4.537 0-1.782-.431-3.064-1.292-3.849-.835-.756-2.061-1.134-3.676-1.134-1.36 0-2.249.292-2.666.872-.243.365-.364 1.115-.364 2.251v7.308zm0 1.838v8.653c0 1.371.148 2.242.446 2.613.365.453 1.155.678 2.371.678 2.365 0 4.047-.51 5.047-1.531.918-.938 1.378-2.369 1.378-4.29 0-2.551-.784-4.29-2.351-5.217-1.013-.604-2.891-.906-5.634-.906H9.465zM37.353 50.34v7.684c.014 1.783.176 2.857.486 3.223.203.23.473.379.811.445.081.027.615.076 1.601.143l.426.02v1.662H27.888v-1.662l.567-.02c1.054-.055 1.682-.129 1.885-.223.487-.217.784-.635.892-1.256.081-.352.122-1.129.122-2.332V41.338c-.014-1.783-.176-2.857-.486-3.223a1.411 1.411 0 0 0-.811-.446c-.175-.04-.709-.087-1.601-.142l-.567-.021v-1.661h12.094c4.356 0 7.417.703 9.184 2.111 1.564 1.232 2.347 2.871 2.347 4.915 0 1.948-.682 3.526-2.044 4.731s-2.994 1.807-4.895 1.807c-.122 0-.325-.006-.607-.021a4.357 4.357 0 0 1 1.618 1.214c.525.648 1.227 1.876 2.104 3.684l1.396 2.955c1.159 2.375 2.09 3.758 2.791 4.149.418.27 1.125.473 2.124.607v1.518H45.79l-4.429-9.2c-.783-1.612-1.363-2.661-1.74-3.146-.392-.523-.971-.787-1.74-.787a2.8 2.8 0 0 0-.528-.042zm0-1.74h1.638c1.388 0 2.358-.067 2.911-.203 2.263-.542 3.396-2.332 3.396-5.37 0-1.708-.337-3.017-1.011-3.926-.755-1.017-2.035-1.526-3.841-1.526-1.187 0-2.002.219-2.446.653-.284.272-.458.632-.525 1.081-.081.559-.122 1.252-.122 2.082V48.6zM64.551 41.338v16.686c.013 1.783.175 2.857.486 3.223.203.23.473.379.811.445.189.041.723.088 1.601.143l.567.02v1.662h-12.93v-1.662l.567-.02c1.054-.055 1.682-.129 1.885-.223.486-.217.784-.635.892-1.256.081-.352.122-1.129.122-2.332V41.338c-.013-1.783-.175-2.857-.486-3.223a1.411 1.411 0 0 0-.811-.446c-.176-.04-.709-.087-1.601-.142l-.567-.021v-1.661h12.93v1.661l-.567.021c-1.054.055-1.682.129-1.885.223-.486.217-.784.635-.892 1.257-.081.364-.122 1.141-.122 2.331zM74.178 58.024V41.338c-.014-1.783-.176-2.857-.487-3.223a1.411 1.411 0 0 0-.811-.446c-.176-.04-.709-.087-1.601-.142l-.567-.021v-1.661h10.904c2.001 0 3.449.037 4.342.111.893.074 1.751.232 2.577.477 2.895.824 5.188 2.541 6.88 5.148 1.515 2.339 2.272 5.055 2.272 8.149 0 2.581-.548 4.92-1.644 7.015-1.461 2.77-3.564 4.709-6.311 5.819-1.136.459-2.477.742-4.019.852-.975.066-2.117.1-3.429.1H70.712v-1.662l.567-.02c1.054-.055 1.682-.129 1.885-.223.486-.217.784-.635.892-1.256.082-.351.122-1.128.122-2.331zm5.999-16.766v17.233c0 1.389.067 2.219.203 2.488.27.539 1.201.809 2.793.809 1.996 0 3.501-.338 4.514-1.014 1.336-.904 2.273-2.328 2.814-4.273.431-1.594.647-3.809.647-6.645 0-2.822-.226-5.11-.678-6.866-.453-1.756-1.151-3.045-2.095-3.869-1.093-.959-2.807-1.438-5.141-1.438-1.323 0-2.187.242-2.591.728-.23.27-.364.613-.405 1.029a20.533 20.533 0 0 0-.061 1.818zM115.672 51.194h12.269v1.655c-1.357.014-2.247.304-2.667.869-.204.27-.333.666-.387 1.191-.054.498-.081 1.387-.081 2.667v5.129h-2.043c-.703 0-1.667.178-2.895.533-2.255.652-4.178.98-5.771.98-4.118 0-7.384-1.393-9.799-4.18-2.254-2.583-3.381-5.87-3.381-9.862 0-4.355 1.403-8.027 4.211-11.018 2.524-2.678 5.569-4.018 9.133-4.018 1.525 0 3.037.297 4.536.891.58.234.964.353 1.153.353.311 0 .77-.165 1.377-.494l.506-.267c.094-.041.189-.09.284-.145l.91.081 1.839 7.999-1.617.67c-2.585-4.905-5.459-7.358-8.623-7.358-.97 0-1.882.228-2.737.68a5.76 5.76 0 0 0-2.09 1.855c-.808 1.204-1.401 2.694-1.777 4.474-.377 1.777-.565 3.958-.565 6.541 0 3.462.337 6.078 1.011 7.85 1.078 2.813 2.997 4.219 5.759 4.219 1.967 0 3.361-.621 4.183-1.863.661-1.014.991-2.559.991-4.638 0-1.431-.372-2.329-1.115-2.693-.473-.243-1.344-.392-2.614-.446v-1.655zM148.451 43.952v11.241h-1.689c-.107-1.315-.509-2.422-1.207-3.316-.791-1.004-2.373-1.521-4.745-1.547h-.845v7.799c0 1.424.101 2.33.302 2.719.309.59 1.117.885 2.42.885 1.385 0 2.618-.178 3.701-.533 1.083-.357 2.168-.939 3.258-1.748 1.505-1.129 2.877-2.549 4.114-4.258l1.5.851-2.209 7.472H130.5v-1.662l.568-.02c1.054-.055 1.682-.129 1.885-.223.486-.217.784-.635.892-1.256.081-.352.122-1.129.122-2.332V41.338c-.014-1.783-.176-2.857-.486-3.223a1.411 1.411 0 0 0-.811-.446c-.176-.04-.709-.087-1.601-.142l-.568-.021v-1.661h21.882l2.169 7.498-1.479.891c-.888-1.324-1.862-2.474-2.924-3.448-1.237-1.122-2.4-1.894-3.488-2.312-1.117-.42-2.4-.63-3.851-.63-1.398 0-2.245.298-2.541.894-.202.379-.302 1.354-.302 2.924v6.722h.764c2.386-.014 3.967-.492 4.745-1.437.549-.661.978-1.659 1.287-2.995h1.688zM170.063 55.569l4.036-12.327-1.136-3.485c-.27-.824-.473-1.331-.608-1.521-.325-.418-.764-.648-1.318-.689a30.073 30.073 0 0 0-.974-.04v-1.661h11.133v1.661c-.229.027-.377.04-.443.04-.954.109-1.532.264-1.733.467-.135.148-.202.365-.202.648 0 .257.1.737.303 1.439l4.446 15.468 4.01-13.421c.394-1.297.59-2.188.59-2.675 0-1.257-.865-1.913-2.594-1.967v-1.661h8.269v1.661c-1 .216-1.804.614-2.412 1.196-.703.689-1.372 1.998-2.006 3.93l-6.851 21.317h-2.23l-5.353-18.113-5.75 18.113h-2.325l-6.959-23.059c-.392-1.27-.641-2.025-.748-2.27-.271-.566-.743-.904-1.417-1.013a41.432 41.432 0 0 0-1.133-.102v-1.661h11.188v1.661c-.28.014-.461.021-.541.021-.721.041-1.189.148-1.402.324-.254.203-.381.453-.381.75 0 .379.162 1.143.486 2.291l4.055 14.678zM213.184 43.952v11.241h-1.689c-.107-1.315-.509-2.422-1.207-3.316-.791-1.004-2.372-1.521-4.745-1.547h-.845v7.799c0 1.424.101 2.33.303 2.719.309.59 1.116.885 2.42.885 1.385 0 2.618-.178 3.701-.533 1.083-.357 2.168-.939 3.258-1.748 1.506-1.129 2.877-2.549 4.114-4.258l1.5.851-2.209 7.472h-22.55v-1.662l.567-.02c1.054-.055 1.682-.129 1.885-.223.486-.217.784-.635.892-1.256.081-.352.122-1.129.122-2.332V41.338c-.013-1.783-.175-2.857-.486-3.223a1.411 1.411 0 0 0-.811-.446c-.176-.04-.709-.087-1.601-.142l-.567-.021v-1.661h21.882l2.168 7.498-1.479.891c-.888-1.324-1.862-2.474-2.924-3.448-1.237-1.122-2.4-1.894-3.488-2.312-1.116-.42-2.4-.63-3.851-.63-1.398 0-2.246.298-2.541.894-.202.379-.303 1.354-.303 2.924v6.722h.765c2.385-.014 3.967-.492 4.745-1.437.549-.661.978-1.659 1.287-2.995h1.687zM247.037 56.076l-2.25 7.44h-21.99v-1.662l.568-.02c1.054-.055 1.682-.129 1.885-.223.486-.217.784-.635.892-1.256.081-.352.122-1.129.122-2.332V41.338c-.013-1.783-.176-2.857-.486-3.223a1.411 1.411 0 0 0-.811-.446c-.176-.04-.709-.087-1.601-.142l-.568-.021v-1.661h13.336v1.661l-.973.021c-1.027.041-1.655.115-1.885.223-.487.217-.784.635-.892 1.257-.081.351-.122 1.128-.122 2.331v16.989c0 1.145.027 1.832.081 2.061.257.969 1.162 1.455 2.716 1.455 2.297 0 4.432-.756 6.405-2.266 1.486-1.16 2.912-2.583 4.276-4.27l1.297.769zM272.331 56.076l-2.25 7.44h-21.99v-1.662l.568-.02c1.054-.055 1.682-.129 1.885-.223.486-.217.784-.635.892-1.256.081-.352.122-1.129.122-2.332V41.338c-.013-1.783-.176-2.857-.486-3.223a1.411 1.411 0 0 0-.811-.446c-.176-.04-.709-.087-1.601-.142l-.568-.021v-1.661h13.336v1.661l-.973.021c-1.027.041-1.655.115-1.885.223-.486.217-.784.635-.892 1.257-.081.351-.122 1.128-.122 2.331v16.989c0 1.145.027 1.832.081 2.061.257.969 1.162 1.455 2.716 1.455 2.297 0 4.432-.756 6.405-2.266 1.486-1.16 2.912-2.583 4.276-4.27l1.297.769z"/></g><g fill="#080135"><path d="M327.43 54.677v-2.739h14.551v-4.466h-10.249v-2.739h20.383v2.739h-7.276v4.466h11.704v2.739h-11.704v6.833c0 .739-.23 1.467-.691 2.183-.481.738-1.046 1.234-1.696 1.487-1.157.463-2.242.685-3.254.664-1.835-.085-4.061-.485-6.675-1.202l-.158-3.227c4.724 1.435 7.687 1.729 8.889.886.484-.38.728-.833.728-1.36v-6.263H327.43zm13.062-18.835h2.858v2.341h11.261l2.499 1.26c-.211 1.725-.739 3.789-1.582 6.192l-2.594-.886c.59-1.918.896-3.047.917-3.384.021-.295-.106-.443-.38-.443h-22.969c-.169.021-.253.106-.253.253v4.365h-2.739v-6.822c.021-.356.2-.535.538-.535h12.443v-2.341zM388.976 39.177h-24.451c-.253 0-.379.127-.379.38v22.311c0 .275.126.412.379.412h24.926v2.62h-26.978c-.632 0-.947-.327-.947-.981V37.507c0-.633.315-.95.947-.95h26.726l-.223 2.62zm-22.645 7.073c1.371.781 2.857 1.909 4.46 3.385l-1.677 2.056c-1.729-1.539-3.174-2.636-4.333-3.29l1.55-2.151zm5.22 7.591c-1.202 3.29-2.668 5.82-4.397 7.592l-2.309-1.455c2.045-1.981 3.49-4.302 4.333-6.959l2.373.822zm-4.429-13.792c1.329.802 2.762 1.941 4.302 3.417l-1.708 2.024c-1.645-1.518-3.037-2.625-4.175-3.321l1.581-2.12zm21.547 3.355l-.221 2.382h-5.726v2.739h5.504v2.263h-5.504v2.798h5.504v2.263h-5.504v2.739h5.946v2.382h-14.616c-.612 0-.917-.316-.917-.95V47.519c-.464.528-.96 1.045-1.487 1.551-.591-.822-1.15-1.434-1.677-1.835 2.108-2.025 3.701-4.494 4.777-7.404l2.373 1.139c-.359.802-.77 1.613-1.233 2.436h4.239c.739-1.37 1.266-2.53 1.583-3.479l2.309 1.044c-.274.739-.612 1.55-1.012 2.436h5.662zm-8.566 2.382h-3.998c-.233.021-.349.137-.349.346v2.393h4.347v-2.739zm0 5.002h-4.347v2.798h4.347v-2.798zm0 5.061h-4.347v2.361c.021.252.137.378.349.378h3.998v-2.739zM395.429 65.436l-2.151-2.057c1.392-.737 2.572-1.655 3.543-2.752a.802.802 0 0 1 .189-.189c1.792-1.939 3.068-4.787 3.828-8.541h-6.991v-2.739h7.244V41.477h-2.594c-.886 2.574-1.866 4.598-2.942 6.074l-2.436-1.455a17.529 17.529 0 0 0 2.499-4.492c.463-1.26.77-3.1.917-5.522l2.753.032a87.874 87.874 0 0 1-.222 2.625h9.951v2.739h-5.188V49.159h5.852v2.739h-6.104a4.192 4.192 0 0 0-.094.569 132.303 132.303 0 0 1 6.547 10.534l-2.468 1.486c-1.287-2.594-2.908-5.504-4.866-8.73-1.218 3.985-3.641 7.211-7.267 9.679zm18.166.004h-2.738V38.05c-.021-.296.126-.444.442-.444h10.447c.401 0 .602.19.602.57V65.44h-2.738v-1.455h-6.015v1.455zm6.014-4.194v-20.52c0-.253-.139-.381-.414-.381h-5.219c-.275 0-.403.127-.382.381v20.52h6.015zM436.065 41.462v2.5h-9.269v-2.5h9.269zm-6.519 23.386h-2.62V54.671c.021-.549.295-.824.821-.824h7.019c.568.021.854.296.854.824V63.2c0 .592-.296.888-.886.888h-5.188v.76zm5.381-27.673v2.5h-7.497v-2.5h7.497zm.127 8.574v2.501h-7.497v-2.501h7.497zm0 4.049v2.501h-7.497v-2.501h7.497zm-5.096 6.55c-.275 0-.412.138-.412.413v4.827h2.914c.359-.021.539-.2.539-.539V56.76c-.021-.275-.169-.413-.443-.413h-2.598zm9.531 8.005h-2.501V51.512c0-.507.252-.761.759-.761h9.257c.547 0 .821.265.821.791v10.471c0 .021-.011.043-.031.063a27.508 27.508 0 0 0 2.626-3.069c-.866-3.1-1.424-6.387-1.677-9.863h-12.447v-2.501h6.827c.8-1.981 1.368-3.732 1.705-5.251l2.304.822c-.232.992-.695 2.468-1.39 4.429h2.779a84.76 84.76 0 0 1-.253-5.835h-11.213v-2.5h3.922v-2.341h2.62v2.341h4.65v-2.404l2.499.221c-.085 3.603-.021 7.109.189 10.519h5.251v2.501h-5.061c.253 3.359.579 5.769.98 7.226.716-1.31 1.434-3.074 2.15-5.293l2.373.825c-1.097 3.105-2.353 5.684-3.765 7.732.169.592.348 1.173.538 1.743.21.719.411 1.077.601 1.077.105 0 .169-.095.19-.284.104-.466.158-1.754.158-3.866l2.403.664c-.189 2.854-.411 4.668-.664 5.449-.189.548-.442.927-.759 1.139-.359.253-.728.379-1.107.379-.464-.021-.896-.295-1.297-.822-.591-.802-1.15-1.93-1.677-3.387-1.202 1.498-2.604 2.944-4.207 4.336l-1.898-1.677a49.629 49.629 0 0 1 1.804-1.486h-7.462v1.453zm.721-22.858c.632 2.257.98 3.701 1.043 4.334l-2.436.348a23.376 23.376 0 0 0-1.012-4.144l2.405-.538zm-.311 11.637c-.273 0-.41.137-.41.41v2.27h5.836v-2.27c0-.273-.138-.41-.411-.41h-5.015zm5.426 5.062h-5.836v2.322h5.331c.336 0 .505-.17.505-.509v-1.813zm8.645-20.621c.886 1.603 1.655 3.617 2.31 6.042l-2.373.822c-.78-2.53-1.529-4.502-2.246-5.915l2.309-.949zM468.079 65.841h-2.739V52.492c-.949 2.088-2.004 3.954-3.163 5.599l-2.594-1.013c2.319-2.888 4.08-6.168 5.282-9.837h-4.776v-2.739h5.251v-4.523c-1.477.126-3.017.232-4.618.316l-.316-2.752c4.864-.295 8.729-.822 11.597-1.582l.474 2.72c-1.35.359-2.814.676-4.396.949v4.872h4.555v2.739h-4.555v.411a82.789 82.789 0 0 1 5.314 6.707l-2.151 1.676a83.873 83.873 0 0 0-3.163-4.492v14.298zm3.572-5.964l-.664-2.688 12.812-2.183V35.963h2.739v18.568l2.72-.475.443 2.721-3.163.569v8.383h-2.739v-7.908l-12.148 2.056zm3.853-14.519c2.636 2.657 4.46 4.598 5.472 5.82l-2.15 1.676c-1.413-1.813-3.195-3.701-5.347-5.662l2.025-1.834zm1.392-7.845c2.825 2.827 4.776 4.935 5.852 6.327l-2.15 1.677c-1.604-2.066-3.512-4.123-5.726-6.168l2.024-1.836zM497.174 44.71h-3.732v-2.739h3.732v-5.884h2.739v5.884h3.036v2.739h-3.036v5.884a22.603 22.603 0 0 0 2.183-1.486l1.677 2.151a37.835 37.835 0 0 1-3.448 2.151 2.519 2.519 0 0 0-.411.222v9.047c-.021 1.223-.505 2.151-1.449 2.783-.734.485-2.366.369-4.896-.348l.158-2.847c.717.296 1.234.485 1.551.569.822.211 1.359.222 1.613.031.189-.168.284-.475.284-.917v-6.896c-.886.443-1.803.865-2.752 1.265l-1.519-2.341c1.687-.674 3.11-1.297 4.271-1.866V44.71zm5.07 20.942l-1.708-2.499c4.154-1.117 7.497-2.572 10.027-4.365-1.961-1.877-3.965-4.334-6.01-7.371l2.277-1.55c1.981 3.08 3.867 5.484 5.654 7.212 2.295-2.487 4.044-5.029 5.246-7.623.21-.485.095-.716-.348-.696h-12.957v-2.739h6.264v-4.347h-7.528v-2.739h7.528v-2.974h2.739v2.974h8.604v2.739h-8.604v4.347h6.959l1.139.944c-.759 2.505-1.708 4.716-2.847 6.635-.612.97-1.993 2.72-4.145 5.25 2.235 1.667 5.072 3.175 8.51 4.524l-1.898 2.467a40.62 40.62 0 0 1-8.568-5.282c-3.157 2.446-6.6 4.144-10.334 5.093z"/></g></svg>