<svg xmlns="http://www.w3.org/2000/svg" width="387.898" height="174.522" viewBox="0 0 387.898 174.522"><path fill="#004091" d="M93.946 35.019c6.15 0 8.011 5.615 8.011 8.702H85.375c0-4.373 3.042-8.702 8.571-8.702zm17.656 25.987c-1.742.589-3.564 1.131-5.388 1.501a33.283 33.283 0 0 1-6.604.675c-7.275 0-12.972-2.421-13.901-8.185h31.026c.229-1.104.642-3.788.642-6.603 0-13.102-6.518-25.124-23.148-25.124-16.154 0-24.756 12.66-24.756 26.856 0 16.358 11.446 25.718 27.412 25.718 4.066 0 7.044-.362 9.496-.86 2.547-.518 5.355-1.36 7.729-2.418l-2.508-11.56zM334.826 35.019c6.151 0 8.007 5.615 8.007 8.702h-16.571c0-4.373 3.033-8.702 8.564-8.702zm17.66 25.987c-1.744.589-3.579 1.131-5.398 1.501a33.106 33.106 0 0 1-6.603.675c-7.266 0-12.964-2.421-13.889-8.185h31.017c.229-1.104.64-3.788.64-6.603 0-13.102-6.521-25.124-23.141-25.124-16.152 0-24.756 12.66-24.756 26.856 0 16.358 11.442 25.718 27.412 25.718 4.068 0 7.036-.362 9.499-.86 2.543-.518 5.352-1.36 7.716-2.418l-2.497-11.56zM124.975 6.591v68.18h16.828V6.591h-16.828zM175.59 63.37c-5.466 0-9.055-5.399-9.055-13.76 0-6.657 2.406-13.76 9.113-13.76 6.477 0 8.769 7.364 8.769 13.685 0 8.392-3.488 13.835-8.827 13.835zm-.232 12.475c13.139 0 26.42-8.266 26.42-26.731 0-10.993-6.506-25.763-25.588-25.763-19.642 0-26.806 14.307-26.806 26.6.001 15.422 10.704 25.894 25.974 25.894zM209.102 24.452v50.319h16.816V24.452h-16.816zM209.102 6.61v13.062h16.816V6.61h-16.816zM239.25 10.767v13.68h-6.469v12.469h6.469v20.615c0 11.336 5.185 18.268 17.016 18.268 2.222 0 4.722-.226 7.031-.565 2.132-.318 4.029-.71 4.857-.985.013-.013-.124-13.144-.124-13.183-.534.183-4.352.825-5.746.825-1.354 0-3.375-.176-4.801-1.644-1.037-1.051-1.759-2.749-1.759-5.53V36.916h10.872V24.447h-10.872V8.911l-16.474 1.856zM278.169 10.767v13.68h-6.462v12.469h6.462v20.615c0 11.336 5.192 18.268 17.016 18.268 2.223 0 4.732-.226 7.034-.565 2.142-.318 4.027-.71 4.859-.985.014-.013-.119-13.144-.119-13.183-.547.183-4.353.825-5.757.825-1.351 0-3.359-.176-4.793-1.644-1.026-1.051-1.763-2.749-1.763-5.53V36.916h10.875V24.447h-10.875V8.911l-16.477 1.856z"/><path fill="#A1CC56" d="M365.5 66.554c0-5.14 4.168-9.304 9.301-9.304 5.144 0 9.313 4.164 9.313 9.304 0 5.144-4.17 9.305-9.313 9.305-5.133 0-9.301-4.161-9.301-9.305z"/><path fill="#004091" d="M4.372 74.846h19.036c1.293 0 2.844-.034 4.07-.098 26.056-1.344 36.899-16.766 36.899-34.577 0-22.242-15.003-34.705-40.896-34.705-6.64 0-12.551.227-19.11.778v68.602zm24.34-13.586c-.706.055-1.753.09-2.429.09H20.95c.007-.015 0-41.901 0-41.901a69.453 69.453 0 0 1 5.756-.281c9.782 0 20.203 6.348 20.203 21.004 0 15.291-9.797 20.394-18.197 21.088z"/><g fill="#004091"><path d="M7.171 106.58h2.44v-1.695c0-1.031.39-1.848 1.181-2.441.933-.34 1.697-.513 2.291-.513.936 0 1.846.173 2.733.513.743.594 1.114 1.41 1.114 2.441v1.695h13.113v-1.4c0-.933.386-1.695 1.17-2.293.69-.496 1.47-.734 2.354-.734a5.93 5.93 0 0 1 2.563.591c.879.69 1.326 1.504 1.326 2.437v1.4h2.291c1.081 0 1.846.247 2.288.74.438.346.665 1.082.665 2.209 0 .93-.175 1.591-.516 1.99-.49.635-1.303.953-2.436.953h-2.291v5.089c0 2.313-1.604 3.473-4.817 3.473h-5.92v3.033h10.674c2.703 0 4.054 1.354 4.054 4.059v8.327c0 2.707-1.351 4.055-4.054 4.055H26.721v2.946h12.702c1.032 0 1.767.203 2.213.589.49.339.742 1.136.742 2.356 0 1.128-.152 1.887-.445 2.278-.491.642-1.33.957-2.51.957H26.721v3.037h10.113c.887 0 1.526.205 1.926.595.439.348.662 1.16.662 2.441 0 .942-.123 1.6-.373 1.996-.494.641-1.232.955-2.216.955H26.721v3.17c3.988-.14 7.921-.309 11.818-.515.783 0 1.403.247 1.841.746.052.045.052.071 0 .071 3.499-6.997 5.786-14.419 6.867-22.26.598-3.798 1.036-9.001 1.333-15.612h-4.36c-2.363 0-3.539-1.254-3.539-3.759 0-2.565 1.176-3.845 3.539-3.845h4.582c.052-3.247.068-6.724.068-10.414 0-1.034.319-1.914.965-2.663.69-.44 1.552-.739 2.584-.882 1.374.058 2.336.315 2.882.81.587.593.936 1.413 1.037 2.445 0 3.79-.048 7.364-.149 10.704h9.005c1.973 0 3.399.342 4.287 1.032 1.033.737 1.556 2.562 1.556 5.463 0 15.463-.152 27.033-.446 34.71-.048 4.573-.791 7.809-2.216 9.681-1.627 2.111-4.189 3.169-7.685 3.169-2.213-.094-4.181-.368-5.909-.807-1.57-.448-2.651-.992-3.245-1.626-.742-.893-1.106-1.774-1.106-2.659 0-1.324.241-2.242.735-2.735.736-.688 1.574-1.021 2.51-1.021.298 0 .811.088 1.553.285 1.675.532 3.328.818 4.946.818 1.627 0 2.66-.473 3.098-1.411.302-.488.477-1.962.527-4.423.097-3.849.146-14.286.146-31.319-.048-1.037-.417-1.553-1.111-1.553h-6.87c-.394 6.611-1.036 12.479-1.917 17.609-1.626 10.853-4.538 19.865-8.716 27.051-1.133 1.143-2.581 1.749-4.356 1.854-1.328-.105-2.22-.441-2.658-1.034-.397-.55-.594-1.083-.594-1.625 0-.396.051-.763.148-1.103-10.736 1.223-20.856 1.967-30.356 2.21-1.136-.058-1.923-.303-2.37-.736-.542-.493-.834-1.332-.89-2.515 0-.935.252-1.646.742-2.137.74-.736 1.775-1.109 3.105-1.109 3.833-.15 7.605-.324 11.301-.519v-3.548h-9.75c-.888 0-1.552-.241-1.998-.736-.491-.394-.736-1.124-.736-2.215 0-1.233.246-2.049.736-2.441.393-.39 1.062-.595 1.998-.595h9.749v-3.037H7.513c-.842 0-1.53-.243-2.072-.737-.59-.44-.892-1.268-.892-2.498 0-1.128.302-1.912.892-2.356.394-.386 1.081-.589 2.072-.589h11.888v-2.946H9.653c-2.756 0-4.13-1.348-4.13-4.055v-8.327c0-2.705 1.374-4.059 4.13-4.059h9.749v-3.033H13.69c-2.722 0-4.077-1.351-4.077-4.058v-4.504h-2.44c-.936 0-1.671-.216-2.22-.661-.487-.385-.735-1.15-.735-2.282 0-.981.249-1.747.735-2.28.547-.442 1.283-.668 2.218-.668zm12.23 28.325v-5.224h-5.367c-.731 0-1.099.363-1.099 1.098v2.955c0 .776.367 1.171 1.099 1.171h5.367zm-2.469-22.433v2.653c0 .2.193.294.594.294h11.401c.744 0 1.118-.094 1.118-.294v-2.653H16.932zm15.946 22.433c.84 0 1.252-.395 1.252-1.171v-2.955c0-.734-.412-1.098-1.252-1.098h-6.157v5.224h6.157zM106.908 101.93c1.232 0 2.139.222 2.733.662.743.643 1.114 1.501 1.114 2.587v8.274h6.373v-8.274c0-.933.341-1.801 1.029-2.587.55-.44 1.482-.662 2.812-.662 1.336 0 2.243.222 2.745.662.739.643 1.11 1.501 1.11 2.587v8.274h6.202a779.176 779.176 0 0 0 3.254-7.464c.589-1.128 1.79-1.696 3.616-1.696.981 0 1.768.171 2.359.512.687.346 1.088.936 1.184 1.774-.244.936-1.232 3.23-2.949 6.874h7.013c1.225 0 2.086.221 2.584.663.442.396.667 1.269.667 2.61 0 1.044-.178 1.83-.523 2.374-.59.791-1.503 1.191-2.729 1.191h-14.774l-2.361 5.606h14.179c1.233 0 2.095.221 2.584.666.446.449.665 1.318.665 2.61 0 1.039-.167 1.836-.516 2.377-.594.8-1.5 1.191-2.734 1.191h-24.183v4.277h23.114c1.129 0 1.972.25 2.511.743.494.449.742 1.291.742 2.534 0 1.045-.2 1.815-.594 2.31-.639.645-1.53.967-2.659.967h-23.114v4.469h26.069c1.129 0 1.969.228 2.511.672.494.444.735 1.312.735 2.603 0 1.042-.216 1.837-.662 2.379-.586.791-1.455 1.188-2.584 1.188h-18.836c6.009 2.914 13.143 5.742 21.42 8.492 1.033.845 1.553 1.823 1.553 2.957-.104 1.134-.615 1.924-1.553 2.361-.638.495-1.722.789-3.252.887-2.563 0-5.348-.739-8.341-2.213a156.334 156.334 0 0 1-17.061-10.271v10.197c0 1.331-.328 2.256-.978 2.8-.598.694-1.567 1.037-2.915 1.037-1.242 0-2.213-.343-2.912-1.037-.602-.589-.899-1.521-.899-2.8V157.03a6.196 6.196 0 0 1-.661.582c-4.78 3.454-9.678 6.413-14.703 8.867-1.964 1.04-4.208 1.967-6.718 2.812-1.53.586-3.031.91-4.505.955-1.43 0-2.581-.514-3.476-1.551-.683-.831-1.029-1.815-1.029-2.949.146-1.031.765-1.921 1.846-2.66 4.675-1.284 9.822-3.149 15.43-5.613a156.232 156.232 0 0 0 5.466-2.588h-18.9c-1.032 0-1.849-.296-2.439-.889-.546-.499-.813-1.396-.813-2.678 0-1.142.267-2.008.813-2.603.59-.444 1.408-.672 2.439-.672h27.251v-4.469H86.359c-1.032 0-1.842-.245-2.436-.744-.538-.445-.813-1.291-.813-2.532 0-1.096.275-1.932.813-2.534.594-.493 1.404-.743 2.436-.743h24.299v-4.277h-25.03c-1.136 0-1.967-.299-2.514-.891-.49-.497-.739-1.392-.739-2.678 0-1.145.249-2.011.739-2.61.547-.445 1.378-.666 2.514-.666h13.437L97 120.293H82.896c-1.037 0-1.854-.296-2.437-.895-.546-.493-.817-1.386-.817-2.671 0-1.146.271-2.013.817-2.61.582-.442 1.399-.663 2.437-.663h8.051a70.284 70.284 0 0 0-2.886-4.731c-.438-.592-.661-1.08-.661-1.474 0-1.09.442-1.892 1.33-2.443.59-.341 1.33-.512 2.217-.512.586 0 1.159.199 1.697.591.687.438 1.526 1.274 2.514 2.51 2.013 2.752 3.045 4.78 3.097 6.06h4.798v-8.274c0-.933.35-1.801 1.041-2.587.444-.442 1.38-.664 2.814-.664zm.498 23.969h12.626l2.436-5.606h-17.203l2.141 5.606zM166.65 138.764c-1.623.049-3.148.08-4.571.08-1.381 0-2.388-.438-3.03-1.332-.543-.686-.814-1.645-.814-2.882 0-1.916 1.177-2.902 3.547-2.954 8.753-.046 17.076-.339 24.944-.887 10.529-.593 20.029-1.602 28.496-3.027a17.764 17.764 0 0 1 2.738-.223c.936 0 1.763.375 2.503 1.11.646.792.961 1.605.961 2.439 0 1.625-.564 2.707-1.701 3.243-6.684 1.284-15.375 2.296-26.069 3.027v30.14c0 1.317-.312 2.26-.955 2.807-.686.691-1.72 1.029-3.094 1.029-1.325 0-2.309-.338-2.956-1.029-.587-.582-.876-1.532-.876-2.807v-29.543c-4.896.347-9.365.566-13.414.66.638.395.957 1.235.957 2.513v5.989c0 2.758.499 5.042 1.478 6.86 1.631 2.614 4.658 5.326 9.085 8.126.594.643.888 1.454.888 2.434 0 1.034-.473 2.071-1.404 3.111-.738.636-1.746.953-3.027.953-.787 0-1.596-.317-2.436-.953-1.924-1.479-4.348-4.264-7.293-8.345-.247-.293-.417-.448-.514-.448-.245 0-.46.155-.661.448-1.809 3.188-3.848 5.879-6.094 8.047-.992.976-2.076 1.498-3.258 1.549-1.136-.051-2.042-.365-2.732-.964-1.129-.885-1.724-1.916-1.772-3.099 0-1.085.416-1.998 1.259-2.733 3.297-2.566 5.563-4.844 6.788-6.867 1.285-2.268 1.946-5.018 1.998-8.275v-5.833c.001-1.033.342-1.814 1.029-2.364zm-2.269-34.175h50.5c3.598 0 5.389 1.751 5.389 5.247v11.507c0 3.601-1.791 5.389-5.389 5.389h-50.5c-3.542 0-5.317-1.788-5.317-5.389v-11.507c-.001-3.496 1.774-5.247 5.317-5.247zm12.453 15.3v-8.457h-8.301c-.929 0-1.393.459-1.393 1.392v5.533c0 1.024.464 1.532 1.393 1.532h8.301zm17.77 0v-8.457h-9.884v8.457h9.884zm13.777 17.997c1.391 0 2.366.241 2.912.73.595.395.902 1.235.902 2.513v5.989c0 2.758.531 5.042 1.619 6.86 1.57 2.614 4.602 5.326 9.087 8.126.78.545 1.175 1.252 1.175 2.143 0 1.133-.539 2.239-1.611 3.323-.795.687-1.857 1.032-3.183 1.032-.841 0-1.65-.317-2.44-.953-1.917-1.584-4.394-4.461-7.412-8.647-.253-.236-.424-.363-.527-.363-.193 0-.402.15-.595.44-1.946 3.245-4.078 6.006-6.402 8.272-1.036.976-2.143 1.498-3.32 1.549-1.133-.051-2.068-.365-2.807-.964-1.041-.885-1.605-1.916-1.695-3.099 0-1.085.408-1.998 1.249-2.733 3.445-2.566 5.785-4.844 7.011-6.867 1.337-2.268 2.058-5.018 2.154-8.275v-5.833c0-1.177.411-2.068 1.262-2.654.601-.392 1.477-.589 2.621-.589zm2.413-17.997c.93 0 1.401-.508 1.401-1.532v-5.533c0-.933-.472-1.392-1.401-1.392h-8.303v8.457h8.303zM247.168 102.683c1.396 0 2.473.232 3.262.663 1.03.5 1.543 1.459 1.543 2.896a29.782 29.782 0 0 1-.585 3.241c-.932 3.548-2.236 7.341-3.908 11.378v46.306c0 1.326-.356 2.289-1.047 2.883-.559.633-1.501.961-2.845.961-1.24 0-2.169-.328-2.763-.961-.703-.594-1.048-1.557-1.048-2.883v-30.278a26.9 26.9 0 0 1-1.553 2.511c-.783.938-1.867 1.403-3.253 1.403-1.282 0-2.384-.377-3.32-1.11-.738-.638-1.106-1.549-1.106-2.729.048-.739.371-1.581.959-2.519 5.71-9.25 10.042-19.025 12.975-29.319.601-1.429 1.5-2.243 2.689-2.443zm7.728 14.23h41.07c1.218 0 2.132.243 2.734.734.533.448.81 1.378.81 2.812 0 1.126-.224 1.99-.669 2.585-.639.795-1.603 1.18-2.875 1.18h-41.07c-1.237 0-2.146-.267-2.733-.811-.543-.539-.813-1.53-.813-2.954 0-1.235.271-2.173.813-2.812.587-.491 1.495-.734 2.733-.734zm1.987 11.212h36.126c1.123 0 1.962.226 2.511.668.489.491.742 1.365.742 2.608 0 1.043-.199 1.786-.604 2.234-.626.696-1.526 1.041-2.649 1.041h-36.126c-1.024 0-1.842-.249-2.43-.744-.544-.444-.81-1.286-.81-2.531 0-1.091.266-1.96.81-2.608.588-.442 1.405-.668 2.43-.668zm0 10.361h36.126c1.123 0 1.962.219 2.511.661.489.451.742 1.327.742 2.614 0 .943-.199 1.667-.604 2.165-.626.746-1.526 1.113-2.649 1.113h-36.126c-1.024 0-1.842-.274-2.43-.818-.544-.45-.81-1.268-.81-2.46 0-1.143.266-2.009.81-2.614.588-.442 1.405-.661 2.43-.661zm.668-32.885h34.873c1.121 0 1.96.246 2.497.742.495.445.737 1.291.737 2.538 0 1.038-.212 1.812-.658 2.303-.594.655-1.455.97-2.576.97h-34.873c-1.127 0-1.973-.246-2.51-.742-.495-.452-.735-1.292-.735-2.53 0-1.1.24-1.94.735-2.538.537-.497 1.383-.743 2.51-.743zm2.007 43.524h30.785c3.544 0 5.315 1.786 5.315 5.349v10.401c0 3.565-1.771 5.352-5.315 5.352h-30.785c-3.496 0-5.244-1.786-5.244-5.352v-10.401c-.001-3.562 1.748-5.349 5.244-5.349zm26.322 14.542c1.135 0 1.7-.596 1.7-1.78v-4.431c0-1.187-.565-1.771-1.7-1.771h-21.837c-1.226 0-1.834.584-1.834 1.771v4.431c0 1.185.608 1.78 1.834 1.78h21.837z"/></g></svg>