<?xml version="1.0" encoding="utf-8"?>
<!-- Generator: Adobe Illustrator 16.0.0, SVG Export Plug-In . SVG Version: 6.00 Build 0)  -->
<!DOCTYPE svg PUBLIC "-//W3C//DTD SVG 1.1//EN" "http://www.w3.org/Graphics/SVG/1.1/DTD/svg11.dtd">
<svg version="1.1" id="圖層_1" xmlns="http://www.w3.org/2000/svg" xmlns:xlink="http://www.w3.org/1999/xlink" x="0px" y="0px"
	 width="387.898px" height="174.522px" viewBox="0 0 387.898 174.522" enable-background="new 0 0 387.898 174.522"
	 xml:space="preserve">
<g>
	<path fill="#004091" d="M93.946,35.019c6.15,0,8.011,5.615,8.011,8.702c-0.015,0-16.567,0-16.582,0
		C85.375,39.348,88.417,35.019,93.946,35.019z M111.602,61.006c-1.742,0.589-3.564,1.131-5.388,1.501
		c-2.143,0.434-4.356,0.675-6.604,0.675c-7.275,0-12.972-2.421-13.901-8.185h31.026c0.229-1.104,0.642-3.788,0.642-6.603
		c0-13.102-6.518-25.124-23.148-25.124c-16.154,0-24.756,12.66-24.756,26.856c0,16.358,11.446,25.718,27.412,25.718
		c4.066,0,7.044-0.362,9.496-0.86c2.547-0.518,5.355-1.36,7.729-2.418L111.602,61.006z"/>
	<path fill="#004091" d="M334.826,35.019c6.151,0,8.007,5.615,8.007,8.702c-0.006,0-16.562,0-16.571,0
		C326.262,39.348,329.295,35.019,334.826,35.019z M352.486,61.006c-1.744,0.589-3.579,1.131-5.398,1.501
		c-2.132,0.434-4.344,0.675-6.603,0.675c-7.266,0-12.964-2.421-13.889-8.185h31.017c0.229-1.104,0.64-3.788,0.64-6.603
		c0-13.102-6.521-25.124-23.141-25.124c-16.152,0-24.756,12.66-24.756,26.856c0,16.358,11.442,25.718,27.412,25.718
		c4.068,0,7.036-0.362,9.499-0.86c2.543-0.518,5.352-1.36,7.716-2.418L352.486,61.006z"/>
	<path fill="#004091" d="M124.975,6.591v68.18h16.828V6.591H124.975z"/>
	<path fill="#004091" d="M175.59,63.37c-5.466,0-9.055-5.399-9.055-13.76c0-6.657,2.406-13.76,9.113-13.76
		c6.477,0,8.769,7.364,8.769,13.685C184.417,57.927,180.929,63.37,175.59,63.37z M175.358,75.845c13.139,0,26.42-8.266,26.42-26.731
		c0-10.993-6.506-25.763-25.588-25.763c-19.642,0-26.806,14.307-26.806,26.6C149.385,65.373,160.088,75.845,175.358,75.845z"/>
	<path fill="#004091" d="M209.102,24.452v50.319h16.816V24.452H209.102z"/>
	<path fill="#004091" d="M209.102,6.61v13.062h16.816V6.61H209.102z"/>
	<path fill="#004091" d="M239.25,10.767v13.68h-6.469v12.469h6.469v20.615c0,11.336,5.185,18.268,17.016,18.268
		c2.222,0,4.722-0.226,7.031-0.565c2.132-0.318,4.029-0.71,4.857-0.985c0.013-0.013-0.124-13.144-0.124-13.183
		c-0.534,0.183-4.352,0.825-5.746,0.825c-1.354,0-3.375-0.176-4.801-1.644c-1.037-1.051-1.759-2.749-1.759-5.53V36.916h10.872
		V24.447c0,0-9.438,0-10.872,0c0-1.467,0-15.536,0-15.536L239.25,10.767z"/>
	<path fill="#004091" d="M278.169,10.767v13.68h-6.462v12.469h6.462v20.615c0,11.336,5.192,18.268,17.016,18.268
		c2.223,0,4.732-0.226,7.034-0.565c2.142-0.318,4.027-0.71,4.859-0.985c0.014-0.013-0.119-13.144-0.119-13.183
		c-0.547,0.183-4.353,0.825-5.757,0.825c-1.351,0-3.359-0.176-4.793-1.644c-1.026-1.051-1.763-2.749-1.763-5.53V36.916h10.875
		V24.447c0,0-9.438,0-10.875,0c0-1.467,0-15.536,0-15.536L278.169,10.767z"/>
	<path fill="#A1CC56" d="M365.5,66.554c0-5.14,4.168-9.304,9.301-9.304c5.144,0,9.313,4.164,9.313,9.304
		c0,5.144-4.17,9.305-9.313,9.305C369.668,75.859,365.5,71.698,365.5,66.554z"/>
	<path fill="#004091" d="M4.372,74.846h19.036c1.293,0,2.844-0.034,4.07-0.098c26.056-1.344,36.899-16.766,36.899-34.577
		c0-22.242-15.003-34.705-40.896-34.705c-6.64,0-12.551,0.227-19.11,0.778V74.846z M28.712,61.26
		c-0.706,0.055-1.753,0.09-2.429,0.09H20.95c0.007-0.015,0-41.901,0-41.901c1.845-0.173,4.189-0.281,5.756-0.281
		c9.782,0,20.203,6.348,20.203,21.004C46.909,55.463,37.112,60.566,28.712,61.26z"/>
	<g>
		<path fill="#004091" d="M7.171,106.58h2.44v-1.695c0-1.031,0.39-1.848,1.181-2.441c0.933-0.34,1.697-0.513,2.291-0.513
			c0.936,0,1.846,0.173,2.733,0.513c0.743,0.594,1.114,1.41,1.114,2.441v1.695h13.113v-1.4c0-0.933,0.386-1.695,1.17-2.293
			c0.69-0.496,1.47-0.734,2.354-0.734c0.873,0,1.738,0.198,2.563,0.591c0.879,0.69,1.326,1.504,1.326,2.437v1.4h2.291
			c1.081,0,1.846,0.247,2.288,0.74c0.438,0.346,0.665,1.082,0.665,2.209c0,0.93-0.175,1.591-0.516,1.99
			c-0.49,0.635-1.303,0.953-2.436,0.953h-2.291v5.089c0,2.313-1.604,3.473-4.817,3.473h-5.92v3.033h10.674
			c2.703,0,4.054,1.354,4.054,4.059v8.327c0,2.707-1.351,4.055-4.054,4.055H26.721v2.946h12.702c1.032,0,1.767,0.203,2.213,0.589
			c0.49,0.339,0.742,1.136,0.742,2.356c0,1.128-0.152,1.887-0.445,2.278c-0.491,0.642-1.33,0.957-2.51,0.957H26.721v3.037h10.113
			c0.887,0,1.526,0.205,1.926,0.595c0.439,0.348,0.662,1.16,0.662,2.441c0,0.942-0.123,1.6-0.373,1.996
			c-0.494,0.641-1.232,0.955-2.216,0.955H26.721v3.17c3.988-0.14,7.921-0.309,11.818-0.515c0.783,0,1.403,0.247,1.841,0.746
			c0.052,0.045,0.052,0.071,0,0.071c3.499-6.997,5.786-14.419,6.867-22.26c0.598-3.798,1.036-9.001,1.333-15.612h-4.36
			c-2.363,0-3.539-1.254-3.539-3.759c0-2.565,1.176-3.845,3.539-3.845h4.582c0.052-3.247,0.068-6.724,0.068-10.414
			c0-1.034,0.319-1.914,0.965-2.663c0.69-0.44,1.552-0.739,2.584-0.882c1.374,0.058,2.336,0.315,2.882,0.81
			c0.587,0.593,0.936,1.413,1.037,2.445c0,3.79-0.048,7.364-0.149,10.704h9.005c1.973,0,3.399,0.342,4.287,1.032
			c1.033,0.737,1.556,2.562,1.556,5.463c0,15.463-0.152,27.033-0.446,34.71c-0.048,4.573-0.791,7.809-2.216,9.681
			c-1.627,2.111-4.189,3.169-7.685,3.169c-2.213-0.094-4.181-0.368-5.909-0.807c-1.57-0.448-2.651-0.992-3.245-1.626
			c-0.742-0.893-1.106-1.774-1.106-2.659c0-1.324,0.241-2.242,0.735-2.735c0.736-0.688,1.574-1.021,2.51-1.021
			c0.298,0,0.811,0.088,1.553,0.285c1.675,0.532,3.328,0.818,4.946,0.818c1.627,0,2.66-0.473,3.098-1.411
			c0.302-0.488,0.477-1.962,0.527-4.423c0.097-3.849,0.146-14.286,0.146-31.319c-0.048-1.037-0.417-1.553-1.111-1.553h-6.87
			c-0.394,6.611-1.036,12.479-1.917,17.609c-1.626,10.853-4.538,19.865-8.716,27.051c-1.133,1.143-2.581,1.749-4.356,1.854
			c-1.328-0.105-2.22-0.441-2.658-1.034c-0.397-0.55-0.594-1.083-0.594-1.625c0-0.396,0.051-0.763,0.148-1.103
			c-10.736,1.223-20.856,1.967-30.356,2.21c-1.136-0.058-1.923-0.303-2.37-0.736c-0.542-0.493-0.834-1.332-0.89-2.515
			c0-0.935,0.252-1.646,0.742-2.137c0.74-0.736,1.775-1.109,3.105-1.109c3.833-0.15,7.605-0.324,11.301-0.519v-3.548H9.653
			c-0.888,0-1.552-0.241-1.998-0.736c-0.491-0.394-0.736-1.124-0.736-2.215c0-1.233,0.246-2.049,0.736-2.441
			c0.393-0.39,1.062-0.595,1.998-0.595h9.749v-3.037H7.513c-0.842,0-1.53-0.243-2.072-0.737c-0.59-0.44-0.892-1.268-0.892-2.498
			c0-1.128,0.302-1.912,0.892-2.356c0.394-0.386,1.081-0.589,2.072-0.589h11.888v-2.946H9.653c-2.756,0-4.13-1.348-4.13-4.055
			v-8.327c0-2.705,1.374-4.059,4.13-4.059h9.749v-3.033h-5.712c-2.722,0-4.077-1.351-4.077-4.058v-4.504h-2.44
			c-0.936,0-1.671-0.216-2.22-0.661c-0.487-0.385-0.735-1.15-0.735-2.282c0-0.981,0.249-1.747,0.735-2.28
			C5.5,106.806,6.236,106.58,7.171,106.58z M19.401,134.905v-5.224h-5.367c-0.731,0-1.099,0.363-1.099,1.098v2.955
			c0,0.776,0.367,1.171,1.099,1.171H19.401z M16.932,112.472v2.653c0,0.2,0.193,0.294,0.594,0.294h11.401
			c0.744,0,1.118-0.094,1.118-0.294v-2.653H16.932z M32.878,134.905c0.84,0,1.252-0.395,1.252-1.171v-2.955
			c0-0.734-0.412-1.098-1.252-1.098h-6.157v5.224H32.878z"/>
		<path fill="#004091" d="M106.908,101.93c1.232,0,2.139,0.222,2.733,0.662c0.743,0.643,1.114,1.501,1.114,2.587v8.274h6.373v-8.274
			c0-0.933,0.341-1.801,1.029-2.587c0.55-0.44,1.482-0.662,2.812-0.662c1.336,0,2.243,0.222,2.745,0.662
			c0.739,0.643,1.11,1.501,1.11,2.587v8.274h6.202c0.984-2.215,2.065-4.708,3.254-7.464c0.589-1.128,1.79-1.696,3.616-1.696
			c0.981,0,1.768,0.171,2.359,0.512c0.687,0.346,1.088,0.936,1.184,1.774c-0.244,0.936-1.232,3.23-2.949,6.874h7.013
			c1.225,0,2.086,0.221,2.584,0.663c0.442,0.396,0.667,1.269,0.667,2.61c0,1.044-0.178,1.83-0.523,2.374
			c-0.59,0.791-1.503,1.191-2.729,1.191h-14.774l-2.361,5.606h14.179c1.233,0,2.095,0.221,2.584,0.666
			c0.446,0.449,0.665,1.318,0.665,2.61c0,1.039-0.167,1.836-0.516,2.377c-0.594,0.8-1.5,1.191-2.734,1.191h-24.183v4.277h23.114
			c1.129,0,1.972,0.25,2.511,0.743c0.494,0.449,0.742,1.291,0.742,2.534c0,1.045-0.2,1.815-0.594,2.31
			c-0.639,0.645-1.53,0.967-2.659,0.967h-23.114v4.469h26.069c1.129,0,1.969,0.228,2.511,0.672c0.494,0.444,0.735,1.312,0.735,2.603
			c0,1.042-0.216,1.837-0.662,2.379c-0.586,0.791-1.455,1.188-2.584,1.188h-18.836c6.009,2.914,13.143,5.742,21.42,8.492
			c1.033,0.845,1.553,1.823,1.553,2.957c-0.104,1.134-0.615,1.924-1.553,2.361c-0.638,0.495-1.722,0.789-3.252,0.887
			c-2.563,0-5.348-0.739-8.341-2.213c-5.808-3.008-11.502-6.425-17.061-10.271v10.197c0,1.331-0.328,2.256-0.978,2.8
			c-0.598,0.694-1.567,1.037-2.915,1.037c-1.242,0-2.213-0.343-2.912-1.037c-0.602-0.589-0.899-1.521-0.899-2.8V157.03
			c-0.245,0.241-0.468,0.442-0.661,0.582c-4.78,3.454-9.678,6.413-14.703,8.867c-1.964,1.04-4.208,1.967-6.718,2.812
			c-1.53,0.586-3.031,0.91-4.505,0.955c-1.43,0-2.581-0.514-3.476-1.551c-0.683-0.831-1.029-1.815-1.029-2.949
			c0.146-1.031,0.765-1.921,1.846-2.66c4.675-1.284,9.822-3.149,15.43-5.613c2.169-0.984,3.989-1.846,5.466-2.588H83.407
			c-1.032,0-1.849-0.296-2.439-0.889c-0.546-0.499-0.813-1.396-0.813-2.678c0-1.142,0.267-2.008,0.813-2.603
			c0.59-0.444,1.408-0.672,2.439-0.672h27.251v-4.469H86.359c-1.032,0-1.842-0.245-2.436-0.744
			c-0.538-0.445-0.813-1.291-0.813-2.532c0-1.096,0.275-1.932,0.813-2.534c0.594-0.493,1.404-0.743,2.436-0.743h24.299v-4.277
			h-25.03c-1.136,0-1.967-0.299-2.514-0.891c-0.49-0.497-0.739-1.392-0.739-2.678c0-1.145,0.249-2.011,0.739-2.61
			c0.547-0.445,1.378-0.666,2.514-0.666h13.437l-2.065-5.606H82.896c-1.037,0-1.854-0.296-2.437-0.895
			c-0.546-0.493-0.817-1.386-0.817-2.671c0-1.146,0.271-2.013,0.817-2.61c0.582-0.442,1.399-0.663,2.437-0.663h8.051
			c-0.936-1.68-1.902-3.252-2.886-4.731c-0.438-0.592-0.661-1.08-0.661-1.474c0-1.09,0.442-1.892,1.33-2.443
			c0.59-0.341,1.33-0.512,2.217-0.512c0.586,0,1.159,0.199,1.697,0.591c0.687,0.438,1.526,1.274,2.514,2.51
			c2.013,2.752,3.045,4.78,3.097,6.06h4.798v-8.274c0-0.933,0.35-1.801,1.041-2.587C104.538,102.152,105.474,101.93,106.908,101.93z
			 M107.406,125.899h12.626l2.436-5.606h-17.203L107.406,125.899z"/>
		<path fill="#004091" d="M166.65,138.764c-1.623,0.049-3.148,0.08-4.571,0.08c-1.381,0-2.388-0.438-3.03-1.332
			c-0.543-0.686-0.814-1.645-0.814-2.882c0-1.916,1.177-2.902,3.547-2.954c8.753-0.046,17.076-0.339,24.944-0.887
			c10.529-0.593,20.029-1.602,28.496-3.027c0.937-0.146,1.847-0.223,2.738-0.223c0.936,0,1.763,0.375,2.503,1.11
			c0.646,0.792,0.961,1.605,0.961,2.439c0,1.625-0.564,2.707-1.701,3.243c-6.684,1.284-15.375,2.296-26.069,3.027v30.14
			c0,1.317-0.312,2.26-0.955,2.807c-0.686,0.691-1.72,1.029-3.094,1.029c-1.325,0-2.309-0.338-2.956-1.029
			c-0.587-0.582-0.876-1.532-0.876-2.807v-29.543c-4.896,0.347-9.365,0.566-13.414,0.66c0.638,0.395,0.957,1.235,0.957,2.513v5.989
			c0,2.758,0.499,5.042,1.478,6.86c1.631,2.614,4.658,5.326,9.085,8.126c0.594,0.643,0.888,1.454,0.888,2.434
			c0,1.034-0.473,2.071-1.404,3.111c-0.738,0.636-1.746,0.953-3.027,0.953c-0.787,0-1.596-0.317-2.436-0.953
			c-1.924-1.479-4.348-4.264-7.293-8.345c-0.247-0.293-0.417-0.448-0.514-0.448c-0.245,0-0.46,0.155-0.661,0.448
			c-1.809,3.188-3.848,5.879-6.094,8.047c-0.992,0.976-2.076,1.498-3.258,1.549c-1.136-0.051-2.042-0.365-2.732-0.964
			c-1.129-0.885-1.724-1.916-1.772-3.099c0-1.085,0.416-1.998,1.259-2.733c3.297-2.566,5.563-4.844,6.788-6.867
			c1.285-2.268,1.946-5.018,1.998-8.275v-5.833C165.622,140.095,165.963,139.314,166.65,138.764z M164.381,104.589h50.5
			c3.598,0,5.389,1.751,5.389,5.247v11.507c0,3.601-1.791,5.389-5.389,5.389h-50.5c-3.542,0-5.317-1.788-5.317-5.389v-11.507
			C159.063,106.34,160.838,104.589,164.381,104.589z M176.834,119.889v-8.457h-8.301c-0.929,0-1.393,0.459-1.393,1.392v5.533
			c0,1.024,0.464,1.532,1.393,1.532H176.834z M194.604,119.889v-8.457h-9.884v8.457H194.604z M208.381,137.886
			c1.391,0,2.366,0.241,2.912,0.73c0.595,0.395,0.902,1.235,0.902,2.513v5.989c0,2.758,0.531,5.042,1.619,6.86
			c1.57,2.614,4.602,5.326,9.087,8.126c0.78,0.545,1.175,1.252,1.175,2.143c0,1.133-0.539,2.239-1.611,3.323
			c-0.795,0.687-1.857,1.032-3.183,1.032c-0.841,0-1.65-0.317-2.44-0.953c-1.917-1.584-4.394-4.461-7.412-8.647
			c-0.253-0.236-0.424-0.363-0.527-0.363c-0.193,0-0.402,0.15-0.595,0.44c-1.946,3.245-4.078,6.006-6.402,8.272
			c-1.036,0.976-2.143,1.498-3.32,1.549c-1.133-0.051-2.068-0.365-2.807-0.964c-1.041-0.885-1.605-1.916-1.695-3.099
			c0-1.085,0.408-1.998,1.249-2.733c3.445-2.566,5.785-4.844,7.011-6.867c1.337-2.268,2.058-5.018,2.154-8.275v-5.833
			c0-1.177,0.411-2.068,1.262-2.654C206.361,138.083,207.237,137.886,208.381,137.886z M210.794,119.889
			c0.93,0,1.401-0.508,1.401-1.532v-5.533c0-0.933-0.472-1.392-1.401-1.392h-8.303v8.457H210.794z"/>
		<path fill="#004091" d="M247.168,102.683c1.396,0,2.473,0.232,3.262,0.663c1.03,0.5,1.543,1.459,1.543,2.896
			c-0.142,1.126-0.338,2.217-0.585,3.241c-0.932,3.548-2.236,7.341-3.908,11.378v46.306c0,1.326-0.356,2.289-1.047,2.883
			c-0.559,0.633-1.501,0.961-2.845,0.961c-1.24,0-2.169-0.328-2.763-0.961c-0.703-0.594-1.048-1.557-1.048-2.883v-30.278
			c-0.542,0.982-1.062,1.816-1.553,2.511c-0.783,0.938-1.867,1.403-3.253,1.403c-1.282,0-2.384-0.377-3.32-1.11
			c-0.738-0.638-1.106-1.549-1.106-2.729c0.048-0.739,0.371-1.581,0.959-2.519c5.71-9.25,10.042-19.025,12.975-29.319
			C245.08,103.697,245.979,102.883,247.168,102.683z M254.896,116.913h41.07c1.218,0,2.132,0.243,2.734,0.734
			c0.533,0.448,0.81,1.378,0.81,2.812c0,1.126-0.224,1.99-0.669,2.585c-0.639,0.795-1.603,1.18-2.875,1.18h-41.07
			c-1.237,0-2.146-0.267-2.733-0.811c-0.543-0.539-0.813-1.53-0.813-2.954c0-1.235,0.271-2.173,0.813-2.812
			C252.75,117.156,253.658,116.913,254.896,116.913z M256.883,128.125h36.126c1.123,0,1.962,0.226,2.511,0.668
			c0.489,0.491,0.742,1.365,0.742,2.608c0,1.043-0.199,1.786-0.604,2.234c-0.626,0.696-1.526,1.041-2.649,1.041h-36.126
			c-1.024,0-1.842-0.249-2.43-0.744c-0.544-0.444-0.81-1.286-0.81-2.531c0-1.091,0.266-1.96,0.81-2.608
			C255.041,128.351,255.858,128.125,256.883,128.125z M256.883,138.486h36.126c1.123,0,1.962,0.219,2.511,0.661
			c0.489,0.451,0.742,1.327,0.742,2.614c0,0.943-0.199,1.667-0.604,2.165c-0.626,0.746-1.526,1.113-2.649,1.113h-36.126
			c-1.024,0-1.842-0.274-2.43-0.818c-0.544-0.45-0.81-1.268-0.81-2.46c0-1.143,0.266-2.009,0.81-2.614
			C255.041,138.705,255.858,138.486,256.883,138.486z M257.551,105.601h34.873c1.121,0,1.96,0.246,2.497,0.742
			c0.495,0.445,0.737,1.291,0.737,2.538c0,1.038-0.212,1.812-0.658,2.303c-0.594,0.655-1.455,0.97-2.576,0.97h-34.873
			c-1.127,0-1.973-0.246-2.51-0.742c-0.495-0.452-0.735-1.292-0.735-2.53c0-1.1,0.24-1.94,0.735-2.538
			C255.578,105.847,256.424,105.601,257.551,105.601z M259.558,149.125h30.785c3.544,0,5.315,1.786,5.315,5.349v10.401
			c0,3.565-1.771,5.352-5.315,5.352h-30.785c-3.496,0-5.244-1.786-5.244-5.352v-10.401
			C254.313,150.912,256.062,149.125,259.558,149.125z M285.88,163.667c1.135,0,1.7-0.596,1.7-1.78v-4.431
			c0-1.187-0.565-1.771-1.7-1.771h-21.837c-1.226,0-1.834,0.584-1.834,1.771v4.431c0,1.185,0.608,1.78,1.834,1.78H285.88z"/>
	</g>
</g>
</svg>
