<svg xmlns="http://www.w3.org/2000/svg" xmlns:xlink="http://www.w3.org/1999/xlink" width="148.971" height="150.867" viewBox="0 0 148.971 150.867"><defs><path id="a" d="M0 0h148.971v150.867H0z"/></defs><clipPath id="b"><use xlink:href="#a" overflow="visible"/></clipPath><g clip-path="url(#b)"><defs><path id="c" d="M0 0h148.972v150.867H0z"/></defs><clipPath id="d"><use xlink:href="#c" overflow="visible"/></clipPath><g clip-path="url(#d)"><defs><path id="e" d="M-2.625-74.014h264.831v230.997H-2.625z"/></defs><clipPath id="f"><use xlink:href="#e" overflow="visible"/></clipPath><g clip-path="url(#f)"><defs><path id="g" d="M164.827 32.205l-9.343 25.805-31.143 12.222 16.609 47.538 34.257-29.431z"/></defs><clipPath id="h"><use xlink:href="#g" overflow="visible"/></clipPath><linearGradient id="i" gradientUnits="userSpaceOnUse" y1="150.867" x2="1" y2="150.867" gradientTransform="matrix(0 85.5636 85.5636 0 -12758.986 32.18)"><stop offset="0" stop-color="#d7d6d8"/><stop offset="1" stop-color="#fff"/></linearGradient><path clip-path="url(#h)" fill="url(#i)" d="M124.341 32.205h50.866v85.564h-50.866z"/></g><g clip-path="url(#f)"><defs><path id="j" d="M140.95 117.77l54.499 12.672 24.396-42.103z"/></defs><clipPath id="k"><use xlink:href="#j" overflow="visible"/></clipPath><linearGradient id="l" gradientUnits="userSpaceOnUse" y1="150.867" x2="1" y2="150.867" gradientTransform="matrix(0 42.1028 42.1028 0 -6171.526 88.336)"><stop offset="0" stop-color="#d7d6d8"/><stop offset="1" stop-color="#fff"/></linearGradient><path clip-path="url(#k)" fill="url(#l)" d="M140.95 88.339h78.895v42.104H140.95z"/></g><g clip-path="url(#f)"><defs><path id="m" d="M111.13 93.961l29.82 23.809-16.609-47.538z"/></defs><clipPath id="n"><use xlink:href="#m" overflow="visible"/></clipPath><linearGradient id="o" gradientUnits="userSpaceOnUse" y1="150.867" x2="1" y2="150.867" gradientTransform="matrix(0 47.5367 47.5367 0 -7045.69 70.242)"><stop offset="0" stop-color="#d7d6d8"/><stop offset="1" stop-color="#fff"/></linearGradient><path clip-path="url(#n)" fill="url(#o)" d="M111.13 70.232h29.82v47.537h-29.82z"/></g><g clip-path="url(#f)"><defs><path id="p" d="M175.207 88.339L140.95 117.77l78.895-29.431z"/></defs><clipPath id="q"><use xlink:href="#p" overflow="visible"/></clipPath><linearGradient id="r" gradientUnits="userSpaceOnUse" y1="150.867" x2="1" y2="150.867" gradientTransform="matrix(0 29.4295 29.4295 0 -4259.557 88.336)"><stop offset="0" stop-color="#d7d6d8"/><stop offset="1" stop-color="#fff"/></linearGradient><path clip-path="url(#q)" fill="url(#r)" d="M140.95 88.339h78.895v29.431H140.95z"/></g><g clip-path="url(#f)"><defs><path id="s" d="M113.961 10.021L73.477-26.197 86.97 32.205z"/></defs><clipPath id="t"><use xlink:href="#s" overflow="visible"/></clipPath><linearGradient id="u" gradientUnits="userSpaceOnUse" y1="150.867" x2="1" y2="150.867" gradientTransform="matrix(0 58.4018 58.4018 0 -8717.19 -26.195)"><stop offset="0" stop-color="#d7d6d8"/><stop offset="1" stop-color="#fff"/></linearGradient><path clip-path="url(#t)" fill="url(#u)" d="M73.477-26.197h40.484v58.402H73.477z"/></g><g clip-path="url(#f)"><defs><path id="v" d="M92.504 79.092l18.626 14.869 13.211-23.729z"/></defs><clipPath id="w"><use xlink:href="#v" overflow="visible"/></clipPath><linearGradient id="x" gradientUnits="userSpaceOnUse" y1="150.867" x2="1" y2="150.867" gradientTransform="matrix(0 23.7286 23.7286 0 -3471.45 70.227)"><stop offset="0" stop-color="#d7d6d8"/><stop offset="1" stop-color="#fff"/></linearGradient><path clip-path="url(#w)" fill="url(#x)" d="M92.504 70.232h31.837v23.729H92.504z"/></g><g clip-path="url(#f)"><defs><path id="y" d="M141.123 16.628l1.46-36.875-36.841-32.598-32.265 26.648 40.484 36.218z"/></defs><clipPath id="z"><use xlink:href="#y" overflow="visible"/></clipPath><linearGradient id="A" gradientUnits="userSpaceOnUse" y1="150.867" x2="1" y2="150.867" gradientTransform="matrix(0 69.4737 69.4737 0 -10373.295 -52.82)"><stop offset="0" stop-color="#d7d6d8"/><stop offset="1" stop-color="#fff"/></linearGradient><path clip-path="url(#z)" fill="url(#A)" d="M73.477-52.845h69.106v69.473H73.477z"/></g><g clip-path="url(#f)"><defs><path id="B" d="M73.477-26.197l-47.75 1.809L86.97 32.205z"/></defs><clipPath id="C"><use xlink:href="#B" overflow="visible"/></clipPath><linearGradient id="D" gradientUnits="userSpaceOnUse" y1="150.867" x2="1" y2="150.867" gradientTransform="matrix(0 58.4018 58.4018 0 -8754.565 -26.195)"><stop offset="0" stop-color="#d7d6d8"/><stop offset="1" stop-color="#fff"/></linearGradient><path clip-path="url(#C)" fill="url(#D)" d="M25.727-26.197H86.97v58.402H25.727z"/></g><g clip-path="url(#f)"><defs><path id="E" d="M34.102 127.402l-.073.508.644-.421-.068-.069z"/></defs><clipPath id="F"><use xlink:href="#E" overflow="visible"/></clipPath><linearGradient id="G" gradientUnits="userSpaceOnUse" x1="-.001" y1="150.866" x2="1" y2="150.866" gradientTransform="matrix(0 .5073 .5073 0 -42.187 127.402)"><stop offset="0" stop-color="#d7d6d8"/><stop offset="1" stop-color="#fff"/></linearGradient><path clip-path="url(#F)" fill="url(#G)" d="M34.029 127.402h.644v.508h-.644z"/></g><g clip-path="url(#f)"><defs><path id="H" d="M142.583-20.247l22.244 52.452L201.16 21.34l-41.526-49.802z"/></defs><clipPath id="I"><use xlink:href="#H" overflow="visible"/></clipPath><linearGradient id="J" gradientUnits="userSpaceOnUse" y1="150.867" x2="1" y2="150.867" gradientTransform="matrix(0 60.667 60.667 0 -8980.787 -28.477)"><stop offset="0" stop-color="#d7d6d8"/><stop offset="1" stop-color="#fff"/></linearGradient><path clip-path="url(#I)" fill="url(#J)" d="M142.583-28.462h58.577v60.667h-58.577z"/></g><g clip-path="url(#f)"><defs><path id="K" d="M89.048 133.612l51.902-15.842-29.82-23.809z"/></defs><clipPath id="L"><use xlink:href="#K" overflow="visible"/></clipPath><linearGradient id="M" gradientUnits="userSpaceOnUse" y1="150.867" x2="1" y2="150.867" gradientTransform="matrix(0 39.6519 39.6519 0 -5867.168 93.96)"><stop offset="0" stop-color="#d7d6d8"/><stop offset="1" stop-color="#fff"/></linearGradient><path clip-path="url(#L)" fill="url(#M)" d="M89.048 93.961h51.902v39.651H89.048z"/></g><g clip-path="url(#f)"><defs><path id="N" d="M142.583-20.247l-1.46 36.875 23.704 15.577z"/></defs><clipPath id="O"><use xlink:href="#N" overflow="visible"/></clipPath><linearGradient id="P" gradientUnits="userSpaceOnUse" y1="150.867" x2="1" y2="150.867" gradientTransform="matrix(0 52.4522 52.4522 0 -7760.345 -20.258)"><stop offset="0" stop-color="#d7d6d8"/><stop offset="1" stop-color="#fff"/></linearGradient><path clip-path="url(#O)" fill="url(#P)" d="M141.123-20.247h23.704v52.452h-23.704z"/></g><g clip-path="url(#f)"><defs><path id="Q" d="M34.605 127.42l.068.069.096-.064z"/></defs><clipPath id="R"><use xlink:href="#Q" overflow="visible"/></clipPath><linearGradient id="S" gradientUnits="userSpaceOnUse" y1="150.863" x2="1" y2="150.863" gradientTransform="matrix(0 .0686 .0686 0 24.343 127.42)"><stop offset="0" stop-color="#d7d6d8"/><stop offset="1" stop-color="#fff"/></linearGradient><path clip-path="url(#R)" fill="url(#S)" d="M34.605 127.42h.164v.069h-.164z"/></g><g clip-path="url(#f)"><defs><path id="T" d="M113.872 42.337L86.97 32.205 71.918 36.73l7.787 32.144 12.721 10.157z"/></defs><clipPath id="U"><use xlink:href="#T" overflow="visible"/></clipPath><linearGradient id="V" gradientUnits="userSpaceOnUse" y1="150.867" x2="1" y2="150.867" gradientTransform="matrix(0 46.826 46.826 0 -6971.607 32.21)"><stop offset="0" stop-color="#d7d6d8"/><stop offset="1" stop-color="#fff"/></linearGradient><path clip-path="url(#U)" fill="url(#V)" d="M71.918 32.205h41.954v46.826H71.918z"/></g><g clip-path="url(#f)"><defs><path id="W" d="M155.484 58.01l-41.612-15.673-21.446 36.694.078.061 31.837-8.86z"/></defs><clipPath id="X"><use xlink:href="#W" overflow="visible"/></clipPath><linearGradient id="Y" gradientUnits="userSpaceOnUse" x1="-.001" y1="150.867" x2=".999" y2="150.867" gradientTransform="matrix(0 36.7549 36.7549 0 -5421.145 42.336)"><stop offset="0" stop-color="#d7d6d8"/><stop offset="1" stop-color="#fff"/></linearGradient><path clip-path="url(#X)" fill="url(#Y)" d="M92.426 42.337h63.059v36.754H92.426z"/></g><g clip-path="url(#f)"><defs><path id="Z" d="M79.705 68.874L40.181 83.889l52.188-4.76.057-.098z"/></defs><clipPath id="aa"><use xlink:href="#Z" overflow="visible"/></clipPath><linearGradient id="ab" gradientUnits="userSpaceOnUse" y1="150.867" x2="1" y2="150.867" gradientTransform="matrix(0 15.0137 15.0137 0 -2198.774 68.875)"><stop offset="0" stop-color="#d7d6d8"/><stop offset="1" stop-color="#fff"/></linearGradient><path clip-path="url(#aa)" fill="url(#ab)" d="M40.181 68.874h52.245v15.015H40.181z"/></g><g clip-path="url(#f)"><defs><path id="ac" d="M92.369 79.129l.135-.037-.078-.061z"/></defs><clipPath id="ad"><use xlink:href="#ac" overflow="visible"/></clipPath><linearGradient id="ae" gradientUnits="userSpaceOnUse" y1="150.871" x2="1" y2="150.871" gradientTransform="matrix(0 .0977 .0977 0 77.701 79.031)"><stop offset="0" stop-color="#d7d6d8"/><stop offset="1" stop-color="#fff"/></linearGradient><path clip-path="url(#ad)" fill="url(#ae)" d="M92.369 79.031h.135v.098h-.135z"/></g><g clip-path="url(#f)"><defs><path id="af" d="M113.872 42.337l41.612 15.673-16.535-38.029z"/></defs><clipPath id="ag"><use xlink:href="#af" overflow="visible"/></clipPath><linearGradient id="ah" gradientUnits="userSpaceOnUse" y1="150.867" x2="1" y2="150.867" gradientTransform="matrix(0 38.0293 38.0293 0 -5602.692 19.992)"><stop offset="0" stop-color="#d7d6d8"/><stop offset="1" stop-color="#fff"/></linearGradient><path clip-path="url(#ag)" fill="url(#ah)" d="M113.872 19.981h41.612V58.01h-41.612z"/></g><g clip-path="url(#f)"><defs><path id="ai" d="M86.97 32.205L25.727-24.388 71.918 36.73z"/></defs><clipPath id="aj"><use xlink:href="#ai" overflow="visible"/></clipPath><linearGradient id="ak" gradientUnits="userSpaceOnUse" y1="150.859" x2="1" y2="150.859" gradientTransform="scale(199.6377 -199.6377) rotate(-56.139 -141.138 75.527)"><stop offset="0" stop-color="#d7d6d8"/><stop offset="1" stop-color="#fff"/></linearGradient><path clip-path="url(#aj)" fill="url(#ak)" d="M67.957-52.724l47.291 70.48-70.508 47.31-47.291-70.48z"/></g><g clip-path="url(#f)"><defs><path id="al" d="M138.949 19.981l2.174-3.353-27.162-6.607L86.97 32.205l26.902 10.132z"/></defs><clipPath id="am"><use xlink:href="#al" overflow="visible"/></clipPath><linearGradient id="an" gradientUnits="userSpaceOnUse" y1="150.867" x2="1" y2="150.867" gradientTransform="matrix(0 32.3168 32.3168 0 -4761.509 10.023)"><stop offset="0" stop-color="#d7d6d8"/><stop offset="1" stop-color="#fff"/></linearGradient><path clip-path="url(#am)" fill="url(#an)" d="M86.97 10.021h54.153v32.316H86.97z"/></g><g clip-path="url(#f)"><defs><path id="ao" d="M155.484 58.01l9.343-25.805-23.704-15.577-2.174 3.353z"/></defs><clipPath id="ap"><use xlink:href="#ao" overflow="visible"/></clipPath><linearGradient id="aq" gradientUnits="userSpaceOnUse" y1="150.868" x2="1" y2="150.868" gradientTransform="matrix(0 41.382 41.382 0 -6091.317 16.617)"><stop offset="0" stop-color="#d7d6d8"/><stop offset="1" stop-color="#fff"/></linearGradient><path clip-path="url(#ap)" fill="url(#aq)" d="M138.949 16.628h25.878V58.01h-25.878z"/></g><g clip-path="url(#f)"><defs><path id="ar" d="M140.95 117.77l-51.902 15.842 45.061 23.371h22.163l39.177-26.541z"/></defs><clipPath id="as"><use xlink:href="#ar" overflow="visible"/></clipPath><linearGradient id="at" gradientUnits="userSpaceOnUse" y1="150.867" x2="1" y2="150.867" gradientTransform="matrix(0 54.3185 54.3185 0 -8052.63 117.773)"><stop offset="0" stop-color="#d7d6d8"/><stop offset="1" stop-color="#fff"/></linearGradient><path clip-path="url(#as)" fill="url(#at)" d="M89.048 117.77h106.401v39.214H89.048z"/></g><g clip-path="url(#f)"><defs><path id="au" d="M34.102 127.402l.503.018-37.23-13.275v27.261l36.654-13.496z"/></defs><clipPath id="av"><use xlink:href="#au" overflow="visible"/></clipPath><linearGradient id="aw" gradientUnits="userSpaceOnUse" y1="150.867" x2="1" y2="150.867" gradientTransform="matrix(0 27.2622 27.2622 0 -4096.981 114.148)"><stop offset="0" stop-color="#d7d6d8"/><stop offset="1" stop-color="#fff"/></linearGradient><path clip-path="url(#av)" fill="url(#aw)" d="M-2.625 114.145h37.23v27.262h-37.23z"/></g><g clip-path="url(#f)"><defs><path id="ax" d="M25.727-24.388l-28.352 2.181v62.513l22.124 3.215z"/></defs><clipPath id="ay"><use xlink:href="#ax" overflow="visible"/></clipPath><linearGradient id="az" gradientUnits="userSpaceOnUse" y1="150.902" x2="1" y2="150.902" gradientTransform="scale(-44.4405 44.4405) rotate(-8.673 -993.514 79.386)"><stop offset="0" stop-color="#d7d6d8"/><stop offset="1" stop-color="#fff"/></linearGradient><path clip-path="url(#ay)" fill="url(#az)" d="M25.082 47.748l-37.831-5.771L-1.98-28.614l37.831 5.77z"/></g><g clip-path="url(#f)"><defs><path id="aA" d="M34.673 127.489l-.644.421-25.072 29.073h28.977z"/></defs><clipPath id="aB"><use xlink:href="#aA" overflow="visible"/></clipPath><linearGradient id="aC" gradientUnits="userSpaceOnUse" y1="150.867" x2="1" y2="150.867" gradientTransform="matrix(0 29.4948 29.4948 0 -4426.342 127.492)"><stop offset="0" stop-color="#d7d6d8"/><stop offset="1" stop-color="#fff"/></linearGradient><path clip-path="url(#aB)" fill="url(#aC)" d="M8.957 127.489h28.977v29.494H8.957z"/></g><g clip-path="url(#f)"><defs><path id="aD" d="M-2.625 141.406v15.577H8.957l25.072-29.073z"/></defs><clipPath id="aE"><use xlink:href="#aD" overflow="visible"/></clipPath><linearGradient id="aF" gradientUnits="userSpaceOnUse" y1="150.867" x2="1" y2="150.867" gradientTransform="matrix(0 42.3921 42.3921 0 -6379.882 127.898)"><stop offset="0" stop-color="#d7d6d8"/><stop offset="1" stop-color="#fff"/></linearGradient><path clip-path="url(#aE)" fill="url(#aF)" d="M-2.625 127.91h36.654v29.073H-2.625z"/></g><g clip-path="url(#f)"><defs><path id="aG" d="M34.769 127.425l27.518-28.474-22.844-14.859-42.068 21.473v8.58l37.23 13.275z"/></defs><clipPath id="aH"><use xlink:href="#aG" overflow="visible"/></clipPath><linearGradient id="aI" gradientUnits="userSpaceOnUse" y1="150.867" x2="1" y2="150.867" gradientTransform="matrix(0 43.3329 43.3329 0 -6507.67 84.086)"><stop offset="0" stop-color="#d7d6d8"/><stop offset="1" stop-color="#fff"/></linearGradient><path clip-path="url(#aH)" fill="url(#aI)" d="M-2.625 84.092h64.912v43.333H-2.625z"/></g><g clip-path="url(#f)"><defs><path id="aJ" d="M37.644 58.879L19.499 43.521l-22.124-3.215v61.433l39.756-42.881z"/></defs><clipPath id="aK"><use xlink:href="#aJ" overflow="visible"/></clipPath><linearGradient id="aL" gradientUnits="userSpaceOnUse" y1="150.867" x2="1" y2="150.867" gradientTransform="matrix(0 61.433 61.433 0 -9250.723 40.305)"><stop offset="0" stop-color="#d7d6d8"/><stop offset="1" stop-color="#fff"/></linearGradient><path clip-path="url(#aK)" fill="url(#aL)" d="M-2.625 40.306h40.269v61.433H-2.625z"/></g><g clip-path="url(#f)"><defs><path id="aM" d="M39.443 84.092l-1.799-25.213-.513-.021-39.756 42.881v3.826z"/></defs><clipPath id="aN"><use xlink:href="#aM" overflow="visible"/></clipPath><linearGradient id="aO" gradientUnits="userSpaceOnUse" y1="150.867" x2="1" y2="150.867" gradientTransform="matrix(0 46.707 46.707 0 -7028.143 58.867)"><stop offset="0" stop-color="#d7d6d8"/><stop offset="1" stop-color="#fff"/></linearGradient><path clip-path="url(#aN)" fill="url(#aO)" d="M-2.625 58.858h42.068v46.707H-2.625z"/></g><g clip-path="url(#f)"><defs><path id="aP" d="M71.918 36.73l-52.419 6.791 18.145 15.358 42.061 9.995z"/></defs><clipPath id="aQ"><use xlink:href="#aP" overflow="visible"/></clipPath><linearGradient id="aR" gradientUnits="userSpaceOnUse" y1="150.866" x2="1" y2="150.866" gradientTransform="matrix(0 32.1439 32.1439 0 -4799.868 36.727)"><stop offset="0" stop-color="#d7d6d8"/><stop offset="1" stop-color="#fff"/></linearGradient><path clip-path="url(#aQ)" fill="url(#aR)" d="M19.499 36.73h60.206v32.144H19.499z"/></g><g clip-path="url(#f)"><defs><path id="aS" d="M74.653 156.983h59.456l-45.061-23.371z"/></defs><clipPath id="aT"><use xlink:href="#aS" overflow="visible"/></clipPath><linearGradient id="aU" gradientUnits="userSpaceOnUse" y1="150.867" x2="1" y2="150.867" gradientTransform="matrix(0 35.8163 35.8163 0 -5299.135 133.617)"><stop offset="0" stop-color="#d7d6d8"/><stop offset="1" stop-color="#fff"/></linearGradient><path clip-path="url(#aT)" fill="url(#aU)" d="M74.653 133.612h59.456v23.371H74.653z"/></g><g clip-path="url(#f)"><defs><path id="aV" d="M111.13 93.961L92.504 79.092l-.135.037-.138.234-29.944 19.588 26.761 34.661z"/></defs><clipPath id="aW"><use xlink:href="#aV" overflow="visible"/></clipPath><linearGradient id="aX" gradientUnits="userSpaceOnUse" y1="150.867" x2="1" y2="150.867" gradientTransform="matrix(0 54.5201 54.5201 0 -8138.575 79.086)"><stop offset="0" stop-color="#d7d6d8"/><stop offset="1" stop-color="#fff"/></linearGradient><path clip-path="url(#aW)" fill="url(#aX)" d="M62.287 79.092h48.843v54.521H62.287z"/></g><g clip-path="url(#f)"><defs><path id="aY" d="M34.769 127.425l-.096.064 3.261 29.494h36.719l14.395-23.371z"/></defs><clipPath id="aZ"><use xlink:href="#aY" overflow="visible"/></clipPath><linearGradient id="ba" gradientUnits="userSpaceOnUse" y1="150.873" x2="1" y2="150.873" gradientTransform="scale(-30.8801 30.8801) rotate(89.052 73.595 76.475)"><stop offset="0" stop-color="#d7d6d8"/><stop offset="1" stop-color="#fff"/></linearGradient><path clip-path="url(#aZ)" fill="url(#ba)" d="M89.537 127.434l-.504 30.449-54.849-.907.504-30.45z"/></g><g clip-path="url(#f)"><defs><path id="bb" d="M62.287 98.951l-27.518 28.474 54.279 6.187z"/></defs><clipPath id="bc"><use xlink:href="#bb" overflow="visible"/></clipPath><linearGradient id="bd" gradientUnits="userSpaceOnUse" y1="150.867" x2="1" y2="150.867" gradientTransform="matrix(0 34.6614 34.6614 0 -5167.365 98.96)"><stop offset="0" stop-color="#d7d6d8"/><stop offset="1" stop-color="#fff"/></linearGradient><path clip-path="url(#bc)" fill="url(#bd)" d="M34.769 98.951h54.279v34.661H34.769z"/></g><g clip-path="url(#f)"><defs><path id="be" d="M92.369 79.129l-52.188 4.76-.44.377.44-.377-.738.203 22.844 14.859 29.944-19.588z"/></defs><clipPath id="bf"><use xlink:href="#be" overflow="visible"/></clipPath><linearGradient id="bg" gradientUnits="userSpaceOnUse" y1="150.867" x2="1" y2="150.867" gradientTransform="matrix(0 19.8223 19.8223 0 -2924.63 79.133)"><stop offset="0" stop-color="#d7d6d8"/><stop offset="1" stop-color="#fff"/></linearGradient><path clip-path="url(#bf)" fill="url(#bg)" d="M39.443 79.129h52.926v19.822H39.443z"/></g><g clip-path="url(#f)"><defs><path id="bh" d="M79.705 68.874l-42.061-9.995 1.799 25.213.738-.203z"/></defs><clipPath id="bi"><use xlink:href="#bh" overflow="visible"/></clipPath><linearGradient id="bj" gradientUnits="userSpaceOnUse" y1="150.867" x2="1" y2="150.867" gradientTransform="matrix(0 25.2132 25.2132 0 -3745.168 58.883)"><stop offset="0" stop-color="#d7d6d8"/><stop offset="1" stop-color="#fff"/></linearGradient><path clip-path="url(#bi)" fill="url(#bj)" d="M37.644 58.879h42.061v25.212H37.644z"/></g><g clip-path="url(#f)"><defs><path id="bk" d="M25.727-24.388l-6.228 67.909 52.419-6.791z"/></defs><clipPath id="bl"><use xlink:href="#bk" overflow="visible"/></clipPath><linearGradient id="bm" gradientUnits="userSpaceOnUse" x1=".001" y1="150.868" x2="1.001" y2="150.868" gradientTransform="matrix(0 67.9091 67.9091 0 -10199.565 -24.383)"><stop offset="0" stop-color="#d7d6d8"/><stop offset="1" stop-color="#fff"/></linearGradient><path clip-path="url(#bl)" fill="url(#bm)" d="M19.499-24.388h52.419v67.909H19.499z"/></g></g></g><g clip-path="url(#b)"><defs><path id="bn" d="M76.265 110.428c-1.391 4.874-7.053 8.524-13.835 8.524-5.078 0-9.52-2.052-12.021-5.125-1.864 4.325-7.176 7.45-13.45 7.45-5.607 0-10.439-2.5-12.736-6.117-2.298 3.617-7.13 6.117-12.736 6.117-4.726 0-8.911-1.772-11.486-4.494v34.084h148.972v-34.565c-2.838-.833-5.234-2.346-6.857-4.276-2.681 4.111-8.077 6.927-14.313 6.927-6.615 0-12.293-3.165-14.774-7.69-2.568 5.82-9.741 10.016-18.208 10.016-8.866 0-16.31-4.601-18.533-10.85h-.023z"/></defs><clipPath id="bo"><use xlink:href="#bn" overflow="visible"/></clipPath><linearGradient id="bp" gradientUnits="userSpaceOnUse" y1="150.115" x2="1" y2="150.115" gradientTransform="matrix(0 70.2282 70.2282 0 -10467.758 87.117)"><stop offset="0" stop-color="#f1c16d"/><stop offset=".156" stop-color="#f1be66"/><stop offset=".386" stop-color="#f1b652"/><stop offset=".661" stop-color="#f2aa32"/><stop offset=".97" stop-color="#f29805"/><stop offset="1" stop-color="#f29600"/></linearGradient><path clip-path="url(#bo)" fill="url(#bp)" d="M0 110.428h148.972v40.439H0z"/></g><g clip-path="url(#b)"><defs><path id="bq" d="M0 0h148.972v150.867H0z"/></defs><clipPath id="br"><use xlink:href="#bq" overflow="visible"/></clipPath><path clip-path="url(#br)" fill="#595757" d="M55.748 94.706l-14.473 43.641c-1.452 4.379.943 9.151 5.322 10.604 4.38 1.452 9.152-.943 10.605-5.323l14.472-43.64a43.661 43.661 0 0 0-15.926-5.282"/><path clip-path="url(#br)" fill="#EEB457" d="M53.879 93.707l-14.473 43.642c-1.452 4.379.943 9.15 5.322 10.604 4.38 1.452 9.152-.942 10.605-5.323l14.472-43.64a43.683 43.683 0 0 0-15.926-5.283M113.009 62.663c6.753-20.361-4.278-42.341-24.641-49.094-20.361-6.752-42.341 4.28-49.094 24.641-5.959 17.969 1.939 37.193 17.871 46.104a8.393 8.393 0 0 0-.61 1.384l-.333 1.006a54.383 54.383 0 0 1 8.169 2.021 54.64 54.64 0 0 1 7.757 3.26l.334-1.005a8.324 8.324 0 0 0 .38-1.843c17.501 1.505 34.396-9.073 40.167-26.474M66.305 80.098C49.923 74.665 41.048 56.981 46.48 40.6c5.433-16.382 23.117-25.258 39.5-19.825 16.381 5.433 25.257 23.117 19.823 39.498-5.433 16.382-23.116 25.258-39.498 19.825"/><path clip-path="url(#br)" fill="none" stroke="#FFF" stroke-linecap="round" stroke-miterlimit="10" d="M55.081 102.88l-11.644 35.11"/><g opacity=".7" clip-path="url(#br)"><defs><path id="bs" d="M40.85 15.144h70.583v70.584H40.85z"/></defs><clipPath id="bt"><use xlink:href="#bs" overflow="visible"/></clipPath><path clip-path="url(#bt)" fill="#FFF" d="M111.435 50.437c0 19.491-15.801 35.292-35.292 35.292S40.851 69.927 40.851 50.437c0-19.491 15.801-35.292 35.292-35.292s35.292 15.8 35.292 35.292"/></g><path clip-path="url(#br)" fill="#444344" d="M50.538 40.619v5.404h5.558v1.211h-5.558v6.514h-1.41v-14.35h7.414v1.221zM59.168 41.664h1.188v12.084h-1.188zM72.46 53.748l-7.11-9.699c-.089-.123-.178-.25-.264-.379a2.458 2.458 0 0 1-.21-.379h-.044c.011.101.022.241.03.421.01.18.014.404.014.674v9.362h-1.188V41.664h1.313l6.994 9.581a24.714 24.714 0 0 1 .527.792h.044a8.233 8.233 0 0 1-.052-.623 13.817 13.817 0 0 1-.018-.767v-8.983h1.196v12.084H72.46zM77.326 53.748v-14.35h3.998c2.604 0 4.568.589 5.898 1.767 1.329 1.177 1.994 2.916 1.994 5.218 0 1.107-.187 2.115-.558 3.022a6.408 6.408 0 0 1-1.606 2.327c-.699.643-1.548 1.14-2.546 1.49-.996.351-2.121.526-3.373.526h-3.807zm1.41-13.129v11.917h2.334c1.046 0 1.981-.132 2.806-.4.823-.266 1.521-.658 2.095-1.175a5.045 5.045 0 0 0 1.311-1.916c.301-.761.45-1.635.45-2.622 0-3.869-2.167-5.804-6.502-5.804h-2.494zM91.95 41.664h1.188v12.084H91.95zM100.132 42.692v11.056h-1.189V42.692h-3.688v-1.028h8.575v1.028z"/><path clip-path="url(#br)" fill="#3E3A39" d="M49.64 57.147h1.422c.255 0 .382.13.382.389a.52.52 0 0 1-.072.197 2.345 2.345 0 0 1-.43.478c-.191.159-.41.304-.657.436a4.982 4.982 0 0 1-.442.203h.789c.286 0 .43.143.43.43v.311c0 .286-.144.43-.43.43h-.765c-.127 0-.191.061-.191.185v.34c0 .128.064.191.191.191h.765c.286 0 .43.144.43.431-.02.489-.074.844-.162 1.063a.367.367 0 0 1-.274.257 1.318 1.318 0 0 1-.46.065c-.271 0-.613-.071-1.028-.215a.194.194 0 0 1-.095-.143c.004-.108.062-.164.173-.167h.042c.39.143.691.215.902.215.111 0 .199-.01.263-.03a.26.26 0 0 0 .149-.108.792.792 0 0 0 .107-.328 2.46 2.46 0 0 0 .072-.562c0-.127-.063-.191-.191-.191h-.765c-.286 0-.43-.143-.43-.43v-.43c0-.287.144-.43.43-.43h.765c.128 0 .191-.064.191-.191v-.215c0-.128-.063-.191-.191-.191h-.842c-.108 0-.162-.048-.162-.144 0-.012.003-.022.006-.03-.159.056-.33.114-.513.174a.502.502 0 0 1-.108.012c-.119-.005-.181-.057-.185-.156a.18.18 0 0 1 .102-.137c.557-.16.937-.285 1.141-.376a4.673 4.673 0 0 0-.341-.323 6.326 6.326 0 0 0-.424-.311c-.048-.051-.072-.095-.072-.131.016-.072.064-.116.144-.131.044 0 .087.02.131.059.175.12.32.223.436.311.116.099.239.217.37.352.012.016.02.032.024.048.176-.088.317-.176.424-.263a2.23 2.23 0 0 0 .389-.376.272.272 0 0 0 .053-.131c0-.096-.047-.144-.143-.144h-1.35c-.092-.004-.139-.051-.143-.143.004-.088.051-.138.143-.15m2.748 1.583h.43c.287 0 .43.144.43.431v.477c0 .144.072.215.215.215h.269a.17.17 0 0 0 .113-.035c.032-.021.048-.054.048-.102l.036-.287c.008-.111.06-.169.155-.173.104.004.158.062.162.173l-.06.424a.264.264 0 0 1-.108.209.538.538 0 0 1-.28.078h-.437c-.282 0-.424-.143-.424-.43v-.454c0-.159-.079-.239-.239-.239h-.454c-.163 0-.244.08-.244.239 0 .199-.016.356-.048.472a.965.965 0 0 1-.221.358 1.342 1.342 0 0 1-.377.251.065.065 0 0 0-.029.006c-.116-.012-.176-.064-.18-.155.004-.072.038-.12.102-.143.099-.052.185-.112.257-.18a.6.6 0 0 0 .161-.251c.036-.095.054-.247.054-.453 0-.287.143-.431.43-.431h.239zm-.645 1.673h1.613c.206 0 .31.103.31.311 0 .059-.036.194-.107.406a2.07 2.07 0 0 1-.436.663 1.11 1.11 0 0 1-.144.119l.096.042c.243.103.637.221 1.183.353a.156.156 0 0 1 .113.137c-.012.087-.062.137-.149.149a.749.749 0 0 1-.138-.024 6.393 6.393 0 0 1-1.254-.418.833.833 0 0 1-.12-.054 1.833 1.833 0 0 1-.25.132c-.255.127-.6.247-1.034.358a.437.437 0 0 1-.072.006c-.115-.004-.177-.062-.185-.173.004-.044.034-.086.09-.125.414-.084.737-.176.968-.275a5.34 5.34 0 0 0 .191-.09 2.203 2.203 0 0 1-.735-.717.23.23 0 0 1-.036-.119c.008-.08.056-.124.144-.131.051 0 .097.027.137.083.123.191.275.359.454.502.095.075.203.149.322.221a1.65 1.65 0 0 0 .144-.114c.175-.143.312-.316.412-.519.064-.148.096-.255.096-.323 0-.076-.044-.113-.132-.113h-1.481c-.092-.004-.14-.052-.144-.144.005-.087.052-.135.144-.143m1.506-3.369c.08.012.128.056.143.131a.187.187 0 0 1-.065.144c-.227.239-.49.452-.789.639.132.119.287.235.466.346a.129.129 0 0 1 .03-.024 3.99 3.99 0 0 0 .836-.639.184.184 0 0 1 .144-.071c.079.012.127.055.143.131a.184.184 0 0 1-.066.143 4.324 4.324 0 0 1-.8.616c.251.115.597.242 1.039.382.068.024.106.069.114.137-.012.088-.062.138-.15.15a.607.607 0 0 1-.143-.03 5.788 5.788 0 0 1-1.272-.544 3.336 3.336 0 0 1-.705-.543 2.738 2.738 0 0 1-.466-.669.232.232 0 0 1-.036-.12c.008-.08.056-.123.143-.131.052 0 .098.028.138.083.103.212.231.401.382.568.287-.179.544-.388.771-.627a.177.177 0 0 1 .143-.072M56.713 57.393c.087.004.135.052.143.143-.008.092-.056.14-.143.144h-.634v1.696h.562c.092.004.139.052.143.144-.004.091-.051.139-.143.143h-.562v1.989a.415.415 0 0 0 .048-.012c.207-.072.386-.147.538-.227a.347.347 0 0 1 .119-.054c.104.016.159.064.167.144a.165.165 0 0 1-.041.119 3.556 3.556 0 0 1-.49.233 7.4 7.4 0 0 1-1.32.388l-.042.012c-.1-.016-.153-.076-.161-.179 0-.068.044-.118.131-.149a7.688 7.688 0 0 0 .741-.173v-2.091h-.61c-.091-.004-.139-.052-.143-.143.004-.092.052-.14.143-.144h.61V57.68h-.711c-.088-.004-.134-.052-.137-.144.003-.091.049-.139.137-.143h1.655zm.943-.246h1.936c.318 0 .478.161.478.484v2.485c0 .318-.16.478-.478.478h-.383v1.433c0 .159.08.239.239.239h.586c.059 0 .107-.05.143-.149.028-.06.044-.325.048-.795 0-.099.056-.151.167-.155.096.008.147.078.155.209 0 .175-.008.366-.023.574-.012.218-.06.376-.144.472a.432.432 0 0 1-.346.155h-.705c-.287 0-.43-.143-.43-.43v-1.553h-.687v.018c0 .286-.032.543-.096.77a1.448 1.448 0 0 1-.687.878c-.199.12-.428.225-.687.317a.438.438 0 0 1-.155.024.201.201 0 0 1-.161-.162c.004-.095.05-.157.137-.185.235-.08.438-.163.609-.251.16-.087.281-.177.365-.268.115-.116.203-.255.263-.419.067-.195.101-.43.101-.704 0-.012.002-.018.006-.018h-.251c-.318 0-.478-.16-.478-.478v-2.485c0-.322.16-.484.478-.484m-.167 1.058h2.27v-.525c0-.159-.08-.239-.239-.239h-1.792c-.159 0-.239.08-.239.239v.525zm0 1.027h2.27v-.741h-2.27v.741zm2.032 1.076c.159 0 .239-.08.239-.239v-.549h-2.27v.549c0 .159.08.239.239.239h1.792zM63.092 57.87c.092.004.139.052.143.144-.004.091-.051.139-.143.143h-.741v.884h.98c.091.004.141.051.149.143-.008.092-.058.14-.149.144h-.98v.812h.741c.092.004.139.052.143.143-.004.092-.051.14-.143.144h-.741v1.583c.132.063.285.111.46.143.331.075.699.114 1.105.114h2.628c.1.003.152.051.156.143-.012.087-.064.135-.156.143h-2.526c-.446 0-.843-.034-1.189-.101-.386-.076-.679-.194-.878-.353-.143-.104-.285-.286-.424-.549a7.406 7.406 0 0 1-.227.884.18.18 0 0 1-.167.095.19.19 0 0 1-.144-.149c0-.032.008-.072.024-.119.12-.327.213-.696.281-1.105.048-.311.074-.714.078-1.207.008-.092.055-.14.143-.143.087.003.135.055.143.155 0 .39-.018.744-.054 1.063.012.016.02.034.024.054.156.366.301.613.436.741v-2.491h-.908c-.091-.004-.139-.052-.143-.144.004-.092.052-.139.143-.143h.908v-.884h-.645c-.091-.004-.139-.052-.143-.143.004-.092.052-.14.143-.144h.645v-.723c.004-.087.052-.133.144-.137.091.004.139.05.143.137v.723h.741zm.861-.836c.084.008.131.054.143.137a3.082 3.082 0 0 1-.083.353h1.995c.287 0 .43.143.43.43-.016.561-.054.968-.114 1.218-.027.156-.095.255-.203.299a.614.614 0 0 1-.328.072c-.152 0-.343-.024-.574-.072a.181.181 0 0 1-.089-.131c.004-.096.057-.148.161-.156h.024c.203.048.36.072.472.072a.274.274 0 0 0 .161-.042.188.188 0 0 0 .09-.119c.032-.084.053-.215.065-.394.032-.244.048-.469.048-.675 0-.16-.08-.239-.239-.239h-.902v.561c0 .12-.01.227-.03.323h.407c.095 0 .143-.048.143-.144v-.251c0-.103.048-.155.143-.155.096 0 .144.052.144.155v.299c0 .239-.12.359-.359.359h-.561a.996.996 0 0 1-.293.37 1.965 1.965 0 0 1-.388.233.193.193 0 0 1-.132.054.182.182 0 0 1-.119-.072 2.75 2.75 0 0 1-.084.346h2.151c.286 0 .43.144.43.43-.016.582-.054 1-.114 1.255-.032.163-.099.264-.203.304a.576.576 0 0 1-.328.078c-.14 0-.315-.04-.526-.119a.182.182 0 0 1-.09-.132c.004-.099.058-.151.162-.155h.018c.187.079.33.119.43.119a.282.282 0 0 0 .161-.041.19.19 0 0 0 .09-.126c.032-.088.053-.225.065-.412.032-.251.048-.484.048-.699 0-.159-.08-.239-.239-.239h-.956v.633c0 .088-.008.171-.023.251h.477c.096 0 .144-.048.144-.143v-.299c0-.104.048-.155.143-.155.096 0 .143.051.143.155v.347c0 .239-.119.358-.358.358h-.633a1.241 1.241 0 0 1-.514.442c-.171.087-.37.165-.597.233a.193.193 0 0 1-.132.054c-.087-.016-.137-.068-.149-.155 0-.048.018-.09.054-.126a4.04 4.04 0 0 0 .526-.173c.187-.08.334-.172.442-.275h-.359c-.239 0-.358-.119-.358-.358v-.347c0-.104.048-.155.143-.155.096 0 .143.051.143.155v.299c0 .095.048.143.144.143h.436a.825.825 0 0 0 .042-.251v-.633h-.896l-.012-.006-.006.012c-.088.227-.237.46-.448.699a.171.171 0 0 1-.144.072c-.079-.021-.127-.068-.143-.144 0-.032.018-.074.054-.125.163-.152.293-.329.388-.532.084-.151.152-.378.203-.681.008-.071.056-.111.144-.119a.138.138 0 0 1 .113.06.15.15 0 0 1 .042-.054c.139-.06.249-.118.328-.173a.937.937 0 0 0 .227-.203h-.376c-.239 0-.358-.12-.358-.359v-.299c0-.103.047-.155.143-.155.096 0 .143.052.143.155v.251c0 .096.046.144.138.144h.442c.028-.104.042-.212.042-.323v-.561h-.807a2.21 2.21 0 0 1-.43.657.187.187 0 0 1-.149.071c-.08-.02-.128-.068-.144-.143 0-.032.018-.074.054-.125.159-.136.283-.295.371-.478.075-.136.141-.343.197-.622.007-.067.054-.105.143-.113M69.615 57.368c.092.004.14.052.143.144-.003.091-.051.139-.143.143h-.872v.406h1.039c.092.004.14.052.144.144-.004.091-.052.139-.144.143h-.525v.227c0 .127.063.191.191.191h.287c.119 0 .179.044.179.132 0 .087-.06.131-.179.131H69.4c-.287 0-.43-.143-.43-.43v-.251h-.812v.012a.972.972 0 0 1-.066.293.684.684 0 0 1-.173.251.938.938 0 0 1-.245.161 1.745 1.745 0 0 1-.347.113h-.024c-.103-.012-.161-.065-.173-.161.004-.064.042-.106.114-.125.127-.024.225-.052.292-.084a.808.808 0 0 0 .174-.108.43.43 0 0 0 .113-.155.67.67 0 0 0 .048-.185v-.012h-.502c-.092-.004-.139-.052-.143-.143.004-.092.051-.14.143-.144h1.063v-.406h-.824c-.092-.004-.139-.052-.143-.143.004-.092.051-.14.143-.144h.824v-.25c.004-.1.056-.152.156-.156.099.004.151.056.155.156v.25h.872zm0 1.936c.092.003.14.053.143.149-.003.087-.051.133-.143.137h-.872v.419c.319-.033.633-.076.944-.132.099.004.155.06.167.167-.012.076-.064.118-.155.126-.705.123-1.498.207-2.378.251-.095-.012-.151-.066-.167-.162.012-.08.064-.127.155-.143.379-.012.753-.036 1.123-.072v-.454h-.848c-.092-.004-.139-.05-.143-.137.004-.096.051-.146.143-.149h.848v-.395c.004-.099.056-.151.156-.155.099.004.151.056.155.155v.395h.872zm-2.031 1.529h2.103c.036-.116.063-.235.083-.358.008-.108.06-.164.156-.168.091.012.143.068.155.168-.02.135-.042.254-.066.358h1.977c.319 0 .478.159.478.478 0 .263-.024.49-.071.681-.056.242-.15.402-.281.478a1.105 1.105 0 0 1-.568.131c-.31 0-.692-.048-1.146-.143-.088-.028-.136-.076-.144-.144.008-.119.072-.181.191-.185.044 0 .096.006.156.018.454.084.768.125.943.125a.653.653 0 0 0 .311-.065c.076-.032.143-.122.203-.269.064-.148.096-.34.096-.579 0-.16-.08-.239-.239-.239h-1.995a1.747 1.747 0 0 1-.61.77 2.794 2.794 0 0 1-.764.418c-.295.12-.663.217-1.105.293a.593.593 0 0 1-.084.006c-.111-.012-.173-.07-.185-.173.004-.068.046-.114.125-.138.502-.087.888-.183 1.159-.286.267-.104.492-.227.675-.371a1.37 1.37 0 0 0 .436-.519h-1.989c-.092-.009-.139-.054-.143-.138.004-.092.051-.141.143-.149m2.724-3.154h.717v-.532c.008-.087.056-.133.143-.137.092.004.14.05.144.137v.532h.501c.287 0 .43.143.43.43 0 .737.01 1.208.03 1.416.012.143.028.248.048.316.004.012.01.024.018.036.056-.008.086-.03.09-.066.056-.163.098-.412.125-.746.008-.088.056-.136.143-.144.092.004.14.056.144.156-.02.457-.088.798-.203 1.021-.08.123-.18.185-.299.185-.052-.004-.098-.032-.137-.083a.965.965 0 0 1-.156-.389c-.059-.215-.089-.75-.089-1.606 0-.16-.08-.239-.239-.239h-.406v.143c0 .318-.026.597-.078.836a1.498 1.498 0 0 1-.054.174c.155.167.319.352.49.555.016.044.024.08.024.108-.012.071-.064.111-.155.119-.044 0-.08-.026-.108-.078a10.265 10.265 0 0 0-.37-.436c-.06.116-.132.219-.215.311a2.256 2.256 0 0 1-.442.388.193.193 0 0 1-.132.054.178.178 0 0 1-.155-.155c0-.048.02-.09.06-.126.163-.107.29-.211.382-.31.115-.116.207-.249.275-.401a4.64 4.64 0 0 0-.526-.436.34.34 0 0 1-.048-.095c.008-.088.054-.138.138-.15.043 0 .085.024.125.072.131.087.271.201.418.341.056-.255.084-.512.084-.771v-.143h-.717c-.092-.009-.139-.056-.143-.144.004-.087.051-.134.143-.143M83.512 57.159c.088.004.138.05.149.138 0 .071-.039.121-.119.149a35.902 35.902 0 0 1-2.21.167c.008.02.012.038.012.054l-.019.042a7.037 7.037 0 0 1-.143.424h2.622c.092.004.14.051.143.143-.003.092-.051.14-.143.144h-2.742a5.087 5.087 0 0 1-.227.478h3.159c.093.003.141.051.145.143-.004.091-.052.139-.145.143h-3.32c-.115.18-.241.349-.376.508a.22.22 0 0 1 .053-.006h2.868c.319 0 .478.159.478.478v1.816c0 .318-.158.478-.478.478h-2.868c-.318 0-.477-.16-.477-.478v-1.828a4.721 4.721 0 0 1-.783.627c-.021.02-.055.03-.102.03-.092-.012-.144-.056-.155-.131a.29.29 0 0 1 .054-.132c.291-.195.546-.39.765-.585a5.11 5.11 0 0 0 .669-.777h-1.319c-.093-.004-.141-.052-.145-.143.004-.092.052-.14.145-.143h1.499a4.6 4.6 0 0 0 .251-.478h-1.56c-.092-.004-.14-.052-.144-.144.004-.092.052-.139.144-.143h1.685c.063-.159.124-.325.179-.496 0-.004.003-.008.006-.012-.449.02-.993.034-1.63.042-.092-.008-.14-.06-.144-.155.009-.08.058-.126.149-.138a40.851 40.851 0 0 0 2.103-.065 34.557 34.557 0 0 0 1.971-.15m-3.327 3.387h3.202v-.34c0-.156-.079-.233-.239-.233h-2.724c-.159 0-.239.077-.239.233v.34zm0 .789h3.202v-.502h-3.202v.502zm2.962.836c.16 0 .239-.08.239-.239v-.311h-3.202v.311c0 .159.08.239.239.239h2.724zM86.11 57.178h3.011c.35 0 .525.175.525.525v2.485c0 .35-.176.526-.525.526h-.741v1.194c0 .192.097.287.287.287h1.063c.092 0 .164-.04.215-.119.044-.048.067-.26.072-.634 0-.099.056-.151.167-.155.096.008.147.078.154.209 0 .144-.009.301-.029.472-.016.179-.071.307-.167.382a.616.616 0 0 1-.412.132h-1.136c-.35 0-.525-.176-.525-.526v-1.242h-.979a3.115 3.115 0 0 1-.144.776c-.095.239-.23.43-.406.574-.167.135-.38.245-.639.328-.228.08-.516.133-.866.162-.108-.012-.167-.076-.179-.192.008-.083.063-.141.167-.173.318-.02.569-.06.753-.119.223-.068.405-.158.549-.269.147-.12.263-.279.347-.478.052-.167.088-.37.107-.609h-.669c-.351 0-.525-.176-.525-.526v-2.485c0-.35.175-.525.525-.525m-.214 1.051h3.44v-.502c0-.175-.087-.263-.263-.263h-2.915c-.175 0-.263.088-.263.263v.502zm0 1.027h3.44v-.741h-3.44v.741zm3.177 1.171c.176 0 .263-.088.263-.263v-.621h-3.44v.621c0 .175.088.263.263.263h2.914zM95.823 58.181c.092.004.14.051.143.143-.003.092-.051.14-.143.144h-1.947v.985h2.425c.092 0 .141.046.144.138-.003.091-.052.139-.144.143h-2.324c.38.482.764.868 1.153 1.159.343.278.787.545 1.332.8.052.028.078.074.078.138 0 .099-.052.149-.156.149a.518.518 0 0 1-.209-.048 6.44 6.44 0 0 1-1.277-.842c-.318-.263-.659-.631-1.021-1.105v2.527c-.004.095-.056.145-.156.149-.099-.004-.15-.054-.154-.149v-2.431a5.975 5.975 0 0 1-.885.8 9.462 9.462 0 0 1-1.505.956.57.57 0 0 1-.138.024c-.083-.021-.129-.069-.137-.144 0-.048.029-.095.09-.143.608-.319 1.101-.621 1.475-.908a6.137 6.137 0 0 0 1.009-.932H91.19c-.093-.004-.142-.052-.15-.143.009-.092.058-.138.15-.138h2.377v-.985h-1.924c-.092-.004-.14-.052-.144-.144.004-.092.052-.139.144-.143h1.924V57.13c.004-.1.056-.152.154-.156.101.004.152.056.156.156v1.051h1.946zM102.322 57.68c.092.004.14.051.143.143-.003.091-.051.139-.143.143h-2.33v1.888l.012.006c.363.478.743.902 1.142 1.272.311.275.727.562 1.249.86.123.036.187.096.19.18-.004.103-.058.157-.162.161a.27.27 0 0 1-.106-.036 6.018 6.018 0 0 1-1.249-.842 8.628 8.628 0 0 1-1.075-1.159v2.186c-.003.099-.055.151-.155.156-.099-.005-.15-.057-.154-.156v-2.078a5.62 5.62 0 0 1-.825.878c-.391.342-.894.676-1.512 1.003a.197.197 0 0 1-.102.036c-.067-.004-.119-.046-.155-.125 0-.1.044-.162.132-.186.63-.366 1.117-.701 1.464-1.003a6.12 6.12 0 0 0 .998-1.093v-1.948h-2.33c-.092-.004-.14-.052-.144-.143.004-.092.052-.139.144-.143h2.33v-.532c.004-.096.056-.145.154-.149.101.004.152.053.155.149v.532h2.329zm-3.799.596c.083.012.131.063.143.155 0 .02-.006.048-.018.084a5.413 5.413 0 0 1-.27.609l.036.024c.16.139.291.261.396.364.106.12.221.259.34.419a.21.21 0 0 1 .042.119c-.008.084-.059.129-.15.137a.144.144 0 0 1-.125-.071 4.045 4.045 0 0 0-.323-.394 3.344 3.344 0 0 0-.352-.341.85.85 0 0 1-.084.131 4.308 4.308 0 0 1-.627.783.267.267 0 0 1-.131.036.246.246 0 0 1-.145-.126c0-.064.027-.115.078-.155a5.19 5.19 0 0 0 .358-.406c.16-.2.278-.376.358-.532.101-.175.209-.418.328-.728a.154.154 0 0 1 .146-.108m2.868 0c.084.012.131.063.143.155 0 .02-.006.048-.018.084a5.414 5.414 0 0 1-.238.561l.029.024c.224.168.406.317.55.448.151.144.309.311.472.502.028.04.042.08.042.12-.008.083-.058.129-.15.137-.051 0-.093-.024-.125-.072a5.933 5.933 0 0 0-.447-.478 7.118 7.118 0 0 0-.515-.43 3.791 3.791 0 0 1-.566.729.274.274 0 0 1-.132.036.244.244 0 0 1-.144-.126c0-.063.026-.115.078-.155.115-.119.217-.235.304-.346.133-.172.231-.323.3-.454.083-.152.175-.361.274-.627.023-.069.07-.103.143-.108M76.808 60.308a1.053 1.053 0 1 1-2.107 0 1.053 1.053 0 0 1 2.107 0"/></g></svg>