<svg xmlns="http://www.w3.org/2000/svg" width="246.939" height="68.367" viewBox="0 0 246.939 68.367"><path d="M26.152 24.233c1.278 1.471 1.919 3.263 1.919 5.372 0 2.444-.591 4.422-1.786 5.929-1.183 1.513-2.831 2.266-4.937 2.266-2.148 0-3.857-.779-5.121-2.328-1.261-1.551-1.888-3.502-1.888-5.866 0-2.109.651-3.901 1.953-5.372 1.3-1.485 2.984-2.22 5.056-2.22 1.919 0 3.521.735 4.804 2.219zM14.501 63.426c2.394.773 4.683 1.16 6.856 1.16 4.233 0 7.734-.95 10.5-2.843 2.765-1.892 4.149-4.38 4.149-7.459 0-2.785-.919-4.962-2.766-6.537-1.841-1.567-4.407-2.361-7.696-2.361-.917 0-2.321.159-4.222.469-1.892.319-3.286.474-4.18.474-2.042 0-3.063-.42-3.063-1.27 0-.611.482-1.111 1.447-1.493s1.738-.602 2.311-.665l4.918-.493c3.424-.342 6.186-1.66 8.296-3.971 2.108-2.308 3.166-5.159 3.166-8.553 0-3.21-.767-5.808-2.29-7.799l3.567-2.712-3.881-3.673-2.976 3.58c-1.856-1.365-4.434-2.043-7.736-2.043-3.585 0-6.604 1.179-9.042 3.521-2.445 2.353-3.667 5.293-3.667 8.819 0 5.497 2.358 9.358 7.08 11.579-1.642.396-3.022 1.042-4.135 1.935-1.112.894-1.668 1.893-1.668 2.997 0 3.573 2.375 5.36 7.133 5.36.98 0 2.345-.17 4.094-.513 1.753-.339 2.96-.512 3.626-.512 3.923 0 5.88 1.347 5.88 4.046 0 1.377-.778 2.521-2.333 3.445-1.552.921-3.675 1.38-6.367 1.38-2.921 0-6.111-1.163-9.577-3.497l-3.219 4.789c1.462 1.112 3.388 2.059 5.795 2.84zM114.633 51.446V30.2c0-5.291-2.288-7.935-6.862-7.935-1.441 0-2.793.449-4.044 1.335-1.255.885-2.115 1.899-2.571 3.026v24.82h-5.972v-23.85c0-1.651-.621-2.951-1.871-3.903-1.24-.953-2.889-1.428-4.931-1.428-1.19 0-2.462.465-3.805 1.387-1.354.924-2.312 1.939-2.876 3.05v24.744h-5.967V17.915h3.887l1.979 3.842c2.299-3.014 5.178-4.521 8.63-4.521 4.808 0 8.179 1.506 10.106 4.521.667-1.285 1.912-2.36 3.734-3.224 1.82-.864 3.69-1.297 5.616-1.297 3.475 0 6.16 1.03 8.064 3.088s2.859 4.951 2.859 8.671v22.451h-5.976zM183.169 51.446V31.922c0-3.573-.535-6.072-1.612-7.506-1.075-1.433-2.873-2.151-5.398-2.151-1.354 0-2.778.412-4.253 1.23-1.487.808-2.621 1.815-3.411 3.003v24.948h-5.977V17.915h4.074l1.886 4.328c1.965-3.333 5.175-5.006 9.626-5.006 7.354 0 11.033 4.473 11.033 13.421v20.79h-5.968zM203.725 5.287a3.56 3.56 0 0 1 2.606 1.08c.716.719 1.075 1.574 1.075 2.572 0 1.024-.359 1.895-1.075 2.611-.716.716-1.585 1.074-2.606 1.074-.996 0-1.859-.358-2.574-1.074-.721-.717-1.078-1.587-1.078-2.611 0-1.016.354-1.877 1.065-2.579.704-.717 1.564-1.073 2.587-1.073zm-3.314 46.159V22.953h-4.604v-5.039h10.58v33.532h-5.976zM66.324 43.166V31.123c0-4.826-1.106-8.345-3.307-10.569-2.204-2.207-5.744-3.317-10.61-3.317-1.816 0-3.725.326-5.72.98-1.994.653-3.557 1.437-4.681 2.342l2.504 4.953c2.001-1.988 4.862-2.986 8.576-2.986 4.838 0 7.266 2.725 7.266 8.19-1.593-.568-3.014-.85-4.269-.85-4.624 0-8.422 1.175-11.401 3.53-2.977 2.352-4.469 5.232-4.469 8.64 0 2.839.964 5.22 2.902 7.136 1.93 1.916 4.222 2.875 6.852 2.875 4.916 0 8.562-1.512 10.948-4.527.521 1.624 1.39 2.775 2.593 3.475s3.022 1.053 5.457 1.053v-2.992c-1.759-.977-2.641-2.948-2.641-5.89zm-11.111 3.028c-4.042 1.442-8.169.22-9.217-2.719-1.053-2.95 1.371-6.505 5.412-7.942 4.039-1.442 8.165-.226 9.222 2.725 1.046 2.934-1.378 6.49-5.417 7.936zM239.943 43.166V31.123c0-4.826-1.104-8.345-3.306-10.569-2.209-2.207-5.745-3.317-10.604-3.317-1.823 0-3.73.326-5.728.98-1.989.653-3.55 1.437-4.683 2.342l2.505 4.953c2.008-1.988 4.867-2.986 8.577-2.986 4.842 0 7.264 2.725 7.264 8.19-1.591-.568-3.008-.85-4.263-.85-4.625 0-8.42 1.175-11.402 3.53-2.98 2.352-4.472 5.232-4.472 8.64 0 2.839.969 5.22 2.904 7.136 1.933 1.916 4.221 2.875 6.852 2.875 4.919 0 8.561-1.512 10.942-4.527.531 1.624 1.396 2.775 2.602 3.475 1.204.699 3.02 1.053 5.455 1.053v-2.992c-1.757-.977-2.643-2.948-2.643-5.89zm-11.113 3.028c-4.039 1.442-8.164.22-9.218-2.719-1.055-2.95 1.372-6.505 5.412-7.942 4.042-1.442 8.166-.226 9.22 2.725 1.052 2.934-1.37 6.49-5.414 7.936zM153.014 43.166V31.123c0-4.826-1.101-8.345-3.309-10.569-2.202-2.207-5.736-3.317-10.604-3.317-1.813 0-3.723.326-5.722.98-1.993.653-3.556 1.437-4.682 2.342l2.513 4.953c1.994-1.988 4.853-2.986 8.569-2.986 4.84 0 7.263 2.725 7.263 8.19-1.59-.568-3.008-.85-4.264-.85-4.624 0-8.427 1.175-11.402 3.53-2.981 2.352-4.471 5.232-4.471 8.64 0 2.839.971 5.22 2.897 7.136 1.942 1.916 4.227 2.875 6.858 2.875 4.911 0 8.561-1.512 10.945-4.527.524 1.624 1.388 2.775 2.595 3.475 1.202.699 3.024 1.053 5.459 1.053v-2.992c-1.759-.977-2.645-2.948-2.645-5.89zm-11.109 3.028c-4.04 1.442-8.167.22-9.222-2.719-1.047-2.95 1.376-6.505 5.415-7.942 4.041-1.442 8.171-.226 9.215 2.725 1.057 2.934-1.368 6.49-5.408 7.936z"/></svg>