<svg xmlns="http://www.w3.org/2000/svg" width="222.293" height="174.522" viewBox="0 0 222.293 174.522"><path d="M27.65 37.526c0 .131-.033.242-.098.332s-.172.168-.319.233a2.27 2.27 0 0 1-.614.147 8.298 8.298 0 0 1-.982.049c-.41 0-.746-.017-1.008-.049-.261-.033-.466-.083-.614-.147s-.253-.144-.319-.233a.55.55 0 0 1-.098-.332V24.584c0-1.26-.098-2.275-.294-3.045-.197-.77-.483-1.432-.86-1.989a3.73 3.73 0 0 0-1.46-1.277c-.598-.295-1.29-.442-2.076-.442-1.015 0-2.03.36-3.045 1.081-1.016.72-2.08 1.776-3.192 3.167v15.447a.553.553 0 0 1-.098.332c-.066.09-.172.168-.319.233s-.353.114-.614.147a8.57 8.57 0 0 1-1.007.049c-.393 0-.721-.017-.982-.049a2.5 2.5 0 0 1-.626-.147c-.156-.065-.262-.144-.319-.233a.599.599 0 0 1-.086-.332V4.716c0-.13.028-.246.086-.344.057-.098.164-.18.319-.246.153-.064.362-.114.624-.146.262-.033.589-.049.982-.049.409 0 .745.017 1.007.049.261.032.466.082.614.147a.725.725 0 0 1 .319.246.609.609 0 0 1 .098.344v13.237c1.162-1.228 2.333-2.141 3.512-2.738 1.179-.598 2.366-.896 3.561-.896 1.474 0 2.714.25 3.721.749 1.007.499 1.821 1.167 2.444 2.001.622.835 1.068 1.814 1.338 2.935.27 1.122.405 2.477.405 4.064v13.457zM50.687 37.551c0 .196-.065.344-.196.442a1.379 1.379 0 0 1-.541.221c-.229.049-.564.073-1.007.073a5.62 5.62 0 0 1-1.019-.073c-.254-.049-.438-.123-.553-.221-.115-.098-.172-.246-.172-.442v-2.21c-.966 1.032-2.043 1.834-3.229 2.407a8.567 8.567 0 0 1-3.77.859c-1.163 0-2.214-.151-3.156-.454-.942-.303-1.744-.741-2.407-1.314a5.89 5.89 0 0 1-1.547-2.112c-.368-.835-.553-1.785-.553-2.849 0-1.244.253-2.324.761-3.242.508-.917 1.236-1.678 2.186-2.284.949-.606 2.112-1.06 3.487-1.363 1.375-.302 2.922-.455 4.642-.455h3.045v-1.719c0-.851-.09-1.604-.27-2.259-.181-.655-.471-1.199-.872-1.633-.401-.434-.92-.761-1.559-.982-.639-.221-1.424-.332-2.358-.332-.999 0-1.895.119-2.689.356s-1.49.5-2.088.786a20.04 20.04 0 0 0-1.498.786c-.402.238-.7.356-.896.356a.607.607 0 0 1-.345-.098.834.834 0 0 1-.257-.294 1.518 1.518 0 0 1-.16-.504 4.375 4.375 0 0 1-.049-.675c0-.41.028-.733.086-.971.057-.237.197-.462.417-.675.221-.212.602-.462 1.143-.749.54-.287 1.162-.548 1.866-.786a16.911 16.911 0 0 1 2.308-.589 13.74 13.74 0 0 1 2.529-.233c1.588 0 2.939.18 4.053.54 1.113.36 2.014.889 2.701 1.584s1.187 1.559 1.499 2.591c.311 1.031.466 2.235.466 3.61v14.907zm-4.028-10.093h-3.462c-1.114 0-2.08.094-2.898.282-.819.188-1.498.467-2.038.835-.54.368-.938.811-1.191 1.326-.253.516-.38 1.109-.38 1.781 0 1.146.364 2.059 1.093 2.738.729.68 1.748 1.019 3.058 1.019 1.064 0 2.051-.27 2.959-.81.908-.541 1.862-1.367 2.861-2.481v-4.69zM74.411 15.375c0 .066-.004.136-.013.209a3.251 3.251 0 0 1-.098.503c-.024.098-.053.205-.085.319l-7.54 20.998a1.287 1.287 0 0 1-.258.442c-.106.115-.266.205-.479.27a3.83 3.83 0 0 1-.81.136c-.328.024-.737.036-1.229.036s-.901-.017-1.228-.049a4.122 4.122 0 0 1-.798-.147 1.152 1.152 0 0 1-.479-.27 1.202 1.202 0 0 1-.27-.417L53.61 16.406a10.54 10.54 0 0 1-.159-.516 2.288 2.288 0 0 1-.074-.331 1.804 1.804 0 0 1-.013-.185c0-.131.033-.246.099-.344a.65.65 0 0 1 .332-.233c.155-.058.36-.094.614-.111.254-.016.569-.024.945-.024.475 0 .855.013 1.142.037.286.024.507.07.663.135.155.065.27.147.344.246s.144.221.209.368l6.237 18.222.099.295.074-.295 6.164-18.222a.855.855 0 0 1 .172-.368.928.928 0 0 1 .356-.246c.155-.065.368-.11.638-.135.271-.024.626-.037 1.069-.037.376 0 .688.008.933.024.246.017.438.058.577.123a.682.682 0 0 1 .295.233.624.624 0 0 1 .085.333zM96.368 25.517c0 .639-.16 1.093-.481 1.363-.32.27-.687.405-1.098.405H80.233c0 1.228.124 2.333.37 3.315s.658 1.826 1.233 2.529c.576.704 1.324 1.244 2.246 1.621.921.376 2.048.565 3.381.565 1.053 0 1.99-.086 2.813-.258s1.534-.364 2.135-.577a21.117 21.117 0 0 0 1.481-.577c.387-.172.679-.258.876-.258.116 0 .218.029.309.086.09.058.16.143.209.257.049.115.087.275.111.479.024.205.037.455.037.75a4.629 4.629 0 0 1-.086.969 1.096 1.096 0 0 1-.123.332 1.37 1.37 0 0 1-.221.282c-.09.09-.355.238-.797.442-.442.205-1.016.406-1.72.602-.704.197-1.519.373-2.443.528-.925.155-1.912.233-2.959.233-1.818 0-3.41-.254-4.777-.761s-2.517-1.26-3.45-2.259c-.933-.999-1.638-2.251-2.113-3.758-.475-1.506-.712-3.257-.712-5.255 0-1.899.246-3.606.737-5.121.491-1.514 1.199-2.799 2.124-3.855a9.278 9.278 0 0 1 3.353-2.431c1.31-.564 2.775-.847 4.396-.847 1.735 0 3.213.278 4.433.835 1.219.557 2.222 1.306 3.008 2.247.786.942 1.363 2.047 1.731 3.315.368 1.269.553 2.625.553 4.064v.738zm-4.077-1.203c.049-2.128-.424-3.798-1.421-5.01s-2.475-1.818-4.435-1.818c-1.005 0-1.886.188-2.644.565a5.72 5.72 0 0 0-1.904 1.499 6.882 6.882 0 0 0-1.186 2.173 9.073 9.073 0 0 0-.469 2.591h12.059zM128.542 37.551c0 .196-.066.344-.196.442a1.398 1.398 0 0 1-.541.221c-.229.049-.564.073-1.008.073a5.62 5.62 0 0 1-1.019-.073c-.254-.049-.438-.123-.553-.221s-.172-.246-.172-.442v-2.21c-.966 1.032-2.042 1.834-3.229 2.407a8.554 8.554 0 0 1-3.77.859c-1.163 0-2.214-.151-3.155-.454-.942-.303-1.744-.741-2.407-1.314a5.89 5.89 0 0 1-1.547-2.112c-.368-.835-.553-1.785-.553-2.849 0-1.244.253-2.324.761-3.242.507-.917 1.236-1.678 2.186-2.284.949-.606 2.112-1.06 3.488-1.363 1.375-.302 2.922-.455 4.64-.455h3.047v-1.719c0-.851-.091-1.604-.271-2.259-.181-.655-.471-1.199-.87-1.633-.402-.434-.923-.761-1.561-.982-.64-.221-1.426-.332-2.357-.332-.998 0-1.896.119-2.688.356-.795.237-1.49.5-2.088.786-.599.287-1.098.549-1.499.786-.401.238-.699.356-.896.356a.607.607 0 0 1-.345-.098.824.824 0 0 1-.257-.294 1.518 1.518 0 0 1-.16-.504 4.254 4.254 0 0 1-.049-.675c0-.41.028-.733.086-.971.057-.237.196-.462.417-.675.222-.212.603-.462 1.142-.749a12.685 12.685 0 0 1 1.866-.786 16.905 16.905 0 0 1 2.31-.589 13.725 13.725 0 0 1 2.529-.233c1.587 0 2.939.18 4.052.54 1.112.36 2.015.889 2.703 1.584.688.696 1.186 1.559 1.496 2.591.311 1.031.468 2.235.468 3.61v14.907zm-4.027-10.093h-3.463c-1.114 0-2.081.094-2.898.282-.818.188-1.499.467-2.038.835-.541.368-.938.811-1.192 1.326-.254.516-.379 1.109-.379 1.781 0 1.146.363 2.059 1.092 2.738.729.68 1.747 1.019 3.059 1.019 1.062 0 2.049-.27 2.958-.81.909-.541 1.862-1.367 2.862-2.481v-4.69z"/><g><path d="M51.208 58.811c0 .838-.037 1.56-.108 2.166-.073.606-.174 1.091-.303 1.452-.13.361-.289.614-.477.758a1.065 1.065 0 0 1-.671.217c-.376 0-.982-.26-1.82-.78-.838-.52-1.95-1.083-3.336-1.69s-3.04-1.169-4.96-1.689c-1.921-.521-4.153-.78-6.694-.78-2.715 0-5.171.47-7.365 1.408-2.195.939-4.073 2.268-5.632 3.986-1.56 1.719-2.759 3.784-3.596 6.195-.838 2.413-1.256 5.077-1.256 7.994 0 3.206.426 6.03 1.278 8.47.852 2.442 2.042 4.484 3.574 6.13 1.531 1.647 3.372 2.889 5.524 3.727 2.151.838 4.527 1.256 7.127 1.256 1.271 0 2.527-.144 3.769-.433a13.845 13.845 0 0 0 3.466-1.3V82.9H29.111c-.52 0-.924-.325-1.213-.975-.289-.65-.434-1.754-.434-3.314 0-.809.036-1.487.109-2.036.071-.548.18-.989.325-1.322.144-.332.317-.577.52-.737.201-.158.433-.238.693-.238h18.934c.462 0 .873.08 1.234.238.361.16.679.398.954.715.274.318.483.701.628 1.148.144.448.216.961.216 1.539v22.312c0 .867-.152 1.624-.455 2.275-.303.648-.924 1.163-1.863 1.537-.939.376-2.101.766-3.488 1.17a47.979 47.979 0 0 1-13.388 1.907c-4.478 0-8.485-.645-12.022-1.928-3.539-1.286-6.536-3.148-8.99-5.59-2.456-2.439-4.333-5.416-5.633-8.925-1.3-3.51-1.95-7.488-1.95-11.937 0-4.593.693-8.715 2.08-12.37 1.386-3.653 3.35-6.759 5.892-9.315 2.541-2.556 5.611-4.512 9.207-5.87s7.604-2.037 12.023-2.037c2.426 0 4.636.167 6.628.498 1.993.332 3.733.736 5.221 1.213 1.487.476 2.722.99 3.704 1.538.981.549 1.668 1.025 2.058 1.429.39.405.671.975.845 1.711.175.74.262 1.831.262 3.275zM109.658 77.484c0 4.651-.579 8.81-1.733 12.478-1.156 3.668-2.874 6.779-5.156 9.336-2.282 2.556-5.105 4.507-8.47 5.85-3.365 1.344-7.257 2.016-11.677 2.016-4.361 0-8.167-.571-11.416-1.713-3.249-1.141-5.958-2.882-8.124-5.221s-3.791-5.313-4.874-8.925c-1.083-3.61-1.625-7.885-1.625-12.824 0-4.535.578-8.614 1.733-12.24 1.155-3.625 2.874-6.708 5.156-9.25 2.281-2.542 5.105-4.491 8.47-5.849 3.364-1.358 7.271-2.037 11.719-2.037 4.246 0 7.994.563 11.243 1.69 3.25 1.126 5.964 2.859 8.146 5.199 2.18 2.339 3.827 5.292 4.939 8.86 1.112 3.568 1.669 7.778 1.669 12.63zm-11.958.607c0-2.946-.232-5.625-.693-8.037-.462-2.411-1.25-4.477-2.361-6.195a11.28 11.28 0 0 0-4.441-3.986c-1.849-.938-4.159-1.408-6.932-1.408-2.802 0-5.142.527-7.019 1.581-1.877 1.055-3.394 2.463-4.549 4.225-1.155 1.762-1.971 3.82-2.447 6.174-.477 2.354-.715 4.846-.715 7.474 0 3.062.231 5.813.693 8.253.461 2.441 1.242 4.528 2.34 6.26a10.742 10.742 0 0 0 4.419 3.965c1.848.91 4.173 1.364 6.975 1.364s5.141-.52 7.02-1.56a12.56 12.56 0 0 0 4.549-4.246c1.155-1.789 1.971-3.877 2.448-6.26.474-2.383.713-4.918.713-7.604zM166.114 77.484c0 4.651-.578 8.81-1.733 12.478s-2.874 6.779-5.155 9.336c-2.282 2.556-5.105 4.507-8.471 5.85-3.364 1.344-7.257 2.016-11.676 2.016-4.362 0-8.167-.571-11.416-1.713-3.25-1.141-5.958-2.882-8.123-5.221-2.167-2.339-3.792-5.313-4.875-8.925-1.083-3.61-1.624-7.885-1.624-12.824 0-4.535.576-8.614 1.732-12.24 1.154-3.625 2.874-6.708 5.155-9.25s5.104-4.491 8.471-5.849c3.365-1.358 7.271-2.037 11.72-2.037 4.245 0 7.993.563 11.242 1.69 3.25 1.126 5.965 2.859 8.146 5.199 2.181 2.339 3.826 5.292 4.938 8.86 1.113 3.568 1.669 7.778 1.669 12.63zm-11.958.607c0-2.946-.231-5.625-.693-8.037-.462-2.411-1.249-4.477-2.36-6.195a11.276 11.276 0 0 0-4.442-3.986c-1.848-.938-4.158-1.408-6.932-1.408-2.802 0-5.141.527-7.019 1.581-1.878 1.055-3.395 2.463-4.549 4.225-1.156 1.762-1.972 3.82-2.448 6.174-.477 2.354-.715 4.846-.715 7.474 0 3.062.23 5.813.693 8.253.461 2.441 1.241 4.528 2.339 6.26a10.747 10.747 0 0 0 4.421 3.965c1.848.91 4.172 1.364 6.975 1.364 2.801 0 5.142-.52 7.019-1.56a12.572 12.572 0 0 0 4.55-4.246c1.154-1.789 1.971-3.877 2.447-6.26s.714-4.918.714-7.604zM218.716 77.311c0 5.142-.672 9.539-2.015 13.192-1.344 3.655-3.271 6.636-5.784 8.947s-5.567 4.007-9.163 5.09c-3.597 1.084-7.878 1.625-12.846 1.625H175.52c-.952 0-1.754-.281-2.404-.844-.649-.564-.974-1.48-.974-2.753v-48.87c0-1.271.324-2.188.974-2.751.65-.563 1.452-.845 2.404-.845h14.385c4.997 0 9.235.584 12.716 1.755 3.48 1.169 6.412 2.903 8.796 5.199 2.383 2.296 4.195 5.134 5.437 8.514 1.241 3.379 1.862 7.293 1.862 11.741zm-11.784.39c0-2.657-.312-5.126-.932-7.409-.621-2.281-1.619-4.26-2.989-5.935-1.373-1.675-3.136-2.982-5.286-3.921-2.151-.938-4.977-1.408-8.47-1.408h-5.763v38.126h5.936c3.119 0 5.748-.404 7.885-1.213 2.138-.809 3.921-2.029 5.351-3.66 1.431-1.633 2.498-3.662 3.206-6.088.708-2.426 1.062-5.257 1.062-8.492zM50.638 119.655c0 .838-.037 1.553-.108 2.145-.072.593-.181 1.068-.325 1.43-.145.362-.325.628-.542.802a1.114 1.114 0 0 1-.714.261H34.91v45.188c0 .29-.094.549-.281.78-.188.231-.498.419-.932.562-.434.146-1.018.261-1.755.348-.736.087-1.654.13-2.751.13-1.098 0-2.015-.043-2.751-.13-.736-.087-1.321-.202-1.754-.348-.434-.144-.744-.331-.931-.562a1.202 1.202 0 0 1-.282-.78v-45.188H9.435c-.289 0-.534-.087-.736-.261s-.375-.439-.52-.802c-.145-.361-.253-.837-.325-1.43a17.917 17.917 0 0 1-.108-2.145c0-.866.036-1.604.108-2.21.072-.606.18-1.09.325-1.451.145-.361.318-.621.52-.779.202-.159.448-.239.736-.239h39.514c.26 0 .498.08.714.239.217.158.397.418.542.779.144.361.252.845.325 1.451.071.606.108 1.344.108 2.21zM68.705 169.479c0 .29-.094.549-.282.78s-.498.419-.932.562c-.433.146-1.011.261-1.732.348-.723.087-1.646.13-2.773.13-1.098 0-2.014-.043-2.751-.13-.736-.087-1.321-.202-1.755-.348-.433-.144-.743-.331-.931-.562s-.282-.49-.282-.78v-52.943c0-.289.094-.549.282-.78.188-.23.505-.419.953-.562.448-.146 1.032-.261 1.755-.348.721-.087 1.631-.13 2.729-.13 1.127 0 2.051.043 2.773.13.721.087 1.3.202 1.732.348.434.144.744.332.932.562.188.231.282.491.282.78v52.943zM146.257 169.479c0 .29-.079.549-.237.78-.16.231-.448.419-.866.562-.42.146-.976.261-1.669.348-.692.087-1.574.13-2.642.13-1.041 0-1.907-.043-2.6-.13-.693-.087-1.243-.202-1.647-.348-.404-.144-.693-.331-.867-.562a1.272 1.272 0 0 1-.259-.78v-45.622h-.087l-16.247 45.578a2.113 2.113 0 0 1-.563.933c-.26.245-.613.44-1.062.585-.447.144-1.019.238-1.711.282-.694.043-1.532.064-2.513.064-.982 0-1.82-.036-2.514-.108-.693-.073-1.264-.188-1.711-.347-.448-.158-.802-.354-1.062-.585s-.434-.505-.52-.824l-15.684-45.578h-.086v45.622c0 .29-.08.549-.239.78-.159.231-.455.419-.888.562-.434.146-.99.261-1.668.348s-1.553.13-2.621.13c-1.04 0-1.906-.043-2.6-.13-.693-.087-1.25-.202-1.667-.348-.419-.144-.708-.331-.867-.562a1.341 1.341 0 0 1-.238-.78v-49.954c0-1.474.39-2.6 1.169-3.38.78-.78 1.82-1.17 3.12-1.17h7.452c1.328 0 2.47.109 3.423.325.953.217 1.776.579 2.469 1.084.693.506 1.271 1.169 1.733 1.992.461.823.866 1.842 1.213 3.055l12.132 33.404h.172l12.565-33.317c.374-1.213.787-2.239 1.234-3.076.448-.838.968-1.517 1.561-2.036a5.144 5.144 0 0 1 2.101-1.105c.809-.216 1.747-.325 2.816-.325h7.668c.78 0 1.452.103 2.016.305a3.46 3.46 0 0 1 1.387.887 3.9 3.9 0 0 1 .823 1.431c.188.562.28 1.206.28 1.928v49.952zM191.707 166.577c0 .838-.037 1.538-.108 2.102-.072.563-.181 1.018-.325 1.365-.145.346-.325.6-.542.757-.216.16-.455.239-.714.239h-28.163c-.952 0-1.754-.282-2.404-.846-.649-.563-.974-1.479-.974-2.75v-48.873c0-1.27.324-2.187.974-2.75.65-.563 1.452-.846 2.404-.846h27.989c.259 0 .491.072.693.218.201.144.375.397.52.757.144.362.253.823.324 1.387.072.563.108 1.278.108 2.145a16.6 16.6 0 0 1-.108 2.059c-.071.563-.181 1.018-.324 1.365-.145.346-.318.6-.52.758a1.093 1.093 0 0 1-.693.238h-20.017v13.69h16.94c.26 0 .498.08.715.239.217.158.396.404.542.735.144.332.252.78.324 1.343a16.6 16.6 0 0 1 .108 2.059c0 .839-.036 1.531-.108 2.08s-.181.989-.324 1.321c-.146.332-.325.57-.542.715a1.25 1.25 0 0 1-.715.216h-16.94v15.814h20.19c.259 0 .498.08.714.238.217.159.397.412.542.758.145.348.253.802.325 1.365.072.564.109 1.265.109 2.102zM217.833 165.364c0 1.185-.095 2.181-.282 2.989-.188.809-.52 1.458-.996 1.949-.478.491-1.105.846-1.886 1.062-.779.217-1.762.325-2.945.325-1.185 0-2.174-.108-2.968-.325-.795-.216-1.423-.57-1.885-1.062s-.788-1.141-.976-1.949c-.188-.809-.28-1.805-.28-2.989 0-1.213.092-2.232.28-3.055.188-.823.514-1.488.976-1.993.462-.506 1.09-.866 1.885-1.083.794-.217 1.783-.325 2.968-.325 1.184 0 2.166.108 2.945.325.78.217 1.408.577 1.886 1.083.477.505.808 1.17.996 1.993.187.822.282 1.842.282 3.055zm-1.344-12.695a1.787 1.787 0 0 1-.26.779c-.146.231-.397.427-.759.585-.361.159-.853.281-1.473.368-.622.087-1.379.131-2.274.131-.926 0-1.689-.044-2.296-.131s-1.091-.209-1.452-.368c-.362-.158-.614-.354-.758-.585a1.763 1.763 0 0 1-.261-.779l-1.126-39.341c0-.375.087-.707.26-.996.174-.288.483-.526.932-.715.447-.188 1.054-.324 1.82-.411.764-.087 1.725-.131 2.881-.131 1.154 0 2.108.051 2.859.152s1.35.246 1.798.433c.448.188.766.42.953.693.188.275.281.6.281.975l-1.125 39.341z"/></g></svg>