<?xml version="1.0" encoding="utf-8"?>
<!-- Generator: Adobe Illustrator 16.0.0, SVG Export Plug-In . SVG Version: 6.00 Build 0)  -->
<!DOCTYPE svg PUBLIC "-//W3C//DTD SVG 1.1//EN" "http://www.w3.org/Graphics/SVG/1.1/DTD/svg11.dtd">
<svg version="1.1" id="圖層_1" xmlns="http://www.w3.org/2000/svg" xmlns:xlink="http://www.w3.org/1999/xlink" x="0px" y="0px"
	 width="222.293px" height="174.522px" viewBox="0 0 222.293 174.522" enable-background="new 0 0 222.293 174.522"
	 xml:space="preserve">
<g>
	<g>
		<path d="M27.65,37.526c0,0.131-0.033,0.242-0.098,0.332s-0.172,0.168-0.319,0.233c-0.147,0.065-0.352,0.114-0.614,0.147
			c-0.262,0.032-0.589,0.049-0.982,0.049c-0.41,0-0.746-0.017-1.008-0.049c-0.261-0.033-0.466-0.083-0.614-0.147
			s-0.253-0.144-0.319-0.233c-0.065-0.09-0.098-0.2-0.098-0.332V24.584c0-1.26-0.098-2.275-0.294-3.045
			c-0.197-0.77-0.483-1.432-0.86-1.989c-0.377-0.557-0.863-0.982-1.46-1.277c-0.598-0.295-1.29-0.442-2.076-0.442
			c-1.015,0-2.03,0.36-3.045,1.081c-1.016,0.72-2.08,1.776-3.192,3.167v15.447c0,0.131-0.033,0.242-0.098,0.332
			c-0.066,0.09-0.172,0.168-0.319,0.233s-0.353,0.114-0.614,0.147c-0.262,0.032-0.598,0.049-1.007,0.049
			c-0.393,0-0.721-0.017-0.982-0.049c-0.262-0.033-0.471-0.083-0.626-0.147c-0.156-0.065-0.262-0.144-0.319-0.233
			c-0.058-0.09-0.086-0.2-0.086-0.332V4.716c0-0.13,0.028-0.246,0.086-0.344c0.057-0.098,0.164-0.18,0.319-0.246
			C9.178,4.062,9.387,4.012,9.649,3.98c0.262-0.033,0.589-0.049,0.982-0.049c0.409,0,0.745,0.017,1.007,0.049
			c0.261,0.032,0.466,0.082,0.614,0.147c0.147,0.066,0.253,0.147,0.319,0.246c0.065,0.098,0.098,0.213,0.098,0.344v13.237
			c1.162-1.228,2.333-2.141,3.512-2.738c1.179-0.598,2.366-0.896,3.561-0.896c1.474,0,2.714,0.25,3.721,0.749
			c1.007,0.499,1.821,1.167,2.444,2.001c0.622,0.835,1.068,1.814,1.338,2.935c0.27,1.122,0.405,2.477,0.405,4.064V37.526z"/>
		<path d="M50.687,37.551c0,0.196-0.065,0.344-0.196,0.442c-0.131,0.098-0.311,0.172-0.541,0.221
			c-0.229,0.049-0.564,0.073-1.007,0.073c-0.425,0-0.765-0.024-1.019-0.073c-0.254-0.049-0.438-0.123-0.553-0.221
			c-0.115-0.098-0.172-0.246-0.172-0.442v-2.21c-0.966,1.032-2.043,1.834-3.229,2.407c-1.188,0.573-2.444,0.859-3.77,0.859
			c-1.163,0-2.214-0.151-3.156-0.454c-0.942-0.303-1.744-0.741-2.407-1.314c-0.663-0.573-1.179-1.277-1.547-2.112
			c-0.368-0.835-0.553-1.785-0.553-2.849c0-1.244,0.253-2.324,0.761-3.242c0.508-0.917,1.236-1.678,2.186-2.284
			c0.949-0.606,2.112-1.06,3.487-1.363c1.375-0.302,2.922-0.455,4.642-0.455h3.045v-1.719c0-0.851-0.09-1.604-0.27-2.259
			c-0.181-0.655-0.471-1.199-0.872-1.633c-0.401-0.434-0.92-0.761-1.559-0.982c-0.639-0.221-1.424-0.332-2.358-0.332
			c-0.999,0-1.895,0.119-2.689,0.356s-1.49,0.5-2.088,0.786c-0.598,0.287-1.097,0.549-1.498,0.786
			c-0.402,0.238-0.7,0.356-0.896,0.356c-0.131,0-0.246-0.032-0.345-0.098c-0.098-0.065-0.184-0.164-0.257-0.294
			c-0.074-0.131-0.127-0.299-0.16-0.504c-0.032-0.205-0.049-0.429-0.049-0.675c0-0.41,0.028-0.733,0.086-0.971
			c0.057-0.237,0.197-0.462,0.417-0.675c0.221-0.212,0.602-0.462,1.143-0.749c0.54-0.287,1.162-0.548,1.866-0.786
			c0.704-0.237,1.473-0.434,2.308-0.589c0.835-0.156,1.678-0.233,2.529-0.233c1.588,0,2.939,0.18,4.053,0.54
			c1.113,0.36,2.014,0.889,2.701,1.584s1.187,1.559,1.499,2.591c0.311,1.031,0.466,2.235,0.466,3.61V37.551z M46.659,27.458h-3.462
			c-1.114,0-2.08,0.094-2.898,0.282c-0.819,0.188-1.498,0.467-2.038,0.835c-0.54,0.368-0.938,0.811-1.191,1.326
			c-0.253,0.516-0.38,1.109-0.38,1.781c0,1.146,0.364,2.059,1.093,2.738c0.729,0.68,1.748,1.019,3.058,1.019
			c1.064,0,2.051-0.27,2.959-0.81c0.908-0.541,1.862-1.367,2.861-2.481V27.458z"/>
		<path d="M74.411,15.375c0,0.066-0.004,0.136-0.013,0.209c-0.008,0.074-0.021,0.151-0.036,0.233
			c-0.017,0.082-0.037,0.172-0.062,0.27c-0.024,0.098-0.053,0.205-0.085,0.319l-7.54,20.998c-0.066,0.181-0.152,0.328-0.258,0.442
			c-0.106,0.115-0.266,0.205-0.479,0.27c-0.213,0.065-0.483,0.111-0.81,0.136c-0.328,0.024-0.737,0.036-1.229,0.036
			s-0.901-0.017-1.228-0.049c-0.328-0.033-0.593-0.083-0.798-0.147c-0.205-0.065-0.365-0.155-0.479-0.27
			c-0.115-0.114-0.205-0.253-0.27-0.417L53.61,16.406c-0.065-0.197-0.119-0.369-0.159-0.516c-0.041-0.147-0.066-0.257-0.074-0.331
			c-0.008-0.074-0.013-0.135-0.013-0.185c0-0.131,0.033-0.246,0.099-0.344c0.065-0.098,0.176-0.176,0.332-0.233
			c0.155-0.058,0.36-0.094,0.614-0.111c0.254-0.016,0.569-0.024,0.945-0.024c0.475,0,0.855,0.013,1.142,0.037
			c0.286,0.024,0.507,0.07,0.663,0.135c0.155,0.065,0.27,0.147,0.344,0.246s0.144,0.221,0.209,0.368l6.237,18.222l0.099,0.295
			l0.074-0.295l6.164-18.222c0.033-0.147,0.09-0.27,0.172-0.368c0.082-0.098,0.201-0.18,0.356-0.246
			c0.155-0.065,0.368-0.11,0.638-0.135c0.271-0.024,0.626-0.037,1.069-0.037c0.376,0,0.688,0.008,0.933,0.024
			c0.246,0.017,0.438,0.058,0.577,0.123c0.139,0.065,0.237,0.143,0.295,0.233C74.382,15.133,74.411,15.244,74.411,15.375z"/>
		<path d="M96.368,25.517c0,0.639-0.16,1.093-0.481,1.363c-0.32,0.27-0.687,0.405-1.098,0.405H80.233
			c0,1.228,0.124,2.333,0.37,3.315s0.658,1.826,1.233,2.529c0.576,0.704,1.324,1.244,2.246,1.621
			c0.921,0.376,2.048,0.565,3.381,0.565c1.053,0,1.99-0.086,2.813-0.258s1.534-0.364,2.135-0.577
			c0.601-0.213,1.094-0.405,1.481-0.577c0.387-0.172,0.679-0.258,0.876-0.258c0.116,0,0.218,0.029,0.309,0.086
			c0.09,0.058,0.16,0.143,0.209,0.257c0.049,0.115,0.087,0.275,0.111,0.479c0.024,0.205,0.037,0.455,0.037,0.75
			c0,0.213-0.008,0.397-0.024,0.552c-0.017,0.156-0.037,0.294-0.062,0.417c-0.025,0.123-0.066,0.233-0.123,0.332
			c-0.058,0.099-0.131,0.193-0.221,0.282c-0.09,0.09-0.355,0.238-0.797,0.442c-0.442,0.205-1.016,0.406-1.72,0.602
			c-0.704,0.197-1.519,0.373-2.443,0.528c-0.925,0.155-1.912,0.233-2.959,0.233c-1.818,0-3.41-0.254-4.777-0.761
			c-1.367-0.507-2.517-1.26-3.45-2.259c-0.933-0.999-1.638-2.251-2.113-3.758c-0.475-1.506-0.712-3.257-0.712-5.255
			c0-1.899,0.246-3.606,0.737-5.121c0.491-1.514,1.199-2.799,2.124-3.855c0.925-1.056,2.042-1.866,3.353-2.431
			c1.31-0.564,2.775-0.847,4.396-0.847c1.735,0,3.213,0.278,4.433,0.835c1.219,0.557,2.222,1.306,3.008,2.247
			c0.786,0.942,1.363,2.047,1.731,3.315c0.368,1.269,0.553,2.625,0.553,4.064V25.517z M92.291,24.314
			c0.049-2.128-0.424-3.798-1.421-5.01s-2.475-1.818-4.435-1.818c-1.005,0-1.886,0.188-2.644,0.565
			c-0.758,0.377-1.393,0.876-1.904,1.499c-0.51,0.623-0.906,1.347-1.186,2.173c-0.28,0.827-0.436,1.691-0.469,2.591H92.291z"/>
		<path d="M128.542,37.551c0,0.196-0.066,0.344-0.196,0.442c-0.133,0.098-0.312,0.172-0.541,0.221
			c-0.229,0.049-0.564,0.073-1.008,0.073c-0.425,0-0.765-0.024-1.019-0.073c-0.254-0.049-0.438-0.123-0.553-0.221
			s-0.172-0.246-0.172-0.442v-2.21c-0.966,1.032-2.042,1.834-3.229,2.407c-1.186,0.573-2.442,0.859-3.77,0.859
			c-1.163,0-2.214-0.151-3.155-0.454c-0.942-0.303-1.744-0.741-2.407-1.314c-0.663-0.573-1.179-1.277-1.547-2.112
			c-0.368-0.835-0.553-1.785-0.553-2.849c0-1.244,0.253-2.324,0.761-3.242c0.507-0.917,1.236-1.678,2.186-2.284
			c0.949-0.606,2.112-1.06,3.488-1.363c1.375-0.302,2.922-0.455,4.64-0.455h3.047v-1.719c0-0.851-0.091-1.604-0.271-2.259
			c-0.181-0.655-0.471-1.199-0.87-1.633c-0.402-0.434-0.923-0.761-1.561-0.982c-0.64-0.221-1.426-0.332-2.357-0.332
			c-0.998,0-1.896,0.119-2.688,0.356c-0.795,0.237-1.49,0.5-2.088,0.786c-0.599,0.287-1.098,0.549-1.499,0.786
			c-0.401,0.238-0.699,0.356-0.896,0.356c-0.131,0-0.246-0.032-0.345-0.098c-0.099-0.065-0.184-0.164-0.257-0.294
			c-0.074-0.131-0.127-0.299-0.16-0.504c-0.033-0.205-0.049-0.429-0.049-0.675c0-0.41,0.028-0.733,0.086-0.971
			c0.057-0.237,0.196-0.462,0.417-0.675c0.222-0.212,0.603-0.462,1.142-0.749c0.542-0.287,1.163-0.548,1.866-0.786
			c0.704-0.237,1.474-0.434,2.31-0.589c0.834-0.156,1.677-0.233,2.529-0.233c1.587,0,2.939,0.18,4.052,0.54
			c1.112,0.36,2.015,0.889,2.703,1.584c0.688,0.696,1.186,1.559,1.496,2.591c0.311,1.031,0.468,2.235,0.468,3.61V37.551z
			 M124.515,27.458h-3.463c-1.114,0-2.081,0.094-2.898,0.282c-0.818,0.188-1.499,0.467-2.038,0.835
			c-0.541,0.368-0.938,0.811-1.192,1.326c-0.254,0.516-0.379,1.109-0.379,1.781c0,1.146,0.363,2.059,1.092,2.738
			c0.729,0.68,1.747,1.019,3.059,1.019c1.062,0,2.049-0.27,2.958-0.81c0.909-0.541,1.862-1.367,2.862-2.481V27.458z"/>
	</g>
	<g>
		<path d="M51.208,58.811c0,0.838-0.037,1.56-0.108,2.166c-0.073,0.606-0.174,1.091-0.303,1.452
			c-0.13,0.361-0.289,0.614-0.477,0.758c-0.188,0.145-0.411,0.217-0.671,0.217c-0.376,0-0.982-0.26-1.82-0.78
			c-0.838-0.52-1.95-1.083-3.336-1.69s-3.04-1.169-4.96-1.689c-1.921-0.521-4.153-0.78-6.694-0.78c-2.715,0-5.171,0.47-7.365,1.408
			c-2.195,0.939-4.073,2.268-5.632,3.986c-1.56,1.719-2.759,3.784-3.596,6.195c-0.838,2.413-1.256,5.077-1.256,7.994
			c0,3.206,0.426,6.03,1.278,8.47c0.852,2.442,2.042,4.484,3.574,6.13c1.531,1.647,3.372,2.889,5.524,3.727
			c2.151,0.838,4.527,1.256,7.127,1.256c1.271,0,2.527-0.144,3.769-0.433c1.242-0.289,2.397-0.722,3.466-1.3V82.9H29.111
			c-0.52,0-0.924-0.325-1.213-0.975c-0.289-0.65-0.434-1.754-0.434-3.314c0-0.809,0.036-1.487,0.109-2.036
			c0.071-0.548,0.18-0.989,0.325-1.322c0.144-0.332,0.317-0.577,0.52-0.737c0.201-0.158,0.433-0.238,0.693-0.238h18.934
			c0.462,0,0.873,0.08,1.234,0.238c0.361,0.16,0.679,0.398,0.954,0.715c0.274,0.318,0.483,0.701,0.628,1.148
			c0.144,0.448,0.216,0.961,0.216,1.539v22.312c0,0.867-0.152,1.624-0.455,2.275c-0.303,0.648-0.924,1.163-1.863,1.537
			c-0.939,0.376-2.101,0.766-3.488,1.17c-1.386,0.405-2.823,0.751-4.311,1.04s-2.989,0.505-4.506,0.65
			c-1.516,0.144-3.04,0.217-4.571,0.217c-4.478,0-8.485-0.645-12.022-1.928c-3.539-1.286-6.536-3.148-8.99-5.59
			c-2.456-2.439-4.333-5.416-5.633-8.925c-1.3-3.51-1.95-7.488-1.95-11.937c0-4.593,0.693-8.715,2.08-12.37
			c1.386-3.653,3.35-6.759,5.892-9.315c2.541-2.556,5.611-4.512,9.207-5.87s7.604-2.037,12.023-2.037
			c2.426,0,4.636,0.167,6.628,0.498c1.993,0.332,3.733,0.736,5.221,1.213c1.487,0.476,2.722,0.99,3.704,1.538
			c0.981,0.549,1.668,1.025,2.058,1.429c0.39,0.405,0.671,0.975,0.845,1.711C51.121,56.276,51.208,57.367,51.208,58.811z"/>
		<path d="M109.658,77.484c0,4.651-0.579,8.81-1.733,12.478c-1.156,3.668-2.874,6.779-5.156,9.336
			c-2.282,2.556-5.105,4.507-8.47,5.85c-3.365,1.344-7.257,2.016-11.677,2.016c-4.361,0-8.167-0.571-11.416-1.713
			c-3.249-1.141-5.958-2.882-8.124-5.221s-3.791-5.313-4.874-8.925c-1.083-3.61-1.625-7.885-1.625-12.824
			c0-4.535,0.578-8.614,1.733-12.24c1.155-3.625,2.874-6.708,5.156-9.25c2.281-2.542,5.105-4.491,8.47-5.849
			c3.364-1.358,7.271-2.037,11.719-2.037c4.246,0,7.994,0.563,11.243,1.69c3.25,1.126,5.964,2.859,8.146,5.199
			c2.18,2.339,3.827,5.292,4.939,8.86C109.101,68.422,109.658,72.632,109.658,77.484z M97.7,78.091c0-2.946-0.232-5.625-0.693-8.037
			c-0.462-2.411-1.25-4.477-2.361-6.195c-1.112-1.718-2.593-3.047-4.441-3.986c-1.849-0.938-4.159-1.408-6.932-1.408
			c-2.802,0-5.142,0.527-7.019,1.581c-1.877,1.055-3.394,2.463-4.549,4.225c-1.155,1.762-1.971,3.82-2.447,6.174
			c-0.477,2.354-0.715,4.846-0.715,7.474c0,3.062,0.231,5.813,0.693,8.253c0.461,2.441,1.242,4.528,2.34,6.26
			c1.097,1.734,2.57,3.055,4.419,3.965c1.848,0.91,4.173,1.364,6.975,1.364s5.141-0.52,7.02-1.56
			c1.877-1.039,3.394-2.453,4.549-4.246c1.155-1.789,1.971-3.877,2.448-6.26C97.461,83.312,97.7,80.777,97.7,78.091z"/>
		<path d="M166.114,77.484c0,4.651-0.578,8.81-1.733,12.478s-2.874,6.779-5.155,9.336c-2.282,2.556-5.105,4.507-8.471,5.85
			c-3.364,1.344-7.257,2.016-11.676,2.016c-4.362,0-8.167-0.571-11.416-1.713c-3.25-1.141-5.958-2.882-8.123-5.221
			c-2.167-2.339-3.792-5.313-4.875-8.925c-1.083-3.61-1.624-7.885-1.624-12.824c0-4.535,0.576-8.614,1.732-12.24
			c1.154-3.625,2.874-6.708,5.155-9.25s5.104-4.491,8.471-5.849c3.365-1.358,7.271-2.037,11.72-2.037
			c4.245,0,7.993,0.563,11.242,1.69c3.25,1.126,5.965,2.859,8.146,5.199c2.181,2.339,3.826,5.292,4.938,8.86
			C165.558,68.422,166.114,72.632,166.114,77.484z M154.156,78.091c0-2.946-0.231-5.625-0.693-8.037
			c-0.462-2.411-1.249-4.477-2.36-6.195c-1.112-1.718-2.593-3.047-4.442-3.986c-1.848-0.938-4.158-1.408-6.932-1.408
			c-2.802,0-5.141,0.527-7.019,1.581c-1.878,1.055-3.395,2.463-4.549,4.225c-1.156,1.762-1.972,3.82-2.448,6.174
			c-0.477,2.354-0.715,4.846-0.715,7.474c0,3.062,0.23,5.813,0.693,8.253c0.461,2.441,1.241,4.528,2.339,6.26
			c1.098,1.734,2.571,3.055,4.421,3.965c1.848,0.91,4.172,1.364,6.975,1.364c2.801,0,5.142-0.52,7.019-1.56
			c1.877-1.039,3.394-2.453,4.55-4.246c1.154-1.789,1.971-3.877,2.447-6.26C153.918,83.312,154.156,80.777,154.156,78.091z"/>
		<path d="M218.716,77.311c0,5.142-0.672,9.539-2.015,13.192c-1.344,3.655-3.271,6.636-5.784,8.947s-5.567,4.007-9.163,5.09
			c-3.597,1.084-7.878,1.625-12.846,1.625H175.52c-0.952,0-1.754-0.281-2.404-0.844c-0.649-0.564-0.974-1.48-0.974-2.753v-48.87
			c0-1.271,0.324-2.188,0.974-2.751c0.65-0.563,1.452-0.845,2.404-0.845h14.385c4.997,0,9.235,0.584,12.716,1.755
			c3.48,1.169,6.412,2.903,8.796,5.199c2.383,2.296,4.195,5.134,5.437,8.514C218.095,68.949,218.716,72.863,218.716,77.311z
			 M206.932,77.701c0-2.657-0.312-5.126-0.932-7.409c-0.621-2.281-1.619-4.26-2.989-5.935c-1.373-1.675-3.136-2.982-5.286-3.921
			c-2.151-0.938-4.977-1.408-8.47-1.408h-5.763v38.126h5.936c3.119,0,5.748-0.404,7.885-1.213c2.138-0.809,3.921-2.029,5.351-3.66
			c1.431-1.633,2.498-3.662,3.206-6.088C206.578,83.767,206.932,80.936,206.932,77.701z"/>
		<path d="M50.638,119.655c0,0.838-0.037,1.553-0.108,2.145c-0.072,0.593-0.181,1.068-0.325,1.43
			c-0.145,0.362-0.325,0.628-0.542,0.802c-0.216,0.174-0.455,0.261-0.714,0.261H34.91v45.188c0,0.29-0.094,0.549-0.281,0.78
			c-0.188,0.231-0.498,0.419-0.932,0.562c-0.434,0.146-1.018,0.261-1.755,0.348c-0.736,0.087-1.654,0.13-2.751,0.13
			c-1.098,0-2.015-0.043-2.751-0.13c-0.736-0.087-1.321-0.202-1.754-0.348c-0.434-0.144-0.744-0.331-0.931-0.562
			c-0.188-0.231-0.282-0.49-0.282-0.78v-45.188H9.435c-0.289,0-0.534-0.087-0.736-0.261s-0.375-0.439-0.52-0.802
			c-0.145-0.361-0.253-0.837-0.325-1.43c-0.073-0.592-0.108-1.307-0.108-2.145c0-0.866,0.036-1.604,0.108-2.21
			c0.072-0.606,0.18-1.09,0.325-1.451c0.145-0.361,0.318-0.621,0.52-0.779c0.202-0.159,0.448-0.239,0.736-0.239h39.514
			c0.26,0,0.498,0.08,0.714,0.239c0.217,0.158,0.397,0.418,0.542,0.779c0.144,0.361,0.252,0.845,0.325,1.451
			C50.601,118.051,50.638,118.789,50.638,119.655z"/>
		<path d="M68.705,169.479c0,0.29-0.094,0.549-0.282,0.78s-0.498,0.419-0.932,0.562c-0.433,0.146-1.011,0.261-1.732,0.348
			c-0.723,0.087-1.646,0.13-2.773,0.13c-1.098,0-2.014-0.043-2.751-0.13c-0.736-0.087-1.321-0.202-1.755-0.348
			c-0.433-0.144-0.743-0.331-0.931-0.562s-0.282-0.49-0.282-0.78v-52.943c0-0.289,0.094-0.549,0.282-0.78
			c0.188-0.23,0.505-0.419,0.953-0.562c0.448-0.146,1.032-0.261,1.755-0.348c0.721-0.087,1.631-0.13,2.729-0.13
			c1.127,0,2.051,0.043,2.773,0.13c0.721,0.087,1.3,0.202,1.732,0.348c0.434,0.144,0.744,0.332,0.932,0.562
			c0.188,0.231,0.282,0.491,0.282,0.78V169.479z"/>
		<path d="M146.257,169.479c0,0.29-0.079,0.549-0.237,0.78c-0.16,0.231-0.448,0.419-0.866,0.562
			c-0.42,0.146-0.976,0.261-1.669,0.348c-0.692,0.087-1.574,0.13-2.642,0.13c-1.041,0-1.907-0.043-2.6-0.13
			c-0.693-0.087-1.243-0.202-1.647-0.348c-0.404-0.144-0.693-0.331-0.867-0.562c-0.172-0.231-0.259-0.49-0.259-0.78v-45.622h-0.087
			l-16.247,45.578c-0.116,0.376-0.303,0.687-0.563,0.933c-0.26,0.245-0.613,0.44-1.062,0.585c-0.447,0.144-1.019,0.238-1.711,0.282
			c-0.694,0.043-1.532,0.064-2.513,0.064c-0.982,0-1.82-0.036-2.514-0.108c-0.693-0.073-1.264-0.188-1.711-0.347
			c-0.448-0.158-0.802-0.354-1.062-0.585s-0.434-0.505-0.52-0.824l-15.684-45.578H91.71v45.622c0,0.29-0.08,0.549-0.239,0.78
			c-0.159,0.231-0.455,0.419-0.888,0.562c-0.434,0.146-0.99,0.261-1.668,0.348s-1.553,0.13-2.621,0.13c-1.04,0-1.906-0.043-2.6-0.13
			c-0.693-0.087-1.25-0.202-1.667-0.348c-0.419-0.144-0.708-0.331-0.867-0.562c-0.159-0.231-0.238-0.49-0.238-0.78v-49.954
			c0-1.474,0.39-2.6,1.169-3.38c0.78-0.78,1.82-1.17,3.12-1.17h7.452c1.328,0,2.47,0.109,3.423,0.325
			c0.953,0.217,1.776,0.579,2.469,1.084c0.693,0.506,1.271,1.169,1.733,1.992c0.461,0.823,0.866,1.842,1.213,3.055l12.132,33.404
			h0.172l12.565-33.317c0.374-1.213,0.787-2.239,1.234-3.076c0.448-0.838,0.968-1.517,1.561-2.036
			c0.592-0.52,1.292-0.889,2.101-1.105c0.809-0.216,1.747-0.325,2.816-0.325h7.668c0.78,0,1.452,0.103,2.016,0.305
			c0.562,0.202,1.024,0.498,1.387,0.887c0.36,0.391,0.635,0.867,0.823,1.431c0.188,0.562,0.28,1.206,0.28,1.928V169.479z"/>
		<path d="M191.707,166.577c0,0.838-0.037,1.538-0.108,2.102c-0.072,0.563-0.181,1.018-0.325,1.365
			c-0.145,0.346-0.325,0.6-0.542,0.757c-0.216,0.16-0.455,0.239-0.714,0.239h-28.163c-0.952,0-1.754-0.282-2.404-0.846
			c-0.649-0.563-0.974-1.479-0.974-2.75v-48.873c0-1.27,0.324-2.187,0.974-2.75c0.65-0.563,1.452-0.846,2.404-0.846h27.989
			c0.259,0,0.491,0.072,0.693,0.218c0.201,0.144,0.375,0.397,0.52,0.757c0.144,0.362,0.253,0.823,0.324,1.387
			c0.072,0.563,0.108,1.278,0.108,2.145c0,0.81-0.036,1.495-0.108,2.059c-0.071,0.563-0.181,1.018-0.324,1.365
			c-0.145,0.346-0.318,0.6-0.52,0.758c-0.202,0.159-0.435,0.238-0.693,0.238h-20.017v13.69h16.94c0.26,0,0.498,0.08,0.715,0.239
			c0.217,0.158,0.396,0.404,0.542,0.735c0.144,0.332,0.252,0.78,0.324,1.343c0.072,0.563,0.108,1.25,0.108,2.059
			c0,0.839-0.036,1.531-0.108,2.08s-0.181,0.989-0.324,1.321c-0.146,0.332-0.325,0.57-0.542,0.715
			c-0.217,0.146-0.455,0.216-0.715,0.216h-16.94v15.814h20.19c0.259,0,0.498,0.08,0.714,0.238c0.217,0.159,0.397,0.412,0.542,0.758
			c0.145,0.348,0.253,0.802,0.325,1.365C191.67,165.039,191.707,165.74,191.707,166.577z"/>
		<path d="M217.833,165.364c0,1.185-0.095,2.181-0.282,2.989c-0.188,0.809-0.52,1.458-0.996,1.949
			c-0.478,0.491-1.105,0.846-1.886,1.062c-0.779,0.217-1.762,0.325-2.945,0.325c-1.185,0-2.174-0.108-2.968-0.325
			c-0.795-0.216-1.423-0.57-1.885-1.062s-0.788-1.141-0.976-1.949c-0.188-0.809-0.28-1.805-0.28-2.989
			c0-1.213,0.092-2.232,0.28-3.055c0.188-0.823,0.514-1.488,0.976-1.993c0.462-0.506,1.09-0.866,1.885-1.083
			c0.794-0.217,1.783-0.325,2.968-0.325c1.184,0,2.166,0.108,2.945,0.325c0.78,0.217,1.408,0.577,1.886,1.083
			c0.477,0.505,0.808,1.17,0.996,1.993C217.738,163.131,217.833,164.151,217.833,165.364z M216.489,152.669
			c-0.029,0.289-0.116,0.548-0.26,0.779c-0.146,0.231-0.397,0.427-0.759,0.585c-0.361,0.159-0.853,0.281-1.473,0.368
			c-0.622,0.087-1.379,0.131-2.274,0.131c-0.926,0-1.689-0.044-2.296-0.131s-1.091-0.209-1.452-0.368
			c-0.362-0.158-0.614-0.354-0.758-0.585c-0.146-0.231-0.232-0.49-0.261-0.779l-1.126-39.341c0-0.375,0.087-0.707,0.26-0.996
			c0.174-0.288,0.483-0.526,0.932-0.715c0.447-0.188,1.054-0.324,1.82-0.411c0.764-0.087,1.725-0.131,2.881-0.131
			c1.154,0,2.108,0.051,2.859,0.152s1.35,0.246,1.798,0.433c0.448,0.188,0.766,0.42,0.953,0.693c0.188,0.275,0.281,0.6,0.281,0.975
			L216.489,152.669z"/>
	</g>
</g>
</svg>
