<?xml version="1.0" encoding="utf-8"?>
<!-- Generator: Adobe Illustrator 16.0.0, SVG Export Plug-In . SVG Version: 6.00 Build 0)  -->
<!DOCTYPE svg PUBLIC "-//W3C//DTD SVG 1.1//EN" "http://www.w3.org/Graphics/SVG/1.1/DTD/svg11.dtd">
<svg version="1.1" id="圖層_1" xmlns="http://www.w3.org/2000/svg" xmlns:xlink="http://www.w3.org/1999/xlink" x="0px" y="0px"
	 width="246.939px" height="68.367px" viewBox="0 0 246.939 68.367" enable-background="new 0 0 246.939 68.367"
	 xml:space="preserve">
<g>
	<path d="M26.152,24.233c1.278,1.471,1.919,3.263,1.919,5.372c0,2.444-0.591,4.422-1.786,5.929
		c-1.183,1.513-2.831,2.266-4.937,2.266c-2.148,0-3.857-0.779-5.121-2.328c-1.261-1.551-1.888-3.502-1.888-5.866
		c0-2.109,0.651-3.901,1.953-5.372c1.3-1.485,2.984-2.22,5.056-2.22C23.267,22.014,24.869,22.749,26.152,24.233z M14.501,63.426
		c2.394,0.773,4.683,1.16,6.856,1.16c4.233,0,7.734-0.95,10.5-2.843c2.765-1.892,4.149-4.38,4.149-7.459
		c0-2.785-0.919-4.962-2.766-6.537c-1.841-1.567-4.407-2.361-7.696-2.361c-0.917,0-2.321,0.159-4.222,0.469
		c-1.892,0.319-3.286,0.474-4.18,0.474c-2.042,0-3.063-0.42-3.063-1.27c0-0.611,0.482-1.111,1.447-1.493s1.738-0.602,2.311-0.665
		l4.918-0.493c3.424-0.342,6.186-1.66,8.296-3.971c2.108-2.308,3.166-5.159,3.166-8.553c0-3.21-0.767-5.808-2.29-7.799l3.567-2.712
		l-3.881-3.673l-2.976,3.58c-1.856-1.365-4.434-2.043-7.736-2.043c-3.585,0-6.604,1.179-9.042,3.521
		c-2.445,2.353-3.667,5.293-3.667,8.819c0,5.497,2.358,9.358,7.08,11.579c-1.642,0.396-3.022,1.042-4.135,1.935
		c-1.112,0.894-1.668,1.893-1.668,2.997c0,3.573,2.375,5.36,7.133,5.36c0.98,0,2.345-0.17,4.094-0.513
		c1.753-0.339,2.96-0.512,3.626-0.512c3.923,0,5.88,1.347,5.88,4.046c0,1.377-0.778,2.521-2.333,3.445
		c-1.552,0.921-3.675,1.38-6.367,1.38c-2.921,0-6.111-1.163-9.577-3.497l-3.219,4.789C10.168,61.698,12.094,62.645,14.501,63.426z"
		/>
	<path d="M114.633,51.446V30.2c0-5.291-2.288-7.935-6.862-7.935c-1.441,0-2.793,0.449-4.044,1.335
		c-1.255,0.885-2.115,1.899-2.571,3.026v24.82h-5.972V27.596c0-1.651-0.621-2.951-1.871-3.903c-1.24-0.953-2.889-1.428-4.931-1.428
		c-1.19,0-2.462,0.465-3.805,1.387c-1.354,0.924-2.312,1.939-2.876,3.05v24.744h-5.967V17.915h3.887l1.979,3.842
		c2.299-3.014,5.178-4.521,8.63-4.521c4.808,0,8.179,1.506,10.106,4.521c0.667-1.285,1.912-2.36,3.734-3.224
		c1.82-0.864,3.69-1.297,5.616-1.297c3.475,0,6.16,1.03,8.064,3.088s2.859,4.951,2.859,8.671v22.451H114.633z"/>
	<path d="M183.169,51.446V31.922c0-3.573-0.535-6.072-1.612-7.506c-1.075-1.433-2.873-2.151-5.398-2.151
		c-1.354,0-2.778,0.412-4.253,1.23c-1.487,0.808-2.621,1.815-3.411,3.003v24.948h-5.977V17.915h4.074l1.886,4.328
		c1.965-3.333,5.175-5.006,9.626-5.006c7.354,0,11.033,4.473,11.033,13.421v20.79H183.169z"/>
	<path d="M203.725,5.287c1.021,0,1.891,0.366,2.606,1.08c0.716,0.719,1.075,1.574,1.075,2.572c0,1.024-0.359,1.895-1.075,2.611
		c-0.716,0.716-1.585,1.074-2.606,1.074c-0.996,0-1.859-0.358-2.574-1.074c-0.721-0.717-1.078-1.587-1.078-2.611
		c0-1.016,0.354-1.877,1.065-2.579C201.842,5.643,202.702,5.287,203.725,5.287z M200.411,51.446V22.953h-4.604v-5.039h10.58v33.532
		H200.411z"/>
	<path d="M66.324,43.166V31.123c0-4.826-1.106-8.345-3.307-10.569c-2.204-2.207-5.744-3.317-10.61-3.317
		c-1.816,0-3.725,0.326-5.72,0.98c-1.994,0.653-3.557,1.437-4.681,2.342l2.504,4.953c2.001-1.988,4.862-2.986,8.576-2.986
		c4.838,0,7.266,2.725,7.266,8.19c-1.593-0.568-3.014-0.85-4.269-0.85c-4.624,0-8.422,1.175-11.401,3.53
		c-2.977,2.352-4.469,5.232-4.469,8.64c0,2.839,0.964,5.22,2.902,7.136c1.93,1.916,4.222,2.875,6.852,2.875
		c4.916,0,8.562-1.512,10.948-4.527c0.521,1.624,1.39,2.775,2.593,3.475s3.022,1.053,5.457,1.053v-2.992
		C67.206,48.079,66.324,46.108,66.324,43.166z M55.213,46.194c-4.042,1.442-8.169,0.22-9.217-2.719
		c-1.053-2.95,1.371-6.505,5.412-7.942c4.039-1.442,8.165-0.226,9.222,2.725C61.676,41.192,59.252,44.748,55.213,46.194z"/>
	<path d="M239.943,43.166V31.123c0-4.826-1.104-8.345-3.306-10.569c-2.209-2.207-5.745-3.317-10.604-3.317
		c-1.823,0-3.73,0.326-5.728,0.98c-1.989,0.653-3.55,1.437-4.683,2.342l2.505,4.953c2.008-1.988,4.867-2.986,8.577-2.986
		c4.842,0,7.264,2.725,7.264,8.19c-1.591-0.568-3.008-0.85-4.263-0.85c-4.625,0-8.42,1.175-11.402,3.53
		c-2.98,2.352-4.472,5.232-4.472,8.64c0,2.839,0.969,5.22,2.904,7.136c1.933,1.916,4.221,2.875,6.852,2.875
		c4.919,0,8.561-1.512,10.942-4.527c0.531,1.624,1.396,2.775,2.602,3.475c1.204,0.699,3.02,1.053,5.455,1.053v-2.992
		C240.829,48.079,239.943,46.108,239.943,43.166z M228.83,46.194c-4.039,1.442-8.164,0.22-9.218-2.719
		c-1.055-2.95,1.372-6.505,5.412-7.942c4.042-1.442,8.166-0.226,9.22,2.725C235.296,41.192,232.874,44.748,228.83,46.194z"/>
	<path d="M153.014,43.166V31.123c0-4.826-1.101-8.345-3.309-10.569c-2.202-2.207-5.736-3.317-10.604-3.317
		c-1.813,0-3.723,0.326-5.722,0.98c-1.993,0.653-3.556,1.437-4.682,2.342l2.513,4.953c1.994-1.988,4.853-2.986,8.569-2.986
		c4.84,0,7.263,2.725,7.263,8.19c-1.59-0.568-3.008-0.85-4.264-0.85c-4.624,0-8.427,1.175-11.402,3.53
		c-2.981,2.352-4.471,5.232-4.471,8.64c0,2.839,0.971,5.22,2.897,7.136c1.942,1.916,4.227,2.875,6.858,2.875
		c4.911,0,8.561-1.512,10.945-4.527c0.524,1.624,1.388,2.775,2.595,3.475c1.202,0.699,3.024,1.053,5.459,1.053v-2.992
		C153.9,48.079,153.014,46.108,153.014,43.166z M141.905,46.194c-4.04,1.442-8.167,0.22-9.222-2.719
		c-1.047-2.95,1.376-6.505,5.415-7.942c4.041-1.442,8.171-0.226,9.215,2.725C148.37,41.192,145.945,44.748,141.905,46.194z"/>
</g>
</svg>
