<svg xmlns="http://www.w3.org/2000/svg" width="196.667" height="76.667" viewBox="0 0 196.667 76.667"><g fill="#595757"><path d="M9.666 61.108c-.459-.303-1.027-.432-1.645-.432-1.441 0-2.35 1.15-2.35 2.582 0 .979.66 1.766 1.67 1.766.271 0 .449 0 .586-.061l.33-1.604H7.002l.195-.951h2.4l-.677 3.301c-.35.146-1.01.268-1.586.268-1.738 0-2.9-.814-2.9-2.686 0-2.209 1.416-3.568 3.553-3.568.662 0 1.357.094 1.977.336l-.298 1.049zM13.648 59.827h3.484l-.178.953H14.64l-.307 1.49h2.07l-.188.953h-2.076l-.348 1.697h2.34l-.203.953h-3.527l1.247-6.046zM20.525 59.827h1.5l1.264 4.592h.018l.967-4.592h1.119l-1.281 6.047h-1.525l-1.238-4.635h-.019l-.941 4.635h-1.135l1.271-6.047zM28.947 59.827h3.484l-.178.953h-2.314l-.305 1.49h2.068l-.188.953h-2.076l-.348 1.697h2.34l-.203.953H27.7l1.247-6.046zM35.773 59.827h1.398c1.094 0 2.357-.018 2.357 1.43 0 1.039-.764 1.594-1.73 1.611v.018c.322.018.525.225.602.555l.568 2.434h-1.246l-.289-1.42c-.135-.643-.1-1.094-.746-1.094h-.449l-.516 2.514h-1.188l1.239-6.048zm.678 2.582h.432c.637 0 1.408-.199 1.408-.996 0-.633-.533-.633-1.018-.633h-.492l-.33 1.629zM45.18 59.827h1.312l1.078 6.047h-1.188l-.203-1.387h-2.52l-.754 1.387h-1.312l3.587-6.047zm-.992 3.709h1.83l-.371-2.635h-.035l-1.424 2.635zM51.693 59.827h1.186L51.82 64.92h2.324l-.203.953h-3.504l1.256-6.046zM62.592 59.827h1.959l.398 4.357h.018l2.33-4.357h1.977l-1.264 6.047h-1.254l1.117-5.008h-.016l-2.68 5.008H64.04l-.475-5.008h-.016l-1.086 5.008h-1.129l1.258-6.047zM77.692 62.288c0 .988-.355 1.949-.992 2.676-.619.703-1.518 1.014-2.51 1.014-1.459 0-2.333-1.074-2.333-2.512 0-.961.331-1.898.934-2.617.643-.754 1.467-1.125 2.432-1.125 1.604-.001 2.469.952 2.469 2.564zm-4.596 1.248c0 .787.391 1.488 1.246 1.488 1.355 0 2.111-1.664 2.111-2.867 0-.805-.406-1.48-1.264-1.48-1.38-.001-2.093 1.636-2.093 2.859zM81.522 59.827h1.756c.924 0 1.789.346 1.789 1.447 0 .736-.578 1.324-1.264 1.438v.018c.66.104.949.623.949 1.273 0 1.732-1.898 1.871-2.781 1.871h-1.688l1.239-6.047zm.094 5.093h.406c.729 0 1.543-.086 1.543-1.021 0-.633-.576-.729-1.213-.729h-.381l-.355 1.75zm.543-2.65h.465c.604 0 1.256-.174 1.256-.885 0-.58-.543-.605-.992-.605h-.416l-.313 1.49zM88.907 59.827h1.238l-1.248 6.047h-1.236l1.246-6.047zM93.641 59.827h1.188l-1.061 5.094h2.324l-.203.953h-3.502l1.254-6.047zM100.077 59.827h3.484l-.18.953h-2.312l-.307 1.49h2.068l-.186.953h-2.078l-.346 1.697h2.34l-.205.953H98.83l1.247-6.046zM115.29 61.03c-.271-.189-.721-.354-1.355-.354-1.314 0-2.24 1.014-2.24 2.434 0 1.014.646 1.914 1.688 1.914.5 0 .906-.164 1.248-.371l-.188 1.16a4.996 4.996 0 0 1-1.34.164c-1.789 0-2.645-1.23-2.645-2.867 0-1.949 1.297-3.387 3.391-3.387.594 0 1.221.076 1.738.293l-.297 1.014zM123.635 62.288c0 .988-.357 1.949-.992 2.676-.619.703-1.518 1.014-2.51 1.014-1.459 0-2.332-1.074-2.332-2.512 0-.961.33-1.898.934-2.617.643-.754 1.467-1.125 2.434-1.125 1.601-.001 2.466.952 2.466 2.564zm-4.595 1.248c0 .787.389 1.488 1.246 1.488 1.357 0 2.111-1.664 2.111-2.867 0-.805-.406-1.48-1.264-1.48-1.381-.001-2.093 1.636-2.093 2.859zM127.465 59.827h1.398c1.094 0 2.357-.018 2.357 1.43 0 1.039-.764 1.594-1.73 1.611v.018c.324.018.527.225.602.555l.57 2.434h-1.248l-.287-1.42c-.137-.643-.104-1.094-.746-1.094h-.449l-.518 2.514h-1.188l1.239-6.048zm.678 2.582h.434c.635 0 1.406-.199 1.406-.996 0-.633-.533-.633-1.018-.633h-.49l-.332 1.629zM134.854 65.874h-1.188l1.254-6.047h1.002c1.094 0 2.594.061 2.594 1.568 0 1.463-1.178 2.184-2.5 2.184h-.688l-.474 2.295zm.678-3.249h.424c.652 0 1.322-.348 1.322-1.102 0-.615-.482-.744-.992-.744h-.371l-.383 1.846zM146.866 62.288c0 .988-.357 1.949-.992 2.676-.619.703-1.518 1.014-2.51 1.014-1.459 0-2.332-1.074-2.332-2.512 0-.961.33-1.898.934-2.617.645-.754 1.467-1.125 2.434-1.125 1.6-.001 2.466.952 2.466 2.564zm-4.596 1.248c0 .787.391 1.488 1.246 1.488 1.357 0 2.111-1.664 2.111-2.867 0-.805-.408-1.48-1.264-1.48-1.382-.001-2.093 1.636-2.093 2.859zM150.696 59.827h1.398c1.094 0 2.359-.018 2.359 1.43 0 1.039-.764 1.594-1.73 1.611v.018c.322.018.525.225.602.555l.568 2.434h-1.246l-.289-1.42c-.137-.643-.102-1.094-.746-1.094h-.449l-.518 2.514h-1.186l1.237-6.048zm.679 2.582h.432c.637 0 1.408-.199 1.408-.996 0-.633-.535-.633-1.018-.633h-.492l-.33 1.629zM160.102 59.827h1.314l1.076 6.047h-1.186l-.203-1.387h-2.52l-.754 1.387h-1.314l3.587-6.047zm-.992 3.709h1.832l-.373-2.635h-.035l-1.424 2.635zM165.532 59.827h4.568l-.193.953h-1.672l-1.076 5.094h-1.238l1.076-5.094h-1.668l.203-.953zM172.948 59.827h1.238l-1.246 6.047h-1.238l1.246-6.047zM182.551 62.288c0 .988-.355 1.949-.99 2.676-.619.703-1.52 1.014-2.512 1.014-1.457 0-2.332-1.074-2.332-2.512 0-.961.332-1.898.934-2.617.645-.754 1.467-1.125 2.434-1.125 1.601-.001 2.466.952 2.466 2.564zm-4.595 1.248c0 .787.391 1.488 1.246 1.488 1.357 0 2.111-1.664 2.111-2.867 0-.805-.406-1.48-1.264-1.48-1.381-.001-2.093 1.636-2.093 2.859zM186.405 59.827h1.5l1.264 4.592h.018l.965-4.592h1.119l-1.279 6.047h-1.525l-1.238-4.635h-.018l-.941 4.635h-1.135l1.27-6.047z"/></g><path fill="#3B90C8" d="M136.465 40.183c-2.021 9.507-8.686 14.314-19.832 14.314-11.145 0-15.697-4.807-13.674-14.314 2.043-9.611 8.625-14.365 19.771-14.365 11.145-.001 15.776 4.753 13.735 14.365zm-24.105 0c-1.072 5.38.789 8.099 5.525 8.099s7.705-2.822 8.939-8.308c1.145-5.381-.658-8.045-5.393-8.045-4.878 0-7.903 2.767-9.071 8.254zM191.747 26.233l-5.873 27.636h-9.266l5.164-24.292c.477-2.246 2.172-3.344 5.168-3.344h4.807zM193.422 18.345l-1.154 5.436h-9.264l.432-2.039c.408-2.246 2.115-3.396 5.18-3.396h4.806zM163.69 25.817c-4.596 0-8.381 1.41-11.359 4.281l2.5-11.754H150.163c-3.066 0-4.854 1.203-5.342 3.502l-1.756 8.254v-.002l-2.1 9.867-.006.045-.402 1.896c-.914 4.289-.031 7.453 2.602 9.511 2.469 1.932 6.475 2.895 12.043 2.869 11.457-.156 18.156-4.807 20.111-14 1.996-9.404-1.855-14.209-11.623-14.469zm-7.514 22.566c-5.285 0-7.191-2.809-5.953-8.373l.008-.045c1.414-5.324 4.549-7.932 9.561-7.932 5.014 0 7.037 2.611 6.113 7.939-1.188 5.591-4.436 8.411-9.729 8.411zM93.946 18.345h-5.293L73.635 45.407l-3.792-27.062H60.438c-2.717 0-5.254 1.777-5.688 3.814L48.01 53.87h9.127l6.096-28.681.02.172 3.566 28.509h9.895l15.779-28.681-6.157 28.681h4.307c2.719 0 5.256-1.775 5.686-3.812l6.742-31.712h-9.125zM28.359 23.083c4.598 0 7.572 1.41 8.842 4.283.859 1.201 2.117 1.828 3.859 1.828h5.992c.508-4.021-.857-7.104-4.016-9.297-3.523-2.09-8.109-3.135-13.611-3.135-10.191 0-22.418 3.908-21.213 16.289.4 4.105 3.354 8.131 5.887 9.334-1.385-2.197-1.178-5.121-.617-7.652 1.727-7.787 6.727-11.65 14.877-11.65z"/><path fill="#F5A200" d="M40.189 36.636H26.344l-.549 2.229a2.362 2.362 0 0 0 .447 2.086c.758.969 2.264 1.545 4.027 1.545h3.953s.012.002.031.002c-3.85 2.791-8.436 4.48-13.061 4.48-10.289 0-16.855-8.341-14.67-18.628.014-.062.031-.123.045-.184l.021-.135s-2.217 3.73-2.785 5.588a16.48 16.48 0 0 0-.445 1.82C1.469 45.897 8.494 54.108 22.076 54.108c4.963 0 9.699-1.531 14.711-5.523l-.455 1.846c-.307 1.246-.15 2.35.441 3.107.484.619 1.236.959 2.113.959.219 0 .445-.02.674-.061l2.6-.455 4.277-17.345h-6.248z"/></svg>