<svg xmlns="http://www.w3.org/2000/svg" width="215.286" height="106.369" viewBox="0 0 215.286 106.369"><g fill="#595757"><path d="M23.308 89.767c-.455-.301-1.023-.432-1.641-.432-1.438 0-2.344 1.15-2.344 2.574 0 .979.66 1.766 1.666 1.766.271 0 .451 0 .584-.059l.33-1.6h-1.252l.193-.953h2.396l-.678 3.295c-.346.148-1.006.268-1.582.268-1.734 0-2.895-.812-2.895-2.68 0-2.205 1.414-3.562 3.547-3.562.658 0 1.354.094 1.971.338l-.295 1.045zM27.284 88.487h3.479l-.18.951h-2.309l-.305 1.486h2.064l-.188.951h-2.072l-.348 1.695h2.338l-.205.951h-3.521l1.247-6.034zM34.147 88.487h1.496l1.262 4.582h.018l.963-4.582h1.119l-1.279 6.035h-1.521l-1.236-4.627h-.016l-.941 4.627h-1.133l1.268-6.035zM42.552 88.487h3.479l-.178.951h-2.311l-.305 1.486H45.3l-.184.951h-2.072l-.348 1.695h2.336l-.205.951h-3.52l1.245-6.034zM49.364 88.487h1.395c1.092 0 2.354-.018 2.354 1.428 0 1.035-.762 1.59-1.725 1.605v.018c.32.018.521.225.6.555l.566 2.43H51.31l-.289-1.42c-.133-.637-.1-1.086-.744-1.086h-.447l-.516 2.506h-1.186l1.236-6.036zm.678 2.576h.432c.633 0 1.404-.199 1.404-.996 0-.629-.535-.629-1.016-.629h-.492l-.328 1.625zM58.751 88.487h1.311l1.076 6.035h-1.186l-.203-1.383h-2.512l-.754 1.383h-1.311l3.579-6.035zm-.99 3.7h1.828l-.373-2.627h-.033l-1.422 2.627zM65.253 88.487h1.186l-1.061 5.084h2.318l-.201.951h-3.494l1.252-6.035zM76.13 88.487h1.953l.398 4.35h.016l2.328-4.35h1.971l-1.26 6.035h-1.252l1.117-4.996h-.018l-2.674 4.996h-1.133l-.475-4.996h-.018l-1.082 4.996h-1.127l1.256-6.035zM91.198 90.942a4.09 4.09 0 0 1-.99 2.674c-.617.699-1.516 1.01-2.506 1.01-1.455 0-2.326-1.072-2.326-2.508 0-.957.33-1.893.932-2.611.643-.752 1.463-1.123 2.428-1.123 1.599 0 2.462.951 2.462 2.558zm-4.586 1.245c0 .787.389 1.488 1.242 1.488 1.354 0 2.107-1.658 2.107-2.863 0-.803-.404-1.477-1.26-1.477-1.378 0-2.089 1.635-2.089 2.852zM95.021 88.487h1.754c.92 0 1.783.346 1.783 1.443 0 .736-.574 1.324-1.26 1.438v.018c.658.102.947.621.947 1.268 0 1.73-1.896 1.869-2.775 1.869h-1.686l1.237-6.036zm.093 5.084h.404c.729 0 1.543-.086 1.543-1.02 0-.631-.576-.727-1.211-.727h-.38l-.356 1.747zm.541-2.646h.465c.602 0 1.254-.174 1.254-.881 0-.578-.543-.605-.99-.605h-.416l-.313 1.486zM102.39 88.487h1.236l-1.244 6.035h-1.236l1.244-6.035zM107.116 88.487h1.186l-1.059 5.084h2.318l-.203.951h-3.494l1.252-6.035zM113.538 88.487h3.477l-.176.951h-2.311l-.305 1.486h2.064l-.188.951h-2.07l-.35 1.695h2.336l-.203.951h-3.52l1.246-6.034zM128.722 89.688c-.271-.189-.721-.354-1.355-.354-1.311 0-2.232 1.01-2.232 2.428 0 1.014.643 1.912 1.684 1.912.5 0 .904-.166 1.244-.373l-.186 1.158a4.923 4.923 0 0 1-1.338.166c-1.785 0-2.641-1.227-2.641-2.863 0-1.943 1.295-3.379 3.385-3.379.594 0 1.219.078 1.734.293l-.295 1.012zM137.048 90.942c0 .984-.354 1.945-.988 2.674-.619.699-1.514 1.01-2.506 1.01-1.455 0-2.326-1.072-2.326-2.508 0-.957.33-1.893.93-2.611.645-.752 1.465-1.123 2.43-1.123 1.599 0 2.46.951 2.46 2.558zm-4.584 1.245c0 .787.389 1.488 1.242 1.488 1.355 0 2.107-1.658 2.107-2.863 0-.803-.404-1.477-1.262-1.477-1.378 0-2.087 1.635-2.087 2.852zM140.872 88.487h1.396c1.092 0 2.354-.018 2.354 1.428 0 1.035-.764 1.59-1.727 1.605v.018c.32.018.523.225.6.555l.566 2.43h-1.242l-.289-1.42c-.135-.637-.102-1.086-.744-1.086h-.449l-.514 2.506h-1.186l1.235-6.036zm.678 2.576h.432c.635 0 1.404-.199 1.404-.996 0-.629-.533-.629-1.016-.629h-.492l-.328 1.625zM148.245 94.522h-1.184l1.252-6.035h.998c1.092 0 2.59.061 2.59 1.566 0 1.459-1.176 2.178-2.496 2.178h-.686l-.474 2.291zm.678-3.242h.424c.65 0 1.32-.346 1.32-1.1 0-.613-.484-.742-.992-.742h-.371l-.381 1.842zM160.233 90.942a4.1 4.1 0 0 1-.99 2.674c-.617.699-1.516 1.01-2.504 1.01-1.455 0-2.326-1.072-2.326-2.508 0-.957.328-1.893.928-2.611.645-.752 1.465-1.123 2.43-1.123 1.599 0 2.462.951 2.462 2.558zm-4.586 1.245c0 .787.389 1.488 1.244 1.488 1.354 0 2.107-1.658 2.107-2.863 0-.803-.406-1.477-1.262-1.477-1.38 0-2.089 1.635-2.089 2.852zM164.056 88.487h1.396c1.092 0 2.354-.018 2.354 1.428 0 1.035-.764 1.59-1.727 1.605v.018c.322.018.525.225.6.555l.568 2.43h-1.244l-.289-1.42c-.135-.637-.1-1.086-.744-1.086h-.447l-.518 2.506h-1.182l1.233-6.036zm.677 2.576h.432c.635 0 1.404-.199 1.404-.996 0-.629-.533-.629-1.016-.629h-.49l-.33 1.625zM173.442 88.487h1.312l1.074 6.035h-1.184l-.203-1.383h-2.514l-.752 1.383h-1.312l3.579-6.035zm-.988 3.7h1.828l-.375-2.627h-.031l-1.422 2.627zM178.86 88.487h4.561l-.193.951h-1.668l-1.074 5.084h-1.234l1.074-5.084h-1.666l.2-.951zM186.265 88.487h1.234l-1.244 6.035h-1.234l1.244-6.035zM195.849 90.942a4.1 4.1 0 0 1-.99 2.674c-.617.699-1.516 1.01-2.504 1.01-1.457 0-2.328-1.072-2.328-2.508 0-.957.328-1.893.932-2.611.643-.752 1.463-1.123 2.428-1.123 1.6 0 2.462.951 2.462 2.558zm-4.588 1.245c0 .787.389 1.488 1.244 1.488 1.355 0 2.107-1.658 2.107-2.863 0-.803-.404-1.477-1.26-1.477-1.378 0-2.091 1.635-2.091 2.852zM199.692 88.487h1.496l1.262 4.582h.018l.963-4.582h1.117l-1.275 6.035h-1.523l-1.234-4.627h-.018l-.938 4.627h-1.137l1.269-6.035z"/></g><path fill="#595757" d="M166.071 70.876c-.543-1.158-1.494-2.395-2.975-3.867l-2.801 1.521c1.205 1.363 2.062 2.689 2.555 3.949l3.221-1.603zM167.794 64.073c-.564-1.172-1.473-2.359-2.84-3.711l-2.793 1.498c1.188 1.379 1.963 2.623 2.365 3.797l3.268-1.584zM131.897 79.526v-.008c-.041.053-.082.1-.123.15.077-.085.123-.142.123-.142zM130.024 65.19l.426-2.014h-5.02l.303-1.418.125-.016c2.006-.256 3.49-.518 4.65-.83l-.932-1.893c-2.447.678-6.613 1.152-10.193 1.152-.494 0-.971-.008-1.416-.027l.426 2.053a48.042 48.042 0 0 0 4.141-.127l.152-.012-.238 1.117h-4.801l-.424 2.014h4.801l-.236 1.109h-4.801l-1.689 7.973h4.803l-.234 1.111h-4.787l-.432 2.033h4.787l-.375 1.764h-5.486l-.518 2.439h12.213l1.814-2.439h-5.041l.373-1.764h5.551l.43-2.033h-5.547l.232-1.111h4.932L129.7 66.3h-4.932l.236-1.109h5.02zm-10.638 3.02h1.998l-.277 1.312h-2l.279-1.312zm-.881 4.154l.285-1.336h1.996l-.281 1.336h-2zm7.033 0h-2.053l.283-1.336h2.051l-.281 1.336zm.881-4.154l-.281 1.312h-2.049l.279-1.312h2.051zM96.06 66.239a30.566 30.566 0 0 0 4.912-3.299l.055-.045h3.545l-.193.209a18.335 18.335 0 0 1-2.656 2.357l-.098.074-.088-.051a22.874 22.874 0 0 0-1.65-.871l-2.334 1.615c.516.299.945.57 1.312.824l.162.113-.211.113a28.5 28.5 0 0 1-5.314 2.137l1.129 2.521c.088.131 2.98-1.191 3.24-1.309.887-.398 4.459-2.398 5.4-3.086a23.779 23.779 0 0 0 4.822-4.668h.016l.006-.029.416-1.959.098-.459h-4.949l.184-.205c.211-.244.416-.486.605-.721l.176-.213-3.344-.273c-1.637 2.066-4.357 4.145-7.322 5.6l2.081 1.625zM107.069 70.437h-3.416l.217-.215c.377-.375.764-.791 1.16-1.242-.244-.025-.787-.07-1.9-.164l-1.428-.082-1.99 1.703c-1.869 1.67-3.312 2.799-5.812 4.02l1.053 2.293a39.114 39.114 0 0 0 5.783-3.727l.055-.045h3.621l-.152.197a16.098 16.098 0 0 1-2.959 2.977l-.096.08-.094-.055a32.372 32.372 0 0 0-2.123-1.148c-.23.182-.824.59-2.369 1.66a15.37 15.37 0 0 1 1.721 1.137l.154.117-.205.107c-2.061 1.057-4.559 1.883-7.428 2.453l1.869 2.398c7.008-1.797 11.885-5.006 15.176-10.004h.008l.006-.021.424-2.002.092-.438h-1.367z"/><g fill="#595757"><path d="M28.562 79.481c-2.01-.051-3.535-.449-4.938-2.279l-.027-.039 1.691-7.984H19.1l-.566 2.672h3.004l-1.217 5.762-.074.041a41.07 41.07 0 0 1-3.725 1.904l.773 2.9a60.053 60.053 0 0 0 4.35-2.76l.131-.09.08.098c1.41 1.689 2.824 2.289 5.602 2.367 1.441.041 3.648.064 6.207.064 3.086 0 6.195-.031 8.166-.088l1.156-2.688c-2.623.115-6.797.156-9.881.156-1.847.002-3.462-.014-4.544-.036zM27.099 63.698c-.635-1.33-1.666-2.727-3.148-4.273l-2.828 1.521c1.299 1.531 2.217 3.018 2.734 4.426l3.242-1.674z"/><path d="M41.157 65.044h-2.924l.434-.244a95.347 95.347 0 0 0 4.891-2.982l.488-2.301H31.093l-.482 2.287h8.66l-.334.236a55.906 55.906 0 0 1-2.459 1.631l-.102.066-.082-.061a26.893 26.893 0 0 0-2.42-1.6l-2.242 1.375c.592.389 1.176.812 1.875 1.348l.322.244h-3.172l.002-.008h-1.141c-.072 0-.137.002-.199.008-.588.047-.926.305-1.025.787l-1.225 5.775-1.439 6.789h3.238l.828-3.906h3.055l-.832 3.93h3.211l.832-3.93h3.195l-.828 3.906h2.563c.473 0 .803-.326.896-.77l.322-1.531.902-4.246 1.439-6.805h-3.294zm-7.953 7.307h-3.055l.328-1.539h3.053l-.326 1.539zm.764-3.604h-3.055l.316-1.488h3.055l-.316 1.488zm3.529-1.488h3.191l-.314 1.488h-3.197l.32-1.488zm-1.082 5.092l.326-1.539h3.195l-.326 1.539h-3.195z"/></g><path fill="#595757" d="M169.767 74.386l3.107-14.66h-2.14c-.846.068-1.348.43-1.553 1.072l-1.961 9.266-.916 4.322h-7.537l1.201 2.672h5.77l-.039.189-1.094 5.174h3.463l1.133-5.363h3.689l.568-2.672h-3.691zM198.817 77.61l-.145-.092.16-.123c2.131-1.68 3.908-3.738 5.318-6.125l.498-2.359.086-.418h-1.828l-.012-.002-.641.002h-2.422l.641-3.008h5.816l.6-2.822h-5.82l.775-3.656h-2.128c-.859.07-1.369.443-1.562 1.109-.146.68-.271 1.273-.395 1.84-.055.234-.107.473-.158.707h-5.754l-.602 2.822h5.75l-.641 3.008h-5.123l-.596 2.812c.398 2.375 1.303 4.42 2.715 6.09l.102.123-.178.092c-1.92.934-4.037 1.633-6.303 2.076l.072.115 1.5 2.525.064.104a28.47 28.47 0 0 0 6.748-2.705l.014-.051.121-.062.102-.055.074.055c1.611 1.215 3.553 2.164 5.771 2.818l2.801-2.744c-2.074-.443-3.896-1.142-5.42-2.076zm-2.183-1.949l-.123.094-.088-.094a9.232 9.232 0 0 1-1.984-3.391c-.08-.27-.162-.537-.217-.82l-.041-.18H200.599l-.119.18c-1.01 1.615-2.27 2.99-3.846 4.211z"/><path fill="#595757" d="M186.778 71.104l.373-1.762.678-3.201h2.363l.59-2.799h-2.36l.916-4.312h-2.277c-.643.094-1.184.369-1.283.842l-.734 3.471h-3.4l-.59 2.799h3.397l-.676 3.201-.375 1.762h-3.957l-.596 2.795h3.961l-.109.52-.91 4.291c-.07.346-.246.752-.926.818a12.5 12.5 0 0 1-.699.016c-.508 0-1.018-.018-1.434-.049.002.279.014 1.023.045 2.963.334.016.707.02 1.084.02.906 0 1.723-.035 2.188-.096 1.738-.252 2.58-1.117 2.998-3.092l1.143-5.391h2.92l.592-2.795h-2.922zM137.358 63.61h-.348l.037-.141c.416-1.709.596-2.545.99-4.41h-1.822c-.828.064-1.324.414-1.535 1.025l-.369 1.729c-.088.389-.182.793-.291 1.25-.033.131-.068.27-.102.412l-.035.135h-2.32l-.572 2.693h2.252l-.039.143c-.953 3.51-2.021 7.145-4.172 10.5-.256.398-2.578 3.926-3.219 4.668h3.754c2.396-2.729 4.443-7.467 5.918-12.221a67.44 67.44 0 0 0 .85-2.957l.031-.133h1.902l-.035.139c-2.24 9.578-3.029 11.799-3.52 12.191-.188.174-.451.197-.688.197-.117.008-.285.01-.475.01l-.885-.002-.584 2.754c.676.016 1.969.029 2.418.01.996-.025 1.719-.219 2.281-.602 1.314-.936 2.906-7.195 5.371-17.391h-4.793zM90.815 68.552l-.01-.051H93.8l.559-2.645h-3.062l.738-3.488.115-.025c1.314-.324 2.486-.682 3.408-1.043l-1.225-2.275c-2.227.941-6.125 1.793-9.236 2.025l.576 2.42a41.025 41.025 0 0 0 2.674-.344l.186-.029-.588 2.76h-3.764l-.561 2.645h3.656l-.107.18c-1.73 2.352-5.193 6.281-7.145 8.541h3.391l2.682-3.137.141-.17-1.812 8.562h1.996c.865-.068 1.373-.439 1.568-1.107.266-1.256.475-2.223.703-3.232l.16-.742.312-1.48.424-1.992 1.418 3.299h3.389c-.979-2.239-2.833-6.278-3.581-8.672zM155.673 68.552l-.008-.051h2.994l.561-2.645h-3.062l.738-3.488.115-.025c1.312-.324 2.486-.682 3.41-1.043l-1.229-2.275c-2.227.941-6.123 1.793-9.234 2.025l.576 2.42c.787-.072 1.66-.184 2.67-.344l.188-.029-.586 2.76h-3.764l-.561 2.645h3.658l-.109.18c-1.734 2.352-5.193 6.281-7.145 8.541h3.389l2.682-3.137.145-.17-1.816 8.562H151.283c.863-.068 1.371-.439 1.568-1.107.264-1.256.477-2.223.703-3.232l.158-.742.316-1.48.42-1.992 1.418 3.299h3.393c-.981-2.239-2.834-6.278-3.586-8.672zM59.554 60.071h-2.108c-.861.068-1.371.441-1.564 1.109-.143.682-.273 1.273-.395 1.84l-.766 3.617-.627 2.965-.184.805c-.025.104-.047.205-.07.309l-2.486 11.742h3.403l1.516-7.158h5.266l-1.406 6.646h3.293l1.408-6.646h5.525l-.732 3.459c-.115.541-.373.762-.953.818-.191.025-.49.029-.709.029-.291 0-.613-.008-.932-.021l-.6 2.846a.061.061 0 0 0 0 .027c.457.02.945.027 1.404.027.924 0 1.674-.037 2.107-.104 1.725-.248 2.559-1.107 2.973-3.064l4.074-19.246H59.554zm2.578 12.432h-5.264l.441-2.096.299-1.398h5.266l-.742 3.494zm1.326-6.268H58.194l.717-3.391h5.266l-.719 3.391zm7.496 6.268h-5.529l.738-3.494h5.529l-.738 3.494zm1.326-6.268h-5.527l.719-3.391h5.527l-.719 3.391z"/><g><path fill="#3B90C8" d="M149.853 35.894c-2.018 9.488-8.666 14.287-19.791 14.287-11.123 0-15.666-4.799-13.648-14.287 2.041-9.592 8.609-14.338 19.732-14.338s15.746 4.746 13.707 14.338zm-24.057 0c-1.07 5.371.787 8.084 5.514 8.084 4.729 0 7.689-2.816 8.922-8.291 1.143-5.371-.656-8.029-5.381-8.029-4.87-.001-7.891 2.763-9.055 8.236zM205.024 21.972l-5.861 27.584h-9.248l5.152-24.246c.479-2.24 2.168-3.338 5.16-3.338h4.797zM206.696 14.1l-1.15 5.422h-9.248l.432-2.035c.408-2.239 2.111-3.387 5.17-3.387h4.796zM177.022 21.556c-4.586 0-8.363 1.408-11.336 4.275l2.496-11.731h-4.66c-3.059 0-4.844 1.201-5.33 3.495l-1.754 8.237-2.094 9.848-.006.043-.402 1.895c-.91 4.279-.031 7.438 2.598 9.494 2.463 1.926 6.459 2.887 12.018 2.863 11.434-.158 18.119-4.799 20.072-13.977 1.992-9.386-1.855-14.181-11.602-14.442zm-7.498 22.523c-5.273 0-7.176-2.803-5.939-8.357l.008-.043c1.408-5.314 4.537-7.916 9.539-7.916 5.004 0 7.023 2.604 6.102 7.924-1.186 5.578-4.426 8.392-9.71 8.392zM107.419 14.1h-5.285L87.147 41.108 83.364 14.1h-9.385c-2.713 0-5.244 1.773-5.676 3.807l-6.729 31.649h9.107l6.086-28.625.02.172 3.559 28.453h9.873l15.748-28.625-6.145 28.625h4.299c2.713 0 5.246-1.773 5.676-3.807l6.729-31.649h-9.107zM41.964 18.827c4.59 0 7.559 1.408 8.824 4.278.859 1.197 2.115 1.824 3.854 1.824h5.979c.508-4.014-.855-7.09-4.006-9.28-3.518-2.086-8.094-3.127-13.586-3.127-10.172 0-22.375 3.9-21.168 16.257.398 4.096 3.346 8.113 5.873 9.314-1.383-2.193-1.176-5.111-.617-7.637 1.722-7.769 6.714-11.629 14.847-11.629z"/><path fill="#F5A200" d="M53.771 32.354H39.954l-.551 2.225a2.364 2.364 0 0 0 .449 2.082c.756.967 2.258 1.541 4.018 1.541h3.943s.014.002.035.002c-3.842 2.785-8.42 4.471-13.035 4.471-10.268 0-16.824-8.322-14.641-18.592l.043-.182c.01-.047.014-.09.023-.137 0 0-2.215 3.725-2.781 5.578a16.071 16.071 0 0 0-.443 1.816c-1.887 10.438 5.125 18.633 18.68 18.633 4.951 0 9.68-1.527 14.682-5.512l-.457 1.842c-.305 1.244-.15 2.344.443 3.102.484.617 1.232.957 2.107.957.219 0 .445-.02.674-.061l2.592-.457 4.273-17.309h-6.237z"/></g></svg>