<svg xmlns="http://www.w3.org/2000/svg" width="111.106" height="36.883" viewBox="0 0 111.106 36.883"><path fill="none" d="M-27.531-27.492h166.185v91.787H-27.531z"/><g fill="#A5CF4C"><path d="M101.868 31.174c-5.882.041-11.448.087-13-.053-3.141-.271-5.238-2.326-5.482-5.35-.166-1.983-.166-3.627-.011-5.191.286-2.943 2.749-5.749 5.493-5.881.981-.054 3.612-.047 8.375-.028l13.863.028v-5.75s-11.042-.013-14.36-.027c-4.458-.021-6.7-.023-8.12.027-3.124.118-5.743 1.231-7.778 3.299-1.927 1.951-3.076 5.057-3.248 8.201-.096 1.695-.129 3.912 0 5.229.32 3.38 1.414 6.032 3.248 7.892 1.96 1.996 4.946 3.26 7.781 3.3 2.328.028 22.478 0 22.478 0v-5.749c-.001 0-6.122.025-9.239.053zM39.289 9.254V15h13.676v21.768h5.775V15h13.678V9.254zM33.293 20.119c-.043-3.093-1.132-5.748-3.249-7.894-2.206-2.245-5.575-3.178-7.778-3.295-1.917-.108-9.467-.074-11.242 0-2.498.105-4.318.851-5.229 1.531l-.019-.011V0H0v36.87h5.767s-.112-15.093.016-16.735c.229-2.922 2.446-5.215 5.271-5.464 2.267-.194 9.067-.141 11.2.005 2.93.201 5.093 2.491 5.263 5.574.056 1.135-.003 16.62-.003 16.62h5.78c-.001 0 .014-15.424-.001-16.751z"/></g></svg>