<?xml version="1.0" encoding="utf-8"?>
<!-- Generator: Adobe Illustrator 16.0.0, SVG Export Plug-In . SVG Version: 6.00 Build 0)  -->
<!DOCTYPE svg PUBLIC "-//W3C//DTD SVG 1.1//EN" "http://www.w3.org/Graphics/SVG/1.1/DTD/svg11.dtd">
<svg version="1.1" id="Layer_1" xmlns="http://www.w3.org/2000/svg" xmlns:xlink="http://www.w3.org/1999/xlink" x="0px" y="0px"
	 width="111.106px" height="36.883px" viewBox="0 0 111.106 36.883" enable-background="new 0 0 111.106 36.883"
	 xml:space="preserve">
<g>
	<rect x="-27.531" y="-27.492" fill="none" width="166.185" height="91.787"/>
	<g>
		<g>
			<g>
				<path fill="#A5CF4C" d="M101.868,31.174c-5.882,0.041-11.448,0.087-13-0.053c-3.141-0.271-5.238-2.326-5.482-5.35
					c-0.166-1.983-0.166-3.627-0.011-5.191c0.286-2.943,2.749-5.749,5.493-5.881c0.981-0.054,3.612-0.047,8.375-0.028l13.863,0.028
					v-5.75c0,0-11.042-0.013-14.36-0.027c-4.458-0.021-6.7-0.023-8.12,0.027c-3.124,0.118-5.743,1.231-7.778,3.299
					c-1.927,1.951-3.076,5.057-3.248,8.201c-0.096,1.695-0.129,3.912,0,5.229c0.32,3.38,1.414,6.032,3.248,7.892
					c1.96,1.996,4.946,3.26,7.781,3.3c2.328,0.028,22.478,0,22.478,0v-5.749C111.106,31.121,104.985,31.146,101.868,31.174z"/>
				<polygon fill="#A5CF4C" points="39.289,9.254 39.289,15 52.965,15 52.965,36.768 58.74,36.768 58.74,15 72.418,15 72.418,9.254 
									"/>
				<path fill="#A5CF4C" d="M33.293,20.119c-0.043-3.093-1.132-5.748-3.249-7.894c-2.206-2.245-5.575-3.178-7.778-3.295
					c-1.917-0.108-9.467-0.074-11.242,0c-2.498,0.105-4.318,0.851-5.229,1.531c-0.012-0.007-0.007-0.004-0.019-0.011V0H0v36.87
					h5.767c0,0-0.112-15.093,0.016-16.735c0.229-2.922,2.446-5.215,5.271-5.464c2.267-0.194,9.067-0.141,11.2,0.005
					c2.93,0.201,5.093,2.491,5.263,5.574c0.056,1.135-0.003,16.62-0.003,16.62h5.78C33.293,36.87,33.308,21.446,33.293,20.119z"/>
			</g>
		</g>
	</g>
</g>
</svg>
