<?xml version="1.0" encoding="utf-8"?>
<!-- Generator: Adobe Illustrator 16.0.0, SVG Export Plug-In . SVG Version: 6.00 Build 0)  -->
<!DOCTYPE svg PUBLIC "-//W3C//DTD SVG 1.1//EN" "http://www.w3.org/Graphics/SVG/1.1/DTD/svg11.dtd">
<svg version="1.1" id="MY_NEW_LOGO" xmlns="http://www.w3.org/2000/svg" xmlns:xlink="http://www.w3.org/1999/xlink" x="0px"
	 y="0px" width="88.607px" height="37.341px" viewBox="0 0 88.607 37.341" enable-background="new 0 0 88.607 37.341"
	 xml:space="preserve">
<g>
	<path fill="#5C86C5" d="M20.597,27.647h23.501c-0.033,0.491-0.483,1.832-0.695,2.144H20.597V27.647z"/>
	<path fill="#5C86C5" d="M20.597,7.338h22.844c0.196,0.353,0.641,1.688,0.696,2.144H20.597V7.338z"/>
	<path fill="#5C86C5" d="M24.834,19.523h16.302c0.531,0.372,1.516,1.595,1.909,2.144H24.834V19.523z"/>
	<path fill="#5C86C5" d="M37.546,25.729h6.795c0.018-0.561-0.203-1.714-0.371-2.144h-6.424V25.729z"/>
	<path fill="#5C86C5" d="M24.834,17.605h16.327c0.531-0.373,1.507-1.595,1.9-2.144H24.834V17.605z"/>
	<path fill="#5C86C5" d="M37.546,11.4h6.77c-0.002,0.497-0.187,1.713-0.354,2.144h-6.416V11.4z"/>
	<path fill="#5C86C5" d="M20.597,31.709h21.249c-1.883,1.596-3.546,2.144-6.463,2.144h-2.104H20.597V31.709z"/>
	<path fill="#5C86C5" d="M20.597,5.42h21.249c-1.883-1.596-3.546-2.144-6.463-2.144H33.28H20.597V5.42z"/>
	<rect x="3.648" y="3.276" fill="#5C86C5" width="14.83" height="2.144"/>
	<rect x="3.648" y="7.338" fill="#5C86C5" width="14.83" height="2.144"/>
	<rect x="3.648" y="27.647" fill="#5C86C5" width="14.83" height="2.144"/>
	<rect x="7.885" y="23.585" fill="#5C86C5" width="6.356" height="2.144"/>
	<rect x="7.885" y="19.523" fill="#5C86C5" width="6.356" height="2.144"/>
	<rect x="7.885" y="15.461" fill="#5C86C5" width="6.356" height="2.144"/>
	<rect x="7.885" y="11.4" fill="#5C86C5" width="6.356" height="2.144"/>
	<rect x="24.834" y="23.585" fill="#5C86C5" width="6.355" height="2.144"/>
	<rect x="24.834" y="11.4" fill="#5C86C5" width="6.355" height="2.144"/>
	<polygon fill="#5C86C5" points="60.029,25.729 65.908,25.729 66.654,23.585 59.283,23.585 	"/>
	<polygon fill="#5C86C5" points="58.615,21.667 67.322,21.667 68.068,19.523 57.869,19.523 	"/>
	<rect x="3.648" y="31.709" fill="#5C86C5" width="14.83" height="2.144"/>
	<polygon fill="#5C86C5" points="62.858,33.853 63.079,33.853 63.826,31.709 62.111,31.709 	"/>
	<rect x="50.257" y="23.585" fill="#5C86C5" width="6.356" height="2.144"/>
	<rect x="50.257" y="19.523" fill="#5C86C5" width="6.356" height="2.144"/>
	<rect x="46.021" y="31.709" fill="#5C86C5" width="10.592" height="2.144"/>
	<rect x="46.021" y="27.647" fill="#5C86C5" width="10.592" height="2.144"/>
	<polygon fill="#5C86C5" points="61.444,29.791 64.494,29.791 65.24,27.647 60.697,27.647 	"/>
	<rect x="69.325" y="23.585" fill="#5C86C5" width="6.355" height="2.144"/>
	<rect x="69.325" y="19.523" fill="#5C86C5" width="6.355" height="2.144"/>
	<rect x="69.324" y="31.709" fill="#5C86C5" width="10.594" height="2.144"/>
	<rect x="69.325" y="27.647" fill="#5C86C5" width="10.593" height="2.144"/>
	<polygon fill="#5C86C5" points="60.854,11.4 50.257,11.4 50.257,13.544 61.614,13.544 	"/>
	<polygon fill="#5C86C5" points="63.645,15.461 62.969,17.386 62.294,15.461 50.258,15.461 50.258,17.605 56.613,17.605 
		56.613,15.917 57.201,17.605 68.736,17.605 69.324,15.917 69.324,15.929 69.325,15.928 69.325,17.605 75.681,17.605 75.681,15.461 
			"/>
	<polygon fill="#5C86C5" points="57.978,3.276 46.021,3.276 46.021,5.42 58.737,5.42 	"/>
	<polygon fill="#5C86C5" points="59.416,7.338 46.021,7.338 46.021,9.482 60.176,9.482 	"/>
	<polygon fill="#5C86C5" points="65.083,11.4 75.681,11.4 75.681,13.544 64.323,13.544 	"/>
	<polygon fill="#5C86C5" points="67.96,3.276 79.918,3.276 79.918,5.42 67.201,5.42 	"/>
	<polygon fill="#5C86C5" points="66.521,7.338 79.918,7.338 79.918,9.482 65.762,9.482 	"/>
</g>
<path fill="#5C86C5" d="M81.579,31.969c0-1.123,0.912-2.039,2.039-2.039c1.123,0,2.029,0.916,2.029,2.039
	c0,1.132-0.906,2.047-2.029,2.047C82.491,34.016,81.579,33.101,81.579,31.969z M85.325,31.969c0-0.994-0.721-1.771-1.707-1.771
	c-0.994,0-1.719,0.776-1.719,1.771c0,1.002,0.725,1.778,1.719,1.778C84.604,33.748,85.325,32.971,85.325,31.969z M84.632,33.111
	H84.3l-0.652-1.05h-0.506v1.05H82.86v-2.279h0.992c0.602,0,0.807,0.226,0.807,0.604c0,0.445-0.311,0.613-0.715,0.625L84.632,33.111z
	 M83.563,31.838c0.322,0,0.795,0.054,0.795-0.41c0-0.355-0.289-0.398-0.568-0.398h-0.648v0.809H83.563z"/>
</svg>
