<svg xmlns="http://www.w3.org/2000/svg" width="88.607" height="37.341" viewBox="0 0 88.607 37.341"><g fill="#5C86C5"><path d="M20.597 27.647h23.501c-.033.491-.483 1.832-.695 2.144H20.597v-2.144zM20.597 7.338h22.844c.196.353.641 1.688.696 2.144h-23.54V7.338zM24.834 19.523h16.302c.531.372 1.516 1.595 1.909 2.144H24.834v-2.144zM37.546 25.729h6.795c.018-.561-.203-1.714-.371-2.144h-6.424v2.144zM24.834 17.605h16.327c.531-.373 1.507-1.595 1.9-2.144H24.834v2.144zM37.546 11.4h6.77c-.002.497-.187 1.713-.354 2.144h-6.416V11.4zM20.597 31.709h21.249c-1.883 1.596-3.546 2.144-6.463 2.144H20.597v-2.144zM20.597 5.42h21.249c-1.883-1.596-3.546-2.144-6.463-2.144H20.597V5.42zM3.648 3.276h14.83V5.42H3.648zM3.648 7.338h14.83v2.144H3.648zM3.648 27.647h14.83v2.144H3.648zM7.885 23.585h6.356v2.144H7.885zM7.885 19.523h6.356v2.144H7.885zM7.885 15.461h6.356v2.144H7.885zM7.885 11.4h6.356v2.144H7.885zM24.834 23.585h6.355v2.144h-6.355zM24.834 11.4h6.355v2.144h-6.355zM60.029 25.729h5.879l.746-2.144h-7.371zM58.615 21.667h8.707l.746-2.144H57.869zM3.648 31.709h14.83v2.144H3.648zM62.858 33.853h.221l.747-2.144h-1.715zM50.257 23.585h6.356v2.144h-6.356zM50.257 19.523h6.356v2.144h-6.356zM46.021 31.709h10.592v2.144H46.021zM46.021 27.647h10.592v2.144H46.021zM61.444 29.791h3.05l.746-2.144h-4.543zM69.325 23.585h6.355v2.144h-6.355zM69.325 19.523h6.355v2.144h-6.355zM69.324 31.709h10.594v2.144H69.324zM69.325 27.647h10.593v2.144H69.325zM60.854 11.4H50.257v2.144h11.357zM63.645 15.461l-.676 1.925-.675-1.925H50.258v2.144h6.355v-1.688l.588 1.688h11.535l.588-1.688v.012l.001-.001v1.677h6.356v-2.144zM57.978 3.276H46.021V5.42h12.716zM59.416 7.338H46.021v2.144h14.155zM65.083 11.4h10.598v2.144H64.323zM67.96 3.276h11.958V5.42H67.201zM66.521 7.338h13.397v2.144H65.762z"/></g><path fill="#5C86C5" d="M81.579 31.969a2.04 2.04 0 0 1 2.039-2.039c1.123 0 2.029.916 2.029 2.039a2.036 2.036 0 0 1-2.029 2.047 2.042 2.042 0 0 1-2.039-2.047zm3.746 0c0-.994-.721-1.771-1.707-1.771-.994 0-1.719.776-1.719 1.771 0 1.002.725 1.778 1.719 1.778.986.001 1.707-.776 1.707-1.778zm-.693 1.142H84.3l-.652-1.05h-.506v1.05h-.282v-2.279h.992c.602 0 .807.226.807.604 0 .445-.311.613-.715.625l.688 1.05zm-1.069-1.273c.322 0 .795.054.795-.41 0-.355-.289-.398-.568-.398h-.648v.809h.421z"/></svg>