<?xml version="1.0" encoding="utf-8"?>
<!-- Generator: Adobe Illustrator 16.0.0, SVG Export Plug-In . SVG Version: 6.00 Build 0)  -->
<!DOCTYPE svg PUBLIC "-//W3C//DTD SVG 1.1//EN" "http://www.w3.org/Graphics/SVG/1.1/DTD/svg11.dtd">
<svg version="1.1" id="圖層_1" xmlns="http://www.w3.org/2000/svg" xmlns:xlink="http://www.w3.org/1999/xlink" x="0px" y="0px"
	 width="547.127px" height="288.679px" viewBox="0 0 547.127 288.679" enable-background="new 0 0 547.127 288.679"
	 xml:space="preserve">
<g>
	<g>
		<path fill="#00B9EF" d="M39.106,239.06l1.551,0.812c-0.512,0.993-1.099,1.791-1.761,2.408c-0.677,0.602-1.415,1.054-2.243,1.385
			c-0.843,0.316-1.776,0.467-2.83,0.467c-2.333,0-4.169-0.753-5.464-2.273c-1.34-1.55-1.987-3.266-1.987-5.192
			c0-1.821,0.557-3.433,1.671-4.862c1.4-1.791,3.296-2.709,5.674-2.709c2.424,0,4.365,0.934,5.825,2.785
			c1.024,1.309,1.551,2.949,1.581,4.906H28.27c0.03,1.656,0.571,3.025,1.58,4.079c1.039,1.069,2.288,1.596,3.809,1.596
			c0.737,0,1.444-0.12,2.122-0.376c0.692-0.256,1.279-0.588,1.776-1.009C38.023,240.655,38.55,239.992,39.106,239.06z
			 M39.106,235.19c-0.256-0.979-0.617-1.761-1.068-2.363c-0.467-0.586-1.099-1.053-1.866-1.414
			c-0.783-0.361-1.581-0.543-2.424-0.543c-1.415,0-2.619,0.452-3.627,1.355c-0.722,0.662-1.28,1.656-1.671,2.965H39.106z"/>
		<path fill="#00B9EF" d="M50.125,229.485h1.852v2.56c0.723-0.993,1.55-1.716,2.438-2.213c0.888-0.481,1.866-0.737,2.92-0.737
			s2.002,0.271,2.83,0.828c0.828,0.541,1.445,1.264,1.851,2.182c0.376,0.934,0.587,2.363,0.587,4.306v7.345h-1.852v-6.818
			c0-1.641-0.075-2.754-0.196-3.297c-0.196-0.947-0.602-1.67-1.219-2.137c-0.602-0.481-1.385-0.723-2.363-0.723
			c-1.114,0-2.107,0.377-2.995,1.1c-0.873,0.752-1.46,1.655-1.746,2.738c-0.166,0.708-0.256,2.018-0.256,3.898v5.238h-1.852V229.485
			z"/>
		<path fill="#00B9EF" d="M73.832,224.188h1.866v5.298h2.875v1.596h-2.875v12.674h-1.866v-12.674h-2.514v-1.596h2.514V224.188z"/>
		<path fill="#00B9EF" d="M99.015,239.06l1.565,0.812c-0.512,0.993-1.099,1.791-1.776,2.408c-0.662,0.602-1.4,1.054-2.243,1.385
			c-0.843,0.316-1.776,0.467-2.829,0.467c-2.333,0-4.155-0.753-5.479-2.273c-1.294-1.55-1.957-3.266-1.957-5.192
			c0-1.821,0.542-3.433,1.656-4.862c1.415-1.791,3.312-2.709,5.675-2.709c2.438,0,4.365,0.934,5.825,2.785
			c1.038,1.309,1.565,2.949,1.58,4.906H88.177c0.03,1.656,0.572,3.025,1.596,4.079c1.023,1.069,2.303,1.596,3.793,1.596
			c0.737,0,1.445-0.12,2.138-0.376c0.677-0.256,1.279-0.588,1.746-1.009C97.946,240.655,98.458,239.992,99.015,239.06z
			 M99.015,235.19c-0.241-0.979-0.603-1.761-1.069-2.363c-0.467-0.586-1.084-1.053-1.867-1.414
			c-0.768-0.361-1.565-0.543-2.438-0.543c-1.399,0-2.589,0.452-3.612,1.355c-0.737,0.662-1.295,1.656-1.671,2.965H99.015z"/>
		<path fill="#00B9EF" d="M109.4,229.485h1.852v2.078c0.572-0.812,1.159-1.43,1.791-1.836c0.617-0.422,1.265-0.633,1.942-0.633
			c0.527,0,1.069,0.166,1.641,0.496l-0.948,1.566c-0.391-0.166-0.723-0.256-0.994-0.256c-0.602,0-1.204,0.256-1.776,0.768
			c-0.572,0.496-1.023,1.279-1.31,2.332c-0.226,0.813-0.346,2.469-0.346,4.923v4.831H109.4V229.485z"/>
		<path fill="#00B9EF" d="M125.446,224.188h1.851v5.298h2.89v1.596h-2.89v12.674h-1.851v-12.674h-2.529v-1.596h2.529V224.188z"/>
		<path fill="#00B9EF" d="M152.766,229.485v14.27h-1.852v-2.438c-0.782,0.918-1.641,1.625-2.589,2.107
			c-0.963,0.467-2.002,0.707-3.146,0.707c-2.002,0-3.733-0.723-5.148-2.197c-1.43-1.461-2.137-3.252-2.137-5.359
			c0-2.062,0.723-3.808,2.153-5.283c1.445-1.46,3.176-2.197,5.192-2.197c1.174,0,2.228,0.256,3.176,0.768
			c0.949,0.496,1.776,1.25,2.499,2.242v-2.619H152.766z M145.39,230.87c-1.023,0-1.942,0.256-2.8,0.754
			c-0.873,0.496-1.55,1.203-2.047,2.121c-0.512,0.904-0.768,1.867-0.768,2.906c0,0.992,0.256,1.971,0.768,2.89
			c0.512,0.933,1.205,1.641,2.062,2.138c0.858,0.526,1.791,0.782,2.77,0.782c0.993,0,1.942-0.256,2.83-0.768
			c0.903-0.512,1.595-1.188,2.062-2.077c0.497-0.857,0.722-1.836,0.722-2.92c0-1.656-0.542-3.041-1.61-4.154
			C148.295,231.428,146.971,230.87,145.39,230.87z"/>
		<path fill="#00B9EF" d="M163.227,223.601c0.437,0,0.813,0.15,1.114,0.451c0.301,0.286,0.452,0.647,0.452,1.068
			c0,0.407-0.151,0.754-0.452,1.055s-0.677,0.451-1.114,0.451c-0.421,0-0.783-0.15-1.083-0.451
			c-0.302-0.301-0.452-0.647-0.452-1.055c0-0.421,0.15-0.782,0.452-1.068C162.444,223.751,162.806,223.601,163.227,223.601z
			 M162.309,229.485h1.867v14.27h-1.867V229.485z"/>
		<path fill="#00B9EF" d="M173.568,229.485h1.836v2.56c0.737-0.993,1.55-1.716,2.453-2.213c0.889-0.481,1.852-0.737,2.905-0.737
			c1.084,0,2.017,0.271,2.845,0.828c0.828,0.541,1.445,1.264,1.836,2.182c0.391,0.934,0.587,2.363,0.587,4.306v7.345h-1.837v-6.818
			c0-1.641-0.075-2.754-0.21-3.297c-0.196-0.947-0.602-1.67-1.204-2.137c-0.602-0.481-1.4-0.723-2.378-0.723
			c-1.114,0-2.107,0.377-2.98,1.1c-0.888,0.752-1.475,1.655-1.761,2.738c-0.166,0.708-0.256,2.018-0.256,3.898v5.238h-1.836V229.485
			z"/>
		<path fill="#00B9EF" d="M195.589,229.485h1.852v2.469c0.647-0.918,1.295-1.58,1.987-2.002c0.918-0.572,1.896-0.857,2.92-0.857
			c0.692,0,1.354,0.135,1.972,0.406c0.617,0.286,1.129,0.647,1.521,1.084c0.391,0.451,0.752,1.099,1.038,1.941
			c0.603-1.113,1.37-1.972,2.273-2.543c0.918-0.604,1.896-0.889,2.95-0.889c0.993,0,1.852,0.256,2.604,0.752
			c0.753,0.497,1.31,1.205,1.686,2.093c0.361,0.888,0.542,2.228,0.542,4.019v7.797h-1.851v-7.781c0-1.535-0.105-2.59-0.316-3.161
			c-0.226-0.571-0.602-1.023-1.129-1.385c-0.527-0.347-1.159-0.526-1.896-0.526c-0.873,0-1.686,0.271-2.424,0.797
			c-0.737,0.527-1.279,1.22-1.61,2.093c-0.346,0.888-0.512,2.333-0.512,4.38v5.584h-1.852v-7.285c0-1.73-0.105-2.904-0.331-3.521
			c-0.211-0.617-0.572-1.114-1.114-1.49c-0.542-0.361-1.174-0.557-1.912-0.557c-0.843,0-1.626,0.256-2.363,0.768
			c-0.752,0.526-1.294,1.203-1.656,2.076c-0.346,0.858-0.527,2.184-0.527,3.975v6.035h-1.852V229.485z"/>
		<path fill="#00B9EF" d="M238.563,239.06l1.55,0.812c-0.526,0.993-1.099,1.791-1.776,2.408c-0.662,0.602-1.415,1.054-2.242,1.385
			c-0.828,0.316-1.776,0.467-2.83,0.467c-2.333,0-4.154-0.753-5.464-2.273c-1.31-1.55-1.972-3.266-1.972-5.192
			c0-1.821,0.557-3.433,1.671-4.862c1.399-1.791,3.296-2.709,5.659-2.709c2.424,0,4.38,0.934,5.84,2.785
			c1.024,1.309,1.55,2.949,1.581,4.906h-12.854c0.03,1.656,0.557,3.025,1.58,4.079c1.024,1.069,2.303,1.596,3.809,1.596
			c0.723,0,1.43-0.12,2.122-0.376c0.678-0.256,1.279-0.588,1.761-1.009S238.006,239.992,238.563,239.06z M238.548,235.19
			c-0.241-0.979-0.587-1.761-1.068-2.363c-0.467-0.586-1.084-1.053-1.852-1.414c-0.783-0.361-1.596-0.543-2.438-0.543
			c-1.4,0-2.619,0.452-3.612,1.355c-0.738,0.662-1.295,1.656-1.671,2.965H238.548z"/>
		<path fill="#00B9EF" d="M249.581,229.485h1.837v2.56c0.737-0.993,1.55-1.716,2.453-2.213c0.888-0.481,1.852-0.737,2.905-0.737
			c1.083,0,2.017,0.271,2.845,0.828c0.828,0.541,1.445,1.264,1.836,2.182c0.391,0.934,0.587,2.363,0.587,4.306v7.345h-1.836v-6.818
			c0-1.641-0.075-2.754-0.195-3.297c-0.211-0.947-0.617-1.67-1.22-2.137c-0.602-0.481-1.399-0.723-2.363-0.723
			c-1.129,0-2.122,0.377-2.995,1.1c-0.888,0.752-1.475,1.655-1.746,2.738c-0.181,0.708-0.271,2.018-0.271,3.898v5.238h-1.837
			V229.485z"/>
		<path fill="#00B9EF" d="M273.288,224.188h1.852v5.298h2.905v1.596h-2.905v12.674h-1.852v-12.674h-2.514v-1.596h2.514V224.188z"/>
	</g>
	<path fill="#00B9EF" d="M521.148,117.362c-25.919-39.542-95.235-39.933-154.841-0.888
		c-59.622,39.045-86.953,102.746-61.053,142.289c25.905,39.542,95.235,39.934,154.842,0.888
		C519.704,220.604,547.038,156.89,521.148,117.362z"/>
	<path fill="#00B9EF" d="M458.125,13.593c-11.755-17.972-43.26-18.138-70.354-0.406c-27.079,17.746-39.512,46.691-27.741,64.664
		c11.771,17.972,43.275,18.138,70.354,0.406C457.478,60.51,469.896,31.565,458.125,13.593z"/>
	<path fill="#00B9EF" d="M44.781,209.361c0,4.26-3.958,7.722-8.82,7.722l0,0c-4.877,0-8.836-3.462-8.836-7.722v-30.376
		c0-4.289,3.959-7.752,8.836-7.752l0,0c4.862,0,8.82,3.463,8.82,7.752V209.361z"/>
	<g>
		<path fill="#00B9EF" d="M205.388,152.645v64.634l-17.626-8.037c-3.447,2.859-6.938,4.937-10.416,6.217
			c-3.477,1.264-7.255,1.881-11.334,1.881c-9.122,0-17.009-3.086-23.677-9.271c-6.683-6.157-10.009-13.849-10.009-23.03
			c0-9.528,3.236-17.341,9.678-23.421c6.458-6.097,14.285-9.137,23.497-9.137c4.245,0,8.218,0.691,11.937,2.076
			c3.732,1.385,7.18,3.478,10.325,6.247L205.388,152.645z M169.127,166.718c-5.509,0-10.07,1.687-13.712,5.073
			s-5.464,7.722-5.464,13.005c0,5.344,1.851,9.709,5.554,13.141c3.703,3.447,8.264,5.163,13.698,5.163
			c5.584,0,10.22-1.687,13.908-5.058c3.673-3.387,5.524-7.827,5.524-13.291c0-5.373-1.851-9.724-5.524-13.035
			C179.423,168.39,174.757,166.718,169.127,166.718z"/>
	</g>
	<g>
		<path fill="#00B9EF" d="M216,152.645l17.596,8.294v2.047c4.034-2.95,7.677-5.012,10.928-6.172
			c3.267-1.158,6.593-1.746,9.995-1.746c7.014,0,12.96,2.139,17.837,6.413c4.094,3.657,6.156,9.017,6.156,16.136v39.662
			l-17.611-7.691v-0.316c0-7.36-0.376-30.104-1.144-32.527c-0.753-2.424-2.062-4.26-3.929-5.523
			c-1.882-1.25-4.185-1.897-6.939-1.897c-3.567,0-15.293,1.807-15.293,8.219v32.046L216,217.278V152.645z"/>
	</g>
	<g>
		<path fill="#C4D700" d="M124.769,166.854l-14.721,7.135c-2.77-2.574-5.509-4.351-8.204-5.344c-2.694-0.994-5.871-1.49-9.498-1.49
			c-6.608,0-11.952,1.73-16.045,5.178c-4.079,3.447-6.111,7.872-6.111,13.261c0,5.238,1.957,9.498,5.886,12.81
			c3.928,3.326,9.076,4.982,15.458,4.982c7.888,0,14.044-2.379,18.454-7.12l13.908,8.399c-7.541,8.654-18.183,12.96-31.94,12.96
			c-12.358,0-22.052-3.206-29.051-9.618c-7.015-6.443-10.507-13.953-10.507-22.578c0-5.991,1.687-11.485,5.103-16.513
			s8.173-8.972,14.285-11.86c6.096-2.846,12.93-4.291,20.471-4.291c6.999,0,13.291,1.205,18.846,3.658
			C116.655,158.876,121.216,162.368,124.769,166.854z"/>
		<path fill="#C4D700" d="M125.461,169.759c0-3.732-3.854-6.773-8.609-6.773c-4.757,0-8.625,3.041-8.625,6.773
			s3.868,6.759,8.625,6.759C121.607,176.518,125.461,173.491,125.461,169.759z"/>
		<path fill="#C4D700" d="M126.018,199.999c0-3.764-3.914-6.864-8.715-6.864c-4.816,0-8.745,3.101-8.745,6.864
			c0,3.777,3.929,6.849,8.745,6.849C122.104,206.848,126.018,203.776,126.018,199.999z"/>
	</g>
	<path fill="#00B9EF" d="M44.42,156.017c0,4.786-3.883,8.67-8.685,8.67c-4.787,0-8.67-3.884-8.67-8.67
		c0-4.802,3.883-8.686,8.67-8.686C40.537,147.331,44.42,151.215,44.42,156.017z"/>
	<path fill="#C4D700" d="M116.565,145.254c0,1.882-1.746,3.433-3.914,3.433c-2.167,0-3.928-1.551-3.928-3.433
		c0-1.896,1.761-3.447,3.928-3.447C114.819,141.807,116.565,143.357,116.565,145.254z"/>
	<path fill="#C4D700" d="M106.104,145.254c0,1.882-1.761,3.433-3.929,3.433c-2.152,0-3.914-1.551-3.914-3.433
		c0-1.896,1.761-3.447,3.914-3.447C104.343,141.807,106.104,143.357,106.104,145.254z"/>
	<g>
		<path fill="#FFFFFF" d="M449.199,135.365l-16.828,21.57c-6.066-1.807-11.47-2.453-16.257-1.957
			c-4.801,0.512-9.934,2.092-15.383,4.787c-9.92,4.877-16.678,11.424-20.26,19.628c-3.598,8.203-3.387,16.347,0.586,24.444
			c3.884,7.857,9.995,12.84,18.334,14.902c8.354,2.092,17.311,0.768,26.913-3.959c11.861-5.826,19.343-13.938,22.443-24.324
			l27.108,2.332c-4.922,18.561-17.716,32.92-38.383,43.08c-18.574,9.166-35.508,11.484-50.771,7.029
			c-15.277-4.485-26.1-13.186-32.482-26.146c-4.425-9.001-5.93-18.499-4.516-28.584c1.4-10.056,5.63-19.522,12.674-28.358
			c7.061-8.82,16.242-16.031,27.576-21.615c10.506-5.178,20.848-7.978,31.022-8.414C431.151,129.359,440.56,131.21,449.199,135.365z
			"/>
		<path fill="#FFFFFF" d="M452.405,139.188c-2.754-5.614-10.792-7.315-17.941-3.808c-7.15,3.522-10.718,10.958-7.948,16.557
			c2.755,5.6,10.808,7.301,17.957,3.794C451.623,152.208,455.175,144.788,452.405,139.188z"/>
		<path fill="#FFFFFF" d="M475.601,184.224c-2.799-5.674-10.942-7.42-18.168-3.854c-7.24,3.553-10.838,11.079-8.053,16.754
			c2.8,5.659,10.958,7.391,18.168,3.838C474.788,197.395,478.386,189.884,475.601,184.224z"/>
	</g>
</g>
</svg>
