<?xml version="1.0" encoding="utf-8"?>
<!-- Generator: Adobe Illustrator 16.0.0, SVG Export Plug-In . SVG Version: 6.00 Build 0)  -->
<!DOCTYPE svg PUBLIC "-//W3C//DTD SVG 1.1//EN" "http://www.w3.org/Graphics/SVG/1.1/DTD/svg11.dtd">
<svg version="1.1" id="圖層_1" xmlns="http://www.w3.org/2000/svg" xmlns:xlink="http://www.w3.org/1999/xlink" x="0px" y="0px"
	 width="98px" height="45px" viewBox="0 0 98 45" enable-background="new 0 0 98 45" xml:space="preserve">
<polygon fill="#727172" points="6.699,39.179 6.699,34.425 7.444,34.425 9.204,38.414 10.958,34.425 11.703,34.425 11.703,39.179 
	11.202,39.179 11.215,34.952 9.371,39.179 9.031,39.179 7.18,34.952 7.194,39.179 "/>
<path fill="#727172" d="M13.021,37.457c0.006,0.623,0.437,1.375,1.388,1.375c0.61,0,1.059-0.354,1.246-0.842
	c0.076-0.167,0.115-0.359,0.115-0.546c0.007-0.192-0.032-0.385-0.109-0.553c-0.193-0.475-0.654-0.828-1.265-0.828
	c-0.797,0-1.375,0.616-1.375,1.388V37.457z M16.232,39.179h-0.477v-0.713c-0.269,0.521-0.795,0.81-1.412,0.81
	c-1.124,0-1.793-0.874-1.793-1.824c0-1.015,0.74-1.825,1.793-1.825c0.738,0,1.246,0.431,1.412,0.822v-0.726h0.477V39.179z"/>
<path fill="#727172" d="M17.281,35.723h0.449v0.565c0.25-0.514,0.7-0.648,1.105-0.662v0.469h-0.045
	c-0.668,0-1.041,0.418-1.041,1.202v1.882h-0.469V35.723z"/>
<polygon fill="#727172" points="19.488,34.425 19.964,34.425 19.964,37.143 21.519,35.723 22.104,35.723 20.439,37.239 
	22.18,39.179 21.621,39.179 19.964,37.342 19.964,39.179 19.488,39.179 "/>
<path fill="#727172" d="M25.518,37.207c-0.032-0.604-0.617-1.195-1.33-1.177c-0.745,0-1.297,0.547-1.342,1.177H25.518z
	 M22.838,37.586c0.027,0.867,0.765,1.284,1.35,1.278c0.533,0,0.964-0.264,1.188-0.713h0.496c-0.162,0.372-0.405,0.655-0.701,0.841
	c-0.288,0.187-0.629,0.283-0.982,0.283c-1.201,0-1.824-0.957-1.824-1.818c0-1.015,0.783-1.831,1.818-1.831
	c0.488,0,0.938,0.174,1.266,0.488c0.398,0.386,0.59,0.919,0.539,1.472H22.838z"/>
<polygon fill="#727172" points="27.055,36.102 26.373,36.102 26.373,35.723 27.055,35.723 27.055,34.425 27.523,34.425 
	27.523,35.723 28.281,35.723 28.281,36.102 27.523,36.102 27.523,39.179 27.055,39.179 "/>
<path fill="#727172" d="M28.928,35.723h0.477v3.456h-0.477V35.723z M28.928,34.425h0.477v0.662h-0.477V34.425z"/>
<path fill="#727172" d="M30.455,35.723h0.45c0,0.192,0,0.386-0.007,0.616c0.199-0.449,0.668-0.726,1.285-0.713
	c1.072,0.014,1.451,0.746,1.451,1.587v1.966h-0.469V37.31c0-0.746-0.334-1.253-1.111-1.24c-0.713,0.008-1.123,0.438-1.123,1.156
	v1.953h-0.477V35.723z"/>
<path fill="#727172" d="M34.935,37.451c0,0.7,0.495,1.381,1.388,1.381c0.393,0,0.727-0.147,0.971-0.398
	c0.238-0.25,0.379-0.598,0.385-0.977c0-0.289-0.096-0.629-0.314-0.905c-0.213-0.277-0.559-0.482-1.054-0.482
	c-0.758,0-1.375,0.565-1.375,1.375V37.451z M38.134,38.78c0,0.655-0.212,1.073-0.513,1.362c-0.342,0.334-0.842,0.533-1.312,0.533
	c-0.86,0-1.489-0.495-1.709-1.118h0.546c0.084,0.148,0.206,0.315,0.412,0.457c0.25,0.18,0.545,0.25,0.764,0.25
	c0.661,0,1.336-0.514,1.336-1.375v-0.443c-0.244,0.488-0.726,0.829-1.394,0.829c-1.079,0-1.806-0.822-1.806-1.818
	c0-1.034,0.752-1.831,1.806-1.831c0.681,0,1.208,0.386,1.399,0.81v-0.714h0.47V38.78z"/>
<polygon fill="#727172" points="40.748,35.723 41.249,35.723 42.2,38.568 43.029,36.03 43.42,36.03 44.256,38.568 45.2,35.723 
	45.695,35.723 44.5,39.179 44.031,39.179 43.215,36.661 42.412,39.179 41.95,39.179 "/>
<path fill="#727172" d="M46.338,35.723h0.477v3.456h-0.477V35.723z M46.338,34.425h0.477v0.662h-0.477V34.425z"/>
<polygon fill="#727172" points="48.135,36.102 47.453,36.102 47.453,35.723 48.135,35.723 48.135,34.425 48.604,34.425 
	48.604,35.723 49.361,35.723 49.361,36.102 48.604,36.102 48.604,39.179 48.135,39.179 "/>
<path fill="#727172" d="M50.008,34.425h0.477v1.266v0.598c0.212-0.456,0.745-0.676,1.232-0.662c0.547,0,0.906,0.174,1.145,0.476
	c0.236,0.302,0.327,0.719,0.327,1.215v1.862h-0.47v-1.844c0-0.372-0.076-0.688-0.25-0.912c-0.187-0.225-0.457-0.354-0.867-0.354
	c-0.379,0-0.661,0.135-0.842,0.341c-0.187,0.206-0.275,0.488-0.275,0.803v1.966h-0.477V34.425z"/>
<rect x="56.214" y="34.425" fill="#727172" width="0.526" height="4.754"/>
<path fill="#727172" d="M57.812,35.723h0.45c0,0.192,0,0.386-0.008,0.616c0.201-0.449,0.668-0.726,1.285-0.713
	c1.073,0.014,1.453,0.746,1.453,1.587v1.966h-0.47V37.31c0-0.746-0.334-1.253-1.11-1.24c-0.714,0.008-1.125,0.438-1.125,1.156v1.953
	h-0.476V35.723z"/>
<polygon fill="#727172" points="62.305,36.102 61.623,36.102 61.623,35.723 62.305,35.723 62.305,34.425 62.773,34.425 
	62.773,35.723 63.531,35.723 63.531,36.102 62.773,36.102 62.773,39.179 62.305,39.179 "/>
<path fill="#727172" d="M66.876,37.207c-0.032-0.604-0.617-1.195-1.33-1.177c-0.745,0-1.297,0.547-1.342,1.177H66.876z
	 M64.197,37.586c0.025,0.867,0.764,1.284,1.349,1.278c0.533,0,0.964-0.264,1.188-0.713h0.494c-0.16,0.372-0.404,0.655-0.699,0.841
	c-0.289,0.187-0.631,0.283-0.983,0.283c-1.2,0-1.823-0.957-1.823-1.818c0-1.015,0.782-1.831,1.817-1.831
	c0.487,0,0.938,0.174,1.265,0.488c0.399,0.386,0.592,0.919,0.541,1.472H64.197z"/>
<rect x="68.143" y="34.425" fill="#727172" width="0.477" height="4.754"/>
<rect x="69.664" y="34.425" fill="#727172" width="0.477" height="4.754"/>
<path fill="#727172" d="M71.186,35.723h0.476v3.456h-0.476V35.723z M71.186,34.425h0.476v0.662h-0.476V34.425z"/>
<path fill="#727172" d="M72.969,37.451c0,0.7,0.495,1.381,1.389,1.381c0.392,0,0.726-0.147,0.969-0.398
	c0.238-0.25,0.379-0.598,0.386-0.977c0-0.289-0.097-0.629-0.313-0.905c-0.214-0.277-0.56-0.482-1.055-0.482
	c-0.758,0-1.375,0.565-1.375,1.375V37.451z M76.168,38.78c0,0.655-0.213,1.073-0.514,1.362c-0.34,0.334-0.842,0.533-1.311,0.533
	c-0.861,0-1.49-0.495-1.709-1.118h0.546c0.084,0.148,0.206,0.315,0.412,0.457c0.25,0.18,0.545,0.25,0.765,0.25
	c0.66,0,1.336-0.514,1.336-1.375v-0.443c-0.244,0.488-0.727,0.829-1.395,0.829c-1.079,0-1.805-0.822-1.805-1.818
	c0-1.034,0.75-1.831,1.805-1.831c0.682,0,1.208,0.386,1.4,0.81v-0.714h0.469V38.78z"/>
<path fill="#727172" d="M80.102,37.207c-0.031-0.604-0.617-1.195-1.33-1.177c-0.745,0-1.297,0.547-1.342,1.177H80.102z
	 M77.422,37.586c0.027,0.867,0.765,1.284,1.35,1.278c0.533,0,0.964-0.264,1.188-0.713h0.496c-0.162,0.372-0.405,0.655-0.701,0.841
	c-0.288,0.187-0.629,0.283-0.982,0.283c-1.201,0-1.824-0.957-1.824-1.818c0-1.015,0.783-1.831,1.818-1.831
	c0.488,0,0.938,0.174,1.266,0.488c0.398,0.386,0.59,0.919,0.539,1.472H77.422z"/>
<path fill="#727172" d="M81.369,35.723h0.449c0,0.192,0,0.386-0.007,0.616c0.2-0.449,0.668-0.726,1.285-0.713
	c1.073,0.014,1.452,0.746,1.452,1.587v1.966H84.08V37.31c0-0.746-0.334-1.253-1.111-1.24c-0.713,0.008-1.124,0.438-1.124,1.156
	v1.953h-0.476V35.723z"/>
<path fill="#727172" d="M88.957,38.01c-0.225,0.732-0.898,1.266-1.728,1.266c-1.169,0-1.856-0.899-1.856-1.824
	c0-1.022,0.777-1.825,1.824-1.825c0.777,0,1.522,0.463,1.76,1.292H88.47c-0.22-0.585-0.765-0.854-1.253-0.854
	c-0.405,0-0.688,0.121-0.977,0.392c-0.232,0.225-0.392,0.598-0.392,0.996c0,0.815,0.616,1.381,1.362,1.381
	c0.662-0.007,1.104-0.404,1.252-0.822H88.957z"/>
<path fill="#727172" d="M92.654,37.207c-0.033-0.604-0.617-1.195-1.33-1.177c-0.746,0-1.297,0.547-1.342,1.177H92.654z
	 M89.975,37.586c0.026,0.867,0.764,1.284,1.35,1.278c0.533,0,0.963-0.264,1.188-0.713h0.495c-0.161,0.372-0.405,0.655-0.7,0.841
	c-0.289,0.187-0.63,0.283-0.982,0.283c-1.201,0-1.824-0.957-1.824-1.818c0-1.015,0.783-1.831,1.818-1.831
	c0.487,0,0.938,0.174,1.265,0.488c0.399,0.386,0.591,0.919,0.54,1.472H89.975z"/>
<path fill="#2F4E92" d="M49.99,22.489h-1.569c-0.246,0-0.302-0.111-0.302-0.305V11.503c0-0.081-0.084-0.081-0.111-0.027l-1.156,3.22
	l-2.67,6.857c-0.057,0.109-0.193,0.383-0.523,0.383h-1.072c-0.276,0-0.442-0.053-0.551-0.357l-2.533-6.662l-1.186-3.358
	c-0.027-0.029-0.082-0.056-0.082,0v10.598c0,0.221-0.055,0.332-0.302,0.332H36.39c-0.192,0-0.33-0.111-0.33-0.305V6.028
	c0-0.331,0.166-0.526,0.495-0.526h1.075c0.495,0,0.522,0.055,0.687,0.415l3.691,9.852l1.045,3.031
	c0.082,0.135,0.193,0.109,0.248,0.025c0.357-0.988,0.716-2.117,1.072-3.108l3.662-9.829c0.166-0.304,0.304-0.386,0.662-0.386h1.1
	c0.386,0,0.496,0.195,0.496,0.497v16.158C50.293,22.378,50.183,22.489,49.99,22.489"/>
<path fill="#2F4E92" d="M53.348,10.705c0-0.193,0.082-0.276,0.248-0.276h1.705c0.193,0,0.275,0.083,0.275,0.276v11.535
	c0,0.194-0.055,0.25-0.248,0.25h-1.706c-0.165,0-0.274-0.084-0.274-0.25V10.705z M54.504,8.009c-0.772,0-1.378-0.578-1.378-1.378
	c0-0.742,0.605-1.347,1.349-1.347c0.8,0,1.433,0.576,1.433,1.347C55.907,7.375,55.274,8.009,54.504,8.009"/>
<path fill="#2F4E92" d="M62.927,12.135c-1.651,0-2.698,1.186-2.698,2.535c0,1.32,0.936,2.504,2.533,2.504
	c1.706,0,2.697-1.128,2.697-2.504C65.459,13.321,64.412,12.135,62.927,12.135 M66.699,24.306c0-1.349-1.762-1.707-3.166-1.707
	c-1.186,0-2.781,0.22-4.131,0.44c-0.439,0.054-0.549-0.056-0.688-0.247c-0.331-0.471-0.496-1.129-0.496-1.818
	c0-1.02,0.827-2.039,1.816-2.587c0.111-0.055,0.111-0.192,0-0.247l-0.108-0.056c-1.13-0.744-1.899-1.956-1.899-3.523
	c0-2.425,2.174-4.321,4.734-4.321c1.211,0,2.34,0.383,3.193,1.043c0.109,0.085,0.164,0.085,0.275,0
	c0.688-0.578,1.596-0.961,2.478-0.961c0.303-0.029,0.386,0.136,0.386,0.412v1.402c0,0.302-0.057,0.331-0.413,0.302
	c-0.496-0.082-0.937-0.023-1.295,0.113c-0.165,0.026-0.192,0.108-0.138,0.221c0.304,0.523,0.469,1.126,0.469,1.789
	c0,2.532-2.258,4.349-4.955,4.349c-0.303,0-0.523,0.026-0.634,0.056c-0.935,0.219-1.789,1.209-1.845,1.87
	c0,0.11,0.056,0.194,0.192,0.139c1.019-0.246,2.396-0.33,3.001-0.33c2.533,0,5.479,0.77,5.479,3.578c0,1.598-1.46,3.111-2.892,3.717
	c-0.274,0.14-0.44,0.055-0.578-0.163l-0.605-0.938c-0.109-0.166-0.055-0.33,0.165-0.469C65.955,25.819,66.699,25.019,66.699,24.306"
	/>
<path fill="#2F4E92" d="M78.122,14.862c0-1.568-0.854-2.696-2.644-2.696c-1.598,0-2.642,1.096-2.642,2.696v3.164
	c0,1.57,0.743,2.729,2.614,2.729c1.844,0,2.643-1.132,2.671-2.729V14.862z M75.479,22.652c-3.028,0-4.846-1.651-4.846-4.626v-3.164
	c0-2.809,1.706-4.623,4.818-4.623c3.084,0,4.873,1.706,4.873,4.623v3.137C80.324,20.974,78.452,22.652,75.479,22.652"/>
<path fill="#6299D0" d="M19.732,22.528h11.832c0.738,0,1.337-0.6,1.337-1.338v-8.694C25.311,14.232,21.174,20.067,19.732,22.528"/>
<path fill="#A1CCEE" d="M16.211,9.696V21.19c0,0.738,0.598,1.338,1.337,1.338h1.86C20.938,15.621,18.549,11.75,16.211,9.696"/>
<path fill="#305095" d="M32.901,12.191V7.175c0-0.739-0.599-1.337-1.337-1.337H17.549c-0.739,0-1.338,0.598-1.338,1.337v2.086
	C23.76,12.538,29.121,13.016,32.901,12.191"/>
</svg>
