<svg xmlns="http://www.w3.org/2000/svg" width="98" height="45" viewBox="0 0 98 45"><path fill="#727172" d="M6.699 39.179v-4.754h.745l1.76 3.989 1.754-3.989h.745v4.754h-.501l.013-4.227-1.844 4.227h-.34L7.18 34.952l.014 4.227zM13.021 37.457c.006.623.437 1.375 1.388 1.375.61 0 1.059-.354 1.246-.842.076-.167.115-.359.115-.546a1.233 1.233 0 0 0-.109-.553c-.193-.475-.654-.828-1.265-.828-.797 0-1.375.616-1.375 1.388v.006zm3.211 1.722h-.477v-.713c-.269.521-.795.81-1.412.81-1.124 0-1.793-.874-1.793-1.824 0-1.015.74-1.825 1.793-1.825.738 0 1.246.431 1.412.822v-.726h.477v3.456zM17.281 35.723h.449v.565c.25-.514.7-.648 1.105-.662v.469h-.045c-.668 0-1.041.418-1.041 1.202v1.882h-.469v-3.456zM19.488 34.425h.476v2.718l1.555-1.42h.585l-1.665 1.516 1.741 1.94h-.559l-1.657-1.837v1.837h-.476zM25.518 37.207c-.032-.604-.617-1.195-1.33-1.177-.745 0-1.297.547-1.342 1.177h2.672zm-2.68.379c.027.867.765 1.284 1.35 1.278.533 0 .964-.264 1.188-.713h.496a1.798 1.798 0 0 1-1.683 1.124c-1.201 0-1.824-.957-1.824-1.818 0-1.015.783-1.831 1.818-1.831.488 0 .938.174 1.266.488a1.8 1.8 0 0 1 .539 1.472h-3.15zM27.055 36.102h-.682v-.379h.682v-1.298h.468v1.298h.758v.379h-.758v3.077h-.468zM28.928 35.723h.477v3.456h-.477v-3.456zm0-1.298h.477v.662h-.477v-.662zM30.455 35.723h.45c0 .192 0 .386-.007.616.199-.449.668-.726 1.285-.713 1.072.014 1.451.746 1.451 1.587v1.966h-.469V37.31c0-.746-.334-1.253-1.111-1.24-.713.008-1.123.438-1.123 1.156v1.953h-.477v-3.456zM34.935 37.451c0 .7.495 1.381 1.388 1.381.393 0 .727-.147.971-.398.238-.25.379-.598.385-.977 0-.289-.096-.629-.314-.905-.213-.277-.559-.482-1.054-.482-.758 0-1.375.565-1.375 1.375v.006zm3.199 1.329c0 .655-.212 1.073-.513 1.362a1.936 1.936 0 0 1-1.312.533c-.86 0-1.489-.495-1.709-1.118h.546c.084.148.206.315.412.457.25.18.545.25.764.25a1.34 1.34 0 0 0 1.336-1.375v-.443c-.244.488-.726.829-1.394.829-1.079 0-1.806-.822-1.806-1.818 0-1.034.752-1.831 1.806-1.831.681 0 1.208.386 1.399.81v-.714h.47v3.058zM40.748 35.723h.501l.951 2.845.829-2.538h.391l.836 2.538.944-2.845h.495L44.5 39.179h-.469l-.816-2.518-.803 2.518h-.462zM46.338 35.723h.477v3.456h-.477v-3.456zm0-1.298h.477v.662h-.477v-.662zM48.135 36.102h-.682v-.379h.682v-1.298h.469v1.298h.757v.379h-.757v3.077h-.469zM50.008 34.425h.477V36.289c.212-.456.745-.676 1.232-.662.547 0 .906.174 1.145.476.236.302.327.719.327 1.215v1.862h-.47v-1.844c0-.372-.076-.688-.25-.912-.187-.225-.457-.354-.867-.354-.379 0-.661.135-.842.341-.187.206-.275.488-.275.803v1.966h-.477v-4.755zM56.214 34.425h.526v4.754h-.526zM57.812 35.723h.45c0 .192 0 .386-.008.616.201-.449.668-.726 1.285-.713 1.073.014 1.453.746 1.453 1.587v1.966h-.47V37.31c0-.746-.334-1.253-1.11-1.24-.714.008-1.125.438-1.125 1.156v1.953h-.476v-3.456zM62.305 36.102h-.682v-.379h.682v-1.298h.468v1.298h.758v.379h-.758v3.077h-.468zM66.876 37.207c-.032-.604-.617-1.195-1.33-1.177-.745 0-1.297.547-1.342 1.177h2.672zm-2.679.379c.025.867.764 1.284 1.349 1.278.533 0 .964-.264 1.188-.713h.494a1.83 1.83 0 0 1-.699.841 1.806 1.806 0 0 1-.983.283c-1.2 0-1.823-.957-1.823-1.818 0-1.015.782-1.831 1.817-1.831.487 0 .938.174 1.265.488.399.386.592.919.541 1.472h-3.149zM68.143 34.425h.477v4.754h-.477zM69.664 34.425h.477v4.754h-.477zM71.186 35.723h.476v3.456h-.476v-3.456zm0-1.298h.476v.662h-.476v-.662zM72.969 37.451c0 .7.495 1.381 1.389 1.381.392 0 .726-.147.969-.398.238-.25.379-.598.386-.977 0-.289-.097-.629-.313-.905-.214-.277-.56-.482-1.055-.482-.758 0-1.375.565-1.375 1.375v.006zm3.199 1.329c0 .655-.213 1.073-.514 1.362-.34.334-.842.533-1.311.533-.861 0-1.49-.495-1.709-1.118h.546c.084.148.206.315.412.457.25.18.545.25.765.25a1.34 1.34 0 0 0 1.336-1.375v-.443c-.244.488-.727.829-1.395.829-1.079 0-1.805-.822-1.805-1.818 0-1.034.75-1.831 1.805-1.831.682 0 1.208.386 1.4.81v-.714h.469v3.058zM80.102 37.207c-.031-.604-.617-1.195-1.33-1.177-.745 0-1.297.547-1.342 1.177h2.672zm-2.68.379c.027.867.765 1.284 1.35 1.278.533 0 .964-.264 1.188-.713h.496a1.798 1.798 0 0 1-1.683 1.124c-1.201 0-1.824-.957-1.824-1.818 0-1.015.783-1.831 1.818-1.831.488 0 .938.174 1.266.488a1.8 1.8 0 0 1 .539 1.472h-3.15zM81.369 35.723h.449c0 .192 0 .386-.007.616.2-.449.668-.726 1.285-.713 1.073.014 1.452.746 1.452 1.587v1.966h-.468V37.31c0-.746-.334-1.253-1.111-1.24-.713.008-1.124.438-1.124 1.156v1.953h-.476v-3.456zM88.957 38.01a1.79 1.79 0 0 1-1.728 1.266c-1.169 0-1.856-.899-1.856-1.824 0-1.022.777-1.825 1.824-1.825.777 0 1.522.463 1.76 1.292h-.487a1.324 1.324 0 0 0-1.253-.854c-.405 0-.688.121-.977.392-.232.225-.392.598-.392.996 0 .815.616 1.381 1.362 1.381.662-.007 1.104-.404 1.252-.822h.495zM92.654 37.207c-.033-.604-.617-1.195-1.33-1.177-.746 0-1.297.547-1.342 1.177h2.672zm-2.679.379c.026.867.764 1.284 1.35 1.278.533 0 .963-.264 1.188-.713h.495a1.837 1.837 0 0 1-.7.841c-.289.187-.63.283-.982.283-1.201 0-1.824-.957-1.824-1.818 0-1.015.783-1.831 1.818-1.831.487 0 .938.174 1.265.488.399.386.591.919.54 1.472h-3.15z"/><path fill="#2F4E92" d="M49.99 22.489h-1.569c-.246 0-.302-.111-.302-.305V11.503c0-.081-.084-.081-.111-.027l-1.156 3.22-2.67 6.857c-.057.109-.193.383-.523.383h-1.072c-.276 0-.442-.053-.551-.357l-2.533-6.662-1.186-3.358c-.027-.029-.082-.056-.082 0v10.598c0 .221-.055.332-.302.332H36.39c-.192 0-.33-.111-.33-.305V6.028c0-.331.166-.526.495-.526h1.075c.495 0 .522.055.687.415l3.691 9.852 1.045 3.031c.082.135.193.109.248.025.357-.988.716-2.117 1.072-3.108l3.662-9.829c.166-.304.304-.386.662-.386h1.1c.386 0 .496.195.496.497v16.158c0 .221-.11.332-.303.332M53.348 10.705c0-.193.082-.276.248-.276h1.705c.193 0 .275.083.275.276V22.24c0 .194-.055.25-.248.25h-1.706c-.165 0-.274-.084-.274-.25V10.705zm1.156-2.696c-.772 0-1.378-.578-1.378-1.378a1.35 1.35 0 0 1 1.349-1.347c.8 0 1.433.576 1.433 1.347-.001.744-.634 1.378-1.404 1.378M62.927 12.135c-1.651 0-2.698 1.186-2.698 2.535 0 1.32.936 2.504 2.533 2.504 1.706 0 2.697-1.128 2.697-2.504 0-1.349-1.047-2.535-2.532-2.535m3.772 12.171c0-1.349-1.762-1.707-3.166-1.707-1.186 0-2.781.22-4.131.44-.439.054-.549-.056-.688-.247-.331-.471-.496-1.129-.496-1.818 0-1.02.827-2.039 1.816-2.587.111-.055.111-.192 0-.247l-.108-.056c-1.13-.744-1.899-1.956-1.899-3.523 0-2.425 2.174-4.321 4.734-4.321 1.211 0 2.34.383 3.193 1.043.109.085.164.085.275 0 .688-.578 1.596-.961 2.478-.961.303-.029.386.136.386.412v1.402c0 .302-.057.331-.413.302a2.49 2.49 0 0 0-1.295.113c-.165.026-.192.108-.138.221a3.52 3.52 0 0 1 .469 1.789c0 2.532-2.258 4.349-4.955 4.349-.303 0-.523.026-.634.056-.935.219-1.789 1.209-1.845 1.87 0 .11.056.194.192.139 1.019-.246 2.396-.33 3.001-.33 2.533 0 5.479.77 5.479 3.578 0 1.598-1.46 3.111-2.892 3.717-.274.14-.44.055-.578-.163l-.605-.938c-.109-.166-.055-.33.165-.469.911-.551 1.655-1.351 1.655-2.064M78.122 14.862c0-1.568-.854-2.696-2.644-2.696-1.598 0-2.642 1.096-2.642 2.696v3.164c0 1.57.743 2.729 2.614 2.729 1.844 0 2.643-1.132 2.671-2.729v-3.164zm-2.643 7.79c-3.028 0-4.846-1.651-4.846-4.626v-3.164c0-2.809 1.706-4.623 4.818-4.623 3.084 0 4.873 1.706 4.873 4.623v3.137c0 2.975-1.872 4.653-4.845 4.653"/><path fill="#6299D0" d="M19.732 22.528h11.832c.738 0 1.337-.6 1.337-1.338v-8.694c-7.59 1.736-11.727 7.571-13.169 10.032"/><path fill="#A1CCEE" d="M16.211 9.696V21.19c0 .738.598 1.338 1.337 1.338h1.86c1.53-6.907-.859-10.778-3.197-12.832"/><path fill="#305095" d="M32.901 12.191V7.175c0-.739-.599-1.337-1.337-1.337H17.549c-.739 0-1.338.598-1.338 1.337v2.086c7.549 3.277 12.91 3.755 16.69 2.93"/></svg>