<svg xmlns="http://www.w3.org/2000/svg" width="926" height="362" viewBox="0 0 926 362"><g fill="#58585C"><path d="M55.528 126.575c2.706 4.176 3.898 7.9 5.409 15.76 10.58-10.326 23.625-15.76 37.862-15.76 12.859 0 23.413 4.176 31.579 12.698 2.2 2.137 4.322 4.892 6.152 7.597 14.21-14.555 26.937-20.295 43.985-20.295 12.143 0 23.65 3.63 30.677 9.677 8.776 7.584 11.559 16.702 11.559 37.93v110.443H183.3v-102.53c0-18.586-2.2-22.18-12.78-22.18-7.583 0-18.241 5.172-26.991 13.059v111.651H105.03V183.552c0-19.38-2.809-23.93-14.104-23.93-7.504 0-17.898 3.887-26.647 11.813v113.189H24.561V176.287c0-22.432-1.538-32.122-5.806-39.742l36.773-9.97zM367.995 149.616c12.409 14.556 17.95 31.536 17.95 56.714 0 26.698-6.124 44.938-19.515 60.079-11.771 13.337-27.282 21.557-51.198 21.557-42.236 0-69.784-31.566-69.784-80.391 0-48.868 27.839-81.347 69.784-81.347 22.14.001 39.428 7.611 52.763 23.388zm-73.098 22.429c-2.784 8.22-4.268 19.131-4.268 34.615 0 17.855 1.829 31.273 5.143 39.134 3.659 8.499 12.808 12.741 20.627 12.741 17.607 0 25.137-15.763 25.137-52.471 0-20.948-2.732-34.629-8.166-41.627-3.9-5.118-10.235-8.166-17.553-8.166-9.731 0-17.632 6.043-20.92 15.774zM516.711 129.28v27.916l-68.616 99.203h71.295l-9.73 28.226H395.333V259.45l73.046-101.641h-66.95V129.28h115.282zM585.464 86.511c0 13.975-11.11 25.135-25.161 25.135-13.603 0-24.79-11.16-24.79-25.135 0-13.946 11.561-25.201 25.477-25.201 13.629 0 24.474 11.255 24.474 25.201zm-4.772 39.109v159.005h-40.647V132.009l40.647-6.389zM654.718 100.486v121.035c0 26.738.319 30.332 2.759 34.574 1.537 2.756 4.824 4.243 8.22 4.243 1.457 0 2.331 0 4.532-.559l6.947 24.245c-6.947 2.719-15.457 4.233-24.258 4.233-17.342 0-31.288-8.17-36.116-21.188-3.048-7.9-3.711-12.778-3.711-34.918V116.206c0-20.309-.528-32.717-2.043-46.729l41.577-9.399c1.457 8.484 2.093 18.506 2.093 40.408zM739.031 100.486v121.035c0 26.738.347 30.332 2.84 34.574 1.43 2.756 4.717 4.243 8.112 4.243 1.537 0 2.466 0 4.612-.559l6.922 24.245c-6.922 2.719-15.434 4.233-24.263 4.233-17.312 0-31.284-8.17-36.136-21.188-3.103-7.9-3.607-12.778-3.607-34.918V116.206c0-20.309-.608-32.717-2.174-46.729l41.52-9.399c1.673 8.484 2.174 18.506 2.174 40.408zM802.824 135.058c15.114-6.39 28.108-9.095 42.425-9.095 26.143 0 44.013 9.68 50.136 26.991 2.016 6.365 2.944 11.218 2.759 27.919l-.982 52.155v2.756c0 16.678 2.759 23.067 14.637 31.846l-21.581 24.922c-9.495-3.977-17.95-10.976-21.903-18.839-2.995 3.062-6.362 6.033-9.438 8.18-7.529 5.464-18.531 8.513-31.26 8.513-34.599 0-53.396-17.634-53.396-48.521 0-36.469 25.241-53.48 74.66-53.48 2.971 0 5.781 0 9.148.347v-6.336c0-17.327-3.367-23.095-18.32-23.095-12.887 0-28.186 6.336-44.837 17.591l-17.313-29.138c8.244-5.173 14.317-8.181 25.265-12.716zm52.684 81.612c-28.105 0-37.967 5.117-37.967 23.703 0 12.089 7.688 20.282 18.001 20.282 7.557 0 15.194-3.95 21.214-10.605l.663-33.38h-1.911z"/></g></svg>