<svg xmlns="http://www.w3.org/2000/svg" width="251.471" height="126.47" viewBox="0 0 251.471 126.47"><path fill="#187CC1" d="M91.581 99.556c18.627-18.63 18.627-48.833 0-67.46L57.849 65.824l33.732 33.732z"/><path fill="#C9CAC9" d="M91.61 32.127c-18.628-18.629-48.831-18.629-67.461 0L57.88 65.856l33.73-33.729z"/><linearGradient id="a" gradientUnits="userSpaceOnUse" x1="41.016" y1="15.262" x2="74.747" y2="48.993"><stop offset="0" stop-color="#fff"/><stop offset=".311" stop-color="#fdfdfd"/><stop offset=".448" stop-color="#f6f6f6"/><stop offset=".551" stop-color="#e9e9e9"/><stop offset=".637" stop-color="#d7d7d7"/><stop offset=".713" stop-color="silver"/><stop offset=".781" stop-color="#a3a3a3"/><stop offset=".843" stop-color="#818181"/><stop offset=".901" stop-color="#595959"/><stop offset=".954" stop-color="#2d2d2d"/><stop offset="1"/></linearGradient><path opacity=".2" fill="url(#a)" d="M91.611 32.127c-18.628-18.629-48.831-18.629-67.46 0l33.731 33.729 33.729-33.729z"/><path fill="#DCDDDD" d="M91.581 99.556c-18.63 18.627-48.833 18.627-67.461 0l33.729-33.732 33.732 33.732z"/><path fill="#F0EFEF" d="M24.149 99.585c-18.627-18.627-18.627-48.831 0-67.458L57.88 65.856 24.149 99.585z"/><linearGradient id="b" gradientUnits="userSpaceOnUse" x1="-362.32" y1="3812.851" x2="-328.589" y2="3846.582" gradientTransform="rotate(180 -143.803 1964.634)"><stop offset="0" stop-color="#fff"/><stop offset=".311" stop-color="#fdfdfd"/><stop offset=".448" stop-color="#f6f6f6"/><stop offset=".551" stop-color="#e9e9e9"/><stop offset=".637" stop-color="#d7d7d7"/><stop offset=".713" stop-color="silver"/><stop offset=".781" stop-color="#a3a3a3"/><stop offset=".843" stop-color="#818181"/><stop offset=".901" stop-color="#595959"/><stop offset=".954" stop-color="#2d2d2d"/><stop offset="1"/></linearGradient><path opacity=".1" fill="url(#b)" d="M24.118 99.553c18.627 18.63 48.831 18.63 67.461 0L57.848 65.824l-33.73 33.729z"/><g fill="#000101"><path d="M134.974 16.606h6.714l9.533 15.583h.063V16.606h4.941V39.03h-6.461l-9.786-15.962h-.063V39.03h-4.941V16.606zM166.708 20.977h-6.397v-4.371h17.736v4.371h-6.398V39.03h-4.941V20.977zM201.041 30.384c0 1.331-.201 2.555-.602 3.673a8.082 8.082 0 0 1-1.79 2.915c-.792.823-1.779 1.468-2.961 1.932-1.183.464-2.545.697-4.086.697-1.562 0-2.935-.233-4.117-.697-1.183-.464-2.169-1.109-2.961-1.932a8.071 8.071 0 0 1-1.789-2.915c-.401-1.118-.602-2.343-.602-3.673V16.606h4.941v13.587c0 .696.111 1.341.333 1.932.222.591.533 1.104.934 1.536.401.432.881.771 1.441 1.013.559.243 1.167.364 1.821.364s1.256-.121 1.806-.364a4.28 4.28 0 0 0 1.425-1.013c.401-.433.713-.945.935-1.536a5.456 5.456 0 0 0 .333-1.932V16.606h4.941v13.778zM134.911 54.613h4.941v22.423h-4.941V54.613zM144.76 69.34c0-1.225.222-2.333.665-3.326a7.643 7.643 0 0 1 1.821-2.549 8.036 8.036 0 0 1 2.724-1.631c1.045-.38 2.159-.57 3.341-.57s2.296.19 3.341.57a8.036 8.036 0 0 1 2.724 1.631 7.667 7.667 0 0 1 1.821 2.549c.443.993.666 2.101.666 3.326s-.222 2.333-.666 3.325a7.647 7.647 0 0 1-1.821 2.55 8.052 8.052 0 0 1-2.724 1.631c-1.045.38-2.159.569-3.341.569s-2.296-.189-3.341-.569a8.052 8.052 0 0 1-2.724-1.631 7.647 7.647 0 0 1-1.821-2.55c-.443-.992-.665-2.101-.665-3.325zm4.751 0c0 1.162.333 2.101.998 2.819s1.6 1.077 2.803 1.077c1.204 0 2.138-.358 2.803-1.077s.998-1.657.998-2.819c0-1.161-.333-2.101-.998-2.819s-1.6-1.077-2.803-1.077c-1.203 0-2.138.359-2.803 1.077s-.998 1.658-.998 2.819zM172.409 65.317l-7.411-10.705h6.208l4.783 7.854 4.592-7.854h5.986l-7.253 10.61 8.108 11.813h-6.208l-5.479-9.026-5.321 9.026h-5.859l7.854-11.718zM149.638 98.446a4.858 4.858 0 0 0-1.79-1.362c-.708-.316-1.525-.475-2.455-.475s-1.79.18-2.581.539a6.192 6.192 0 0 0-2.059 1.504 7.008 7.008 0 0 0-1.362 2.296c-.328.887-.491 1.848-.491 2.882 0 1.056.164 2.022.491 2.897a7.194 7.194 0 0 0 1.346 2.281 6.081 6.081 0 0 0 2.011 1.504c.771.359 1.6.538 2.486.538 1.014 0 1.911-.211 2.692-.633a5.362 5.362 0 0 0 1.932-1.774l4.117 3.072c-.95 1.331-2.153 2.312-3.61 2.945s-2.957.951-4.498.951c-1.753 0-3.368-.275-4.846-.824-1.478-.549-2.755-1.335-3.832-2.359s-1.917-2.265-2.518-3.722c-.602-1.457-.903-3.083-.903-4.877 0-1.794.301-3.42.903-4.878.602-1.456 1.441-2.696 2.518-3.721 1.077-1.024 2.354-1.81 3.832-2.359 1.478-.549 3.093-.824 4.846-.824.633 0 1.293.059 1.979.175.686.116 1.362.3 2.027.554a9.028 9.028 0 0 1 1.917 1.013c.612.423 1.161.94 1.647 1.552l-3.799 3.105zM172.22 112.381a7.586 7.586 0 0 1-2.882 2.249 8.646 8.646 0 0 1-3.61.792 9.698 9.698 0 0 1-3.341-.57 8.052 8.052 0 0 1-2.724-1.631 7.643 7.643 0 0 1-1.821-2.549c-.443-.992-.665-2.101-.665-3.326 0-1.224.222-2.333.665-3.326a7.633 7.633 0 0 1 1.821-2.549 8.043 8.043 0 0 1 2.724-1.631 9.702 9.702 0 0 1 3.341-.571c1.098 0 2.095.19 2.993.571a6.226 6.226 0 0 1 2.28 1.631c.623.708 1.103 1.557 1.441 2.549.337.993.507 2.102.507 3.326v1.489h-11.022c.19.908.602 1.63 1.235 2.169.633.539 1.415.808 2.344.808.781 0 1.441-.174 1.979-.522a5.319 5.319 0 0 0 1.409-1.346l3.326 2.437zm-4.022-6.777c.021-.802-.243-1.489-.792-2.059-.549-.57-1.257-.856-2.122-.856-.528 0-.993.085-1.394.254-.401.169-.744.386-1.029.649s-.507.57-.665.918a3.004 3.004 0 0 0-.27 1.093h6.272zM177.414 99.649h4.561v2.091h.063c.147-.296.359-.591.633-.887a4.64 4.64 0 0 1 .982-.792 5.62 5.62 0 0 1 1.298-.57 5.446 5.446 0 0 1 1.583-.222c1.204 0 2.175.186 2.914.554.739.37 1.314.882 1.726 1.537.412.655.691 1.425.839 2.312.147.887.222 1.847.222 2.882v8.488h-4.751v-7.539c0-.443-.016-.902-.047-1.377s-.126-.913-.285-1.314c-.158-.401-.401-.729-.729-.982s-.797-.38-1.409-.38c-.613 0-1.108.11-1.489.333a2.28 2.28 0 0 0-.871.886c-.201.37-.333.787-.396 1.251-.063.465-.095.95-.095 1.457v7.665h-4.75V99.649zM207.66 103.45h-4.181v5.131c0 .422.021.808.063 1.156.042.349.137.649.285.903.147.253.375.449.681.586.306.138.712.206 1.219.206.253 0 .586-.026.998-.079.412-.052.723-.174.935-.364v3.959a7.175 7.175 0 0 1-1.647.38c-.57.062-1.13.095-1.679.095a9.12 9.12 0 0 1-2.217-.253 5.02 5.02 0 0 1-1.773-.808 3.78 3.78 0 0 1-1.188-1.441c-.285-.59-.428-1.309-.428-2.153v-7.316h-3.041v-3.801h3.041v-4.56h4.751v4.56h4.181v3.799zM226.219 112.381a7.586 7.586 0 0 1-2.882 2.249 8.646 8.646 0 0 1-3.61.792 9.698 9.698 0 0 1-3.341-.57 8.052 8.052 0 0 1-2.724-1.631 7.643 7.643 0 0 1-1.821-2.549c-.443-.992-.665-2.101-.665-3.326 0-1.224.222-2.333.665-3.326a7.633 7.633 0 0 1 1.821-2.549 8.043 8.043 0 0 1 2.724-1.631 9.702 9.702 0 0 1 3.341-.571c1.098 0 2.095.19 2.993.571a6.226 6.226 0 0 1 2.28 1.631c.623.708 1.103 1.557 1.441 2.549.337.993.507 2.102.507 3.326v1.489h-11.022c.19.908.602 1.63 1.235 2.169.633.539 1.415.808 2.344.808.781 0 1.441-.174 1.979-.522a5.319 5.319 0 0 0 1.409-1.346l3.326 2.437zm-4.022-6.777c.021-.802-.243-1.489-.792-2.059-.549-.57-1.257-.856-2.122-.856-.528 0-.993.085-1.394.254-.401.169-.744.386-1.029.649s-.507.57-.665.918a3.004 3.004 0 0 0-.27 1.093h6.272zM231.414 99.649h4.75v2.471h.063c.507-.95 1.108-1.663 1.806-2.138.696-.475 1.572-.712 2.629-.712.273 0 .549.011.823.032s.527.063.761.126v4.34a6.565 6.565 0 0 0-2.027-.317c-.908 0-1.627.126-2.154.38s-.934.607-1.219 1.061c-.285.455-.471.998-.555 1.631-.085.633-.127 1.33-.127 2.09v6.429h-4.75V99.649z"/></g></svg>