<svg xmlns="http://www.w3.org/2000/svg" width="497.975" height="110.995" viewBox="0 0 497.975 110.995"><path fill="#FFF" d="M102.518 94.708c0 5.268-4.27 9.537-9.536 9.537h-76.3c-5.266 0-9.536-4.27-9.536-9.537v-76.3c0-5.266 4.27-9.537 9.536-9.537h76.3c5.266 0 9.536 4.271 9.536 9.537v76.3z"/><path d="M95.497 10.623V15.6h-5.89v-5.336h-.367V15.6h-5.892v-5.336h-.369V15.6h-5.888v-5.336h-.367V15.6h-5.892v-5.336h-.367V15.6h-5.89v-5.336h-.369V15.6h-5.888v-5.336h-.369V15.6h-5.89v-5.336h-.367V15.6H45.8v-5.336h-.367V15.6h-5.89v-5.336h-.369V15.6h-5.888v-5.336h-.371V15.6H27.03v-5.336h-.369V15.6h-5.89v-5.336h-.367V15.6h-5.892v-4.977c-.125.038-.244.089-.367.132v4.844H9.304c-.045.123-.095.242-.134.369h4.977v5.89H8.81v.367h5.336v5.89H8.81v.369h5.336v5.888H8.81v.369h5.336v5.89H8.81v.367h5.336v5.892H8.81v.367h5.336v5.888H8.81v.371h5.336v5.889H8.81v.367h5.336v5.892H8.81v.367h5.336v5.892H8.81v.366h5.336v5.889H8.81v.37h5.336v5.889H8.81v.363h5.336v5.892H8.81v.367h5.336v5.888H9.169c.04.129.089.246.134.371h4.842v4.844c.123.042.242.095.367.133v-4.977h5.892v5.336h.367v-5.336h5.89v5.336h.369v-5.336h5.888v5.336h.371v-5.336h5.888v5.336h.369v-5.336h5.89v5.336h.367v-5.336h5.892v5.336h.367v-5.336h5.89v5.336h.369v-5.336h5.888v5.336h.369v-5.336h5.89v5.336h.367v-5.336h5.892v5.336h.367v-5.336h5.888v5.336h.369v-5.336h5.892v5.336h.367v-5.336h5.89v4.977c.125-.038.246-.091.369-.133v-4.844h4.841c.045-.125.094-.242.134-.371h-4.975v-5.888h5.336v-.367h-5.336V84.8h5.336v-.366h-5.336v-5.889h5.336v-.37h-5.336v-5.889h5.336v-.366h-5.336v-5.892h5.336v-.367h-5.336V59.77h5.336v-.367h-5.336v-5.889h5.336v-.371h-5.336v-5.888h5.336v-.367h-5.336v-5.892h5.336v-.366h-5.336v-5.89h5.336v-.369h-5.336v-5.888h5.336v-.369h-5.336v-5.89h5.336v-.367h-5.336v-5.89h4.975c-.04-.126-.089-.246-.134-.369h-4.841v-4.844c-.126-.043-.247-.094-.372-.131zM20.404 96.947h-5.892v-5.888h5.892v5.888zm0-6.255h-5.892V84.8h5.892v5.892zm0-6.258h-5.892v-5.889h5.892v5.889zm0-6.259h-5.892v-5.889h5.892v5.889zm0-6.255h-5.892v-5.892h5.892v5.892zm0-6.258h-5.892V59.77h5.892v5.892zm0-6.259h-5.892v-5.889h5.892v5.889zm0-6.259h-5.892v-5.888h5.892v5.888zm0-6.255h-5.892v-5.892h5.892v5.892zm0-6.259h-5.892v-5.89h5.892v5.89zm0-6.259h-5.892v-5.888h5.892v5.888zm0-6.256h-5.892v-5.89h5.892v5.89zm0-6.257h-5.892v-5.89h5.892v5.89zm6.257 75.089h-5.89v-5.888h5.89v5.888zm0-6.255h-5.89V84.8h5.89v5.892zm0-6.258h-5.89v-5.889h5.89v5.889zm0-6.259h-5.89v-5.889h5.89v5.889zm0-6.255h-5.89v-5.892h5.89v5.892zm0-6.258h-5.89V59.77h5.89v5.892zm0-6.259h-5.89v-5.889h5.89v5.889zm0-6.259h-5.89v-5.888h5.89v5.888zm0-6.255h-5.89v-5.892h5.89v5.892zm0-6.259h-5.89v-5.89h5.89v5.89zm0-6.259h-5.89v-5.888h5.89v5.888zm0-6.256h-5.89v-5.89h5.89v5.89zm0-6.257h-5.89v-5.89h5.89v5.89zm6.257 75.089H27.03v-5.888h5.888v5.888zm0-6.255H27.03V84.8h5.888v5.892zm0-6.258H27.03v-5.889h5.888v5.889zm0-6.259H27.03v-5.889h5.888v5.889zm0-6.255H27.03v-5.892h5.888v5.892zm0-6.258H27.03V59.77h5.888v5.892zm0-6.259H27.03v-5.889h5.888v5.889zm0-6.259H27.03v-5.888h5.888v5.888zm0-6.255H27.03v-5.892h5.888v5.892zm0-6.259H27.03v-5.89h5.888v5.89zm0-6.259H27.03v-5.888h5.888v5.888zm0-6.256H27.03v-5.89h5.888v5.89zm0-6.257H27.03v-5.89h5.888v5.89zm6.259 75.089h-5.888v-5.888h5.888v5.888zm0-6.255h-5.888V84.8h5.888v5.892zm0-6.258h-5.888v-5.889h5.888v5.889zm0-6.259h-5.888v-5.889h5.888v5.889zm0-6.255h-5.888v-5.892h5.888v5.892zm0-6.258h-5.888V59.77h5.888v5.892zm0-6.259h-5.888v-5.889h5.888v5.889zm0-6.259h-5.888v-5.888h5.888v5.888zm0-6.255h-5.888v-5.892h5.888v5.892zm0-6.259h-5.888v-5.89h5.888v5.89zm0-6.259h-5.888v-5.888h5.888v5.888zm0-6.256h-5.888v-5.89h5.888v5.89zm0-6.257h-5.888v-5.89h5.888v5.89zm6.258 75.089h-5.89v-5.888h5.89v5.888zm0-6.255h-5.89V84.8h5.89v5.892zm0-6.258h-5.89v-5.889h5.89v5.889zm0-6.259h-5.89v-5.889h5.89v5.889zm0-6.255h-5.89v-5.892h5.89v5.892zm0-6.258h-5.89V59.77h5.89v5.892zm0-6.259h-5.89v-5.889h5.89v5.889zm0-6.259h-5.89v-5.888h5.89v5.888zm0-6.255h-5.89v-5.892h5.89v5.892zm0-6.259h-5.89v-5.89h5.89v5.89zm0-6.259h-5.89v-5.888h5.89v5.888zm0-6.256h-5.89v-5.89h5.89v5.89zm0-6.257h-5.89v-5.89h5.89v5.89zm6.259 75.089h-5.892v-5.888h5.892v5.888zm0-6.255h-5.892V84.8h5.892v5.892zm0-6.258h-5.892v-5.889h5.892v5.889zm0-6.259h-5.892v-5.889h5.892v5.889zm0-6.255h-5.892v-5.892h5.892v5.892zm0-6.258h-5.892V59.77h5.892v5.892zm0-6.259h-5.892v-5.889h5.892v5.889zm0-6.259h-5.892v-5.888h5.892v5.888zm0-6.255h-5.892v-5.892h5.892v5.892zm0-6.259h-5.892v-5.89h5.892v5.89zm0-6.259h-5.892v-5.888h5.892v5.888zm0-6.256h-5.892v-5.89h5.892v5.89zm0-6.257h-5.892v-5.89h5.892v5.89zm6.257 75.089h-5.89v-5.888h5.89v5.888zm0-6.255h-5.89V84.8h5.89v5.892zm0-6.258h-5.89v-5.889h5.89v5.889zm0-6.259h-5.89v-5.889h5.89v5.889zm0-6.255h-5.89v-5.892h5.89v5.892zm0-6.258h-5.89V59.77h5.89v5.892zm0-6.259h-5.89v-5.889h5.89v5.889zm0-6.259h-5.89v-5.888h5.89v5.888zm0-6.255h-5.89v-5.892h5.89v5.892zm0-6.259h-5.89v-5.89h5.89v5.89zm0-6.259h-5.89v-5.888h5.89v5.888zm0-6.256h-5.89v-5.89h5.89v5.89zm0-6.257h-5.89v-5.89h5.89v5.89zm6.257 75.089H58.32v-5.888h5.888v5.888zm0-6.255H58.32V84.8h5.888v5.892zm0-6.258H58.32v-5.889h5.888v5.889zm0-6.259H58.32v-5.889h5.888v5.889zm0-6.255H58.32v-5.892h5.888v5.892zm0-6.258H58.32V59.77h5.888v5.892zm0-6.259H58.32v-5.889h5.888v5.889zm0-6.259H58.32v-5.888h5.888v5.888zm0-6.255H58.32v-5.892h5.888v5.892zm0-6.259H58.32v-5.89h5.888v5.89zm0-6.259H58.32v-5.888h5.888v5.888zm0-6.256H58.32v-5.89h5.888v5.89zm0-6.257H58.32v-5.89h5.888v5.89zm6.258 75.089h-5.89v-5.888h5.89v5.888zm0-6.255h-5.89V84.8h5.89v5.892zm0-6.258h-5.89v-5.889h5.89v5.889zm0-6.259h-5.89v-5.889h5.89v5.889zm0-6.255h-5.89v-5.892h5.89v5.892zm0-6.258h-5.89V59.77h5.89v5.892zm0-6.259h-5.89v-5.889h5.89v5.889zm0-6.259h-5.89v-5.888h5.89v5.888zm0-6.255h-5.89v-5.892h5.89v5.892zm0-6.259h-5.89v-5.89h5.89v5.89zm0-6.259h-5.89v-5.888h5.89v5.888zm0-6.256h-5.89v-5.89h5.89v5.89zm0-6.257h-5.89v-5.89h5.89v5.89zm6.259 75.089h-5.892v-5.888h5.892v5.888zm0-6.255h-5.892V84.8h5.892v5.892zm0-6.258h-5.892v-5.889h5.892v5.889zm0-6.259h-5.892v-5.889h5.892v5.889zm0-6.255h-5.892v-5.892h5.892v5.892zm0-6.258h-5.892V59.77h5.892v5.892zm0-6.259h-5.892v-5.889h5.892v5.889zm0-6.259h-5.892v-5.888h5.892v5.888zm0-6.255h-5.892v-5.892h5.892v5.892zm0-6.259h-5.892v-5.89h5.892v5.89zm0-6.259h-5.892v-5.888h5.892v5.888zm0-6.256h-5.892v-5.89h5.892v5.89zm0-6.257h-5.892v-5.89h5.892v5.89zm6.254 75.089h-5.888v-5.888h5.888v5.888zm0-6.255h-5.888V84.8h5.888v5.892zm0-6.258h-5.888v-5.889h5.888v5.889zm0-6.259h-5.888v-5.889h5.888v5.889zm0-6.255h-5.888v-5.892h5.888v5.892zm0-6.258h-5.888V59.77h5.888v5.892zm0-6.259h-5.888v-5.889h5.888v5.889zm0-6.259h-5.888v-5.888h5.888v5.888zm0-6.255h-5.888v-5.892h5.888v5.892zm0-6.259h-5.888v-5.89h5.888v5.89zm0-6.259h-5.888v-5.888h5.888v5.888zm0-6.256h-5.888v-5.89h5.888v5.89zm0-6.257h-5.888v-5.89h5.888v5.89zm6.261 75.089h-5.892v-5.888h5.892v5.888zm0-6.255h-5.892V84.8h5.892v5.892zm0-6.258h-5.892v-5.889h5.892v5.889zm0-6.259h-5.892v-5.889h5.892v5.889zm0-6.255h-5.892v-5.892h5.892v5.892zm0-6.258h-5.892V59.77h5.892v5.892zm0-6.259h-5.892v-5.889h5.892v5.889zm0-6.259h-5.892v-5.888h5.892v5.888zm0-6.255h-5.892v-5.892h5.892v5.892zm0-6.259h-5.892v-5.89h5.892v5.89zm0-6.259h-5.892v-5.888h5.892v5.888zm0-6.256h-5.892v-5.89h5.892v5.89zm0-6.257h-5.892v-5.89h5.892v5.89zm6.257 75.089h-5.89v-5.888h5.89v5.888zm0-6.255h-5.89V84.8h5.89v5.892zm0-6.258h-5.89v-5.889h5.89v5.889zm0-6.259h-5.89v-5.889h5.89v5.889zm0-6.255h-5.89v-5.892h5.89v5.892zm0-6.258h-5.89V59.77h5.89v5.892zm0-6.259h-5.89v-5.889h5.89v5.889zm0-6.259h-5.89v-5.888h5.89v5.888zm0-6.255h-5.89v-5.892h5.89v5.892zm0-6.259h-5.89v-5.89h5.89v5.89zm0-6.259h-5.89v-5.888h5.89v5.888zm0-6.256h-5.89v-5.89h5.89v5.89zm0-6.257h-5.89v-5.89h5.89v5.89z"/><path d="M93.103 104.862H16.906c-5.684 0-10.307-4.621-10.307-10.309V18.36c0-5.684 4.623-10.305 10.307-10.305h76.197c5.684 0 10.307 4.621 10.307 10.305v76.193c0 5.688-4.623 10.309-10.307 10.309zM16.906 10.999c-4.058 0-7.363 3.304-7.363 7.361v76.193c0 4.062 3.305 7.363 7.363 7.363h76.197c4.06 0 7.363-3.302 7.363-7.363V18.36c0-4.058-3.303-7.361-7.363-7.361H16.906z"/><path d="M20.588 34.557h6.257v6.258h-6.257zM20.588 22.041h6.257v6.257h-6.257zM33.104 34.557h6.258v6.258h-6.258zM33.104 22.041h6.258v6.257h-6.258zM45.621 84.619h6.255v6.255h-6.255zM45.621 72.102h6.255v6.258h-6.255zM45.621 59.588h6.255v6.255h-6.255zM45.621 47.072h6.255v6.257h-6.255zM45.621 34.557h6.255v6.258h-6.255zM45.621 22.041h6.255v6.257h-6.255zM58.134 84.619h6.258v6.255h-6.258zM58.134 72.102h6.258v6.258h-6.258zM58.134 59.588h6.258v6.255h-6.258zM58.134 47.072h6.258v6.257h-6.258zM58.134 34.557h6.258v6.258h-6.258zM58.134 22.041h6.258v6.257h-6.258zM70.649 34.557h6.259v6.258h-6.259zM70.649 22.041h6.259v6.257h-6.259zM83.165 34.557h6.259v6.258h-6.259zM83.165 22.041h6.259v6.257h-6.259z"/><g fill="#231F20"><path d="M221.002 101.757h4.491V91.6h31.033v10.157h4.49v-34.11h-40.014v34.11zm4.491-26.76h31.033v9.256h-31.033v-9.256zm-102.827 0h16.541v26.761h4.491V74.997h16.531v-7.35h-37.563v7.35zm54.442 0h16.539v26.761h4.491V74.997h16.534v-7.35h-37.563v7.35zm-10.821 26.76h4.491v-34.11h-4.491v34.11zm147.878-13.283h34.704v5.936h-34.704v7.348h39.195V81.121h-34.712v-6.124h34.712v-7.35h-39.195v20.827zm46.063 13.283h40.016v-34.11h-40.016v34.11zm4.49-26.76h31.034V94.41h-31.034V74.997zm-97.444 26.76h4.49v-26.76h31.032v26.761h4.491v-34.11h-40.014v34.109zm185.713-34.11v7.35h16.533v26.761h4.491V74.997h16.533v-7.35h-37.557zm-46.141 34.11h4.49v-13.38h34.705v-7.351h-34.705v-6.03h34.705v-7.35h-39.195v34.111zM187.302 18.153a550.875 550.875 0 0 1-.488 20.986c-.295 6.83-.61 10.777-.949 11.839-.344 1.06-.947 1.898-1.817 2.509s-2.256.917-4.16.917c-.949 0-1.891-.039-2.838-.12l-1.129-4.345c1.229.096 2.228.144 3.01.144 1.904 0 3.01-.616 3.313-1.857.302-1.236.618-9.846.962-25.823h-6.028c-.424 13.936-2.817 23.799-7.121 32.243l-3.434-2.632c4.067-7.609 6.459-17.558 6.502-29.611h-5.417v-4.249h5.532l-.007-6.867h4.023l.013 6.867h10.033zm18.309 36.274h-3.988v-3.449h-7.395v3.4h-3.937V14.991h15.319v39.436zm-3.988-7.842V19.337h-7.395v27.248h7.395zM225.771 28.096h-4.468v12.069a74.95 74.95 0 0 0 3.808-2.028l.085 4.491c-3.75 2.299-7.832 4.341-12.243 6.127l-1.035-4.147c2.386-1.018 4.183-1.804 5.374-2.367V28.096h-4.562v-4.247h4.562V11.225h4.01v12.624h4.468v4.247zm25.982 23.486l-2.543 3.402c-3.888-2.125-7.07-4.401-9.564-6.832-2.773 2.578-6.007 4.741-9.692 6.492l-2.859-3.476c4.311-1.915 7.573-3.957 9.785-6.127-2.522-3.299-4.498-6.716-5.661-11.846-.303 9.444-2.789 16.107-7.48 21.597l-3.392-2.632a26.754 26.754 0 0 0 5.124-8.687c1.178-3.251 1.76-7.053 1.76-13.005v-14.71h10.072v-4.46h3.982v4.46h10.252c-.639 4.186-1.401 8.339-3.457 11.493l-3.585-1.735c1.875-3.047 1.963-3.9 2.243-5.556h-5.453v9.033h8.304c-.754 6.95-3.621 11.784-7.134 16.095 2.069 2.218 5.166 4.385 9.298 6.494zm-14.45-22.588V19.96h-6v9.033h6zm7.616 4.201h-9.633c1.106 4.005 2.592 6.415 4.447 8.828 1.917-2.429 4.139-4.838 5.186-8.828zM333.039 19.601l-2.258 3.501c-2.024-2.317-4.424-4.507-7.213-6.566a46.61 46.61 0 0 1-5.273 6.372h11.583v4.056h-4.671v3.693h6.523v4.004h-6.523v12.408c1.71-.373 3.643-.96 5.79-1.761l.359 4.101c-5.61 1.961-11.058 3.506-16.352 4.634l-.777-3.96c1.976-.399 4.347-.998 7.121-1.784V34.661h-6.396v-4.004h6.396v-3.693h-4.225v-2.971a13.94 13.94 0 0 1-1.862 1.524l-1.438-4.201c3.277-2.721 6.087-6.132 8.438-10.233l4.072.986c-.18.421-.395.796-.646 1.136 3.177 2.365 5.627 4.497 7.352 6.396zm-13.192 27.224l-3.32.895a69.941 69.941 0 0 0-1.753-9.896l3.306-.938c.997 3.843 1.587 7.157 1.767 9.939zm11.596-8.906c-.482 3.059-1.149 5.504-1.991 7.336l-3.074-1.035c.87-2.865 1.473-5.375 1.817-7.531l3.248 1.23zm22.756 13.712l-2.81 3.399c-4.722-7.208-7.652-13.813-8.788-19.813-.783 3.333-1.89 6.197-2.772 8.432a63.893 63.893 0 0 1 5.948 6.878l-2.909 2.814c-1.179-1.817-2.738-3.806-4.671-5.961-1.301 2.495-2.961 5.045-4.979 7.65l-2.81-3.112c5.633-7.063 8.822-15.252 9.556-24.569h-7.659v-4.294h7.796c.129-3.204.223-7.124.287-11.756h3.937c-.028 5.73-.071 9.646-.128 11.756h9.428v4.294h-8.94c1.221 8.736 4.398 16.829 9.514 24.282zM374.252 44.364c-3.758 2.221-8.248 4.423-13.479 6.614l-1.172-4.153a66.838 66.838 0 0 0 5.489-2.365V28.047h-4.892V23.8h4.892V11.298h4.031V23.8h4.714v4.247h-4.714v14.337c1.028-.402 2.745-1.276 5.13-2.629v4.609zm25.889 8.88h-26.744v-4.149h26.744v4.149zm-2.343-10.234H376.25V12.384h21.548V43.01zm-4.074-17.69v-8.784h-13.35v8.784h13.35zm0 13.589v-9.436h-13.35v9.436h13.35zM424.57 14.605c-2.062.758-4.298 1.342-6.705 1.76v6.399h5.712v4.149h-5.712v1.375c2.371 2.704 4.398 5.504 6.066 8.4l-2.817 3.258c-1.07-2.348-2.156-4.353-3.249-6.007v20.439h-3.944V34.806c-2.104 4.491-4.152 7.771-6.128 9.849l-2.299-3.91c3.153-3.478 5.892-8.089 8.204-13.831h-7.766v-4.149h7.988v-5.698a60.944 60.944 0 0 1-6.043.699l-1.701-4.002c5.769-.309 11.252-1.265 16.446-2.876l1.948 3.717zm20.85 28.121l-4.203.7v11.047h-4.008l-.267-10.451-14.184 2.179-.093-4.407 14.543-2.229v-28.17h4.008v27.591l4.075-.556.129 4.296zm-10.202-9.587l-2.723 3.309c-1.904-2.655-4.728-5.49-8.479-8.498l2.638-3.208c3.657 2.944 6.516 5.744 8.564 8.397zm.64-11.969l-2.725 3.21c-2.535-3.124-5.209-5.824-8.004-8.11l2.802-3.112c3.026 2.555 5.67 5.228 7.927 8.012zM465.144 33.333a60.944 60.944 0 0 1-4.712 2.172v14.338c0 1.416-.323 2.51-.957 3.282-.639.771-1.695 1.171-3.189 1.193a61.757 61.757 0 0 1-3.852-.034l-1.258-4.297c1.589.065 2.961.095 4.118.095.28 0 .545-.142.804-.42a1.37 1.37 0 0 0 .388-.954V37.149a56.596 56.596 0 0 1-5.179 1.713l-1.086-4.056c2.831-.934 4.922-1.688 6.265-2.267v-9.15h-5.754v-4.195h5.754v-8.016h3.946v8.016h4.16v4.195h-4.16v7.435c1.178-.417 2.472-1.016 3.894-1.786l.818 4.295zm25.25 17.835l-2.322 3.718c-4.282-2.04-7.809-4.321-10.605-6.833-3.238 2.659-7.119 4.934-11.64 6.833l-2.233-3.958c4.368-1.61 8.04-3.557 11.021-5.84-2.521-3.025-5.971-7.271-7.738-12.745v-4.149h8.737v-6.421h-9.607v-4.149h9.607v-6.276h4.074v6.276h9.513v4.149h-9.513v6.421h8.384v4.149c-2.104 5.537-4.634 9.819-7.572 12.842 2.499 2.255 5.791 4.249 9.894 5.983zm-6.769-18.825h-12.352c1.121 3.686 4.073 6.985 6.424 9.897 2.463-2.704 4.44-6.004 5.928-9.897zM286.795 38.338h-19.551V49.1h19.551V38.338zm-3.902 6.954h-11.704V42.03h11.704v3.262z"/><path d="M287.096 19.895h9.658v-4.14h-17.818v-4.394h-3.982v4.394h-17.912v4.14h9.484l1.745 4.203h-9.189v30.387h3.96V28.058h7.457c-.028 3.298-2.232 5.327-6.616 6.081l1.946 3.695c5.655-1.257 8.479-4.515 8.479-9.776h5.181v4.683c0 .754.295 1.453.885 2.097.588.646 1.234.966 1.925.966h8.522v13.494c0 .434-.145.727-.439.878-.302.152-1.329.229-3.097.229-.654 0-1.365-.021-2.133-.072l1.263 4.104c1.108.08 2.042.121 2.797.121 1.442 0 2.479-.137 3.103-.413.634-.271 1.186-.768 1.676-1.482.487-.717.724-1.557.724-2.521V24.098h-9.182l.675-1.791.888-2.412zm3.723 12.215h-6.79c-.137 0-.28-.095-.446-.288-.165-.194-.244-.362-.244-.507v-3.257h7.48v4.052zm-18.581-8.012l-1.617-4.203h12.51l-1.652 4.203h-9.241z"/><g><path d="M144.235 33.865h-8.479v-3.887h7.768V26.02h-4.226l1.336-6.06h2.659v-4.189h-7.429v-4.409h-3.9v4.409h-7.904v4.189h2.664l1.488 6.06h-4.319v3.958h7.875v3.887h-8.342v4.103l8.558-.021v16.507h3.765V37.925l8.486.042v-4.102zm-12.402-7.844l-1.373-6.06h6.569l-1.417 6.06h-3.779z"/><path d="M150.183 25.972v-7.201c4.383-.934 8.227-2.181 11.519-3.744l-2.774-3.666c-3.464 1.687-7.724 2.911-12.79 3.666v16.569c0 8.931-1.48 15.558-4.426 19.885l3.292 2.946c3.369-4.875 5.094-13.382 5.179-24.645h4.585v24.597h3.944V29.782h4.11v-3.81h-12.639z"/><path d="M140.067 39.281l-3.305 1.642a34.332 34.332 0 0 1 2.853 7.21l3.218-1.97c-.495-2.084-1.416-4.376-2.766-6.882zM122.815 48.555l3.197 2.61c1.465-2.257 2.91-5.466 4.326-9.632l-3.436-1.76c-1.184 3.494-2.549 6.422-4.087 8.782z"/></g></g></svg>