<?xml version="1.0" encoding="utf-8"?>
<!-- Generator: Adobe Illustrator 16.0.0, SVG Export Plug-In . SVG Version: 6.00 Build 0)  -->
<!DOCTYPE svg PUBLIC "-//W3C//DTD SVG 1.1//EN" "http://www.w3.org/Graphics/SVG/1.1/DTD/svg11.dtd">
<svg version="1.1" id="Layer_1" xmlns="http://www.w3.org/2000/svg" xmlns:xlink="http://www.w3.org/1999/xlink" x="0px" y="0px"
	 width="497.975px" height="110.995px" viewBox="0 0 497.975 110.995" enable-background="new 0 0 497.975 110.995"
	 xml:space="preserve">
<g>
	<g>
		<path fill="#FFFFFF" d="M102.518,94.708c0,5.268-4.27,9.537-9.536,9.537h-76.3c-5.266,0-9.536-4.27-9.536-9.537v-76.3
			c0-5.266,4.27-9.537,9.536-9.537h76.3c5.266,0,9.536,4.271,9.536,9.537V94.708z"/>
		<g>
			<path d="M95.497,10.623v4.977h-5.89v-5.336H89.24v5.336h-5.892v-5.336h-0.369v5.336h-5.888v-5.336h-0.367v5.336h-5.892v-5.336
				h-0.367v5.336h-5.89v-5.336h-0.369v5.336h-5.888v-5.336h-0.369v5.336h-5.89v-5.336h-0.367v5.336h-5.892v-5.336h-0.367v5.336
				h-5.89v-5.336h-0.369v5.336h-5.888v-5.336h-0.371v5.336H27.03v-5.336h-0.369v5.336h-5.89v-5.336h-0.367v5.336h-5.892v-4.977
				c-0.125,0.038-0.244,0.089-0.367,0.132v4.844H9.304c-0.045,0.123-0.095,0.242-0.134,0.369h4.977v5.89H8.81v0.367h5.336v5.89H8.81
				v0.369h5.336v5.888H8.81v0.369h5.336v5.89H8.81v0.367h5.336v5.892H8.81v0.367h5.336v5.888H8.81v0.371h5.336v5.889H8.81v0.367
				h5.336v5.892H8.81v0.367h5.336v5.892H8.81v0.366h5.336v5.889H8.81v0.37h5.336v5.889H8.81V84.8h5.336v5.892H8.81v0.367h5.336
				v5.888H9.169c0.04,0.129,0.089,0.246,0.134,0.371h4.842v4.844c0.123,0.042,0.242,0.095,0.367,0.133v-4.977h5.892v5.336h0.367
				v-5.336h5.89v5.336h0.369v-5.336h5.888v5.336h0.371v-5.336h5.888v5.336h0.369v-5.336h5.89v5.336h0.367v-5.336h5.892v5.336h0.367
				v-5.336h5.89v5.336h0.369v-5.336h5.888v5.336h0.369v-5.336h5.89v5.336h0.367v-5.336h5.892v5.336h0.367v-5.336h5.888v5.336h0.369
				v-5.336h5.892v5.336h0.367v-5.336h5.89v4.977c0.125-0.038,0.246-0.091,0.369-0.133v-4.844h4.841
				c0.045-0.125,0.094-0.242,0.134-0.371h-4.975v-5.888h5.336v-0.367h-5.336V84.8h5.336v-0.366h-5.336v-5.889h5.336v-0.37h-5.336
				v-5.889h5.336V71.92h-5.336v-5.892h5.336v-0.367h-5.336V59.77h5.336v-0.367h-5.336v-5.889h5.336v-0.371h-5.336v-5.888h5.336
				v-0.367h-5.336v-5.892h5.336V40.63h-5.336v-5.89h5.336v-0.369h-5.336v-5.888h5.336v-0.369h-5.336v-5.89h5.336v-0.367h-5.336
				v-5.89h4.975c-0.04-0.126-0.089-0.246-0.134-0.369h-4.841v-4.844C95.743,10.711,95.622,10.66,95.497,10.623z M20.404,96.947
				h-5.892v-5.888h5.892V96.947z M20.404,90.692h-5.892V84.8h5.892V90.692z M20.404,84.434h-5.892v-5.889h5.892V84.434z
				 M20.404,78.175h-5.892v-5.889h5.892V78.175z M20.404,71.92h-5.892v-5.892h5.892V71.92z M20.404,65.662h-5.892V59.77h5.892
				V65.662z M20.404,59.403h-5.892v-5.889h5.892V59.403z M20.404,53.144h-5.892v-5.888h5.892V53.144z M20.404,46.889h-5.892v-5.892
				h5.892V46.889z M20.404,40.63h-5.892v-5.89h5.892V40.63z M20.404,34.371h-5.892v-5.888h5.892V34.371z M20.404,28.115h-5.892
				v-5.89h5.892V28.115z M20.404,21.858h-5.892v-5.89h5.892V21.858z M26.661,96.947h-5.89v-5.888h5.89V96.947z M26.661,90.692h-5.89
				V84.8h5.89V90.692z M26.661,84.434h-5.89v-5.889h5.89V84.434z M26.661,78.175h-5.89v-5.889h5.89V78.175z M26.661,71.92h-5.89
				v-5.892h5.89V71.92z M26.661,65.662h-5.89V59.77h5.89V65.662z M26.661,59.403h-5.89v-5.889h5.89V59.403z M26.661,53.144h-5.89
				v-5.888h5.89V53.144z M26.661,46.889h-5.89v-5.892h5.89V46.889z M26.661,40.63h-5.89v-5.89h5.89V40.63z M26.661,34.371h-5.89
				v-5.888h5.89V34.371z M26.661,28.115h-5.89v-5.89h5.89V28.115z M26.661,21.858h-5.89v-5.89h5.89V21.858z M32.918,96.947H27.03
				v-5.888h5.888V96.947z M32.918,90.692H27.03V84.8h5.888V90.692z M32.918,84.434H27.03v-5.889h5.888V84.434z M32.918,78.175H27.03
				v-5.889h5.888V78.175z M32.918,71.92H27.03v-5.892h5.888V71.92z M32.918,65.662H27.03V59.77h5.888V65.662z M32.918,59.403H27.03
				v-5.889h5.888V59.403z M32.918,53.144H27.03v-5.888h5.888V53.144z M32.918,46.889H27.03v-5.892h5.888V46.889z M32.918,40.63
				H27.03v-5.89h5.888V40.63z M32.918,34.371H27.03v-5.888h5.888V34.371z M32.918,28.115H27.03v-5.89h5.888V28.115z M32.918,21.858
				H27.03v-5.89h5.888V21.858z M39.177,96.947h-5.888v-5.888h5.888V96.947z M39.177,90.692h-5.888V84.8h5.888V90.692z
				 M39.177,84.434h-5.888v-5.889h5.888V84.434z M39.177,78.175h-5.888v-5.889h5.888V78.175z M39.177,71.92h-5.888v-5.892h5.888
				V71.92z M39.177,65.662h-5.888V59.77h5.888V65.662z M39.177,59.403h-5.888v-5.889h5.888V59.403z M39.177,53.144h-5.888v-5.888
				h5.888V53.144z M39.177,46.889h-5.888v-5.892h5.888V46.889z M39.177,40.63h-5.888v-5.89h5.888V40.63z M39.177,34.371h-5.888
				v-5.888h5.888V34.371z M39.177,28.115h-5.888v-5.89h5.888V28.115z M39.177,21.858h-5.888v-5.89h5.888V21.858z M45.435,96.947
				h-5.89v-5.888h5.89V96.947z M45.435,90.692h-5.89V84.8h5.89V90.692z M45.435,84.434h-5.89v-5.889h5.89V84.434z M45.435,78.175
				h-5.89v-5.889h5.89V78.175z M45.435,71.92h-5.89v-5.892h5.89V71.92z M45.435,65.662h-5.89V59.77h5.89V65.662z M45.435,59.403
				h-5.89v-5.889h5.89V59.403z M45.435,53.144h-5.89v-5.888h5.89V53.144z M45.435,46.889h-5.89v-5.892h5.89V46.889z M45.435,40.63
				h-5.89v-5.89h5.89V40.63z M45.435,34.371h-5.89v-5.888h5.89V34.371z M45.435,28.115h-5.89v-5.89h5.89V28.115z M45.435,21.858
				h-5.89v-5.89h5.89V21.858z M51.694,96.947h-5.892v-5.888h5.892V96.947z M51.694,90.692h-5.892V84.8h5.892V90.692z M51.694,84.434
				h-5.892v-5.889h5.892V84.434z M51.694,78.175h-5.892v-5.889h5.892V78.175z M51.694,71.92h-5.892v-5.892h5.892V71.92z
				 M51.694,65.662h-5.892V59.77h5.892V65.662z M51.694,59.403h-5.892v-5.889h5.892V59.403z M51.694,53.144h-5.892v-5.888h5.892
				V53.144z M51.694,46.889h-5.892v-5.892h5.892V46.889z M51.694,40.63h-5.892v-5.89h5.892V40.63z M51.694,34.371h-5.892v-5.888
				h5.892V34.371z M51.694,28.115h-5.892v-5.89h5.892V28.115z M51.694,21.858h-5.892v-5.89h5.892V21.858z M57.951,96.947h-5.89
				v-5.888h5.89V96.947z M57.951,90.692h-5.89V84.8h5.89V90.692z M57.951,84.434h-5.89v-5.889h5.89V84.434z M57.951,78.175h-5.89
				v-5.889h5.89V78.175z M57.951,71.92h-5.89v-5.892h5.89V71.92z M57.951,65.662h-5.89V59.77h5.89V65.662z M57.951,59.403h-5.89
				v-5.889h5.89V59.403z M57.951,53.144h-5.89v-5.888h5.89V53.144z M57.951,46.889h-5.89v-5.892h5.89V46.889z M57.951,40.63h-5.89
				v-5.89h5.89V40.63z M57.951,34.371h-5.89v-5.888h5.89V34.371z M57.951,28.115h-5.89v-5.89h5.89V28.115z M57.951,21.858h-5.89
				v-5.89h5.89V21.858z M64.208,96.947h-5.888v-5.888h5.888V96.947z M64.208,90.692h-5.888V84.8h5.888V90.692z M64.208,84.434
				h-5.888v-5.889h5.888V84.434z M64.208,78.175h-5.888v-5.889h5.888V78.175z M64.208,71.92h-5.888v-5.892h5.888V71.92z
				 M64.208,65.662h-5.888V59.77h5.888V65.662z M64.208,59.403h-5.888v-5.889h5.888V59.403z M64.208,53.144h-5.888v-5.888h5.888
				V53.144z M64.208,46.889h-5.888v-5.892h5.888V46.889z M64.208,40.63h-5.888v-5.89h5.888V40.63z M64.208,34.371h-5.888v-5.888
				h5.888V34.371z M64.208,28.115h-5.888v-5.89h5.888V28.115z M64.208,21.858h-5.888v-5.89h5.888V21.858z M70.466,96.947h-5.89
				v-5.888h5.89V96.947z M70.466,90.692h-5.89V84.8h5.89V90.692z M70.466,84.434h-5.89v-5.889h5.89V84.434z M70.466,78.175h-5.89
				v-5.889h5.89V78.175z M70.466,71.92h-5.89v-5.892h5.89V71.92z M70.466,65.662h-5.89V59.77h5.89V65.662z M70.466,59.403h-5.89
				v-5.889h5.89V59.403z M70.466,53.144h-5.89v-5.888h5.89V53.144z M70.466,46.889h-5.89v-5.892h5.89V46.889z M70.466,40.63h-5.89
				v-5.89h5.89V40.63z M70.466,34.371h-5.89v-5.888h5.89V34.371z M70.466,28.115h-5.89v-5.89h5.89V28.115z M70.466,21.858h-5.89
				v-5.89h5.89V21.858z M76.725,96.947h-5.892v-5.888h5.892V96.947z M76.725,90.692h-5.892V84.8h5.892V90.692z M76.725,84.434
				h-5.892v-5.889h5.892V84.434z M76.725,78.175h-5.892v-5.889h5.892V78.175z M76.725,71.92h-5.892v-5.892h5.892V71.92z
				 M76.725,65.662h-5.892V59.77h5.892V65.662z M76.725,59.403h-5.892v-5.889h5.892V59.403z M76.725,53.144h-5.892v-5.888h5.892
				V53.144z M76.725,46.889h-5.892v-5.892h5.892V46.889z M76.725,40.63h-5.892v-5.89h5.892V40.63z M76.725,34.371h-5.892v-5.888
				h5.892V34.371z M76.725,28.115h-5.892v-5.89h5.892V28.115z M76.725,21.858h-5.892v-5.89h5.892V21.858z M82.979,96.947h-5.888
				v-5.888h5.888V96.947z M82.979,90.692h-5.888V84.8h5.888V90.692z M82.979,84.434h-5.888v-5.889h5.888V84.434z M82.979,78.175
				h-5.888v-5.889h5.888V78.175z M82.979,71.92h-5.888v-5.892h5.888V71.92z M82.979,65.662h-5.888V59.77h5.888V65.662z
				 M82.979,59.403h-5.888v-5.889h5.888V59.403z M82.979,53.144h-5.888v-5.888h5.888V53.144z M82.979,46.889h-5.888v-5.892h5.888
				V46.889z M82.979,40.63h-5.888v-5.89h5.888V40.63z M82.979,34.371h-5.888v-5.888h5.888V34.371z M82.979,28.115h-5.888v-5.89
				h5.888V28.115z M82.979,21.858h-5.888v-5.89h5.888V21.858z M89.24,96.947h-5.892v-5.888h5.892V96.947z M89.24,90.692h-5.892V84.8
				h5.892V90.692z M89.24,84.434h-5.892v-5.889h5.892V84.434z M89.24,78.175h-5.892v-5.889h5.892V78.175z M89.24,71.92h-5.892
				v-5.892h5.892V71.92z M89.24,65.662h-5.892V59.77h5.892V65.662z M89.24,59.403h-5.892v-5.889h5.892V59.403z M89.24,53.144h-5.892
				v-5.888h5.892V53.144z M89.24,46.889h-5.892v-5.892h5.892V46.889z M89.24,40.63h-5.892v-5.89h5.892V40.63z M89.24,34.371h-5.892
				v-5.888h5.892V34.371z M89.24,28.115h-5.892v-5.89h5.892V28.115z M89.24,21.858h-5.892v-5.89h5.892V21.858z M95.497,96.947h-5.89
				v-5.888h5.89V96.947z M95.497,90.692h-5.89V84.8h5.89V90.692z M95.497,84.434h-5.89v-5.889h5.89V84.434z M95.497,78.175h-5.89
				v-5.889h5.89V78.175z M95.497,71.92h-5.89v-5.892h5.89V71.92z M95.497,65.662h-5.89V59.77h5.89V65.662z M95.497,59.403h-5.89
				v-5.889h5.89V59.403z M95.497,53.144h-5.89v-5.888h5.89V53.144z M95.497,46.889h-5.89v-5.892h5.89V46.889z M95.497,40.63h-5.89
				v-5.89h5.89V40.63z M95.497,34.371h-5.89v-5.888h5.89V34.371z M95.497,28.115h-5.89v-5.89h5.89V28.115z M95.497,21.858h-5.89
				v-5.89h5.89V21.858z"/>
		</g>
		<g>
			<path d="M93.103,104.862H16.906c-5.684,0-10.307-4.621-10.307-10.309V18.36c0-5.684,4.623-10.305,10.307-10.305h76.197
				c5.684,0,10.307,4.621,10.307,10.305v76.193C103.41,100.241,98.787,104.862,93.103,104.862z M16.906,10.999
				c-4.058,0-7.363,3.304-7.363,7.361v76.193c0,4.062,3.305,7.363,7.363,7.363h76.197c4.06,0,7.363-3.302,7.363-7.363V18.36
				c0-4.058-3.303-7.361-7.363-7.361H16.906z"/>
			<g>
				<rect x="20.588" y="34.557" width="6.257" height="6.258"/>
				<rect x="20.588" y="22.041" width="6.257" height="6.257"/>
				<rect x="33.104" y="34.557" width="6.258" height="6.258"/>
				<rect x="33.104" y="22.041" width="6.258" height="6.257"/>
				<rect x="45.621" y="84.619" width="6.255" height="6.255"/>
				<rect x="45.621" y="72.102" width="6.255" height="6.258"/>
				<rect x="45.621" y="59.588" width="6.255" height="6.255"/>
				<rect x="45.621" y="47.072" width="6.255" height="6.257"/>
				<rect x="45.621" y="34.557" width="6.255" height="6.258"/>
				<rect x="45.621" y="22.041" width="6.255" height="6.257"/>
				<rect x="58.134" y="84.619" width="6.258" height="6.255"/>
				<rect x="58.134" y="72.102" width="6.258" height="6.258"/>
				<rect x="58.134" y="59.588" width="6.258" height="6.255"/>
				<rect x="58.134" y="47.072" width="6.258" height="6.257"/>
				<rect x="58.134" y="34.557" width="6.258" height="6.258"/>
				<rect x="58.134" y="22.041" width="6.258" height="6.257"/>
				<rect x="70.649" y="34.557" width="6.259" height="6.258"/>
				<rect x="70.649" y="22.041" width="6.259" height="6.257"/>
				<rect x="83.165" y="34.557" width="6.259" height="6.258"/>
				<rect x="83.165" y="22.041" width="6.259" height="6.257"/>
			</g>
		</g>
	</g>
	<g>
		<path id="text_2_" fill="#231F20" d="M221.002,101.757h4.491V91.6h31.033v10.157h4.49v-34.11h-40.014V101.757z M225.493,74.997
			h31.033v9.256h-31.033V74.997z M122.666,74.997h16.541v26.761h4.491V74.997h16.531v-7.35h-37.563V74.997z M177.108,74.997h16.539
			v26.761h4.491V74.997h16.534v-7.35h-37.563V74.997z M166.287,101.757h4.491v-34.11h-4.491V101.757z M314.165,88.474h34.704v5.936
			h-34.704v7.348h39.195V81.121h-34.712v-6.124h34.712v-7.35h-39.195V88.474z M360.228,101.757h40.016v-34.11h-40.016V101.757z
			 M364.718,74.997h31.034V94.41h-31.034V74.997z M267.274,101.757h4.49V74.997h31.032v26.761h4.491v-34.11h-40.014V101.757z
			 M452.987,67.647v7.35h16.533v26.761h4.491V74.997h16.533v-7.35H452.987z M406.846,101.757h4.49v-13.38h34.705v-7.351h-34.705
			v-6.03h34.705v-7.35h-39.195V101.757z"/>
		<g>
			<path fill="#231F20" d="M187.302,18.153c-0.036,7.162-0.193,14.155-0.488,20.986c-0.295,6.83-0.61,10.777-0.949,11.839
				c-0.344,1.06-0.947,1.898-1.817,2.509c-0.87,0.611-2.256,0.917-4.16,0.917c-0.949,0-1.891-0.039-2.838-0.12l-1.129-4.345
				c1.229,0.096,2.228,0.144,3.01,0.144c1.904,0,3.01-0.616,3.313-1.857c0.302-1.236,0.618-9.846,0.962-25.823h-6.028
				c-0.424,13.936-2.817,23.799-7.121,32.243l-3.434-2.632c4.067-7.609,6.459-17.558,6.502-29.611h-5.417v-4.249h5.532l-0.007-6.867
				h4.023l0.013,6.867H187.302z M205.611,54.427h-3.988v-3.449h-7.395v3.4h-3.937V14.991h15.319V54.427z M201.623,46.585V19.337
				h-7.395v27.248H201.623z"/>
			<path fill="#231F20" d="M225.771,28.096h-4.468v12.069c1.415-0.708,2.687-1.383,3.808-2.028l0.085,4.491
				c-3.75,2.299-7.832,4.341-12.243,6.127l-1.035-4.147c2.386-1.018,4.183-1.804,5.374-2.367V28.096h-4.562v-4.247h4.562V11.225
				h4.01v12.624h4.468V28.096z M251.753,51.582l-2.543,3.402c-3.888-2.125-7.07-4.401-9.564-6.832
				c-2.773,2.578-6.007,4.741-9.692,6.492l-2.859-3.476c4.311-1.915,7.573-3.957,9.785-6.127c-2.522-3.299-4.498-6.716-5.661-11.846
				l0,0c-0.303,9.444-2.789,16.107-7.48,21.597l-3.392-2.632c2.242-2.543,3.952-5.441,5.124-8.687
				c1.178-3.251,1.76-7.053,1.76-13.005v-14.71h10.072v-4.46h3.982v4.46h10.252c-0.639,4.186-1.401,8.339-3.457,11.493l-3.585-1.735
				c1.875-3.047,1.963-3.9,2.243-5.556h-5.453v9.033h8.304c-0.754,6.95-3.621,11.784-7.134,16.095
				C244.524,47.306,247.621,49.473,251.753,51.582z M237.303,28.994V19.96h-6v9.033H237.303z M244.919,33.195h-9.633
				c1.106,4.005,2.592,6.415,4.447,8.828C241.65,39.594,243.872,37.185,244.919,33.195z"/>
			<path fill="#231F20" d="M333.039,19.601l-2.258,3.501c-2.024-2.317-4.424-4.507-7.213-6.566
				c-1.509,2.207-3.262,4.327-5.273,6.372h11.583v4.056h-4.671v3.693h6.523v4.004h-6.523v12.408c1.71-0.373,3.643-0.96,5.79-1.761
				l0.359,4.101c-5.61,1.961-11.058,3.506-16.352,4.634l-0.777-3.96c1.976-0.399,4.347-0.998,7.121-1.784V34.661h-6.396v-4.004
				h6.396v-3.693h-4.225v-2.971c-0.562,0.548-1.18,1.057-1.862,1.524l-1.438-4.201c3.277-2.721,6.087-6.132,8.438-10.233
				l4.072,0.986c-0.18,0.421-0.395,0.796-0.646,1.136C328.864,15.57,331.314,17.702,333.039,19.601z M319.847,46.825l-3.32,0.895
				c-0.352-3.362-0.934-6.661-1.753-9.896l3.306-0.938C319.077,40.729,319.667,44.043,319.847,46.825z M331.443,37.919
				c-0.482,3.059-1.149,5.504-1.991,7.336l-3.074-1.035c0.87-2.865,1.473-5.375,1.817-7.531L331.443,37.919z M354.199,51.631
				l-2.81,3.399c-4.722-7.208-7.652-13.813-8.788-19.813c-0.783,3.333-1.89,6.197-2.772,8.432c2.133,2.142,4.124,4.433,5.948,6.878
				l-2.909,2.814c-1.179-1.817-2.738-3.806-4.671-5.961c-1.301,2.495-2.961,5.045-4.979,7.65l-2.81-3.112
				c5.633-7.063,8.822-15.252,9.556-24.569h-7.659v-4.294h7.796c0.129-3.204,0.223-7.124,0.287-11.756h3.937
				c-0.028,5.73-0.071,9.646-0.128,11.756h9.428v4.294h-8.94C345.906,36.085,349.083,44.178,354.199,51.631z"/>
			<path fill="#231F20" d="M374.252,44.364c-3.758,2.221-8.248,4.423-13.479,6.614l-1.172-4.153
				c1.904-0.723,3.736-1.513,5.489-2.365V28.047h-4.892v-4.247h4.892V11.298h4.031v12.502h4.714v4.247h-4.714v14.337
				c1.028-0.402,2.745-1.276,5.13-2.629V44.364z M400.141,53.244h-26.744v-4.149h26.744V53.244z M397.798,43.01H376.25V12.384
				h21.548V43.01z M393.724,25.32v-8.784h-13.35v8.784H393.724z M393.724,38.909v-9.436h-13.35v9.436H393.724z"/>
			<path fill="#231F20" d="M424.57,14.605c-2.062,0.758-4.298,1.342-6.705,1.76v6.399h5.712v4.149h-5.712v1.375
				c2.371,2.704,4.398,5.504,6.066,8.4l-2.817,3.258c-1.07-2.348-2.156-4.353-3.249-6.007v20.439h-3.944V34.806
				c-2.104,4.491-4.152,7.771-6.128,9.849l-2.299-3.91c3.153-3.478,5.892-8.089,8.204-13.831h-7.766v-4.149h7.988v-5.698
				c-1.917,0.323-3.929,0.557-6.043,0.699l-1.701-4.002c5.769-0.309,11.252-1.265,16.446-2.876L424.57,14.605z M445.42,42.726
				l-4.203,0.7v11.047h-4.008l-0.267-10.451l-14.184,2.179l-0.093-4.407l14.543-2.229v-28.17h4.008v27.591l4.075-0.556
				L445.42,42.726z M435.218,33.139l-2.723,3.309c-1.904-2.655-4.728-5.49-8.479-8.498l2.638-3.208
				C430.311,27.686,433.17,30.486,435.218,33.139z M435.858,21.17l-2.725,3.21c-2.535-3.124-5.209-5.824-8.004-8.11l2.802-3.112
				C430.957,15.713,433.601,18.386,435.858,21.17z"/>
			<path fill="#231F20" d="M465.144,33.333c-1.717,0.872-3.282,1.594-4.712,2.172v14.338c0,1.416-0.323,2.51-0.957,3.282
				c-0.639,0.771-1.695,1.171-3.189,1.193c-1.488,0.028-2.773,0.014-3.852-0.034l-1.258-4.297c1.589,0.065,2.961,0.095,4.118,0.095
				c0.28,0,0.545-0.142,0.804-0.42c0.259-0.282,0.388-0.598,0.388-0.954V37.149c-1.666,0.643-3.39,1.214-5.179,1.713l-1.086-4.056
				c2.831-0.934,4.922-1.688,6.265-2.267v-9.15h-5.754v-4.195h5.754v-8.016h3.946v8.016h4.16v4.195h-4.16v7.435
				c1.178-0.417,2.472-1.016,3.894-1.786L465.144,33.333z M490.394,51.168l-2.322,3.718c-4.282-2.04-7.809-4.321-10.605-6.833
				c-3.238,2.659-7.119,4.934-11.64,6.833l-2.233-3.958c4.368-1.61,8.04-3.557,11.021-5.84c-2.521-3.025-5.971-7.271-7.738-12.745
				l0,0v-4.149h8.737v-6.421h-9.607v-4.149h9.607v-6.276h4.074v6.276h9.513v4.149h-9.513v6.421h8.384v4.149
				c-2.104,5.537-4.634,9.819-7.572,12.842C482.999,47.44,486.291,49.434,490.394,51.168z M483.625,32.343h-12.352
				c1.121,3.686,4.073,6.985,6.424,9.897C480.16,39.536,482.137,36.236,483.625,32.343z"/>
			<g>
				<path fill="#231F20" d="M286.795,38.338h-19.551v10.762h19.551V38.338z M282.893,45.292h-11.704v-3.262h11.704V45.292z"/>
				<path fill="#231F20" d="M287.096,19.895h9.658v-4.14h-17.818v-4.394h-3.982v4.394h-17.912v4.14h9.484l1.745,4.203h-9.189v30.387
					h3.96V28.058h7.457c-0.028,3.298-2.232,5.327-6.616,6.081l1.946,3.695c5.655-1.257,8.479-4.515,8.479-9.776h5.181v4.683
					c0,0.754,0.295,1.453,0.885,2.097c0.588,0.646,1.234,0.966,1.925,0.966h8.522v13.494c0,0.434-0.145,0.727-0.439,0.878
					c-0.302,0.152-1.329,0.229-3.097,0.229c-0.654,0-1.365-0.021-2.133-0.072l1.263,4.104c1.108,0.08,2.042,0.121,2.797,0.121
					c1.442,0,2.479-0.137,3.103-0.413c0.634-0.271,1.186-0.768,1.676-1.482c0.487-0.717,0.724-1.557,0.724-2.521V24.098h-9.182
					l0.675-1.791L287.096,19.895z M290.819,32.11h-6.79c-0.137,0-0.28-0.095-0.446-0.288c-0.165-0.194-0.244-0.362-0.244-0.507
					v-3.257h7.48V32.11z M272.238,24.098l-1.617-4.203h12.51l-1.652,4.203H272.238z"/>
			</g>
			<g>
				<path fill="#231F20" d="M144.235,33.865h-8.479v-3.887h7.768v-3.958h-4.226l1.336-6.06h2.659v-4.189h-7.429v-4.409h-3.9v4.409
					h-7.904v4.189h2.664l1.488,6.06h-4.319v3.958h7.875v3.887h-8.342v4.103l8.558-0.021v16.507h3.765V37.925l8.486,0.042V33.865z
					 M131.833,26.021l-1.373-6.06h6.569l-1.417,6.06H131.833z"/>
				<path fill="#231F20" d="M150.183,25.972v-7.201c4.383-0.934,8.227-2.181,11.519-3.744l-2.774-3.666
					c-3.464,1.687-7.724,2.911-12.79,3.666v16.569c0,8.931-1.48,15.558-4.426,19.885l3.292,2.946
					c3.369-4.875,5.094-13.382,5.179-24.645h4.585v24.597h3.944V29.782h4.11v-3.81H150.183z"/>
				<path fill="#231F20" d="M140.067,39.281l-3.305,1.642c1.221,2.288,2.17,4.69,2.853,7.21l3.218-1.97
					C142.338,44.079,141.417,41.787,140.067,39.281z"/>
				<path fill="#231F20" d="M122.815,48.555l3.197,2.61c1.465-2.257,2.91-5.466,4.326-9.632l-3.436-1.76
					C125.718,43.267,124.353,46.195,122.815,48.555z"/>
			</g>
		</g>
	</g>
</g>
</svg>
