<svg xmlns="http://www.w3.org/2000/svg" width="556" height="139" viewBox="0 0 556 139"><path fill="#F7941D" d="M136.338-145h22v22h-22z"/><path fill="#808284" d="M252.706-145.001h22v22.002h-22z"/><path d="M166.702-131.6v-6.442h1.283l1.525 4.562c.141.425.242.742.307.953.073-.233.188-.578.344-1.032l1.542-4.482h1.147v6.442h-.822v-5.393l-1.872 5.393h-.769l-1.863-5.484v5.484h-.822zM174.345-135.365v-.901h.9v.901h-.9zm0 3.765v-.9h.9v.9h-.9zM176.405-133.287l.831-.07c.062.404.204.708.429.912.224.203.494.305.811.305.381 0 .703-.143.967-.43s.396-.668.396-1.143c0-.451-.127-.808-.38-1.068-.254-.261-.586-.391-.996-.391-.254 0-.484.058-.689.173a1.352 1.352 0 0 0-.483.45l-.743-.096.625-3.31h3.203v.756h-2.57l-.348 1.731c.387-.27.792-.404 1.217-.404.562 0 1.037.195 1.424.584.387.391.58.892.58 1.504 0 .583-.17 1.087-.51 1.512-.412.521-.977.781-1.691.781-.586 0-1.064-.163-1.435-.492-.373-.327-.585-.762-.638-1.304zM181.411-134.777c0-.761.079-1.374.235-1.839.157-.464.39-.822.699-1.074.309-.252.697-.378 1.167-.378.345 0 .648.069.909.209.261.139.476.34.646.602.17.263.304.582.4.958.097.377.145.885.145 1.522 0 .756-.077 1.366-.232 1.831-.155.464-.388.823-.696 1.076-.31.254-.7.38-1.171.38-.622 0-1.109-.222-1.464-.668-.425-.535-.638-1.408-.638-2.619zm.814 0c0 1.059.124 1.762.371 2.112.248.35.553.524.917.524.362 0 .668-.176.916-.527.247-.352.371-1.055.371-2.109 0-1.06-.124-1.765-.371-2.113-.248-.349-.557-.523-.926-.523-.363 0-.653.154-.869.462-.274.391-.409 1.117-.409 2.174zM197.552-131.6v-2.729l-2.483-3.714h1.037l1.271 1.942c.233.363.452.727.654 1.09.193-.337.428-.717.703-1.139l1.248-1.894h.993l-2.571 3.714v2.729h-.852zM201.858-135.365v-.901h.9v.901h-.9zm0 3.765v-.9h.9v.9h-.9zM206.899-131.6h-.791v-5.041c-.191.183-.44.364-.75.545a5.21 5.21 0 0 1-.832.409v-.765c.441-.208.828-.46 1.16-.756.33-.296.564-.583.703-.861h.51v6.469zM208.925-134.777c0-.761.079-1.374.235-1.839.157-.464.39-.822.699-1.074.309-.252.697-.378 1.167-.378.345 0 .648.069.909.209.261.139.476.34.646.602.17.263.304.582.4.958.097.377.145.885.145 1.522 0 .756-.077 1.366-.232 1.831-.155.464-.388.823-.696 1.076-.31.254-.7.38-1.171.38-.622 0-1.109-.222-1.464-.668-.425-.535-.638-1.408-.638-2.619zm.813 0c0 1.059.124 1.762.371 2.112.248.35.553.524.917.524.362 0 .668-.176.916-.527.247-.352.371-1.055.371-2.109 0-1.06-.124-1.765-.371-2.113-.248-.349-.557-.523-.926-.523-.363 0-.653.154-.869.462-.273.391-.409 1.117-.409 2.174zM213.931-134.777c0-.761.079-1.374.235-1.839.157-.464.39-.822.699-1.074.309-.252.697-.378 1.167-.378.345 0 .648.069.909.209.261.139.476.34.646.602.17.263.304.582.4.958.097.377.145.885.145 1.522 0 .756-.077 1.366-.232 1.831-.155.464-.388.823-.696 1.076-.31.254-.7.38-1.171.38-.622 0-1.109-.222-1.464-.668-.425-.535-.638-1.408-.638-2.619zm.813 0c0 1.059.124 1.762.371 2.112.248.35.553.524.917.524.362 0 .668-.176.916-.527.247-.352.371-1.055.371-2.109 0-1.06-.124-1.765-.371-2.113-.248-.349-.557-.523-.926-.523-.363 0-.653.154-.869.462-.273.391-.409 1.117-.409 2.174z"/><g><path d="M285.437-131.6v-6.442h.853v3.194l3.199-3.194h1.156l-2.703 2.61 2.821 3.832h-1.125l-2.294-3.261-1.055 1.028v2.232h-.852zM291.594-135.365v-.901h.9v.901h-.9zm0 3.765v-.9h.9v.9h-.9zM297.76-136.465l-.787.062c-.07-.311-.17-.537-.299-.678a1.05 1.05 0 0 0-.791-.338c-.252 0-.474.07-.664.211-.249.182-.445.447-.588.795-.145.35-.219.846-.225 1.49.19-.29.423-.506.699-.646.274-.141.563-.211.865-.211.527 0 .977.194 1.347.583.371.388.556.89.556 1.505 0 .404-.087.78-.261 1.127-.175.348-.414.613-.719.798s-.65.276-1.037.276c-.659 0-1.197-.242-1.612-.727-.417-.485-.625-1.284-.625-2.397 0-1.245.23-2.15.69-2.716.401-.492.941-.738 1.622-.738.506 0 .922.143 1.245.426.325.286.518.678.584 1.178zm-3.231 2.777c0 .273.058.534.174.783.115.249.277.438.485.568.208.131.427.195.655.195.334 0 .62-.134.861-.404.239-.269.359-.635.359-1.098 0-.445-.118-.797-.355-1.053a1.167 1.167 0 0 0-.896-.385 1.22 1.22 0 0 0-.91.385c-.249.258-.373.594-.373 1.009zM298.66-134.777c0-.761.079-1.374.235-1.839.157-.464.39-.822.699-1.074.309-.252.697-.378 1.167-.378.345 0 .648.069.909.209.261.139.476.34.646.602.17.263.304.582.4.958.097.377.145.885.145 1.522 0 .756-.077 1.366-.232 1.831-.155.464-.388.823-.696 1.076-.31.254-.7.38-1.171.38-.622 0-1.109-.222-1.464-.668-.425-.535-.638-1.408-.638-2.619zm.814 0c0 1.059.124 1.762.371 2.112.248.35.553.524.917.524.362 0 .668-.176.916-.527.247-.352.371-1.055.371-2.109 0-1.06-.124-1.765-.371-2.113-.248-.349-.557-.523-.926-.523-.363 0-.653.154-.869.462-.274.391-.409 1.117-.409 2.174z"/></g><g><g fill="#808284"><path d="M497.945 98.641v-88c0-.084-.01-.166-.014-.25.004-.083.014-.165.014-.25a5.5 5.5 0 0 0-5.5-5.5c-.084 0-.166.01-.25.014-.084-.004-.166-.014-.25-.014h-35c-.084 0-.166.01-.25.014-.084-.004-.166-.014-.25-.014a5.5 5.5 0 0 0-5.5 5.5c0 .085.008.167.012.25-.002.084-.012.166-.012.25v94h5.5a5.5 5.5 0 0 0 5.5-5.5V68.64h25v25h-12.336l4.785 8.295.01.006a5.497 5.497 0 0 0 4.729 2.699h7.812c.084 0 .166-.01.25-.012.084.004.166.012.25.012a5.5 5.5 0 0 0 5.5-5.5c0-.088-.008-.172-.012-.26.003-.079.012-.157.012-.239zm-11-66.001h-25v-17h25v17zm-25 26v-16h25v16h-25zM550.945 10.14a5.5 5.5 0 0 0-5.5-5.5c-.084 0-.166.01-.25.014-.084-.004-.166-.014-.25-.014h-35c-.084 0-.166.01-.25.014-.084-.004-.166-.014-.25-.014a5.5 5.5 0 0 0-5.5 5.5c0 .088.008.174.014.26-.004.081-.014.16-.014.24v94h5.5a5.5 5.5 0 0 0 5.5-5.5v-30.5h25v25h-12.336l4.758 8.262.021.012a5.491 5.491 0 0 0 4.744 2.727h7.812c.084 0 .166-.01.25-.012.084.004.166.012.25.012a5.5 5.5 0 0 0 5.5-5.5c0-.084-.01-.166-.014-.25.004-.084.014-.166.014-.25v-88c0-.084-.01-.166-.014-.25.006-.084.015-.166.015-.251zm-11 22.5h-25v-17h25v17zm-25 26v-16h25v16h-25zM436.945 58.578v-14l-11.303 14.051c-4.373-20.118-6.297-37.986-6.297-37.986v-.003h14.6c.324 0 .645-.037.957-.098.016-.004.033-.005.051-.008.309-.064.609-.16.898-.279l.039-.016a4.992 4.992 0 0 0 1.895-1.396c.295-.354.529-.756.711-1.184.021-.048.043-.096.062-.145.094-.241.172-.488.23-.74.021-.096.039-.191.055-.289a5.28 5.28 0 0 0 .082-.801c0-.016.004-.029.004-.045 0-.021-.006-.041-.006-.062 0-.314-.021-.629-.078-.938l-2.9-10h-10l1.75 6h-8.75v-6h-10v6h-64a6.21 6.21 0 0 0-.645.036c-.121-.009-.234-.036-.355-.036a5 5 0 0 0-5 5c0 .122.027.236.035.355a6.569 6.569 0 0 0-.035.645v88h5a5 5 0 0 0 5-5v-59h13v8h-8v10h8v4l.018-.006c.121 12.143 1.164 16.686 10.129 22.924-5.986 2.785-11.371 4.848-14.145 6.082v11c4.467-1.896 15.508-6.758 24-11.213 8.49 4.455 19.531 9.316 23.998 11.213v-11c-2.773-1.234-8.158-3.297-14.145-6.082 9.887-6.879 10.139-11.695 10.145-26.918h8l-2-10h-36v-8h39.725c1.291 8.148 3.045 17.798 5.275 27 2.857 11.801 7.701 27.651 9.803 33.635.031.09.07.168.109.246a4.995 4.995 0 0 0 4.627 3.119h7.461s-5.98-16.889-10.721-35.222l8.721-10.839zm-54.998 21.887c-9.807-5.721-9.996-7.723-10-21.825h19.998c-.002 14.102-.193 16.104-9.998 21.825zM348.945 30.64v-10h60s.414 3.91 1.248 10h-61.248z"/></g><path fill="#808284" d="M281.945 40.64h-37v64h12v-52h25c8.283 0 15 6.717 15 15v37h12v-37c0-14.91-12.088-27-27-27z"/><path fill="#F7941D" d="M211.945 40.64h-10c-14.911 0-27 12.09-27 27v10c0 14.912 12.089 27 27 27h10c14.911 0 27-12.088 27-27v-10c0-14.91-12.089-27-27-27zm15 37.001c0 8.285-6.716 15-15 15h-10c-8.284 0-15-6.715-15-15v-10c0-8.283 6.716-15 15-15h10c8.284 0 15 6.717 15 15h.001l-.001 10z"/><path fill="#808284" d="M168.944 67.64c.001-14.91-12.088-27-26.999-27h-37v94h6.001a6 6 0 0 0 5.998-5.998h.001V52.64h25c8.284 0 15 6.717 15 15v10c0 8.285-6.716 15-15 15h-18v6.002a6 6 0 0 0 6 5.998h12c14.911 0 27-12.088 27-27h-.001v-10zM110.945 10.64h-9.008a6 6 0 0 0-5.688 4.1l-.013.01-31.403 73.398c-.006.002-.027.006-.028.008-1.137 2.668-3.777 4.545-6.859 4.545-3.072 0-5.707-1.865-6.85-4.52-.001-.002-.013-.004-.015-.006L19.669 14.857a6.002 6.002 0 0 0-5.725-4.201h-.004l-.022-.016H4.945l35.107 82.063.062.145.158.369h.017c3.041 6.73 9.789 11.424 17.656 11.424 8.07 0 14.976-4.932 17.896-11.945l.03.006 35.074-82.062z"/></g></svg>