<?xml version="1.0" encoding="utf-8"?>
<!-- Generator: Adobe Illustrator 16.0.0, SVG Export Plug-In . SVG Version: 6.00 Build 0)  -->
<!DOCTYPE svg PUBLIC "-//W3C//DTD SVG 1.1//EN" "http://www.w3.org/Graphics/SVG/1.1/DTD/svg11.dtd">
<svg version="1.1" id="Layer_1" xmlns="http://www.w3.org/2000/svg" xmlns:xlink="http://www.w3.org/1999/xlink" x="0px" y="0px"
	 width="391px" height="99px" viewBox="0 0 391 99" enable-background="new 0 0 391 99" xml:space="preserve">
<g>
	<g>
		<path fill="#0599CD" d="M117.597,25.047h24.612v3.804h-10.697c0,3.121-0.022,5.148-0.065,6.08h12.062v3.804h-11.802
			c0.888,1.951,1.983,3.674,3.284,5.169c2.189,2.731,5.375,4.899,9.559,6.503l-2.341,3.674c-3.598-1.712-6.362-3.544-8.291-5.495
			c-1.539-1.496-2.85-3.305-3.934-5.43c-0.607,1.409-1.398,2.688-2.373,3.836c-2.536,2.839-6.037,5.028-10.502,6.567l-1.69-3.641
			c4.097-1.453,7.164-3.403,9.201-5.853c1.192-1.474,2.016-3.251,2.471-5.332h-10.924v-3.804h11.347c0-0.238,0-0.488,0-0.748
			c0.065-0.173,0.098-1.951,0.098-5.332h-10.014V25.047z"/>
		<path fill="#0599CD" d="M154.173,37.792c0.932,0.78,1.832,1.691,2.699,2.731l-2.081,1.691h2.991v-4.649h3.804v4.649h3.577
			l-2.146-1.138c0.954-1.105,1.679-2.2,2.178-3.284l3.284,1.073c-0.607,1.279-1.257,2.396-1.951,3.349h3.511v3.284h-6.567
			c2.557,1.3,4.91,2.547,7.055,3.739l-2.731,3.414c-2.016-1.431-4.086-2.872-6.21-4.324v5.494h-3.804v-6.145
			c-0.52,0.542-1.062,1.03-1.625,1.463c-2.363,1.604-4.368,2.731-6.015,3.382l-1.723-3.122c1.539-0.541,3.164-1.354,4.877-2.438
			c0.758-0.498,1.43-0.986,2.016-1.463h-6.08v-3.284h3.739c-0.585-0.715-1.236-1.441-1.951-2.178L154.173,37.792z M152.71,23.616
			l3.544,1.073c-0.13,0.39-0.26,0.78-0.39,1.17h20.808v3.251h-22.271c-0.152,0.304-0.325,0.607-0.52,0.91h20.061v2.991h-20.19
			v-2.764c-0.564,0.976-1.16,1.854-1.789,2.634l-3.121-2.341c0.889-0.975,1.636-2.091,2.244-3.349
			C151.8,25.936,152.342,24.744,152.71,23.616z M151.02,33.76h22.792c0,6.524,0.119,11.239,0.358,14.143
			c0.086,1.344,0.216,2.017,0.39,2.017c0.065,0,0.119-0.12,0.163-0.358c0.13-0.521,0.26-1.668,0.39-3.446l3.251,1.301
			c-0.607,2.773-1.312,4.552-2.114,5.332c-0.542,0.541-1.105,0.812-1.69,0.812c-1.17,0-2.113-0.899-2.829-2.698
			c-0.91-2.688-1.431-7.293-1.561-13.818h-19.15V33.76z"/>
		<path fill="#0599CD" d="M185.256,24.429h22.109c0,11.098,0.238,18.717,0.715,22.856c0.217,1.669,0.455,2.503,0.715,2.503v-3.771
			l3.35,1.301c-0.326,2.428-0.574,3.836-0.748,4.227c-0.477,1.431-1.344,2.146-2.602,2.146c-1.387,0-2.416-0.803-3.088-2.406
			c-1.41-3.837-2.113-11.629-2.113-23.377h-16.29v10.599c0,2.97-0.282,5.842-0.845,8.616c-0.455,2.232-1.214,4.508-2.276,6.828
			l-3.349-1.983c1.105-2.861,1.842-5.332,2.211-7.413c0.433-2.601,0.65-5.18,0.65-7.738V24.429H185.256z M200.83,28.168l1.82,3.284
			c-1.647,0.347-3.457,0.629-5.43,0.845v2.146h5.853v9.884h-5.853v3.023c0.802-0.065,1.594-0.13,2.373-0.195
			c-0.194-0.39-0.379-0.769-0.553-1.138l2.992-1.43c1.127,1.973,2.08,4.14,2.861,6.502l-3.382,1.431
			c-0.239-0.78-0.478-1.54-0.716-2.276c-4.053,0.586-8.496,1.073-13.33,1.463l-0.683-3.608c2.492-0.13,4.801-0.281,6.925-0.455
			v-3.316h-2.243v0.91h-3.479V34.443h5.722v-1.789c-1.495,0.109-3.056,0.185-4.682,0.228l-1.04-3.284
			C192.279,29.599,196.56,29.122,200.83,28.168z M191.466,40.913h2.243v-3.121h-2.243V40.913z M197.221,37.792v3.121h2.309v-3.121
			H197.221z"/>
		<path fill="#0599CD" d="M226.189,24.429l-3.544,10.144c0.866,1.17,1.561,2.417,2.081,3.739c0.629,1.604,0.943,3.133,0.943,4.584
			c-0.045,3.642-1.551,5.462-4.52,5.462h-1.431l-0.683-3.056v8.648h-3.739V24.429H226.189z M219.037,34.638l2.08-6.6h-2.08V34.638z
			 M219.037,44.165c0.823,0.282,1.527,0.423,2.113,0.423c0.477,0,0.726-0.563,0.748-1.691c0-1.105-0.217-2.254-0.65-3.446
			c-0.434-1.17-1.171-2.384-2.211-3.642V44.165z M227.912,44.685l3.479,0.553c-0.087,0.65-0.228,1.29-0.423,1.918
			c0.347,0.499,0.715,0.943,1.105,1.333c0.607,0.65,1.214,1.17,1.82,1.56l-2.601,3.219c-0.606-0.52-1.171-1.182-1.69-1.982
			c-0.131-0.195-0.26-0.391-0.391-0.586c-0.932,1.258-2.146,2.342-3.641,3.252l-2.244-2.991c1.431-0.867,2.504-1.821,3.219-2.861
			C227.197,47.188,227.652,46.05,227.912,44.685z M233.082,23.876l3.902,1.17c-0.174,0.304-0.358,0.597-0.553,0.878
			c1.17,0.824,2.361,1.561,3.576,2.211c1.733,0.954,3.424,1.712,5.072,2.276l-2.244,3.771c-0.953-0.433-1.907-0.91-2.861-1.431
			v1.561h-11.184v-1.138c-0.672,0.434-1.398,0.856-2.179,1.268l-2.731-2.731c2.168-1.191,3.945-2.406,5.332-3.641
			C230.795,26.727,232.085,25.329,233.082,23.876z M225.93,35.321h8.193v9.006h-8.193V35.321z M229.344,41.076h1.43v-2.471h-1.43
			V41.076z M232.042,30.769h4.909c-0.975-0.671-1.896-1.365-2.764-2.081c-0.455,0.499-0.943,0.986-1.463,1.463
			C232.508,30.369,232.28,30.574,232.042,30.769z M237.244,44.685l3.543,0.553c-0.107,0.759-0.26,1.485-0.455,2.179
			c0.586,0.629,1.192,1.192,1.821,1.69c0.911,0.716,1.799,1.29,2.666,1.724l-2.471,3.121c-0.867-0.607-1.713-1.334-2.536-2.179
			c-0.304-0.325-0.597-0.661-0.878-1.008c-0.78,1.235-1.777,2.298-2.991,3.187l-2.178-2.991c1.083-0.867,1.906-1.821,2.471-2.861
			C236.713,47.188,237.049,46.05,237.244,44.685z M235.195,35.321h8.453v9.006h-8.453V35.321z M238.674,41.076h1.432v-2.471h-1.432
			V41.076z"/>
		<path fill="#0599CD" d="M252.07,23.389l3.674,1.041c-0.088,0.26-0.174,0.51-0.261,0.748h7.543v2.666
			c0.368-0.456,0.716-0.943,1.04-1.463c0.672-1.019,1.192-1.972,1.561-2.861l3.609,1.04c-0.064,0.217-0.141,0.423-0.228,0.618h8.843
			v3.414h-4.486c0.521,0.412,1.02,0.845,1.496,1.301l-3.512,2.081c-0.803-1.148-1.701-2.276-2.698-3.381h-1.333
			c-0.694,1.149-1.441,2.146-2.244,2.991l-0.129-0.098v0.585h12.777v6.145h-3.771v-2.731h-21.752v2.731h-3.771V32.07h2.829
			l-2.958-2.178c0.845-0.911,1.581-1.972,2.21-3.187C251.203,25.535,251.723,24.429,252.07,23.389z M251.777,32.07h9.006v-1.301
			h3.283l-2.243-1.658c0.195-0.173,0.38-0.347,0.553-0.521h-3.315c0.367,0.412,0.693,0.845,0.975,1.301l-3.414,1.951
			c-0.52-1.083-1.127-2.167-1.82-3.251h-0.812c-0.022,0.022-0.033,0.044-0.033,0.065C253.305,29.957,252.578,31.094,251.777,32.07z
			 M273.008,36.622v7.576h-16.517v1.3h18.208v8.323h-3.74v-0.682h-14.468v0.812h-3.739v-17.33H273.008z M256.491,41.076h12.745v-1.3
			h-12.745V41.076z M256.491,50.049h14.468v-1.43h-14.468V50.049z"/>
		<path fill="#0599CD" d="M281.461,25.307h10.307v3.674h-3.413v5.722h2.731v3.642h-2.731v7.186c1.171-0.26,2.265-0.542,3.284-0.846
			l0.39,3.544c-3.056,0.953-6.395,1.82-10.015,2.602l-0.682-3.902c1.127-0.195,2.221-0.401,3.283-0.618v-7.966h-2.894v-3.642h2.894
			v-5.722h-3.154V25.307z M292.516,24.559h17.85v17.167h-7.022v1.788h6.893v3.674h-6.893v2.471h8.063v3.608h-20.191v-3.608h8.324
			v-2.471h-7.153v-3.674h7.153v-1.788h-7.023V24.559z M296.32,31.029h3.219v-2.861h-3.219V31.029z M296.32,38.052h3.219v-3.349
			h-3.219V38.052z M303.343,28.168v2.861h3.219v-2.861H303.343z M303.343,34.703v3.349h3.219v-3.349H303.343z"/>
		<path fill="#0599CD" d="M328.312,24.137v12.225h-9.396V53.82h-3.349V24.137H328.312z M318.916,28.721h6.016V27.55h-6.016V28.721z
			 M318.916,33.013h6.016v-1.17h-6.016V33.013z M321.16,37.435h16.256v3.349h-3.154v2.243h3.805v3.349h-3.805v6.405h-3.609v-6.405
			h-3.314c-0.219,1.214-0.576,2.276-1.074,3.186c-0.932,1.495-2.199,2.655-3.803,3.479l-2.244-2.861
			c1.322-0.715,2.297-1.68,2.926-2.894c0.174-0.26,0.314-0.563,0.424-0.91h-3.219v-3.349h3.738c0.021-0.195,0.033-0.39,0.033-0.585
			c0-0.086,0.01-0.639,0.031-1.658h-2.99V37.435z M330.652,43.026v-2.243h-2.99c0,1.084,0,1.832,0,2.243H330.652z M332.084,24.137
			h11.055v24.84c0,3.143-1.344,4.715-4.031,4.715c-0.824,0-1.779-0.098-2.861-0.293l-0.812-3.869c1.061,0.346,2.059,0.52,2.99,0.52
			c0.781,0,1.17-0.834,1.17-2.503V36.361h-9.201V24.137H332.084z M333.775,28.721h5.818V27.55h-5.818V28.721z M339.594,33.013v-1.17
			h-5.818v1.17H339.594z"/>
		<path fill="#0599CD" d="M353.38,28.591c0.802,0.607,1.594,1.312,2.374,2.113c1.278-0.888,2.427-1.896,3.446-3.023h-9.722v-3.414
			h14.599v1.268c0.585,0.455,1.181,0.889,1.788,1.301c1.517-0.781,2.915-1.767,4.194-2.959l2.73,2.244
			c-1.084,1.04-2.287,1.973-3.608,2.796c0.541,0.325,1.083,0.629,1.625,0.91c1.322-0.758,2.536-1.744,3.642-2.958l2.991,2.341
			c-0.867,0.911-1.843,1.723-2.926,2.438c1.321,0.564,2.611,1.062,3.869,1.496l-1.951,3.479c-1.344-0.499-2.645-1.083-3.901-1.756
			v1.138c0,0.824,0.086,1.312,0.26,1.463c0.13,0.065,0.271,0.098,0.423,0.098c0.151,0,0.281-0.011,0.391-0.033
			c0.107-0.043,0.194-0.086,0.26-0.13c0.108-0.108,0.184-0.499,0.228-1.17l3.512,1.69c-0.131,1.41-0.542,2.276-1.236,2.601
			c-0.39,0.152-0.812,0.26-1.268,0.325c-0.672,0.044-1.301,0.065-1.886,0.065c-1.582,0-2.568-0.163-2.959-0.487
			c-0.932-0.195-1.397-1.366-1.397-3.512v-0.91h-2.406c-0.195,1.625-0.597,2.818-1.203,3.576c-0.521,0.737-1.344,1.366-2.471,1.886
			h13.396v2.601c-1.02,1.93-2.2,3.522-3.544,4.779c1.474,0.521,3.175,0.921,5.104,1.203l-1.431,3.771
			c-2.753-0.434-5.181-1.246-7.283-2.438c-2.06,1.148-4.411,2.004-7.055,2.568l-1.789-3.414c2.168-0.369,4.064-0.889,5.69-1.561
			c-1.105-1.127-2.103-2.514-2.991-4.162h-1.528v-3.349h0.618l-1.431-2.666v3.154h-7.023l-0.228,1.691h7.673
			c-0.304,4.704-0.942,7.607-1.918,8.713c-0.845,0.976-2.07,1.463-3.674,1.463c-1.04,0-2.211-0.141-3.512-0.422l-0.942-3.869
			c1.517,0.26,2.774,0.391,3.771,0.391c0.78,0,1.321-0.12,1.626-0.358c0.498-0.39,0.834-1.224,1.008-2.503h-4.454l-0.098,0.618
			h-3.674l1.072-9.071h6.763v-2.113h-3.283v-0.618c-1.647,0.78-3.284,1.344-4.91,1.69l-1.17-2.991
			c1.538-0.433,3.034-0.997,4.486-1.69c-0.606-0.672-1.279-1.333-2.016-1.983L353.38,28.591z M360.533,38.247
			c0.715-0.303,1.257-0.726,1.625-1.268c0.477-0.671,0.727-2.134,0.748-4.389h5.56c-1.907-1.17-3.729-2.417-5.462-3.739
			c-1.561,1.712-3.133,3.143-4.715,4.292h2.244V38.247z M366.873,44.815c0.736,0.91,1.539,1.68,2.406,2.308
			c0.953-0.693,1.755-1.463,2.405-2.308H366.873z"/>
	</g>
</g>
<g>
	<path fill="#0599CD" stroke="#0599CD" stroke-width="0.5" stroke-miterlimit="10" d="M58.967,80.526h1.482v2.148
		c0,0-0.095,1.22,0.877,2.011c0,0,0.757,0.712,1.914,0.734c0,0,1.309,0.145,2.33-0.908c0,0,0.643-0.597,0.696-1.588v-0.953v-3.58
		h1.937v4.374c0,0,0.114,1.323-0.87,2.661c0,0-1.134,1.658-3.396,1.908c0,0-1.8,0.295-3.382-0.81c0,0-0.99-0.59-1.588-1.771
		c0,0-0.355-0.688-0.438-1.429c0,0-0.023-0.272-0.027-0.696v-2.103H58.967z"/>
	<path fill="#0599CD" stroke="#0599CD" stroke-width="0.5" stroke-miterlimit="10" d="M47.392,42.79
		c0.109-0.418,0.306-0.808,0.59-1.17c0.288-0.36,0.636-0.667,1.048-0.915c0.409-0.249,0.88-0.442,1.41-0.587
		c0.522-0.141,1.098-0.213,1.72-0.213c0.667,0,1.294,0.072,1.882,0.213c0.588,0.145,1.102,0.35,1.542,0.619
		c0.442,0.272,0.787,0.611,1.046,1.018c0.26,0.405,0.388,0.87,0.388,1.396l0.023,7.961h-2.068l0.016-1.083
		c-0.573,0.437-1.199,0.765-1.875,0.978c-0.675,0.223-1.362,0.332-2.063,0.332c-1.288,0-2.276-0.3-2.959-0.903
		c-0.343-0.286-0.599-0.622-0.768-1.016c-0.173-0.392-0.259-0.802-0.259-1.239c0-0.466,0.082-0.87,0.247-1.207
		c0.161-0.336,0.38-0.627,0.662-0.87c0.279-0.239,0.595-0.433,0.955-0.583c0.354-0.151,0.725-0.271,1.115-0.36
		c0.279-0.063,0.591-0.114,0.931-0.159c0.341-0.043,0.7-0.099,1.082-0.157c0.381-0.057,0.777-0.136,1.186-0.227
		c0.409-0.088,0.816-0.216,1.218-0.384c0.528-0.208,0.683-0.609,0.468-1.193c-0.153-0.451-0.479-0.785-0.965-1.003
		c-0.49-0.216-1.092-0.33-1.802-0.33c-0.622,0.031-1.183,0.146-1.689,0.34c-0.504,0.197-0.84,0.527-1.01,0.993L47.392,42.79z
		 M54.973,45.68c-0.142,0.119-0.369,0.227-0.686,0.315c-0.322,0.087-0.672,0.171-1.062,0.245c-0.386,0.076-0.769,0.149-1.148,0.204
		c-0.381,0.06-0.702,0.118-0.967,0.182c-0.604,0.121-1.062,0.298-1.368,0.541c-0.313,0.242-0.467,0.571-0.467,0.995
		c0,0.346,0.074,0.621,0.222,0.832c0.144,0.209,0.332,0.375,0.557,0.496c0.225,0.123,0.471,0.201,0.742,0.239
		c0.272,0.035,0.54,0.038,0.8,0.008c0.435-0.028,0.86-0.108,1.269-0.238c0.412-0.127,0.773-0.305,1.083-0.54
		c0.31-0.232,0.557-0.524,0.743-0.879c0.188-0.353,0.281-0.778,0.281-1.273V45.68z"/>
	<path fill="#0599CD" stroke="#0599CD" stroke-width="0.5" stroke-miterlimit="10" d="M58.414,40.153h1.138v-3.539h2.05v3.539h2.697
		v1.985h-2.697v5.143c0,0.72,0.104,1.238,0.315,1.556c0.21,0.315,0.644,0.472,1.312,0.472h1.209v1.989h-1.209
		c-0.76,0-1.375-0.098-1.849-0.289c-0.474-0.186-0.844-0.451-1.117-0.798c-0.272-0.345-0.458-0.766-0.556-1.263
		c-0.106-0.496-0.155-1.05-0.155-1.666v-5.143h-1.138V40.153z"/>
	<path fill="#0599CD" stroke="#0599CD" stroke-width="0.5" stroke-miterlimit="10" d="M75.949,51.113h-2.048v-6.024
		c0-0.417-0.017-0.771-0.057-1.057c-0.042-0.287-0.088-0.521-0.148-0.71c-0.064-0.188-0.143-0.342-0.235-0.464
		c-0.093-0.118-0.184-0.223-0.278-0.314c-0.187-0.166-0.442-0.331-0.768-0.496c-0.326-0.163-0.745-0.25-1.255-0.25
		c-0.482,0-0.885,0.087-1.209,0.25c-0.325,0.165-0.583,0.33-0.768,0.496c-0.094,0.091-0.197,0.193-0.304,0.303
		c-0.107,0.116-0.21,0.26-0.298,0.443c-0.094,0.182-0.172,0.414-0.222,0.698c-0.057,0.287-0.081,0.654-0.081,1.103v6.024h-2.046
		V36.002h2.046v5.098c0.338-0.315,0.762-0.593,1.266-0.833c0.506-0.239,1.039-0.361,1.617-0.361c0.852,0,1.581,0.123,2.187,0.361
		c0.604,0.241,1.097,0.586,1.474,1.037c0.382,0.451,0.665,0.997,0.849,1.634c0.189,0.639,0.28,1.357,0.28,2.15V51.113z"/>
	<path fill="#0599CD" stroke="#0599CD" stroke-width="0.5" stroke-miterlimit="10" d="M87.556,46.58H79.6
		c0.045,0.465,0.124,0.885,0.236,1.251c0.109,0.368,0.272,0.677,0.498,0.924c0.227,0.25,0.515,0.442,0.875,0.577
		c0.356,0.134,0.795,0.202,1.325,0.202c0.636,0,1.127-0.105,1.474-0.315c0.35-0.209,0.611-0.444,0.78-0.7l2.185,0.341
		c-0.324,0.813-0.876,1.446-1.659,1.905c-0.782,0.456-1.708,0.686-2.779,0.686c-0.948,0-1.739-0.146-2.374-0.452
		c-0.631-0.3-1.146-0.709-1.536-1.229c-0.39-0.516-0.669-1.122-0.841-1.814c-0.167-0.691-0.25-1.428-0.25-2.21
		c0-0.825,0.082-1.587,0.244-2.286c0.162-0.7,0.434-1.308,0.824-1.816c0.384-0.513,0.9-0.911,1.541-1.196
		c0.645-0.285,1.444-0.425,2.401-0.425c0.945,0,1.738,0.14,2.379,0.425c0.643,0.285,1.164,0.683,1.556,1.196
		c0.396,0.508,0.672,1.116,0.835,1.816c0.163,0.699,0.245,1.461,0.245,2.286V46.58z M82.542,41.935c-0.402,0-0.78,0.051-1.132,0.146
		c-0.35,0.095-0.662,0.258-0.934,0.486c-0.271,0.222-0.484,0.523-0.64,0.891c-0.159,0.366-0.241,0.82-0.258,1.361h5.931
		c0-0.554-0.079-1.016-0.234-1.385c-0.156-0.37-0.372-0.663-0.641-0.892c-0.274-0.225-0.589-0.383-0.948-0.472
		C83.327,41.982,82.948,41.935,82.542,41.935z"/>
	<path fill="#0599CD" stroke="#0599CD" stroke-width="0.5" stroke-miterlimit="10" d="M95.369,42.181
		c-0.186-0.102-0.397-0.19-0.627-0.269c-0.231-0.076-0.506-0.103-0.814-0.09c-0.455,0.015-0.852,0.114-1.198,0.292
		c-0.35,0.182-0.644,0.423-0.884,0.727c-0.241,0.297-0.431,0.645-0.568,1.032c-0.145,0.395-0.213,0.791-0.213,1.197v6.158H89.02
		V40.241h2.045v1.311c0.11-0.227,0.269-0.432,0.478-0.623c0.213-0.188,0.449-0.347,0.709-0.482c0.261-0.134,0.544-0.241,0.85-0.315
		c0.303-0.077,0.595-0.11,0.873-0.11c0.465,0,0.931,0.059,1.395,0.176V42.181z"/>
	<path fill="#0599CD" stroke="#0599CD" stroke-width="0.5" stroke-miterlimit="10" d="M66.634,79.498V65.881V52.819h6.703
		c1.396,0,2.432,0.354,3.108,1.062c0.675,0.708,1.016,1.653,1.016,2.837c0,0.688-0.111,1.258-0.331,1.717
		c-0.223,0.451-0.535,0.822-0.94,1.107c-0.407,0.289-0.893,0.488-1.452,0.606c-0.562,0.117-1.193,0.176-1.891,0.176
		c0.34,0.402,0.706,0.839,1.088,1.306c0.388,0.468,0.772,0.945,1.165,1.434c0.394,0.486,0.787,0.975,1.186,1.453
		c0.395,0.48,0.782,0.935,1.151,1.363h-1.495l-4.566-5.556h-3.632v5.556l-0.036,13.617H66.634z M67.743,53.831v5.479h5.594
		c0.414,0,0.804-0.039,1.174-0.115c0.372-0.076,0.696-0.222,0.974-0.427c0.278-0.209,0.495-0.489,0.661-0.845
		c0.163-0.358,0.247-0.817,0.247-1.372c0-0.529-0.08-0.97-0.236-1.318c-0.158-0.352-0.371-0.627-0.642-0.831
		c-0.27-0.194-0.593-0.339-0.971-0.422c-0.375-0.085-0.782-0.136-1.208-0.148H67.743z"/>
	<path fill="#0599CD" stroke="#0599CD" stroke-width="0.5" stroke-miterlimit="10" d="M79.85,56.406v9.475h-1.111v-9.475H79.85z
		 M78.76,52.819h1.089v0.995H78.76V52.819z"/>
	<path fill="#0599CD" stroke="#0599CD" stroke-width="0.5" stroke-miterlimit="10" d="M87.929,57.867
		c-0.212-0.26-0.536-0.461-0.97-0.603c-0.432-0.142-0.949-0.214-1.545-0.214c-0.423,0-0.822,0.033-1.191,0.105
		c-0.367,0.072-0.692,0.176-0.97,0.312c-0.276,0.138-0.493,0.3-0.649,0.489c-0.158,0.188-0.234,0.398-0.234,0.633
		c0,0.26,0.111,0.528,0.327,0.801c0.223,0.27,0.622,0.488,1.205,0.641c0.057,0.025,0.23,0.074,0.52,0.138
		c0.292,0.064,0.601,0.137,0.928,0.213c0.381,0.091,0.808,0.191,1.276,0.293c0.428,0.104,0.821,0.228,1.183,0.37
		c0.36,0.145,0.678,0.32,0.944,0.527c0.271,0.207,0.484,0.446,0.641,0.712c0.153,0.265,0.234,0.575,0.234,0.925
		c0,0.482-0.125,0.901-0.371,1.27c-0.25,0.361-0.582,0.665-0.991,0.904c-0.414,0.238-0.877,0.418-1.397,0.538
		c-0.516,0.116-1.042,0.176-1.562,0.176c-0.428,0-0.855-0.041-1.283-0.116c-0.424-0.082-0.824-0.195-1.202-0.354
		c-0.377-0.155-0.71-0.354-1.002-0.593c-0.29-0.239-0.512-0.516-0.669-0.83l1.239-0.174c0.098,0.165,0.251,0.32,0.458,0.463
		c0.208,0.138,0.444,0.259,0.708,0.36c0.262,0.102,0.548,0.186,0.852,0.24c0.307,0.057,0.609,0.085,0.908,0.085
		c0.499,0,0.944-0.051,1.343-0.154c0.402-0.107,0.738-0.242,1.015-0.418c0.278-0.176,0.491-0.379,0.631-0.613
		c0.142-0.233,0.214-0.473,0.214-0.718c0-0.119-0.017-0.243-0.055-0.382c-0.035-0.135-0.105-0.273-0.214-0.408
		c-0.106-0.134-0.254-0.267-0.448-0.387c-0.194-0.123-0.446-0.227-0.757-0.305c-0.372-0.09-0.756-0.186-1.154-0.291
		c-0.396-0.104-0.768-0.197-1.112-0.284c-0.338-0.081-0.627-0.151-0.859-0.213c-0.237-0.056-0.368-0.087-0.399-0.087
		c-0.627-0.169-1.16-0.442-1.601-0.816c-0.439-0.376-0.661-0.882-0.661-1.519c0-0.388,0.116-0.736,0.341-1.042
		c0.225-0.302,0.532-0.553,0.916-0.758c0.384-0.198,0.822-0.35,1.322-0.457c0.496-0.102,1.02-0.154,1.575-0.154
		c0.868,0,1.66,0.129,2.38,0.379c0.715,0.257,1.218,0.65,1.498,1.18L87.929,57.867z"/>
	<path fill="#0599CD" stroke="#0599CD" stroke-width="0.5" stroke-miterlimit="10" d="M92.384,52.819v8.013
		c0.312-0.301,0.668-0.641,1.067-1.025c0.395-0.381,0.808-0.771,1.227-1.168c0.424-0.398,0.834-0.789,1.238-1.183
		c0.408-0.389,0.774-0.737,1.101-1.05h1.518l-3.737,3.373c0.726,0.974,1.486,1.985,2.273,3.042c0.788,1.052,1.562,2.069,2.318,3.06
		h-1.368l-3.95-5.302l-1.687,1.52v3.782h-1.111V52.819H92.384z"/>
	<path fill="#0599CD" stroke="#0599CD" stroke-miterlimit="10" d="M99.696,50.793c0.023-0.509,0.035-1.022,0.035-1.537
		c0-18.055-14.81-32.69-33.082-32.69c-14.855,0-27.425,9.678-31.604,23l-0.007,0.023l-3.56,11.212h-2.41L24.854,39.37l-3.627,11.431
		h-2.415L13.25,35.69h2.571l4.159,12.042l3.524-12.042h2.517l4.217,12.042l2.248-7.691l0.005-0.026
		c4.572-15.569,19.114-26.95,36.344-26.95c20.899,0,37.841,16.741,37.841,37.392c0,0.111-0.001,0.224-0.002,0.336H99.696z"/>
	<path fill="#0599CD" stroke="#0599CD" stroke-width="0.5" stroke-miterlimit="10" d="M45.659,46.156h-7.955
		c0.045,0.465,0.123,0.882,0.234,1.251c0.104,0.368,0.276,0.676,0.499,0.924c0.227,0.249,0.514,0.441,0.872,0.576
		c0.356,0.139,0.798,0.202,1.326,0.202c0.634,0,1.127-0.104,1.479-0.314c0.348-0.211,0.605-0.442,0.778-0.699l2.184,0.335
		c-0.327,0.813-0.88,1.45-1.662,1.907c-0.782,0.462-1.711,0.69-2.778,0.69c-0.947,0-1.738-0.151-2.37-0.451
		c-0.636-0.302-1.147-0.712-1.539-1.229c-0.391-0.521-0.67-1.125-0.839-1.819c-0.171-0.688-0.253-1.424-0.253-2.208
		c0-0.827,0.082-1.589,0.242-2.288c0.161-0.698,0.438-1.305,0.823-1.816c0.39-0.51,0.902-0.91,1.545-1.193
		c0.64-0.286,1.442-0.43,2.401-0.43c0.943,0,1.736,0.145,2.379,0.43c0.641,0.284,1.161,0.684,1.554,1.193
		c0.393,0.512,0.673,1.119,0.837,1.816c0.159,0.699,0.244,1.461,0.244,2.288V46.156z M40.645,41.509
		c-0.406,0-0.784,0.048-1.134,0.146c-0.349,0.1-0.659,0.262-0.931,0.484c-0.274,0.227-0.487,0.525-0.642,0.894
		s-0.241,0.821-0.26,1.365h5.933c0-0.555-0.078-1.019-0.233-1.388c-0.155-0.366-0.369-0.667-0.645-0.893
		c-0.271-0.225-0.584-0.381-0.943-0.473C41.43,41.556,41.05,41.509,40.645,41.509z"/>
</g>
<g>
	<g>
		<path fill="#0599CD" d="M121.952,78.385l-4.356-17.175h2.342l2.042,8.69c0.505,2.141,0.968,4.283,1.274,5.936h0.05
			c0.284-1.708,0.812-3.744,1.402-5.958l2.292-8.668h2.32l2.092,8.712c0.479,2.035,0.94,4.078,1.196,5.893h0.049
			c0.362-1.887,0.84-3.795,1.375-5.937l2.27-8.668h2.265l-4.862,17.175h-2.32l-2.165-8.947c-0.54-2.191-0.89-3.871-1.124-5.607
			h-0.05c-0.278,1.707-0.69,3.388-1.324,5.607l-2.448,8.947H121.952z"/>
	</g>
	<g>
		<path fill="#0599CD" d="M141.051,72.625c0.05,3.033,1.964,4.285,4.228,4.285c1.608,0,2.598-0.285,3.417-0.641l0.411,1.602
			c-0.79,0.361-2.169,0.791-4.133,0.791c-3.8,0-6.058-2.52-6.058-6.242s2.186-6.626,5.78-6.626c4.05,0,5.096,3.516,5.096,5.785
			c0,0.462-0.022,0.79-0.078,1.046H141.051z M147.627,71.018c0.022-1.402-0.59-3.615-3.11-3.615c-2.292,0-3.26,2.063-3.438,3.615
			H147.627z"/>
	</g>
	<g>
		<path fill="#0599CD" d="M161.24,75.43c0,1.068,0.05,2.113,0.178,2.955h-2.014l-0.178-1.553h-0.078
			c-0.689,0.969-2.014,1.83-3.771,1.83c-2.493,0-3.767-1.752-3.767-3.538c0-2.981,2.648-4.618,7.411-4.591v-0.256
			c0-0.99-0.278-2.854-2.799-2.826c-1.174,0-2.37,0.335-3.238,0.918l-0.512-1.501c1.018-0.64,2.52-1.074,4.078-1.074
			c3.771,0,4.689,2.575,4.689,5.024V75.43z M159.071,72.092c-2.448-0.051-5.219,0.378-5.219,2.771c0,1.479,0.963,2.147,2.086,2.147
			c1.63,0,2.676-1.019,3.032-2.064c0.078-0.256,0.101-0.512,0.101-0.712V72.092z"/>
	</g>
	<g>
		<path fill="#0599CD" d="M167.466,63.096v2.953h3.205v1.709h-3.205v6.654c0,1.523,0.434,2.393,1.68,2.393
			c0.613,0,0.968-0.051,1.303-0.156l0.1,1.713c-0.435,0.15-1.124,0.301-1.986,0.301c-1.046,0-1.886-0.356-2.426-0.94
			c-0.606-0.689-0.868-1.786-0.868-3.237v-6.727h-1.908v-1.709h1.908v-2.291L167.466,63.096z"/>
	</g>
	<g>
		<path fill="#0599CD" d="M173.202,60.291h2.242v7.723h0.05c0.362-0.64,0.918-1.224,1.607-1.607
			c0.662-0.379,1.452-0.612,2.292-0.612c1.658,0,4.306,1.023,4.306,5.251v7.34h-2.242v-7.084c0-1.991-0.74-3.644-2.854-3.644
			c-1.452,0-2.57,1.019-3.009,2.221c-0.123,0.327-0.15,0.655-0.15,1.062v7.444h-2.242V60.291z"/>
	</g>
	<g>
		<path fill="#0599CD" d="M188.602,72.625c0.05,3.033,1.963,4.285,4.229,4.285c1.607,0,2.604-0.285,3.416-0.641l0.405,1.602
			c-0.784,0.361-2.164,0.791-4.128,0.791c-3.794,0-6.064-2.52-6.064-6.242s2.192-6.626,5.787-6.626c4.05,0,5.096,3.516,5.096,5.785
			c0,0.462-0.028,0.79-0.078,1.046H188.602z M195.178,71.018c0.021-1.402-0.584-3.615-3.11-3.615c-2.292,0-3.266,2.063-3.438,3.615
			H195.178z"/>
	</g>
	<g>
		<path fill="#0599CD" d="M200.129,69.9c0-1.453-0.027-2.704-0.106-3.852h1.964l0.102,2.449h0.078
			c0.561-1.658,1.941-2.704,3.438-2.704c0.228,0,0.406,0.022,0.611,0.056v2.108c-0.229-0.05-0.456-0.05-0.762-0.05
			c-1.58,0-2.704,1.174-3.004,2.859c-0.057,0.301-0.078,0.685-0.078,1.041v6.576h-2.242V69.9z"/>
	</g>
	<g>
		<path fill="#0599CD" d="M208.541,61.438c1.117-0.206,2.754-0.361,4.256-0.361c2.369,0,3.922,0.461,4.968,1.402
			c0.84,0.768,1.353,1.941,1.353,3.287c0,2.248-1.424,3.75-3.211,4.362v0.077c1.297,0.457,2.087,1.681,2.498,3.467
			c0.557,2.393,0.968,4.05,1.324,4.713h-2.292c-0.284-0.514-0.663-1.965-1.124-4.106c-0.512-2.37-1.457-3.261-3.466-3.338h-2.087
			v7.444h-2.219V61.438z M210.76,69.26h2.266c2.369,0,3.877-1.302,3.877-3.26c0-2.215-1.607-3.183-3.949-3.183
			c-1.074,0-1.814,0.072-2.193,0.179V69.26z"/>
	</g>
	<g>
		<path fill="#0599CD" d="M224.936,62.59c0,0.762-0.533,1.368-1.43,1.368c-0.818,0-1.346-0.606-1.346-1.368
			c0-0.774,0.556-1.408,1.396-1.408C224.374,61.182,224.936,61.794,224.936,62.59z M222.438,78.385V66.049h2.242v12.336H222.438z"/>
	</g>
	<g>
		<path fill="#0599CD" d="M228.102,76.114c0.685,0.405,1.854,0.868,2.977,0.868c1.607,0,2.369-0.791,2.369-1.831
			c0-1.073-0.633-1.636-2.264-2.241c-2.242-0.818-3.288-2.02-3.288-3.5c0-1.986,1.63-3.616,4.25-3.616
			c1.253,0,2.349,0.334,3.011,0.763l-0.535,1.629c-0.483-0.299-1.373-0.734-2.52-0.734c-1.33,0-2.042,0.769-2.042,1.686
			c0,1.014,0.712,1.475,2.319,2.109c2.115,0.795,3.238,1.864,3.238,3.699c0,2.187-1.713,3.717-4.589,3.717
			c-1.353,0-2.599-0.356-3.467-0.861L228.102,76.114z"/>
	</g>
	<g>
		<path fill="#0599CD" d="M240.719,71.708h0.051c0.301-0.429,0.711-0.968,1.068-1.403l3.644-4.256h2.677l-4.74,5.075l5.43,7.261
			h-2.749l-4.239-5.915l-1.141,1.274v4.641H238.5V60.291h2.219V71.708z"/>
	</g>
	<g>
		<path fill="#0599CD" d="M264.809,70.328h-6.648v6.191h7.438v1.865h-9.686V61.21h9.302v1.858h-7.055v5.43h6.648V70.328z"/>
	</g>
	<g>
		<path fill="#0599CD" d="M269.454,66.049l1.758,2.648c0.484,0.69,0.868,1.303,1.274,1.992h0.051
			c0.405-0.718,0.817-1.352,1.245-2.014l1.708-2.627h2.448l-4.206,5.971l4.307,6.365h-2.521l-1.835-2.777
			c-0.483-0.717-0.891-1.402-1.324-2.141h-0.051c-0.411,0.738-0.817,1.396-1.302,2.141l-1.779,2.777h-2.476l4.384-6.293
			l-4.179-6.043H269.454z"/>
	</g>
	<g>
		<path fill="#0599CD" d="M280.215,70.078c0-1.58-0.051-2.86-0.1-4.029h1.984l0.129,2.115h0.049c0.892-1.502,2.371-2.37,4.385-2.37
			c3.01,0,5.252,2.526,5.252,6.247c0,4.429-2.731,6.621-5.637,6.621c-1.629,0-3.054-0.713-3.793-1.931h-0.056v6.698h-2.214V70.078z
			 M282.429,73.359c0,0.34,0.027,0.641,0.104,0.919c0.407,1.558,1.758,2.632,3.361,2.632c2.369,0,3.75-1.942,3.75-4.768
			c0-2.449-1.303-4.563-3.672-4.563c-1.53,0-2.982,1.068-3.389,2.749c-0.078,0.283-0.155,0.612-0.155,0.896V73.359z"/>
	</g>
	<g>
		<path fill="#0599CD" d="M294.719,60.291h2.247v18.094h-2.247V60.291z"/>
	</g>
	<g>
		<path fill="#0599CD" d="M311.902,72.114c0,4.562-3.188,6.548-6.141,6.548c-3.316,0-5.92-2.442-5.92-6.343
			c0-4.1,2.731-6.525,6.119-6.525C309.506,65.794,311.902,68.369,311.902,72.114z M302.139,72.242c0,2.703,1.531,4.74,3.723,4.74
			c2.141,0,3.744-2.015,3.744-4.791c0-2.092-1.047-4.712-3.694-4.712C303.29,67.479,302.139,69.922,302.139,72.242z"/>
	</g>
	<g>
		<path fill="#0599CD" d="M314.735,69.9c0-1.453-0.022-2.704-0.101-3.852h1.963l0.101,2.449h0.073
			c0.561-1.658,1.941-2.704,3.443-2.704c0.228,0,0.406,0.022,0.611,0.056v2.108c-0.233-0.05-0.456-0.05-0.768-0.05
			c-1.574,0-2.697,1.174-2.998,2.859c-0.056,0.301-0.084,0.685-0.084,1.041v6.576h-2.241V69.9z"/>
	</g>
	<g>
		<path fill="#0599CD" d="M324.065,72.625c0.056,3.033,1.963,4.285,4.233,4.285c1.602,0,2.598-0.285,3.41-0.641l0.411,1.602
			c-0.79,0.361-2.164,0.791-4.127,0.791c-3.801,0-6.071-2.52-6.071-6.242s2.199-6.626,5.792-6.626c4.051,0,5.09,3.516,5.09,5.785
			c0,0.462-0.021,0.79-0.071,1.046H324.065z M330.646,71.018c0.021-1.402-0.591-3.615-3.115-3.615c-2.292,0-3.262,2.063-3.439,3.615
			H330.646z"/>
	</g>
	<g>
		<path fill="#0599CD" d="M343.291,61.21v17.175h-2.242V61.21H343.291z"/>
	</g>
	<g>
		<path fill="#0599CD" d="M347.349,69.388c0-1.296-0.028-2.319-0.102-3.339h1.987l0.123,2.043h0.055
			c0.605-1.151,2.035-2.298,4.077-2.298c1.709,0,4.356,1.023,4.356,5.251v7.34h-2.242v-7.105c0-1.992-0.74-3.65-2.854-3.65
			c-1.451,0-2.598,1.047-3.01,2.293c-0.1,0.283-0.151,0.668-0.151,1.046v7.417h-2.24V69.388z"/>
	</g>
	<g>
		<path fill="#0599CD" d="M370.291,77.949c-0.583,0.283-1.886,0.713-3.544,0.713c-3.722,0-6.141-2.52-6.141-6.293
			c0-3.794,2.598-6.575,6.625-6.575c1.324,0,2.498,0.334,3.108,0.662l-0.512,1.708c-0.533-0.277-1.372-0.585-2.597-0.585
			c-2.826,0-4.356,2.114-4.356,4.663c0,2.859,1.83,4.611,4.284,4.611c1.268,0,2.108-0.3,2.747-0.584L370.291,77.949z"/>
	</g>
	<g>
		<path fill="#0599CD" d="M372.133,77.061c0-0.918,0.635-1.608,1.528-1.608c0.891,0,1.504,0.662,1.504,1.608
			c0,0.912-0.613,1.602-1.553,1.602C372.739,78.662,372.133,77.973,372.133,77.061z"/>
	</g>
</g>
</svg>
