<svg xmlns="http://www.w3.org/2000/svg" width="391" height="99" viewBox="0 0 391 99"><g fill="#0599CD"><path d="M117.597 25.047h24.612v3.804h-10.697c0 3.121-.022 5.148-.065 6.08h12.062v3.804h-11.802c.888 1.951 1.983 3.674 3.284 5.169 2.189 2.731 5.375 4.899 9.559 6.503l-2.341 3.674c-3.598-1.712-6.362-3.544-8.291-5.495-1.539-1.496-2.85-3.305-3.934-5.43a15.146 15.146 0 0 1-2.373 3.836c-2.536 2.839-6.037 5.028-10.502 6.567l-1.69-3.641c4.097-1.453 7.164-3.403 9.201-5.853 1.192-1.474 2.016-3.251 2.471-5.332h-10.924v-3.804h11.347v-.748c.065-.173.098-1.951.098-5.332h-10.014v-3.802zM154.173 37.792c.932.78 1.832 1.691 2.699 2.731l-2.081 1.691h2.991v-4.649h3.804v4.649h3.577l-2.146-1.138c.954-1.105 1.679-2.2 2.178-3.284l3.284 1.073c-.607 1.279-1.257 2.396-1.951 3.349h3.511v3.284h-6.567c2.557 1.3 4.91 2.547 7.055 3.739l-2.731 3.414a429.084 429.084 0 0 0-6.21-4.324v5.494h-3.804v-6.145c-.52.542-1.062 1.03-1.625 1.463-2.363 1.604-4.368 2.731-6.015 3.382l-1.723-3.122c1.539-.541 3.164-1.354 4.877-2.438.758-.498 1.43-.986 2.016-1.463h-6.08v-3.284h3.739a34.683 34.683 0 0 0-1.951-2.178l3.153-2.244zm-1.463-14.176l3.544 1.073-.39 1.17h20.808v3.251h-22.271a9.684 9.684 0 0 1-.52.91h20.061v2.991h-20.19v-2.764a20.633 20.633 0 0 1-1.789 2.634l-3.121-2.341a13.926 13.926 0 0 0 2.244-3.349c.714-1.255 1.256-2.447 1.624-3.575zm-1.69 10.144h22.792c0 6.524.119 11.239.358 14.143.086 1.344.216 2.017.39 2.017.065 0 .119-.12.163-.358.13-.521.26-1.668.39-3.446l3.251 1.301c-.607 2.773-1.312 4.552-2.114 5.332-.542.541-1.105.812-1.69.812-1.17 0-2.113-.899-2.829-2.698-.91-2.688-1.431-7.293-1.561-13.818h-19.15V33.76zM185.256 24.429h22.109c0 11.098.238 18.717.715 22.856.217 1.669.455 2.503.715 2.503v-3.771l3.35 1.301c-.326 2.428-.574 3.836-.748 4.227-.477 1.431-1.344 2.146-2.602 2.146-1.387 0-2.416-.803-3.088-2.406-1.41-3.837-2.113-11.629-2.113-23.377h-16.29v10.599c0 2.97-.282 5.842-.845 8.616-.455 2.232-1.214 4.508-2.276 6.828l-3.349-1.983c1.105-2.861 1.842-5.332 2.211-7.413.433-2.601.65-5.18.65-7.738V24.429h1.561zm15.574 3.739l1.82 3.284a55.996 55.996 0 0 1-5.43.845v2.146h5.853v9.884h-5.853v3.023l2.373-.195c-.194-.39-.379-.769-.553-1.138l2.992-1.43c1.127 1.973 2.08 4.14 2.861 6.502l-3.382 1.431c-.239-.78-.478-1.54-.716-2.276-4.053.586-8.496 1.073-13.33 1.463l-.683-3.608c2.492-.13 4.801-.281 6.925-.455v-3.316h-2.243v.91h-3.479V34.443h5.722v-1.789c-1.495.109-3.056.185-4.682.228l-1.04-3.284a58.677 58.677 0 0 0 12.845-1.43zm-9.364 12.745h2.243v-3.121h-2.243v3.121zm5.755-3.121v3.121h2.309v-3.121h-2.309zM226.189 24.429l-3.544 10.144a16.292 16.292 0 0 1 2.081 3.739c.629 1.604.943 3.133.943 4.584-.045 3.642-1.551 5.462-4.52 5.462h-1.431l-.683-3.056v8.648h-3.739V24.429h10.893zm-7.152 10.209l2.08-6.6h-2.08v6.6zm0 9.527c.823.282 1.527.423 2.113.423.477 0 .726-.563.748-1.691 0-1.105-.217-2.254-.65-3.446-.434-1.17-1.171-2.384-2.211-3.642v8.356zm8.875.52l3.479.553c-.087.65-.228 1.29-.423 1.918.347.499.715.943 1.105 1.333.607.65 1.214 1.17 1.82 1.56l-2.601 3.219c-.606-.52-1.171-1.182-1.69-1.982l-.391-.586c-.932 1.258-2.146 2.342-3.641 3.252l-2.244-2.991c1.431-.867 2.504-1.821 3.219-2.861.652-.912 1.107-2.05 1.367-3.415zm5.17-20.809l3.902 1.17c-.174.304-.358.597-.553.878a34.353 34.353 0 0 0 3.576 2.211c1.733.954 3.424 1.712 5.072 2.276l-2.244 3.771a43.598 43.598 0 0 1-2.861-1.431v1.561H228.79v-1.138a28.69 28.69 0 0 1-2.179 1.268l-2.731-2.731c2.168-1.191 3.945-2.406 5.332-3.641 1.583-1.343 2.873-2.741 3.87-4.194zm-7.152 11.445h8.193v9.006h-8.193v-9.006zm3.414 5.755h1.43v-2.471h-1.43v2.471zm2.698-10.307h4.909a39.79 39.79 0 0 1-2.764-2.081c-.455.499-.943.986-1.463 1.463a8.88 8.88 0 0 1-.682.618zm5.202 13.916l3.543.553c-.107.759-.26 1.485-.455 2.179a16.442 16.442 0 0 0 1.821 1.69c.911.716 1.799 1.29 2.666 1.724l-2.471 3.121a17.84 17.84 0 0 1-2.536-2.179 18.741 18.741 0 0 1-.878-1.008 11.613 11.613 0 0 1-2.991 3.187l-2.178-2.991c1.083-.867 1.906-1.821 2.471-2.861.477-.912.813-2.05 1.008-3.415zm-2.049-9.364h8.453v9.006h-8.453v-9.006zm3.479 5.755h1.432v-2.471h-1.432v2.471zM252.07 23.389l3.674 1.041c-.088.26-.174.51-.261.748h7.543v2.666c.368-.456.716-.943 1.04-1.463.672-1.019 1.192-1.972 1.561-2.861l3.609 1.04a4.959 4.959 0 0 1-.228.618h8.843v3.414h-4.486c.521.412 1.02.845 1.496 1.301l-3.512 2.081a34.974 34.974 0 0 0-2.698-3.381h-1.333c-.694 1.149-1.441 2.146-2.244 2.991l-.129-.098v.585h12.777v6.145h-3.771v-2.731h-21.752v2.731h-3.771V32.07h2.829l-2.958-2.178c.845-.911 1.581-1.972 2.21-3.187.694-1.17 1.214-2.276 1.561-3.316zm-.293 8.681h9.006v-1.301h3.283l-2.243-1.658c.195-.173.38-.347.553-.521h-3.315c.367.412.693.845.975 1.301l-3.414 1.951a30.771 30.771 0 0 0-1.82-3.251h-.812c-.022.022-.033.044-.033.065-.652 1.301-1.379 2.438-2.18 3.414zm21.231 4.552v7.576h-16.517v1.3h18.208v8.323h-3.74v-.682h-14.468v.812h-3.739v-17.33h20.256zm-16.517 4.454h12.745v-1.3h-12.745v1.3zm0 8.973h14.468v-1.43h-14.468v1.43zM281.461 25.307h10.307v3.674h-3.413v5.722h2.731v3.642h-2.731v7.186a47.576 47.576 0 0 0 3.284-.846l.39 3.544c-3.056.953-6.395 1.82-10.015 2.602l-.682-3.902c1.127-.195 2.221-.401 3.283-.618v-7.966h-2.894v-3.642h2.894v-5.722h-3.154v-3.674zm11.055-.748h17.85v17.167h-7.022v1.788h6.893v3.674h-6.893v2.471h8.063v3.608h-20.191v-3.608h8.324v-2.471h-7.153v-3.674h7.153v-1.788h-7.023V24.559zm3.804 6.47h3.219v-2.861h-3.219v2.861zm0 7.023h3.219v-3.349h-3.219v3.349zm7.023-9.884v2.861h3.219v-2.861h-3.219zm0 6.535v3.349h3.219v-3.349h-3.219zM328.312 24.137v12.225h-9.396V53.82h-3.349V24.137h12.745zm-9.396 4.584h6.016V27.55h-6.016v1.171zm0 4.292h6.016v-1.17h-6.016v1.17zm2.244 4.422h16.256v3.349h-3.154v2.243h3.805v3.349h-3.805v6.405h-3.609v-6.405h-3.314c-.219 1.214-.576 2.276-1.074 3.186-.932 1.495-2.199 2.655-3.803 3.479l-2.244-2.861c1.322-.715 2.297-1.68 2.926-2.894.174-.26.314-.563.424-.91h-3.219v-3.349h3.738c.021-.195.033-.39.033-.585 0-.086.01-.639.031-1.658h-2.99v-3.349zm9.492 5.591v-2.243h-2.99v2.243h2.99zm1.432-18.889h11.055v24.84c0 3.143-1.344 4.715-4.031 4.715-.824 0-1.779-.098-2.861-.293l-.812-3.869c1.061.346 2.059.52 2.99.52.781 0 1.17-.834 1.17-2.503V36.361h-9.201V24.137h1.69zm1.691 4.584h5.818V27.55h-5.818v1.171zm5.819 4.292v-1.17h-5.818v1.17h5.818zM353.38 28.591a21.119 21.119 0 0 1 2.374 2.113 20.051 20.051 0 0 0 3.446-3.023h-9.722v-3.414h14.599v1.268c.585.455 1.181.889 1.788 1.301a18.653 18.653 0 0 0 4.194-2.959l2.73 2.244a21.987 21.987 0 0 1-3.608 2.796c.541.325 1.083.629 1.625.91 1.322-.758 2.536-1.744 3.642-2.958l2.991 2.341a16.792 16.792 0 0 1-2.926 2.438 58.21 58.21 0 0 0 3.869 1.496l-1.951 3.479a31.355 31.355 0 0 1-3.901-1.756v1.138c0 .824.086 1.312.26 1.463.13.065.271.098.423.098.151 0 .281-.011.391-.033.107-.043.194-.086.26-.13.108-.108.184-.499.228-1.17l3.512 1.69c-.131 1.41-.542 2.276-1.236 2.601a5.69 5.69 0 0 1-1.268.325c-.672.044-1.301.065-1.886.065-1.582 0-2.568-.163-2.959-.487-.932-.195-1.397-1.366-1.397-3.512v-.91h-2.406c-.195 1.625-.597 2.818-1.203 3.576-.521.737-1.344 1.366-2.471 1.886h13.396v2.601c-1.02 1.93-2.2 3.522-3.544 4.779 1.474.521 3.175.921 5.104 1.203l-1.431 3.771c-2.753-.434-5.181-1.246-7.283-2.438-2.06 1.148-4.411 2.004-7.055 2.568l-1.789-3.414c2.168-.369 4.064-.889 5.69-1.561-1.105-1.127-2.103-2.514-2.991-4.162h-1.528v-3.349h.618l-1.431-2.666v3.154h-7.023l-.228 1.691h7.673c-.304 4.704-.942 7.607-1.918 8.713-.845.976-2.07 1.463-3.674 1.463-1.04 0-2.211-.141-3.512-.422l-.942-3.869c1.517.26 2.774.391 3.771.391.78 0 1.321-.12 1.626-.358.498-.39.834-1.224 1.008-2.503h-4.454l-.098.618h-3.674l1.072-9.071h6.763v-2.113h-3.283v-.618c-1.647.78-3.284 1.344-4.91 1.69l-1.17-2.991a28.046 28.046 0 0 0 4.486-1.69 24.794 24.794 0 0 0-2.016-1.983l3.349-2.31zm7.153 9.656c.715-.303 1.257-.726 1.625-1.268.477-.671.727-2.134.748-4.389h5.56a65.321 65.321 0 0 1-5.462-3.739c-1.561 1.712-3.133 3.143-4.715 4.292h2.244v5.104zm6.34 6.568c.736.91 1.539 1.68 2.406 2.308a11.646 11.646 0 0 0 2.405-2.308h-4.811z"/></g><g fill="#0599CD" stroke="#0599CD" stroke-miterlimit="10"><path stroke-width=".5" d="M58.967 80.526h1.482v2.148s-.095 1.22.877 2.011c0 0 .757.712 1.914.734 0 0 1.309.145 2.33-.908 0 0 .643-.597.696-1.588V78.39h1.937v4.374s.114 1.323-.87 2.661c0 0-1.134 1.658-3.396 1.908 0 0-1.8.295-3.382-.81 0 0-.99-.59-1.588-1.771 0 0-.355-.688-.438-1.429 0 0-.023-.272-.027-.696v-2.103h.465zM47.392 42.79c.109-.418.306-.808.59-1.17a3.92 3.92 0 0 1 1.048-.915c.409-.249.88-.442 1.41-.587a6.598 6.598 0 0 1 1.72-.213c.667 0 1.294.072 1.882.213a5.43 5.43 0 0 1 1.542.619c.442.272.787.611 1.046 1.018.26.405.388.87.388 1.396l.023 7.961h-2.068l.016-1.083a6.1 6.1 0 0 1-1.875.978 6.53 6.53 0 0 1-2.063.332c-1.288 0-2.276-.3-2.959-.903a2.69 2.69 0 0 1-.768-1.016 3.025 3.025 0 0 1-.259-1.239c0-.466.082-.87.247-1.207a2.64 2.64 0 0 1 .662-.87c.279-.239.595-.433.955-.583a6.544 6.544 0 0 1 1.115-.36c.279-.063.591-.114.931-.159.341-.043.7-.099 1.082-.157.381-.057.777-.136 1.186-.227a6.948 6.948 0 0 0 1.218-.384c.528-.208.683-.609.468-1.193-.153-.451-.479-.785-.965-1.003-.49-.216-1.092-.33-1.802-.33a5.444 5.444 0 0 0-1.689.34c-.504.197-.84.527-1.01.993l-2.071-.251zm7.581 2.89c-.142.119-.369.227-.686.315-.322.087-.672.171-1.062.245a23.3 23.3 0 0 1-1.148.204c-.381.06-.702.118-.967.182-.604.121-1.062.298-1.368.541-.313.242-.467.571-.467.995 0 .346.074.621.222.832.144.209.332.375.557.496.225.123.471.201.742.239a3.3 3.3 0 0 0 .8.008 5.31 5.31 0 0 0 1.269-.238 3.458 3.458 0 0 0 1.083-.54c.31-.232.557-.524.743-.879.188-.353.281-.778.281-1.273V45.68zM58.414 40.153h1.138v-3.539h2.05v3.539h2.697v1.985h-2.697v5.143c0 .72.104 1.238.315 1.556.21.315.644.472 1.312.472h1.209v1.989h-1.209c-.76 0-1.375-.098-1.849-.289-.474-.186-.844-.451-1.117-.798a2.916 2.916 0 0 1-.556-1.263 8.002 8.002 0 0 1-.155-1.666v-5.143h-1.138v-1.986zM75.949 51.113h-2.048v-6.024a7.89 7.89 0 0 0-.057-1.057 4.625 4.625 0 0 0-.148-.71 1.649 1.649 0 0 0-.235-.464 3.144 3.144 0 0 0-.278-.314 3.635 3.635 0 0 0-.768-.496c-.326-.163-.745-.25-1.255-.25-.482 0-.885.087-1.209.25a3.61 3.61 0 0 0-.768.496c-.094.091-.197.193-.304.303a1.79 1.79 0 0 0-.298.443 2.45 2.45 0 0 0-.222.698c-.057.287-.081.654-.081 1.103v6.024h-2.046V36.002h2.046V41.1a4.992 4.992 0 0 1 1.266-.833 3.722 3.722 0 0 1 1.617-.361c.852 0 1.581.123 2.187.361.604.241 1.097.586 1.474 1.037.382.451.665.997.849 1.634.189.639.28 1.357.28 2.15v6.025zM87.556 46.58H79.6c.045.465.124.885.236 1.251.109.368.272.677.498.924.227.25.515.442.875.577.356.134.795.202 1.325.202.636 0 1.127-.105 1.474-.315.35-.209.611-.444.78-.7l2.185.341c-.324.813-.876 1.446-1.659 1.905-.782.456-1.708.686-2.779.686-.948 0-1.739-.146-2.374-.452a4.06 4.06 0 0 1-1.536-1.229 4.95 4.95 0 0 1-.841-1.814 9.387 9.387 0 0 1-.25-2.21c0-.825.082-1.587.244-2.286.162-.7.434-1.308.824-1.816.384-.513.9-.911 1.541-1.196.645-.285 1.444-.425 2.401-.425.945 0 1.738.14 2.379.425.643.285 1.164.683 1.556 1.196.396.508.672 1.116.835 1.816.163.699.245 1.461.245 2.286v.834zm-5.014-4.645c-.402 0-.78.051-1.132.146-.35.095-.662.258-.934.486a2.277 2.277 0 0 0-.64.891c-.159.366-.241.82-.258 1.361h5.931c0-.554-.079-1.016-.234-1.385a2.34 2.34 0 0 0-.641-.892 2.372 2.372 0 0 0-.948-.472 4.776 4.776 0 0 0-1.144-.135zM95.369 42.181a4.034 4.034 0 0 0-.627-.269 2.316 2.316 0 0 0-.814-.09 2.782 2.782 0 0 0-1.198.292c-.35.182-.644.423-.884.727a3.463 3.463 0 0 0-.568 1.032 3.432 3.432 0 0 0-.213 1.197v6.158H89.02V40.241h2.045v1.311c.11-.227.269-.432.478-.623a3.5 3.5 0 0 1 .709-.482c.261-.134.544-.241.85-.315.303-.077.595-.11.873-.11.465 0 .931.059 1.395.176v1.983z"/><path stroke-width=".5" d="M66.634 79.498V52.819h6.703c1.396 0 2.432.354 3.108 1.062.675.708 1.016 1.653 1.016 2.837 0 .688-.111 1.258-.331 1.717a2.902 2.902 0 0 1-.94 1.107c-.407.289-.893.488-1.452.606a9.315 9.315 0 0 1-1.891.176c.34.402.706.839 1.088 1.306.388.468.772.945 1.165 1.434.394.486.787.975 1.186 1.453.395.48.782.935 1.151 1.363h-1.495l-4.566-5.556h-3.632v5.556l-.036 13.617h-1.074zm1.109-25.667v5.479h5.594c.414 0 .804-.039 1.174-.115.372-.076.696-.222.974-.427.278-.209.495-.489.661-.845.163-.358.247-.817.247-1.372 0-.529-.08-.97-.236-1.318a2.075 2.075 0 0 0-.642-.831 2.603 2.603 0 0 0-.971-.422 6.287 6.287 0 0 0-1.208-.148h-5.593zM79.85 56.406v9.475h-1.111v-9.475h1.111zm-1.09-3.587h1.089v.995H78.76v-.995zM87.929 57.867c-.212-.26-.536-.461-.97-.603-.432-.142-.949-.214-1.545-.214a6.24 6.24 0 0 0-1.191.105 3.932 3.932 0 0 0-.97.312c-.276.138-.493.3-.649.489a.954.954 0 0 0-.234.633c0 .26.111.528.327.801.223.27.622.488 1.205.641.057.025.23.074.52.138.292.064.601.137.928.213.381.091.808.191 1.276.293.428.104.821.228 1.183.37.36.145.678.32.944.527.271.207.484.446.641.712.153.265.234.575.234.925 0 .482-.125.901-.371 1.27-.25.361-.582.665-.991.904a5.064 5.064 0 0 1-1.397.538 7.139 7.139 0 0 1-1.562.176 7.42 7.42 0 0 1-1.283-.116 6.04 6.04 0 0 1-1.202-.354 3.93 3.93 0 0 1-1.002-.593 2.543 2.543 0 0 1-.669-.83l1.239-.174c.098.165.251.32.458.463.208.138.444.259.708.36a4.96 4.96 0 0 0 1.76.325c.499 0 .944-.051 1.343-.154a3.613 3.613 0 0 0 1.015-.418c.278-.176.491-.379.631-.613.142-.233.214-.473.214-.718 0-.119-.017-.243-.055-.382a1.089 1.089 0 0 0-.214-.408 1.719 1.719 0 0 0-.448-.387 2.596 2.596 0 0 0-.757-.305c-.372-.09-.756-.186-1.154-.291-.396-.104-.768-.197-1.112-.284a36.624 36.624 0 0 1-.859-.213c-.237-.056-.368-.087-.399-.087a4.076 4.076 0 0 1-1.601-.816c-.439-.376-.661-.882-.661-1.519 0-.388.116-.736.341-1.042.225-.302.532-.553.916-.758.384-.198.822-.35 1.322-.457a7.799 7.799 0 0 1 1.575-.154c.868 0 1.66.129 2.38.379.715.257 1.218.65 1.498 1.18l-1.362.136zM92.384 52.819v8.013l1.067-1.025c.395-.381.808-.771 1.227-1.168.424-.398.834-.789 1.238-1.183l1.101-1.05h1.518l-3.737 3.373c.726.974 1.486 1.985 2.273 3.042a433.647 433.647 0 0 0 2.318 3.06h-1.368l-3.95-5.302-1.687 1.52v3.782h-1.111V52.819h1.111z"/><path d="M99.696 50.793c.023-.509.035-1.022.035-1.537 0-18.055-14.81-32.69-33.082-32.69-14.855 0-27.425 9.678-31.604 23l-.007.023-3.56 11.212h-2.41L24.854 39.37l-3.627 11.431h-2.415L13.25 35.69h2.571l4.159 12.042 3.524-12.042h2.517l4.217 12.042 2.248-7.691.005-.026c4.572-15.569 19.114-26.95 36.344-26.95 20.899 0 37.841 16.741 37.841 37.392l-.002.336h-6.978z"/><path stroke-width=".5" d="M45.659 46.156h-7.955c.045.465.123.882.234 1.251a2.3 2.3 0 0 0 .499.924c.227.249.514.441.872.576.356.139.798.202 1.326.202.634 0 1.127-.104 1.479-.314.348-.211.605-.442.778-.699l2.184.335a3.805 3.805 0 0 1-1.662 1.907c-.782.462-1.711.69-2.778.69-.947 0-1.738-.151-2.37-.451a4.095 4.095 0 0 1-1.539-1.229 4.93 4.93 0 0 1-.839-1.819 9.133 9.133 0 0 1-.253-2.208c0-.827.082-1.589.242-2.288a4.76 4.76 0 0 1 .823-1.816c.39-.51.902-.91 1.545-1.193.64-.286 1.442-.43 2.401-.43.943 0 1.736.145 2.379.43a3.943 3.943 0 0 1 1.554 1.193 4.72 4.72 0 0 1 .837 1.816c.159.699.244 1.461.244 2.288v.835zm-5.014-4.647c-.406 0-.784.048-1.134.146a2.58 2.58 0 0 0-.931.484c-.274.227-.487.525-.642.894s-.241.821-.26 1.365h5.933c0-.555-.078-1.019-.233-1.388a2.278 2.278 0 0 0-.645-.893 2.372 2.372 0 0 0-.943-.473 4.797 4.797 0 0 0-1.145-.135z"/></g><path fill="#0599CD" d="M121.952 78.385l-4.356-17.175h2.342l2.042 8.69c.505 2.141.968 4.283 1.274 5.936h.05c.284-1.708.812-3.744 1.402-5.958l2.292-8.668h2.32l2.092 8.712c.479 2.035.94 4.078 1.196 5.893h.049c.362-1.887.84-3.795 1.375-5.937l2.27-8.668h2.265l-4.862 17.175h-2.32l-2.165-8.947c-.54-2.191-.89-3.871-1.124-5.607h-.05c-.278 1.707-.69 3.388-1.324 5.607l-2.448 8.947h-2.32zM141.051 72.625c.05 3.033 1.964 4.285 4.228 4.285 1.608 0 2.598-.285 3.417-.641l.411 1.602c-.79.361-2.169.791-4.133.791-3.8 0-6.058-2.52-6.058-6.242s2.186-6.626 5.78-6.626c4.05 0 5.096 3.516 5.096 5.785 0 .462-.022.79-.078 1.046h-8.663zm6.576-1.607c.022-1.402-.59-3.615-3.11-3.615-2.292 0-3.26 2.063-3.438 3.615h6.548zM161.24 75.43c0 1.068.05 2.113.178 2.955h-2.014l-.178-1.553h-.078c-.689.969-2.014 1.83-3.771 1.83-2.493 0-3.767-1.752-3.767-3.538 0-2.981 2.648-4.618 7.411-4.591v-.256c0-.99-.278-2.854-2.799-2.826-1.174 0-2.37.335-3.238.918l-.512-1.501c1.018-.64 2.52-1.074 4.078-1.074 3.771 0 4.689 2.575 4.689 5.024v4.612zm-2.169-3.338c-2.448-.051-5.219.378-5.219 2.771 0 1.479.963 2.147 2.086 2.147 1.63 0 2.676-1.019 3.032-2.064.078-.256.101-.512.101-.712v-2.142zM167.466 63.096v2.953h3.205v1.709h-3.205v6.654c0 1.523.434 2.393 1.68 2.393.613 0 .968-.051 1.303-.156l.1 1.713c-.435.15-1.124.301-1.986.301-1.046 0-1.886-.356-2.426-.94-.606-.689-.868-1.786-.868-3.237v-6.727h-1.908V66.05h1.908v-2.291l2.197-.663zM173.202 60.291h2.242v7.723h.05a4.245 4.245 0 0 1 1.607-1.607 4.627 4.627 0 0 1 2.292-.612c1.658 0 4.306 1.023 4.306 5.251v7.34h-2.242v-7.084c0-1.991-.74-3.644-2.854-3.644-1.452 0-2.57 1.019-3.009 2.221-.123.327-.15.655-.15 1.062v7.444h-2.242V60.291zM188.602 72.625c.05 3.033 1.963 4.285 4.229 4.285 1.607 0 2.604-.285 3.416-.641l.405 1.602c-.784.361-2.164.791-4.128.791-3.794 0-6.064-2.52-6.064-6.242s2.192-6.626 5.787-6.626c4.05 0 5.096 3.516 5.096 5.785 0 .462-.028.79-.078 1.046h-8.663zm6.576-1.607c.021-1.402-.584-3.615-3.11-3.615-2.292 0-3.266 2.063-3.438 3.615h6.548zM200.129 69.9c0-1.453-.027-2.704-.106-3.852h1.964l.102 2.449h.078c.561-1.658 1.941-2.704 3.438-2.704.228 0 .406.022.611.056v2.108c-.229-.05-.456-.05-.762-.05-1.58 0-2.704 1.174-3.004 2.859a5.963 5.963 0 0 0-.078 1.041v6.576h-2.242V69.9zM208.541 61.438c1.117-.206 2.754-.361 4.256-.361 2.369 0 3.922.461 4.968 1.402.84.768 1.353 1.941 1.353 3.287 0 2.248-1.424 3.75-3.211 4.362v.077c1.297.457 2.087 1.681 2.498 3.467.557 2.393.968 4.05 1.324 4.713h-2.292c-.284-.514-.663-1.965-1.124-4.106-.512-2.37-1.457-3.261-3.466-3.338h-2.087v7.444h-2.219V61.438zm2.219 7.822h2.266c2.369 0 3.877-1.302 3.877-3.26 0-2.215-1.607-3.183-3.949-3.183-1.074 0-1.814.072-2.193.179v6.264zM224.936 62.59c0 .762-.533 1.368-1.43 1.368-.818 0-1.346-.606-1.346-1.368 0-.774.556-1.408 1.396-1.408.818 0 1.38.612 1.38 1.408zm-2.498 15.795V66.049h2.242v12.336h-2.242zM228.102 76.114c.685.405 1.854.868 2.977.868 1.607 0 2.369-.791 2.369-1.831 0-1.073-.633-1.636-2.264-2.241-2.242-.818-3.288-2.02-3.288-3.5 0-1.986 1.63-3.616 4.25-3.616 1.253 0 2.349.334 3.011.763l-.535 1.629a4.829 4.829 0 0 0-2.52-.734c-1.33 0-2.042.769-2.042 1.686 0 1.014.712 1.475 2.319 2.109 2.115.795 3.238 1.864 3.238 3.699 0 2.187-1.713 3.717-4.589 3.717-1.353 0-2.599-.356-3.467-.861l.541-1.688zM240.719 71.708h.051c.301-.429.711-.968 1.068-1.403l3.644-4.256h2.677l-4.74 5.075 5.43 7.261H246.1l-4.239-5.915-1.141 1.274v4.641h-2.22V60.291h2.219v11.417zM264.809 70.328h-6.648v6.191h7.438v1.865h-9.686V61.21h9.302v1.858h-7.055v5.43h6.648v1.83zM269.454 66.049l1.758 2.648c.484.69.868 1.303 1.274 1.992h.051c.405-.718.817-1.352 1.245-2.014l1.708-2.627h2.448l-4.206 5.971 4.307 6.365h-2.521l-1.835-2.777a39.056 39.056 0 0 1-1.324-2.141h-.051a35.13 35.13 0 0 1-1.302 2.141l-1.779 2.777h-2.476l4.384-6.293-4.179-6.043h2.498zM280.215 70.078c0-1.58-.051-2.86-.1-4.029h1.984l.129 2.115h.049c.892-1.502 2.371-2.37 4.385-2.37 3.01 0 5.252 2.526 5.252 6.247 0 4.429-2.731 6.621-5.637 6.621-1.629 0-3.054-.713-3.793-1.931h-.056v6.698h-2.214V70.078zm2.214 3.281c0 .34.027.641.104.919.407 1.558 1.758 2.632 3.361 2.632 2.369 0 3.75-1.942 3.75-4.768 0-2.449-1.303-4.563-3.672-4.563-1.53 0-2.982 1.068-3.389 2.749-.078.283-.155.612-.155.896v2.135zM294.719 60.291h2.247v18.094h-2.247V60.291zM311.902 72.114c0 4.562-3.188 6.548-6.141 6.548-3.316 0-5.92-2.442-5.92-6.343 0-4.1 2.731-6.525 6.119-6.525 3.546 0 5.942 2.575 5.942 6.32zm-9.763.128c0 2.703 1.531 4.74 3.723 4.74 2.141 0 3.744-2.015 3.744-4.791 0-2.092-1.047-4.712-3.694-4.712-2.622 0-3.773 2.443-3.773 4.763zM314.735 69.9c0-1.453-.022-2.704-.101-3.852h1.963l.101 2.449h.073c.561-1.658 1.941-2.704 3.443-2.704.228 0 .406.022.611.056v2.108c-.233-.05-.456-.05-.768-.05-1.574 0-2.697 1.174-2.998 2.859a6.039 6.039 0 0 0-.084 1.041v6.576h-2.241V69.9zM324.065 72.625c.056 3.033 1.963 4.285 4.233 4.285 1.602 0 2.598-.285 3.41-.641l.411 1.602c-.79.361-2.164.791-4.127.791-3.801 0-6.071-2.52-6.071-6.242s2.199-6.626 5.792-6.626c4.051 0 5.09 3.516 5.09 5.785 0 .462-.021.79-.071 1.046h-8.667zm6.581-1.607c.021-1.402-.591-3.615-3.115-3.615-2.292 0-3.262 2.063-3.439 3.615h6.554zM343.291 61.21v17.175h-2.242V61.21h2.242zM347.349 69.388c0-1.296-.028-2.319-.102-3.339h1.987l.123 2.043h.055c.605-1.151 2.035-2.298 4.077-2.298 1.709 0 4.356 1.023 4.356 5.251v7.34h-2.242V71.28c0-1.992-.74-3.65-2.854-3.65-1.451 0-2.598 1.047-3.01 2.293-.1.283-.151.668-.151 1.046v7.417h-2.24v-8.998zM370.291 77.949c-.583.283-1.886.713-3.544.713-3.722 0-6.141-2.52-6.141-6.293 0-3.794 2.598-6.575 6.625-6.575 1.324 0 2.498.334 3.108.662l-.512 1.708c-.533-.277-1.372-.585-2.597-.585-2.826 0-4.356 2.114-4.356 4.663 0 2.859 1.83 4.611 4.284 4.611 1.268 0 2.108-.3 2.747-.584l.386 1.68zM372.133 77.061c0-.918.635-1.608 1.528-1.608.891 0 1.504.662 1.504 1.608 0 .912-.613 1.602-1.553 1.602-.873-.001-1.479-.69-1.479-1.602z"/></svg>