<svg xmlns="http://www.w3.org/2000/svg" width="248.407" height="58.004" viewBox="0 0 248.407 58.004"><linearGradient id="a" gradientUnits="userSpaceOnUse" x1="47" y1="1.206" x2="13.824" y2="42.175"><stop offset="0" stop-color="#6fba2c"/><stop offset=".313" stop-color="#30a938"/><stop offset=".771" stop-color="#009641"/><stop offset="1" stop-color="#009043"/></linearGradient><path fill="url(#a)" d="M24.698 18.93c12.918-5.794 26.029-7.471 36.094-5.397-1.125-.513-2.262-1.392-2.951-2.639-1.855-3.348-5.496-5.342-9.658-4.88-1.713.19-3.408-.24-4.521-1.001-1.566-1.065-3.334-1.729-5.471-1.729-2.139 0-3.906.663-5.471 1.729-1.113.761-2.809 1.191-4.521 1.001-4.164-.462-7.803 1.532-9.658 4.88-.826 1.493-2.281 2.447-3.613 2.899-3.314 1.126-6.045 4.15-6.41 8.086-.17 1.854-1.264 3.319-2.08 4.138-2.228 2.225-3.158 4.825-3.158 7.489l.002.132C8.726 27.976 16.05 22.807 24.698 18.93z"/><linearGradient id="b" gradientUnits="userSpaceOnUse" x1="57.4" y1="-.053" x2="17.84" y2="48.8"><stop offset="0" stop-color="#45b035"/><stop offset=".27" stop-color="#00a13d"/><stop offset=".544" stop-color="#009741"/><stop offset=".795" stop-color="#009243"/><stop offset="1" stop-color="#009043"/></linearGradient><path fill="url(#b)" d="M36.101 26.522c11.043-4.952 22.221-6.896 31.521-6.062-.799-3.227-3.217-5.634-6.168-6.666a6.87 6.87 0 0 1-.662-.261c-10.064-2.073-23.176-.396-36.094 5.397-8.648 3.877-15.972 9.046-21.416 14.708.062 5.233 3.969 9.541 9.027 10.234 5.596-6.684 13.815-12.876 23.792-17.35z"/><path fill="#009043" d="M69.944 26.017c-.818-.818-1.908-2.284-2.082-4.138a9.608 9.608 0 0 0-.24-1.42c-9.301-.833-20.479 1.11-31.521 6.062-9.977 4.474-18.195 10.666-23.791 17.351.469.065.947.098 1.436.098h15.021c1.428.001 2.586 1.184 2.586 2.611v.606c0 2.401-2.373 2.724-2.373 2.724l-12.217 2.1c-.434.069-.807.367-.807.797v1.5h44.469v-1.5c0-.43-.375-.728-.807-.797l-12.217-2.1s-2.373-.322-2.373-2.724v-.606c0-1.428 1.158-2.61 2.584-2.611h15.023c5.781 0 10.465-4.685 10.465-10.464.001-2.664-.931-5.264-3.156-7.489z"/><g><path d="M89.426 48.811c0-3.149 1.155-6.134 5.579-6.134.99 0 2.039.194 2.729.405l-.299 1.665a6.783 6.783 0 0 0-2.369-.435c-2.64 0-3.675 1.844-3.675 4.53 0 2.549 1.185 4.139 3.72 4.139.795 0 1.889-.195 2.506-.42l.194 1.68c-.629.209-1.754.405-2.774.405-4.365 0-5.609-2.73-5.609-5.819v-.016zm17.181 5.504l-1.514.269c-.301-.39-.48-.899-.556-1.424-.509.96-1.56 1.47-2.64 1.47-1.333 0-2.818-.674-2.818-2.715 0-2.099 1.125-2.729 5.234-2.909v-.585c0-.884-.166-1.47-1.561-1.47-.885 0-1.753.255-2.594.69l-.39-1.5c.795-.375 2.024-.689 3.193-.689 2.294 0 3.044.959 3.044 2.954v3.39c.002 1.109.199 2.038.602 2.519zm-5.849-2.446c0 1.066.886 1.291 1.485 1.291 1.064 0 1.89-.75 2.071-1.605v-1.214c-2.731.15-3.556.374-3.556 1.528zm11.298 1.231v1.365l-.824.044c-1.484.075-2.446-.464-2.446-2.069v-5.204h-1.378v-1.41h1.378v-1.979l1.772-.45v2.43h1.815v1.41h-1.815v4.528c0 1.021.224 1.335.989 1.335h.509zm6.34-7.544c2.235 0 2.836 1.411 2.836 2.971v5.908h-1.785v-5.459c0-1.11-.375-1.935-1.589-1.935-.841 0-1.696.405-2.146.961v6.433h-1.816V42.527l1.816-.271v4.38c.569-.585 1.59-1.08 2.684-1.08zm12.071 8.759l-1.515.269c-.301-.39-.481-.899-.557-1.424-.509.96-1.561 1.47-2.639 1.47-1.335 0-2.818-.674-2.818-2.715 0-2.099 1.124-2.729 5.233-2.909v-.585c0-.884-.166-1.47-1.561-1.47-.886 0-1.754.255-2.595.69l-.39-1.5c.795-.375 2.024-.689 3.193-.689 2.295 0 3.045.959 3.045 2.954v3.39c.002 1.109.199 2.038.604 2.519zm-5.851-2.446c0 1.066.886 1.291 1.484 1.291 1.065 0 1.89-.75 2.071-1.605v-1.214c-2.73.15-3.555.374-3.555 1.528zm12.487-6.147h1.98c-.72 2.174-2.085 6.179-2.969 8.398-.735 1.859-1.455 3.149-2.114 3.884l-1.757-.78c.676-.63 1.47-1.814 2.13-3.39l-3.388-8.112h2.008l2.28 6.179c.63-1.816 1.38-4.425 1.83-6.179zM146.806 52.831h4.723v1.604h-6.553V42.916h1.83v9.915zm8.085-8.415h-1.874v-1.649h1.874v1.649zm-.031 10.019h-1.814v-8.713h1.814v8.713zm1.457-7.198v-1.41h1.484v-.36c0-1.441.585-3.24 3.015-3.24.54 0 1.171.061 1.606.18l-.258 1.469a4.762 4.762 0 0 0-1.125-.149c-1.078 0-1.483.54-1.483 1.799v.301h1.935v1.41h-1.935v7.198h-1.755v-7.198h-1.484zm10.548 5.923c.884 0 1.844-.195 2.535-.496l.329 1.441c-.557.269-1.696.585-3.015.585-3.136 0-4.394-1.935-4.394-4.5 0-2.684 1.424-4.769 4.153-4.769 2.415 0 3.374 1.649 3.374 3.929v1.05h-5.728c-.016 1.875 1.034 2.76 2.729 2.76h.017zm-.586-6.345c-1.274 0-2.024 1.141-2.113 2.295h4.034c-.016-1.409-.511-2.295-1.905-2.295h-.016zM178.263 54.435h-1.859V42.916h1.859v11.519zm3.973-8.849c.12.301.254.84.284 1.14.571-.63 1.681-1.17 2.775-1.17 2.25 0 2.849 1.411 2.849 2.971v5.908h-1.799v-5.459c0-1.11-.375-1.935-1.591-1.935-.839 0-1.693.405-2.159.93v6.464h-1.799V47.61c0-.612-.061-1.274-.211-1.799l1.651-.225zm12.855 1.74a4.935 4.935 0 0 0-1.918-.436c-.557 0-1.292.195-1.292 1.005 0 .585.421.854 1.516 1.38 1.246.583 2.295 1.214 2.295 2.714 0 2.1-1.546 2.684-2.895 2.684-.9 0-2.234-.224-2.999-.525l.404-1.528c.72.314 1.74.54 2.414.54.689 0 1.291-.225 1.291-1.095 0-.675-.615-1.05-1.786-1.59-1.213-.555-2.009-1.094-2.009-2.49 0-2.055 1.754-2.504 3.061-2.504.779 0 1.829.18 2.352.39l-.434 1.455zm5.149 7.304c-2.251 0-2.851-1.425-2.851-2.984v-5.923h1.799v5.488c0 1.095.36 1.92 1.591 1.92.841 0 1.68-.405 2.144-.929v-6.479h1.814v6.208c0 .96.075 1.74.257 2.415l-1.696.24a5.69 5.69 0 0 1-.27-1.094c-.658.643-1.694 1.138-2.788 1.138zm11.435-9.029l-.089 1.605c-1.021 0-2.19.345-2.61 1.274v5.954h-1.8V47.94c0-.81-.06-1.605-.209-2.13l1.648-.225c.12.301.272.96.301 1.32.449-.749 1.561-1.304 2.759-1.304zm8.223 8.714l-1.515.269c-.299-.39-.48-.899-.557-1.424-.508.96-1.558 1.47-2.638 1.47-1.335 0-2.819-.674-2.819-2.715 0-2.099 1.125-2.729 5.233-2.909v-.585c0-.884-.165-1.47-1.561-1.47-.884 0-1.753.255-2.594.69l-.39-1.5c.795-.375 2.025-.689 3.194-.689 2.295 0 3.044.959 3.044 2.954v3.39c.003 1.109.198 2.038.603 2.519zm-5.848-2.446c0 1.066.884 1.291 1.484 1.291 1.065 0 1.89-.75 2.069-1.605v-1.214c-2.729.15-3.553.374-3.553 1.528zm9.072-6.283c.121.301.256.84.285 1.14.57-.63 1.68-1.17 2.775-1.17 2.249 0 2.848 1.411 2.848 2.971v5.908h-1.799v-5.459c0-1.11-.375-1.935-1.59-1.935-.84 0-1.694.405-2.159.93v6.464h-1.8V47.61c0-.612-.06-1.274-.209-1.799l1.649-.225zm7.821 4.56c0-2.444.959-4.694 4.317-4.694a6.9 6.9 0 0 1 2.042.314l-.33 1.515a5.102 5.102 0 0 0-1.682-.299c-1.829 0-2.534 1.32-2.534 3.179 0 1.784.781 2.985 2.595 2.985.526 0 1.276-.106 1.74-.314l.255 1.543c-.404.149-1.245.316-2.101.316-3.344 0-4.303-2.206-4.303-4.53v-.015zm11.886 3.014c.885 0 1.846-.195 2.535-.496l.33 1.441c-.557.269-1.696.585-3.015.585-3.136 0-4.394-1.935-4.394-4.5 0-2.684 1.424-4.769 4.152-4.769 2.415 0 3.375 1.649 3.375 3.929v1.05h-5.729c-.015 1.875 1.034 2.76 2.729 2.76h.017zm-.585-6.345c-1.274 0-2.024 1.141-2.114 2.295h4.034c-.016-1.409-.511-2.295-1.904-2.295h-.016z"/><g><path d="M117.329 5.425H91.047c-.891 0-1.622.723-1.622 1.615v23.576c0 .891.724 1.623 1.613 1.623h26.279c.896 0 1.618-.722 1.618-1.613V7.046a1.612 1.612 0 0 0-1.606-1.621zm-8.715 1.972h2.265c.116.599.279 1.53.45 2.684h-2.665a36.344 36.344 0 0 1-.05-2.684zm-15.508 0h12.636c.015.506.059 1.446.177 2.684H93.104l.002-2.684zm22.157 22.872H93.099l.005-18.201h13.045c.401 2.954 1.195 6.782 2.752 10.345-1.343 1.945-2.944 3.703-4.8 4.975-.162.102-.043.275-.043.275l.596 1.142s.088.225.274.086c1.945-1.102 3.608-2.617 5.034-4.327.959 1.727 2.138 3.323 3.582 4.64.146.169.295.035.295.035l.896-1.061s.12-.096-.015-.219c-1.38-1.632-2.444-3.466-3.274-5.352 1.019-1.479 1.89-3.042 2.64-4.571.131-.25-.096-.327-.096-.327l-1.89-.765s-.21-.088-.292.132c-.4.953-.859 1.917-1.376 2.866-.921-2.828-1.387-5.613-1.613-7.874h4.771s.683 0 .652-.838c-.274-1.497-.549-2.989-.705-3.833h1.734l-.008 22.872zm-10.075-5.647v-1.387c0-.238-.219-.179-.219-.179-3.709 1.067-8.141 1.436-10.159 1.486h-.014a.306.306 0 0 0-.308.302v2.219c0 .167.137.302.306.302l.002.001h.019l.005-.001c2.275-.092 7.175-1.127 10.182-2.468-.001.001.186-.072.186-.275zm-9.085-2.975l7.472.003c.891 0 1.613-.724 1.614-1.615l.001-4.62c0-.895-.723-1.612-1.613-1.616l-7.47-.001a1.616 1.616 0 0 0-1.616 1.615v4.62a1.61 1.61 0 0 0 1.612 1.614zm1.958-6.153h3.562l-.001 4.462-3.563-.004.002-4.458zM226.764 12.325h-25.815a.377.377 0 0 0-.385.367v1.173c0 .206.172.377.385.377h24.703l-.645 2.537c0 .211.163.385.37.385h1.771c.263 0 .266-.163.356-.384 0 0 .676-2.056.857-2.774.169-.651.033-1.681-1.597-1.681zM210.5 24.084h-7.4a1.611 1.611 0 0 0-1.616 1.611v3.484c0 .894.724 1.614 1.616 1.614h7.397a1.61 1.61 0 0 0 1.615-1.611l.003-3.484c0-.891-.723-1.614-1.615-1.614zm-1.953 5.016h-3.495v-3.323h3.495V29.1zm-7.633-20.709h10.766l-.001 1.01h-8.486a.299.299 0 0 0-.299.3v1.313c0 .167.133.301.299.301h20.793a.3.3 0 0 0 .301-.301V9.701a.3.3 0 0 0-.301-.3H215.5l.001-1.01h10.768a.3.3 0 0 0 .301-.3V6.777a.3.3 0 0 0-.301-.301h-10.767v-.931a.376.376 0 0 0-.368-.384h-3.08a.376.376 0 0 0-.373.383v.932h-10.766a.302.302 0 0 0-.301.301V8.09a.3.3 0 0 0 .3.301zm.872 9.779a.302.302 0 0 0-.303.3v1.317c0 .167.137.301.303.301h23.61a.3.3 0 0 0 .3-.301V18.47a.3.3 0 0 0-.3-.3h-9.899l.003-1.007h8.485a.302.302 0 0 0 .301-.302v-1.313a.3.3 0 0 0-.301-.301h-20.793a.299.299 0 0 0-.299.301v1.313a.3.3 0 0 0 .299.302h8.486l-.001 1.007h-9.891zm26.148 2.928h-28.702a.302.302 0 0 0-.302.301v1.312c0 .166.136.301.302.301h21.386l-.001 1.072h-7.142a.298.298 0 0 0-.299.299v1.313c0 .167.132.301.299.301h2.136l.416 2.825c0 .154.138.278.312.278h2.209c.099 0 .18-.072.18-.157v-.003l-.796-2.943h2.686L220.613 29c-.018.812-.156 1.254-1.492 1.254h-.756c-.094 0-.109.061-.11.092v1.432c0 .255.207.459.459.459l1.394.002c3.171 0 4.179-.433 4.181-3.188v-3.054h1.972a.3.3 0 0 0 .3-.301v-1.313a.299.299 0 0 0-.3-.299h-1.972v-1.072h3.646a.301.301 0 0 0 .301-.301v-1.312a.303.303 0 0 0-.302-.301zM192.267 30.774l-.987 1.256s-.205.32-.519.167l-.018-.01-.002.002c-7.904-3.224-11.59-9.994-13.303-15.911-1.71 5.917-5.399 12.687-13.303 15.911v-.002c-.007.005-.013.006-.02.01-.31.152-.517-.167-.517-.167l-.986-1.256s-.171-.252.062-.396a28.24 28.24 0 0 0 1.828-1.019c10.582-6.771 10.88-21.409 10.865-23.514 0-.141.113-.254.255-.254h3.634c.139 0 .252.113.253.254-.015 2.105.283 16.743 10.866 23.514.569.351 1.272.735 1.827 1.019.236.144.065.396.065.396zM141.192 19.873H139.5a.369.369 0 0 0-.37.365v8.765c-.02.809-.158 1.252-1.484 1.253h-.768c-.123 0-.11.109-.11.109v1.416a.46.46 0 0 0 .459.459h1.396c3.17.003 4.178-.431 4.18-3.186l.003-7.567a1.618 1.618 0 0 0-1.614-1.614zm14.333 2.205c-1.835-.866-3.923-2.178-5.472-3.699h5.474a.303.303 0 0 0 .302-.301v-1.615a.302.302 0 0 0-.302-.301h-18.7c.66-.848 1.27-1.708 1.823-2.555h13.344a.301.301 0 0 0 .303-.302v-1.612a.301.301 0 0 0-.303-.302h-11.998c.518-.917.964-1.779 1.336-2.554h13.126a.3.3 0 0 0 .3-.302V6.919a.299.299 0 0 0-.3-.299h-12.145c.129-.324.23-.599.303-.804.1-.301.086-.522-.25-.604-.714-.153-2.166-.451-2.595-.56-.565-.144-.666.427-.666.427l-.234.76c-.078.238-.169.501-.269.78h-10.836a.3.3 0 0 0-.301.299v1.615a.3.3 0 0 0 .301.302h9.93a39.291 39.291 0 0 1-1.252 2.554h-6.266a.3.3 0 0 0-.301.302v1.612a.3.3 0 0 0 .301.302h4.984a33.135 33.135 0 0 1-1.765 2.555h-6.804a.299.299 0 0 0-.298.301v1.615a.3.3 0 0 0 .298.301h4.909c-1.455 1.517-3.098 2.825-4.93 3.693-.476.16-.247.583-.247.583l.353.863s.12.354.547.196a16.728 16.728 0 0 0 3.271-1.616c2.394.599 5.249 1.886 5.961 2.184.227.114.32-.064.32-.064l.865-1.822s.146-.229-.097-.339c-.995-.433-3.237-1.076-4.979-1.462a25.15 25.15 0 0 0 2.362-2.215h11.719a20.28 20.28 0 0 0 2.359 2.089c-1.393.655-3.649 1.154-4.906 1.298-.163.017-.229.127-.184.311.242.726.317 1.292.558 2.011.079.241.192.234.354.195.836-.123 4.449-1.475 6.024-2.539 1.295.801 2.659 1.483 4.019 1.978.421.159.547-.195.547-.195l.354-.865c.001.002.231-.423-.247-.583zm-17.564 4.967c-.092-.646-.108-.562-.239-1.218-.008-.103-.126-.227-.297-.159-2.987 1.55-5.952 2.323-9.188 3.217-.193.072-.252.205-.174.377.265.564.712 1.549.901 1.967.07.142.269.258.5.171 2.637-.89 5.949-2.567 8.356-3.958.162-.112.168-.221.141-.397zm15.468 1.97c-2.695-1.262-5.833-2.364-8.639-3.004-.266-.087-.31.112-.31.112l-.547 1.184s-.125.25.118.337c2.699 1.173 5.069 2.122 7.601 3.633.261.113.571.102.751-.139.469-.689.665-1.01 1.139-1.705.096-.15.042-.329-.113-.418z"/></g></g></svg>