<?xml version="1.0" encoding="utf-8"?>
<!-- Generator: Adobe Illustrator 16.0.0, SVG Export Plug-In . SVG Version: 6.00 Build 0)  -->
<!DOCTYPE svg PUBLIC "-//W3C//DTD SVG 1.1//EN" "http://www.w3.org/Graphics/SVG/1.1/DTD/svg11.dtd">
<svg version="1.1" id="圖層_1" xmlns="http://www.w3.org/2000/svg" xmlns:xlink="http://www.w3.org/1999/xlink" x="0px" y="0px"
	 width="248.407px" height="58.004px" viewBox="0 0 248.407 58.004" enable-background="new 0 0 248.407 58.004"
	 xml:space="preserve">
<g>
	<linearGradient id="SVGID_1_" gradientUnits="userSpaceOnUse" x1="47" y1="1.2065" x2="13.8241" y2="42.1754">
		<stop  offset="0" style="stop-color:#6FBA2C"/>
		<stop  offset="0.3125" style="stop-color:#30A938"/>
		<stop  offset="0.7712" style="stop-color:#009641"/>
		<stop  offset="1" style="stop-color:#009043"/>
	</linearGradient>
	<path fill="url(#SVGID_1_)" d="M24.698,18.93c12.918-5.794,26.029-7.471,36.094-5.397c-1.125-0.513-2.262-1.392-2.951-2.639
		c-1.855-3.348-5.496-5.342-9.658-4.88c-1.713,0.19-3.408-0.24-4.521-1.001c-1.566-1.065-3.334-1.729-5.471-1.729
		c-2.139,0-3.906,0.663-5.471,1.729c-1.113,0.761-2.809,1.191-4.521,1.001c-4.164-0.462-7.803,1.532-9.658,4.88
		c-0.826,1.493-2.281,2.447-3.613,2.899c-3.314,1.126-6.045,4.15-6.41,8.086c-0.17,1.854-1.264,3.319-2.08,4.138
		C4.21,28.242,3.28,30.842,3.28,33.506c0,0.044,0.002,0.088,0.002,0.132C8.726,27.976,16.05,22.807,24.698,18.93z"/>
	<linearGradient id="SVGID_2_" gradientUnits="userSpaceOnUse" x1="57.3999" y1="-0.0532" x2="17.8395" y2="48.7998">
		<stop  offset="0" style="stop-color:#45B035"/>
		<stop  offset="0.27" style="stop-color:#00A13D"/>
		<stop  offset="0.5437" style="stop-color:#009741"/>
		<stop  offset="0.7948" style="stop-color:#009243"/>
		<stop  offset="1" style="stop-color:#009043"/>
	</linearGradient>
	<path fill="url(#SVGID_2_)" d="M36.101,26.522c11.043-4.952,22.221-6.896,31.521-6.062c-0.799-3.227-3.217-5.634-6.168-6.666l0,0
		c-0.219-0.073-0.439-0.16-0.662-0.261c-10.064-2.073-23.176-0.396-36.094,5.397C16.05,22.807,8.726,27.976,3.282,33.638
		c0.062,5.233,3.969,9.541,9.027,10.234C17.905,37.188,26.124,30.996,36.101,26.522z"/>
	<g>
		<path fill="#009043" d="M69.944,26.017c-0.818-0.818-1.908-2.284-2.082-4.138c-0.045-0.488-0.127-0.962-0.24-1.42
			c-9.301-0.833-20.479,1.11-31.521,6.062c-9.977,4.474-18.195,10.666-23.791,17.351c0.469,0.065,0.947,0.098,1.436,0.098h15.021
			c1.428,0.001,2.586,1.184,2.586,2.611v0.606c0,2.401-2.373,2.724-2.373,2.724l-12.217,2.1c-0.434,0.069-0.807,0.367-0.807,0.797
			v1.5h44.469v-1.5c0-0.43-0.375-0.728-0.807-0.797l-12.217-2.1c0,0-2.373-0.322-2.373-2.724v-0.606c0-1.428,1.158-2.61,2.584-2.611
			h15.023c5.781,0,10.465-4.685,10.465-10.464C73.101,30.842,72.169,28.242,69.944,26.017z"/>
	</g>
</g>
<g>
	<g>
		<g>
			<path d="M89.426,48.811c0-3.149,1.155-6.134,5.579-6.134c0.99,0,2.039,0.194,2.729,0.405l-0.299,1.665
				c-0.689-0.27-1.56-0.435-2.369-0.435c-2.64,0-3.675,1.844-3.675,4.53c0,2.549,1.185,4.139,3.72,4.139
				c0.795,0,1.889-0.195,2.506-0.42l0.194,1.68c-0.629,0.209-1.754,0.405-2.774,0.405c-4.365,0-5.609-2.73-5.609-5.819V48.811z
				 M106.607,54.315l-1.514,0.269c-0.301-0.39-0.48-0.899-0.556-1.424c-0.509,0.96-1.56,1.47-2.64,1.47
				c-1.333,0-2.818-0.674-2.818-2.715c0-2.099,1.125-2.729,5.234-2.909v-0.585c0-0.884-0.166-1.47-1.561-1.47
				c-0.885,0-1.753,0.255-2.594,0.69l-0.39-1.5c0.795-0.375,2.024-0.689,3.193-0.689c2.294,0,3.044,0.959,3.044,2.954v3.39
				C106.007,52.905,106.204,53.834,106.607,54.315z M100.758,51.869c0,1.066,0.886,1.291,1.485,1.291c1.064,0,1.89-0.75,2.071-1.605
				v-1.214C101.583,50.491,100.758,50.715,100.758,51.869z M112.056,53.1v1.365l-0.824,0.044c-1.484,0.075-2.446-0.464-2.446-2.069
				v-5.204h-1.378v-1.41h1.378v-1.979l1.772-0.45v2.43h1.815v1.41h-1.815v4.528c0,1.021,0.224,1.335,0.989,1.335H112.056z
				 M118.396,45.556c2.235,0,2.836,1.411,2.836,2.971v5.908h-1.785v-5.459c0-1.11-0.375-1.935-1.589-1.935
				c-0.841,0-1.696,0.405-2.146,0.961v6.433h-1.816V42.527l1.816-0.271v4.38C116.281,46.051,117.302,45.556,118.396,45.556z
				 M130.467,54.315l-1.515,0.269c-0.301-0.39-0.481-0.899-0.557-1.424c-0.509,0.96-1.561,1.47-2.639,1.47
				c-1.335,0-2.818-0.674-2.818-2.715c0-2.099,1.124-2.729,5.233-2.909v-0.585c0-0.884-0.166-1.47-1.561-1.47
				c-0.886,0-1.754,0.255-2.595,0.69l-0.39-1.5c0.795-0.375,2.024-0.689,3.193-0.689c2.295,0,3.045,0.959,3.045,2.954v3.39
				C129.865,52.905,130.062,53.834,130.467,54.315z M124.616,51.869c0,1.066,0.886,1.291,1.484,1.291c1.065,0,1.89-0.75,2.071-1.605
				v-1.214C125.441,50.491,124.616,50.715,124.616,51.869z M137.103,45.722h1.98c-0.72,2.174-2.085,6.179-2.969,8.398
				c-0.735,1.859-1.455,3.149-2.114,3.884l-1.757-0.78c0.676-0.63,1.47-1.814,2.13-3.39l-3.388-8.112h2.008l2.28,6.179
				C135.903,50.085,136.653,47.476,137.103,45.722z"/>
			<path d="M146.806,52.831h4.723v1.604h-6.553V42.916h1.83V52.831z M154.891,44.416h-1.874v-1.649h1.874V44.416z M154.86,54.435
				h-1.814v-8.713h1.814V54.435z M156.317,47.237v-1.41h1.484v-0.36c0-1.441,0.585-3.24,3.015-3.24c0.54,0,1.171,0.061,1.606,0.18
				l-0.258,1.469c-0.314-0.089-0.794-0.149-1.125-0.149c-1.078,0-1.483,0.54-1.483,1.799v0.301h1.935v1.41h-1.935v7.198h-1.755
				v-7.198H156.317z M166.865,53.16c0.884,0,1.844-0.195,2.535-0.496l0.329,1.441c-0.557,0.269-1.696,0.585-3.015,0.585
				c-3.136,0-4.394-1.935-4.394-4.5c0-2.684,1.424-4.769,4.153-4.769c2.415,0,3.374,1.649,3.374,3.929V50.4h-5.728
				c-0.016,1.875,1.034,2.76,2.729,2.76H166.865z M166.279,46.815c-1.274,0-2.024,1.141-2.113,2.295h4.034
				c-0.016-1.409-0.511-2.295-1.905-2.295H166.279z"/>
			<path d="M178.263,54.435h-1.859V42.916h1.859V54.435z M182.236,45.586c0.12,0.301,0.254,0.84,0.284,1.14
				c0.571-0.63,1.681-1.17,2.775-1.17c2.25,0,2.849,1.411,2.849,2.971v5.908h-1.799v-5.459c0-1.11-0.375-1.935-1.591-1.935
				c-0.839,0-1.693,0.405-2.159,0.93v6.464h-1.799V47.61c0-0.612-0.061-1.274-0.211-1.799L182.236,45.586z M195.091,47.326
				c-0.51-0.24-1.274-0.436-1.918-0.436c-0.557,0-1.292,0.195-1.292,1.005c0,0.585,0.421,0.854,1.516,1.38
				c1.246,0.583,2.295,1.214,2.295,2.714c0,2.1-1.546,2.684-2.895,2.684c-0.9,0-2.234-0.224-2.999-0.525l0.404-1.528
				c0.72,0.314,1.74,0.54,2.414,0.54c0.689,0,1.291-0.225,1.291-1.095c0-0.675-0.615-1.05-1.786-1.59
				c-1.213-0.555-2.009-1.094-2.009-2.49c0-2.055,1.754-2.504,3.061-2.504c0.779,0,1.829,0.18,2.352,0.39L195.091,47.326z
				 M200.24,54.63c-2.251,0-2.851-1.425-2.851-2.984v-5.923h1.799v5.488c0,1.095,0.36,1.92,1.591,1.92
				c0.841,0,1.68-0.405,2.144-0.929v-6.479h1.814v6.208c0,0.96,0.075,1.74,0.257,2.415l-1.696,0.24
				c-0.134-0.36-0.224-0.78-0.27-1.094C202.37,54.135,201.334,54.63,200.24,54.63z M211.675,45.601l-0.089,1.605
				c-1.021,0-2.19,0.345-2.61,1.274v5.954h-1.8v-6.494c0-0.81-0.06-1.605-0.209-2.13l1.648-0.225c0.12,0.301,0.272,0.96,0.301,1.32
				C209.365,46.156,210.477,45.601,211.675,45.601z M219.898,54.315l-1.515,0.269c-0.299-0.39-0.48-0.899-0.557-1.424
				c-0.508,0.96-1.558,1.47-2.638,1.47c-1.335,0-2.819-0.674-2.819-2.715c0-2.099,1.125-2.729,5.233-2.909v-0.585
				c0-0.884-0.165-1.47-1.561-1.47c-0.884,0-1.753,0.255-2.594,0.69l-0.39-1.5c0.795-0.375,2.025-0.689,3.194-0.689
				c2.295,0,3.044,0.959,3.044,2.954v3.39C219.298,52.905,219.493,53.834,219.898,54.315z M214.05,51.869
				c0,1.066,0.884,1.291,1.484,1.291c1.065,0,1.89-0.75,2.069-1.605v-1.214C214.874,50.491,214.05,50.715,214.05,51.869z
				 M223.122,45.586c0.121,0.301,0.256,0.84,0.285,1.14c0.57-0.63,1.68-1.17,2.775-1.17c2.249,0,2.848,1.411,2.848,2.971v5.908
				h-1.799v-5.459c0-1.11-0.375-1.935-1.59-1.935c-0.84,0-1.694,0.405-2.159,0.93v6.464h-1.8V47.61c0-0.612-0.06-1.274-0.209-1.799
				L223.122,45.586z M230.943,50.146c0-2.444,0.959-4.694,4.317-4.694c0.825,0,1.591,0.165,2.042,0.314l-0.33,1.515
				c-0.511-0.195-1.171-0.299-1.682-0.299c-1.829,0-2.534,1.32-2.534,3.179c0,1.784,0.781,2.985,2.595,2.985
				c0.526,0,1.276-0.106,1.74-0.314l0.255,1.543c-0.404,0.149-1.245,0.316-2.101,0.316c-3.344,0-4.303-2.206-4.303-4.53V50.146z
				 M242.829,53.16c0.885,0,1.846-0.195,2.535-0.496l0.33,1.441c-0.557,0.269-1.696,0.585-3.015,0.585
				c-3.136,0-4.394-1.935-4.394-4.5c0-2.684,1.424-4.769,4.152-4.769c2.415,0,3.375,1.649,3.375,3.929V50.4h-5.729
				c-0.015,1.875,1.034,2.76,2.729,2.76H242.829z M242.244,46.815c-1.274,0-2.024,1.141-2.114,2.295h4.034
				c-0.016-1.409-0.511-2.295-1.904-2.295H242.244z"/>
		</g>
		<g>
			<g>
				<g>
					<path d="M117.329,5.425H91.047c-0.891,0-1.622,0.723-1.622,1.615v23.576c0,0.891,0.724,1.623,1.613,1.623h26.279
						c0.896,0,1.618-0.722,1.618-1.613V7.046C118.937,6.154,118.219,5.425,117.329,5.425z M108.614,7.397h2.265
						c0.116,0.599,0.279,1.53,0.45,2.684h-2.665C108.598,8.842,108.603,7.903,108.614,7.397z M93.106,7.397h12.636
						c0.015,0.506,0.059,1.446,0.177,2.684H93.104L93.106,7.397z M115.263,30.269H93.099l0.005-18.201h13.045
						c0.401,2.954,1.195,6.782,2.752,10.345c-1.343,1.945-2.944,3.703-4.8,4.975c-0.162,0.102-0.043,0.275-0.043,0.275l0.596,1.142
						c0,0,0.088,0.225,0.274,0.086c1.945-1.102,3.608-2.617,5.034-4.327c0.959,1.727,2.138,3.323,3.582,4.64
						c0.146,0.169,0.295,0.035,0.295,0.035l0.896-1.061c0,0,0.12-0.096-0.015-0.219c-1.38-1.632-2.444-3.466-3.274-5.352
						c1.019-1.479,1.89-3.042,2.64-4.571c0.131-0.25-0.096-0.327-0.096-0.327l-1.89-0.765c0,0-0.21-0.088-0.292,0.132
						c-0.4,0.953-0.859,1.917-1.376,2.866c-0.921-2.828-1.387-5.613-1.613-7.874h4.771c0,0,0.683,0,0.652-0.838
						c-0.274-1.497-0.549-2.989-0.705-3.833h1.734L115.263,30.269z M105.188,24.622v-1.387c0-0.238-0.219-0.179-0.219-0.179
						c-3.709,1.067-8.141,1.436-10.159,1.486h-0.014c-0.169,0.001-0.308,0.135-0.308,0.302v2.219c0,0.167,0.137,0.302,0.306,0.302
						l0.002,0.001h0.019c0.002,0,0.002-0.001,0.005-0.001c2.275-0.092,7.175-1.127,10.182-2.468
						C105.001,24.898,105.188,24.825,105.188,24.622z M96.103,21.647l7.472,0.003c0.891,0,1.613-0.724,1.614-1.615l0.001-4.62
						c0-0.895-0.723-1.612-1.613-1.616l-7.47-0.001c-0.891-0.001-1.616,0.723-1.616,1.615v4.62
						C94.49,20.927,95.211,21.647,96.103,21.647z M98.061,15.494h3.562l-0.001,4.462l-3.563-0.004L98.061,15.494z"/>
				</g>
			</g>
			<path d="M226.764,12.325h-25.815c-0.213,0-0.385,0.166-0.385,0.367v1.173c0,0.206,0.172,0.377,0.385,0.377h24.703l-0.645,2.537
				c0,0.211,0.163,0.385,0.37,0.385h1.771c0.263,0,0.266-0.163,0.356-0.384c0,0,0.676-2.056,0.857-2.774
				C228.53,13.355,228.394,12.325,226.764,12.325z M210.5,24.084h-7.4c-0.891-0.003-1.616,0.719-1.616,1.611v3.484
				c0,0.894,0.724,1.614,1.616,1.614h7.397c0.892,0,1.615-0.718,1.615-1.611l0.003-3.484
				C212.115,24.807,211.392,24.084,210.5,24.084z M208.547,29.1h-3.495v-3.323h3.495V29.1z M200.914,8.391h10.766l-0.001,1.01
				h-8.486c-0.166,0-0.299,0.134-0.299,0.3v1.313c0,0.167,0.133,0.301,0.299,0.301h20.793c0.166,0,0.301-0.134,0.301-0.301V9.701
				c0-0.166-0.135-0.3-0.301-0.3h-8.486l0.001-1.01h10.768c0.167,0,0.301-0.134,0.301-0.3V6.777c0-0.166-0.134-0.301-0.301-0.301
				h-10.767V5.545c0-0.21-0.163-0.384-0.368-0.384h-3.08c-0.209,0-0.373,0.171-0.373,0.383v0.932h-10.766
				c-0.165,0-0.301,0.135-0.301,0.301v1.313C200.613,8.257,200.749,8.391,200.914,8.391z M201.786,18.17
				c-0.166,0-0.303,0.133-0.303,0.3v1.317c0,0.167,0.137,0.301,0.303,0.301h23.61c0.165,0,0.3-0.134,0.3-0.301v-1.317
				c0-0.167-0.135-0.3-0.3-0.3h-9.899l0.003-1.007h8.485c0.166,0,0.301-0.136,0.301-0.302v-1.313c0-0.167-0.135-0.301-0.301-0.301
				h-20.793c-0.166,0-0.299,0.134-0.299,0.301v1.313c0,0.166,0.133,0.302,0.299,0.302h8.486l-0.001,1.007H201.786z M227.934,21.098
				h-28.702c-0.166,0-0.302,0.134-0.302,0.301v1.312c0,0.166,0.136,0.301,0.302,0.301h21.386l-0.001,1.072h-7.142
				c-0.167,0-0.299,0.134-0.299,0.299v1.313c0,0.167,0.132,0.301,0.299,0.301h2.136l0.416,2.825c0,0.154,0.138,0.278,0.312,0.278
				h2.209c0.099,0,0.18-0.072,0.18-0.157V28.94l-0.796-2.943h2.686L220.613,29c-0.018,0.812-0.156,1.254-1.492,1.254h-0.756
				c-0.094,0-0.109,0.061-0.11,0.092v1.432c0,0.255,0.207,0.459,0.459,0.459l1.394,0.002c3.171,0,4.179-0.433,4.181-3.188v-3.054
				h1.972c0.167,0,0.3-0.134,0.3-0.301v-1.313c0-0.165-0.133-0.299-0.3-0.299h-1.972v-1.072h3.646c0.166,0,0.301-0.135,0.301-0.301
				v-1.312C228.234,21.232,228.1,21.098,227.934,21.098z"/>
			<path d="M192.267,30.774l-0.987,1.256c0,0-0.205,0.32-0.519,0.167c-0.007-0.004-0.01-0.005-0.018-0.01l-0.002,0.002
				c-7.904-3.224-11.59-9.994-13.303-15.911c-1.71,5.917-5.399,12.687-13.303,15.911v-0.002c-0.007,0.005-0.013,0.006-0.02,0.01
				c-0.31,0.152-0.517-0.167-0.517-0.167l-0.986-1.256c0,0-0.171-0.252,0.062-0.396c0.555-0.284,1.259-0.668,1.828-1.019
				c10.582-6.771,10.88-21.409,10.865-23.514l0,0c0-0.141,0.113-0.254,0.255-0.254h3.634c0.139,0,0.252,0.113,0.253,0.254l0,0
				c-0.015,2.105,0.283,16.743,10.866,23.514c0.569,0.351,1.272,0.735,1.827,1.019C192.438,30.522,192.267,30.774,192.267,30.774z"
				/>
			<path d="M141.192,19.873H139.5c-0.204,0-0.37,0.165-0.37,0.365v8.765c-0.02,0.809-0.158,1.252-1.484,1.253h-0.768
				c-0.123,0-0.11,0.109-0.11,0.109v1.416c0,0.255,0.209,0.459,0.459,0.459h1.396c3.17,0.003,4.178-0.431,4.18-3.186l0.003-7.567
				C142.805,20.598,142.081,19.873,141.192,19.873z M155.525,22.078c-1.835-0.866-3.923-2.178-5.472-3.699h5.474
				c0.166,0,0.302-0.136,0.302-0.301v-1.615c0-0.167-0.136-0.301-0.302-0.301h-18.7c0.66-0.848,1.27-1.708,1.823-2.555h13.344
				c0.169,0,0.303-0.135,0.303-0.302v-1.612c0-0.167-0.134-0.302-0.303-0.302h-11.998c0.518-0.917,0.964-1.779,1.336-2.554h13.126
				c0.166,0,0.3-0.133,0.3-0.302V6.919c0-0.166-0.134-0.299-0.3-0.299h-12.145c0.129-0.324,0.23-0.599,0.303-0.804
				c0.1-0.301,0.086-0.522-0.25-0.604c-0.714-0.153-2.166-0.451-2.595-0.56c-0.565-0.144-0.666,0.427-0.666,0.427l-0.234,0.76
				c-0.078,0.238-0.169,0.501-0.269,0.78h-10.836c-0.166,0-0.301,0.133-0.301,0.299v1.615c0,0.169,0.135,0.302,0.301,0.302h9.93
				c-0.357,0.802-0.775,1.663-1.252,2.554h-6.266c-0.168,0-0.301,0.134-0.301,0.302v1.612c0,0.167,0.133,0.302,0.301,0.302h4.984
				c-0.539,0.86-1.126,1.721-1.765,2.555h-6.804c-0.164,0-0.298,0.133-0.298,0.301v1.615c0,0.165,0.134,0.301,0.298,0.301h4.909
				c-1.455,1.517-3.098,2.825-4.93,3.693c-0.476,0.16-0.247,0.583-0.247,0.583l0.353,0.863c0,0,0.12,0.354,0.547,0.196
				c1.155-0.417,2.245-0.966,3.271-1.616c2.394,0.599,5.249,1.886,5.961,2.184c0.227,0.114,0.32-0.064,0.32-0.064l0.865-1.822
				c0,0,0.146-0.229-0.097-0.339c-0.995-0.433-3.237-1.076-4.979-1.462c0.838-0.685,1.625-1.434,2.362-2.215h11.719
				c0.702,0.735,1.502,1.435,2.359,2.089c-1.393,0.655-3.649,1.154-4.906,1.298c-0.163,0.017-0.229,0.127-0.184,0.311
				c0.242,0.726,0.317,1.292,0.558,2.011c0.079,0.241,0.192,0.234,0.354,0.195c0.836-0.123,4.449-1.475,6.024-2.539
				c1.295,0.801,2.659,1.483,4.019,1.978c0.421,0.159,0.547-0.195,0.547-0.195l0.354-0.865
				C155.773,22.663,156.003,22.238,155.525,22.078z M137.961,27.045c-0.092-0.646-0.108-0.562-0.239-1.218
				c-0.008-0.103-0.126-0.227-0.297-0.159c-2.987,1.55-5.952,2.323-9.188,3.217c-0.193,0.072-0.252,0.205-0.174,0.377
				c0.265,0.564,0.712,1.549,0.901,1.967c0.07,0.142,0.269,0.258,0.5,0.171c2.637-0.89,5.949-2.567,8.356-3.958
				C137.982,27.33,137.988,27.221,137.961,27.045z M153.429,29.015c-2.695-1.262-5.833-2.364-8.639-3.004
				c-0.266-0.087-0.31,0.112-0.31,0.112l-0.547,1.184c0,0-0.125,0.25,0.118,0.337c2.699,1.173,5.069,2.122,7.601,3.633
				c0.261,0.113,0.571,0.102,0.751-0.139c0.469-0.689,0.665-1.01,1.139-1.705C153.638,29.283,153.584,29.104,153.429,29.015z"/>
		</g>
	</g>
</g>
</svg>
