<?xml version="1.0" encoding="utf-8"?>
<!-- Generator: Adobe Illustrator 16.0.0, SVG Export Plug-In . SVG Version: 6.00 Build 0)  -->
<!DOCTYPE svg PUBLIC "-//W3C//DTD SVG 1.1//EN" "http://www.w3.org/Graphics/SVG/1.1/DTD/svg11.dtd">
<svg version="1.1" id="圖層_1" xmlns="http://www.w3.org/2000/svg" xmlns:xlink="http://www.w3.org/1999/xlink" x="0px" y="0px"
	 width="127.465px" height="60.89px" viewBox="0 0 127.465 60.89" enable-background="new 0 0 127.465 60.89" xml:space="preserve">
<g>
	<g>
		<path fill="#898788" d="M8.977,30.279c-0.127-0.498-0.449-0.863-1.082-0.863c-0.932,0-1.322,0.822-1.322,1.657
			c0,0.834,0.391,1.654,1.322,1.654c0.676,0,1.047-0.507,1.107-1.137h0.742c-0.061,1.038-0.797,1.758-1.85,1.758
			c-1.303,0-2.082-1.036-2.082-2.275c0-1.243,0.779-2.278,2.082-2.278c0.979,0.006,1.752,0.549,1.844,1.484H8.977z"/>
	</g>
	<g>
		<path fill="#898788" d="M10.829,28.898h2.074c0.949,0,1.438,0.439,1.438,1.176c0,0.834-0.578,1.045-0.719,1.094v0.014
			c0.262,0.034,0.645,0.229,0.645,0.917c0,0.507,0.074,0.97,0.238,1.146h-0.816c-0.115-0.188-0.115-0.426-0.115-0.639
			c0-0.798-0.164-1.15-0.865-1.15h-1.119v1.789h-0.76V28.898z M11.588,30.876h1.248c0.48,0,0.742-0.238,0.742-0.695
			c0-0.553-0.359-0.662-0.754-0.662h-1.236V30.876z"/>
	</g>
	<g>
		<path fill="#898788" d="M15.532,28.898h3.129v0.658h-2.365v1.137h2.189v0.622h-2.189v1.271h2.408v0.659h-3.172V28.898z"/>
	</g>
	<g>
		<path fill="#898788" d="M21.079,28.898h0.809l1.674,4.346h-0.816l-0.408-1.15h-1.732l-0.408,1.15h-0.785L21.079,28.898z
			 M20.809,31.515h1.328l-0.65-1.869h-0.02L20.809,31.515z"/>
	</g>
	<g>
		<path fill="#898788" d="M23.497,28.898h3.518v0.658h-1.383v3.688h-0.76v-3.688h-1.375V28.898z"/>
	</g>
	<g>
		<path fill="#898788" d="M27.891,28.898h0.76v4.346h-0.76V28.898z"/>
	</g>
	<g>
		<path fill="#898788" d="M33.901,31.072c0,1.239-0.779,2.275-2.082,2.275s-2.08-1.036-2.08-2.275c0-1.243,0.777-2.278,2.08-2.278
			S33.901,29.83,33.901,31.072z M30.499,31.072c0,0.834,0.391,1.654,1.32,1.654c0.932,0,1.322-0.82,1.322-1.654
			c0-0.834-0.391-1.657-1.322-1.657C30.889,29.416,30.499,30.238,30.499,31.072z"/>
	</g>
	<g>
		<path fill="#898788" d="M34.971,28.898h0.805l1.984,3.201h0.012v-3.201h0.725v4.346h-0.803l-1.979-3.196h-0.02v3.196h-0.725
			V28.898z"/>
	</g>
	<g>
		<path fill="#6DB328" d="M43.155,28.794H43.6l-1.803,4.553h-0.443L43.155,28.794z"/>
	</g>
	<g>
		<path fill="#898788" d="M46.129,28.898h1.916c1.242,0,1.48,0.803,1.48,1.346c0,0.535-0.238,1.337-1.48,1.333h-1.154v1.668h-0.762
			V28.898z M46.891,30.955h1.111c0.342,0,0.762-0.17,0.762-0.717c0-0.572-0.346-0.719-0.748-0.719h-1.125V30.955z"/>
	</g>
	<g>
		<path fill="#898788" d="M54.5,31.072c0,1.239-0.777,2.275-2.08,2.275s-2.082-1.036-2.082-2.275c0-1.243,0.779-2.278,2.082-2.278
			S54.5,29.83,54.5,31.072z M51.098,31.072c0,0.834,0.391,1.654,1.322,1.654c0.93,0,1.32-0.82,1.32-1.654
			c0-0.834-0.391-1.657-1.32-1.657C51.489,29.416,51.098,30.238,51.098,31.072z"/>
	</g>
	<g>
		<path fill="#898788" d="M56.065,31.794c0,0.671,0.492,0.933,1.102,0.933c0.67,0,0.92-0.329,0.92-0.657
			c0-0.335-0.184-0.468-0.359-0.537c-0.305-0.113-0.699-0.192-1.297-0.356c-0.742-0.202-0.961-0.653-0.961-1.102
			c0-0.871,0.803-1.279,1.588-1.279c0.906,0,1.668,0.48,1.668,1.387h-0.762c-0.035-0.559-0.412-0.766-0.936-0.766
			c-0.354,0-0.799,0.127-0.799,0.566c0,0.305,0.207,0.475,0.518,0.559c0.068,0.02,1.029,0.27,1.254,0.336
			c0.572,0.17,0.846,0.656,0.846,1.108c0,0.975-0.863,1.363-1.729,1.363c-0.992,0-1.795-0.475-1.812-1.554H56.065z"/>
	</g>
	<g>
		<path fill="#898788" d="M60.432,31.794c0,0.671,0.492,0.933,1.102,0.933c0.67,0,0.918-0.329,0.918-0.657
			c0-0.335-0.182-0.468-0.357-0.537c-0.305-0.113-0.701-0.192-1.297-0.356c-0.742-0.202-0.961-0.653-0.961-1.102
			c0-0.871,0.803-1.279,1.588-1.279c0.906,0,1.668,0.48,1.668,1.387h-0.762c-0.035-0.559-0.412-0.766-0.938-0.766
			c-0.352,0-0.795,0.127-0.795,0.566c0,0.305,0.205,0.475,0.516,0.559c0.066,0.02,1.029,0.27,1.254,0.336
			c0.572,0.17,0.846,0.656,0.846,1.108c0,0.975-0.863,1.363-1.729,1.363c-0.992,0-1.795-0.475-1.814-1.554H60.432z"/>
	</g>
	<g>
		<path fill="#898788" d="M64.292,28.898h0.76v4.346h-0.76V28.898z"/>
	</g>
	<g>
		<path fill="#898788" d="M66.353,28.898h2.112c0.779,0,1.289,0.354,1.289,1.078c0,0.438-0.224,0.754-0.621,0.924v0.014
			c0.532,0.115,0.816,0.53,0.816,1.119c0,0.683-0.475,1.212-1.6,1.212h-1.997V28.898z M67.114,30.718h1.242
			c0.365,0,0.638-0.213,0.638-0.604c0-0.438-0.225-0.596-0.638-0.596h-1.242V30.718z M67.114,32.623h1.346
			c0.46,0,0.729-0.249,0.729-0.688c0-0.426-0.27-0.671-0.729-0.671h-1.346V32.623z"/>
	</g>
	<g>
		<path fill="#898788" d="M71.037,28.898h0.762v4.346h-0.762V28.898z"/>
	</g>
	<g>
		<path fill="#898788" d="M73.103,28.898h0.759v3.687h2.212v0.659h-2.971V28.898z"/>
	</g>
	<g>
		<path fill="#898788" d="M76.956,28.898h0.759v4.346h-0.759V28.898z"/>
	</g>
	<g>
		<path fill="#898788" d="M78.593,28.898h3.518v0.658h-1.382v3.688h-0.761v-3.688h-1.375V28.898z"/>
	</g>
	<g>
		<path fill="#898788" d="M84.369,31.54l-1.63-2.642h0.883l1.15,1.947l1.133-1.947h0.851l-1.625,2.642v1.704h-0.762V31.54z"/>
	</g>
	<g>
		<path fill="#6DB328" d="M90.405,28.794h0.444l-1.802,4.553h-0.444L90.405,28.794z"/>
	</g>
	<g>
		<path fill="#898788" d="M93.049,28.898h0.791l1.092,3.439h0.012l1.113-3.439h0.774l-1.487,4.346h-0.846L93.049,28.898z"/>
	</g>
	<g>
		<path fill="#898788" d="M97.67,28.898h0.762v4.346H97.67V28.898z"/>
	</g>
	<g>
		<path fill="#898788" d="M99.306,28.898h3.519v0.658h-1.383v3.688h-0.76v-3.688h-1.376V28.898z"/>
	</g>
	<g>
		<path fill="#898788" d="M104.424,28.898h0.809l1.674,4.346h-0.813l-0.408-1.15h-1.736l-0.407,1.15h-0.785L104.424,28.898z
			 M104.156,31.515h1.326l-0.65-1.869h-0.019L104.156,31.515z"/>
	</g>
	<g>
		<path fill="#898788" d="M107.739,28.898h0.762v3.687h2.206v0.659h-2.968V28.898z"/>
	</g>
	<g>
		<path fill="#898788" d="M111.593,28.898h0.76v4.346h-0.76V28.898z"/>
	</g>
	<g>
		<path fill="#898788" d="M113.228,28.898h3.52v0.658h-1.383v3.688h-0.761v-3.688h-1.376V28.898z"/>
	</g>
	<g>
		<path fill="#898788" d="M119.006,31.54l-1.63-2.642h0.882l1.151,1.947l1.131-1.947h0.851l-1.625,2.642v1.704h-0.76V31.54z"/>
	</g>
	<g>
		<polygon fill="#6DB328" points="121.357,25.968 6.022,25.968 6.022,25.634 121.357,25.634 121.357,25.968 		"/>
	</g>
	<g>
		<polygon fill="#6DB328" points="121.357,36.488 6.022,36.488 6.022,36.153 121.357,36.153 121.357,36.488 		"/>
	</g>
	<g>
		<path fill="#898788" d="M12.282,47.385H5.971v-0.588h6.311V47.385z M11.499,42.406H6.786v1.023h-0.66v-1.586h2.684
			c-0.033-0.071-0.064-0.149-0.102-0.234c-0.039-0.081-0.08-0.154-0.121-0.221l0.678-0.074c0.102,0.159,0.189,0.338,0.26,0.529
			h2.631v1.553h-0.656V42.406z M6.782,43.777h4.771v2.563H6.782V43.777z M11.178,42.819v0.537h-4.07v-0.537H11.178z M10.924,44.307
			H7.409v0.482h3.516V44.307z M10.924,45.264H7.409v0.548h3.516V45.264z"/>
	</g>
	<g>
		<path fill="#898788" d="M15.397,44.789c-0.209,0.11-0.396,0.192-0.562,0.247v1.732c0,0.312-0.049,0.521-0.146,0.624
			c-0.094,0.106-0.303,0.159-0.629,0.159h-0.328l-0.115-0.629l0.391,0.028c0.15,0,0.227-0.073,0.227-0.216v-1.533
			c-0.143,0.059-0.355,0.121-0.643,0.188l-0.066-0.615c0.268-0.048,0.504-0.113,0.709-0.193v-1.413h-0.689v-0.569h0.689v-1.298
			h0.602v1.298h0.551v0.569h-0.551v1.246c0.242-0.087,0.43-0.166,0.562-0.241V44.789z M15.499,43.664h1.633v-0.441h-1.346v-0.517
			h1.346v-0.421h-1.566v-0.508h1.566v-0.47h0.604v0.47h2.02v0.508h-2.02v0.421h1.611v0.958h0.469v0.509h-0.469v0.983h-1.611v0.556
			h1.725v0.508h-1.725v0.69c0.244,0.013,0.516,0.02,0.814,0.02c0.059,0,0.115,0,0.168,0c0.371-0.004,0.736-0.015,1.098-0.026
			l-0.107,0.549h-0.67c-1.021,0-1.703-0.046-2.047-0.141c-0.344-0.097-0.623-0.287-0.838-0.569c-0.098,0.26-0.289,0.548-0.574,0.871
			l-0.523-0.342c0.492-0.464,0.814-1.062,0.971-1.794l0.557,0.146c-0.041,0.125-0.076,0.239-0.107,0.342
			c-0.031,0.121-0.062,0.22-0.094,0.295c0,0.046,0.078,0.133,0.234,0.268c0.156,0.137,0.326,0.231,0.508,0.273v-1.646H15.78v-0.503
			h1.344v-0.48h-1.633L15.499,43.664z M18.758,43.664v-0.441h-1.023v0.441H18.758z M18.758,44.653v-0.48h-1.023v0.48H18.758z"/>
	</g>
	<g>
		<path fill="#898788" d="M24.081,42.524v-1.217h0.709v1.217h2.516v0.637H24.79v1.42h2.174v0.643H24.79v1.587h2.629v0.634h-6.178
			v-0.634h2.84v-1.587h-2.129v-0.643h2.129v-1.42H22.44c-0.264,0.479-0.561,0.916-0.891,1.312l-0.441-0.581
			c0.643-0.698,1.051-1.504,1.225-2.424l0.629,0.221c-0.027,0.174-0.113,0.453-0.26,0.835H24.081z"/>
	</g>
	<g>
		<path fill="#898788" d="M29.133,44.367l-0.596-0.207c0.209-0.562,0.326-1.334,0.354-2.316l0.557,0.06
			c-0.006,0.165-0.008,0.299-0.008,0.401c-0.004,0.14-0.012,0.261-0.02,0.368h0.436v-1.365h0.615v1.365h0.588v0.609h-0.588v1.137
			c0.285-0.118,0.496-0.218,0.635-0.292l0.107,0.621c-0.24,0.125-0.488,0.244-0.742,0.354v2.511h-0.615v-2.276
			c-0.174,0.085-0.354,0.161-0.537,0.228c-0.178,0.067-0.35,0.134-0.514,0.2l-0.256-0.647c0.604-0.194,1.039-0.349,1.307-0.47
			v-1.365h-0.502C29.278,43.765,29.204,44.127,29.133,44.367z M33.831,42.786c-0.021,1.091-0.246,2.021-0.668,2.799
			c-0.426,0.775-0.914,1.366-1.467,1.767l-0.488-0.528c0.559-0.371,1.035-0.921,1.432-1.654c0.398-0.726,0.596-1.52,0.596-2.376
			c0-0.004,0-0.008,0-0.012h-0.281c-0.09,1.178-0.607,2.211-1.553,3.097l-0.494-0.521c0.893-0.695,1.377-1.555,1.459-2.575h-0.295
			c-0.129,0.413-0.34,0.799-0.631,1.15l-0.514-0.422c0.494-0.588,0.781-1.323,0.855-2.202l0.65,0.062
			c-0.066,0.392-0.129,0.675-0.188,0.85h2.43c0,0.107,0,0.243,0,0.408c0,1.288-0.021,2.339-0.061,3.151
			c-0.039,0.809-0.133,1.302-0.281,1.479c-0.143,0.18-0.471,0.271-0.982,0.271c-0.162,0-0.311-0.006-0.449-0.017l-0.154-0.729
			c0.281,0.041,0.521,0.062,0.723,0.062c0.184,0,0.311-0.036,0.381-0.108c0.068-0.07,0.121-0.372,0.16-0.904
			c0.055-0.682,0.082-1.461,0.082-2.333c0-0.296-0.002-0.538-0.008-0.726L33.831,42.786z"/>
	</g>
	<g>
		<path fill="#898788" d="M37.311,42.278c-0.238,0.045-0.584,0.082-1.039,0.114l-0.141-0.562c1-0.049,1.859-0.21,2.578-0.482
			l0.227,0.55c-0.32,0.112-0.658,0.201-1.01,0.274v0.945h1.018v0.573h-1.018v0.062c0.5,0.464,0.875,0.833,1.131,1.111l-0.375,0.573
			c-0.133-0.188-0.268-0.355-0.402-0.507c-0.115-0.14-0.234-0.29-0.354-0.449v3.104l-0.615,0.028v-2.75
			c-0.17,0.427-0.475,0.927-0.91,1.497l-0.375-0.604c0.561-0.637,0.982-1.325,1.264-2.066h-1.225v-0.573h1.246V42.278z
			 M38.864,46.114v-0.622l2.24-0.336v-3.849h0.623v3.776l0.602-0.103v0.609l-0.602,0.1v1.923h-0.623v-1.841L38.864,46.114z
			 M40.315,44.756c-0.459-0.386-0.865-0.68-1.219-0.892l0.395-0.449c0.336,0.176,0.748,0.449,1.24,0.824L40.315,44.756z
			 M40.436,43.128c-0.496-0.396-0.896-0.688-1.205-0.876l0.402-0.441c0.289,0.159,0.697,0.434,1.225,0.816L40.436,43.128z"/>
	</g>
	<g>
		<path fill="#898788" d="M46.12,43.289h-0.791v1.185c0.357-0.114,0.619-0.214,0.783-0.294v0.655
			c-0.139,0.076-0.398,0.179-0.783,0.308v1.64c0,0.316-0.045,0.528-0.135,0.629c-0.096,0.107-0.309,0.161-0.641,0.161h-0.529
			l-0.152-0.676l0.58,0.019c0.146,0,0.221-0.071,0.221-0.221V45.33c-0.379,0.1-0.678,0.176-0.896,0.228l-0.16-0.723
			c0.389-0.049,0.74-0.115,1.057-0.2v-1.346h-0.988v-0.607h0.988v-1.374h0.664v1.374h0.789v-0.43h1.439v-0.944h0.662v0.944h1.58
			v0.608h-1.58v0.896h1.352v0.558c-0.057,0.24-0.205,0.555-0.441,0.942c-0.232,0.39-0.475,0.694-0.73,0.916
			c0.447,0.367,0.951,0.628,1.514,0.783l-0.342,0.629c-0.588-0.191-1.143-0.523-1.658-0.995c-0.707,0.538-1.381,0.876-2.023,1.009
			l-0.367-0.609c0.643-0.142,1.285-0.429,1.928-0.862c-0.344-0.349-0.682-0.822-1.01-1.426l0.555-0.221
			c0.309,0.544,0.615,0.971,0.924,1.276c0.455-0.359,0.777-0.821,0.971-1.384h-2.656v-0.616h1.324V42.86h-1.439L46.12,43.289z"/>
	</g>
	<g>
		<path fill="#898788" d="M52.18,45.364c-0.01,0.884-0.168,1.624-0.475,2.221l-0.529-0.366c0.115-0.229,0.215-0.543,0.295-0.944
			s0.121-1.271,0.121-2.61v-2.183h1.986v5.448c0,0.375-0.16,0.562-0.48,0.562h-0.67l-0.107-0.61l0.529,0.028
			c0.094,0,0.139-0.046,0.139-0.133v-1.613c-0.164,0.185-0.342,0.384-0.533,0.593L52.18,45.364z M52.989,42.069H52.18v0.8
			l0.455-0.149c0.133,0.265,0.252,0.544,0.354,0.837V42.069z M52.963,43.719l-0.414,0.185c-0.113-0.323-0.236-0.647-0.369-0.968
			v2.267c0.258-0.195,0.52-0.463,0.783-0.803V43.719z M56.59,42.96c0,0.242,0.105,0.362,0.314,0.362h0.51v0.609H56.67
			c-0.24,0-0.422-0.05-0.541-0.146c-0.117-0.104-0.176-0.325-0.176-0.665v-1.056h-0.963v0.229c0,0.792-0.223,1.427-0.668,1.9
			l-0.562-0.389c0.178-0.181,0.322-0.398,0.434-0.657c0.107-0.254,0.162-0.682,0.162-1.284v-0.395h2.242L56.59,42.96z
			 M57.073,44.748c-0.236,0.78-0.557,1.361-0.957,1.74c0.365,0.214,0.82,0.4,1.365,0.556L57.2,47.62
			c-0.59-0.151-1.107-0.381-1.553-0.684c-0.473,0.327-0.982,0.552-1.525,0.677l-0.322-0.549c0.535-0.129,0.984-0.322,1.346-0.576
			c-0.277-0.282-0.557-0.732-0.838-1.357l0.543-0.183c0.193,0.459,0.439,0.845,0.744,1.153c0.334-0.346,0.586-0.767,0.756-1.267
			h-2.43v-0.596h3.152V44.748z"/>
	</g>
	<g>
		<path fill="#898788" d="M58.719,44.091c0.625-0.673,1.143-1.597,1.559-2.776l0.635,0.262c-0.178,0.485-0.379,0.945-0.602,1.379
			v4.658h-0.662v-3.621c-0.209,0.33-0.432,0.639-0.662,0.923L58.719,44.091z M61.737,41.363l0.623,0.206
			c-0.209,0.949-0.658,1.688-1.346,2.216l-0.541-0.475C61.141,42.818,61.563,42.169,61.737,41.363z M64.622,43.864
			c-0.041,1.2-0.09,2.033-0.154,2.496c-0.061,0.459-0.178,0.76-0.346,0.896c-0.172,0.14-0.551,0.209-1.139,0.209
			c-0.062,0-0.117,0-0.16,0l-0.176-0.724c0.236,0.022,0.451,0.035,0.643,0.035c0.246,0,0.402-0.105,0.469-0.317v-0.005
			c0.102-0.345,0.168-1.007,0.195-1.989h-1.105c-0.053,1.403-0.678,2.444-1.873,3.128l-0.482-0.543
			c1.053-0.559,1.619-1.419,1.699-2.585h-1.217v-0.614L64.622,43.864z M63.86,41.474c0.164,0.617,0.551,1.18,1.164,1.688
			l-0.449,0.604c-0.598-0.5-0.994-1.06-1.191-1.68h-0.701v-0.611H63.86z"/>
	</g>
	<g>
		<path fill="#898788" d="M67.469,44.436c-0.317,0.296-0.646,0.571-0.991,0.821l-0.381-0.604c0.943-0.593,1.626-1.243,2.055-1.952
			H66.21v-0.61h2.283c0.097-0.151,0.217-0.409,0.354-0.776l0.702,0.115c-0.125,0.33-0.221,0.551-0.287,0.661h3.147v0.61h-3.461
			c-0.15,0.268-0.286,0.464-0.4,0.588h3.279v3.394c0,0.331-0.062,0.556-0.183,0.677c-0.117,0.122-0.357,0.188-0.722,0.188h-0.825
			l-0.133-0.644l0.837,0.033c0.144,0,0.232-0.014,0.267-0.04c0.042-0.032,0.061-0.128,0.061-0.287v-0.437h-2.964v1.447h-0.696
			V44.436z M68.165,43.885v0.555h2.958v-0.555H68.165z M68.165,45.003v0.595h2.958v-0.595H68.165z"/>
	</g>
	<g>
		<path fill="#898788" d="M75.938,41.998c-0.133,0.579-0.303,1.134-0.508,1.666c0.356,0.688,0.534,1.203,0.534,1.546
			c0,0.62-0.32,0.93-0.963,0.93c-0.086,0-0.155-0.004-0.215-0.013l-0.173-0.629c0.133,0.017,0.263,0.026,0.388,0.026
			c0.241,0,0.359-0.109,0.359-0.327c0-0.323-0.185-0.824-0.56-1.507c0.181-0.446,0.35-0.96,0.501-1.547h-0.93v5.47h-0.617v-6.057
			h2.183V41.998z M78.114,44.507c0.026,0.316,0.126,0.646,0.301,0.991c0.398-0.275,0.7-0.554,0.909-0.83l0.475,0.441
			c-0.334,0.356-0.688,0.658-1.062,0.904c0.299,0.418,0.699,0.783,1.203,1.089l-0.38,0.511c-1.174-0.75-1.854-1.786-2.041-3.106
			h-0.676v2.176c0.198-0.063,0.394-0.121,0.581-0.173c0.17-0.051,0.356-0.117,0.555-0.202v0.636c-0.5,0.21-1.234,0.421-2.209,0.637
			l-0.118-0.65c0.191-0.022,0.386-0.061,0.581-0.114v-5.272h3.334v2.964H78.114z M78.956,42.11h-2.113v0.616h2.113V42.11z
			 M76.843,43.932h2.113v-0.643h-2.113V43.932z"/>
	</g>
	<g>
		<path fill="#898788" d="M83.016,41.335l0.621,0.249c-0.427,1.217-1.117,2.218-2.068,3.003l-0.527-0.51
			C82.02,43.311,82.677,42.396,83.016,41.335z M85.66,44.734c0.575,0.805,1.01,1.695,1.304,2.677l-0.695,0.202
			c-0.133-0.452-0.213-0.677-0.241-0.677c-0.732,0.077-2.243,0.184-4.537,0.32l-0.129-0.747c0.18,0.004,0.338,0.005,0.478,0.005
			c0.163,0,0.316-0.004,0.455-0.013c0.589-0.764,1.06-1.792,1.417-3.087l0.704,0.183c-0.375,1.181-0.812,2.138-1.312,2.871
			c0.924-0.01,1.829-0.069,2.718-0.183c-0.201-0.409-0.452-0.843-0.756-1.297L85.66,44.734z M85.452,41.474
			c0.316,0.894,0.949,1.683,1.895,2.363l-0.508,0.53c-0.833-0.657-1.427-1.424-1.79-2.303h-1.043v-0.591H85.452z"/>
	</g>
	<g>
		<path fill="#898788" d="M94.394,41.614v5.163c0,0.31-0.051,0.517-0.153,0.62c-0.107,0.108-0.317,0.16-0.63,0.16h-1.096
			l-0.154-0.661l1.096,0.033c0.162,0,0.242-0.081,0.242-0.24v-4.458h-5.246v-0.622L94.394,41.614z M93.136,42.869v0.615h-4.451
			v-0.615H93.136z M88.945,44.119h3.729v2.229h-3.729V44.119z M92.019,44.706h-2.416v1.059h2.416V44.706z"/>
	</g>
	<g>
		<path fill="#898788" d="M6.211,51.531h1.627l1.229,3.616h0.016l1.164-3.616h1.627v5.258h-1.082v-3.725h-0.016l-1.287,3.725H8.596
			l-1.287-3.69H7.293v3.69H6.211V51.531z"/>
	</g>
	<g>
		<path fill="#898788" d="M13.149,51.531h3.932v0.972h-2.775v1.128h2.547v0.897h-2.547v1.29h2.834v0.971h-3.99V51.531z"/>
	</g>
	<g>
		<path fill="#898788" d="M18.209,51.531h2.834c0.943,0,1.539,0.655,1.539,1.45c0,0.62-0.248,1.083-0.832,1.319v0.015
			c0.568,0.146,0.729,0.699,0.766,1.229c0.023,0.333,0.016,0.95,0.223,1.245h-1.156c-0.141-0.33-0.125-0.841-0.184-1.258
			c-0.082-0.554-0.297-0.797-0.877-0.797h-1.156v2.055h-1.156V51.531z M19.366,53.91h1.266c0.516,0,0.795-0.221,0.795-0.75
			c0-0.508-0.279-0.729-0.795-0.729h-1.266V53.91z"/>
	</g>
	<g>
		<path fill="#898788" d="M23.758,51.531h1.156v5.258h-1.156V51.531z"/>
	</g>
	<g>
		<path fill="#898788" d="M26.17,51.531h2.27c1.361,0,2.385,0.854,2.385,2.6c0,1.522-0.779,2.658-2.385,2.658h-2.27V51.531z
			 M27.327,55.818h1.031c0.67,0,1.311-0.412,1.311-1.579c0-1.058-0.367-1.736-1.516-1.736h-0.826V55.818z"/>
	</g>
	<g>
		<path fill="#898788" d="M31.877,51.531h1.156v5.258h-1.156V51.531z"/>
	</g>
	<g>
		<path fill="#898788" d="M38.083,56.193c-0.406,0.522-0.936,0.721-1.443,0.721c-1.627,0-2.586-1.216-2.586-2.731
			c0-1.56,0.959-2.775,2.586-2.775c1.076,0,2.09,0.662,2.217,1.854H37.75c-0.131-0.581-0.566-0.883-1.111-0.883
			c-1.037,0-1.43,0.883-1.43,1.805c0,0.875,0.393,1.761,1.43,1.761c0.75,0,1.186-0.407,1.252-1.136h-1.164v-0.86h2.209v2.842H38.2
			L38.083,56.193z"/>
	</g>
	<g>
		<path fill="#898788" d="M40.137,51.531h3.932v0.972h-2.777v1.128h2.549v0.897h-2.549v1.29h2.836v0.971h-3.99V51.531z"/>
	</g>
	<g>
		<path fill="#898788" d="M45.198,51.531h1.148l2.195,3.526h0.014v-3.526h1.082v5.258h-1.156l-2.186-3.521H46.28v3.521h-1.082
			V51.531z"/>
	</g>
	<g>
		<path fill="#898788" d="M53.147,51.531h2.473c1.002,0,1.68,0.324,1.68,1.304c0,0.517-0.258,0.875-0.715,1.097
			c0.641,0.186,0.965,0.678,0.965,1.333c0,1.066-0.904,1.524-1.855,1.524h-2.547V51.531z M54.301,53.66h1.172
			c0.406,0,0.707-0.184,0.707-0.625c0-0.503-0.383-0.604-0.795-0.604h-1.084V53.66z M54.301,55.89h1.238
			c0.457,0,0.854-0.146,0.854-0.691c0-0.537-0.338-0.75-0.832-0.75h-1.26V55.89z"/>
	</g>
	<g>
		<path fill="#898788" d="M58.581,51.531h1.156v5.258h-1.156V51.531z"/>
	</g>
	<g>
		<path fill="#898788" d="M63.34,51.407c1.627,0,2.583,1.216,2.583,2.775c0,1.516-0.957,2.731-2.583,2.731s-2.586-1.216-2.586-2.731
			C60.754,52.623,61.713,51.407,63.34,51.407z M63.34,55.943c1.039,0,1.43-0.886,1.43-1.761c0-0.922-0.391-1.805-1.43-1.805
			c-1.037,0-1.43,0.883-1.43,1.805C61.911,55.058,62.303,55.943,63.34,55.943z"/>
	</g>
	<g>
		<path fill="#898788" d="M67.99,52.503h-1.575v-0.972h4.308v0.972h-1.575v4.286H67.99V52.503z"/>
	</g>
	<g>
		<path fill="#898788" d="M71.519,51.531h3.931v0.972h-2.775v1.128h2.548v0.897h-2.548v1.29h2.834v0.971h-3.989V51.531z"/>
	</g>
	<g>
		<path fill="#898788" d="M79.99,53.298c-0.074-0.523-0.574-0.92-1.147-0.92c-1.04,0-1.428,0.883-1.428,1.805
			c0,0.875,0.388,1.761,1.428,1.761c0.706,0,1.103-0.487,1.191-1.179h1.121c-0.12,1.312-1.026,2.149-2.312,2.149
			c-1.628,0-2.585-1.216-2.585-2.731c0-1.56,0.957-2.775,2.585-2.775c1.155,0,2.126,0.677,2.268,1.891H79.99z"/>
	</g>
	<g>
		<path fill="#898788" d="M82.166,51.531h1.154v2.017h2.129v-2.017h1.157v5.258h-1.157v-2.268H83.32v2.268h-1.154V51.531z"/>
	</g>
	<g>
		<path fill="#898788" d="M93.619,53.298c-0.074-0.523-0.574-0.92-1.147-0.92c-1.04,0-1.431,0.883-1.431,1.805
			c0,0.875,0.391,1.761,1.431,1.761c0.706,0,1.103-0.487,1.19-1.179h1.122c-0.119,1.312-1.023,2.149-2.312,2.149
			c-1.629,0-2.586-1.216-2.586-2.731c0-1.56,0.957-2.775,2.586-2.775c1.155,0,2.126,0.677,2.268,1.891H93.619z"/>
	</g>
	<g>
		<path fill="#898788" d="M98.126,51.407c1.626,0,2.585,1.216,2.585,2.775c0,1.516-0.959,2.731-2.585,2.731
			c-1.628,0-2.585-1.216-2.585-2.731C95.541,52.623,96.498,51.407,98.126,51.407z M98.126,55.943c1.039,0,1.43-0.886,1.43-1.761
			c0-0.922-0.391-1.805-1.43-1.805c-1.037,0-1.428,0.883-1.428,1.805C96.698,55.058,97.089,55.943,98.126,55.943z"/>
	</g>
	<g>
		<path fill="#898788" d="M101.479,55.653h1.157v1.136h-1.157V55.653z"/>
	</g>
	<g>
		<path fill="#898788" d="M103.756,55.653h1.154v1.136c0,0.677-0.516,1.126-1.148,1.222v-0.529c0.309-0.052,0.537-0.368,0.522-0.692
			h-0.528V55.653z"/>
	</g>
	<g>
		<path fill="#898788" d="M108.353,51.531h1.155v4.287h2.562v0.971h-3.718V51.531z"/>
	</g>
	<g>
		<path fill="#898788" d="M113.464,52.503h-1.577v-0.972h4.307v0.972h-1.574v4.286h-1.155V52.503z"/>
	</g>
	<g>
		<path fill="#898788" d="M116.989,51.531h2.269c1.361,0,2.386,0.854,2.386,2.6c0,1.522-0.779,2.658-2.386,2.658h-2.269V51.531z
			 M118.145,55.818h1.032c0.67,0,1.31-0.412,1.31-1.579c0-1.058-0.367-1.736-1.515-1.736h-0.827V55.818z"/>
	</g>
	<g>
		<polygon fill="#0077B4" points="100.916,15.587 105.073,15.587 105.073,12.56 100.916,12.56 100.916,10.82 105.265,10.82 
			105.265,7.277 96.381,7.277 96.381,20.886 105.453,20.886 105.453,17.308 100.916,17.308 		"/>
	</g>
	<g>
		<polygon fill="#898788" points="30.85,15.587 35.008,15.587 35.008,12.56 30.85,12.56 30.85,10.82 35.198,10.82 35.198,7.277 
			26.315,7.277 26.315,20.886 35.389,20.886 35.389,17.308 30.85,17.308 		"/>
	</g>
	<g>
		<path fill="#898788" d="M17.342,7.277l-2.217,8.283l-2.219-8.283H8.272L6.053,20.886h4.535l0.768-8.744
			c1.16,4.336,2.342,8.744,2.342,8.744h2.857l2.342-8.744l0.764,8.744h4.537L21.979,7.277H17.342z"/>
	</g>
	<g>
		<path fill="#898788" d="M49.024,11.558c0-2.363-1.914-4.281-4.281-4.281h-7.055v13.609h4.535v-4.91l2.832,4.91h5.104l-3.713-5.402
			C47.963,14.826,49.024,13.318,49.024,11.558z M43.276,13.568c-0.002,0-0.006,0-0.008,0h-1.049v-2.992h1.057
			c0.826,0,1.496,0.668,1.496,1.496C44.772,12.898,44.102,13.568,43.276,13.568z"/>
	</g>
	<g>
		<rect x="51.606" y="7.277" fill="#898788" width="4.537" height="13.607"/>
	</g>
	<g>
		<rect x="73.284" y="7.277" fill="#898788" width="4.539" height="13.607"/>
	</g>
	<g>
		<path fill="#898788" d="M64.364,7.277c-0.037,0-5.811,0.006-5.811,0.006V20.88c0,0,5.773,0.006,5.811,0.006
			c3.754,0,6.802-3.047,6.802-6.805S68.118,7.277,64.364,7.277z M63.727,16.773h-0.639v-5.52h0.639c1.524,0,2.763,1.236,2.763,2.76
			C66.49,15.539,65.251,16.773,63.727,16.773z"/>
	</g>
	<g>
		<path fill="#0077B4" d="M87.103,12.55c-0.646,0-1.193,0.406-1.413,0.977c-0.059,0.162-0.096,0.332-0.097,0.514
			c0,0.01-0.003,0.014-0.003,0.021c0,0.836,0.676,1.516,1.513,1.516c0.648,0,1.195-0.41,1.409-0.98l0.004,0.002
			c0.17-0.447,0.673-0.672,1.12-0.502c0.441,0.168,0.662,0.658,0.504,1.102c-0.004,0.004,0,0.008-0.004,0.014
			c-0.005,0.01-0.014,0.016-0.018,0.027c-0.641,1.639-2.466,2.475-4.128,1.871c-1.321-0.484-2.13-1.738-2.122-3.07
			c0.004-0.361,0.055-0.729,0.185-1.088c0.007-0.014,0.014-0.025,0.018-0.039c0.493-1.295,1.72-2.084,3.032-2.084v-0.01h6.369
			c-1.19-2.314-3.593-3.9-6.369-3.9c-3.958,0-7.161,3.207-7.161,7.162c0,3.953,3.203,7.16,7.161,7.16
			c3.954,0,7.159-3.207,7.159-7.16c0-0.527-0.059-1.037-0.168-1.531H87.103z"/>
	</g>
	<g>
		<circle fill="#6DB328" cx="114.556" cy="14.149" r="1.731"/>
	</g>
	<g>
		<path fill="#0077B4" d="M116.823,7.277v3.543l-4.536-3.543h-4.536v13.609h4.536v-3.541l4.531,3.541h0.005l0,0h4.537V7.277H116.823
			z M117.186,17.515c-1.162,0.91-3.283,0.139-4.736-1.721c-1.455-1.861-1.688-4.105-0.525-5.016
			c1.162-0.906,3.286-0.135,4.736,1.725C118.111,14.365,118.347,16.609,117.186,17.515z"/>
	</g>
</g>
</svg>
