<svg xmlns="http://www.w3.org/2000/svg" width="127.465" height="60.89" viewBox="0 0 127.465 60.89"><path fill="#898788" d="M8.977 30.279c-.127-.498-.449-.863-1.082-.863-.932 0-1.322.822-1.322 1.657 0 .834.391 1.654 1.322 1.654.676 0 1.047-.507 1.107-1.137h.742c-.061 1.038-.797 1.758-1.85 1.758-1.303 0-2.082-1.036-2.082-2.275 0-1.243.779-2.278 2.082-2.278.979.006 1.752.549 1.844 1.484h-.761zM10.829 28.898h2.074c.949 0 1.438.439 1.438 1.176 0 .834-.578 1.045-.719 1.094v.014c.262.034.645.229.645.917 0 .507.074.97.238 1.146h-.816c-.115-.188-.115-.426-.115-.639 0-.798-.164-1.15-.865-1.15H11.59v1.789h-.76v-4.347zm.759 1.978h1.248c.48 0 .742-.238.742-.695 0-.553-.359-.662-.754-.662h-1.236v1.357zM15.532 28.898h3.129v.658h-2.365v1.137h2.189v.622h-2.189v1.271h2.408v.659h-3.172v-4.347zM21.079 28.898h.809l1.674 4.346h-.816l-.408-1.15h-1.732l-.408 1.15h-.785l1.666-4.346zm-.27 2.617h1.328l-.65-1.869h-.02l-.658 1.869zM23.497 28.898h3.518v.658h-1.383v3.688h-.76v-3.688h-1.375v-.658zM27.891 28.898h.76v4.346h-.76v-4.346zM33.901 31.072c0 1.239-.779 2.275-2.082 2.275s-2.08-1.036-2.08-2.275c0-1.243.777-2.278 2.08-2.278s2.082 1.036 2.082 2.278zm-3.402 0c0 .834.391 1.654 1.32 1.654.932 0 1.322-.82 1.322-1.654s-.391-1.657-1.322-1.657c-.93.001-1.32.823-1.32 1.657zM34.971 28.898h.805l1.984 3.201h.012v-3.201h.725v4.346h-.803l-1.979-3.196h-.02v3.196h-.725v-4.346z"/><path fill="#6DB328" d="M43.155 28.794h.445l-1.803 4.553h-.443l1.801-4.553z"/><path fill="#898788" d="M46.129 28.898h1.916c1.242 0 1.48.803 1.48 1.346 0 .535-.238 1.337-1.48 1.333h-1.154v1.668h-.762v-4.347zm.762 2.057h1.111c.342 0 .762-.17.762-.717 0-.572-.346-.719-.748-.719h-1.125v1.436zM54.5 31.072c0 1.239-.777 2.275-2.08 2.275s-2.082-1.036-2.082-2.275c0-1.243.779-2.278 2.082-2.278s2.08 1.036 2.08 2.278zm-3.402 0c0 .834.391 1.654 1.322 1.654.93 0 1.32-.82 1.32-1.654s-.391-1.657-1.32-1.657c-.931.001-1.322.823-1.322 1.657zM56.065 31.794c0 .671.492.933 1.102.933.67 0 .92-.329.92-.657 0-.335-.184-.468-.359-.537-.305-.113-.699-.192-1.297-.356-.742-.202-.961-.653-.961-1.102 0-.871.803-1.279 1.588-1.279.906 0 1.668.48 1.668 1.387h-.762c-.035-.559-.412-.766-.936-.766-.354 0-.799.127-.799.566 0 .305.207.475.518.559.068.02 1.029.27 1.254.336.572.17.846.656.846 1.108 0 .975-.863 1.363-1.729 1.363-.992 0-1.795-.475-1.812-1.554h.759zM60.432 31.794c0 .671.492.933 1.102.933.67 0 .918-.329.918-.657 0-.335-.182-.468-.357-.537-.305-.113-.701-.192-1.297-.356-.742-.202-.961-.653-.961-1.102 0-.871.803-1.279 1.588-1.279.906 0 1.668.48 1.668 1.387h-.762c-.035-.559-.412-.766-.938-.766-.352 0-.795.127-.795.566 0 .305.205.475.516.559.066.02 1.029.27 1.254.336.572.17.846.656.846 1.108 0 .975-.863 1.363-1.729 1.363-.992 0-1.795-.475-1.814-1.554h.761zM64.292 28.898h.76v4.346h-.76v-4.346zM66.353 28.898h2.112c.779 0 1.289.354 1.289 1.078 0 .438-.224.754-.621.924v.014c.532.115.816.53.816 1.119 0 .683-.475 1.212-1.6 1.212h-1.997v-4.347zm.761 1.82h1.242c.365 0 .638-.213.638-.604 0-.438-.225-.596-.638-.596h-1.242v1.2zm0 1.905h1.346c.46 0 .729-.249.729-.688 0-.426-.27-.671-.729-.671h-1.346v1.359zM71.037 28.898h.762v4.346h-.762v-4.346zM73.103 28.898h.759v3.687h2.212v.659h-2.971v-4.346zM76.956 28.898h.759v4.346h-.759v-4.346zM78.593 28.898h3.518v.658h-1.382v3.688h-.761v-3.688h-1.375v-.658zM84.369 31.54l-1.63-2.642h.883l1.15 1.947 1.133-1.947h.851l-1.625 2.642v1.704h-.762V31.54z"/><path fill="#6DB328" d="M90.405 28.794h.444l-1.802 4.553h-.444l1.802-4.553z"/><path fill="#898788" d="M93.049 28.898h.791l1.092 3.439h.012l1.113-3.439h.774l-1.487 4.346h-.846l-1.449-4.346zM97.67 28.898h.762v4.346h-.762v-4.346zM99.306 28.898h3.519v.658h-1.383v3.688h-.76v-3.688h-1.376v-.658zM104.424 28.898h.809l1.674 4.346h-.813l-.408-1.15h-1.736l-.407 1.15h-.785l1.666-4.346zm-.268 2.617h1.326l-.65-1.869h-.019l-.657 1.869zM107.739 28.898h.762v3.687h2.206v.659h-2.968v-4.346zM111.593 28.898h.76v4.346h-.76v-4.346zM113.228 28.898h3.52v.658h-1.383v3.688h-.761v-3.688h-1.376v-.658zM119.006 31.54l-1.63-2.642h.882l1.151 1.947 1.131-1.947h.851l-1.625 2.642v1.704h-.76V31.54z"/><path fill="#6DB328" d="M121.357 25.968H6.022v-.334h115.335v.334zM121.357 36.488H6.022v-.335h115.335v.335z"/><path fill="#898788" d="M12.282 47.385H5.971v-.588h6.311v.588zm-.783-4.979H6.786v1.023h-.66v-1.586H8.81c-.033-.071-.064-.149-.102-.234a2.495 2.495 0 0 0-.121-.221l.678-.074c.102.159.189.338.26.529h2.631v1.553H11.5v-.99zm-4.717 1.371h4.771v2.563H6.782v-2.563zm4.396-.958v.537h-4.07v-.537h4.07zm-.254 1.488H7.409v.482h3.516v-.482zm0 .957H7.409v.548h3.516v-.548zM15.397 44.789c-.209.11-.396.192-.562.247v1.732c0 .312-.049.521-.146.624-.094.106-.303.159-.629.159h-.328l-.115-.629.391.028c.15 0 .227-.073.227-.216v-1.533a4.424 4.424 0 0 1-.643.188l-.066-.615c.268-.048.504-.113.709-.193v-1.413h-.689v-.569h.689v-1.298h.602v1.298h.551v.569h-.551v1.246c.242-.087.43-.166.562-.241v.616zm.102-1.125h1.633v-.441h-1.346v-.517h1.346v-.421h-1.566v-.508h1.566v-.47h.604v.47h2.02v.508h-2.02v.421h1.611v.958h.469v.509h-.469v.983h-1.611v.556h1.725v.508h-1.725v.69c.244.013.516.02.814.02h.168a55.76 55.76 0 0 0 1.098-.026l-.107.549h-.67c-1.021 0-1.703-.046-2.047-.141a1.559 1.559 0 0 1-.838-.569c-.098.26-.289.548-.574.871l-.523-.342c.492-.464.814-1.062.971-1.794l.557.146c-.041.125-.076.239-.107.342a2.12 2.12 0 0 1-.094.295c0 .046.078.133.234.268.156.137.326.231.508.273v-1.646H15.78v-.503h1.344v-.48h-1.633l.008-.509zm3.259 0v-.441h-1.023v.441h1.023zm0 .989v-.48h-1.023v.48h1.023zM24.081 42.524v-1.217h.709v1.217h2.516v.637H24.79v1.42h2.174v.643H24.79v1.587h2.629v.634h-6.178v-.634h2.84v-1.587h-2.129v-.643h2.129v-1.42H22.44a8.3 8.3 0 0 1-.891 1.312l-.441-.581a4.837 4.837 0 0 0 1.225-2.424l.629.221c-.027.174-.113.453-.26.835h1.379zM29.133 44.367l-.596-.207c.209-.562.326-1.334.354-2.316l.557.06a11.15 11.15 0 0 0-.008.401c-.004.14-.012.261-.02.368h.436v-1.365h.615v1.365h.588v.609h-.588v1.137c.285-.118.496-.218.635-.292l.107.621c-.24.125-.488.244-.742.354v2.511h-.615v-2.276a5.652 5.652 0 0 1-.537.228c-.178.067-.35.134-.514.2l-.256-.647c.604-.194 1.039-.349 1.307-.47v-1.365h-.502c-.076.482-.15.844-.221 1.084zm4.698-1.581c-.021 1.091-.246 2.021-.668 2.799-.426.775-.914 1.366-1.467 1.767l-.488-.528c.559-.371 1.035-.921 1.432-1.654.398-.726.596-1.52.596-2.376v-.012h-.281c-.09 1.178-.607 2.211-1.553 3.097l-.494-.521c.893-.695 1.377-1.555 1.459-2.575h-.295a3.37 3.37 0 0 1-.631 1.15l-.514-.422c.494-.588.781-1.323.855-2.202l.65.062a6.106 6.106 0 0 1-.188.85h2.43v.408c0 1.288-.021 2.339-.061 3.151-.039.809-.133 1.302-.281 1.479-.143.18-.471.271-.982.271-.162 0-.311-.006-.449-.017l-.154-.729c.281.041.521.062.723.062.184 0 .311-.036.381-.108.068-.07.121-.372.16-.904.055-.682.082-1.461.082-2.333 0-.296-.002-.538-.008-.726l-.254.011zM37.311 42.278a9.725 9.725 0 0 1-1.039.114l-.141-.562c1-.049 1.859-.21 2.578-.482l.227.55a7.94 7.94 0 0 1-1.01.274v.945h1.018v.573h-1.018v.062c.5.464.875.833 1.131 1.111l-.375.573a6.026 6.026 0 0 0-.402-.507c-.115-.14-.234-.29-.354-.449v3.104l-.615.028v-2.75c-.17.427-.475.927-.91 1.497l-.375-.604a6.743 6.743 0 0 0 1.264-2.066h-1.225v-.573h1.246v-.838zm1.553 3.836v-.622l2.24-.336v-3.849h.623v3.776l.602-.103v.609l-.602.1v1.923h-.623v-1.841l-2.24.343zm1.451-1.358a9.63 9.63 0 0 0-1.219-.892l.395-.449c.336.176.748.449 1.24.824l-.416.517zm.121-1.628c-.496-.396-.896-.688-1.205-.876l.402-.441c.289.159.697.434 1.225.816l-.422.501zM46.12 43.289h-.791v1.185c.357-.114.619-.214.783-.294v.655c-.139.076-.398.179-.783.308v1.64c0 .316-.045.528-.135.629-.096.107-.309.161-.641.161h-.529l-.152-.676.58.019c.146 0 .221-.071.221-.221V45.33c-.379.1-.678.176-.896.228l-.16-.723c.389-.049.74-.115 1.057-.2v-1.346h-.988v-.607h.988v-1.374h.664v1.374h.789v-.43h1.439v-.944h.662v.944h1.58v.608h-1.58v.896h1.352v.558c-.057.24-.205.555-.441.942-.232.39-.475.694-.73.916.447.367.951.628 1.514.783l-.342.629c-.588-.191-1.143-.523-1.658-.995-.707.538-1.381.876-2.023 1.009l-.367-.609c.643-.142 1.285-.429 1.928-.862-.344-.349-.682-.822-1.01-1.426l.555-.221c.309.544.615.971.924 1.276.455-.359.777-.821.971-1.384h-2.656v-.616h1.324v-.896H46.13l-.01.429zM52.18 45.364c-.01.884-.168 1.624-.475 2.221l-.529-.366c.115-.229.215-.543.295-.944s.121-1.271.121-2.61v-2.183h1.986v5.448c0 .375-.16.562-.48.562h-.67l-.107-.61.529.028c.094 0 .139-.046.139-.133v-1.613a52.43 52.43 0 0 1-.533.593l-.276-.393zm.809-3.295h-.809v.8l.455-.149c.133.265.252.544.354.837v-1.488zm-.026 1.65l-.414.185a18.442 18.442 0 0 0-.369-.968v2.267a4.29 4.29 0 0 0 .783-.803v-.681zm3.627-.759c0 .242.105.362.314.362h.51v.609h-.744c-.24 0-.422-.05-.541-.146-.117-.104-.176-.325-.176-.665v-1.056h-.963v.229c0 .792-.223 1.427-.668 1.9l-.562-.389c.178-.181.322-.398.434-.657.107-.254.162-.682.162-1.284v-.395h2.242l-.008 1.492zm.483 1.788c-.236.78-.557 1.361-.957 1.74.365.214.82.4 1.365.556l-.281.576a4.901 4.901 0 0 1-1.553-.684 4.396 4.396 0 0 1-1.525.677l-.322-.549c.535-.129.984-.322 1.346-.576-.277-.282-.557-.732-.838-1.357l.543-.183c.193.459.439.845.744 1.153.334-.346.586-.767.756-1.267h-2.43v-.596h3.152v.51zM58.719 44.091c.625-.673 1.143-1.597 1.559-2.776l.635.262c-.178.485-.379.945-.602 1.379v4.658h-.662v-3.621c-.209.33-.432.639-.662.923l-.268-.825zm3.018-2.728l.623.206c-.209.949-.658 1.688-1.346 2.216l-.541-.475a3.178 3.178 0 0 0 1.264-1.947zm2.885 2.501c-.041 1.2-.09 2.033-.154 2.496-.061.459-.178.76-.346.896-.172.14-.551.209-1.139.209h-.16l-.176-.724c.236.022.451.035.643.035.246 0 .402-.105.469-.317v-.005c.102-.345.168-1.007.195-1.989h-1.105c-.053 1.403-.678 2.444-1.873 3.128l-.482-.543c1.053-.559 1.619-1.419 1.699-2.585h-1.217v-.614l3.646.013zm-.762-2.39c.164.617.551 1.18 1.164 1.688l-.449.604c-.598-.5-.994-1.06-1.191-1.68h-.701v-.611h1.177zM67.469 44.436a10.37 10.37 0 0 1-.991.821l-.381-.604c.943-.593 1.626-1.243 2.055-1.952H66.21v-.61h2.283c.097-.151.217-.409.354-.776l.702.115a4.89 4.89 0 0 1-.287.661h3.147v.61h-3.461a3.23 3.23 0 0 1-.4.588h3.279v3.394c0 .331-.062.556-.183.677-.117.122-.357.188-.722.188h-.825l-.133-.644.837.033c.144 0 .232-.014.267-.04.042-.032.061-.128.061-.287v-.437h-2.964v1.447h-.696v-3.184zm.696-.551v.555h2.958v-.555h-2.958zm0 1.118v.595h2.958v-.595h-2.958zM75.938 41.998a12.26 12.26 0 0 1-.508 1.666c.356.688.534 1.203.534 1.546 0 .62-.32.93-.963.93-.086 0-.155-.004-.215-.013l-.173-.629c.133.017.263.026.388.026.241 0 .359-.109.359-.327 0-.323-.185-.824-.56-1.507.181-.446.35-.96.501-1.547h-.93v5.47h-.617v-6.057h2.183v.442zm2.176 2.509c.026.316.126.646.301.991.398-.275.7-.554.909-.83l.475.441a5.928 5.928 0 0 1-1.062.904c.299.418.699.783 1.203 1.089l-.38.511c-1.174-.75-1.854-1.786-2.041-3.106h-.676v2.176c.198-.063.394-.121.581-.173a5.27 5.27 0 0 0 .555-.202v.636c-.5.21-1.234.421-2.209.637l-.118-.65c.191-.022.386-.061.581-.114v-5.272h3.334v2.964h-1.453zm.842-2.397h-2.113v.616h2.113v-.616zm-2.113 1.822h2.113v-.643h-2.113v.643zM83.016 41.335l.621.249c-.427 1.217-1.117 2.218-2.068 3.003l-.527-.51c.978-.766 1.635-1.681 1.974-2.742zm2.644 3.399a9.014 9.014 0 0 1 1.304 2.677l-.695.202c-.133-.452-.213-.677-.241-.677-.732.077-2.243.184-4.537.32l-.129-.747c.18.004.338.005.478.005.163 0 .316-.004.455-.013.589-.764 1.06-1.792 1.417-3.087l.704.183c-.375 1.181-.812 2.138-1.312 2.871a23.33 23.33 0 0 0 2.718-.183 11.316 11.316 0 0 0-.756-1.297l.594-.254zm-.208-3.26c.316.894.949 1.683 1.895 2.363l-.508.53c-.833-.657-1.427-1.424-1.79-2.303h-1.043v-.591h1.446zM94.394 41.614v5.163c0 .31-.051.517-.153.62-.107.108-.317.16-.63.16h-1.096l-.154-.661 1.096.033c.162 0 .242-.081.242-.24v-4.458h-5.246v-.622l5.941.005zm-1.258 1.255v.615h-4.451v-.615h4.451zm-4.191 1.25h3.729v2.229h-3.729v-2.229zm3.074.587h-2.416v1.059h2.416v-1.059zM6.211 51.531h1.627l1.229 3.616h.016l1.164-3.616h1.627v5.258h-1.082v-3.725h-.016l-1.287 3.725h-.893l-1.287-3.69h-.016v3.69H6.211v-5.258zM13.149 51.531h3.932v.972h-2.775v1.128h2.547v.897h-2.547v1.29h2.834v.971h-3.99v-5.258zM18.209 51.531h2.834c.943 0 1.539.655 1.539 1.45 0 .62-.248 1.083-.832 1.319v.015c.568.146.729.699.766 1.229.023.333.016.95.223 1.245h-1.156c-.141-.33-.125-.841-.184-1.258-.082-.554-.297-.797-.877-.797h-1.156v2.055H18.21v-5.258zm1.157 2.379h1.266c.516 0 .795-.221.795-.75 0-.508-.279-.729-.795-.729h-1.266v1.479zM23.758 51.531h1.156v5.258h-1.156v-5.258zM26.17 51.531h2.27c1.361 0 2.385.854 2.385 2.6 0 1.522-.779 2.658-2.385 2.658h-2.27v-5.258zm1.157 4.287h1.031c.67 0 1.311-.412 1.311-1.579 0-1.058-.367-1.736-1.516-1.736h-.826v3.315zM31.877 51.531h1.156v5.258h-1.156v-5.258zM38.083 56.193a1.783 1.783 0 0 1-1.443.721c-1.627 0-2.586-1.216-2.586-2.731 0-1.56.959-2.775 2.586-2.775 1.076 0 2.09.662 2.217 1.854H37.75c-.131-.581-.566-.883-1.111-.883-1.037 0-1.43.883-1.43 1.805 0 .875.393 1.761 1.43 1.761.75 0 1.186-.407 1.252-1.136h-1.164v-.86h2.209v2.842H38.2l-.117-.598zM40.137 51.531h3.932v.972h-2.777v1.128h2.549v.897h-2.549v1.29h2.836v.971h-3.99v-5.258zM45.198 51.531h1.148l2.195 3.526h.014v-3.526h1.082v5.258h-1.156l-2.186-3.521h-.015v3.521h-1.082v-5.258zM53.147 51.531h2.473c1.002 0 1.68.324 1.68 1.304 0 .517-.258.875-.715 1.097.641.186.965.678.965 1.333 0 1.066-.904 1.524-1.855 1.524h-2.547v-5.258zm1.154 2.129h1.172c.406 0 .707-.184.707-.625 0-.503-.383-.604-.795-.604h-1.084v1.229zm0 2.23h1.238c.457 0 .854-.146.854-.691 0-.537-.338-.75-.832-.75h-1.26v1.441zM58.581 51.531h1.156v5.258h-1.156v-5.258zM63.34 51.407c1.627 0 2.583 1.216 2.583 2.775 0 1.516-.957 2.731-2.583 2.731s-2.586-1.216-2.586-2.731c0-1.559.959-2.775 2.586-2.775zm0 4.536c1.039 0 1.43-.886 1.43-1.761 0-.922-.391-1.805-1.43-1.805-1.037 0-1.43.883-1.43 1.805.001.876.393 1.761 1.43 1.761zM67.99 52.503h-1.575v-.972h4.308v.972h-1.575v4.286H67.99v-4.286zM71.519 51.531h3.931v.972h-2.775v1.128h2.548v.897h-2.548v1.29h2.834v.971H71.52v-5.258zM79.99 53.298c-.074-.523-.574-.92-1.147-.92-1.04 0-1.428.883-1.428 1.805 0 .875.388 1.761 1.428 1.761.706 0 1.103-.487 1.191-1.179h1.121c-.12 1.312-1.026 2.149-2.312 2.149-1.628 0-2.585-1.216-2.585-2.731 0-1.56.957-2.775 2.585-2.775 1.155 0 2.126.677 2.268 1.891H79.99zM82.166 51.531h1.154v2.017h2.129v-2.017h1.157v5.258h-1.157v-2.268H83.32v2.268h-1.154v-5.258zM93.619 53.298c-.074-.523-.574-.92-1.147-.92-1.04 0-1.431.883-1.431 1.805 0 .875.391 1.761 1.431 1.761.706 0 1.103-.487 1.19-1.179h1.122c-.119 1.312-1.023 2.149-2.312 2.149-1.629 0-2.586-1.216-2.586-2.731 0-1.56.957-2.775 2.586-2.775 1.155 0 2.126.677 2.268 1.891h-1.121zM98.126 51.407c1.626 0 2.585 1.216 2.585 2.775 0 1.516-.959 2.731-2.585 2.731-1.628 0-2.585-1.216-2.585-2.731 0-1.559.957-2.775 2.585-2.775zm0 4.536c1.039 0 1.43-.886 1.43-1.761 0-.922-.391-1.805-1.43-1.805-1.037 0-1.428.883-1.428 1.805 0 .876.391 1.761 1.428 1.761zM101.479 55.653h1.157v1.136h-1.157v-1.136zM103.756 55.653h1.154v1.136c0 .677-.516 1.126-1.148 1.222v-.529c.309-.052.537-.368.522-.692h-.528v-1.137zM108.353 51.531h1.155v4.287h2.562v.971h-3.718v-5.258zM113.464 52.503h-1.577v-.972h4.307v.972h-1.574v4.286h-1.155v-4.286zM116.989 51.531h2.269c1.361 0 2.386.854 2.386 2.6 0 1.522-.779 2.658-2.386 2.658h-2.269v-5.258zm1.156 4.287h1.032c.67 0 1.31-.412 1.31-1.579 0-1.058-.367-1.736-1.515-1.736h-.827v3.315z"/><path fill="#0077B4" d="M100.916 15.587h4.157V12.56h-4.157v-1.74h4.349V7.277h-8.884v13.609h9.072v-3.578h-4.537z"/><path fill="#898788" d="M30.85 15.587h4.158V12.56H30.85v-1.74h4.348V7.277h-8.883v13.609h9.074v-3.578H30.85zM17.342 7.277l-2.217 8.283-2.219-8.283H8.272L6.053 20.886h4.535l.768-8.744c1.16 4.336 2.342 8.744 2.342 8.744h2.857l2.342-8.744.764 8.744h4.537L21.979 7.277h-4.637zM49.024 11.558a4.28 4.28 0 0 0-4.281-4.281h-7.055v13.609h4.535v-4.91l2.832 4.91h5.104l-3.713-5.402a4.277 4.277 0 0 0 2.578-3.926zm-5.748 2.01h-1.057v-2.992h1.057a1.495 1.495 0 1 1 0 2.992zM51.606 7.277h4.537v13.607h-4.537zM73.284 7.277h4.539v13.607h-4.539zM64.364 7.277l-5.811.006V20.88l5.811.006a6.805 6.805 0 0 0 0-13.609zm-.637 9.496h-.639v-5.52h.639a2.763 2.763 0 0 1 2.763 2.76 2.762 2.762 0 0 1-2.763 2.76z"/><path fill="#0077B4" d="M87.103 12.55a1.515 1.515 0 0 0-1.51 1.491c0 .01-.003.014-.003.021 0 .836.676 1.516 1.513 1.516.648 0 1.195-.41 1.409-.98l.004.002a.866.866 0 0 1 1.624.6c-.004.004 0 .008-.004.014-.005.01-.014.016-.018.027a3.24 3.24 0 0 1-4.128 1.871 3.242 3.242 0 0 1-2.122-3.07c.004-.361.055-.729.185-1.088.007-.014.014-.025.018-.039a3.234 3.234 0 0 1 3.032-2.084v-.01h6.369a7.16 7.16 0 0 0-6.369-3.9 7.16 7.16 0 0 0-7.161 7.162 7.16 7.16 0 1 0 14.152-1.531h-6.991z"/><circle fill="#6DB328" cx="114.556" cy="14.149" r="1.731"/><path fill="#0077B4" d="M116.823 7.277v3.543l-4.536-3.543h-4.536v13.609h4.536v-3.541l4.531 3.541h4.542V7.277h-4.537zm.363 10.238c-1.162.91-3.283.139-4.736-1.721-1.455-1.861-1.688-4.105-.525-5.016 1.162-.906 3.286-.135 4.736 1.725 1.45 1.862 1.686 4.106.525 5.012z"/></svg>