<svg xmlns="http://www.w3.org/2000/svg" xmlns:xlink="http://www.w3.org/1999/xlink" width="757" height="327" viewBox="0 0 757 327"><defs><path id="a" d="M-51-122.28h841.89V473H-51z"/></defs><clipPath id="b"><use xlink:href="#a" overflow="visible"/></clipPath><path clip-path="url(#b)" fill="#E72420" d="M379.756 144.972c2.174 2.217 5.295 4.237 8.264 5.344-.718.684-1.689 2.048-2.177 2.929-2.991-1.393-6.062-3.839-8.391-6.623v6.907h-3.148v-6.765c-2.275 2.729-5.295 5.032-8.236 6.423-.488-.823-1.434-2.159-2.1-2.84 2.917-1.11 5.937-3.13 8.061-5.375h-5.168v-10.858h7.444v-1.622h-9.618v-3.154h9.618v-2.332h3.148v2.332h9.85v3.154h-9.85v1.622h7.805v10.858h-5.502zm-9.954-6.652h4.502v-1.677h-4.502v1.677zm0 4.123h4.502v-1.736h-4.502v1.736zm7.65-4.123h4.709v-1.677h-4.709v1.677zm4.709 2.387h-4.709v1.736h4.709v-1.736zM406.557 148.925c-.383-.37-1.024-.91-1.715-1.508v5.884h-2.865v-5.088c-1.076 1.48-2.279 2.815-3.555 3.638-.231-.881-.769-2.245-1.203-3.099 1.662-.937 3.426-2.67 4.552-4.375h-3.735v-2.958h3.941v-2.757h2.865v2.757h3.633v2.958h-3.633v.083c1.023.654 3.429 2.304 4.066 2.815l-2.351 1.65zm1.149-15.295c-2.227 2.701-5.319 4.86-8.569 6.112-.385-.823-1.228-2.048-1.868-2.643 2.917-.94 5.782-2.587 7.777-4.607h-6.575v-2.957h9.235v-2.587h3.047v2.587h9.261v2.957h-6.55c2.737 1.366 6.317 3.241 7.342 3.895l-.946 3.154c-1.995-1.477-6.421-4.261-9.106-5.883v6.056h-3.047v-6.084zm8.598 10.83c1.356 1.878 3.454 3.839 5.246 4.863-.691.653-1.663 1.847-2.15 2.67-1.15-.965-2.38-2.473-3.478-4.064v5.628h-2.894v-5.628c-1.329 1.705-2.941 3.182-4.526 4.15-.41-.712-1.256-1.846-1.894-2.417 2.251-1.024 4.579-3.068 5.961-5.202h-3.226v-2.927h3.685v-2.871h2.894v2.871h4.655v2.927h-4.273zM438.552 128.002c-.539 1.678-1.152 3.383-1.893 5.03v20.611h-2.767v-15.295a36.541 36.541 0 0 1-1.865 2.702c-.256-.768-1.076-2.529-1.561-3.328 2.149-2.584 4.194-6.624 5.372-10.629l2.714.909zm15.733 3.383v2.757h-16.451v-2.757h7.317c-.383-1.051-1.023-2.362-1.585-3.383l2.585-1.082c.715 1.166 1.507 2.729 1.864 3.753l-1.458.712h7.728zm-15.042 12.622h13.534v9.408h-2.688v-.796h-8.262v.882h-2.584v-9.494zm13.201-5.714h-12.819v-2.646h12.819v2.646zm-12.818 1.477h12.819v2.646h-12.819v-2.646zm2.201 10.148h8.261v-3.21h-8.261v3.21zM463.975 150.659c.894-1.622 1.865-4.009 2.429-5.97l2.711 1.252c-.638 1.961-1.508 4.548-2.328 6.226l-2.812-1.508zm11.18-7.25h-7.345V129.48h5.887c.256-.938.536-1.961.663-2.784l3.685.508c-.357.854-.768 1.595-1.101 2.276h7.012v13.929h-7.37c1.076 1.166 2.149 2.646 2.687 3.753l-2.507 1.619c-.513-1.249-1.866-3.155-3.044-4.49l1.433-.882zm3.606 6.568c1.229 0 1.434-.37 1.588-3.071.638.54 1.942 1.024 2.763 1.193-.358 3.981-1.255 4.946-4.12 4.946h-4.86c-3.582 0-4.529-.937-4.529-3.978v-3.925h3.096v3.895c0 .854.256.94 1.715.94h4.347zm-8.009-16.602h10.108v-1.307h-10.108v1.307zm0 3.725h10.108v-1.308h-10.108v1.308zm0 3.75h10.108v-1.335h-10.108v1.335zm14.021 3.298c1.178 1.875 2.405 4.348 2.84 6.084l-2.917 1.363c-.358-1.649-1.483-4.234-2.609-6.198l2.686-1.249zM505.715 145.114c-.305-.796-.919-1.99-1.533-3.127v11.542h-2.941v-10.235c-.845 2.19-1.792 4.209-2.791 5.631-.28-.968-.946-2.362-1.405-3.213 1.431-1.82 2.864-4.863 3.787-7.62h-3.454v-3.155h3.863v-3.213c-.999.173-1.945.343-2.893.457-.102-.768-.487-1.878-.82-2.615 2.917-.485 6.115-1.367 8.24-2.332l1.714 2.757c-.999.426-2.125.768-3.3 1.052v3.894h3.377v3.155h-3.377v.228c.741.796 2.84 3.469 3.325 4.123l-1.792 2.671zm12.615 1.224v7.163h-2.994v-6.568l-7.728 1.48-.484-3.213 8.212-1.564v-16.658h2.994v16.091l2.531-.484.487 3.154-3.018.599zm-6.424-3.954c-.793-1.249-2.584-3.068-4.066-4.347l1.945-1.934c1.459 1.138 3.353 2.899 4.193 4.123l-2.072 2.158zm.666-7.502c-.715-1.224-2.381-3.044-3.811-4.265l1.995-1.933c1.381 1.165 3.173 2.843 3.94 4.092l-2.124 2.106zM539.552 142.159a79.89 79.89 0 0 1-2.734.824v6.793c0 1.65-.284 2.446-1.154 2.985-.845.512-2.072.598-3.864.598-.126-.854-.508-2.189-.869-3.071.999.028 2.049.028 2.381.028.383 0 .487-.142.487-.567v-5.856l-2.482.681-.792-3.213a53.887 53.887 0 0 0 3.274-.823v-5.033h-2.944v-3.127h2.944v-5.399h3.02v5.399h2.507v3.127h-2.507v4.209l2.352-.654.381 3.099zm14.175-3.839c-.971 3.951-2.607 7.049-4.758 9.44 1.662 1.307 3.633 2.244 5.909 2.87-.639.682-1.508 2.045-1.942 2.927-2.483-.823-4.607-1.989-6.371-3.58-1.995 1.535-4.249 2.67-6.729 3.497-.332-.91-1.076-2.332-1.637-3.072 2.251-.598 4.323-1.508 6.115-2.784-1.512-1.906-2.715-4.151-3.637-6.769l.769-.253h-1.329v-3.043h5.039v-3.411h-5.498v-3.127h5.498v-4.067h3.019v4.067h5.732v3.127h-5.732v3.411h3.071l.537-.142 1.944.909zm-10.08 2.276a16.425 16.425 0 0 0 3.019 5.03 16 16 0 0 0 3.198-5.03h-6.217zM587.103 139.912c-.817 3.611-2.301 6.368-4.246 8.529 1.458.91 3.147 1.619 4.989 2.104-.666.712-1.536 2.047-1.943 2.929-2.125-.654-3.941-1.622-5.501-2.843-1.637 1.166-3.506 2.044-5.578 2.729-.281-.854-.972-2.103-1.511-2.815-.074.995-.33 1.677-.947 2.103-.716.539-1.739.626-3.222.626-.078-.854-.411-2.304-.769-3.155.792.028 1.561.028 1.845.028.279 0 .382-.114.382-.453v-5.659c-.691.484-1.329.965-1.97 1.394l-.74-2.048c-.183 3.553-.617 7.364-1.589 10.148-.536-.511-1.791-1.252-2.431-1.535 1.329-3.895 1.406-9.578 1.406-13.701v-10.321h8.062v8.502c2.763-1.536 3.096-3.583 3.096-5.431v-3.04h8.594v6.223c0 .826.053 1.138.361 1.138h.996c.333 0 .922-.084 1.255-.198.078.823.127 1.934.228 2.699-.382.144-.945.172-1.458.172h-1.304c-2.43 0-2.918-1.138-2.918-3.867v-3.04h-2.991v.028c0 2.701-.743 5.8-4.095 7.702-.305-.539-1.202-1.563-1.764-2.103v12.992c0 .228 0 .453-.027.654 1.742-.457 3.351-1.138 4.761-2.02-1.332-1.591-2.433-3.438-3.274-5.541l1.252-.426h-1.842v-3.158h10.413l.562-.141 1.918.795zm-19.085-1.647c0 1.166-.025 2.501-.077 3.864a62.36 62.36 0 0 0 2.661-1.079v-3.099l-1.024.909c-.333-.539-.922-1.362-1.56-2.158v1.563zm0-7.249v3.524l.715-.567a35.025 35.025 0 0 1 1.869 2.131v-5.088h-2.584zm9.621 11.4c.663 1.505 1.638 2.871 2.788 4.036a13.083 13.083 0 0 0 2.762-4.036h-5.55zM605.462 128.086a55.15 55.15 0 0 1-2.457 5.914v19.474h-2.991v-14.33a35.781 35.781 0 0 1-1.613 2.106c-.28-.855-1.101-2.701-1.638-3.528 2.304-2.556 4.555-6.593 5.835-10.66l2.864 1.024zm11.256-.284c.718 3.41 2.405 6.793 4.632 8.644-.562.795-1.459 2.5-1.869 3.607-.357-.37-.69-.737-.996-1.134-.024.311-.024.709-.024.938-.309 7.987-.589 11.086-1.332 12.11-.513.795-1.073 1.051-1.841 1.193-.666.142-1.715.173-2.865.114-.077-.937-.36-2.245-.795-3.071.87.114 1.665.114 2.1.114.358 0 .562-.083.792-.398.41-.595.666-2.757.896-8.301h-3.224c-.666 5.714-2.43 9.439-6.167 11.77-.357-.654-1.405-1.933-2.02-2.501 3.25-1.705 4.732-4.776 5.218-9.269h-2.353v-2.927c-.333.426-.691.824-1.05 1.194-.357-.768-1.329-2.387-1.867-3.127 2.071-1.961 3.685-5.088 4.554-8.499l2.994.851c-.946 3.525-2.507 6.908-4.478 9.381h11.129c-1.585-2.131-2.89-4.832-3.733-7.447h-2.279v-3.241h4.578zM640.197 133.572c-.281.768-.639 1.508-1.024 2.248h11.897v14.043c0 1.677-.281 2.587-1.329 3.099-.999.539-2.458.567-4.53.567-.127-.937-.537-2.359-.919-3.268 1.304.086 2.788.086 3.222.086.436-.031.59-.173.59-.571v-1.705h-9.621c-.435 2.131-1.252 4.206-2.841 5.659-.406-.713-1.56-2.134-2.197-2.588 2.197-2.133 2.377-5.174 2.377-7.82v-2.3c-.972 1.138-1.995 2.189-3.17 3.099-.464-.768-1.409-1.992-1.998-2.618 2.584-1.903 4.632-4.774 6.143-7.931h-5.554v-3.183h6.857c.41-1.165.74-2.303 1.024-3.441l3.145.799c-.256.878-.535 1.76-.816 2.642h12.485v3.183h-13.741zm7.907 11.684v-1.847h-9.187c0 .598-.025 1.193-.049 1.847h9.236zm0-6.452h-9.187v1.792h9.187v-1.792zM673.599 129.224a252.636 252.636 0 0 1-2.202 7.447c1.536 2.217 1.846 4.237 1.846 5.914 0 1.82-.334 3.041-1.154 3.722-.382.342-.869.512-1.431.626-.459.087-1.076.087-1.662.059 0-.827-.256-2.076-.666-2.902.435.031.817.059 1.101.031.256 0 .513-.059.691-.228.305-.256.459-.882.459-1.678 0-1.394-.333-3.213-1.791-5.202a113.008 113.008 0 0 0 1.458-5.915h-2.482v22.376h-2.661v-25.388h6.091l.409-.142 1.994 1.28zm13.79 14.61a49.098 49.098 0 0 1-3.583 2.874c1.076 1.619 2.458 2.954 4.148 3.808-.666.654-1.589 1.989-2.023 2.927-3.812-2.331-5.858-6.707-7.062-12.279h-1.535v7.986l3.558-.878c-.027.965.025 2.359.127 3.068-4.989 1.421-5.937 1.847-6.55 2.276-.231-.741-.87-2.076-1.305-2.646.537-.37 1.178-1.135 1.178-2.473v-20.383h11.564v13.05h-4.428a22.07 22.07 0 0 0 1.023 3.099c1.051-.882 2.177-1.934 2.917-2.816l1.971 2.387zm-10.055-10.602h5.631v-2.217h-5.631v2.217zm0 5.002h5.631v-2.273h-5.631v2.273zM707.385 128.826c-1.866 4.662-4.86 9.467-7.623 12.451-.59-.739-1.946-2.217-2.714-2.901 2.714-2.529 5.399-6.651 6.935-10.771l3.402 1.221zm7.162 13.047c2.075 3.127 4.429 7.163 5.681 9.809l-3.146 1.847c-.333-.823-.793-1.764-1.332-2.784-12.356 1.079-14.096 1.248-15.351 1.76-.204-.709-.792-2.615-1.252-3.611.845-.256 1.536-1.02 2.556-2.272 1.077-1.225 4.274-6.057 6.294-10.775l3.56 1.65c-1.972 3.836-4.428 7.645-6.908 10.716l9.39-.682c-.819-1.421-1.665-2.898-2.457-4.15l2.965-1.508zm.487-14.213c1.102 3.981 3.429 7.987 6.575 10.121-.691.74-1.789 2.359-2.301 3.41-2.917-2.473-5.196-6.281-6.627-10.034h-4.096v-3.497h6.449zM752.812 149.237c0 1.933-.309 2.957-1.409 3.552-1.048.598-2.687.685-4.961.654-.103-.993-.565-2.671-.999-3.667 1.433.114 3.119.087 3.606.059.46 0 .643-.142.643-.626v-17.312h-17.861v-3.213h20.981v20.553zm-5.679-12.366h-15.045v-2.957h15.045v2.957zm-10.772 11.712v2.048h-2.97v-11.657H745.8v9.609h-9.439zm0-2.899h6.447v-3.812h-6.447v3.812z"/><path clip-path="url(#b)" fill="none" stroke="#060E9F" stroke-width=".25" stroke-miterlimit="10" d="M259.611 190.959c0 69.222-56.114 125.333-125.336 125.333-69.225 0-125.339-56.111-125.339-125.333 0-69.222 56.114-125.339 125.339-125.339 69.223 0 125.336 56.117 125.336 125.339zM8.937 190.959h250.671M134.272 316.292V65.62M45.645 279.584L222.9 102.328M222.9 279.584L45.645 102.328"/><path clip-path="url(#b)" fill="none" stroke="#060E9F" stroke-width=".25" stroke-miterlimit="10" d="M259.608 190.959L134.27 316.292 8.937 190.959 134.27 65.62z"/><path clip-path="url(#b)" fill="#E72420" d="M233.215 152.838h42.761v-18.705h-21.462v-16.497h19.421V98.93h-19.421V86.349h21.462V67.643h-42.761zM296.44 67.692c-2.813 0-5.279 1.011-7.401 3.047-2.029 2.029-3.05 4.496-3.05 7.394 0 2.837 1.021 5.317 3.05 7.438 2.06 2.06 4.542 3.096 7.438 3.096 2.809 0 5.273-1.018 7.398-3.053 2.063-2.059 3.092-4.508 3.092-7.345 0-2.96-1.017-5.458-3.046-7.487-2.035-2.066-4.53-3.09-7.481-3.09M286.245 98.75h20.47v54.088h-20.47zM342.555 93.188v-17.54h-18.762v17.54h-7.998v16.226h7.998v43.424h18.762v-43.424h9.047V93.188z"/><path clip-path="url(#b)" fill="#060E9F" d="M139.271 41.888a5 5 0 1 1 0 0M139.271 10.706a5 5 0 0 1-9.997 0 5 5 0 0 1 4.995-5.002 5.001 5.001 0 0 1 5.002 5.002M76.66 128.23a5.001 5.001 0 1 1-10.004 0 5 5 0 0 1 5.002-4.995 5 5 0 0 1 5.002 4.995M202.203 128.23a5.001 5.001 0 1 1-10.004 0 5 5 0 0 1 5.002-4.995 5 5 0 0 1 5.002 4.995M139.271 190.959a5.001 5.001 0 0 1-5.002 5.002 5 5 0 0 1-4.995-5.002 4.998 4.998 0 1 1 9.997 0M139.271 66.755a5 5 0 1 1 0 0M139.271 316.735a5 5 0 1 1 0 0M14.845 191.385a5.001 5.001 0 1 1-10.003 0c0-2.758 2.238-4.995 5.001-4.995s5.002 2.237 5.002 4.995M76.66 253.724a5 5 0 0 1-5.002 5.002 5 5 0 0 1 0-9.997 5 5 0 0 1 5.002 4.995M202.203 253.724a5 5 0 0 1-5.002 5.002 5 5 0 0 1 0-9.997 5 5 0 0 1 5.002 4.995"/><path clip-path="url(#b)" fill="#E72420" d="M297.635 186.853h-5.776v4.999h6.457v2.55h-9.255v-17.016h8.916v2.55h-6.118v4.391h5.776zM311.23 191.448c0 1.109.043 2.194.179 2.953h-2.522l-.204-1.362h-.071c-.657.959-1.819 1.641-3.275 1.641-2.226 0-3.478-1.792-3.478-3.661 0-3.08 2.479-4.672 6.571-4.646v-.2c0-.808-.296-2.147-2.251-2.147-1.092 0-2.226.381-2.979.91l-.546-2.02c.821-.556 2.252-1.085 4.003-1.085 3.549 0 4.573 2.497 4.573 5.199v4.418zm-2.731-3.056c-1.977-.024-3.864.433-3.864 2.297 0 1.212.703 1.771 1.591 1.771 1.138 0 1.934-.809 2.205-1.693.068-.228.068-.453.068-.681v-1.694zM316.047 191.524c.614.429 1.819.907 2.819.907 1.23 0 1.776-.58 1.776-1.388 0-.833-.457-1.236-1.82-1.792-2.161-.808-3.049-2.121-3.049-3.586 0-2.172 1.615-3.837 4.184-3.837 1.231 0 2.298.327 2.957.731l-.567 2.171c-.456-.302-1.366-.706-2.343-.706-1 0-1.545.555-1.545 1.313 0 .779.521 1.135 1.93 1.715 2.026.783 2.935 1.921 2.957 3.737 0 2.247-1.569 3.863-4.502 3.863-1.341 0-2.547-.354-3.364-.856l.567-2.272zM330.827 178.949v3.158h2.661v2.322h-2.661v5.427c0 1.517.364 2.272 1.431 2.272.502 0 .774-.024 1.091-.127l.047 2.351c-.41.176-1.16.327-2.023.327-1.049 0-1.887-.381-2.412-1.01-.613-.709-.888-1.844-.888-3.459v-5.781h-1.569v-2.322h1.569v-2.298l2.754-.86zM339.418 189.126c.071 2.22 1.616 3.179 3.414 3.179 1.295 0 2.204-.225 3.068-.555l.41 2.122c-.956.453-2.276.782-3.867.782-3.593 0-5.708-2.447-5.708-6.21 0-3.41 1.866-6.614 5.412-6.614 3.595 0 4.777 3.28 4.777 5.981a8.85 8.85 0 0 1-.09 1.314h-7.416zm4.87-2.171c.021-1.139-.432-3.008-2.297-3.008-1.729 0-2.458 1.743-2.572 3.008h4.869zM351.152 186.069c0-1.665-.025-2.877-.092-3.963h2.411l.114 2.323h.068c.546-1.718 1.841-2.6 3.047-2.6.274 0 .431.024.659.073v2.905a3.869 3.869 0 0 0-.841-.077c-1.32 0-2.251.935-2.501 2.35a5.883 5.883 0 0 0-.068.935v6.386h-2.797v-8.332zM361.223 185.768c0-1.415-.046-2.6-.093-3.66h2.433l.139 1.841h.068a4.001 4.001 0 0 1 3.546-2.119c1.934 0 3.935 1.389 3.935 5.276v7.296h-2.797v-6.944c0-1.767-.592-3.104-2.115-3.104-1.113 0-1.888.885-2.183 1.819-.09.253-.136.632-.136.983v7.246h-2.797v-8.634zM383.003 177.386h2.797v17.017h-2.797zM391.005 185.768c0-1.415-.046-2.6-.093-3.66h2.433l.14 1.841h.067a4.001 4.001 0 0 1 3.546-2.119c1.935 0 3.936 1.389 3.936 5.276v7.296h-2.797v-6.944c0-1.767-.592-3.104-2.115-3.104-1.113 0-1.887.885-2.183 1.819-.091.253-.137.632-.137.983v7.246h-2.797v-8.634zM406.307 194.401v-9.973h-1.502v-2.322h1.502v-.529c0-1.592.386-3.184 1.341-4.191.821-.86 1.912-1.187 2.89-1.187.749 0 1.341.15 1.773.302l-.183 2.398a3.088 3.088 0 0 0-1.206-.228c-1.387 0-1.841 1.289-1.841 2.803v.632h2.412v2.322h-2.39v9.973h-2.796zM425.496 188.143c0 4.517-2.864 6.536-5.684 6.536-3.117 0-5.55-2.374-5.55-6.337 0-4.04 2.386-6.513 5.732-6.513 3.297 0 5.502 2.575 5.502 6.314m-8.345.122c0 2.375 1.067 4.166 2.751 4.166 1.592 0 2.707-1.714 2.707-4.215 0-1.918-.773-4.142-2.686-4.142-1.977 0-2.772 2.147-2.772 4.191M429.767 186.069c0-1.665-.024-2.877-.093-3.963h2.412l.114 2.323h.067c.546-1.718 1.842-2.6 3.046-2.6.275 0 .433.024.66.073v2.905a3.869 3.869 0 0 0-.841-.077c-1.32 0-2.252.935-2.501 2.35a5.883 5.883 0 0 0-.068.935v6.386h-2.797v-8.332zM439.838 185.768c0-1.415-.046-2.6-.093-3.66h2.391l.136 1.816h.067c.524-.959 1.523-2.095 3.41-2.095 1.456 0 2.595.907 3.072 2.273h.046c.385-.686.839-1.188 1.341-1.542.636-.481 1.342-.731 2.273-.731 1.818 0 3.685 1.389 3.685 5.326v7.246h-2.729v-6.79c0-2.048-.635-3.259-1.98-3.259-.953 0-1.659.758-1.955 1.643-.089.278-.136.683-.136 1.033v7.373h-2.729v-7.12c0-1.718-.613-2.929-1.912-2.929-1.045 0-1.748.909-2.022 1.742-.09.33-.136.681-.136 1.036v7.271h-2.729v-8.633zM469.694 191.448c0 1.109.043 2.194.179 2.953h-2.521l-.204-1.362h-.071c-.657.959-1.819 1.641-3.275 1.641-2.226 0-3.478-1.792-3.478-3.661 0-3.08 2.479-4.672 6.571-4.646v-.2c0-.808-.296-2.147-2.251-2.147-1.093 0-2.227.381-2.979.91l-.546-2.02c.821-.556 2.251-1.085 4.003-1.085 3.549 0 4.573 2.497 4.573 5.199v4.418zm-2.732-3.056c-1.977-.024-3.863.433-3.863 2.297 0 1.212.702 1.771 1.591 1.771 1.138 0 1.934-.809 2.205-1.693.067-.228.067-.453.067-.681v-1.694zM477.696 178.949v3.158h2.661v2.322h-2.661v5.427c0 1.517.364 2.272 1.431 2.272.502 0 .774-.024 1.092-.127l.047 2.351c-.41.176-1.16.327-2.023.327-1.049 0-1.887-.381-2.412-1.01-.612-.709-.888-1.844-.888-3.459v-5.781h-1.569v-2.322h1.569v-2.298l2.753-.86zM487.426 178.672c0 .91-.613 1.668-1.592 1.668-.934 0-1.548-.758-1.548-1.668 0-.959.639-1.689 1.57-1.689.956-.001 1.545.73 1.57 1.689m-2.979 3.435h2.797v12.295h-2.797v-12.295zM502.773 188.143c0 4.517-2.865 6.536-5.685 6.536-3.116 0-5.55-2.374-5.55-6.337 0-4.04 2.387-6.513 5.732-6.513 3.298 0 5.503 2.575 5.503 6.314m-8.344.122c0 2.375 1.066 4.166 2.751 4.166 1.591 0 2.707-1.714 2.707-4.215 0-1.918-.774-4.142-2.687-4.142-1.975 0-2.771 2.147-2.771 4.191M507.044 185.768c0-1.415-.046-2.6-.092-3.66h2.433l.138 1.841h.068a4.001 4.001 0 0 1 3.546-2.119c1.935 0 3.936 1.389 3.936 5.276v7.296h-2.798v-6.944c0-1.767-.592-3.104-2.114-3.104-1.114 0-1.889.885-2.184 1.819-.09.253-.136.632-.136.983v7.246h-2.797v-8.634zM530.85 179.985h-4.367v-2.598h11.577v2.598h-4.414v14.416h-2.796zM541.941 189.126c.071 2.22 1.616 3.179 3.414 3.179 1.295 0 2.204-.225 3.068-.555l.41 2.122c-.956.453-2.276.782-3.867.782-3.593 0-5.708-2.447-5.708-6.21 0-3.41 1.866-6.614 5.412-6.614 3.596 0 4.776 3.28 4.776 5.981a8.85 8.85 0 0 1-.09 1.314h-7.415zm4.87-2.171c.021-1.139-.432-3.008-2.297-3.008-1.729 0-2.458 1.743-2.572 3.008h4.869zM561.816 194.022c-.593.302-1.752.632-3.14.632-3.457 0-5.708-2.473-5.708-6.288 0-3.684 2.276-6.537 6.164-6.537 1.024 0 2.069.25 2.704.556l-.499 2.347c-.454-.253-1.113-.478-2.115-.478-2.138 0-3.41 1.741-3.39 3.986 0 2.525 1.481 3.966 3.39 3.966a5.1 5.1 0 0 0 2.207-.481l.387 2.297zM565.858 176.477h2.797v7.296h.046a3.837 3.837 0 0 1 1.386-1.389 3.642 3.642 0 0 1 1.933-.555c1.89 0 3.867 1.388 3.867 5.326v7.247h-2.797v-6.917c0-1.768-.592-3.133-2.138-3.133-1.091 0-1.864.808-2.183 1.741-.092.278-.114.608-.114.935v7.374h-2.797v-17.925zM580.843 185.768c0-1.415-.046-2.6-.094-3.66h2.434l.139 1.841h.068a4.001 4.001 0 0 1 3.546-2.119c1.933 0 3.935 1.389 3.935 5.276v7.296h-2.797v-6.944c0-1.767-.592-3.104-2.115-3.104-1.113 0-1.888.885-2.183 1.819-.09.253-.136.632-.136.983v7.246h-2.797v-8.634zM606.354 188.143c0 4.517-2.865 6.536-5.684 6.536-3.118 0-5.551-2.374-5.551-6.337 0-4.04 2.387-6.513 5.733-6.513 3.296 0 5.502 2.575 5.502 6.314m-8.345.122c0 2.375 1.067 4.166 2.751 4.166 1.592 0 2.707-1.714 2.707-4.215 0-1.918-.773-4.142-2.686-4.142-1.976 0-2.772 2.147-2.772 4.191M610.624 176.476h2.797v17.927h-2.797zM628.972 188.143c0 4.517-2.865 6.536-5.683 6.536-3.118 0-5.551-2.374-5.551-6.337 0-4.04 2.39-6.513 5.732-6.513 3.297 0 5.502 2.575 5.502 6.314m-8.344.122c0 2.375 1.067 4.166 2.751 4.166 1.591 0 2.707-1.714 2.707-4.215 0-1.918-.774-4.142-2.683-4.142-1.98 0-2.775 2.147-2.775 4.191M643.274 192.61c0 2.574-.478 4.418-1.638 5.578-1.139 1.138-2.75 1.489-4.273 1.489-1.413 0-2.912-.352-3.867-.983l.613-2.35a6.176 6.176 0 0 0 3.229.934c1.819 0 3.186-1.058 3.186-3.71v-1.06h-.046c-.638 1.085-1.752 1.815-3.229 1.815-2.753 0-4.708-2.522-4.708-6.007 0-4.04 2.365-6.487 5.026-6.487 1.705 0 2.683.905 3.207 1.918h.046l.111-1.642h2.436a58.928 58.928 0 0 0-.092 3.534v6.971zm-2.796-5.582c0-.302-.021-.58-.089-.833-.297-1.134-1.092-1.995-2.276-1.995-1.57 0-2.729 1.519-2.729 4.016 0 2.097.956 3.787 2.707 3.787 1.046 0 1.954-.755 2.272-1.894.093-.303.114-.73.114-1.086v-1.995zM650.024 182.107l1.979 6.59c.226.755.479 1.689.636 2.371h.067c.16-.682.364-1.616.593-2.399l1.729-6.562h2.979l-2.775 8.381c-1.524 4.595-2.548 6.64-3.843 7.903-1.116 1.062-2.254 1.461-2.936 1.563l-.636-2.599c.475-.128 1.046-.404 1.613-.858.546-.379 1.159-1.113 1.548-1.945.114-.228.157-.403.157-.555 0-.127-.021-.303-.136-.608l-4.07-11.282h3.095zM679.378 193.921c-.66.354-2.115.759-3.981.759-4.865 0-7.822-3.383-7.822-8.585 0-5.604 3.524-8.986 8.209-8.986 1.843 0 3.139.429 3.709.756l-.592 2.477c-.729-.355-1.752-.657-3.004-.657-3.114 0-5.365 2.171-5.365 6.26 0 3.762 1.955 6.136 5.344 6.136 1.113 0 2.297-.253 3.047-.606l.455 2.446zM693.791 188.143c0 4.517-2.864 6.536-5.684 6.536-3.117 0-5.55-2.374-5.55-6.337 0-4.04 2.389-6.513 5.731-6.513 3.298 0 5.503 2.575 5.503 6.314m-8.345.122c0 2.375 1.067 4.166 2.751 4.166 1.592 0 2.707-1.714 2.707-4.215 0-1.918-.773-4.142-2.683-4.142-1.979 0-2.775 2.147-2.775 4.191M697.041 192.684c0-1.159.729-1.994 1.73-1.994 1.021 0 1.727.808 1.727 1.994 0 1.139-.682 1.995-1.752 1.995-.999 0-1.705-.857-1.705-1.995M703.406 197.457c.613-1.921 1.227-4.569 1.522-6.667l2.937-.253c-.66 2.375-1.662 5.102-2.547 6.718l-1.912.202zM718.867 177.386h2.797v14.416h6.301v2.6h-9.098zM735.032 178.949v3.158h2.657v2.322h-2.657v5.427c0 1.517.363 2.272 1.431 2.272.5 0 .774-.024 1.092-.127l.046 2.351c-.409.176-1.159.327-2.022.327-1.048 0-1.891-.381-2.412-1.01-.613-.709-.887-1.844-.887-3.459v-5.781h-1.57v-2.322h1.57v-2.298l2.752-.86zM751.856 176.477v14.466c0 1.264.046 2.627.093 3.46h-2.479l-.136-1.943h-.047c-.659 1.363-2.001 2.221-3.592 2.221-2.661 0-4.755-2.498-4.755-6.287-.021-4.114 2.297-6.563 4.958-6.563 1.524 0 2.615.683 3.115 1.589h.046v-6.941h2.797zm-2.796 10.755c0-.253-.021-.583-.068-.833-.25-1.188-1.138-2.174-2.411-2.174-1.798 0-2.797 1.77-2.797 4.04 0 2.271.999 3.916 2.775 3.916 1.135 0 2.137-.86 2.412-2.198.067-.278.089-.58.089-.91v-1.841z"/></svg>