<?xml version="1.0" encoding="utf-8"?>
<!-- Generator: Adobe Illustrator 16.0.0, SVG Export Plug-In . SVG Version: 6.00 Build 0)  -->
<!DOCTYPE svg PUBLIC "-//W3C//DTD SVG 1.1//EN" "http://www.w3.org/Graphics/SVG/1.1/DTD/svg11.dtd">
<svg version="1.1" id="圖層_1" xmlns="http://www.w3.org/2000/svg" xmlns:xlink="http://www.w3.org/1999/xlink" x="0px" y="0px"
	 width="757px" height="327px" viewBox="0 0 757 327" enable-background="new 0 0 757 327" xml:space="preserve">
<g>
	<defs>
		<rect id="SVGID_1_" x="-51" y="-122.28" width="841.89" height="595.28"/>
	</defs>
	<clipPath id="SVGID_2_">
		<use xlink:href="#SVGID_1_"  overflow="visible"/>
	</clipPath>
	<path clip-path="url(#SVGID_2_)" fill="#E72420" d="M379.756,144.972c2.174,2.217,5.295,4.237,8.264,5.344
		c-0.718,0.684-1.689,2.048-2.177,2.929c-2.991-1.393-6.062-3.839-8.391-6.623v6.907h-3.148v-6.765
		c-2.275,2.729-5.295,5.032-8.236,6.423c-0.488-0.823-1.434-2.159-2.1-2.84c2.917-1.11,5.937-3.13,8.061-5.375h-5.168v-10.858h7.444
		v-1.622h-9.618v-3.154h9.618v-2.332h3.148v2.332h9.85v3.154h-9.85v1.622h7.805v10.858H379.756z M369.802,138.32h4.502v-1.677
		h-4.502V138.32z M369.802,142.443h4.502v-1.736h-4.502V142.443z M377.452,138.32h4.709v-1.677h-4.709V138.32z M382.161,140.707
		h-4.709v1.736h4.709V140.707z"/>
	<path clip-path="url(#SVGID_2_)" fill="#E72420" d="M406.557,148.925c-0.383-0.37-1.024-0.91-1.715-1.508v5.884h-2.865v-5.088
		c-1.076,1.48-2.279,2.815-3.555,3.638c-0.231-0.881-0.769-2.245-1.203-3.099c1.662-0.937,3.426-2.67,4.552-4.375h-3.735v-2.958
		h3.941v-2.757h2.865v2.757h3.633v2.958h-3.633v0.083c1.023,0.654,3.429,2.304,4.066,2.815L406.557,148.925z M407.706,133.63
		c-2.227,2.701-5.319,4.86-8.569,6.112c-0.385-0.823-1.228-2.048-1.868-2.643c2.917-0.94,5.782-2.587,7.777-4.607h-6.575v-2.957
		h9.235v-2.587h3.047v2.587h9.261v2.957h-6.55c2.737,1.366,6.317,3.241,7.342,3.895l-0.946,3.154
		c-1.995-1.477-6.421-4.261-9.106-5.883v6.056h-3.047V133.63z M416.304,144.46c1.356,1.878,3.454,3.839,5.246,4.863
		c-0.691,0.653-1.663,1.847-2.15,2.67c-1.15-0.965-2.38-2.473-3.478-4.064v5.628h-2.894v-5.628c-1.329,1.705-2.941,3.182-4.526,4.15
		c-0.41-0.712-1.256-1.846-1.894-2.417c2.251-1.024,4.579-3.068,5.961-5.202h-3.226v-2.927h3.685v-2.871h2.894v2.871h4.655v2.927
		H416.304z"/>
	<path clip-path="url(#SVGID_2_)" fill="#E72420" d="M438.552,128.002c-0.539,1.678-1.152,3.383-1.893,5.03v20.611h-2.767v-15.295
		c-0.613,0.969-1.252,1.906-1.865,2.702c-0.256-0.768-1.076-2.529-1.561-3.328c2.149-2.584,4.194-6.624,5.372-10.629
		L438.552,128.002z M454.285,131.385v2.757h-16.451v-2.757h7.317c-0.383-1.051-1.023-2.362-1.585-3.383l2.585-1.082
		c0.715,1.166,1.507,2.729,1.864,3.753l-1.458,0.712H454.285z M439.243,144.007h13.534v9.408h-2.688v-0.796h-8.262v0.882h-2.584
		V144.007z M452.444,138.293h-12.819v-2.646h12.819V138.293z M439.626,139.77h12.819v2.646h-12.819V139.77z M441.827,149.918h8.261
		v-3.21h-8.261V149.918z"/>
	<path clip-path="url(#SVGID_2_)" fill="#E72420" d="M463.975,150.659c0.894-1.622,1.865-4.009,2.429-5.97l2.711,1.252
		c-0.638,1.961-1.508,4.548-2.328,6.226L463.975,150.659z M475.155,143.409h-7.345v-13.929h5.887
		c0.256-0.938,0.536-1.961,0.663-2.784l3.685,0.508c-0.357,0.854-0.768,1.595-1.101,2.276h7.012v13.929h-7.37
		c1.076,1.166,2.149,2.646,2.687,3.753l-2.507,1.619c-0.513-1.249-1.866-3.155-3.044-4.49L475.155,143.409z M478.761,149.977
		c1.229,0,1.434-0.37,1.588-3.071c0.638,0.54,1.942,1.024,2.763,1.193c-0.358,3.981-1.255,4.946-4.12,4.946h-4.86
		c-3.582,0-4.529-0.937-4.529-3.978v-3.925h3.096v3.895c0,0.854,0.256,0.94,1.715,0.94H478.761z M470.752,133.375h10.108v-1.307
		h-10.108V133.375z M470.752,137.1h10.108v-1.308h-10.108V137.1z M470.752,140.85h10.108v-1.335h-10.108V140.85z M484.773,144.148
		c1.178,1.875,2.405,4.348,2.84,6.084l-2.917,1.363c-0.358-1.649-1.483-4.234-2.609-6.198L484.773,144.148z"/>
	<path clip-path="url(#SVGID_2_)" fill="#E72420" d="M505.715,145.114c-0.305-0.796-0.919-1.99-1.533-3.127v11.542h-2.941v-10.235
		c-0.845,2.19-1.792,4.209-2.791,5.631c-0.28-0.968-0.946-2.362-1.405-3.213c1.431-1.82,2.864-4.863,3.787-7.62h-3.454v-3.155h3.863
		v-3.213c-0.999,0.173-1.945,0.343-2.893,0.457c-0.102-0.768-0.487-1.878-0.82-2.615c2.917-0.485,6.115-1.367,8.24-2.332
		l1.714,2.757c-0.999,0.426-2.125,0.768-3.3,1.052v3.894h3.377v3.155h-3.377v0.228c0.741,0.796,2.84,3.469,3.325,4.123
		L505.715,145.114z M518.33,146.338v7.163h-2.994v-6.568l-7.728,1.48l-0.484-3.213l8.212-1.564v-16.658h2.994v16.091l2.531-0.484
		l0.487,3.154L518.33,146.338z M511.906,142.384c-0.793-1.249-2.584-3.068-4.066-4.347l1.945-1.934
		c1.459,1.138,3.353,2.899,4.193,4.123L511.906,142.384z M512.572,134.882c-0.715-1.224-2.381-3.044-3.811-4.265l1.995-1.933
		c1.381,1.165,3.173,2.843,3.94,4.092L512.572,134.882z"/>
	<path clip-path="url(#SVGID_2_)" fill="#E72420" d="M539.552,142.159c-0.894,0.284-1.815,0.568-2.734,0.824v6.793
		c0,1.65-0.284,2.446-1.154,2.985c-0.845,0.512-2.072,0.598-3.864,0.598c-0.126-0.854-0.508-2.189-0.869-3.071
		c0.999,0.028,2.049,0.028,2.381,0.028c0.383,0,0.487-0.142,0.487-0.567v-5.856l-2.482,0.681l-0.792-3.213
		c0.945-0.198,2.044-0.481,3.274-0.823v-5.033h-2.944v-3.127h2.944v-5.399h3.02v5.399h2.507v3.127h-2.507v4.209l2.352-0.654
		L539.552,142.159z M553.727,138.32c-0.971,3.951-2.607,7.049-4.758,9.44c1.662,1.307,3.633,2.244,5.909,2.87
		c-0.639,0.682-1.508,2.045-1.942,2.927c-2.483-0.823-4.607-1.989-6.371-3.58c-1.995,1.535-4.249,2.67-6.729,3.497
		c-0.332-0.91-1.076-2.332-1.637-3.072c2.251-0.598,4.323-1.508,6.115-2.784c-1.512-1.906-2.715-4.151-3.637-6.769l0.769-0.253
		h-1.329v-3.043h5.039v-3.411h-5.498v-3.127h5.498v-4.067h3.019v4.067h5.732v3.127h-5.732v3.411h3.071l0.537-0.142L553.727,138.32z
		 M543.647,140.596c0.715,1.875,1.738,3.58,3.019,5.03c1.329-1.422,2.43-3.099,3.198-5.03H543.647z"/>
	<path clip-path="url(#SVGID_2_)" fill="#E72420" d="M587.103,139.912c-0.817,3.611-2.301,6.368-4.246,8.529
		c1.458,0.91,3.147,1.619,4.989,2.104c-0.666,0.712-1.536,2.047-1.943,2.929c-2.125-0.654-3.941-1.622-5.501-2.843
		c-1.637,1.166-3.506,2.044-5.578,2.729c-0.281-0.854-0.972-2.103-1.511-2.815c-0.074,0.995-0.33,1.677-0.947,2.103
		c-0.716,0.539-1.739,0.626-3.222,0.626c-0.078-0.854-0.411-2.304-0.769-3.155c0.792,0.028,1.561,0.028,1.845,0.028
		c0.279,0,0.382-0.114,0.382-0.453v-5.659c-0.691,0.484-1.329,0.965-1.97,1.394l-0.74-2.048c-0.183,3.553-0.617,7.364-1.589,10.148
		c-0.536-0.511-1.791-1.252-2.431-1.535c1.329-3.895,1.406-9.578,1.406-13.701v-10.321h8.062v8.502
		c2.763-1.536,3.096-3.583,3.096-5.431v-3.04h8.594v6.223c0,0.826,0.053,1.138,0.361,1.138h0.996c0.333,0,0.922-0.084,1.255-0.198
		c0.078,0.823,0.127,1.934,0.228,2.699c-0.382,0.144-0.945,0.172-1.458,0.172h-1.304c-2.43,0-2.918-1.138-2.918-3.867v-3.04h-2.991
		v0.028c0,2.701-0.743,5.8-4.095,7.702c-0.305-0.539-1.202-1.563-1.764-2.103v12.992c0,0.228,0,0.453-0.027,0.654
		c1.742-0.457,3.351-1.138,4.761-2.02c-1.332-1.591-2.433-3.438-3.274-5.541l1.252-0.426h-1.842v-3.158h10.413l0.562-0.141
		L587.103,139.912z M568.018,138.265c0,1.166-0.025,2.501-0.077,3.864c0.768-0.284,1.662-0.654,2.661-1.079v-3.099l-1.024,0.909
		c-0.333-0.539-0.922-1.362-1.56-2.158V138.265z M568.018,131.016v3.524l0.715-0.567c0.614,0.654,1.305,1.418,1.869,2.131v-5.088
		H568.018z M577.639,142.416c0.663,1.505,1.638,2.871,2.788,4.036c1.125-1.109,2.071-2.473,2.762-4.036H577.639z"/>
	<path clip-path="url(#SVGID_2_)" fill="#E72420" d="M605.462,128.086c-0.69,1.961-1.51,3.981-2.457,5.914v19.474h-2.991v-14.33
		c-0.54,0.767-1.077,1.452-1.613,2.106c-0.28-0.855-1.101-2.701-1.638-3.528c2.304-2.556,4.555-6.593,5.835-10.66L605.462,128.086z
		 M616.718,127.802c0.718,3.41,2.405,6.793,4.632,8.644c-0.562,0.795-1.459,2.5-1.869,3.607c-0.357-0.37-0.69-0.737-0.996-1.134
		c-0.024,0.311-0.024,0.709-0.024,0.938c-0.309,7.987-0.589,11.086-1.332,12.11c-0.513,0.795-1.073,1.051-1.841,1.193
		c-0.666,0.142-1.715,0.173-2.865,0.114c-0.077-0.937-0.36-2.245-0.795-3.071c0.87,0.114,1.665,0.114,2.1,0.114
		c0.358,0,0.562-0.083,0.792-0.398c0.41-0.595,0.666-2.757,0.896-8.301h-3.224c-0.666,5.714-2.43,9.439-6.167,11.77
		c-0.357-0.654-1.405-1.933-2.02-2.501c3.25-1.705,4.732-4.776,5.218-9.269h-2.353v-2.927c-0.333,0.426-0.691,0.824-1.05,1.194
		c-0.357-0.768-1.329-2.387-1.867-3.127c2.071-1.961,3.685-5.088,4.554-8.499l2.994,0.851c-0.946,3.525-2.507,6.908-4.478,9.381
		h11.129c-1.585-2.131-2.89-4.832-3.733-7.447h-2.279v-3.241H616.718z"/>
	<path clip-path="url(#SVGID_2_)" fill="#E72420" d="M640.197,133.572c-0.281,0.768-0.639,1.508-1.024,2.248h11.897v14.043
		c0,1.677-0.281,2.587-1.329,3.099c-0.999,0.539-2.458,0.567-4.53,0.567c-0.127-0.937-0.537-2.359-0.919-3.268
		c1.304,0.086,2.788,0.086,3.222,0.086c0.436-0.031,0.59-0.173,0.59-0.571v-1.705h-9.621c-0.435,2.131-1.252,4.206-2.841,5.659
		c-0.406-0.713-1.56-2.134-2.197-2.588c2.197-2.133,2.377-5.174,2.377-7.82v-2.3c-0.972,1.138-1.995,2.189-3.17,3.099
		c-0.464-0.768-1.409-1.992-1.998-2.618c2.584-1.903,4.632-4.774,6.143-7.931h-5.554v-3.183h6.857
		c0.41-1.165,0.74-2.303,1.024-3.441l3.145,0.799c-0.256,0.878-0.535,1.76-0.816,2.642h12.485v3.183H640.197z M648.104,145.256
		v-1.847h-9.187c0,0.598-0.025,1.193-0.049,1.847H648.104z M648.104,138.804h-9.187v1.792h9.187V138.804z"/>
	<path clip-path="url(#SVGID_2_)" fill="#E72420" d="M673.599,129.224c-0.666,2.386-1.511,5.257-2.202,7.447
		c1.536,2.217,1.846,4.237,1.846,5.914c0,1.82-0.334,3.041-1.154,3.722c-0.382,0.342-0.869,0.512-1.431,0.626
		c-0.459,0.087-1.076,0.087-1.662,0.059c0-0.827-0.256-2.076-0.666-2.902c0.435,0.031,0.817,0.059,1.101,0.031
		c0.256,0,0.513-0.059,0.691-0.228c0.305-0.256,0.459-0.882,0.459-1.678c0-1.394-0.333-3.213-1.791-5.202
		c0.487-1.733,1.048-4.037,1.458-5.915h-2.482v22.376h-2.661v-25.388h6.091l0.409-0.142L673.599,129.224z M687.389,143.834
		c-1.101,0.968-2.43,2.048-3.583,2.874c1.076,1.619,2.458,2.954,4.148,3.808c-0.666,0.654-1.589,1.989-2.023,2.927
		c-3.812-2.331-5.858-6.707-7.062-12.279h-1.535v7.986l3.558-0.878c-0.027,0.965,0.025,2.359,0.127,3.068
		c-4.989,1.421-5.937,1.847-6.55,2.276c-0.231-0.741-0.87-2.076-1.305-2.646c0.537-0.37,1.178-1.135,1.178-2.473v-20.383h11.564
		v13.05h-4.428c0.283,1.107,0.616,2.13,1.023,3.099c1.051-0.882,2.177-1.934,2.917-2.816L687.389,143.834z M677.334,133.232h5.631
		v-2.217h-5.631V133.232z M677.334,138.234h5.631v-2.273h-5.631V138.234z"/>
	<path clip-path="url(#SVGID_2_)" fill="#E72420" d="M707.385,128.826c-1.866,4.662-4.86,9.467-7.623,12.451
		c-0.59-0.739-1.946-2.217-2.714-2.901c2.714-2.529,5.399-6.651,6.935-10.771L707.385,128.826z M714.547,141.873
		c2.075,3.127,4.429,7.163,5.681,9.809l-3.146,1.847c-0.333-0.823-0.793-1.764-1.332-2.784c-12.356,1.079-14.096,1.248-15.351,1.76
		c-0.204-0.709-0.792-2.615-1.252-3.611c0.845-0.256,1.536-1.02,2.556-2.272c1.077-1.225,4.274-6.057,6.294-10.775l3.56,1.65
		c-1.972,3.836-4.428,7.645-6.908,10.716l9.39-0.682c-0.819-1.421-1.665-2.898-2.457-4.15L714.547,141.873z M715.034,127.66
		c1.102,3.981,3.429,7.987,6.575,10.121c-0.691,0.74-1.789,2.359-2.301,3.41c-2.917-2.473-5.196-6.281-6.627-10.034h-4.096v-3.497
		H715.034z"/>
	<path clip-path="url(#SVGID_2_)" fill="#E72420" d="M752.812,149.237c0,1.933-0.309,2.957-1.409,3.552
		c-1.048,0.598-2.687,0.685-4.961,0.654c-0.103-0.993-0.565-2.671-0.999-3.667c1.433,0.114,3.119,0.087,3.606,0.059
		c0.46,0,0.643-0.142,0.643-0.626v-17.312h-17.861v-3.213h20.981V149.237z M747.133,136.871h-15.045v-2.957h15.045V136.871z
		 M736.361,148.583v2.048h-2.97v-11.657H745.8v9.609H736.361z M736.361,145.684h6.447v-3.812h-6.447V145.684z"/>
	<path clip-path="url(#SVGID_2_)" fill="none" stroke="#060E9F" stroke-width="0.25" stroke-miterlimit="10" d="M259.611,190.959
		c0,69.222-56.114,125.333-125.336,125.333c-69.225,0-125.339-56.111-125.339-125.333c0-69.222,56.114-125.339,125.339-125.339
		C203.498,65.62,259.611,121.737,259.611,190.959z"/>
	
		<line clip-path="url(#SVGID_2_)" fill="none" stroke="#060E9F" stroke-width="0.25" stroke-miterlimit="10" x1="8.937" y1="190.959" x2="259.608" y2="190.959"/>
	
		<line clip-path="url(#SVGID_2_)" fill="none" stroke="#060E9F" stroke-width="0.25" stroke-miterlimit="10" x1="134.272" y1="316.292" x2="134.272" y2="65.62"/>
	
		<line clip-path="url(#SVGID_2_)" fill="none" stroke="#060E9F" stroke-width="0.25" stroke-miterlimit="10" x1="45.645" y1="279.584" x2="222.9" y2="102.328"/>
	
		<line clip-path="url(#SVGID_2_)" fill="none" stroke="#060E9F" stroke-width="0.25" stroke-miterlimit="10" x1="222.9" y1="279.584" x2="45.645" y2="102.328"/>
	<polygon clip-path="url(#SVGID_2_)" fill="none" stroke="#060E9F" stroke-width="0.25" stroke-miterlimit="10" points="
		259.608,190.959 134.27,316.292 8.937,190.959 134.27,65.62 	"/>
	<polygon clip-path="url(#SVGID_2_)" fill="#E72420" points="233.215,152.838 275.976,152.838 275.976,134.133 254.514,134.133 
		254.514,117.636 273.935,117.636 273.935,98.93 254.514,98.93 254.514,86.349 275.976,86.349 275.976,67.643 233.215,67.643 	"/>
	<path clip-path="url(#SVGID_2_)" fill="#E72420" d="M296.44,67.692c-2.813,0-5.279,1.011-7.401,3.047
		c-2.029,2.029-3.05,4.496-3.05,7.394c0,2.837,1.021,5.317,3.05,7.438c2.06,2.06,4.542,3.096,7.438,3.096
		c2.809,0,5.273-1.018,7.398-3.053c2.063-2.059,3.092-4.508,3.092-7.345c0-2.96-1.017-5.458-3.046-7.487
		C301.886,68.716,299.391,67.692,296.44,67.692"/>
	<rect x="286.245" y="98.75" clip-path="url(#SVGID_2_)" fill="#E72420" width="20.47" height="54.088"/>
	<polygon clip-path="url(#SVGID_2_)" fill="#E72420" points="342.555,93.188 342.555,75.648 323.793,75.648 323.793,93.188 
		315.795,93.188 315.795,109.414 323.793,109.414 323.793,152.838 342.555,152.838 342.555,109.414 351.602,109.414 351.602,93.188 
			"/>
	<path clip-path="url(#SVGID_2_)" fill="#060E9F" d="M139.271,41.888c0,2.763-2.239,5.001-5.002,5.001
		c-2.756,0-4.995-2.238-4.995-5.001c0-2.757,2.239-4.996,4.995-4.996C137.032,36.892,139.271,39.131,139.271,41.888"/>
	<path clip-path="url(#SVGID_2_)" fill="#060E9F" d="M139.271,10.706c0,2.763-2.239,5.001-5.002,5.001
		c-2.756,0-4.995-2.238-4.995-5.001c0-2.763,2.239-5.002,4.995-5.002C137.032,5.704,139.271,7.943,139.271,10.706"/>
	<path clip-path="url(#SVGID_2_)" fill="#060E9F" d="M76.66,128.23c0,2.763-2.239,5.002-5.002,5.002s-5.002-2.239-5.002-5.002
		c0-2.757,2.239-4.995,5.002-4.995S76.66,125.474,76.66,128.23"/>
	<path clip-path="url(#SVGID_2_)" fill="#060E9F" d="M202.203,128.23c0,2.763-2.239,5.002-5.002,5.002s-5.002-2.239-5.002-5.002
		c0-2.757,2.239-4.995,5.002-4.995S202.203,125.474,202.203,128.23"/>
	<path clip-path="url(#SVGID_2_)" fill="#060E9F" d="M139.271,190.959c0,2.763-2.239,5.002-5.002,5.002
		c-2.756,0-4.995-2.239-4.995-5.002c0-2.764,2.239-5.001,4.995-5.001C137.032,185.958,139.271,188.195,139.271,190.959"/>
	<path clip-path="url(#SVGID_2_)" fill="#060E9F" d="M139.271,66.755c0,2.763-2.239,5.001-5.002,5.001
		c-2.756,0-4.995-2.238-4.995-5.001c0-2.757,2.239-4.996,4.995-4.996C137.032,61.759,139.271,63.998,139.271,66.755"/>
	<path clip-path="url(#SVGID_2_)" fill="#060E9F" d="M139.271,316.735c0,2.764-2.239,5.002-5.002,5.002
		c-2.756,0-4.995-2.238-4.995-5.002c0-2.757,2.239-4.996,4.995-4.996C137.032,311.739,139.271,313.979,139.271,316.735"/>
	<path clip-path="url(#SVGID_2_)" fill="#060E9F" d="M14.845,191.385c0,2.763-2.239,5.002-5.002,5.002s-5.001-2.239-5.001-5.002
		c0-2.758,2.238-4.995,5.001-4.995S14.845,188.627,14.845,191.385"/>
	<path clip-path="url(#SVGID_2_)" fill="#060E9F" d="M76.66,253.724c0,2.764-2.239,5.002-5.002,5.002s-5.002-2.238-5.002-5.002
		c0-2.757,2.239-4.995,5.002-4.995S76.66,250.967,76.66,253.724"/>
	<path clip-path="url(#SVGID_2_)" fill="#060E9F" d="M202.203,253.724c0,2.764-2.239,5.002-5.002,5.002s-5.002-2.238-5.002-5.002
		c0-2.757,2.239-4.995,5.002-4.995S202.203,250.967,202.203,253.724"/>
	<polygon clip-path="url(#SVGID_2_)" fill="#E72420" points="297.635,186.853 291.859,186.853 291.859,191.852 298.316,191.852 
		298.316,194.402 289.061,194.402 289.061,177.386 297.977,177.386 297.977,179.936 291.859,179.936 291.859,184.327 
		297.635,184.327 	"/>
	<path clip-path="url(#SVGID_2_)" fill="#E72420" d="M311.23,191.448c0,1.109,0.043,2.194,0.179,2.953h-2.522l-0.204-1.362h-0.071
		c-0.657,0.959-1.819,1.641-3.275,1.641c-2.226,0-3.478-1.792-3.478-3.661c0-3.08,2.479-4.672,6.571-4.646v-0.2
		c0-0.808-0.296-2.147-2.251-2.147c-1.092,0-2.226,0.381-2.979,0.91l-0.546-2.02c0.821-0.556,2.252-1.085,4.003-1.085
		c3.549,0,4.573,2.497,4.573,5.199V191.448z M308.499,188.392c-1.977-0.024-3.864,0.433-3.864,2.297
		c0,1.212,0.703,1.771,1.591,1.771c1.138,0,1.934-0.809,2.205-1.693c0.068-0.228,0.068-0.453,0.068-0.681V188.392z"/>
	<path clip-path="url(#SVGID_2_)" fill="#E72420" d="M316.047,191.524c0.614,0.429,1.819,0.907,2.819,0.907
		c1.23,0,1.776-0.58,1.776-1.388c0-0.833-0.457-1.236-1.82-1.792c-2.161-0.808-3.049-2.121-3.049-3.586
		c0-2.172,1.615-3.837,4.184-3.837c1.231,0,2.298,0.327,2.957,0.731l-0.567,2.171c-0.456-0.302-1.366-0.706-2.343-0.706
		c-1,0-1.545,0.555-1.545,1.313c0,0.779,0.521,1.135,1.93,1.715c2.026,0.783,2.935,1.921,2.957,3.737
		c0,2.247-1.569,3.863-4.502,3.863c-1.341,0-2.547-0.354-3.364-0.856L316.047,191.524z"/>
	<path clip-path="url(#SVGID_2_)" fill="#E72420" d="M330.827,178.949v3.158h2.661v2.322h-2.661v5.427
		c0,1.517,0.364,2.272,1.431,2.272c0.502,0,0.774-0.024,1.091-0.127l0.047,2.351c-0.41,0.176-1.16,0.327-2.023,0.327
		c-1.049,0-1.887-0.381-2.412-1.01c-0.613-0.709-0.888-1.844-0.888-3.459v-5.781h-1.569v-2.322h1.569v-2.298L330.827,178.949z"/>
	<path clip-path="url(#SVGID_2_)" fill="#E72420" d="M339.418,189.126c0.071,2.22,1.616,3.179,3.414,3.179
		c1.295,0,2.204-0.225,3.068-0.555l0.41,2.122c-0.956,0.453-2.276,0.782-3.867,0.782c-3.593,0-5.708-2.447-5.708-6.21
		c0-3.41,1.866-6.614,5.412-6.614c3.595,0,4.777,3.28,4.777,5.981c0,0.58-0.047,1.036-0.09,1.314H339.418z M344.288,186.955
		c0.021-1.139-0.432-3.008-2.297-3.008c-1.729,0-2.458,1.743-2.572,3.008H344.288z"/>
	<path clip-path="url(#SVGID_2_)" fill="#E72420" d="M351.152,186.069c0-1.665-0.025-2.877-0.092-3.963h2.411l0.114,2.323h0.068
		c0.546-1.718,1.841-2.6,3.047-2.6c0.274,0,0.431,0.024,0.659,0.073v2.905c-0.249-0.053-0.499-0.077-0.841-0.077
		c-1.32,0-2.251,0.935-2.501,2.35c-0.046,0.277-0.068,0.604-0.068,0.935v6.386h-2.797V186.069z"/>
	<path clip-path="url(#SVGID_2_)" fill="#E72420" d="M361.223,185.768c0-1.415-0.046-2.6-0.093-3.66h2.433l0.139,1.841h0.068
		c0.5-0.959,1.705-2.119,3.546-2.119c1.934,0,3.935,1.389,3.935,5.276v7.296h-2.797v-6.944c0-1.767-0.592-3.104-2.115-3.104
		c-1.113,0-1.888,0.885-2.183,1.819c-0.09,0.253-0.136,0.632-0.136,0.983v7.246h-2.797V185.768z"/>
	<rect x="383.003" y="177.386" clip-path="url(#SVGID_2_)" fill="#E72420" width="2.797" height="17.017"/>
	<path clip-path="url(#SVGID_2_)" fill="#E72420" d="M391.005,185.768c0-1.415-0.046-2.6-0.093-3.66h2.433l0.14,1.841h0.067
		c0.5-0.959,1.705-2.119,3.546-2.119c1.935,0,3.936,1.389,3.936,5.276v7.296h-2.797v-6.944c0-1.767-0.592-3.104-2.115-3.104
		c-1.113,0-1.887,0.885-2.183,1.819c-0.091,0.253-0.137,0.632-0.137,0.983v7.246h-2.797V185.768z"/>
	<path clip-path="url(#SVGID_2_)" fill="#E72420" d="M406.307,194.401v-9.973h-1.502v-2.322h1.502v-0.529
		c0-1.592,0.386-3.184,1.341-4.191c0.821-0.86,1.912-1.187,2.89-1.187c0.749,0,1.341,0.15,1.773,0.302l-0.183,2.398
		c-0.317-0.126-0.682-0.228-1.206-0.228c-1.387,0-1.841,1.289-1.841,2.803v0.632h2.412v2.322h-2.39v9.973H406.307z"/>
	<path clip-path="url(#SVGID_2_)" fill="#E72420" d="M425.496,188.143c0,4.517-2.864,6.536-5.684,6.536
		c-3.117,0-5.55-2.374-5.55-6.337c0-4.04,2.386-6.513,5.732-6.513C423.291,181.829,425.496,184.404,425.496,188.143
		 M417.151,188.265c0,2.375,1.067,4.166,2.751,4.166c1.592,0,2.707-1.714,2.707-4.215c0-1.918-0.773-4.142-2.686-4.142
		C417.946,184.074,417.151,186.221,417.151,188.265"/>
	<path clip-path="url(#SVGID_2_)" fill="#E72420" d="M429.767,186.069c0-1.665-0.024-2.877-0.093-3.963h2.412l0.114,2.323h0.067
		c0.546-1.718,1.842-2.6,3.046-2.6c0.275,0,0.433,0.024,0.66,0.073v2.905c-0.249-0.053-0.499-0.077-0.841-0.077
		c-1.32,0-2.252,0.935-2.501,2.35c-0.046,0.277-0.068,0.604-0.068,0.935v6.386h-2.797V186.069z"/>
	<path clip-path="url(#SVGID_2_)" fill="#E72420" d="M439.838,185.768c0-1.415-0.046-2.6-0.093-3.66h2.391l0.136,1.816h0.067
		c0.524-0.959,1.523-2.095,3.41-2.095c1.456,0,2.595,0.907,3.072,2.273h0.046c0.385-0.686,0.839-1.188,1.341-1.542
		c0.636-0.481,1.342-0.731,2.273-0.731c1.818,0,3.685,1.389,3.685,5.326v7.246h-2.729v-6.79c0-2.048-0.635-3.259-1.98-3.259
		c-0.953,0-1.659,0.758-1.955,1.643c-0.089,0.278-0.136,0.683-0.136,1.033v7.373h-2.729v-7.12c0-1.718-0.613-2.929-1.912-2.929
		c-1.045,0-1.748,0.909-2.022,1.742c-0.09,0.33-0.136,0.681-0.136,1.036v7.271h-2.729V185.768z"/>
	<path clip-path="url(#SVGID_2_)" fill="#E72420" d="M469.694,191.448c0,1.109,0.043,2.194,0.179,2.953h-2.521l-0.204-1.362h-0.071
		c-0.657,0.959-1.819,1.641-3.275,1.641c-2.226,0-3.478-1.792-3.478-3.661c0-3.08,2.479-4.672,6.571-4.646v-0.2
		c0-0.808-0.296-2.147-2.251-2.147c-1.093,0-2.227,0.381-2.979,0.91l-0.546-2.02c0.821-0.556,2.251-1.085,4.003-1.085
		c3.549,0,4.573,2.497,4.573,5.199V191.448z M466.962,188.392c-1.977-0.024-3.863,0.433-3.863,2.297
		c0,1.212,0.702,1.771,1.591,1.771c1.138,0,1.934-0.809,2.205-1.693c0.067-0.228,0.067-0.453,0.067-0.681V188.392z"/>
	<path clip-path="url(#SVGID_2_)" fill="#E72420" d="M477.696,178.949v3.158h2.661v2.322h-2.661v5.427
		c0,1.517,0.364,2.272,1.431,2.272c0.502,0,0.774-0.024,1.092-0.127l0.047,2.351c-0.41,0.176-1.16,0.327-2.023,0.327
		c-1.049,0-1.887-0.381-2.412-1.01c-0.612-0.709-0.888-1.844-0.888-3.459v-5.781h-1.569v-2.322h1.569v-2.298L477.696,178.949z"/>
	<path clip-path="url(#SVGID_2_)" fill="#E72420" d="M487.426,178.672c0,0.91-0.613,1.668-1.592,1.668
		c-0.934,0-1.548-0.758-1.548-1.668c0-0.959,0.639-1.689,1.57-1.689C486.812,176.982,487.401,177.713,487.426,178.672
		 M484.447,182.107h2.797v12.295h-2.797V182.107z"/>
	<path clip-path="url(#SVGID_2_)" fill="#E72420" d="M502.773,188.143c0,4.517-2.865,6.536-5.685,6.536
		c-3.116,0-5.55-2.374-5.55-6.337c0-4.04,2.387-6.513,5.732-6.513C500.568,181.829,502.773,184.404,502.773,188.143
		 M494.429,188.265c0,2.375,1.066,4.166,2.751,4.166c1.591,0,2.707-1.714,2.707-4.215c0-1.918-0.774-4.142-2.687-4.142
		C495.225,184.074,494.429,186.221,494.429,188.265"/>
	<path clip-path="url(#SVGID_2_)" fill="#E72420" d="M507.044,185.768c0-1.415-0.046-2.6-0.092-3.66h2.433l0.138,1.841h0.068
		c0.5-0.959,1.705-2.119,3.546-2.119c1.935,0,3.936,1.389,3.936,5.276v7.296h-2.798v-6.944c0-1.767-0.592-3.104-2.114-3.104
		c-1.114,0-1.889,0.885-2.184,1.819c-0.09,0.253-0.136,0.632-0.136,0.983v7.246h-2.797V185.768z"/>
	<polygon clip-path="url(#SVGID_2_)" fill="#E72420" points="530.85,179.985 526.483,179.985 526.483,177.387 538.06,177.387 
		538.06,179.985 533.646,179.985 533.646,194.401 530.85,194.401 	"/>
	<path clip-path="url(#SVGID_2_)" fill="#E72420" d="M541.941,189.126c0.071,2.22,1.616,3.179,3.414,3.179
		c1.295,0,2.204-0.225,3.068-0.555l0.41,2.122c-0.956,0.453-2.276,0.782-3.867,0.782c-3.593,0-5.708-2.447-5.708-6.21
		c0-3.41,1.866-6.614,5.412-6.614c3.596,0,4.776,3.28,4.776,5.981c0,0.58-0.047,1.036-0.09,1.314H541.941z M546.811,186.955
		c0.021-1.139-0.432-3.008-2.297-3.008c-1.729,0-2.458,1.743-2.572,3.008H546.811z"/>
	<path clip-path="url(#SVGID_2_)" fill="#E72420" d="M561.816,194.022c-0.593,0.302-1.752,0.632-3.14,0.632
		c-3.457,0-5.708-2.473-5.708-6.288c0-3.684,2.276-6.537,6.164-6.537c1.024,0,2.069,0.25,2.704,0.556l-0.499,2.347
		c-0.454-0.253-1.113-0.478-2.115-0.478c-2.138,0-3.41,1.741-3.39,3.986c0,2.525,1.481,3.966,3.39,3.966
		c0.955,0,1.661-0.229,2.207-0.481L561.816,194.022z"/>
	<path clip-path="url(#SVGID_2_)" fill="#E72420" d="M565.858,176.477h2.797v7.296h0.046c0.341-0.58,0.817-1.062,1.386-1.389
		c0.569-0.354,1.229-0.555,1.933-0.555c1.89,0,3.867,1.388,3.867,5.326v7.247h-2.797v-6.917c0-1.768-0.592-3.133-2.138-3.133
		c-1.091,0-1.864,0.808-2.183,1.741c-0.092,0.278-0.114,0.608-0.114,0.935v7.374h-2.797V176.477z"/>
	<path clip-path="url(#SVGID_2_)" fill="#E72420" d="M580.843,185.768c0-1.415-0.046-2.6-0.094-3.66h2.434l0.139,1.841h0.068
		c0.5-0.959,1.705-2.119,3.546-2.119c1.933,0,3.935,1.389,3.935,5.276v7.296h-2.797v-6.944c0-1.767-0.592-3.104-2.115-3.104
		c-1.113,0-1.888,0.885-2.183,1.819c-0.09,0.253-0.136,0.632-0.136,0.983v7.246h-2.797V185.768z"/>
	<path clip-path="url(#SVGID_2_)" fill="#E72420" d="M606.354,188.143c0,4.517-2.865,6.536-5.684,6.536
		c-3.118,0-5.551-2.374-5.551-6.337c0-4.04,2.387-6.513,5.733-6.513C604.148,181.829,606.354,184.404,606.354,188.143
		 M598.009,188.265c0,2.375,1.067,4.166,2.751,4.166c1.592,0,2.707-1.714,2.707-4.215c0-1.918-0.773-4.142-2.686-4.142
		C598.805,184.074,598.009,186.221,598.009,188.265"/>
	<rect x="610.624" y="176.476" clip-path="url(#SVGID_2_)" fill="#E72420" width="2.797" height="17.927"/>
	<path clip-path="url(#SVGID_2_)" fill="#E72420" d="M628.972,188.143c0,4.517-2.865,6.536-5.683,6.536
		c-3.118,0-5.551-2.374-5.551-6.337c0-4.04,2.39-6.513,5.732-6.513C626.767,181.829,628.972,184.404,628.972,188.143
		 M620.628,188.265c0,2.375,1.067,4.166,2.751,4.166c1.591,0,2.707-1.714,2.707-4.215c0-1.918-0.774-4.142-2.683-4.142
		C621.423,184.074,620.628,186.221,620.628,188.265"/>
	<path clip-path="url(#SVGID_2_)" fill="#E72420" d="M643.274,192.61c0,2.574-0.478,4.418-1.638,5.578
		c-1.139,1.138-2.75,1.489-4.273,1.489c-1.413,0-2.912-0.352-3.867-0.983l0.613-2.35c0.706,0.456,1.888,0.934,3.229,0.934
		c1.819,0,3.186-1.058,3.186-3.71v-1.06h-0.046c-0.638,1.085-1.752,1.815-3.229,1.815c-2.753,0-4.708-2.522-4.708-6.007
		c0-4.04,2.365-6.487,5.026-6.487c1.705,0,2.683,0.905,3.207,1.918h0.046l0.111-1.642h2.436c-0.046,0.833-0.092,1.841-0.092,3.534
		V192.61z M640.478,187.028c0-0.302-0.021-0.58-0.089-0.833c-0.297-1.134-1.092-1.995-2.276-1.995c-1.57,0-2.729,1.519-2.729,4.016
		c0,2.097,0.956,3.787,2.707,3.787c1.046,0,1.954-0.755,2.272-1.894c0.093-0.303,0.114-0.73,0.114-1.086V187.028z"/>
	<path clip-path="url(#SVGID_2_)" fill="#E72420" d="M650.024,182.107l1.979,6.59c0.226,0.755,0.479,1.689,0.636,2.371h0.067
		c0.16-0.682,0.364-1.616,0.593-2.399l1.729-6.562h2.979l-2.775,8.381c-1.524,4.595-2.548,6.64-3.843,7.903
		c-1.116,1.062-2.254,1.461-2.936,1.563l-0.636-2.599c0.475-0.128,1.046-0.404,1.613-0.858c0.546-0.379,1.159-1.113,1.548-1.945
		c0.114-0.228,0.157-0.403,0.157-0.555c0-0.127-0.021-0.303-0.136-0.608l-4.07-11.282H650.024z"/>
	<path clip-path="url(#SVGID_2_)" fill="#E72420" d="M679.378,193.921c-0.66,0.354-2.115,0.759-3.981,0.759
		c-4.865,0-7.822-3.383-7.822-8.585c0-5.604,3.524-8.986,8.209-8.986c1.843,0,3.139,0.429,3.709,0.756l-0.592,2.477
		c-0.729-0.355-1.752-0.657-3.004-0.657c-3.114,0-5.365,2.171-5.365,6.26c0,3.762,1.955,6.136,5.344,6.136
		c1.113,0,2.297-0.253,3.047-0.606L679.378,193.921z"/>
	<path clip-path="url(#SVGID_2_)" fill="#E72420" d="M693.791,188.143c0,4.517-2.864,6.536-5.684,6.536
		c-3.117,0-5.55-2.374-5.55-6.337c0-4.04,2.389-6.513,5.731-6.513C691.586,181.829,693.791,184.404,693.791,188.143
		 M685.446,188.265c0,2.375,1.067,4.166,2.751,4.166c1.592,0,2.707-1.714,2.707-4.215c0-1.918-0.773-4.142-2.683-4.142
		C686.242,184.074,685.446,186.221,685.446,188.265"/>
	<path clip-path="url(#SVGID_2_)" fill="#E72420" d="M697.041,192.684c0-1.159,0.729-1.994,1.73-1.994
		c1.021,0,1.727,0.808,1.727,1.994c0,1.139-0.682,1.995-1.752,1.995C697.747,194.679,697.041,193.822,697.041,192.684"/>
	<path clip-path="url(#SVGID_2_)" fill="#E72420" d="M703.406,197.457c0.613-1.921,1.227-4.569,1.522-6.667l2.937-0.253
		c-0.66,2.375-1.662,5.102-2.547,6.718L703.406,197.457z"/>
	<polygon clip-path="url(#SVGID_2_)" fill="#E72420" points="718.867,177.386 721.664,177.386 721.664,191.802 727.965,191.802 
		727.965,194.402 718.867,194.402 	"/>
	<path clip-path="url(#SVGID_2_)" fill="#E72420" d="M735.032,178.949v3.158h2.657v2.322h-2.657v5.427
		c0,1.517,0.363,2.272,1.431,2.272c0.5,0,0.774-0.024,1.092-0.127l0.046,2.351c-0.409,0.176-1.159,0.327-2.022,0.327
		c-1.048,0-1.891-0.381-2.412-1.01c-0.613-0.709-0.887-1.844-0.887-3.459v-5.781h-1.57v-2.322h1.57v-2.298L735.032,178.949z"/>
	<path clip-path="url(#SVGID_2_)" fill="#E72420" d="M751.856,176.477v14.466c0,1.264,0.046,2.627,0.093,3.46h-2.479l-0.136-1.943
		h-0.047c-0.659,1.363-2.001,2.221-3.592,2.221c-2.661,0-4.755-2.498-4.755-6.287c-0.021-4.114,2.297-6.563,4.958-6.563
		c1.524,0,2.615,0.683,3.115,1.589h0.046v-6.941H751.856z M749.06,187.232c0-0.253-0.021-0.583-0.068-0.833
		c-0.25-1.188-1.138-2.174-2.411-2.174c-1.798,0-2.797,1.77-2.797,4.04c0,2.271,0.999,3.916,2.775,3.916
		c1.135,0,2.137-0.86,2.412-2.198c0.067-0.278,0.089-0.58,0.089-0.91V187.232z"/>
</g>
</svg>
