<?xml version="1.0" encoding="utf-8"?>
<!-- Generator: Adobe Illustrator 16.0.0, SVG Export Plug-In . SVG Version: 6.00 Build 0)  -->
<!DOCTYPE svg PUBLIC "-//W3C//DTD SVG 1.1//EN" "http://www.w3.org/Graphics/SVG/1.1/DTD/svg11.dtd">
<svg version="1.1" id="圖層_1" xmlns="http://www.w3.org/2000/svg" xmlns:xlink="http://www.w3.org/1999/xlink" x="0px" y="0px"
	 width="189.172px" height="44.586px" viewBox="0 0 189.172 44.586" enable-background="new 0 0 189.172 44.586"
	 xml:space="preserve">
<g>
	<g>
		<g>
			<path fill="#0B629E" d="M68.552,12.545H57.335c-2.279,0-3.424-1.137-3.424-3.404V2.616h-3.252v7.037
				c0,0.875,0.167,1.678,0.483,2.41c0.334,0.732,0.786,1.359,1.38,1.885c0.582,0.525,1.282,0.936,2.107,1.223
				c0.82,0.291,1.724,0.439,2.719,0.439H71.79V2.616h-3.238V12.545z"/>
			<rect x="59.808" y="2.616" fill="#0B629E" width="3.238" height="8.332"/>
			<path fill="#0B629E" d="M89.661,4.329c-0.572-0.562-1.272-0.988-2.094-1.273c-0.828-0.291-1.767-0.439-2.829-0.439H74.051V15.61
				h3.241v-4.955h10.88v4.955h3.245V9.09c0-1.008-0.148-1.918-0.451-2.721C90.671,5.559,90.237,4.883,89.661,4.329z M77.292,7.719
				V5.678h5.879c2.037,0,3.32,0.207,3.856,0.611c0.522,0.422,0.832,0.896,0.931,1.43H77.292z"/>
			<path fill="#0B629E" d="M100.995,10.264c-0.138,0.234-0.279,0.471-0.416,0.705c-0.145,0.227-0.266,0.475-0.361,0.717
				c-0.209-0.498-0.443-0.988-0.729-1.443l-4.67-7.627h-3.842l9.258,14.125l9.295-14.125h-3.832L100.995,10.264z"/>
			<path fill="#0B629E" d="M111.019,9.149c0,0.996,0.154,1.883,0.455,2.678c0.307,0.805,0.751,1.473,1.33,2.035
				c0.582,0.561,1.275,0.988,2.107,1.293c0.824,0.299,1.76,0.455,2.783,0.455h10.271v-3.064h-10.207c-0.996,0-1.749-0.17-2.258-0.51
				c-0.504-0.328-0.855-0.824-1.062-1.459h13.188V7.663h-13.365V5.678h13.705V2.616h-16.947V9.149z"/>
			<path fill="#0B629E" d="M144.839,10.243c0,0.186,0.021,0.477,0.063,0.854l-0.597-0.611c-0.832-0.873-1.713-1.713-2.619-2.523
				c-0.91-0.811-1.856-1.543-2.833-2.227c-0.968-0.682-1.97-1.285-2.997-1.818c-1.016-0.533-2.068-0.967-3.131-1.301h-2.808V15.61
				h3.167V6.887c0-0.135-0.021-0.439-0.061-0.916c0.16,0.062,0.32,0.129,0.465,0.178c0.154,0.062,0.285,0.107,0.416,0.141
				c1.75,0.648,3.498,1.742,5.254,3.307c1.766,1.557,3.572,3.561,5.416,6.014h3.438V2.616h-3.174V10.243z"/>
			<path fill="#0B629E" d="M150.392,9.149c0,0.996,0.159,1.883,0.465,2.678c0.302,0.805,0.746,1.473,1.326,2.035
				c0.575,0.561,1.279,0.988,2.111,1.293c0.828,0.299,1.752,0.455,2.782,0.455h10.272v-3.064h-10.211
				c-0.996,0-1.746-0.17-2.258-0.51c-0.505-0.328-0.86-0.824-1.074-1.459h13.195V7.663H153.64V5.678h13.709V2.616h-16.957V9.149z"/>
			<path fill="#0B629E" d="M174.433,2.616c-3.646,0-5.602,1.684-5.887,5.047h3.074c0.115-1.322,0.883-1.984,2.293-1.984h2.246v9.932
				h3.254V5.678h6.145V2.616H174.433z"/>
		</g>
		<path fill="#0B629E" d="M53.948,35.114c-0.545,2.174-1.205,4.066-1.998,5.672l-1.291-0.973c0.766-1.6,1.426-3.49,1.988-5.672
			L53.948,35.114z M54.087,32.163l-1.092,1.166c-0.508-0.803-1.279-1.592-2.321-2.359l1.031-1.158
			C52.657,30.543,53.446,31.325,54.087,32.163z M54.193,27.969l-1.148,1.045c-0.487-0.789-1.18-1.65-2.091-2.574l1.199-1.023
			C53.151,26.477,53.831,27.321,54.193,27.969z M60.324,38.165h-2.172v2.516h-1.476v-2.516h-2.522v-1.373h2.522v-1.223h-1.84v-6.24
			h1.805v-0.932h-2.25v-1.375h2.25v-1.498h1.443v1.498h2.176v1.375h-2.176v0.932h1.823v6.24h-1.756v1.223h2.172V38.165z
			 M58.501,31.78v-1.072h-2.264v1.072H58.501z M58.501,34.254v-1.168h-2.264v1.168H58.501z M65.567,39.202
			c0,0.953-0.551,1.428-1.656,1.428c-0.256,0-0.573-0.006-0.945-0.02l-0.533-1.459c0.352,0.016,0.632,0.023,0.839,0.023
			c0.423,0,0.665-0.023,0.735-0.078c0.07-0.053,0.103-0.137,0.103-0.258v-3.439h-1.632c-0.078,2.068-0.496,3.865-1.268,5.4
			l-1.302-0.83c0.778-1.5,1.167-3.307,1.167-5.418v-8.752h4.492V39.202z M64.109,29.747v-2.523h-1.56v2.523H64.109z M64.109,33.969
			v-2.787h-1.56v2.787H64.109z"/>
		<path fill="#0B629E" d="M92.82,36.692c-0.146,1.492-0.437,2.857-0.862,4.107l-1.345-0.645c0.427-1.295,0.704-2.568,0.836-3.826
			L92.82,36.692z M96.699,28.317c-1.167,2.432-2.448,4.438-3.843,6.014c0.787-0.119,1.453-0.275,2.002-0.455
			c-0.132-0.412-0.26-0.738-0.381-0.965l1.247-0.436c0.377,0.904,0.692,1.912,0.942,3.037l-1.271,0.418
			c-0.033-0.184-0.082-0.426-0.152-0.73c-1.406,0.354-2.781,0.639-4.127,0.854l-0.4-1.268c1.025-1.08,1.939-2.273,2.734-3.582
			c-0.832,0.164-1.604,0.283-2.313,0.377l-0.261-1.4c1.004-1.223,1.85-2.795,2.539-4.715l1.443,0.613
			c-0.623,1.586-1.32,2.857-2.088,3.816c0.577-0.057,1.1-0.143,1.579-0.254c0.315-0.557,0.636-1.211,0.956-1.971L96.699,28.317z
			 M94.925,39.946l-1.389,0.264c-0.02-1.301-0.121-2.453-0.318-3.461l1.26-0.191C94.687,37.602,94.837,38.723,94.925,39.946z
			 M96.569,39.356l-1.129,0.221c-0.113-1.164-0.279-2.189-0.496-3.068l1.129-0.229C96.326,37.309,96.487,38.334,96.569,39.356z
			 M105.442,39.278c0,0.52-0.143,0.891-0.427,1.131c-0.288,0.234-0.838,0.363-1.653,0.363c-0.238,0-0.543-0.014-0.91-0.029
			l-0.506-1.465c0.628,0.029,1.207,0.037,1.736,0.037c0.086,0,0.152-0.037,0.225-0.107c0.078-0.07,0.114-0.143,0.114-0.213V27.342
			h-5.655v13.416h-1.433V25.877h8.509V39.278z M103.519,31.446h-4.662v-1.373h0.747c-0.188-0.668-0.425-1.314-0.696-1.941
			l1.342-0.348c0.316,0.713,0.562,1.48,0.746,2.289h0.354c0.279-0.654,0.521-1.393,0.742-2.217l1.369,0.361
			c-0.168,0.633-0.393,1.252-0.676,1.855h0.734V31.446z M103.49,34.502h-2.74v2.225c0,0.072,0.04,0.135,0.114,0.191
			c0.086,0.057,0.15,0.086,0.213,0.086h2.244v1.35H100.7c-0.862,0-1.289-0.439-1.289-1.312v-2.539h-0.555v-1.357h1.826
			c-0.105-0.363-0.258-0.768-0.462-1.195l1.431-0.248c0.184,0.455,0.354,0.938,0.521,1.443h1.317V34.502z"/>
		<path fill="#0B629E" d="M137.601,26.774c-0.791,0.27-1.648,0.467-2.568,0.625v2.248h2.186v1.455h-2.186v0.484
			c0.909,0.953,1.685,1.941,2.324,2.957l-1.076,1.145c-0.413-0.824-0.829-1.527-1.248-2.109v7.186h-1.516v-6.881
			c-0.802,1.578-1.588,2.729-2.348,3.463l-0.879-1.379c1.205-1.223,2.261-2.844,3.143-4.865h-2.979v-1.455h3.062v-2.004
			c-0.728,0.111-1.503,0.197-2.312,0.248l-0.658-1.416c2.215-0.107,4.318-0.441,6.31-1.01L137.601,26.774z M145.595,36.385
			l-1.609,0.242v4.172h-1.539v-3.975l-5.229,0.705L137.083,36l5.363-0.73v-9.627h1.539v9.426l1.564-0.197L145.595,36.385z
			 M141.685,33.293l-1.044,1.158c-0.729-0.924-1.813-1.926-3.249-2.984l1.006-1.125C139.806,31.374,140.9,32.362,141.685,33.293z
			 M141.931,29.084l-1.045,1.131c-0.97-1.104-1.997-2.047-3.067-2.852l1.077-1.096C140.05,27.165,141.067,28.104,141.931,29.084z"/>
		<path fill="#0B629E" d="M175.88,33.223c-0.658,0.299-1.262,0.553-1.809,0.768v5.033c0,0.496-0.125,0.881-0.363,1.15
			c-0.242,0.277-0.65,0.42-1.227,0.428c-0.568,0.008-1.062,0-1.475-0.016l-0.48-1.514c0.607,0.029,1.131,0.035,1.571,0.035
			c0.114,0,0.214-0.049,0.313-0.15c0.096-0.098,0.145-0.205,0.145-0.332v-4.066c-0.639,0.234-1.293,0.426-1.986,0.604l-0.412-1.422
			c1.084-0.334,1.887-0.596,2.398-0.803v-3.215h-2.206v-1.477h2.206V25.43h1.516v2.816h1.596v1.477h-1.596v2.609
			c0.451-0.141,0.951-0.354,1.492-0.625L175.88,33.223z M185.558,39.491l-0.889,1.309c-1.639-0.717-2.992-1.521-4.062-2.402
			c-1.248,0.938-2.732,1.734-4.468,2.402l-0.856-1.391c1.682-0.562,3.086-1.252,4.229-2.057c-0.969-1.066-1.793-2.551-2.469-4.479
			h-0.594v-1.457h3.443v-2.26h-3.682V27.7h3.682v-2.213h1.561V27.7h3.651v1.457h-3.651v2.26h3.217v1.457
			c-0.811,1.949-1.773,3.455-2.9,4.514C182.726,38.178,183.987,38.879,185.558,39.491z M182.963,32.874h-4.265
			c0.427,1.301,1.092,2.453,1.994,3.477C181.634,35.405,182.391,34.247,182.963,32.874z"/>
	</g>
	<path fill="#0B629E" d="M22.817,40.561c10.45,0,18.924-8.472,18.924-18.922c0-10.447-8.474-18.92-18.924-18.92
		S3.896,11.192,3.896,21.639C3.896,32.089,12.367,40.561,22.817,40.561z M21.03,13.237h4.079v10.782H21.03V13.237z M9.132,13.237
		h4.144v8.443c0,2.934,1.461,4.402,4.387,4.402h14.303V13.237h4.14v16.804H17.668c-1.268,0-2.425-0.186-3.475-0.562
		c-1.049-0.378-1.949-0.906-2.696-1.586c-0.749-0.68-1.328-1.491-1.742-2.434c-0.415-0.944-0.623-1.988-0.623-3.125V13.237z"/>
</g>
</svg>
