<svg xmlns="http://www.w3.org/2000/svg" width="189.172" height="44.586" viewBox="0 0 189.172 44.586"><g fill="#0B629E"><path d="M68.552 12.545H57.335c-2.279 0-3.424-1.137-3.424-3.404V2.616h-3.252v7.037c0 .875.167 1.678.483 2.41a5.55 5.55 0 0 0 1.38 1.885 6.092 6.092 0 0 0 2.107 1.223c.82.291 1.724.439 2.719.439H71.79V2.616h-3.238v9.929z"/><path d="M59.808 2.616h3.238v8.332h-3.238zM89.661 4.329a5.527 5.527 0 0 0-2.094-1.273c-.828-.291-1.767-.439-2.829-.439H74.051V15.61h3.241v-4.955h10.88v4.955h3.245V9.09c0-1.008-.148-1.918-.451-2.721a5.286 5.286 0 0 0-1.305-2.04zm-12.369 3.39V5.678h5.879c2.037 0 3.32.207 3.856.611.522.422.832.896.931 1.43H77.292zM100.995 10.264l-.416.705a4.188 4.188 0 0 0-.361.717 9.904 9.904 0 0 0-.729-1.443l-4.67-7.627h-3.842l9.258 14.125 9.295-14.125h-3.832l-4.703 7.648zM111.019 9.149c0 .996.154 1.883.455 2.678a5.529 5.529 0 0 0 1.33 2.035c.582.561 1.275.988 2.107 1.293.824.299 1.76.455 2.783.455h10.271v-3.064h-10.207c-.996 0-1.749-.17-2.258-.51-.504-.328-.855-.824-1.062-1.459h13.188V7.663h-13.365V5.678h13.705V2.616h-16.947v6.533zM144.839 10.243c0 .186.021.477.063.854l-.597-.611a45.6 45.6 0 0 0-2.619-2.523 30.67 30.67 0 0 0-2.833-2.227 25.952 25.952 0 0 0-2.997-1.818 19.025 19.025 0 0 0-3.131-1.301h-2.808V15.61h3.167V6.887c0-.135-.021-.439-.061-.916.16.062.32.129.465.178.154.062.285.107.416.141 1.75.648 3.498 1.742 5.254 3.307 1.766 1.557 3.572 3.561 5.416 6.014h3.438V2.616h-3.174v7.627zM150.392 9.149c0 .996.159 1.883.465 2.678a5.446 5.446 0 0 0 1.326 2.035c.575.561 1.279.988 2.111 1.293.828.299 1.752.455 2.782.455h10.272v-3.064h-10.211c-.996 0-1.746-.17-2.258-.51-.505-.328-.86-.824-1.074-1.459H167V7.663h-13.36V5.678h13.709V2.616h-16.957v6.533zM174.433 2.616c-3.646 0-5.602 1.684-5.887 5.047h3.074c.115-1.322.883-1.984 2.293-1.984h2.246v9.932h3.254V5.678h6.145V2.616h-11.125zM53.948 35.114c-.545 2.174-1.205 4.066-1.998 5.672l-1.291-.973c.766-1.6 1.426-3.49 1.988-5.672l1.301.973zm.139-2.951l-1.092 1.166c-.508-.803-1.279-1.592-2.321-2.359l1.031-1.158c.952.731 1.741 1.513 2.382 2.351zm.106-4.194l-1.148 1.045c-.487-.789-1.18-1.65-2.091-2.574l1.199-1.023c.998 1.06 1.678 1.904 2.04 2.552zm6.131 10.196h-2.172v2.516h-1.476v-2.516h-2.522v-1.373h2.522v-1.223h-1.84v-6.24h1.805v-.932h-2.25v-1.375h2.25v-1.498h1.443v1.498h2.176v1.375h-2.176v.932h1.823v6.24h-1.756v1.223h2.172v1.373zm-1.823-6.385v-1.072h-2.264v1.072h2.264zm0 2.474v-1.168h-2.264v1.168h2.264zm7.066 4.948c0 .953-.551 1.428-1.656 1.428-.256 0-.573-.006-.945-.02l-.533-1.459c.352.016.632.023.839.023.423 0 .665-.023.735-.078.07-.053.103-.137.103-.258v-3.439h-1.632c-.078 2.068-.496 3.865-1.268 5.4l-1.302-.83c.778-1.5 1.167-3.307 1.167-5.418v-8.752h4.492v13.403zm-1.458-9.455v-2.523h-1.56v2.523h1.56zm0 4.222v-2.787h-1.56v2.787h1.56zM92.82 36.692a18.23 18.23 0 0 1-.862 4.107l-1.345-.645c.427-1.295.704-2.568.836-3.826l1.371.364zm3.879-8.375c-1.167 2.432-2.448 4.438-3.843 6.014a12.46 12.46 0 0 0 2.002-.455 6.128 6.128 0 0 0-.381-.965l1.247-.436c.377.904.692 1.912.942 3.037l-1.271.418a15.51 15.51 0 0 0-.152-.73 47.774 47.774 0 0 1-4.127.854l-.4-1.268a21.094 21.094 0 0 0 2.734-3.582c-.832.164-1.604.283-2.313.377l-.261-1.4c1.004-1.223 1.85-2.795 2.539-4.715l1.443.613c-.623 1.586-1.32 2.857-2.088 3.816a12.37 12.37 0 0 0 1.579-.254c.315-.557.636-1.211.956-1.971l1.394.647zm-1.774 11.629l-1.389.264c-.02-1.301-.121-2.453-.318-3.461l1.26-.191c.209 1.044.359 2.165.447 3.388zm1.644-.59l-1.129.221c-.113-1.164-.279-2.189-.496-3.068l1.129-.229c.253 1.029.414 2.054.496 3.076zm8.873-.078c0 .52-.143.891-.427 1.131-.288.234-.838.363-1.653.363-.238 0-.543-.014-.91-.029l-.506-1.465a37.32 37.32 0 0 0 1.736.037c.086 0 .152-.037.225-.107.078-.07.114-.143.114-.213V27.342h-5.655v13.416h-1.433V25.877h8.509v13.401zm-1.923-7.832h-4.662v-1.373h.747a15.428 15.428 0 0 0-.696-1.941l1.342-.348c.316.713.562 1.48.746 2.289h.354c.279-.654.521-1.393.742-2.217l1.369.361a11.003 11.003 0 0 1-.676 1.855h.734v1.374zm-.029 3.056h-2.74v2.225c0 .072.04.135.114.191.086.057.15.086.213.086h2.244v1.35H100.7c-.862 0-1.289-.439-1.289-1.312v-2.539h-.555v-1.357h1.826a7.888 7.888 0 0 0-.462-1.195l1.431-.248c.184.455.354.938.521 1.443h1.317v1.356zM137.601 26.774c-.791.27-1.648.467-2.568.625v2.248h2.186v1.455h-2.186v.484a18.806 18.806 0 0 1 2.324 2.957l-1.076 1.145a15.552 15.552 0 0 0-1.248-2.109v7.186h-1.516v-6.881c-.802 1.578-1.588 2.729-2.348 3.463l-.879-1.379c1.205-1.223 2.261-2.844 3.143-4.865h-2.979v-1.455h3.062v-2.004c-.728.111-1.503.197-2.312.248l-.658-1.416c2.215-.107 4.318-.441 6.31-1.01l.745 1.308zm7.994 9.611l-1.609.242v4.172h-1.539v-3.975l-5.229.705-.135-1.529 5.363-.73v-9.627h1.539v9.426l1.564-.197.046 1.513zm-3.91-3.092l-1.044 1.158c-.729-.924-1.813-1.926-3.249-2.984l1.006-1.125c1.408 1.032 2.502 2.02 3.287 2.951zm.246-4.209l-1.045 1.131a20.41 20.41 0 0 0-3.067-2.852l1.077-1.096c1.154.898 2.171 1.837 3.035 2.817zM175.88 33.223c-.658.299-1.262.553-1.809.768v5.033c0 .496-.125.881-.363 1.15-.242.277-.65.42-1.227.428-.568.008-1.062 0-1.475-.016l-.48-1.514c.607.029 1.131.035 1.571.035.114 0 .214-.049.313-.15a.458.458 0 0 0 .145-.332v-4.066a20.74 20.74 0 0 1-1.986.604l-.412-1.422c1.084-.334 1.887-.596 2.398-.803v-3.215h-2.206v-1.477h2.206V25.43h1.516v2.816h1.596v1.477h-1.596v2.609c.451-.141.951-.354 1.492-.625l.317 1.516zm9.678 6.268l-.889 1.309c-1.639-.717-2.992-1.521-4.062-2.402-1.248.938-2.732 1.734-4.468 2.402l-.856-1.391c1.682-.562 3.086-1.252 4.229-2.057-.969-1.066-1.793-2.551-2.469-4.479h-.594v-1.457h3.443v-2.26h-3.682V27.7h3.682v-2.213h1.561V27.7h3.651v1.457h-3.651v2.26h3.217v1.457c-.811 1.949-1.773 3.455-2.9 4.514.956.79 2.217 1.491 3.788 2.103zm-2.595-6.617h-4.265a9.842 9.842 0 0 0 1.994 3.477c.942-.946 1.699-2.104 2.271-3.477zM22.817 40.561c10.45 0 18.924-8.472 18.924-18.922 0-10.447-8.474-18.92-18.924-18.92S3.896 11.192 3.896 21.639c0 10.45 8.471 18.922 18.921 18.922zM21.03 13.237h4.079v10.782H21.03V13.237zm-11.898 0h4.144v8.443c0 2.934 1.461 4.402 4.387 4.402h14.303V13.237h4.14v16.804H17.668c-1.268 0-2.425-.186-3.475-.562-1.049-.378-1.949-.906-2.696-1.586a7.098 7.098 0 0 1-1.742-2.434c-.415-.944-.623-1.988-.623-3.125v-9.097z"/></g></svg>