<svg version="1.2" baseProfile="tiny" xmlns="http://www.w3.org/2000/svg" width="256.073" height="71.763" viewBox="0 0 256.073 71.763"><path fill="#1A9E77" d="M70.168 22.715c5.41 13.754 1.579 29.986-9.395 39.681-9.468 8.567-23.52 11.723-36.072 7.516C10.649 65.253.805 52.552.052 37.672-.697 23.62 6.669 10.917 18.991 4.231c11.274-6.465 28.18-5.41 38.478 2.404 5.633 3.832 10.144 9.844 12.699 16.08z"/><path fill="#FFF" d="M34.546 16.706c1.279-.377 2.93-1.353 4.211-.377.901 1.354 3.381 1.802 2.705 3.681 1.276 1.579 2.705 3.382 4.357 4.584.377.077.526-.148.676-.375l-.45-.225c.526-.451 1.802.3 2.628-.152.526 0 1.279.152 1.656.675.373.605.45 1.354.976 1.956l.3-.148c.376.674.526 1.278.976 1.877 2.707.901 3.984 4.132 6.39 5.487 2.932 2.179 6.01 4.357 9.468 5.637-.15.45.376.45.599.6v.077c-.45-.227-1.049-.451-1.502-.303.453.678 1.579.376 1.806 1.129h-1.204c0 .227.302.227.451.3-.6-.227-1.203.227-1.579-.527-2.479-1.051-4.734-2.555-6.913-3.906l-.073.073c1.727 1.654 4.131 2.855 6.087 3.983.676.377 1.652.603 2.027 1.278-.225.075-.601.075-.674.377l-.526-.302c-.15.077 0 .227-.077.302l.377.301c-2.555-1.053-5.41-2.632-7.739-4.511-1.13-.751-2.255-1.353-3.385-2.179-.148 0-.373-.075-.45.15 1.279.976 2.632 1.579 3.908 2.482-2.328-1.129-5.11-2.782-6.989-5.035-.826-.828-2.029-2.557-3.455-2.255-.526.3-1.353.227-1.956.525-.45 0-.826-.525-1.276-.15-.377.828-1.579.15-1.806 1.053-.75.302-2.102.075-2.329.978l.077.375c-1.506.676-3.535.451-4.584 1.879-.303.3-.903-.075-1.203.3.073-.15-.077-.3-.227-.3-.376-.15-.603.225-.903.3-.223-.375.3-.45.227-.676-.676-.3-.978.601-1.502.903.075-.601.751-.676.976-1.203-.377-.223-.676.15-.976.225.15-.075.45-.601 0-.601.376-.599 1.203-.375 1.426-1.051h-.6c.6-.452 1.276-.978 1.802-1.427-.223 0-.676-.603-1.053-.077 0-.075.153-.15.077-.223-.3-.303-.676.223-1.053.223 0 .077.077-.223-.15-.3h-.226c.226-.15.528-.524.83-.751l-.153-.15c1.129-.678 2.255-1.429 3.385-1.954l.223-.226a.784.784 0 0 0-1.203 0c.979-.073.077-1.128 1.053-1.276.15-.826.903-1.427 1.502-1.804-.976-.901-1.352-2.557-2.479-3.08-.077-.676-.753 0-.826-.676-1.353-.077-2.932.599-3.835-.603-.676-.227-1.576-.15-2.254-.075-.601.524-.826 1.278-1.201 1.877-.603.451-.903 1.203-1.352 1.879-.676.903-1.506 2.029-2.705 2.405v-.15c-.828 1.128-2.632.676-3.685 1.879l-.073-.302a.629.629 0 0 0-.753.452v.15c-.527-.15-.903.45-1.126.749-1.279 1.354-3.381 1.354-4.734 2.482-.154.075.073 0 0-.075-2.482.528-3.685 2.405-5.337 4.209-.451.749-1.203 1.201-1.802 1.802.15.603-.753.826-1.053 1.129.3-.526.974-.978 1.053-1.579-.605.3-.753.976-1.429 1.276-.378-.3.376-.525.15-.826l-.903.678.828-1.128c-.453.073-.903.826-1.428.903-.15.225-.377.225-.676.225v-.075c.3-.227.826-.753 1.276-1.204-.524-.298-1.128.378-1.506.301-.148-.077-.07-.45-.446-.301.376-.298.749-.525.903-.974-.303-.077-.676.148-.98.3.077-.376.826-.603.603-1.203-.976-.152-.828.826-1.652 1.051.824-1.128 2.029-1.804 2.855-3.005l-.077-.075c1.579-1.729 3.531-2.78 5.485-3.911 1.581-.899 3.681-1.351 4.812-2.851.45-.603.899-1.129 1.199-1.731.225.077.303-.15.377-.298 1.129-.676 2.332-1.128 3.684-1.128.6-.603 1.727-.227 2.179-1.054 1.576-1.877 2.179-4.208 3.53-6.087.451-.6.978-1.579 1.881-1.802 2.256.22 4.435.596 6.537 1.2z"/><path fill="#FFF" d="M51.306 25.647l-.3-.976.3.826zM51.832 27.149c-.3-.073-.227-.3-.376-.524.15.076.3.301.376.524z"/><path fill="#1A9E77" d="M15.987 27.676c-.227-.45.373-.6.598-.974a1.65 1.65 0 0 1-.598.974zM23.199 27.826v-.074h.226zM21.623 28.277c-.154.152-.227.376-.453.302 0-.227.3-.45.453-.302z"/><path fill="#FFF" d="M36.051 29.555c-.376.3-1.129.526-1.203.976-.678-.077-1.128.603-1.656.603.077-.603.978-.226 1.053-.828l.603-.451.073.227c.227-.227.978-.077.753-.676l.377.149zM33.646 30.004c-.15.302-.453.527-.826.603.15-.376.45-.376.826-.603z"/><path fill="#1A9E77" d="M18.165 30.907c.15.226-.15 0-.227.15.077-.075.152-.15.227-.15z"/><path fill="#FFF" d="M35.072 31.284h.227v.227h-.227zM34.772 31.808c0 .152-.15.152-.227.301h-.223c-.077-.226.15-.301.3-.376.077 0 .077.075.15.075zM36.201 33.236c-.077.303-.453.303-.603.378-.223-.075.077-.152.077-.302.225.077.3-.151.526-.076z"/><path fill="#1A9E77" d="M36.351 33.689c-.077.3-.603.3-.903.526-.073-.301.376-.451.603-.601.074.075.3 0 .3.075zM54.388 34.44c.3.15.45.525.676.75l-.227.228c-.526-.528-.826-1.053-1.126-1.729.225.225.373.599.677.751z"/><path fill="#FFF" d="M65.208 38.423c-.227.15-.526-.152-.751-.226l.751.226zM67.313 39.551c-.603-.377-1.429-.377-1.879-.828.677.076 1.353.451 1.879.828zM60.701 39.476l-.903-.677.601.3zM67.087 41.731l.076-.153.224.153zM66.787 42.104h-.303v-.15c.076.075.226.075.303.15z"/><path fill="#1A9E77" d="M90.233 49.323h12.171v2.773h-8.872v3.648h8.257v2.775h-8.257v4.448h9.175v2.775H90.233V49.323zM120.653 60.1c.157.851.592 3.136 3.573 3.136 2.318 0 3.238-1.21 3.238-2.262 0-1.377-1.148-1.672-4.18-2.409-1.621-.413-5.244-1.309-5.244-4.927 0-1.79 1.168-4.581 5.982-4.581 3.209 0 6.142 1.253 6.28 4.967l-3.319.14c-.143-.849-.387-2.388-3.005-2.388-.99 0-2.773.3-2.773 1.63 0 1.054 1.027 1.514 3.666 2.133 2.501.594 5.895 1.401 5.895 5.435 0 1.994-1.267 3.669-2.684 4.312-1.464.685-3.122.732-3.876.732-1.766 0-6.121-.157-6.763-5.623l3.21-.295zM143.528 49.323v8.875c0 1.949 0 2.752.417 3.535.619 1.166 1.9 1.44 2.913 1.44 3.162 0 3.162-1.992 3.162-4.792v-9.058h3.3v8.623c0 2.933-.112 4.561-.912 5.806-1.265 1.945-3.629 2.266-5.461 2.266-6.717 0-6.717-4.148-6.717-7.932v-8.762h3.298zM163.652 49.323h3.207l6.675 10.963h.044V49.323h3.071v16.419h-3.32l-6.564-10.705h-.047v10.705h-3.066V49.323zM196.978 49.323h11.26v2.773h-7.951v3.903h6.878v2.771h-6.878v6.972h-3.308V49.323zM217.379 49.323h3.303v6.468h6.484v-6.468h3.305v16.419h-3.305v-7.178h-6.484v7.178h-3.303V49.323zM254.015 60.719c-.349 1.285-1.457 5.299-6.81 5.299-4.451 0-7.481-3.239-7.481-8.349 0-4.561 2.316-8.612 7.66-8.612.913 0 3.212.087 5.023 1.87.826.83 1.232 1.792 1.555 2.946l-3.277.772c-.415-1.79-1.764-2.756-3.462-2.756-4.085 0-4.085 4.499-4.085 5.551 0 1.537.185 3.075.875 4.125.596.919 1.694 1.607 3.162 1.607 2.2 0 3.21-1.672 3.625-3.463l3.215 1.01z"/><circle fill="#1A9E77" cx="108.772" cy="63.64" r="2.117"/><path fill="#1A9E77" d="M152.832 32.736h7.375v-21.46h5.289v28.58h-5.289V37.93l-20.296-.053-.052 1.836h-5.44v-28.69h5.44v21.713l7.477-.053V6.347h5.496zM119.968 12.278l-11.998.026-.096.103v7.312l11.286.11v5.175h-11.34l-.056 9.208 13.682.05v5.292H88.649v-5.241l13.632-.051v-9.199l-11.192-.059v-5.227h11.192v-7.518l-11.955-.117V6.961h29.649z"/><path fill="#1A9E77" d="M116.625 27.907c.455.716.613 1.686.403 2.601-.248.96-1.166 1.977-2.133 2.228-1.323.418-2.597-.052-3.509-1.014-.563-.654-.763-1.464-.718-2.393.108-1.209 1.077-2.419 2.242-2.74 1.373-.409 2.903.053 3.715 1.318zM194.142 11.735l.08.15c1.691 2.175 3.096 3.759 4.204 4.77v.302h-8.6v-.152c2.458-2.764 3.826-4.452 4.091-5.07h.225zm-3.435-5.681c-1.99 3.932-3.798 6.512-5.428 7.725-2.782 2.824-5.572 4.669-8.373 5.525v.373l.439.552c.69 1.115 1.17 2.106 1.438 2.996.152.711.303 1.016.444.924h.669c2.881-1.511 5.075-2.899 6.609-4.171h.071l.07.476c-.051.739 0 1.053.155.959h4.314v2.212h-2.583l-6.648-.068-.15.147v4.249l.15.141 4.208-.078v.228l-.291.214-2.956 1.011v.427l.072.085a26.585 26.585 0 0 1 1.701 5.205v.364l-5.907-.073-.148.157v4.464l.148.139c.96.021 1.638-.023 2.034-.139h28.13l.218-.15V35.55l-.218-.139a6.65 6.65 0 0 0-1.957.139h-4.539v-.218c1.309-2.222 2.219-4.07 2.729-5.576v-.288l-1.292-.57c-1.304-.331-1.936-.582-1.881-.732v-.152h4.685l.148-.108v-4.282l-.148-.228a4.907 4.907 0 0 0-2.024.228h-8.349v-2.212h5.058l.151-.138v-1.891l.07-.148.033.068c2.317 1.462 3.77 2.29 4.359 2.522 1.574.643 2.386 1.061 2.44 1.245h.732c.865-1.956 1.818-3.453 2.878-4.464v-.441c0-.153-.192-.22-.587-.22-5.813-1.874-10.566-5.386-14.289-10.526v-.356l.223-.308v-.222l-.704-.176a31.445 31.445 0 0 0-5.867-.371l-.037.068zm.409 29.496h-5.023v-.139l.113-.16 3.69-1.433v-.296c-1.15-2.977-2.041-4.725-2.66-5.278v-.228h3.88v7.534zm6.418-1.875v.22c1.976.572 3.157 1.009 3.554 1.356v.3h-4.839v-7.535h3.876c-.67 2.171-1.53 4.041-2.591 5.659zM226.648 6.277l4.619.19.152.139v.304l-.229.648v6.065l2.801-.075.151.155v4.392l-.151.141-2.801-.071v3.66h.229l2.573-.704h.219l.157.153-.157 2.953c2.665-1.677 4.71-4.031 6.13-7.055h.296l3.251 1.361.228.192v.295a34.772 34.772 0 0 1-5.058 6.871v.066c0 .298 1.531.397 4.612.298h6.862l1.074-.225v-.225c-2.163-1.82-4.04-4.159-5.609-7.014v-.331l3.099-1.584h.558c.784 1.868 2.719 3.944 5.79 6.2l.629.333v.295a24.94 24.94 0 0 1-2.363 3.165l-.071.075h-.443l-.518-.288h-.228v3.763l-.108.145-5.056-.061v5.131h6.283l1.504-.146h.227l.145.146v4.236l-.145.153c-.049-.153-2.721-.194-8.014-.153h-11.701l-1.513.153h-.186l-.152-.153v-4.32l.152-.139c0 .173 2.782.244 8.349.223h.516v-5.131h-4.694c.244.042-.026.061-.811.061-.12.106-.178-.223-.145-.943v-1.856l-.04-.073h-.075l-.366.216h-.298c-.492-.683-1.279-1.398-2.363-2.102l-.225-.077h-.214l-2.252.675-.077.028v10.963c-.373 2.074-1.811 3.282-4.321 3.63h-1.584c-.152.04-.322-.425-.516-1.377-.131-.667-.582-1.732-1.37-3.249v-.209c-.096-.152.193-.2.894-.152h1.806a.889.889 0 0 0 .549-.551v-7.723h-.152l-3.507 1.07h-.511c-.394-.668-.682-2.329-.851-4.98-.101-.151.185-.23.851-.23 1.4-.092 2.764-.295 4.096-.62l.073-.07v-4.769h-2.876l-1.22.152h-.152l-.146-.152v-4.462l.146-.155 3.88.075h.368V7.722l-.152-1.255v-.075l.152-.115zm15.875.19h4.396l.22.139c-.293 1.06-.392 2.607-.293 4.626h8.453l.145.141v6.944l-.145.143h-4.208c-.126.108-.171-.223-.148-.959v-2.144l-.038-.077h-11.556v3.104l-.15.148h-4.169l-.148-.148v-7.012l.148-.141h7.35V6.607l.143-.14z"/></svg>