<?xml version="1.0" encoding="utf-8"?>
<!-- Generator: Adobe Illustrator 16.0.0, SVG Export Plug-In . SVG Version: 6.00 Build 0)  -->
<!DOCTYPE svg PUBLIC "-//W3C//DTD SVG 1.1//EN" "http://www.w3.org/Graphics/SVG/1.1/DTD/svg11.dtd">
<svg version="1.1" id="圖層_1" xmlns="http://www.w3.org/2000/svg" xmlns:xlink="http://www.w3.org/1999/xlink" x="0px" y="0px"
	 width="384px" height="330px" viewBox="0 0 384 330" enable-background="new 0 0 384 330" xml:space="preserve">
<g>
	<g>
		<path fill="#413B38" d="M55.445,145.694c-0.784-0.836-2.026-2.507-2.613-3.344l-2.287,3.409H9.649c-1.241,0-2.09-0.643-2.483-1.48
			c-0.457-0.963-0.326-2.186,0.524-3.15l16.135-18.839h7.839l-16.136,18.839h36.519c-2.548-4.115-5.098-8.68-7.121-13.052h6.728
			c2.874,6.239,6.991,12.345,11.694,17.619L55.445,145.694L55.445,145.694z M58.319,176.365c-1.045,1.156-2.548,1.735-3.985,1.735
			h-39c-1.633,0-3.005-0.579-4.051-1.544c-1.176-1.095-1.828-2.636-1.828-4.308v-14.466c0-1.608,0.588-3.021,1.633-4.051
			c1.045-1.031,2.548-1.673,4.376-1.673h38.674c1.699,0,3.266,0.708,4.312,1.864c0.915,1.029,1.438,2.443,1.438,4.115v14.083
			C59.887,173.921,59.299,175.335,58.319,176.365z M53.876,158.619c0-1.093-0.913-1.866-1.894-1.866H17.489
			c-0.85,0-1.895,0.773-1.895,1.801v13.243c0,0.839,0.588,1.607,1.504,1.607h35.212c0.653,0,1.567-0.769,1.567-1.607v-13.178H53.876
			z"/>
		<path fill="#413B38" d="M74.39,178.424h-6.337c2.286-5.917,5.227-16.591,5.879-23.084h5.618
			C78.701,161.255,76.283,172.249,74.39,178.424z M73.866,135.664c-1.568-3.022-4.442-9.645-5.683-13.503h6.01
			c0.915,3.471,3.855,9.966,6.01,13.503H73.866z M73.671,152.059c-1.765-3.343-4.443-10.288-5.423-14.145h5.944
			c0.915,3.792,3.92,10.608,6.01,14.145H73.671z M83.993,150.388h-3.658c0.718-2.25,1.371-6.366,1.567-9.324h3.267
			C85.037,143.958,84.646,147.944,83.993,150.388z M116.004,136.178h4.638c-0.262-0.9-0.653-2.507-0.785-3.215h3.594
			c0.26,1.671,1.175,4.887,1.96,6.559h-3.725c-0.261-0.644-0.653-1.93-0.914-2.638l-1.569,2.638h-6.271
			c-1.241,0-2.024-0.58-2.286-1.351c-0.262-0.773,0-1.8,0.849-2.637c1.307-1.349,3.332-3.473,4.05-4.435h-2.156
			c-0.652,0-1.176-0.127-1.568-0.387c-0.522-0.319-0.783-0.835-0.979-1.414H95.295v-1.48c-1.961,1.994-6.403,6.494-8.625,8.616
			h4.573c-0.196-0.836-0.522-2.25-0.588-3.149h3.593c0.195,1.736,0.979,4.693,1.698,6.364h-3.724
			c-0.196-0.513-0.588-1.606-0.784-2.251l-1.501,2.251h-7.251c-0.784,0-1.438-0.513-1.699-1.157
			c-0.326-0.643-0.262-1.414,0.327-1.994c1.567-1.478,3.79-3.792,5.095-5.206h-3.135c-0.914,0-1.633-0.517-1.959-1.159
			c-0.327-0.707-0.327-1.801,0.327-2.379c1.306-1.286,4.049-4.114,5.357-5.53h5.551c-1.502,1.606-4.441,4.629-5.944,6.108h2.81
			c0.457-0.45,1.372-1.349,1.699-1.737h4.181v-1.029h5.095c-0.327-0.899-0.719-2.507-0.914-3.407h5.291
			c0.065,0.837,0.523,2.508,0.85,3.407h5.683v1.737c1.306-1.35,3.529-3.922,4.638-5.271h4.965c-1.175,1.542-3.789,4.629-5.227,6.171
			h2.679c0.718-0.706,1.829-1.929,2.352-2.637h4.965C123.254,128.333,119.139,132.899,116.004,136.178z M122.666,176.815
			c-0.849,0.963-2.221,1.608-3.593,1.608h-17.77l-2.482-4.052h17.966c0.522,0,1.111-0.708,1.111-1.287v-1.415
			c0-0.579-0.523-1.349-1.111-1.349H87.781c-1.372,0-2.481-0.388-3.266-1.157c-0.718-0.708-1.11-1.674-1.11-2.959v-2.187
			c0-1.671,0.588-2.83,1.633-3.601c0.85-0.58,1.96-0.9,3.397-0.9h27.438c0.588,0,1.176-0.706,1.176-1.222v-0.707
			c0-0.578-0.522-1.093-1.112-1.093H82.686v-3.729h35.864c1.438,0,2.679,0.386,3.462,1.094c0.588,0.643,0.98,1.479,0.98,2.636v2.893
			c0,1.22-0.458,2.187-1.241,2.894c-0.784,0.642-1.895,1.027-3.201,1.027H90.264c-0.522,0-1.045,0.515-1.045,1.095v1.094
			c0,0.579,0.523,1.092,1.11,1.092h29.137c1.241,0,2.155,0.451,2.874,1.03c0.85,0.835,1.307,1.927,1.307,3.085v3.536
			C123.647,175.208,123.254,176.106,122.666,176.815z M87.193,150.388c-0.327-2.25-0.784-6.945-0.784-9.324h3.005
			c-0.065,2.379,0.391,6.945,0.849,9.324H87.193z M91.898,150.388c-0.524-2.572-0.982-7.01-1.046-9.324h2.941
			c0.064,2.636,0.717,7.009,1.24,9.324H91.898z M108.947,149.552c-0.588,0.578-1.371,0.9-2.352,0.9h-7.577
			c-1.045,0-1.895-0.257-2.417-0.836c-0.588-0.579-0.916-1.351-0.916-2.378v-2.766c0-1.222,0.392-2.186,1.177-2.829
			c0.588-0.451,1.371-0.644,2.351-0.644h7.316c1.045,0,1.96,0.387,2.547,1.093c0.458,0.578,0.72,1.285,0.72,2.25v2.958
			C109.797,148.202,109.471,148.973,108.947,149.552z M96.404,134.312v-3.214h13.196v3.214H96.404z M96.404,139.264v-3.278h13.261
			v3.278H96.404z M105.29,145.18c0-0.45-0.392-0.964-0.849-0.964h-3.333c-0.458,0-0.98,0.449-0.98,0.964v1.029
			c0,0.514,0.457,0.965,0.98,0.965h3.397c0.458,0,0.784-0.451,0.784-0.901V145.18z M113.586,150.322h-3.529
			c0.915-2.765,1.503-6.814,1.634-9.387h3.266C114.958,143.443,114.305,147.816,113.586,150.322z M116.851,150.322
			c-0.391-2.121-0.718-6.75-0.651-9.387h2.939c0.064,2.509,0.588,7.266,0.98,9.387H116.851z M121.948,150.322
			c-0.458-2.25-0.98-6.944-1.176-9.387h3.135c0.196,2.379,0.783,7.073,1.242,9.387H121.948z"/>
		<path fill="#413B38" d="M142.199,178.424h-12.281c4.898-1.803,9.342-4.63,12.412-7.203h9.342
			C148.928,174.112,145.661,176.621,142.199,178.424z M130.635,142.801v-4.695c6.337-0.641,12.478-1.994,18.423-3.6v4.5
			C142.917,140.615,136.973,141.9,130.635,142.801z M138.672,131.292c-2.417-1.93-5.293-5.145-6.991-7.588h7.969
			c2.026,2.765,4.965,5.594,7.841,7.588H138.672z M181.592,167.944c-0.851,1.027-2.09,1.67-3.528,1.67h-38.15
			c-1.373,0-2.679-0.641-3.593-1.608c-0.786-0.835-1.308-1.927-1.308-3.149v-14.725c0-1.286,0.588-2.443,1.568-3.28
			c0.916-0.77,2.091-1.221,3.397-1.221h37.694c1.306,0,2.549,0.451,3.464,1.286c1.045,0.901,1.698,2.251,1.698,3.666v14.018
			C182.832,165.884,182.375,167.041,181.592,167.944z M176.693,150.966c0-0.643-0.783-1.287-1.502-1.287h-32.86
			c-0.588,0-1.372,0.518-1.372,1.287v1.223h35.735V150.966z M176.693,155.981h-35.735v3.086h35.735V155.981z M176.693,162.733
			h-35.735v1.415c0,0.835,0.85,1.542,1.7,1.542h32.533c0.848,0,1.502-0.578,1.502-1.415V162.733z M174.275,143.828
			c-2.482-1.541-4.964-3.793-6.925-6.173c-2.023,2.83-4.833,5.275-8.165,6.173H146.25c5.161-1.22,9.667-3.086,12.738-5.4
			c2.678-1.994,4.508-4.502,4.638-7.909h6.01c-0.195,1.672-0.783,3.793-1.568,5.529h5.619c3.592,3.473,8.036,5.723,13.195,7.779
			H174.275z M183.487,133.992h-7.057c1.24-1.737,2.09-3.087,2.482-4.18c0.131-0.386-0.196-0.836-0.523-0.836h-19.464
			c-1.047,1.608-2.288,3.345-3.464,4.695h-7.84c3.267-3.409,6.272-7.138,7.969-11.381h6.663c-0.129,0.644-0.718,1.993-0.98,2.57
			h20.645c1.113,0,2.156,0.387,2.873,1.095c0.783,0.772,1.178,1.994,0.916,3.28C185.381,130.776,184.401,132.642,183.487,133.992z
			 M175.582,178.424c-3.136-2.059-6.403-4.438-9.146-7.203h9.537c3.528,2.829,7.644,5.463,11.888,7.203H175.582z"/>
		<path fill="#413B38" d="M209.355,145.951v32.405h-5.684v-32.405h-11.367v-4.307h11.367v-19.548h5.684v19.548h9.93v4.307H209.355z
			 M198.314,174.05h-5.948c3.267-8.229,4.575-16.911,4.575-25.72h5.227C202.168,156.047,200.863,166.783,198.314,174.05z
			 M196.878,139.006c-2.026-4.436-3.333-9.063-4.248-13.953h5.749c0.721,4.822,2.156,9.581,4.117,13.953H196.878z M215.953,139.006
			h-5.555c1.963-4.306,3.725-9.063,4.51-13.953h5.488C219.285,129.812,217.979,134.634,215.953,139.006z M214.516,174.05
			c-2.09-8.166-2.939-16.911-3.463-25.72h5.096c0.523,8.874,1.504,17.683,4.051,25.72H214.516z M245.348,163.376v14.852h-5.877
			v-14.531l-18.486,1.158v-4.501l18.486-1.157v-37.102h5.877v36.715l3.857-0.128v4.501L245.348,163.376z M230.129,138.364
			c-3.396-4.179-5.943-8.679-8.166-13.309h6.795c2.221,4.693,4.898,9.388,9.014,13.309H230.129z M229.477,153.861
			c-2.809-3.988-5.1-8.232-6.729-12.734h6.4c1.83,4.502,4.379,8.938,7.84,12.734H229.477z"/>
		<path fill="#413B38" d="M259.656,171.864h-5.619c2.613-8.681,3.463-18.068,3.725-27.648h4.963
			C262.662,153.666,261.744,163.119,259.656,171.864z M270.107,141.384v37.167h-5.551v-37.167h-9.668v-4.5h9.668v-8.228
			c-2.48,0.127-5.881,0.321-8.688,0.448v-4.371c7.773-0.193,15.35-1.028,22.602-2.508v4.563c-2.285,0.389-6.402,1.031-8.363,1.288
			v8.808h9.734v4.5H270.107L270.107,141.384z M275.006,171.864c-2.023-9.323-2.873-19.482-3.068-27.648h5.096
			c0.133,9.708,1.438,18.84,3.725,27.648H275.006z M306.822,161.962v16.588h-6.01v-15.689l-20.055,2.571v-4.627l20.055-2.571
			v-36.007h6.01v35.235l4.641-0.513v4.5L306.822,161.962z M289.576,154.183c-3.266-3.861-6.141-8.295-8.559-12.799h6.664
			c2.613,4.502,5.684,8.938,9.67,12.799H289.576z M290.295,138.428c-3.332-4.051-6.205-8.423-8.428-12.86h6.863
			c2.414,4.243,5.418,9.131,9.273,12.86H290.295z"/>
		<path fill="#413B38" d="M348.307,166.462v6.432c0,1.8-0.395,3.278-1.439,4.243c-0.848,0.771-2.221,1.287-4.051,1.287h-8.49
			l-1.633-4.312h8.426c0.652,0,1.109-0.383,1.109-1.156v-6.494h-25.736v-4.115h25.736v-1.415c2.225-0.578,6.012-1.994,7.842-2.766
			h-22.93v-4.179h31.748c1.24,0,2.025,0.641,2.287,1.415c0.326,0.9,0.064,1.929-0.916,2.507c-2.48,1.413-6.727,3.277-10.121,4.436
			h23.389v4.116L348.307,166.462L348.307,166.462z M366.795,156.625v-4.887c0-0.772-0.455-1.286-1.244-1.286H324.33
			c-0.523,0-1.24,0.577-1.24,1.286v4.887h-5.814v-5.144c0-1.287,0.262-2.252,0.654-3.022c0.521-0.899,1.305-1.479,2.285-1.993
			v-17.811c0-0.899,0.455-1.736,1.045-2.444c0.783-0.834,1.828-1.413,2.547-1.542c3.334-0.516,9.084-1.672,12.219-2.573v4.5
			c-2.354,0.514-6.795,1.415-9.018,1.864c-0.588,0.128-1.24,0.708-1.24,1.351v1.222h8.885v3.666h-8.885v3.985h8.885v3.794h-8.885
			v3.794h38.219v-3.794h-8.625v-3.794h8.625V134.7h-8.625v-3.666h8.754v-2.573c0-0.835-0.523-1.414-1.504-1.414h-7.904v-3.986h9.475
			c1.762,0,3.201,0.514,4.115,1.542c0.848,0.9,1.307,2.186,1.307,3.921v18.068c0.848,0.322,1.566,0.967,2.025,1.673
			c0.523,0.835,0.783,1.672,0.783,2.571v5.787L366.795,156.625L366.795,156.625z M348.373,144.73
			c-0.854-0.514-2.42-1.607-3.203-2.185c-0.979,0.771-2.48,1.734-3.396,2.185h-7.057c1.961-1.158,5.684-3.537,7.316-4.886
			c-1.436-1.35-3.854-3.794-5.225-5.337h6.01c0.521,0.708,1.895,1.994,2.549,2.637c0.717-0.579,2.088-1.865,2.873-2.637h5.879
			c-1.371,1.543-4.182,4.244-5.617,5.465c1.699,1.48,5.031,3.73,6.795,4.759H348.373z M347.52,133.155
			c-0.586-0.385-1.826-1.286-2.418-1.799c-0.715,0.513-2.021,1.415-2.74,1.799h-6.924c1.697-1.094,4.963-3.344,6.469-4.565
			c-1.311-1.158-3.924-3.793-5.23-5.723h5.945c0.719,0.903,2.025,2.315,2.613,2.959c0.785-0.708,2.158-1.994,3.072-2.959h5.748
			c-1.635,1.993-4.117,4.566-5.555,5.789c1.502,1.222,4.574,3.473,6.143,4.501h-7.123V133.155z"/>
		<path fill="#413B38" d="M81.445,247.125c-3.396-1.479-8.492-3.858-11.628-5.401c-2.678,1.285-8.558,4.049-11.627,5.401H44.47
			c6.403-2.509,13.85-5.659,19.337-8.424c-3.333-1.671-6.794-3.537-10.061-5.465h10.192c1.24,0.708,4.115,2.122,5.487,2.765
			c2.809-1.416,5.618-2.956,8.362-4.628c0.195-0.067,0.195-0.387-0.132-0.387H51.394c-2.025,5.271-4.181,10.416-7.25,16.139h-6.925
			c5.226-8.552,8.297-16.526,10.256-23.405h6.272c-0.196,0.901-0.588,2.058-0.979,2.958H84.06c1.632,0,2.745,0.771,3.201,1.798
			c0.652,1.415,0.129,3.28-1.633,4.374c-2.352,1.479-7.709,4.499-10.19,5.851c5.878,2.766,12.216,5.467,19.663,8.425H81.445
			L81.445,247.125z M87.717,213.56v-4.823c0-0.964-0.718-1.54-1.634-1.54H45.449c-0.587,0-1.372,0.708-1.372,1.54v4.823h-5.944
			v-5.531c0-1.414,0.457-2.828,1.501-3.791c0.917-0.837,2.221-1.414,4.052-1.414h4.572c-0.85-1.541-2.221-4.5-2.875-5.981
			c-1.568,0.067-4.899-0.063-6.532-0.192v-4.498c15.809,0.192,40.046,0.32,54.027-1.287v4.629c-1.111,0.129-2.939,0.257-3.985,0.257
			c-1.372,2.379-2.941,4.759-4.574,7.073h3.724c1.765,0,3.201,0.515,4.116,1.415c1.045,0.963,1.568,2.317,1.568,3.857v5.466h-6.011
			V213.56z M45.384,222.949h-7.25c4.312-4.567,7.187-8.684,9.668-12.86h6.14C52.113,213.688,48.389,219.217,45.384,222.949z
			 M60.279,196.842c-2.875,0.063-6.075,0.128-8.819,0.063c0.784,1.994,1.96,4.052,3.267,5.916h8.427
			C62.042,200.893,60.998,198.643,60.279,196.842z M77.655,223.461H59.887c-1.307,0-2.548-0.576-3.462-1.605
			c-0.653-0.838-1.111-1.93-1.111-3.088v-9.965h5.879v9.194c0,0.642,0.719,1.22,1.241,1.22h17.704L77.655,223.461z M69.425,216.904
			c-1.699-2.572-3.135-5.272-4.246-8.102h5.815c1.436,2.829,3.069,5.463,5.031,8.102H69.425z M66.419,196.649
			c0.981,2.122,2.025,4.181,3.202,6.174h7.839c1.633-2.188,3.202-4.373,4.574-6.688C77.2,196.392,69.164,196.714,66.419,196.649z
			 M85.953,222.949c-3.07-4.053-5.75-8.361-7.905-12.86h6.271c2.352,4.628,5.292,8.744,9.081,12.86H85.953z"/>
		<path fill="#413B38" d="M116.46,247.187c-1.176-1.543-3.528-5.014-4.639-6.814c-1.633,2.38-3.463,4.822-5.161,6.814h-7.969
			c3.789-3.664,7.12-7.714,9.865-11.894c-2.353-3.73-4.966-8.038-6.794-11.254c-0.719-1.284-0.653-2.957-0.327-4.629
			c0.784-3.984,1.895-10.286,2.417-14.789H99.28v-4.5h5.095c0.523-3.021,0.849-6.235,1.044-9.129h5.553
			c-0.195,2.443-0.718,6.43-1.11,9.129h5.879c1.503,0,2.744,0.452,3.723,1.221c1.438,1.157,2.155,2.958,2.026,5.08
			c-0.523,10.096-1.633,19.999-6.337,28.357c2.809,4.242,5.813,8.421,9.015,12.407H116.46z M114.305,204.621h-4.899
			c-0.653,4.76-1.829,11.833-2.547,15.691c-0.13,0.643,0.064,1.286,0.326,1.799c1.371,2.317,3.136,5.273,4.507,7.395
			c3.266-7.137,4.182-15.045,4.376-23.084C116.133,205.457,115.284,204.621,114.305,204.621z M142.462,220.955v20.317
			c0,1.799-0.523,3.214-1.438,4.18c-1.111,1.156-2.679,1.734-4.508,1.734h-6.272l-2.221-4.628h7.055
			c0.784,0,1.372-0.644,1.372-1.352v-20.252h-14.112v-4.371h14.112v-6.818c4.116-3.792,7.968-7.905,10.909-12.149
			c0.196-0.32,0-0.707-0.393-0.707h-22.538v-4.503h25.806c1.306,0,2.482,0.772,3.135,1.864c0.653,1.03,0.784,2.379,0.131,3.666
			c-1.764,3.346-7.644,10.03-11.042,13.052v5.596h13.786v4.371H142.462L142.462,220.955z"/>
		<path fill="#413B38" d="M196.878,213.045c-3.66,2.637-7.643,5.146-11.433,7.459h21.821c1.828,0,3.33,0.514,4.441,1.414
			c1.176,1.031,1.895,2.511,1.895,4.374v15.238c0,1.222-0.588,2.573-1.566,3.664c-0.982,1.093-2.352,1.863-4.053,1.863h-30.506
			c-1.831,0-3.268-0.706-4.247-1.863c-1.044-1.221-1.566-2.958-1.566-4.951v-12.602H161.47c9.08-3.858,17.9-9.001,26.392-14.595
			h-26.458v-4.438h22.408v-7.46h-17.703v-4.24h17.703v-6.047h6.012v6.047h13.65v3.472c1.764-1.545,4.309-4.501,5.814-6.495h7.252
			c-4.244,5.273-8.883,10.352-14.178,14.724h16.008v4.438h-21.493V213.045z M207.592,226.421c0-0.903-0.781-1.545-1.633-1.545
			h-26.524c-0.979,0-1.762,0.836-1.762,1.735v5.082h29.919V226.421z M207.592,235.808h-29.919v5.208
			c0,0.899,0.783,1.671,1.762,1.671h26.394c1.043,0,1.764-0.771,1.764-1.671V235.808z M189.826,201.149v7.46h4.177
			c2.68-1.995,6.142-4.694,8.69-7.46H189.826z"/>
		<path fill="#413B38" d="M257.305,231.435v15.623h-6.012v-15.623h-27.762v-4.437h7.643V215.81c0-1.544,0.654-3.021,1.699-3.985
			c0.98-0.967,2.289-1.545,3.855-1.545h14.564v-9.773H236.4c-1.699,3.344-4.182,7.588-5.945,9.903h-7.645
			c5.619-5.661,9.148-13.116,11.041-19.419h6.467c-0.457,1.351-1.307,3.601-1.961,4.95h41.42v4.565h-22.473v9.773h20.318v4.565
			h-20.318v12.153h23.191v4.436L257.305,231.435L257.305,231.435z M251.293,214.845h-12.738c-0.65,0-1.305,0.645-1.305,1.288v10.865
			h14.043V214.845z"/>
		<path fill="#413B38" d="M333.934,204.236c-2.939-2.445-6.662-5.915-9.209-8.553c-0.461-0.449-1.504-0.834-2.156-0.834h-16.334
			c-0.719,0-1.959,0.514-2.35,0.964c-2.354,2.443-6.338,6.236-9.082,8.423h-9.605c5.881-3.601,11.238-8.423,14.699-11.894
			c0.457-0.517,1.111-0.901,1.961-1.159c0.65-0.191,1.305-0.321,2.09-0.321h21.232c0.719,0,1.502,0.194,2.221,0.451
			c0.785,0.256,1.502,0.706,1.959,1.158c3.529,3.663,8.232,7.909,13.457,11.766L333.934,204.236L333.934,204.236z M337.789,221.533
			c-0.98,1.028-2.35,1.799-3.986,1.799h-40.242c-1.24,0-2.35-0.579-3.201-1.35c-1.045-0.965-1.697-2.314-1.697-3.601v-6.75
			c0-1.414,0.586-2.766,1.568-3.729c0.98-1.03,2.35-1.672,3.854-1.672h39.391c1.439,0,2.877,0.449,3.92,1.347
			c1.178,0.967,1.896,2.443,1.896,4.31v6.107C339.291,219.217,338.768,220.504,337.789,221.533z M334.326,245.58
			c-1.045,0.899-2.547,1.414-4.311,1.414h-33.121c-1.307,0-2.678-0.576-3.66-1.477c-1.043-1.028-1.76-2.444-1.76-3.987v-10.096
			c0-1.414,0.848-2.83,2.088-3.729c0.914-0.708,2.09-1.158,3.332-1.158h33.707c1.635,0,3.072,0.641,4.117,1.608
			c1.045,1.028,1.633,2.506,1.633,4.244v9C336.352,243.008,335.635,244.552,334.326,245.58z M311.072,210.409H295.85
			c-0.656,0-1.373,0.641-1.373,1.416v5.786c0,0.966,0.588,1.543,1.238,1.543h6.34c-0.783-1.608-2.418-5.078-3.201-7.074h5.68
			c0.654,1.996,2.42,5.402,3.334,7.074h3.205V210.409L311.072,210.409z M330.471,232.141c0-0.706-0.914-1.414-1.699-1.414h-29.594
			c-0.979,0-1.568,0.708-1.568,1.48v2.443h32.861V232.141L330.471,232.141z M330.471,238.7h-32.859v2.445
			c0,0.898,0.848,1.606,1.504,1.606h29.723c0.982,0,1.633-0.772,1.633-1.673V238.7z M301.99,202.887v-4.051h24.562v4.051H301.99z
			 M333.672,211.953c0-0.772-0.719-1.544-1.568-1.544h-15.154v8.745h3.201c1.176-1.865,2.873-5.018,3.594-7.074h5.682
			c-0.521,1.674-2.09,5.082-3.461,7.074h6.141c0.914,0,1.568-0.705,1.568-1.543v-5.658H333.672z"/>
	</g>
	<path fill="none" stroke="#FFFFFF" stroke-miterlimit="10" d="M75.478,268.999"/>
	<g>
		<path fill="#413B38" d="M189.171,315.429c-43.429,0-85.174-18.094-114.531-49.639l1.675-1.51
			c28.927,31.087,70.061,48.915,112.856,48.915c42.792,0,83.924-17.828,112.852-48.915l1.676,1.51
			C274.342,297.336,232.6,315.429,189.171,315.429z"/>
	</g>
	<g>
		<path fill="#413B38" d="M302.025,63.505c-28.928-31.085-70.062-48.913-112.854-48.913c-42.795,0-83.929,17.829-112.855,48.913
			l-1.675-1.511c29.357-31.546,71.102-49.637,114.533-49.637c43.428,0,85.172,18.091,114.528,49.637L302.025,63.505z"/>
	</g>
	<g>
		<path fill="#EC8400" d="M144.16,270.187v29.849c7.6,2.262,15.447,3.961,23.492,5.054v-34.902H144.16L144.16,270.187z"/>
		<path fill="#EC8400" d="M177.13,288.771v17.307c3.878,0.286,7.794,0.442,11.747,0.442c3.948,0,7.866-0.156,11.744-0.442v-17.307
			H177.13z"/>
		<path fill="#EC8400" d="M210.688,278.773v26.03c8.053-1.191,15.9-2.999,23.492-5.37v-20.66H210.688z"/>
	</g>
	<polygon fill="#EC8400" points="115.58,91.432 112.272,87.415 112.272,77.287 101.573,77.287 101.573,87.476 93.209,97.731 
		85.644,97.731 74.122,80.34 74.58,80.34 74.58,69.811 63.881,69.811 63.881,80.34 73.445,80.34 72.97,80.646 84.289,97.731 
		83.639,97.731 83.639,108.263 94.338,108.263 94.338,98.137 102.751,87.817 111.142,87.817 114.119,91.432 113.377,91.432 
		113.377,101.962 124.077,101.962 124.077,91.432 	"/>
</g>
<g>
	<path fill="#EC8400" stroke="#E28011" stroke-width="0.5" stroke-miterlimit="10" d="M140.138,108.119h-5.5
		c3.382-2.811,5.582-6.398,7.497-9.941h4.399C144.863,101.682,143.03,105.185,140.138,108.119z M165.072,96.385
		c-0.571-0.611-1.548-1.752-1.996-2.282l-1.467,2.363h-7.17v9.736c0,0.978-0.326,1.752-0.855,2.323
		c-0.611,0.65-1.588,0.978-2.729,0.978h-3.993l-1.264-2.853h4.034c0.53,0,1.06-0.326,1.06-0.977v-9.207h-12.589
		c-1.222,0-1.915-0.653-2.078-1.427c-0.163-0.814,0.244-1.711,1.222-2.16l10.512-4.93h-7.905c-0.937,0-1.711-0.571-2.037-1.304
		c-0.366-0.856-0.121-1.955,1.101-2.648l9.452-5.175c-3.38,0.082-8.882,0.204-11.856,0.245v-2.771
		c9.412-0.163,23.631-0.652,31.778-2.281v2.974c-3.177,0.448-9.248,1.1-12.141,1.304l-10.797,5.948
		c-0.49,0.286-1.467,0.774-1.956,0.978c0.571,0,1.304-0.042,1.751-0.042h8.516l6.967-3.382h8.148l-21.471,10.186
		c-1.141,0.53-3.015,1.345-4.074,1.752c1.14,0,3.422-0.082,4.604-0.082h14.872c-1.181-1.589-2.607-3.667-3.381-5.215h4.237
		c1.996,2.892,4.236,5.745,7.212,7.945h-5.705V96.385z M164.666,108.119c-2.566-3.016-4.604-6.641-5.99-9.941h4.197
		c1.915,3.545,4.317,7.13,7.456,9.941H164.666z"/>
	<path fill="#EC8400" stroke="#E28011" stroke-width="0.5" stroke-miterlimit="10" d="M185.003,77.317
		c-0.368,1.915-0.815,3.708-1.304,5.542h7.415c0.896,0,1.754,0.448,2.324,1.1c0.489,0.571,0.774,1.345,0.692,2.2
		c-0.772,8.638-6.643,17.356-12.712,23.223h-5.093c3.016-2.729,6.274-6.152,8.638-9.615c-1.875-2.444-3.341-5.133-4.604-7.822
		c-0.285,0.571-0.733,1.426-1.059,1.997h-4.033c3.545-4.93,4.97-10.716,6.233-16.624h-5.664v-2.851h19.843v2.851H185.003
		L185.003,77.317z M189.688,85.792h-6.844c-0.571,1.63-1.183,3.3-1.915,4.889h2.811c0.856,1.997,1.915,3.952,3.219,5.786
		c1.63-3.016,3.177-6.438,3.504-9.901C190.503,86.2,190.218,85.792,189.688,85.792z M197.88,100.662V75.973h3.626v24.689H197.88z
		 M209.694,108.527c-0.57,0.53-1.425,0.856-2.566,0.856h-5.704l-1.426-2.853h6.111c0.53,0,0.855-0.366,0.855-0.977v-31.78h3.667
		v31.902C210.632,106.897,210.347,107.874,209.694,108.527z"/>
	<path fill="#EC8400" stroke="#E28011" stroke-width="0.5" stroke-miterlimit="10" d="M221.395,92.596
		c-2.076-2.811-3.87-5.745-5.337-8.8h4.156c1.589,3.096,3.585,5.989,5.908,8.8H221.395z M220.296,109.504h-4.236
		c2.689-3.83,5.337-10.471,6.641-14.993h3.79C225.185,99.156,223.024,105.227,220.296,109.504z M221.6,82.451
		c-2.077-2.689-3.87-5.54-5.379-8.474h4.156c1.752,2.934,3.666,5.785,5.947,8.474H221.6z M241.195,87.871v5.663h4.85
		c1.223,0,2.118,0.366,2.73,1.02c0.649,0.65,0.977,1.629,0.977,2.688v8.679c0,1.059-0.286,1.915-0.815,2.526
		c-0.612,0.693-1.508,1.059-2.689,1.059h-13.241c-0.854,0-1.913-0.286-2.689-1.019c-0.609-0.571-1.018-1.385-1.018-2.566v-8.963
		c0-1.182,0.529-2.16,1.386-2.729c0.652-0.448,1.507-0.693,2.526-0.693h4.236v-5.663h-10.633v-2.811h10.633v-5.827
		c-2.323,0.204-6.56,0.611-8.761,0.774v-2.934c7.172-0.529,14.22-1.507,20.984-3.259v3.3c-1.916,0.367-6.03,1.141-8.476,1.547v6.397
		h10.267v2.812H241.195L241.195,87.871z M246.005,97.404c0-0.53-0.448-1.019-0.979-1.019h-11.083c-0.447,0-0.938,0.529-0.938,1.059
		v8.108c0,0.571,0.449,1.059,0.897,1.059h11.163c0.488,0,0.937-0.449,0.937-0.979v-8.229H246.005z"/>
	<path fill="#EC8400" stroke="#E28011" stroke-width="0.5" stroke-miterlimit="10" d="M257.093,109.708v-2.893
		c2.038-0.042,5.95-0.366,7.946-0.571v-3.177h-7.416v-2.648h7.416v-2.118h-3.749c-0.979,0-1.832-0.326-2.444-0.896
		c-0.61-0.571-1.019-1.426-1.019-2.485v-6.927c0-1.059,0.571-1.915,1.345-2.445c0.61-0.407,1.345-0.651,2.118-0.651h3.749v-2.078
		h-8.068v-2.486h8.068v-2.2c-1.996,0.245-5.459,0.53-7.212,0.571v-2.608c4.439-0.203,12.793-1.059,17.314-2.078v2.689
		c-1.63,0.366-4.725,0.815-6.599,1.018v2.607h7.741v2.486h-7.741v2.078h3.546c1.101,0,1.913,0.285,2.484,0.733
		c0.732,0.571,1.059,1.467,1.059,2.485v6.966c0,1.06-0.326,1.834-0.979,2.404c-0.651,0.53-1.63,0.816-2.892,0.816h-3.219v2.118
		h7.619v2.648h-7.619v2.73c1.955-0.123,5.908-0.653,7.904-0.978v2.566C271.679,108.119,262.716,109.342,257.093,109.708z
		 M265.039,87.462h-2.934c-0.449,0-0.817,0.449-0.817,0.896v1.833h3.749v-2.729H265.039z M265.039,92.718h-3.749v2.037
		c0,0.53,0.447,0.978,0.856,0.978h2.893V92.718z M272.128,88.44c0-0.448-0.488-0.978-0.979-0.978h-2.608v2.729h3.587V88.44
		L272.128,88.44z M272.128,92.718h-3.587v3.015h2.608c0.569,0,0.979-0.408,0.979-0.978V92.718L272.128,92.718z M291.316,108.567
		c-0.651,0.692-1.589,0.977-2.689,0.977h-3.87l-1.101-2.851h3.748c0.732,0,1.182-0.408,1.182-1.183V84.896
		c0-0.571-0.488-1.101-1.101-1.101h-2.77c0.202,8.107-0.693,18.375-4.686,25.749h-4.114c4.725-7.374,5.498-18.497,5.254-25.749
		h-4.114v-2.811h4.114v-7.131h3.546v7.131h3.585c1.223,0,2.24,0.366,2.933,1.181c0.571,0.611,0.896,1.548,0.896,2.73v21.227
		C292.132,107.224,291.807,107.997,291.316,108.567z"/>
</g>
</svg>
