<?xml version="1.0" encoding="utf-8"?>
<!-- Generator: Adobe Illustrator 16.0.0, SVG Export Plug-In . SVG Version: 6.00 Build 0)  -->
<!DOCTYPE svg PUBLIC "-//W3C//DTD SVG 1.1//EN" "http://www.w3.org/Graphics/SVG/1.1/DTD/svg11.dtd">
<svg version="1.1" id="圖層_1" xmlns="http://www.w3.org/2000/svg" xmlns:xlink="http://www.w3.org/1999/xlink" x="0px" y="0px"
	 width="1020px" height="746px" viewBox="0 0 1020 746" enable-background="new 0 0 1020 746" xml:space="preserve">
<g>
	<polygon fill="#F0B3BC" points="428.623,491.46 361.498,452.704 361.498,375.682 428.623,414.437 	"/>
	<polygon fill="#ED9DA6" points="428.623,491.46 495.746,452.704 495.746,375.682 428.623,414.437 	"/>
	<polygon fill="#ED7775" points="428.412,469.162 380.728,441.632 380.728,406.867 428.412,433.98 	"/>
	<polygon fill="#E35557" points="428.412,469.162 476.096,441.632 476.096,406.551 428.412,433.98 	"/>
	<polygon fill="#E6757A" points="428.261,379.192 428.261,433.908 428.412,433.994 475.799,406.637 	"/>
	<polygon fill="#F19CA0" points="428.339,379.192 428.339,433.908 428.189,433.994 380.804,406.637 	"/>
	<polygon fill="#F7C6CE" points="428.623,414.314 361.498,375.562 428.206,337.05 495.327,375.803 	"/>
</g>
<g>
	<polygon fill="#DDADCF" points="356.563,534.188 289.44,495.434 289.44,418.411 356.563,457.164 	"/>
	<polygon fill="#D49AC2" points="356.563,534.188 423.687,495.434 423.687,418.411 356.563,457.164 	"/>
	<polygon fill="#CA72AB" points="356.353,511.89 308.668,484.355 308.668,449.595 356.353,476.711 	"/>
	<polygon fill="#C5589C" points="356.359,511.89 404.039,484.355 404.035,449.277 356.359,476.711 	"/>
	<polygon fill="#D084B5" points="356.206,421.919 356.206,476.636 356.353,476.723 403.742,449.364 	"/>
	<polygon fill="#D896C0" points="356.279,421.919 356.279,476.636 356.131,476.723 308.745,449.364 	"/>
	<polygon fill="#E9B5D2" points="356.563,457.043 289.44,418.29 356.144,379.777 423.267,418.531 	"/>
</g>
<g>
	<polygon fill="#DDADCF" points="286.346,576.316 219.223,537.564 219.223,460.538 286.346,499.292 	"/>
	<polygon fill="#D49AC2" points="286.346,576.316 353.469,537.564 353.469,460.538 286.346,499.292 	"/>
	<polygon fill="#CA72AB" points="286.136,554.018 238.45,526.485 238.45,491.723 286.136,518.839 	"/>
	<polygon fill="#C5589C" points="286.14,554.018 333.82,526.485 333.816,491.407 286.14,518.839 	"/>
	<polygon fill="#D084B5" points="285.989,464.049 285.989,518.766 286.136,518.851 333.524,491.492 	"/>
	<polygon fill="#D896C0" points="286.062,464.049 286.062,518.766 285.912,518.851 238.526,491.492 	"/>
	<polygon fill="#E9B5D2" points="286.346,499.171 219.223,460.418 285.925,421.905 353.05,460.659 	"/>
</g>
<g>
	<polygon fill="#F0B3BC" points="502.918,533.545 435.794,494.788 435.794,417.768 502.918,456.521 	"/>
	<polygon fill="#ED9DA6" points="502.918,533.545 570.042,494.788 570.042,417.768 502.918,456.521 	"/>
	<polygon fill="#ED7775" points="502.707,511.246 455.023,483.718 455.023,448.951 502.707,476.065 	"/>
	<polygon fill="#E35557" points="502.707,511.246 550.393,483.718 550.393,448.636 502.707,476.065 	"/>
	<polygon fill="#E6757A" points="502.557,421.277 502.557,475.992 502.707,476.079 550.095,448.721 	"/>
	<polygon fill="#F19CA0" points="502.634,421.277 502.634,475.992 502.485,476.079 455.101,448.721 	"/>
	<polygon fill="#F7C6CE" points="502.918,456.399 435.794,417.646 502.5,379.135 569.622,417.889 	"/>
</g>
<g>
	<polygon fill="#C0CB5D" points="650.535,365.756 583.413,327.001 583.413,249.979 650.535,288.732 	"/>
	<polygon fill="#B3C548" points="650.537,365.756 717.661,327.001 717.658,249.979 650.537,288.732 	"/>
	<polygon fill="#8BAD50" points="650.327,343.458 602.641,315.927 602.641,281.164 650.327,308.278 	"/>
	<polygon fill="#70A22D" points="650.327,343.458 698.011,315.927 698.009,280.848 650.327,308.278 	"/>
	<polygon fill="#98B653" points="650.176,253.489 650.176,308.206 650.327,308.292 697.71,280.934 	"/>
	<polygon fill="#A9C063" points="650.251,253.489 650.251,308.206 650.101,308.292 602.714,280.934 	"/>
	<polygon fill="#C2D55C" points="650.535,288.612 583.413,249.858 650.114,211.347 717.238,250.1 	"/>
</g>
<g>
	<polygon fill="#C0CB5D" points="650.535,285.033 583.413,246.278 583.413,169.255 650.535,208.009 	"/>
	<polygon fill="#B3C548" points="650.537,285.033 717.661,246.278 717.658,169.255 650.537,208.009 	"/>
	<polygon fill="#8BAD50" points="650.327,262.734 602.641,235.204 602.641,200.441 650.327,227.555 	"/>
	<polygon fill="#70A22D" points="650.327,262.734 698.011,235.204 698.009,200.125 650.327,227.555 	"/>
	<polygon fill="#98B653" points="650.176,172.766 650.176,227.482 650.327,227.568 697.71,200.21 	"/>
	<polygon fill="#A9C063" points="650.251,172.766 650.251,227.482 650.101,227.568 602.714,200.21 	"/>
	<polygon fill="#C2D55C" points="650.535,207.888 583.413,169.135 650.114,130.624 717.238,169.376 	"/>
</g>
<g>
	<polygon fill="#C0CB5D" points="577.156,407.457 510.032,368.701 510.032,291.679 577.156,330.434 	"/>
	<polygon fill="#B3C548" points="577.158,407.457 644.281,368.701 644.279,291.679 577.158,330.434 	"/>
	<polygon fill="#8BAD50" points="576.947,385.158 529.262,357.627 529.262,322.865 576.947,349.979 	"/>
	<polygon fill="#70A22D" points="576.947,385.158 624.632,357.627 624.63,322.548 576.947,349.979 	"/>
	<polygon fill="#98B653" points="576.797,295.189 576.797,349.906 576.947,349.993 624.33,322.634 	"/>
	<polygon fill="#A9C063" points="576.872,295.189 576.872,349.906 576.722,349.993 529.335,322.634 	"/>
	<polygon fill="#C2D55C" points="577.156,330.312 510.032,291.559 576.735,253.047 643.859,291.8 	"/>
</g>
<g>
	<polygon fill="#C3C2BF" points="723.224,409.339 656.1,370.583 656.1,293.56 723.224,332.314 	"/>
	<polygon fill="#B8B7B3" points="723.224,409.339 790.348,370.583 790.346,293.56 723.224,332.314 	"/>
	<polygon fill="#807F7B" points="723.012,387.039 675.33,359.507 675.33,324.742 723.012,351.859 	"/>
	<polygon fill="#706E6B" points="723.012,387.039 770.698,359.507 770.698,324.428 723.012,351.859 	"/>
	<polygon fill="#858480" points="722.865,297.069 722.865,351.787 723.012,351.874 770.398,324.513 	"/>
	<polygon fill="#A19F9B" points="722.94,297.069 722.94,351.787 722.788,351.874 675.403,324.513 	"/>
	<polygon fill="#D5D4D2" points="723.224,332.191 656.1,293.437 722.804,254.927 789.928,293.682 	"/>
</g>
<g>
	<polygon fill="#C3C2BF" points="649.078,451.024 581.952,412.269 581.952,335.245 649.078,374 	"/>
	<polygon fill="#B8B7B3" points="649.078,451.024 716.201,412.269 716.197,335.245 649.078,374 	"/>
	<polygon fill="#807F7B" points="648.867,428.727 601.182,401.194 601.182,366.429 648.867,393.545 	"/>
	<polygon fill="#706E6B" points="648.867,428.727 696.552,401.194 696.552,366.114 648.867,393.545 	"/>
	<polygon fill="#858480" points="648.719,338.754 648.719,393.474 648.867,393.559 696.252,366.198 	"/>
	<polygon fill="#A19F9B" points="648.792,338.754 648.792,393.474 648.64,393.559 601.255,366.198 	"/>
	<polygon fill="#E6E5E4" points="649.078,373.877 581.952,335.124 648.659,296.612 715.779,335.367 	"/>
</g>
<g>
	<polygon fill="#99D3C9" points="794.874,451.084 727.754,412.328 727.754,335.303 794.874,374.059 	"/>
	<polygon fill="#84CBC4" points="794.874,451.084 862,412.328 862,335.303 794.874,374.059 	"/>
	<polygon fill="#62B1A5" points="794.664,428.784 746.981,401.253 746.981,366.488 794.664,393.604 	"/>
	<polygon fill="#4AA99D" points="794.666,428.784 842.351,401.253 842.351,366.173 794.666,393.604 	"/>
	<polygon fill="#65B5A8" points="794.518,338.813 794.518,393.533 794.664,393.618 842.055,366.258 	"/>
	<polygon fill="#7ABCAF" points="794.591,338.813 794.591,393.533 794.444,393.618 747.057,366.258 	"/>
	<polygon fill="#A9D9D4" points="794.874,373.937 727.754,335.182 794.458,296.671 861.582,335.425 	"/>
</g>
<g>
	<polygon fill="#99D3C9" points="866.352,493.212 799.229,454.456 799.229,377.434 866.352,416.187 	"/>
	<polygon fill="#84CBC4" points="866.352,493.212 933.476,454.456 933.476,377.434 866.352,416.187 	"/>
	<polygon fill="#62B1A5" points="866.14,470.911 818.455,443.382 818.455,408.618 866.14,435.732 	"/>
	<polygon fill="#4AA99D" points="866.14,470.911 913.826,443.382 913.826,408.302 866.14,435.732 	"/>
	<polygon fill="#65B5A8" points="865.991,380.943 865.991,435.659 866.14,435.747 913.526,408.388 	"/>
	<polygon fill="#7ABCAF" points="866.068,380.943 866.068,435.659 865.918,435.747 818.533,408.388 	"/>
	<polygon fill="#A9D9D4" points="866.352,416.064 799.229,377.311 865.932,338.799 933.058,377.554 	"/>
</g>
<g>
	<path fill="#51BBC0" d="M734.11,96.892c-2.135-5.499-7.477-9.398-13.729-9.398c-6.255,0-11.597,3.9-13.729,9.399
		c-6.772,1.327-11.882,7.291-11.882,14.45c0,8.135,6.592,14.729,14.727,14.729c4.314,0,8.192-1.854,10.885-4.808
		c2.696,2.954,6.574,4.808,10.889,4.808c8.133,0,14.727-6.594,14.727-14.729C745.996,104.182,740.881,98.216,734.11,96.892z"/>
	<path fill="#83CCCF" d="M720.381,87.493L720.381,87.493c-6.255,0-11.597,3.9-13.729,9.399c-6.772,1.327-11.882,7.291-11.882,14.45
		c0,8.135,6.592,14.729,14.727,14.729c4.314,0,8.192-1.854,10.885-4.808V87.493z"/>
	<path fill="#83CCCF" d="M720.718,107.934l-16.971,16.972c1.767,0.751,3.709,1.166,5.749,1.166c4.314,0,8.192-1.854,10.885-4.808
		c2.696,2.954,6.574,4.808,10.889,4.808c2.221,0,4.324-0.494,6.214-1.375L720.718,107.934z"/>
	<path fill="#71C5C5" d="M703.747,124.906c1.767,0.751,3.709,1.166,5.749,1.166c4.314,0,8.192-1.854,10.885-4.808V108.27
		L703.747,124.906z"/>
	
		<rect x="717.304" y="132.719" transform="matrix(0.9498 -0.3129 0.3129 0.9498 -6.1343 231.8311)" fill="#51BBC0" width="3.84" height="4.617"/>
	
		<rect x="720.054" y="141.075" transform="matrix(0.9499 -0.3126 0.3126 0.9499 -8.6429 232.8519)" fill="#51BBC0" width="3.846" height="4.619"/>
	
		<rect x="722.798" y="149.398" transform="matrix(0.9499 -0.3126 0.3126 0.9499 -11.107 234.1239)" fill="#51BBC0" width="3.843" height="4.617"/>
	
		<rect x="726.646" y="132.421" transform="matrix(0.9499 -0.3126 0.3126 0.9499 -5.6078 234.476)" fill="#51BBC0" width="3.843" height="4.618"/>
	
		<rect x="729.398" y="140.778" transform="matrix(0.9499 -0.3126 0.3126 0.9499 -8.0743 235.8161)" fill="#51BBC0" width="3.845" height="4.617"/>
	
		<rect x="732.138" y="149.1" transform="matrix(0.9499 -0.3126 0.3126 0.9499 -10.5456 237.0311)" fill="#51BBC0" width="3.846" height="4.617"/>
	
		<rect x="735.767" y="132.194" transform="matrix(0.9498 -0.3129 0.3129 0.9498 -5.043 237.5845)" fill="#51BBC0" width="3.843" height="4.619"/>
	
		<rect x="738.52" y="140.553" transform="matrix(0.9497 -0.3132 0.3132 0.9497 -7.4935 239.0722)" fill="#51BBC0" width="3.839" height="4.618"/>
	
		<rect x="741.26" y="148.874" transform="matrix(0.9497 -0.313 0.313 0.9497 -9.9759 240.2293)" fill="#51BBC0" width="3.84" height="4.619"/>
</g>
<g>
	<polygon fill="#C3C2BF" points="722.197,492.115 655.071,453.358 655.071,376.335 722.197,415.09 	"/>
	<polygon fill="#B8B7B3" points="722.197,492.115 789.318,453.358 789.316,376.335 722.197,415.09 	"/>
	<polygon fill="#807F7B" points="721.986,469.814 674.301,442.282 674.301,407.519 721.986,434.636 	"/>
	<polygon fill="#706E6B" points="721.986,469.814 769.671,442.282 769.671,407.205 721.986,434.636 	"/>
	<polygon fill="#858480" points="721.836,379.846 721.836,434.562 721.986,434.649 769.369,407.289 	"/>
	<polygon fill="#A19F9B" points="721.913,379.846 721.913,434.562 721.759,434.649 674.374,407.289 	"/>
	<polygon fill="#E6E5E4" points="722.197,414.968 655.071,376.214 721.778,337.702 788.9,376.457 	"/>
</g>
<path fill="none" stroke="#FFFFFF" stroke-miterlimit="10" d="M352.372,366.616"/>
<g>
	<polygon fill="#ECC062" points="573.488,658.95 506.363,620.196 506.363,543.173 573.488,581.926 	"/>
	<polygon fill="#EABA49" points="573.488,658.95 640.607,620.196 640.607,543.173 573.488,581.926 	"/>
	<polygon fill="#F2AF05" points="573.273,636.651 525.592,609.119 525.592,574.358 573.273,601.473 	"/>
	<polygon fill="#DF9300" points="573.273,636.651 620.96,609.119 620.96,574.041 573.273,601.473 	"/>
	<polygon fill="#EBA738" points="573.127,546.683 573.127,601.399 573.273,601.486 620.66,574.128 	"/>
	<polygon fill="#F2B559" points="573.2,546.683 573.2,601.399 573.05,601.486 525.667,574.128 	"/>
	<polygon fill="#F8CB6A" points="573.488,581.805 506.363,543.052 573.065,504.542 640.189,543.293 	"/>
</g>
<g>
	<polygon fill="#ECC062" points="500.901,701.062 433.778,662.308 433.778,585.286 500.901,624.04 	"/>
	<polygon fill="#EABA49" points="500.901,701.062 568.025,662.308 568.023,585.286 500.901,624.04 	"/>
	<polygon fill="#F2AF05" points="500.69,678.764 453.008,651.234 453.008,616.47 500.69,643.585 	"/>
	<polygon fill="#DF9300" points="500.69,678.764 548.376,651.234 548.376,616.154 500.69,643.585 	"/>
	<polygon fill="#EBA738" points="500.543,588.795 500.543,643.512 500.69,643.599 548.078,616.24 	"/>
	<polygon fill="#F2B559" points="500.619,588.795 500.619,643.512 500.467,643.599 453.081,616.24 	"/>
	<polygon fill="#F8CB6A" points="500.901,623.919 433.778,585.165 500.484,546.653 567.609,585.405 	"/>
</g>
<g>
	<polygon fill="#DDADCF" points="938.599,535.613 871.477,496.86 871.477,419.836 938.599,458.59 	"/>
	<polygon fill="#D49AC2" points="938.599,535.613 1005.723,496.86 1005.723,419.836 938.599,458.59 	"/>
	<polygon fill="#CA72AB" points="938.389,513.316 890.704,485.784 890.704,451.02 938.389,478.137 	"/>
	<polygon fill="#C5589C" points="938.395,513.316 986.075,485.784 986.07,450.703 938.395,478.137 	"/>
	<polygon fill="#D084B5" points="938.242,423.348 938.242,478.063 938.389,478.148 985.777,450.79 	"/>
	<polygon fill="#D896C0" points="938.315,423.348 938.315,478.063 938.167,478.148 890.781,450.79 	"/>
	<polygon fill="#E9B5D2" points="938.599,458.469 871.477,419.715 938.179,381.204 1005.305,419.957 	"/>
</g>
<g>
	<polygon fill="#C0CB5D" points="431.003,575.234 363.883,536.481 363.883,459.459 431.003,498.21 	"/>
	<polygon fill="#B3C548" points="431.005,575.234 498.127,536.481 498.126,459.459 431.005,498.21 	"/>
	<polygon fill="#8BAD50" points="430.792,552.936 383.109,525.407 383.109,490.644 430.792,517.757 	"/>
	<polygon fill="#70A22D" points="430.792,552.936 478.479,525.407 478.478,490.326 430.792,517.757 	"/>
	<polygon fill="#98B653" points="430.644,462.968 430.644,517.685 430.792,517.771 478.18,490.411 	"/>
	<polygon fill="#A9C063" points="430.721,462.968 430.721,517.685 430.571,517.771 383.185,490.411 	"/>
	<polygon fill="#C2D55C" points="431.003,498.09 363.883,459.336 430.583,420.823 497.708,459.578 	"/>
</g>
<g>
	<polygon fill="#C0CB5D" points="358.42,617.349 291.296,578.593 291.296,501.571 358.42,540.324 	"/>
	<polygon fill="#B3C548" points="358.421,617.349 425.544,578.593 425.543,501.569 358.421,540.324 	"/>
	<polygon fill="#8BAD50" points="358.211,595.049 310.526,567.52 310.526,532.755 358.211,559.869 	"/>
	<polygon fill="#70A22D" points="358.211,595.049 405.896,567.52 405.894,532.438 358.211,559.869 	"/>
	<polygon fill="#98B653" points="358.061,505.08 358.061,559.797 358.211,559.883 405.596,532.524 	"/>
	<polygon fill="#A9C063" points="358.136,505.08 358.136,559.797 357.986,559.883 310.599,532.524 	"/>
	<polygon fill="#C2D55C" points="358.42,540.203 291.296,501.45 358,462.938 425.125,501.692 	"/>
</g>
<g>
	<polygon fill="#C3C2BF" points="648.461,533.487 581.337,494.731 581.337,417.708 648.461,456.461 	"/>
	<polygon fill="#B8B7B3" points="648.461,533.487 715.587,494.731 715.587,417.708 648.461,456.461 	"/>
	<polygon fill="#807F7B" points="648.253,511.187 600.568,483.653 600.568,448.892 648.253,476.008 	"/>
	<polygon fill="#706E6B" points="648.253,511.187 695.938,483.653 695.938,448.577 648.253,476.008 	"/>
	<polygon fill="#858480" points="648.103,421.216 648.103,475.936 648.253,476.02 695.642,448.661 	"/>
	<polygon fill="#A19F9B" points="648.178,421.216 648.178,475.936 648.031,476.02 600.645,448.661 	"/>
	<polygon fill="#E6E5E4" points="648.461,456.34 581.337,417.587 648.043,379.074 715.164,417.829 	"/>
</g>
<g>
	<polygon fill="#C3C2BF" points="575.203,575.182 508.08,536.429 508.08,459.404 575.203,498.156 	"/>
	<polygon fill="#B8B7B3" points="575.203,575.182 642.327,536.429 642.327,459.404 575.203,498.156 	"/>
	<polygon fill="#807F7B" points="574.995,552.881 527.311,525.35 527.311,490.586 574.995,517.702 	"/>
	<polygon fill="#706E6B" points="574.995,552.881 622.679,525.35 622.679,490.271 574.995,517.702 	"/>
	<polygon fill="#858480" points="574.846,462.911 574.846,517.632 574.995,517.717 622.384,490.356 	"/>
	<polygon fill="#A19F9B" points="574.922,462.911 574.922,517.632 574.771,517.717 527.386,490.356 	"/>
	<polygon fill="#E6E5E4" points="575.203,498.035 508.08,459.281 574.787,420.769 641.908,459.523 	"/>
</g>
<g>
	<polygon fill="#C3C2BF" points="645.657,617.662 578.534,578.905 578.534,501.881 645.657,540.636 	"/>
	<polygon fill="#B8B7B3" points="645.657,617.662 712.781,578.905 712.781,501.881 645.657,540.636 	"/>
	<polygon fill="#807F7B" points="645.449,595.361 597.766,567.829 597.766,533.065 645.449,560.183 	"/>
	<polygon fill="#706E6B" points="645.449,595.361 693.134,567.829 693.134,532.751 645.449,560.183 	"/>
	<polygon fill="#858480" points="645.299,505.391 645.299,560.109 645.449,560.193 692.838,532.833 	"/>
	<polygon fill="#A19F9B" points="645.374,505.391 645.374,560.109 645.226,560.193 597.841,532.833 	"/>
	<polygon fill="#E6E5E4" points="645.657,540.512 578.534,501.758 645.239,463.249 712.363,502.002 	"/>
</g>
<g>
	<polygon fill="#C0CB5D" points="503.588,617.378 436.465,578.623 436.465,501.601 503.588,540.354 	"/>
	<polygon fill="#B3C548" points="503.588,617.378 570.712,578.623 570.712,501.601 503.588,540.354 	"/>
	<polygon fill="#8BAD50" points="503.379,595.077 455.695,567.549 455.695,532.784 503.379,559.898 	"/>
	<polygon fill="#70A22D" points="503.379,595.077 551.066,567.549 551.061,532.47 503.379,559.898 	"/>
	<polygon fill="#98B653" points="503.229,505.112 503.229,559.828 503.379,559.913 550.766,532.555 	"/>
	<polygon fill="#A9C063" points="503.301,505.112 503.301,559.828 503.157,559.913 455.768,532.555 	"/>
	<polygon fill="#C2D55C" points="503.588,540.233 436.465,501.479 503.17,462.968 570.294,501.722 	"/>
</g>
<g>
	<polygon fill="#F0B3BC" points="720.591,657.863 653.467,619.108 653.467,542.084 720.591,580.839 	"/>
	<polygon fill="#ED9DA6" points="720.591,657.863 787.717,619.108 787.717,542.084 720.591,580.839 	"/>
	<polygon fill="#ED7775" points="720.381,635.563 672.699,608.034 672.699,573.271 720.381,600.384 	"/>
	<polygon fill="#E35557" points="720.381,635.563 768.067,608.034 768.065,572.955 720.381,600.384 	"/>
	<polygon fill="#E6757A" points="720.234,545.595 720.234,600.312 720.381,600.396 767.77,573.04 	"/>
	<polygon fill="#F19CA0" points="720.31,545.595 720.31,600.312 720.159,600.396 672.77,573.04 	"/>
	<polygon fill="#F7C6CE" points="720.591,580.717 653.467,541.965 720.175,503.45 787.299,542.205 	"/>
</g>
<g>
	<polygon fill="#ECC062" points="575.563,659.581 508.441,620.826 508.441,543.804 575.563,582.556 	"/>
	<polygon fill="#EABA49" points="575.563,659.581 642.686,620.826 642.686,543.804 575.563,582.556 	"/>
	<polygon fill="#F2AF05" points="575.354,637.284 527.668,609.752 527.668,574.988 575.354,602.104 	"/>
	<polygon fill="#DF9300" points="575.354,637.284 623.038,609.75 623.038,574.671 575.354,602.104 	"/>
	<polygon fill="#EBA738" points="575.205,547.313 575.205,602.031 575.354,602.116 622.74,574.758 	"/>
	<polygon fill="#F2B559" points="575.276,547.313 575.276,602.031 575.128,602.116 527.745,574.758 	"/>
	<polygon fill="#F8CB6A" points="575.563,582.435 508.441,543.681 575.144,505.171 642.266,543.923 	"/>
</g>
<g>
	<path fill="#B6B5B1" d="M519.632,472.02c-41.941,9.553-55.514,42.884-56.22,44.654l17.862,9.878
		c-2.223,5.59,25.494-37.861,56.993-39.415c2.242-0.111,4.419-0.295,6.535-0.531L519.632,472.02z"/>
	<g>
		<g>
			<path fill="none" stroke="#F9E540" stroke-width="2" stroke-miterlimit="10" d="M529.295,477.619c0,0-1.437,0.303-3.868,1.005"/>
			<path fill="none" stroke="#F9E540" stroke-width="2" stroke-miterlimit="10" stroke-dasharray="7.2764,7.2764" d="
				M518.518,480.899c-12.163,4.48-31.663,14.149-42.5,32.555"/>
			<path fill="none" stroke="#F9E540" stroke-width="2" stroke-miterlimit="10" d="M474.27,516.651
				c-0.595,1.178-1.155,2.388-1.677,3.632"/>
		</g>
	</g>
	<g>
		<polygon fill="#77C2B3" points="535.784,501.358 528.153,496.818 543.602,488.146 551.231,492.685 		"/>
		<polygon fill="#99D3C9" points="535.85,499.627 528.153,495.197 528.125,502.05 535.82,506.48 		"/>
		<polygon fill="#4AA99D" points="551.301,492.645 551.231,498.927 535.852,507.86 535.855,501.315 		"/>
		<polygon fill="#77C2B3" points="513.672,511.34 500.252,503.357 527.414,488.104 540.836,496.089 		"/>
		<polygon fill="#99D3C9" points="513.785,511.094 500.252,503.303 500.2,515.355 513.733,523.146 		"/>
		<polygon fill="#77C2B3" points="495.04,523.194 487.408,518.656 502.854,509.982 510.486,514.522 		"/>
		<polygon fill="#99D3C9" points="495.103,523.053 487.408,518.624 487.377,525.48 495.074,529.907 		"/>
		<polygon fill="#4AA99D" points="510.556,514.481 510.486,520.764 495.104,529.698 495.109,523.152 		"/>
		<polygon fill="#99D3C9" points="498.991,524.173 496.548,525.53 496.614,523.504 499.056,522.145 		"/>
		<polygon fill="#99D3C9" points="502.154,522.416 499.709,523.771 499.777,521.745 502.221,520.39 		"/>
		<polygon fill="#99D3C9" points="505.288,520.676 502.844,522.032 502.908,520.005 505.353,518.647 		"/>
		<polygon fill="#99D3C9" points="509.068,518.354 506.626,519.713 506.693,517.687 509.135,516.329 		"/>
		<polygon fill="#99D3C9" points="542.889,500.839 540.445,502.196 540.509,500.168 542.953,498.813 		"/>
		<polygon fill="#99D3C9" points="546.024,499.101 543.58,500.456 543.644,498.43 546.088,497.072 		"/>
		<polygon fill="#99D3C9" points="549.804,496.778 547.361,498.135 547.427,496.109 549.869,494.752 		"/>
		<polygon fill="#4AA99D" points="540.957,496.014 540.836,507.064 513.791,522.774 513.795,511.265 		"/>
		<polygon fill="#99D3C9" points="520.736,513.767 516.123,516.329 516.25,512.501 520.863,509.937 		"/>
		<polygon fill="#99D3C9" points="526.71,510.45 522.097,513.01 522.221,509.182 526.837,506.62 		"/>
		<polygon fill="#99D3C9" points="532.626,507.16 528.013,509.725 528.138,505.897 532.753,503.332 		"/>
		<polygon fill="#99D3C9" points="538.499,503.9 533.885,506.465 534.01,502.637 538.625,500.074 		"/>
	</g>
</g>
<g>
	<polygon fill="#C0CB5D" points="431.003,659.49 363.883,620.736 363.883,543.713 431.003,582.469 	"/>
	<polygon fill="#B3C548" points="431.003,659.49 498.127,620.736 498.126,543.713 431.003,582.469 	"/>
	<polygon fill="#8BAD50" points="430.792,637.192 383.109,609.661 383.109,574.899 430.792,602.014 	"/>
	<polygon fill="#70A22D" points="430.793,637.192 478.479,609.661 478.478,574.582 430.793,602.014 	"/>
	<polygon fill="#98B653" points="430.644,547.224 430.644,601.94 430.792,602.024 478.183,574.666 	"/>
	<polygon fill="#A9C063" points="430.72,547.224 430.72,601.94 430.572,602.024 383.185,574.666 	"/>
	<polygon fill="#C2D55C" points="431.003,582.347 363.883,543.594 430.583,505.08 497.708,543.834 	"/>
</g>
<g>
	<polygon fill="#ECC062" points="502.98,701.693 435.854,662.938 435.854,585.916 502.98,624.667 	"/>
	<polygon fill="#EABA49" points="502.98,701.693 570.104,662.938 570.102,585.916 502.98,624.667 	"/>
	<polygon fill="#F2AF05" points="502.769,679.396 455.085,651.864 455.085,617.1 502.769,644.214 	"/>
	<polygon fill="#DF9300" points="502.769,679.396 550.456,651.864 550.456,616.785 502.769,644.214 	"/>
	<polygon fill="#EBA738" points="502.621,589.425 502.621,644.144 502.769,644.228 550.154,616.872 	"/>
	<polygon fill="#F2B559" points="502.697,589.425 502.697,644.144 502.544,644.228 455.159,616.872 	"/>
	<polygon fill="#F8CB6A" points="502.98,624.548 435.854,585.795 502.561,547.283 569.686,586.037 	"/>
</g>
<g>
	<polygon fill="#99D3C9" points="793.635,535.49 726.518,496.734 726.518,419.71 793.635,458.465 	"/>
	<polygon fill="#84CBC4" points="793.635,535.49 860.763,496.734 860.761,419.71 793.635,458.465 	"/>
	<polygon fill="#62B1A5" points="793.427,513.192 745.742,485.66 745.742,450.896 793.427,478.012 	"/>
	<polygon fill="#4AA99D" points="793.429,513.192 841.113,485.66 841.113,450.582 793.429,478.012 	"/>
	<polygon fill="#65B5A8" points="793.278,423.222 793.278,477.941 793.427,478.025 840.817,450.667 	"/>
	<polygon fill="#7ABCAF" points="793.354,423.222 793.354,477.941 793.205,478.025 745.82,450.667 	"/>
	<polygon fill="#A9D9D4" points="793.635,458.346 726.518,419.589 793.219,381.08 860.343,419.834 	"/>
</g>
<g>
	<polygon fill="#99D3C9" points="865.814,579.249 798.694,540.494 798.694,463.47 865.814,502.224 	"/>
	<polygon fill="#84CBC4" points="865.814,579.249 932.938,540.494 932.938,463.47 865.814,502.224 	"/>
	<polygon fill="#62B1A5" points="865.604,556.949 817.92,529.42 817.92,494.656 865.604,521.771 	"/>
	<polygon fill="#4AA99D" points="865.604,556.949 913.293,529.42 913.293,494.339 865.604,521.771 	"/>
	<polygon fill="#65B5A8" points="865.454,466.979 865.454,521.697 865.604,521.784 912.995,494.424 	"/>
	<polygon fill="#7ABCAF" points="865.529,466.979 865.529,521.697 865.385,521.784 817.996,494.424 	"/>
	<polygon fill="#A9D9D4" points="865.814,502.103 798.694,463.349 865.396,424.836 932.52,463.591 	"/>
</g>
<g>
	<path fill="#84CBC4" d="M872.334,549.426c0.037-0.017,3.971-1.427,8.38-4.077c1.899-1.144,3.888-2.517,5.714-4.141
		c1.824-1.631,3.5-3.498,4.759-5.809c0.66-1.211,1.174-2.476,1.594-3.726c0.733-2.196,1.191-4.364,1.669-6.438
		c0.357-1.559,0.72-3.066,1.186-4.515c0.704-2.174,1.603-4.209,3.133-6.275c1.529-2.059,3.731-4.149,7.007-6.119
		c0.091-0.055,0.183-0.109,0.273-0.164l-0.218-3.493c-0.098,0.06-0.194,0.119-0.294,0.177c-3.559,2.139-6.126,4.528-8.039,7.138
		c-1.436,1.95-2.486,4.024-3.266,6.066c-1.174,3.067-1.763,6.018-2.369,8.621c-0.302,1.308-0.603,2.528-0.96,3.65
		c-0.358,1.125-0.765,2.146-1.29,3.111c-0.829,1.543-2.207,3.16-3.835,4.604c-1.629,1.451-3.497,2.747-5.303,3.833
		c-2.096,1.262-4.11,2.243-5.592,2.902c-0.741,0.333-1.352,0.582-1.772,0.75c-0.212,0.083-0.376,0.146-0.485,0.188
		c-0.056,0.02-0.096,0.036-0.125,0.046l-0.033,0.016L872.334,549.426z"/>
	<path fill="#84CBC4" d="M871.384,529.929l0.038-0.032c0.396-0.335,3.921-3.271,7.856-5.636c1.805-1.085,3.694-2.05,5.385-2.593
		c1.689-0.553,3.171-0.655,4.138-0.194c0.54,0.256,1.002,0.655,1.432,1.178c0.756,0.91,1.404,2.22,2.136,3.625
		c0.547,1.052,1.14,2.151,1.892,3.121c1.122,1.458,2.616,2.589,4.706,2.739c2.092,0.158,4.741-0.618,8.242-2.726
		c0.097-0.058,0.198-0.119,0.297-0.179l-0.257-3.465c-0.094,0.055-0.185,0.109-0.274,0.164c-3.326,2.003-5.65,2.608-7.337,2.452
		c-1.266-0.118-2.195-0.647-2.979-1.416c-1.172-1.154-2.01-2.921-2.946-4.711c-0.47-0.893-0.964-1.784-1.562-2.564
		c-0.597-0.78-1.296-1.446-2.157-1.848c-1.465-0.674-3.253-0.457-5.145,0.147c-1.896,0.614-3.907,1.649-5.807,2.79
		c-4.41,2.654-8.221,5.899-8.254,5.928L871.384,529.929L871.384,529.929z"/>
	<polyline fill="#84CBC4" points="881.654,542.971 880.221,521.884 877.891,523.286 879.328,544.372 	"/>
	<polyline fill="#84CBC4" points="886.393,539.665 885.015,519.455 882.688,520.855 884.064,541.065 	"/>
	<polyline fill="#84CBC4" points="900.153,529.525 899.021,512.894 896.692,514.294 897.826,530.926 	"/>
	<polyline fill="#84CBC4" points="904.204,528.952 902.828,508.741 900.501,510.142 901.877,530.353 	"/>
</g>
<g>
	<path fill="#84CBC4" d="M775.194,484.958l-1.29-0.718c0.16-1.194,0.081-2.453-0.217-3.752c-0.436-1.938-1.374-3.972-2.696-5.794
		c-1.326-1.823-3.029-3.425-4.972-4.507c-2.582-1.446-5.044-1.667-6.898-0.911c-0.93,0.371-1.707,0.985-2.283,1.795
		c-0.579,0.808-0.97,1.804-1.129,2.996c-0.16,1.192-0.081,2.452,0.217,3.748c0.436,1.94,1.371,3.974,2.698,5.797
		c1.324,1.82,3.029,3.422,4.97,4.506c2.582,1.446,5.044,1.665,6.9,0.912c0.928-0.374,1.703-0.985,2.281-1.793
		c0.579-0.81,0.97-1.809,1.129-2.997L775.194,484.958l1.291,0.723c-0.236,1.729-0.807,3.189-1.622,4.323
		c-1.223,1.704-2.981,2.689-5.008,2.93c-2.028,0.24-4.336-0.265-6.699-1.588c-3.152-1.764-5.854-4.665-7.692-8.021
		c-0.918-1.68-1.62-3.478-2.032-5.3c-0.413-1.821-0.537-3.669-0.304-5.4c0.234-1.729,0.807-3.189,1.622-4.323
		c1.225-1.706,2.981-2.689,5.008-2.932c2.028-0.237,4.336,0.267,6.701,1.588c3.15,1.764,5.854,4.667,7.69,8.023
		c0.918,1.677,1.618,3.475,2.03,5.3c0.415,1.82,0.537,3.668,0.306,5.399L775.194,484.958z"/>
	<path fill="#84CBC4" d="M782.376,492.389l0.693,1.688c-1.184,0.566-2.645,0.512-4.138-0.326c-1.619-0.9-2.981-2.55-3.862-4.472
		c-0.878-1.916-1.29-4.134-1.017-6.154c0.275-2.025,1.186-3.502,2.427-4.234c1.239-0.736,2.825-0.736,4.442,0.167
		c1.493,0.834,2.763,2.307,3.637,4.023l0.373,0.726l-1.362,10.031l-0.5,0.239L782.376,492.389l-1.289-0.721l1.162-8.578l1.292,0.721
		l-1.021,0.732c-0.498-0.977-1.199-1.786-2.036-2.254c-0.91-0.509-1.79-0.509-2.49-0.094c-0.702,0.413-1.203,1.229-1.358,2.37
		c-0.152,1.141,0.075,2.364,0.571,3.449s1.247,1.994,2.163,2.508c0.835,0.467,1.64,0.497,2.315,0.178L782.376,492.389l-1.289-0.721
		L782.376,492.389z"/>
	<polyline fill="#84CBC4" points="758.322,486.64 761.153,465.731 763.739,467.175 760.902,488.081 	"/>
</g>
<g>
	<polygon fill="#C0CB5D" points="394.097,612.964 386.917,608.567 386.917,584.326 394.097,588.723 	"/>
	<polygon fill="#C0CB5D" points="404.564,619.368 397.383,614.975 397.383,600.928 404.564,605.321 	"/>
	<polygon fill="#C0CB5D" points="414.62,625.521 407.437,621.126 407.437,612.064 414.62,616.459 	"/>
	<polygon fill="#C0CB5D" points="424.873,631.797 417.69,627.403 417.69,607.692 424.873,612.088 	"/>
</g>
<g>
	<path fill="#C0CB5D" d="M334.092,551.545l1.219,5.421c3.979,2.203,7.214,7.233,7.214,11.211s-3.235,5.422-7.214,3.217
		c-3.875-2.149-7.039-6.976-7.199-10.9l-4.886-4.436c-1.39,8.322,5.594,16.48,12.084,20.078c6.593,3.655,11.958,1.264,11.958-5.329
		C347.269,564.213,342.59,555.327,334.092,551.545z"/>
	<path fill="#C0CB5D" d="M321.469,551.407l13.849,13.395l-4.78-16.844C326.386,547.053,323.104,548.364,321.469,551.407z"/>
</g>
<g>
	<polygon fill="#EBA738" points="513.949,669.072 523.31,645.9 529.853,656.208 538.879,633.569 541.688,637.382 543.973,634.729 
		538.59,627.423 529.703,649.71 523.181,639.435 511.514,668.312 	"/>
</g>
<path fill="#B6B5B1" d="M557.602,488.841c41.938-9.555,55.516-42.886,56.221-44.656l-17.863-9.875
	c2.225-5.59-25.492,37.861-56.994,39.415c-2.242,0.109-4.418,0.292-6.529,0.531L557.602,488.841z"/>
<g>
	<g>
		<path fill="none" stroke="#F9E540" stroke-width="2" stroke-miterlimit="10" d="M549.267,483.24c0,0,1.435-0.312,3.86-1.037"/>
		<path fill="none" stroke="#F9E540" stroke-width="2" stroke-miterlimit="10" stroke-dasharray="7.1514,7.1514" d="
			M559.893,479.896c11.832-4.512,30.693-14.188,41.368-32.536"/>
		<path fill="none" stroke="#F9E540" stroke-width="2" stroke-miterlimit="10" d="M602.967,444.21
			c0.592-1.178,1.15-2.389,1.672-3.634"/>
	</g>
</g>
<path fill="#B6B5B1" d="M663.703,388.136c-41.94,9.553-55.514,42.884-56.221,44.654l17.863,9.876
	c-2.225,5.589,25.492-37.862,56.994-39.415c2.242-0.109,4.416-0.293,6.531-0.532L663.703,388.136z"/>
<g>
	<g>
		<path fill="none" stroke="#F9E540" stroke-width="2" stroke-miterlimit="10" d="M671.87,393.733c0,0-1.435,0.313-3.858,1.042"/>
		<path fill="none" stroke="#F9E540" stroke-width="2" stroke-miterlimit="10" stroke-dasharray="7.1359,7.1359" d="
			M661.264,397.087c-11.791,4.517-30.572,14.195-41.227,32.535"/>
		<path fill="none" stroke="#F9E540" stroke-width="2" stroke-miterlimit="10" d="M618.336,432.766
			c-0.592,1.178-1.15,2.389-1.672,3.634"/>
	</g>
</g>
<path fill="#B6B5B1" d="M700.676,401.45c41.94-9.553,55.514-42.885,56.219-44.654l-17.863-9.877
	c2.225-5.59-25.49,37.863-56.992,39.417c-2.244,0.109-4.416,0.291-6.535,0.531L700.676,401.45z"/>
<g>
	<g>
		<path fill="none" stroke="#F9E540" stroke-width="2" stroke-miterlimit="10" d="M692.045,394.611c0,0,1.445-0.269,3.889-0.925"/>
		<path fill="none" stroke="#F9E540" stroke-width="2" stroke-miterlimit="10" stroke-dasharray="7.1122,7.1122" d="
			M702.723,391.578c11.911-4.181,30.906-13.369,41.61-31.632"/>
		<path fill="none" stroke="#F9E540" stroke-width="2" stroke-miterlimit="10" d="M746.037,356.819
			c0.594-1.176,1.153-2.386,1.676-3.632"/>
	</g>
</g>
<g>
	<path fill="#99D3C9" d="M520.015,557.577c-41.94,9.555-55.515,42.885-56.221,44.654l15.22,8.786
		c0.153-0.386,14.764-36.114,59.638-38.325c2.242-0.108,4.415-0.293,6.532-0.531L520.015,557.577z"/>
	<path fill="#99D3C9" d="M594.395,516.471c-0.501,1.451-12.528,36.521-56.607,38.692c-2.796,0.137-5.465,0.398-8.067,0.723
		l25.173,14.675c11.208-2.47,20.355-6.737,27.77-11.745c21.164-14.288,27.07-31.976,27.49-33.247L594.395,516.471z"/>
</g>
<g>
	<polygon fill="#FFFFFF" points="575.694,530.229 569.207,544.28 569.207,544.28 583.506,535.68 583.506,535.68 	"/>
	<polygon fill="#EDEDEC" points="575.694,530.231 576.354,539.982 583.506,535.68 583.506,535.68 	"/>
	<polygon fill="#FFFFFF" points="565.179,553.717 587.297,524.41 588.342,539.786 	"/>
	<polygon fill="#E1E0DF" points="588.342,539.786 564.134,538.343 565.179,553.717 	"/>
	<polygon fill="#EDEDEC" points="576.238,539.063 565.179,553.717 565.179,553.717 588.342,539.786 588.342,539.784 	"/>
</g>
<g>
	<polygon fill="#FFFFFF" points="490.696,564.859 484.211,578.907 484.211,578.907 498.506,570.309 498.506,570.309 	"/>
	<polygon fill="#EDEDEC" points="490.696,564.859 491.358,574.61 498.506,570.309 498.506,570.309 	"/>
	<polygon fill="#FFFFFF" points="480.181,588.346 502.298,559.039 503.346,574.414 	"/>
	<polygon fill="#E1E0DF" points="503.346,574.414 479.135,572.972 480.181,588.346 	"/>
	<polygon fill="#EDEDEC" points="491.24,573.692 480.181,588.346 480.181,588.346 503.346,574.414 503.346,574.414 	"/>
</g>
<g>
	<g>
		<rect x="802.464" y="295.263" fill="#E6E5E4" width="8.376" height="23.354"/>
		<polygon fill="#E6E5E4" points="792.501,322.812 792.501,322.774 819.352,310.26 819.352,322.812 		"/>
		<polygon fill="#FFFFFF" points="815.62,322.812 815.62,322.774 782.503,306.711 788.768,322.812 		"/>
		<rect x="800.79" y="292.836" fill="#C8C7C4" width="11.724" height="2.701"/>
	</g>
	<ellipse fill="#A9D9D4" cx="790.835" cy="326.767" rx="8.082" ry="6.103"/>
	<path fill="#A9D9D4" d="M811.821,326.302c0,3.371-3.614,6.103-8.079,6.103s-8.079-2.732-8.079-6.103
		c0-3.371,3.614-6.103,8.079-6.103S811.821,322.931,811.821,326.302z"/>
	<ellipse fill="#A9D9D4" cx="815.621" cy="327.78" rx="8.08" ry="6.102"/>
	<path fill="none" stroke="#65B5A8" stroke-miterlimit="10" d="M787.896,324.226c0,0,4.827-3.095,8.402,0.308
		c0,0,7.877-4.738,13.364,0c0,0,4.305-2.089,7.713-0.308"/>
	<ellipse fill="#D5D4D2" cx="809.095" cy="288.227" rx="2.441" ry="2.371"/>
	<ellipse fill="#D5D4D2" cx="813.278" cy="287.757" rx="2.794" ry="2.714"/>
	<ellipse fill="#D5D4D2" cx="817.969" cy="287.757" rx="3.138" ry="3.047"/>
	<ellipse fill="#D5D4D2" cx="823.702" cy="287.757" rx="4.054" ry="3.938"/>
</g>
<g>
	<polygon fill="#C3C2BF" points="670.952,340.931 657.163,332.969 657.165,317.148 670.952,325.109 	"/>
	<polygon fill="#B8B7B3" points="670.952,340.931 684.741,332.969 684.741,317.148 670.952,325.109 	"/>
	<polygon fill="#D5D4D2" points="670.952,325.083 657.163,317.123 670.867,309.212 684.654,317.173 	"/>
</g>
<g>
	<polygon fill="#C3C2BF" points="656.572,349.223 642.783,341.262 642.783,325.439 656.572,333.4 	"/>
	<polygon fill="#B8B7B3" points="656.572,349.223 670.359,341.262 670.359,325.439 656.572,333.4 	"/>
	<polygon fill="#D5D4D2" points="656.572,333.375 642.783,325.414 656.486,317.503 670.273,325.463 	"/>
</g>
<g>
	<polygon fill="#C3C2BF" points="656.572,333.693 642.783,325.733 642.783,309.91 656.572,317.871 	"/>
	<polygon fill="#B8B7B3" points="656.572,333.693 670.359,325.733 670.359,309.91 656.572,317.871 	"/>
	<polygon fill="#D5D4D2" points="656.572,317.846 642.783,309.885 656.486,301.974 670.273,309.935 	"/>
</g>
<g>
	<polygon fill="#C3C2BF" points="656.572,317.846 642.783,309.885 642.783,294.062 656.572,302.023 	"/>
	<polygon fill="#B8B7B3" points="656.572,317.846 670.359,309.885 670.359,294.062 656.572,302.023 	"/>
	<polygon fill="#D5D4D2" points="656.572,301.999 642.783,294.038 656.486,286.127 670.273,294.087 	"/>
</g>
<g>
	<g>
		<polygon fill="#C3C2BF" points="640.078,358.701 626.287,350.739 626.289,334.917 640.078,342.877 		"/>
		<polygon fill="#B8B7B3" points="640.078,358.701 653.867,350.739 653.867,334.917 640.078,342.877 		"/>
		<polygon fill="#D5D4D2" points="640.078,342.853 626.287,334.891 639.991,326.98 653.78,334.941 		"/>
	</g>
	<g>
		<polygon fill="#C3C2BF" points="640.078,343.17 626.287,335.21 626.289,319.387 640.078,327.348 		"/>
		<polygon fill="#B8B7B3" points="640.078,343.17 653.867,335.21 653.867,319.387 640.078,327.348 		"/>
		<polygon fill="#D5D4D2" points="640.078,327.323 626.287,319.362 639.991,311.451 653.78,319.412 		"/>
	</g>
	<g>
		<polygon fill="#C3C2BF" points="640.078,327.323 626.287,319.363 626.289,303.541 640.078,311.501 		"/>
		<polygon fill="#B8B7B3" points="640.078,327.323 653.867,319.363 653.867,303.541 640.078,311.501 		"/>
		<polygon fill="#D5D4D2" points="640.078,311.476 626.287,303.515 639.991,295.604 653.78,303.565 		"/>
	</g>
	<g>
		<polygon fill="#FFFFFF" points="646.854,318.571 642.578,321.096 642.578,316.171 646.854,313.646 		"/>
		<polygon fill="#FFFFFF" points="652.502,315.234 648.228,317.759 648.228,312.834 652.502,310.309 		"/>
		<polygon fill="#F7D232" points="646.854,325.556 642.578,328.081 642.578,323.157 646.854,320.632 		"/>
		<polygon fill="#FFFFFF" points="652.502,322.221 648.228,324.744 648.228,319.82 652.502,317.296 		"/>
		<polygon fill="#F7D232" points="646.854,332.33 642.578,334.854 642.578,329.93 646.854,327.405 		"/>
		<polygon fill="#FFFFFF" points="652.502,328.992 648.228,331.516 648.228,326.593 652.502,324.068 		"/>
		<polygon fill="#FFFFFF" points="646.854,338.535 642.578,341.059 642.578,336.135 646.854,333.61 		"/>
		<polygon fill="#FFFFFF" points="652.502,335.197 648.228,337.722 648.228,332.798 652.502,330.272 		"/>
		<polygon fill="#FFFFFF" points="646.854,344.888 642.578,347.413 642.578,342.489 646.854,339.964 		"/>
		<polygon fill="#F7D232" points="652.502,341.553 648.228,344.077 648.228,339.152 652.502,336.627 		"/>
	</g>
</g>
<g>
	<polygon fill="#FFFFFF" points="662.779,309.285 658.503,311.81 658.503,306.885 662.779,304.362 	"/>
	<polygon fill="#F7D232" points="668.428,305.95 664.151,308.474 664.151,303.55 668.428,301.025 	"/>
	<polygon fill="#F7D232" points="662.779,316.271 658.503,318.796 658.503,313.872 662.779,311.347 	"/>
	<polygon fill="#FFFFFF" points="668.428,312.936 664.151,315.46 664.151,310.534 668.428,308.011 	"/>
	<polygon fill="#FFFFFF" points="662.779,323.045 658.503,325.57 658.503,320.644 662.779,318.119 	"/>
	<polygon fill="#F7D232" points="668.428,319.707 664.151,322.231 664.151,317.308 668.428,314.783 	"/>
	<polygon fill="#FFFFFF" points="662.779,329.249 658.503,331.774 658.503,326.85 662.779,324.325 	"/>
	<polygon fill="#FFFFFF" points="668.428,325.913 664.151,328.437 664.151,323.513 668.428,320.988 	"/>
	<polygon fill="#F7D232" points="662.779,335.604 658.503,338.128 658.503,333.204 662.779,330.68 	"/>
	<polygon fill="#F7D232" points="668.428,332.268 664.151,334.792 664.151,329.868 668.428,327.343 	"/>
</g>
<g>
	<g>
		<polygon fill="#C3C2BF" points="937.032,414.455 923.245,406.494 923.245,390.672 937.032,398.631 		"/>
		<polygon fill="#B8B7B3" points="937.032,414.455 950.824,406.494 950.824,390.672 937.032,398.631 		"/>
		<polygon fill="#D5D4D2" points="937.032,398.607 923.245,390.647 936.949,382.735 950.736,390.696 		"/>
	</g>
	<g>
		<polygon fill="#C3C2BF" points="922.65,422.747 908.863,414.784 908.863,398.963 922.65,406.923 		"/>
		<polygon fill="#B8B7B3" points="922.65,422.747 936.441,414.784 936.441,398.963 922.65,406.923 		"/>
		<polygon fill="#D5D4D2" points="922.65,406.897 908.863,398.938 922.565,391.026 936.356,398.987 		"/>
	</g>
	<g>
		<polygon fill="#C3C2BF" points="922.65,407.216 908.863,399.257 908.863,383.435 922.65,391.395 		"/>
		<polygon fill="#B8B7B3" points="922.65,407.216 936.441,399.257 936.441,383.435 922.65,391.395 		"/>
		<polygon fill="#D5D4D2" points="922.65,391.369 908.863,383.407 922.565,375.498 936.356,383.458 		"/>
	</g>
	<g>
		<polygon fill="#C3C2BF" points="922.65,391.369 908.863,383.408 908.863,367.585 922.65,375.547 		"/>
		<polygon fill="#B8B7B3" points="922.65,391.369 936.441,383.408 936.441,367.585 922.65,375.547 		"/>
		<polygon fill="#D5D4D2" points="922.65,375.522 908.863,367.561 922.565,359.65 936.356,367.611 		"/>
	</g>
	<g>
		<g>
			<polygon fill="#C3C2BF" points="906.157,432.224 892.37,424.263 892.372,408.44 906.157,416.402 			"/>
			<polygon fill="#B8B7B3" points="906.157,432.224 919.948,424.263 919.948,408.44 906.157,416.402 			"/>
			<polygon fill="#D5D4D2" points="906.157,416.376 892.37,408.415 906.074,400.505 919.861,408.465 			"/>
		</g>
		<g>
			<polygon fill="#C3C2BF" points="906.157,416.693 892.37,408.733 892.372,392.912 906.157,400.871 			"/>
			<polygon fill="#B8B7B3" points="906.157,416.693 919.948,408.733 919.948,392.912 906.157,400.871 			"/>
			<polygon fill="#D5D4D2" points="906.157,400.848 892.37,392.886 906.074,384.975 919.861,392.936 			"/>
		</g>
		<g>
			<polygon fill="#C3C2BF" points="906.157,400.848 892.37,392.887 892.372,377.063 906.157,385.025 			"/>
			<polygon fill="#B8B7B3" points="906.157,400.848 919.948,392.887 919.948,377.063 906.157,385.025 			"/>
			<polygon fill="#D5D4D2" points="906.157,385 892.37,377.039 906.074,369.127 919.861,377.088 			"/>
		</g>
		<g>
			<polygon fill="#FFFFFF" points="912.936,392.094 908.659,394.618 908.659,389.694 912.936,387.169 			"/>
			<polygon fill="#FFFFFF" points="918.582,388.758 914.31,391.283 914.31,386.357 918.582,383.833 			"/>
			<polygon fill="#F7D232" points="912.936,399.079 908.659,401.604 908.659,396.681 912.936,394.156 			"/>
			<polygon fill="#FFFFFF" points="918.582,395.743 914.31,398.268 914.31,393.343 918.582,390.818 			"/>
			<polygon fill="#F7D232" points="912.936,405.853 908.659,408.378 908.659,403.452 912.936,400.928 			"/>
			<polygon fill="#FFFFFF" points="918.582,402.515 914.31,405.041 914.31,400.115 918.582,397.591 			"/>
			<polygon fill="#FFFFFF" points="912.936,412.058 908.659,414.581 908.659,409.657 912.936,407.134 			"/>
			<polygon fill="#FFFFFF" points="918.582,408.722 914.31,411.246 914.31,406.32 918.582,403.797 			"/>
			<polygon fill="#FFFFFF" points="912.936,418.413 908.659,420.938 908.659,416.013 912.936,413.488 			"/>
			<polygon fill="#F7D232" points="918.582,415.076 914.31,417.601 914.31,412.677 918.582,410.151 			"/>
		</g>
	</g>
	<g>
		<polygon fill="#FFFFFF" points="928.858,382.809 924.586,385.333 924.586,380.408 928.858,377.886 		"/>
		<polygon fill="#F7D232" points="934.511,379.472 930.234,381.997 930.234,377.072 934.511,374.548 		"/>
		<polygon fill="#F7D232" points="928.858,389.795 924.586,392.319 924.586,387.396 928.858,384.871 		"/>
		<polygon fill="#FFFFFF" points="934.511,386.459 930.234,388.983 930.234,384.059 934.511,381.534 		"/>
		<polygon fill="#FFFFFF" points="928.858,396.566 924.586,399.092 924.586,394.168 928.858,391.644 		"/>
		<polygon fill="#F7D232" points="934.511,393.231 930.234,395.754 930.234,390.831 934.511,388.307 		"/>
		<polygon fill="#FFFFFF" points="928.858,402.772 924.586,405.297 924.586,400.373 928.858,397.849 		"/>
		<polygon fill="#FFFFFF" points="934.511,399.437 930.234,401.961 930.234,397.037 934.511,394.512 		"/>
		<polygon fill="#F7D232" points="928.858,409.129 924.586,411.651 924.586,406.728 928.858,404.203 		"/>
		<polygon fill="#F7D232" points="934.511,405.79 930.234,408.316 930.234,403.391 934.511,400.867 		"/>
	</g>
</g>
<g>
	<rect x="696.802" y="361.462" fill="#E9B700" width="33.798" height="20.769"/>
	<polygon fill="#F7D232" points="730.6,361.462 730.6,361.462 696.802,361.462 696.802,382.231 697.103,382.231 	"/>
	<rect x="690.909" y="372.122" fill="#F7D232" width="6.193" height="10.109"/>
	<g>
		<circle fill="#82817E" cx="705.065" cy="380.341" r="5.155"/>
		<circle fill="#FFFFFF" cx="705.064" cy="380.341" r="3.129"/>
	</g>
	<g>
		<path fill="#82817E" d="M725.473,380.341c0,2.846-2.309,5.153-5.155,5.153c-2.843,0-5.153-2.308-5.153-5.153
			c0-2.848,2.311-5.154,5.153-5.154C723.164,375.187,725.473,377.493,725.473,380.341z"/>
		<path fill="#FFFFFF" d="M723.446,380.341c0,1.729-1.396,3.13-3.129,3.13c-1.727,0-3.127-1.401-3.127-3.13
			c0-1.728,1.4-3.129,3.127-3.129C722.051,377.212,723.446,378.613,723.446,380.341z"/>
	</g>
	<rect x="690.933" y="373.655" fill="#FFFFFF" width="2.394" height="3.557"/>
</g>
<g>
	<g>
		<rect x="868.193" y="336.801" fill="#E6E5E4" width="10.322" height="28.782"/>
		<polygon fill="#E6E5E4" points="855.913,370.751 855.913,370.705 889.008,355.283 889.008,370.751 		"/>
		<polygon fill="#FFFFFF" points="884.41,370.751 884.41,370.705 843.596,350.91 851.315,370.751 		"/>
		<rect x="866.13" y="333.812" fill="#C8C7C4" width="14.451" height="3.33"/>
	</g>
	<ellipse fill="#A9D9D4" cx="853.861" cy="375.627" rx="9.957" ry="7.52"/>
	<ellipse fill="#A9D9D4" cx="869.768" cy="375.054" rx="9.957" ry="7.519"/>
	<path fill="#A9D9D4" d="M894.362,376.874c0,4.154-4.455,7.521-9.952,7.521c-5.5,0-9.959-3.366-9.959-7.521s4.459-7.52,9.959-7.52
		C889.907,369.354,894.362,372.72,894.362,376.874z"/>
	<path fill="none" stroke="#65B5A8" stroke-miterlimit="10" d="M850.243,372.493c0,0,5.948-3.814,10.349,0.38
		c0,0,9.707-5.839,16.475,0c0,0,5.301-2.575,9.504-0.38"/>
	<ellipse fill="#D5D4D2" cx="876.364" cy="328.13" rx="3.01" ry="2.922"/>
	<ellipse fill="#D5D4D2" cx="881.518" cy="327.553" rx="3.443" ry="3.343"/>
	<ellipse fill="#D5D4D2" cx="887.299" cy="327.553" rx="3.867" ry="3.754"/>
	<ellipse fill="#D5D4D2" cx="894.364" cy="327.553" rx="4.996" ry="4.852"/>
</g>
<g>
	<g>
		<polygon fill="#C3C2BF" points="731.561,541.2 721.388,535.328 721.388,523.657 731.561,529.529 		"/>
		<polygon fill="#B8B7B3" points="731.561,541.2 741.731,535.328 741.731,523.657 731.561,529.529 		"/>
		<polygon fill="#D5D4D2" points="731.561,529.511 721.388,523.639 731.497,517.803 741.668,523.675 		"/>
	</g>
	<g>
		<polygon fill="#C3C2BF" points="720.952,547.317 710.781,541.444 710.781,529.773 720.952,535.644 		"/>
		<polygon fill="#B8B7B3" points="720.952,547.317 731.123,541.444 731.123,529.773 720.952,535.644 		"/>
		<polygon fill="#D5D4D2" points="720.952,535.628 710.781,529.753 720.889,523.917 731.062,529.792 		"/>
	</g>
	<g>
		<polygon fill="#C3C2BF" points="720.952,535.862 710.781,529.99 710.781,518.319 720.952,524.188 		"/>
		<polygon fill="#B8B7B3" points="720.952,535.862 731.123,529.99 731.123,518.319 720.952,524.188 		"/>
		<polygon fill="#D5D4D2" points="720.952,524.173 710.781,518.298 720.889,512.463 731.062,518.337 		"/>
	</g>
	<g>
		<polygon fill="#C3C2BF" points="720.952,524.173 710.781,518.298 710.781,506.627 720.952,512.501 		"/>
		<polygon fill="#B8B7B3" points="720.952,524.173 731.123,518.298 731.123,506.627 720.952,512.501 		"/>
		<polygon fill="#D5D4D2" points="720.952,512.483 710.781,506.61 720.889,500.774 731.062,506.647 		"/>
	</g>
	<g>
		<g>
			<polygon fill="#C3C2BF" points="708.784,554.308 698.613,548.436 698.615,536.764 708.784,542.636 			"/>
			<polygon fill="#B8B7B3" points="708.784,554.308 718.957,548.436 718.957,536.764 708.784,542.636 			"/>
			<polygon fill="#D5D4D2" points="708.784,542.617 698.613,536.746 708.723,530.912 718.894,536.781 			"/>
		</g>
		<g>
			<polygon fill="#C3C2BF" points="708.784,542.853 698.613,536.98 698.615,525.309 708.784,531.182 			"/>
			<polygon fill="#B8B7B3" points="708.784,542.853 718.957,536.98 718.957,525.309 708.784,531.182 			"/>
			<polygon fill="#D5D4D2" points="708.784,531.163 698.613,525.29 708.723,519.455 718.894,525.327 			"/>
		</g>
		<g>
			<polygon fill="#C3C2BF" points="708.784,531.163 698.613,525.29 698.615,513.619 708.784,519.491 			"/>
			<polygon fill="#B8B7B3" points="708.784,531.163 718.957,525.29 718.957,513.619 708.784,519.491 			"/>
			<polygon fill="#D5D4D2" points="708.784,519.473 698.613,513.601 708.723,507.765 718.894,513.637 			"/>
		</g>
		<g>
			<polygon fill="#FFFFFF" points="713.785,524.706 710.631,526.567 710.631,522.937 713.785,521.075 			"/>
			<polygon fill="#FFFFFF" points="717.95,522.245 714.798,524.106 714.798,520.475 717.95,518.612 			"/>
			<polygon fill="#F7D232" points="713.785,529.86 710.631,531.722 710.631,528.09 713.785,526.226 			"/>
			<polygon fill="#FFFFFF" points="717.95,527.396 714.798,529.261 714.798,525.628 717.95,523.767 			"/>
			<polygon fill="#F7D232" points="713.785,534.856 710.631,536.718 710.631,533.084 713.785,531.222 			"/>
			<polygon fill="#FFFFFF" points="717.95,532.395 714.798,534.257 714.798,530.624 717.95,528.761 			"/>
			<polygon fill="#FFFFFF" points="713.785,539.433 710.631,541.295 710.631,537.663 713.785,535.801 			"/>
			<polygon fill="#FFFFFF" points="717.95,536.972 714.798,538.832 714.798,535.201 717.95,533.337 			"/>
			<polygon fill="#FFFFFF" points="713.785,544.121 710.631,545.982 710.631,542.349 713.785,540.487 			"/>
			<polygon fill="#F7D232" points="717.95,541.659 714.798,543.521 714.798,539.89 717.95,538.025 			"/>
		</g>
	</g>
	<g>
		<polygon fill="#FFFFFF" points="725.531,517.855 722.379,519.719 722.379,516.088 725.531,514.226 		"/>
		<polygon fill="#F7D232" points="729.699,515.396 726.545,517.258 726.545,513.626 729.699,511.765 		"/>
		<polygon fill="#F7D232" points="725.531,523.011 722.379,524.873 722.379,521.241 725.531,519.377 		"/>
		<polygon fill="#FFFFFF" points="729.699,520.55 726.545,522.411 726.545,518.779 729.699,516.915 		"/>
		<polygon fill="#FFFFFF" points="725.531,528.005 722.379,529.867 722.379,526.237 725.531,524.373 		"/>
		<polygon fill="#F7D232" points="729.699,525.544 726.545,527.407 726.545,523.775 729.699,521.912 		"/>
		<polygon fill="#FFFFFF" points="725.531,532.582 722.379,534.446 722.379,530.813 725.531,528.952 		"/>
		<polygon fill="#FFFFFF" points="729.699,530.123 726.545,531.984 726.545,528.351 729.699,526.49 		"/>
		<polygon fill="#F7D232" points="725.531,537.272 722.379,539.134 722.379,535.502 725.531,533.638 		"/>
		<polygon fill="#F7D232" points="729.699,534.809 726.545,536.672 726.545,533.038 729.699,531.179 		"/>
	</g>
</g>
<g>
	<g>
		<polygon fill="#F1E1A7" points="830.556,362.725 803.754,362.725 803.754,332.073 836.639,332.073 		"/>
		<polygon fill="#936C17" points="822.221,339.488 830.556,362.725 835.875,338.875 824.701,337.099 		"/>
		<polygon fill="#EAD493" points="822.221,339.488 816.043,362.725 830.556,362.725 		"/>
		<polygon fill="#F1E1A7" points="826.882,345.707 820.601,345.707 822.113,339.488 827.784,339.488 		"/>
		<polygon fill="#EAD493" points="821.684,341.259 825.873,341.259 825.521,344.203 820.968,344.203 		"/>
		<polyline fill="#F1E1A7" points="802.468,341.918 798.32,352.194 803.99,352.194 804.275,341.723 802.585,341.723 		"/>
		
			<rect x="803.404" y="355.267" transform="matrix(0.9811 -0.1933 0.1933 0.9811 -53.6125 162.5385)" fill="#E05B4F" width="5.383" height="1.461"/>
		<rect x="806.915" y="340.971" fill="#7A7976" width="3.396" height="6.428"/>
		<polygon fill="#936C17" points="800.909,338.875 793.482,343.066 827.142,338.875 		"/>
	</g>
	<g>
		<polygon fill="#37424A" points="837.017,335.105 800.909,335.105 804.31,316.621 835.302,319.312 		"/>
		<polygon fill="#6C8391" points="837.017,335.105 800.909,335.105 801.937,329.561 836.43,329.039 		"/>
		<polygon fill="#37424A" points="841.787,338.875 793.248,338.875 800.909,334.174 837.017,334.174 		"/>
	</g>
	<polygon fill="#FFFFFF" points="810.62,362.725 825.873,362.725 829.047,368.337 806.915,368.337 	"/>
	<g>
		<path fill="#655C57" d="M781.256,350.166c2.317,10.378-4.222,20.667-14.595,22.983c-10.377,2.315-20.665-4.218-22.98-14.596
			c-2.317-10.378,4.217-20.666,14.592-22.982C768.652,333.255,778.941,339.791,781.256,350.166z"/>
		<path fill="#514843" d="M793.817,377.359c1.634,1.49,1.753,4.022,0.262,5.657l0,0c-1.491,1.632-4.022,1.749-5.66,0.258
			l-15.29-13.946c-1.632-1.491-1.749-4.023-0.258-5.655l0,0c1.491-1.636,4.022-1.752,5.658-0.261L793.817,377.359z"/>
		<path fill="#514843" d="M781.256,350.166c-2.003-8.97-9.963-15.055-18.786-15.048v38.483c1.382,0,2.784-0.14,4.191-0.452
			C777.034,370.833,783.573,360.544,781.256,350.166z"/>
		<circle fill="#FFFFFF" cx="762.469" cy="354.361" r="13.786"/>
		<path fill="#DFDFDD" d="M775.924,351.358c-1.434-6.424-7.137-10.782-13.454-10.776v27.557c0.989-0.001,1.995-0.101,3.002-0.324
			C772.9,366.155,777.58,358.789,775.924,351.358z"/>
		<path fill="#352824" d="M793.817,377.359l-10.344-9.436v10.839l4.945,4.512c1.638,1.491,4.169,1.374,5.66-0.258
			C795.57,381.382,795.451,378.85,793.817,377.359z"/>
	</g>
	<g>
		<polygon fill="#37424A" points="805.443,368.337 830.456,368.337 836.936,411.45 800.644,411.45 		"/>
		<polygon fill="#37424A" points="816.043,395.15 788.058,397.461 788.058,416.753 801.298,416.753 801.256,405.952 
			816.043,405.952 		"/>
		<rect x="783.474" y="416.753" fill="#37424A" width="17.824" height="4.719"/>
		<polyline fill="#37424A" points="808.613,411.693 808.613,420.003 822.221,419.93 823.208,411.693 808.613,410.675 		"/>
		<rect x="821.834" y="403.811" fill="#37424A" width="4.721" height="17.823"/>
	</g>
	<polygon fill="#A46F15" points="818.789,411.45 836.936,411.45 830.456,368.337 818.789,368.337 	"/>
	<g>
		<polygon fill="#FFFFFF" points="819.269,371.429 791.978,378.634 796.41,385.284 819.269,378.357 		"/>
		<polygon fill="#F1E1A7" points="792.739,379.772 786.437,381.461 789.297,386.57 795.771,384.32 		"/>
		<polyline fill="#E6C76B" points="789.297,386.57 785.437,385.284 783.474,378.763 786.437,381.461 789.297,386.034 		"/>
	</g>
</g>
<path fill="#B6B5B1" d="M889.353,437.802c-41.94,9.55-55.516,42.883-56.222,44.651l17.863,9.879
	c-2.223,5.589,25.493-37.864,56.995-39.416c2.244-0.109,4.415-0.292,6.53-0.531L889.353,437.802z"/>
<g>
	<g>
		<path fill="none" stroke="#F9E540" stroke-width="2" stroke-miterlimit="10" d="M897.519,443.4c0,0-1.435,0.313-3.858,1.042"/>
		<path fill="none" stroke="#F9E540" stroke-width="2" stroke-miterlimit="10" stroke-dasharray="7.1356,7.1356" d="
			M886.912,446.753c-11.791,4.517-30.572,14.192-41.227,32.531"/>
		<path fill="none" stroke="#F9E540" stroke-width="2" stroke-miterlimit="10" d="M843.984,482.428
			c-0.592,1.178-1.15,2.389-1.672,3.634"/>
	</g>
</g>
<path fill="none" stroke="#FFFFFF" stroke-miterlimit="10" d="M347.167,70.525"/>
<g>
	<g>
		<polygon fill="#C3C2BF" points="347.587,446.716 336.75,440.459 336.75,428.021 347.587,434.279 		"/>
		<polygon fill="#B8B7B3" points="347.587,446.716 358.425,440.459 358.425,428.021 347.587,434.279 		"/>
		<polygon fill="#D5D4D2" points="347.587,434.259 336.75,428.004 347.52,421.787 358.357,428.042 		"/>
	</g>
	<g>
		<polygon fill="#C3C2BF" points="347.587,434.51 336.75,428.252 336.75,415.816 347.587,422.074 		"/>
		<polygon fill="#B8B7B3" points="347.587,434.51 358.425,428.252 358.425,415.816 347.587,422.074 		"/>
		<polygon fill="#D5D4D2" points="347.587,422.054 336.75,415.798 347.52,409.581 358.357,415.836 		"/>
	</g>
	<g>
		<polygon fill="#C3C2BF" points="347.587,422.054 336.75,415.798 336.75,403.361 347.587,409.619 		"/>
		<polygon fill="#B8B7B3" points="347.587,422.054 358.425,415.798 358.425,403.361 347.587,409.619 		"/>
		<polygon fill="#D5D4D2" points="347.587,409.599 336.75,403.343 347.52,397.124 358.357,403.382 		"/>
	</g>
	<g>
		<g>
			<polygon fill="#C3C2BF" points="371.395,446.692 360.557,440.437 360.558,427.999 371.395,434.257 			"/>
			<polygon fill="#B8B7B3" points="371.395,446.692 382.232,440.437 382.232,427.999 371.395,434.257 			"/>
			<polygon fill="#D5D4D2" points="371.395,434.238 360.557,427.98 371.329,421.762 382.166,428.02 			"/>
		</g>
		<g>
			<polygon fill="#C3C2BF" points="371.395,434.486 360.557,428.229 360.558,415.794 371.395,422.052 			"/>
			<polygon fill="#B8B7B3" points="371.395,434.486 382.232,428.229 382.232,415.794 371.395,422.052 			"/>
			<polygon fill="#D5D4D2" points="371.395,422.031 360.557,415.774 371.329,409.557 382.166,415.814 			"/>
		</g>
		<g>
			<polygon fill="#F7D232" points="376.72,425.967 373.359,427.951 373.359,424.079 376.72,422.095 			"/>
			<polygon fill="#FFFFFF" points="381.16,423.343 377.8,425.327 377.8,421.458 381.16,419.474 			"/>
			<polygon fill="#FFFFFF" points="376.72,430.844 373.359,432.828 373.359,428.957 376.72,426.973 			"/>
			<polygon fill="#FFFFFF" points="381.16,428.22 377.8,430.205 377.8,426.333 381.16,424.349 			"/>
			<polygon fill="#FFFFFF" points="376.72,435.838 373.359,437.822 373.359,433.95 376.72,431.969 			"/>
			<polygon fill="#F7D232" points="381.16,433.216 377.8,435.198 377.8,431.329 381.16,429.345 			"/>
		</g>
	</g>
	<g>
		<polygon fill="#FFFFFF" points="352.467,415.327 349.106,417.311 349.106,413.439 352.467,411.456 		"/>
		<polygon fill="#F7D232" points="356.905,412.704 353.547,414.688 353.547,410.817 356.905,408.834 		"/>
		<polygon fill="#F7D232" points="352.467,420.817 349.106,422.799 349.106,418.933 352.467,416.947 		"/>
		<polygon fill="#FFFFFF" points="356.905,418.195 353.547,420.178 353.547,416.308 356.905,414.323 		"/>
		<polygon fill="#FFFFFF" points="352.467,426.14 349.106,428.124 349.106,424.256 352.467,422.27 		"/>
		<polygon fill="#F7D232" points="356.905,423.518 353.547,425.501 353.547,421.632 356.905,419.646 		"/>
		<polygon fill="#FFFFFF" points="352.467,431.018 349.106,433.002 349.106,429.131 352.467,427.146 		"/>
		<polygon fill="#FFFFFF" points="356.905,428.396 353.547,430.379 353.547,426.507 356.905,424.524 		"/>
		<polygon fill="#F7D232" points="352.467,436.012 349.106,437.996 349.106,434.127 352.467,432.143 		"/>
		<polygon fill="#F7D232" points="356.905,433.39 353.547,435.375 353.547,431.503 356.905,429.519 		"/>
	</g>
</g>
<g>
	<path fill="#51BBC0" d="M864.544,205.588c-2.227-5.728-7.788-9.791-14.301-9.791c-6.515,0-12.082,4.063-14.307,9.792
		c-7.057,1.382-12.38,7.595-12.38,15.056c0,8.472,6.87,15.343,15.344,15.343c4.494,0,8.535-1.931,11.343-5.009
		c2.808,3.079,6.85,5.009,11.341,5.009c8.472,0,15.344-6.871,15.344-15.343C876.928,213.183,871.602,206.967,864.544,205.588z"/>
	<path fill="#83CCCF" d="M850.243,195.797L850.243,195.797c-6.515,0-12.082,4.063-14.307,9.792
		c-7.057,1.382-12.38,7.595-12.38,15.056c0,8.472,6.87,15.343,15.344,15.343c4.494,0,8.535-1.931,11.343-5.009V195.797z"/>
	<path fill="#83CCCF" d="M850.594,217.093l-17.685,17.682c1.844,0.78,3.868,1.213,5.991,1.213c4.494,0,8.535-1.931,11.343-5.009
		c2.808,3.079,6.85,5.009,11.341,5.009c2.313,0,4.506-0.515,6.471-1.431L850.594,217.093z"/>
	<path fill="#71C5C5" d="M832.909,234.775c1.844,0.78,3.868,1.213,5.991,1.213c4.494,0,8.535-1.931,11.343-5.009v-13.537
		L832.909,234.775z"/>
</g>
<g>
	<polygon fill="#C0CB5D" points="723.012,328.16 655.888,289.404 655.888,212.382 723.012,251.136 	"/>
	<polygon fill="#B3C548" points="723.012,328.16 790.136,289.404 790.136,212.382 723.012,251.136 	"/>
	<polygon fill="#8BAD50" points="722.804,305.861 675.117,278.331 675.117,243.568 722.804,270.682 	"/>
	<polygon fill="#70A22D" points="722.804,305.861 770.486,278.331 770.484,243.251 722.804,270.682 	"/>
	<polygon fill="#98B653" points="722.653,215.893 722.653,270.609 722.804,270.695 770.187,243.338 	"/>
	<polygon fill="#A9C063" points="722.729,215.893 722.729,270.609 722.576,270.695 675.191,243.338 	"/>
	<polygon fill="#C2D55C" points="723.012,251.016 655.888,212.262 722.592,173.75 789.715,212.503 	"/>
</g>
<g>
	<polygon fill="#C0CB5D" points="578.819,326.207 511.695,287.453 511.695,210.43 578.819,249.185 	"/>
	<polygon fill="#B3C548" points="578.819,326.207 645.943,287.453 645.941,210.43 578.819,249.185 	"/>
	<polygon fill="#8BAD50" points="578.609,303.909 530.925,276.378 530.925,241.616 578.609,268.73 	"/>
	<polygon fill="#70A22D" points="578.609,303.909 626.293,276.378 626.291,241.299 578.609,268.73 	"/>
	<polygon fill="#98B653" points="578.459,213.941 578.459,268.658 578.609,268.743 625.994,241.385 	"/>
	<polygon fill="#A9C063" points="578.534,213.941 578.534,268.658 578.383,268.743 530.998,241.385 	"/>
	<polygon fill="#C2D55C" points="578.819,249.063 511.695,210.31 578.398,171.798 645.522,210.551 	"/>
</g>
<g>
	<polygon fill="#8ABB4E" points="626.768,164.328 619.272,159.513 619.272,130.259 626.768,135.075 	"/>
	<polygon fill="#73A633" points="626.77,164.328 634.266,159.513 634.266,130.259 626.77,135.075 	"/>
	<polygon fill="#73A633" points="626.906,135.181 626.906,135.17 619.41,130.355 619.41,135.181 	"/>
	<polygon fill="#A6C06C" points="611.913,130.259 611.913,130.271 619.41,135.085 619.41,130.259 	"/>
	<polygon fill="#73A633" points="611.913,135.181 611.913,135.17 619.41,130.355 619.41,135.181 	"/>
	<polygon fill="#67982F" points="626.745,135.158 626.745,135.146 634.242,130.333 634.242,135.158 	"/>
	<polygon fill="#A6C06C" points="641.736,130.235 641.736,130.247 634.242,135.061 634.242,130.235 	"/>
	<polygon fill="#67982F" points="641.736,135.158 641.736,135.146 634.242,130.333 634.242,135.158 	"/>
</g>
<g>
	<polygon fill="#8ABB4E" points="647.906,175.192 640.41,170.377 640.41,147.275 647.906,152.091 	"/>
	<polygon fill="#73A633" points="647.906,175.192 655.402,170.377 655.402,147.275 647.906,152.091 	"/>
	<polygon fill="#73A633" points="648.043,152.197 648.043,152.186 640.547,147.372 640.547,152.197 	"/>
	<polygon fill="#A6C06C" points="633.052,147.275 633.052,147.285 640.547,152.101 640.547,147.275 	"/>
	<polygon fill="#73A633" points="633.052,152.197 633.052,152.186 640.547,147.372 640.547,152.197 	"/>
	<polygon fill="#67982F" points="647.882,152.174 647.882,152.162 655.379,147.347 655.379,152.174 	"/>
	<polygon fill="#A6C06C" points="662.875,147.251 662.875,147.263 655.379,152.077 655.379,147.251 	"/>
	<polygon fill="#67982F" points="662.875,152.174 662.875,152.162 655.379,147.347 655.379,152.174 	"/>
</g>
<g>
	<polygon fill="#8ABB4E" points="675.448,186.552 667.952,181.737 667.952,166.274 675.448,171.089 	"/>
	<polygon fill="#73A633" points="675.448,186.552 682.945,181.737 682.945,166.274 675.448,171.089 	"/>
	<polygon fill="#73A633" points="675.586,171.195 675.586,171.185 668.089,166.37 668.089,171.195 	"/>
	<polygon fill="#A6C06C" points="660.593,166.274 660.593,166.285 668.089,171.1 668.089,166.274 	"/>
	<polygon fill="#73A633" points="660.593,171.195 660.593,171.185 668.089,166.37 668.089,171.195 	"/>
	<polygon fill="#67982F" points="675.425,171.172 675.425,171.161 682.921,166.346 682.921,171.172 	"/>
	<polygon fill="#A6C06C" points="690.415,166.25 690.415,166.261 682.921,171.076 682.921,166.25 	"/>
	<polygon fill="#67982F" points="690.415,171.172 690.415,171.161 682.921,166.346 682.921,171.172 	"/>
</g>
<g>
	<polygon fill="#ECC062" points="648.738,702.047 581.615,663.291 581.615,586.27 648.738,625.023 	"/>
	<polygon fill="#EABA49" points="648.738,702.047 715.862,663.291 715.86,586.27 648.738,625.023 	"/>
	<polygon fill="#F2AF05" points="648.528,679.749 600.847,652.218 600.847,617.453 648.528,644.57 	"/>
	<polygon fill="#DF9300" points="648.528,679.749 696.215,652.218 696.215,617.14 648.528,644.57 	"/>
	<polygon fill="#EBA738" points="648.38,589.778 648.38,644.497 648.528,644.584 695.915,617.226 	"/>
	<polygon fill="#F2B559" points="648.457,589.778 648.457,644.497 648.305,644.584 600.918,617.226 	"/>
	<polygon fill="#F8CB6A" points="648.738,624.902 581.615,586.148 648.32,547.636 715.444,586.391 	"/>
</g>
<g>
	<polygon fill="#ECC062" points="575.594,744.214 508.468,705.458 508.468,628.437 575.594,667.189 	"/>
	<polygon fill="#EABA49" points="575.594,744.214 642.718,705.458 642.716,628.437 575.594,667.189 	"/>
	<polygon fill="#F2AF05" points="575.382,721.916 527.699,694.387 527.699,659.621 575.382,686.734 	"/>
	<polygon fill="#DF9300" points="575.382,721.916 623.067,694.387 623.067,659.306 575.382,686.734 	"/>
	<polygon fill="#EBA738" points="575.234,631.945 575.234,686.664 575.382,686.748 622.769,659.392 	"/>
	<polygon fill="#F2B559" points="575.311,631.945 575.311,686.664 575.157,686.748 527.772,659.392 	"/>
	<polygon fill="#F8CB6A" points="575.594,667.069 508.468,628.315 575.175,589.804 642.299,628.558 	"/>
</g>
<g>
	<g>
		<polygon fill="#C9C9C4" points="459.581,386.438 442.312,375.344 455.2,323.924 459.581,333.213 		"/>
		<polygon fill="#BCBEB4" points="459.584,386.438 476.854,375.344 463.835,323.924 459.584,333.213 		"/>
		<line fill="none" stroke="#D5D4D2" stroke-miterlimit="10" x1="448.278" y1="379.177" x2="459.712" y2="311.077"/>
		<line fill="none" stroke="#D5D4D2" stroke-miterlimit="10" x1="471.147" y1="379.177" x2="459.712" y2="311.077"/>
		<polygon fill="#F5F6F6" points="446.906,310.028 446.906,310.046 459.581,318.189 459.581,310.028 		"/>
		<polygon fill="#E6E5E4" points="472.264,310.028 472.264,310.046 459.584,318.189 459.584,310.028 		"/>
		<polygon fill="#F5F6F6" points="442.312,324.131 442.312,324.156 459.581,335.249 459.581,324.131 		"/>
		<polygon fill="#E6E5E4" points="476.854,324.131 476.854,324.156 459.584,335.249 459.584,324.131 		"/>
		<polygon fill="#F5F6F6" points="442.312,338.39 442.312,338.416 459.581,349.508 459.581,338.39 		"/>
		<polygon fill="#E6E5E4" points="476.854,338.39 476.854,338.416 459.584,349.508 459.584,338.39 		"/>
		<polygon fill="#F5F6F6" points="442.312,353.133 442.312,353.158 459.581,364.252 459.581,353.133 		"/>
		<polygon fill="#E6E5E4" points="476.854,353.133 476.854,353.158 459.584,364.252 459.584,353.133 		"/>
	</g>
	<g>
		<polygon fill="#C9C9C4" points="423.904,406.023 409.336,396.664 420.207,353.286 423.904,361.123 		"/>
		<polygon fill="#BCBEB4" points="423.906,406.023 438.475,396.664 427.491,353.286 423.906,361.123 		"/>
		<line fill="none" stroke="#D5D4D2" stroke-miterlimit="10" x1="414.368" y1="399.896" x2="424.016" y2="342.449"/>
		<line fill="none" stroke="#D5D4D2" stroke-miterlimit="10" x1="433.661" y1="399.896" x2="424.016" y2="342.449"/>
		<polygon fill="#F5F6F6" points="413.211,341.563 413.211,341.577 423.904,348.447 423.904,341.563 		"/>
		<polygon fill="#E6E5E4" points="434.604,341.563 434.604,341.577 423.906,348.447 423.906,341.563 		"/>
		<polygon fill="#F5F6F6" points="409.336,353.46 409.336,353.481 423.904,362.839 423.904,353.46 		"/>
		<polygon fill="#E6E5E4" points="438.475,353.46 438.475,353.481 423.906,362.839 423.906,353.46 		"/>
		<polygon fill="#F5F6F6" points="409.336,365.49 409.336,365.511 423.904,374.869 423.904,365.49 		"/>
		<polygon fill="#E6E5E4" points="438.475,365.49 438.475,365.511 423.906,374.869 423.906,365.49 		"/>
		<polygon fill="#F5F6F6" points="409.336,377.928 409.336,377.949 423.904,387.307 423.904,377.928 		"/>
		<polygon fill="#E6E5E4" points="438.475,377.928 438.475,377.949 423.906,387.307 423.906,377.928 		"/>
	</g>
	<g>
		<path fill="#F1CF00" d="M423.785,307.456c-2.966-3.396-4.263-7.635-3.987-11.805c0.287-4.167,2.14-8.196,5.532-11.163
			c3.395-2.963,7.634-4.26,11.803-3.982c4.169,0.284,8.197,2.136,11.164,5.53l5.658-4.944c-4.312-4.939-10.254-7.678-16.316-8.084
			c-6.062-0.412-12.316,1.506-17.253,5.823c-4.938,4.313-7.678,10.253-8.083,16.316c-0.41,6.062,1.507,12.316,5.824,17.252
			L423.785,307.456z"/>
	</g>
	<g>
		<path fill="#F1CF00" d="M432.85,306.303c-1.581-1.812-2.273-4.077-2.124-6.301c0.15-2.225,1.139-4.375,2.952-5.96
			c1.811-1.582,4.073-2.274,6.302-2.126c2.224,0.152,4.374,1.141,5.958,2.953l3.021-2.639c-2.304-2.638-5.475-4.1-8.71-4.315
			c-3.24-0.22-6.575,0.803-9.211,3.107c-2.635,2.303-4.101,5.474-4.316,8.71c-0.22,3.238,0.805,6.577,3.108,9.211L432.85,306.303z"
			/>
	</g>
	<g>
		<path fill="#F1CF00" d="M439.895,310.168c-1.018-1.166-1.463-2.622-1.368-4.054c0.097-1.433,0.733-2.815,1.898-3.835
			c1.167-1.017,2.624-1.463,4.056-1.367c1.433,0.098,2.816,0.734,3.833,1.9l1.945-1.7c-1.483-1.696-3.522-2.636-5.606-2.775
			c-2.081-0.143-4.229,0.516-5.924,1.998c-1.698,1.482-2.637,3.524-2.779,5.605c-0.139,2.083,0.519,4.231,2.004,5.926
			L439.895,310.168z"/>
	</g>
</g>
<g>
	<g>
		<polygon fill="#C3C2BF" points="663.287,508.99 649.498,501.027 649.5,485.206 663.287,493.167 		"/>
		<polygon fill="#B8B7B3" points="663.287,508.99 677.076,501.027 677.076,485.206 663.287,493.167 		"/>
		<polygon fill="#D5D4D2" points="663.287,493.142 649.498,485.182 663.202,477.27 676.989,485.232 		"/>
	</g>
	<g>
		<polygon fill="#C3C2BF" points="663.287,493.461 649.498,485.499 649.5,469.678 663.287,477.64 		"/>
		<polygon fill="#B8B7B3" points="663.287,493.461 677.076,485.499 677.076,469.678 663.287,477.64 		"/>
		<polygon fill="#D5D4D2" points="663.287,477.614 649.498,469.652 663.202,461.741 676.989,469.702 		"/>
	</g>
	<g>
		<polygon fill="#F7D232" points="670.062,482.62 665.789,485.145 665.789,480.217 670.062,477.694 		"/>
		<polygon fill="#FFFFFF" points="675.71,479.282 671.438,481.805 671.438,476.882 675.71,474.356 		"/>
		<polygon fill="#FFFFFF" points="670.062,488.822 665.789,491.349 665.789,486.425 670.062,483.899 		"/>
		<polygon fill="#FFFFFF" points="675.71,485.487 671.438,488.011 671.438,483.087 675.71,480.562 		"/>
		<polygon fill="#FFFFFF" points="670.062,495.179 665.789,497.704 665.789,492.779 670.062,490.253 		"/>
		<polygon fill="#F7D232" points="675.71,491.841 671.438,494.366 671.438,489.441 675.71,486.917 		"/>
	</g>
</g>
<g>
	<g>
		<polygon fill="#C3C2BF" points="641.718,518.465 627.927,510.503 627.927,494.682 641.718,502.644 		"/>
		<polygon fill="#B8B7B3" points="641.718,518.465 655.506,510.503 655.506,494.682 641.718,502.644 		"/>
		<polygon fill="#D5D4D2" points="641.718,502.618 627.927,494.656 641.631,486.747 655.42,494.706 		"/>
	</g>
	<g>
		<polygon fill="#C3C2BF" points="641.718,502.935 627.927,494.976 627.927,479.152 641.718,487.113 		"/>
		<polygon fill="#B8B7B3" points="641.718,502.935 655.506,494.976 655.506,479.152 641.718,487.113 		"/>
		<polygon fill="#D5D4D2" points="641.718,487.089 627.927,479.127 641.631,471.217 655.42,479.177 		"/>
	</g>
	<g>
		<polygon fill="#C3C2BF" points="641.718,487.089 627.927,479.127 627.927,463.306 641.718,471.268 		"/>
		<polygon fill="#B8B7B3" points="641.718,487.089 655.506,479.127 655.506,463.306 641.718,471.268 		"/>
		<polygon fill="#D5D4D2" points="641.718,471.243 627.927,463.28 641.631,455.369 655.42,463.331 		"/>
	</g>
	<g>
		<polygon fill="#FFFFFF" points="648.493,478.336 644.219,480.86 644.219,475.936 648.493,473.412 		"/>
		<polygon fill="#FFFFFF" points="654.142,475 649.867,477.522 649.867,472.6 654.142,470.074 		"/>
		<polygon fill="#F7D232" points="648.493,485.32 644.219,487.847 644.219,482.92 648.493,480.397 		"/>
		<polygon fill="#FFFFFF" points="654.142,481.985 649.867,484.509 649.867,479.586 654.142,477.06 		"/>
		<polygon fill="#F7D232" points="648.493,492.094 644.219,494.62 644.219,489.694 648.493,487.169 		"/>
		<polygon fill="#FFFFFF" points="654.142,488.756 649.867,491.282 649.867,486.359 654.142,483.833 		"/>
		<polygon fill="#FFFFFF" points="648.493,498.298 644.219,500.822 644.219,495.899 648.493,493.374 		"/>
		<polygon fill="#FFFFFF" points="654.142,494.962 649.867,497.487 649.867,492.562 654.142,490.039 		"/>
		<polygon fill="#FFFFFF" points="648.493,504.656 644.219,507.179 644.219,502.253 648.493,499.73 		"/>
		<polygon fill="#F7D232" points="654.142,501.318 649.867,503.843 649.867,498.918 654.142,496.393 		"/>
	</g>
</g>
<g>
	<g>
		<polygon fill="#F1E1A7" points="449.088,446.769 475.891,446.769 475.891,416.112 443.008,416.112 		"/>
		<polygon fill="#E46505" points="457.424,423.527 449.088,446.769 443.773,422.916 454.944,421.139 		"/>
		<polygon fill="#EAD493" points="457.424,423.527 463.604,446.769 449.088,446.769 		"/>
		<polyline fill="#F1E1A7" points="477.176,425.956 481.324,436.234 475.656,436.234 475.369,425.764 477.059,425.764 		"/>
		
			<rect x="470.859" y="439.306" transform="matrix(-0.9812 -0.1929 0.1929 -0.9812 853.3205 963.1601)" fill="#E05B4F" width="5.381" height="1.463"/>
		<rect x="469.334" y="425.01" fill="#7A7976" width="3.395" height="6.43"/>
		<polygon fill="#E46505" points="478.736,422.916 486.164,427.106 452.502,422.916 		"/>
		<polygon fill="#E46505" points="443.773,422.916 443.008,452.477 449.088,454.28 455.062,430.116 		"/>
		<polygon fill="#F1E1A7" points="452.763,429.746 459.043,429.746 457.532,423.527 451.861,423.527 		"/>
		<polygon fill="#EAD493" points="457.961,425.3 453.772,425.3 454.124,428.242 458.678,428.242 		"/>
		<polygon fill="#D04D14" points="449.088,454.28 435.932,447.238 448.184,459.058 		"/>
	</g>
	<g>
		<polygon fill="#37424A" points="442.631,419.147 478.736,419.147 475.337,400.661 444.342,403.353 		"/>
		<polygon fill="#6C8391" points="442.631,419.147 478.736,419.147 477.708,413.602 443.214,413.079 		"/>
		<polygon fill="#37424A" points="437.858,422.916 486.395,422.916 478.736,418.214 442.631,418.214 		"/>
	</g>
	<polygon fill="#FFFFFF" points="469.027,446.769 453.772,446.769 450.597,452.378 472.729,452.378 	"/>
	<g>
		<polygon fill="#FFFFFF" points="461.981,455.262 489.168,447.683 488.707,455.66 465.482,461.238 		"/>
		<polygon fill="#F1E1A7" points="489.092,449.049 495.383,447.324 495.492,453.176 488.775,454.507 		"/>
	</g>
	<g>
		<polygon fill="#37424A" points="474.2,452.378 449.187,452.378 442.712,495.491 479.002,495.491 		"/>
		<polygon fill="#37424A" points="463.604,479.193 491.586,481.5 491.586,500.793 478.347,500.793 478.391,489.993 463.604,489.993 
					"/>
		<rect x="478.347" y="500.793" fill="#37424A" width="17.823" height="4.721"/>
		<polyline fill="#37424A" points="471.031,495.733 471.031,504.042 457.424,503.971 456.438,495.733 471.031,494.713 		"/>
		<rect x="453.094" y="487.849" fill="#37424A" width="4.717" height="17.824"/>
	</g>
	<polygon fill="#D12530" points="460.855,495.491 442.712,495.491 449.187,452.378 460.855,452.378 	"/>
	<g>
		<polygon fill="#FFFFFF" points="460.375,455.471 487.666,462.676 483.234,469.323 460.375,462.397 		"/>
		<polygon fill="#F1E1A7" points="486.906,463.812 493.211,465.502 490.347,470.61 483.878,468.361 		"/>
		<polyline fill="#E6C76B" points="490.347,470.61 494.21,469.323 496.17,465.749 493.211,465.502 490.347,470.077 		"/>
	</g>
	<rect x="493.211" y="436.234" fill="#B05C15" width="7.123" height="20.248"/>
	<rect x="493.211" y="436.234" fill="#BF7223" width="3.564" height="20.248"/>
	<polygon fill="#EAD493" points="493.211,456.482 496.775,456.482 496.775,459.539 	"/>
	<polyline fill="#D9BC6F" points="496.77,459.539 500.333,456.482 496.77,456.482 	"/>
	<polygon fill="#676663" points="494.991,458.011 496.775,458.011 496.775,459.539 	"/>
	<polyline fill="#1E1B1A" points="496.775,459.539 498.555,458.011 496.775,458.011 	"/>
	<rect x="493.211" y="437.925" fill="#B0AFAB" width="3.564" height="1.344"/>
	<rect x="496.77" y="437.925" fill="#888783" width="3.564" height="1.344"/>
	<rect x="493.211" y="436.234" fill="#ECD700" width="3.564" height="1.69"/>
	<rect x="496.77" y="436.234" fill="#EBAD00" width="3.564" height="1.69"/>
	<g>
		<polygon fill="#C0A66B" points="514.809,473.45 487.422,472.6 495.75,462.397 523.137,463.249 		"/>
		<polygon fill="#FFFFFF" points="513.029,472.419 490.757,471.727 497.526,463.428 519.803,464.12 		"/>
		<polygon fill="#595856" points="518.506,468.783 514.243,468.65 515.539,467.063 519.803,467.195 		"/>
	</g>
</g>
<path fill="#B6B5B1" d="M413.312,571.229c41.938-9.555,55.514-42.885,56.22-44.655l-17.863-9.877
	c2.224-5.591-25.492,37.862-56.995,39.414c-2.243,0.11-4.417,0.291-6.531,0.531L413.312,571.229z"/>
<g>
	<g>
		<path fill="none" stroke="#F9E540" stroke-width="2" stroke-miterlimit="10" d="M404.976,565.628c0,0,1.435-0.312,3.86-1.038"/>
		<path fill="none" stroke="#F9E540" stroke-width="2" stroke-miterlimit="10" stroke-dasharray="7.1514,7.1514" d="
			M415.602,562.283c11.833-4.513,30.695-14.189,41.369-32.536"/>
		<path fill="none" stroke="#F9E540" stroke-width="2" stroke-miterlimit="10" d="M458.676,526.598
			c0.592-1.178,1.151-2.389,1.672-3.634"/>
	</g>
</g>
<path fill="#B6B5B1" d="M343.965,471.439c41.941,9.551,55.514,42.883,56.221,44.652l-17.863,9.876
	c2.223,5.593-25.494-37.861-56.996-39.412c-2.243-0.112-4.415-0.295-6.53-0.532L343.965,471.439z"/>
<g>
	<g>
		<path fill="none" stroke="#F9E540" stroke-width="2" stroke-miterlimit="10" d="M335.798,477.037c0,0,1.434,0.313,3.859,1.042"/>
		<path fill="none" stroke="#F9E540" stroke-width="2" stroke-miterlimit="10" stroke-dasharray="7.1358,7.1358" d="
			M346.405,480.391c11.791,4.517,30.572,14.193,41.227,32.533"/>
		<path fill="none" stroke="#F9E540" stroke-width="2" stroke-miterlimit="10" d="M389.333,516.067
			c0.592,1.178,1.15,2.389,1.672,3.634"/>
	</g>
</g>
<path fill="#B6B5B1" d="M405.596,518.851c0,0,0.842,16.026,27.505,17.01l3.803,6.224l-20.285,10.798c0,0-22.491-2.923-29.702-21.956
	L405.596,518.851z"/>
<path fill="none" stroke="#F9E540" stroke-width="2" stroke-miterlimit="10" stroke-dasharray="8" d="M396.071,525.008
	c0,0,2.752,15.323,22.486,18.705"/>
<path fill="#B6B5B1" d="M312.635,483.927c-42.282-7.905-57.147-40.682-57.923-42.42l17.462-10.57
	c-2.44-5.497,26.955,36.839,58.493,37.16c2.245,0.021,6.397,0.531,8.52,0.687L312.635,483.927z"/>
<g>
	<g>
		<path fill="none" stroke="#F9E540" stroke-width="2" stroke-miterlimit="10" d="M320.578,478.014c0,0-1.445-0.257-3.896-0.891"/>
		<path fill="none" stroke="#F9E540" stroke-width="2" stroke-miterlimit="10" stroke-dasharray="7.1357,7.1357" d="
			M309.848,475.077c-11.958-4.052-31.103-12.987-42.468-30.896"/>
		<path fill="none" stroke="#F9E540" stroke-width="2" stroke-miterlimit="10" d="M265.558,441.107
			c-0.638-1.153-1.243-2.342-1.813-3.565"/>
	</g>
</g>
<g>
	<g>
		<polygon fill="#C3C2BF" points="589.922,633.402 579.751,627.53 579.751,615.859 589.922,621.731 		"/>
		<polygon fill="#B8B7B3" points="589.922,633.402 600.093,627.53 600.093,615.859 589.922,621.731 		"/>
		<polygon fill="#D5D4D2" points="589.922,621.713 579.751,615.841 589.858,610.005 600.031,615.879 		"/>
	</g>
	<g>
		<polygon fill="#C3C2BF" points="579.312,639.52 569.145,633.646 569.145,621.975 579.312,627.848 		"/>
		<polygon fill="#B8B7B3" points="579.312,639.52 589.484,633.646 589.484,621.975 579.312,627.848 		"/>
		<polygon fill="#D5D4D2" points="579.312,627.829 569.145,621.957 579.252,616.121 589.422,621.994 		"/>
	</g>
	<g>
		<polygon fill="#C3C2BF" points="579.312,628.064 569.145,622.192 569.145,610.521 579.312,616.393 		"/>
		<polygon fill="#B8B7B3" points="579.312,628.064 589.484,622.192 589.484,610.521 579.312,616.393 		"/>
		<polygon fill="#D5D4D2" points="579.312,616.375 569.145,610.502 579.252,604.667 589.422,610.539 		"/>
	</g>
	<g>
		<polygon fill="#C3C2BF" points="579.312,616.375 569.145,610.502 569.145,598.831 579.312,604.703 		"/>
		<polygon fill="#B8B7B3" points="579.312,616.375 589.484,610.502 589.484,598.831 579.312,604.703 		"/>
		<polygon fill="#D5D4D2" points="579.312,604.685 569.145,598.812 579.252,592.977 589.422,598.85 		"/>
	</g>
	<g>
		<g>
			<polygon fill="#C3C2BF" points="567.147,646.512 556.975,640.638 556.977,628.966 567.147,634.84 			"/>
			<polygon fill="#B8B7B3" points="567.147,646.512 577.318,640.638 577.318,628.966 567.147,634.84 			"/>
			<polygon fill="#D5D4D2" points="567.147,634.822 556.975,628.948 567.086,623.114 577.255,628.986 			"/>
		</g>
		<g>
			<polygon fill="#C3C2BF" points="567.147,635.058 556.975,629.183 556.977,617.511 567.147,623.386 			"/>
			<polygon fill="#B8B7B3" points="567.147,635.058 577.318,629.183 577.318,617.511 567.147,623.386 			"/>
			<polygon fill="#D5D4D2" points="567.147,623.364 556.975,617.492 567.086,611.659 577.255,617.528 			"/>
		</g>
		<g>
			<polygon fill="#C3C2BF" points="567.147,623.364 556.975,617.492 556.977,605.82 567.147,611.696 			"/>
			<polygon fill="#B8B7B3" points="567.147,623.364 577.318,617.492 577.318,605.82 567.147,611.696 			"/>
			<polygon fill="#D5D4D2" points="567.147,611.677 556.975,605.805 567.086,599.967 577.255,605.841 			"/>
		</g>
		<g>
			<polygon fill="#FFFFFF" points="572.146,616.908 568.993,618.77 568.993,615.138 572.146,613.276 			"/>
			<polygon fill="#FFFFFF" points="576.313,614.449 573.159,616.311 573.159,612.677 576.313,610.814 			"/>
			<polygon fill="#F7D232" points="572.146,622.062 568.993,623.924 568.993,620.292 572.146,618.43 			"/>
			<polygon fill="#FFFFFF" points="576.313,619.601 573.159,621.462 573.159,617.83 576.313,615.969 			"/>
			<polygon fill="#F7D232" points="572.146,627.059 568.993,628.92 568.993,625.288 572.146,623.426 			"/>
			<polygon fill="#FFFFFF" points="576.313,624.597 573.159,626.461 573.159,622.826 576.313,620.965 			"/>
			<polygon fill="#FFFFFF" points="572.146,631.634 568.993,633.496 568.993,629.864 572.146,628.003 			"/>
			<polygon fill="#FFFFFF" points="576.313,629.176 573.159,631.037 573.159,627.403 576.313,625.542 			"/>
			<polygon fill="#FFFFFF" points="572.146,636.323 568.993,638.185 568.993,634.553 572.146,632.691 			"/>
			<polygon fill="#F7D232" points="576.313,633.861 573.159,635.724 573.159,632.091 576.313,630.229 			"/>
		</g>
	</g>
	<g>
		<polygon fill="#FFFFFF" points="583.893,610.06 580.74,611.921 580.74,608.29 583.893,606.428 		"/>
		<polygon fill="#F7D232" points="588.062,607.598 584.908,609.46 584.908,605.83 588.062,603.967 		"/>
		<polygon fill="#F7D232" points="583.893,615.213 580.74,617.075 580.74,613.442 583.893,611.582 		"/>
		<polygon fill="#FFFFFF" points="588.062,612.752 584.908,614.613 584.908,610.981 588.062,609.119 		"/>
		<polygon fill="#FFFFFF" points="583.893,620.209 580.74,622.071 580.74,618.438 583.893,616.578 		"/>
		<polygon fill="#F7D232" points="588.062,617.748 584.908,619.609 584.908,615.978 588.062,614.116 		"/>
		<polygon fill="#FFFFFF" points="583.893,624.786 580.74,626.647 580.74,623.016 583.893,621.154 		"/>
		<polygon fill="#FFFFFF" points="588.062,622.325 584.908,624.187 584.908,620.555 588.062,618.692 		"/>
		<polygon fill="#F7D232" points="583.893,629.475 580.74,631.336 580.74,627.704 583.893,625.842 		"/>
		<polygon fill="#F7D232" points="588.062,627.013 584.908,628.874 584.908,625.242 588.062,623.381 		"/>
	</g>
</g>
<g>
	<polygon fill="#8ABB4E" points="559.09,210.726 552.273,206.348 552.273,179.752 559.09,184.13 	"/>
	<polygon fill="#73A633" points="559.09,210.726 565.904,206.348 565.904,179.752 559.09,184.13 	"/>
	<polygon fill="#73A633" points="559.215,184.227 559.215,184.217 552.398,179.84 552.398,184.227 	"/>
	<polygon fill="#A6C06C" points="545.584,179.752 545.584,179.762 552.398,184.14 552.398,179.752 	"/>
	<polygon fill="#73A633" points="545.584,184.227 545.584,184.217 552.398,179.84 552.398,184.227 	"/>
	<polygon fill="#67982F" points="559.068,184.205 559.068,184.196 565.883,179.819 565.883,184.205 	"/>
	<polygon fill="#A6C06C" points="572.699,179.73 572.699,179.741 565.883,184.118 565.883,179.73 	"/>
	<polygon fill="#67982F" points="572.699,184.205 572.699,184.196 565.883,179.819 565.883,184.205 	"/>
</g>
<g>
	<polygon fill="#8ABB4E" points="578.306,220.602 571.491,216.224 571.491,195.222 578.306,199.601 	"/>
	<polygon fill="#73A633" points="578.308,220.602 585.122,216.224 585.122,195.222 578.308,199.601 	"/>
	<polygon fill="#73A633" points="578.431,199.697 578.431,199.687 571.614,195.31 571.614,199.697 	"/>
	<polygon fill="#A6C06C" points="564.802,195.222 564.802,195.231 571.614,199.609 571.614,195.222 	"/>
	<polygon fill="#73A633" points="564.802,199.697 564.802,199.687 571.614,195.31 571.614,199.697 	"/>
	<polygon fill="#67982F" points="578.284,199.675 578.284,199.666 585.101,195.288 585.101,199.675 	"/>
	<polygon fill="#A6C06C" points="591.914,195.201 591.914,195.21 585.101,199.587 585.101,195.201 	"/>
	<polygon fill="#67982F" points="591.914,199.675 591.914,199.666 585.101,195.288 585.101,199.675 	"/>
</g>
<g>
	<polygon fill="#8ABB4E" points="603.347,230.929 596.532,226.552 596.532,212.495 603.347,216.872 	"/>
	<polygon fill="#73A633" points="603.347,230.929 610.16,226.552 610.16,212.495 603.347,216.872 	"/>
	<polygon fill="#73A633" points="603.47,216.968 603.47,216.959 596.655,212.582 596.655,216.968 	"/>
	<polygon fill="#A6C06C" points="589.841,212.495 589.841,212.504 596.655,216.881 596.655,212.495 	"/>
	<polygon fill="#73A633" points="589.841,216.969 589.841,216.959 596.655,212.582 596.655,216.968 	"/>
	<polygon fill="#67982F" points="603.324,216.947 603.324,216.938 610.139,212.561 610.139,216.947 	"/>
	<polygon fill="#A6C06C" points="616.955,212.474 616.955,212.482 610.139,216.86 610.139,212.474 	"/>
	<polygon fill="#67982F" points="616.955,216.947 616.955,216.938 610.139,212.561 610.139,216.947 	"/>
</g>
<g>
	<g>
		<polygon fill="#8ABB4E" points="702.585,208.765 695.771,204.387 695.771,177.792 702.585,182.169 		"/>
		<polygon fill="#73A633" points="702.585,208.765 709.401,204.387 709.401,177.792 702.585,182.169 		"/>
		<polygon fill="#73A633" points="702.71,182.266 702.71,182.256 695.896,177.879 695.896,182.266 		"/>
		<polygon fill="#A6C06C" points="689.081,177.792 689.081,177.801 695.896,182.179 695.896,177.792 		"/>
		<polygon fill="#73A633" points="689.081,182.266 689.081,182.256 695.896,177.879 695.896,182.266 		"/>
		<polygon fill="#67982F" points="702.565,182.245 702.565,182.235 709.379,177.858 709.379,182.245 		"/>
		<polygon fill="#A6C06C" points="716.193,177.77 716.193,177.781 709.379,182.157 709.379,177.77 		"/>
		<polygon fill="#67982F" points="716.193,182.245 716.193,182.235 709.379,177.858 709.379,182.245 		"/>
	</g>
	<g>
		<polygon fill="#8ABB4E" points="721.803,218.642 714.988,214.264 714.988,193.262 721.803,197.64 		"/>
		<polygon fill="#73A633" points="721.803,218.642 728.617,214.264 728.617,193.262 721.803,197.64 		"/>
		<polygon fill="#73A633" points="721.928,197.736 721.928,197.726 715.111,193.349 715.111,197.736 		"/>
		<polygon fill="#A6C06C" points="708.297,193.262 708.297,193.271 715.111,197.649 715.111,193.262 		"/>
		<polygon fill="#73A633" points="708.297,197.736 708.297,197.726 715.111,193.349 715.111,197.736 		"/>
		<polygon fill="#67982F" points="721.78,197.714 721.78,197.705 728.595,193.327 728.595,197.714 		"/>
		<polygon fill="#A6C06C" points="735.411,193.24 735.411,193.25 728.595,197.627 728.595,193.24 		"/>
		<polygon fill="#67982F" points="735.411,197.714 735.411,197.705 728.595,193.327 728.595,197.714 		"/>
	</g>
	<g>
		<polygon fill="#8ABB4E" points="746.841,228.969 740.028,224.591 740.028,210.534 746.841,214.911 		"/>
		<polygon fill="#73A633" points="746.843,228.969 753.657,224.591 753.657,210.534 746.843,214.911 		"/>
		<polygon fill="#73A633" points="746.966,215.008 746.966,214.998 740.151,210.621 740.151,215.008 		"/>
		<polygon fill="#A6C06C" points="733.338,210.534 733.338,210.543 740.151,214.921 740.151,210.534 		"/>
		<polygon fill="#73A633" points="733.338,215.008 733.338,214.998 740.151,210.621 740.151,215.008 		"/>
		<polygon fill="#67982F" points="746.821,214.987 746.821,214.977 753.636,210.6 753.636,214.987 		"/>
		<polygon fill="#A6C06C" points="760.45,210.513 760.45,210.521 753.636,214.899 753.636,210.513 		"/>
		<polygon fill="#67982F" points="760.45,214.987 760.45,214.977 753.636,210.6 753.636,214.987 		"/>
	</g>
</g>
<g>
	<path fill="#51BBC0" d="M925.662,274.634c-1.412-3.629-4.935-6.204-9.062-6.204s-7.655,2.575-9.064,6.205
		c-4.471,0.876-7.846,4.812-7.846,9.54c0,5.369,4.354,9.722,9.723,9.722c2.848,0,5.409-1.223,7.188-3.174
		c1.778,1.951,4.34,3.174,7.186,3.174c5.368,0,9.723-4.353,9.723-9.722C933.508,279.447,930.133,275.509,925.662,274.634z"/>
	<path fill="#83CCCF" d="M916.6,268.431L916.6,268.431c-4.128,0-7.655,2.575-9.064,6.205c-4.471,0.876-7.846,4.812-7.846,9.54
		c0,5.369,4.354,9.722,9.723,9.722c2.848,0,5.409-1.223,7.188-3.174V268.431z"/>
	<path fill="#83CCCF" d="M916.821,281.925l-11.203,11.203c1.165,0.495,2.45,0.769,3.794,0.769c2.848,0,5.409-1.223,7.188-3.174
		c1.778,1.951,4.34,3.174,7.186,3.174c1.467,0,2.856-0.326,4.102-0.906L916.821,281.925z"/>
	<path fill="#71C5C5" d="M905.618,293.128c1.165,0.495,2.45,0.769,3.794,0.769c2.848,0,5.409-1.223,7.188-3.174v-8.578
		L905.618,293.128z"/>
</g>
<g>
	<rect x="359.406" y="478.625" fill="#E9B700" width="33.8" height="20.771"/>
	<polygon fill="#F7D232" points="393.206,478.625 393.206,478.625 359.406,478.625 359.406,499.396 359.708,499.396 	"/>
	<rect x="353.514" y="489.285" fill="#F7D232" width="6.193" height="10.11"/>
	<g>
		<circle fill="#82817E" cx="367.67" cy="497.504" r="5.155"/>
		<circle fill="#FFFFFF" cx="367.668" cy="497.504" r="3.129"/>
	</g>
	<g>
		<path fill="#82817E" d="M388.078,497.504c0,2.847-2.308,5.153-5.155,5.153c-2.844,0-5.155-2.307-5.155-5.153
			c0-2.848,2.311-5.154,5.155-5.154C385.771,492.35,388.078,494.656,388.078,497.504z"/>
		<path fill="#FFFFFF" d="M386.052,497.504c0,1.729-1.397,3.129-3.129,3.129c-1.729,0-3.127-1.4-3.127-3.129
			c0-1.728,1.399-3.128,3.127-3.128C384.655,494.376,386.052,495.776,386.052,497.504z"/>
	</g>
	<rect x="353.537" y="490.816" fill="#FFFFFF" width="2.395" height="3.56"/>
</g>
<g>
	<rect x="585.984" y="431.147" fill="#E9B700" width="33.798" height="20.767"/>
	<polygon fill="#F7D232" points="619.782,431.147 619.782,431.147 585.984,431.147 585.984,451.914 586.288,451.914 	"/>
	<rect x="580.094" y="441.806" fill="#F7D232" width="6.194" height="10.108"/>
	<g>
		<circle fill="#82817E" cx="594.249" cy="450.025" r="5.155"/>
		<circle fill="#FFFFFF" cx="594.248" cy="450.025" r="3.129"/>
	</g>
	<g>
		<circle fill="#82817E" cx="609.502" cy="450.025" r="5.155"/>
		<path fill="#FFFFFF" d="M612.631,450.025c0,1.728-1.397,3.128-3.129,3.128c-1.729,0-3.128-1.4-3.128-3.128
			c0-1.729,1.399-3.13,3.128-3.13C611.233,446.896,612.631,448.297,612.631,450.025z"/>
	</g>
	<rect x="580.116" y="443.339" fill="#FFFFFF" width="2.395" height="3.557"/>
</g>
</svg>
